G04*
G04 #@! TF.GenerationSoftware,Altium Limited,Altium Designer,23.0.1 (38)*
G04*
G04 Layer_Color=65535*
%FSLAX44Y44*%
%MOMM*%
G71*
G04*
G04 #@! TF.SameCoordinates,4C8F7ACE-B835-4E2F-ABB1-864D6479480B*
G04*
G04*
G04 #@! TF.FilePolarity,Positive*
G04*
G01*
G75*
%ADD10C,0.2000*%
%ADD11C,0.2540*%
%ADD12C,0.1200*%
%ADD13C,0.2500*%
%ADD14C,0.8000*%
G36*
X532500Y530000D02*
X532500Y542500D01*
X545000D01*
X532500Y530000D01*
D02*
G37*
G36*
X823126Y187500D02*
X821269D01*
X816866Y199114D01*
X818937D01*
X821436Y192141D01*
Y192117D01*
X821460Y192093D01*
X821507Y191951D01*
X821579Y191713D01*
X821674Y191427D01*
X821793Y191070D01*
X821912Y190689D01*
X822055Y190261D01*
X822174Y189809D01*
X822197Y189856D01*
X822221Y189975D01*
X822293Y190166D01*
X822364Y190427D01*
X822459Y190761D01*
X822602Y191141D01*
X822745Y191570D01*
X822911Y192022D01*
X825482Y199114D01*
X827505D01*
X823126Y187500D01*
D02*
G37*
G36*
X808727D02*
X806680D01*
Y200899D01*
X801991Y187500D01*
X800087D01*
X795470Y201137D01*
Y187500D01*
X793423Y187500D01*
Y203517D01*
X796613Y203517D01*
X800397Y192165D01*
Y192141D01*
X800421Y192093D01*
X800444Y192022D01*
X800492Y191903D01*
X800587Y191617D01*
X800682Y191284D01*
X800825Y190903D01*
X800944Y190499D01*
X801063Y190118D01*
X801158Y189785D01*
X801182Y189832D01*
X801206Y189951D01*
X801277Y190142D01*
X801373Y190427D01*
X801491Y190808D01*
X801634Y191237D01*
X801825Y191760D01*
X802015Y192355D01*
X805871Y203517D01*
X808727D01*
Y187500D01*
D02*
G37*
G36*
X785308Y187500D02*
X783094D01*
X776906Y203517D01*
X779215D01*
X783380Y191855D01*
Y191832D01*
X783404Y191784D01*
X783428Y191713D01*
X783475Y191617D01*
X783547Y191356D01*
X783665Y190999D01*
X783808Y190594D01*
X783951Y190166D01*
X784213Y189237D01*
Y189261D01*
X784237Y189309D01*
X784260Y189356D01*
X784284Y189452D01*
X784356Y189713D01*
X784475Y190047D01*
X784594Y190451D01*
X784736Y190903D01*
X784903Y191379D01*
X785070Y191855D01*
X789425Y203517D01*
X791567D01*
X785308Y187500D01*
D02*
G37*
G36*
X867227Y187500D02*
X865251D01*
Y199995D01*
X865227Y199971D01*
X865132Y199876D01*
X864966Y199757D01*
X864751Y199566D01*
X864490Y199376D01*
X864156Y199138D01*
X863776Y198900D01*
X863371Y198638D01*
X863347D01*
X863323Y198615D01*
X863181Y198519D01*
X862966Y198400D01*
X862681Y198258D01*
X862371Y198091D01*
X862038Y197948D01*
X861681Y197782D01*
X861324Y197639D01*
Y199543D01*
X861348D01*
X861396Y199566D01*
X861491Y199614D01*
X861610Y199685D01*
X861753Y199757D01*
X861919Y199852D01*
X862300Y200066D01*
X862752Y200328D01*
X863228Y200637D01*
X863704Y200994D01*
X864180Y201399D01*
X864204Y201423D01*
X864228Y201447D01*
X864394Y201590D01*
X864609Y201804D01*
X864870Y202089D01*
X865156Y202423D01*
X865442Y202780D01*
X865727Y203160D01*
X865941Y203565D01*
X867227D01*
Y187500D01*
D02*
G37*
G36*
X844498D02*
X842261D01*
Y189737D01*
X844498D01*
Y187500D01*
D02*
G37*
G36*
X836120D02*
X834145D01*
Y199995D01*
X834121Y199971D01*
X834026Y199876D01*
X833859Y199757D01*
X833645Y199566D01*
X833383Y199376D01*
X833050Y199138D01*
X832669Y198900D01*
X832265Y198638D01*
X832241D01*
X832217Y198615D01*
X832074Y198519D01*
X831860Y198400D01*
X831574Y198258D01*
X831265Y198091D01*
X830932Y197948D01*
X830575Y197782D01*
X830218Y197639D01*
Y199543D01*
X830242D01*
X830289Y199566D01*
X830385Y199614D01*
X830503Y199685D01*
X830646Y199757D01*
X830813Y199852D01*
X831194Y200066D01*
X831646Y200328D01*
X832122Y200637D01*
X832598Y200994D01*
X833074Y201399D01*
X833098Y201423D01*
X833121Y201447D01*
X833288Y201590D01*
X833502Y201804D01*
X833764Y202089D01*
X834050Y202423D01*
X834335Y202780D01*
X834621Y203160D01*
X834835Y203565D01*
X836120D01*
Y187500D01*
D02*
G37*
G36*
X775264Y201637D02*
X765792D01*
Y196734D01*
X774669D01*
Y194854D01*
X765792D01*
Y189380D01*
X775645D01*
Y187500D01*
X763674D01*
Y203517D01*
X775264D01*
Y201637D01*
D02*
G37*
G36*
X742682Y203493D02*
X742896D01*
X743372Y203470D01*
X743896Y203398D01*
X744420Y203327D01*
X744943Y203208D01*
X745181Y203137D01*
X745395Y203065D01*
X745419D01*
X745443Y203041D01*
X745586Y202994D01*
X745776Y202875D01*
X746038Y202708D01*
X746324Y202494D01*
X746633Y202232D01*
X746919Y201923D01*
X747180Y201542D01*
X747204Y201494D01*
X747299Y201352D01*
X747395Y201137D01*
X747537Y200828D01*
X747656Y200471D01*
X747775Y200066D01*
X747847Y199614D01*
X747871Y199138D01*
Y199114D01*
Y199067D01*
Y198972D01*
X747847Y198853D01*
Y198710D01*
X747823Y198543D01*
X747728Y198139D01*
X747609Y197686D01*
X747395Y197210D01*
X747133Y196710D01*
X746942Y196472D01*
X746752Y196258D01*
X746728Y196234D01*
X746704Y196211D01*
X746633Y196139D01*
X746538Y196068D01*
X746419Y195973D01*
X746276Y195877D01*
X746109Y195758D01*
X745919Y195639D01*
X745681Y195520D01*
X745443Y195378D01*
X745157Y195259D01*
X744848Y195140D01*
X744515Y195044D01*
X744158Y194925D01*
X743777Y194854D01*
X743349Y194783D01*
X743396Y194759D01*
X743491Y194711D01*
X743634Y194640D01*
X743825Y194521D01*
X744253Y194283D01*
X744443Y194116D01*
X744634Y193974D01*
X744681Y193926D01*
X744800Y193831D01*
X744967Y193640D01*
X745205Y193379D01*
X745467Y193069D01*
X745752Y192712D01*
X746062Y192308D01*
X746371Y191855D01*
X749156Y187500D01*
X746514D01*
X744396Y190808D01*
Y190832D01*
X744348Y190880D01*
X744301Y190951D01*
X744229Y191046D01*
X744063Y191308D01*
X743848Y191641D01*
X743610Y191998D01*
X743349Y192355D01*
X743087Y192712D01*
X742849Y193022D01*
X742825Y193045D01*
X742754Y193141D01*
X742635Y193283D01*
X742492Y193450D01*
X742159Y193807D01*
X741968Y193950D01*
X741778Y194093D01*
X741754Y194116D01*
X741706Y194140D01*
X741611Y194188D01*
X741468Y194259D01*
X741159Y194402D01*
X740802Y194521D01*
X740778D01*
X740731Y194545D01*
X740636D01*
X740517Y194569D01*
X740350Y194592D01*
X740160D01*
X739921Y194616D01*
X737185D01*
Y187500D01*
X735066D01*
Y203517D01*
X742516D01*
X742682Y203493D01*
D02*
G37*
G36*
X724618Y189380D02*
X732496D01*
Y187500D01*
X722500D01*
Y203517D01*
X724618D01*
Y189380D01*
D02*
G37*
G36*
X853042Y203541D02*
X853351Y203493D01*
X853708Y203446D01*
X854089Y203351D01*
X854470Y203208D01*
X854851Y203041D01*
X854898Y203018D01*
X855017Y202946D01*
X855184Y202827D01*
X855422Y202661D01*
X855660Y202446D01*
X855946Y202185D01*
X856207Y201899D01*
X856445Y201542D01*
X856469Y201494D01*
X856541Y201375D01*
X856659Y201161D01*
X856802Y200875D01*
X856969Y200542D01*
X857135Y200138D01*
X857302Y199662D01*
X857445Y199162D01*
Y199138D01*
X857469Y199090D01*
X857493Y199019D01*
X857516Y198900D01*
X857540Y198757D01*
X857564Y198591D01*
X857611Y198400D01*
X857635Y198162D01*
X857683Y197901D01*
X857707Y197615D01*
X857730Y197306D01*
X857778Y196972D01*
X857802Y196615D01*
Y196235D01*
X857826Y195806D01*
Y195378D01*
Y195354D01*
Y195259D01*
Y195116D01*
Y194902D01*
X857802Y194664D01*
Y194402D01*
X857778Y194093D01*
X857754Y193759D01*
X857683Y193045D01*
X857564Y192284D01*
X857421Y191522D01*
X857326Y191165D01*
X857231Y190832D01*
Y190808D01*
X857207Y190761D01*
X857159Y190665D01*
X857135Y190546D01*
X857064Y190404D01*
X856993Y190237D01*
X856802Y189856D01*
X856564Y189428D01*
X856255Y188976D01*
X855898Y188547D01*
X855493Y188166D01*
X855470D01*
X855446Y188119D01*
X855374Y188071D01*
X855279Y188024D01*
X855041Y187881D01*
X854708Y187714D01*
X854279Y187524D01*
X853780Y187381D01*
X853232Y187286D01*
X852590Y187238D01*
X852375D01*
X852209Y187262D01*
X852019Y187286D01*
X851780Y187333D01*
X851543Y187381D01*
X851281Y187452D01*
X850995Y187524D01*
X850686Y187643D01*
X850376Y187762D01*
X850091Y187928D01*
X849781Y188119D01*
X849496Y188333D01*
X849210Y188595D01*
X848948Y188880D01*
X848924Y188904D01*
X848877Y188976D01*
X848805Y189095D01*
X848710Y189261D01*
X848591Y189475D01*
X848448Y189761D01*
X848306Y190070D01*
X848163Y190451D01*
X848020Y190880D01*
X847877Y191356D01*
X847735Y191879D01*
X847616Y192474D01*
X847520Y193117D01*
X847449Y193807D01*
X847401Y194569D01*
X847378Y195378D01*
Y195402D01*
Y195497D01*
Y195640D01*
Y195854D01*
X847401Y196092D01*
Y196377D01*
X847425Y196687D01*
X847449Y197020D01*
X847520Y197734D01*
X847616Y198496D01*
X847758Y199257D01*
X847853Y199614D01*
X847949Y199947D01*
Y199971D01*
X847972Y200019D01*
X848020Y200114D01*
X848068Y200233D01*
X848115Y200376D01*
X848187Y200542D01*
X848401Y200923D01*
X848639Y201352D01*
X848924Y201804D01*
X849281Y202232D01*
X849686Y202613D01*
X849710D01*
X849734Y202661D01*
X849805Y202708D01*
X849900Y202756D01*
X850019Y202827D01*
X850138Y202922D01*
X850495Y203089D01*
X850900Y203256D01*
X851400Y203422D01*
X851971Y203517D01*
X852590Y203565D01*
X852804D01*
X853042Y203541D01*
D02*
G37*
G36*
X762150Y183049D02*
X749132D01*
Y184477D01*
X762150D01*
Y183049D01*
D02*
G37*
G36*
X779937Y180513D02*
X780070D01*
X780413Y180475D01*
X780793Y180418D01*
X781231Y180342D01*
X781649Y180228D01*
X782087Y180075D01*
X782106D01*
X782144Y180056D01*
X782201Y180037D01*
X782277Y179999D01*
X782467Y179885D01*
X782734Y179752D01*
X783000Y179562D01*
X783304Y179352D01*
X783590Y179105D01*
X783837Y178820D01*
X783875Y178782D01*
X783951Y178667D01*
X784065Y178496D01*
X784199Y178249D01*
X784351Y177945D01*
X784522Y177583D01*
X784674Y177183D01*
X784807Y176708D01*
X783285Y176289D01*
Y176308D01*
X783266Y176327D01*
X783228Y176461D01*
X783171Y176632D01*
X783095Y176860D01*
X782981Y177107D01*
X782867Y177355D01*
X782714Y177602D01*
X782562Y177830D01*
X782543Y177849D01*
X782486Y177925D01*
X782391Y178021D01*
X782258Y178154D01*
X782087Y178306D01*
X781878Y178458D01*
X781630Y178610D01*
X781345Y178743D01*
X781307Y178763D01*
X781212Y178801D01*
X781040Y178858D01*
X780831Y178915D01*
X780584Y178972D01*
X780279Y179029D01*
X779956Y179067D01*
X779594Y179086D01*
X779404D01*
X779176Y179067D01*
X778910Y179048D01*
X778586Y178991D01*
X778263Y178934D01*
X777920Y178839D01*
X777578Y178724D01*
X777540Y178706D01*
X777445Y178667D01*
X777292Y178572D01*
X777102Y178477D01*
X776874Y178325D01*
X776646Y178173D01*
X776417Y177983D01*
X776208Y177773D01*
X776189Y177754D01*
X776132Y177678D01*
X776037Y177564D01*
X775923Y177412D01*
X775790Y177222D01*
X775656Y177012D01*
X775523Y176765D01*
X775409Y176518D01*
Y176499D01*
X775390Y176461D01*
X775371Y176404D01*
X775333Y176308D01*
X775295Y176194D01*
X775257Y176061D01*
X775219Y175909D01*
X775181Y175738D01*
X775086Y175357D01*
X775010Y174920D01*
X774952Y174444D01*
X774933Y173930D01*
Y173911D01*
Y173854D01*
Y173759D01*
X774952Y173645D01*
Y173493D01*
X774971Y173321D01*
X774991Y173131D01*
X775010Y172922D01*
X775067Y172484D01*
X775181Y171990D01*
X775314Y171514D01*
X775504Y171058D01*
Y171039D01*
X775523Y171000D01*
X775561Y170943D01*
X775618Y170867D01*
X775751Y170658D01*
X775942Y170411D01*
X776189Y170125D01*
X776475Y169840D01*
X776817Y169574D01*
X777216Y169345D01*
X777235D01*
X777273Y169326D01*
X777331Y169288D01*
X777407Y169269D01*
X777521Y169212D01*
X777635Y169174D01*
X777939Y169079D01*
X778301Y168965D01*
X778719Y168889D01*
X779157Y168813D01*
X779613Y168794D01*
X779804D01*
X779899Y168813D01*
X780013D01*
X780298Y168851D01*
X780622Y168889D01*
X780983Y168965D01*
X781364Y169079D01*
X781763Y169212D01*
X781782D01*
X781801Y169231D01*
X781858Y169250D01*
X781935Y169288D01*
X782125Y169364D01*
X782353Y169479D01*
X782619Y169612D01*
X782886Y169783D01*
X783133Y169954D01*
X783361Y170125D01*
Y172523D01*
X779594D01*
Y174025D01*
X785016D01*
Y169269D01*
X784997Y169250D01*
X784959Y169231D01*
X784883Y169174D01*
X784807Y169117D01*
X784693Y169022D01*
X784541Y168927D01*
X784389Y168832D01*
X784218Y168718D01*
X783837Y168470D01*
X783399Y168223D01*
X782924Y167995D01*
X782429Y167785D01*
X782410D01*
X782372Y167766D01*
X782296Y167747D01*
X782201Y167709D01*
X782087Y167671D01*
X781935Y167633D01*
X781763Y167576D01*
X781592Y167538D01*
X781173Y167443D01*
X780717Y167367D01*
X780222Y167310D01*
X779709Y167291D01*
X779518D01*
X779385Y167310D01*
X779233D01*
X779024Y167329D01*
X778814Y167367D01*
X778567Y167386D01*
X778054Y167481D01*
X777464Y167633D01*
X776874Y167823D01*
X776284Y168090D01*
X776265Y168109D01*
X776208Y168128D01*
X776132Y168166D01*
X776037Y168242D01*
X775904Y168318D01*
X775751Y168432D01*
X775409Y168680D01*
X775048Y169003D01*
X774648Y169403D01*
X774287Y169878D01*
X773963Y170411D01*
Y170430D01*
X773925Y170487D01*
X773887Y170563D01*
X773849Y170677D01*
X773792Y170829D01*
X773716Y171000D01*
X773640Y171191D01*
X773583Y171419D01*
X773507Y171666D01*
X773430Y171933D01*
X773297Y172504D01*
X773221Y173150D01*
X773183Y173835D01*
Y173854D01*
Y173911D01*
Y174025D01*
X773202Y174159D01*
Y174330D01*
X773221Y174520D01*
X773240Y174729D01*
X773278Y174977D01*
X773373Y175509D01*
X773507Y176099D01*
X773697Y176727D01*
X773963Y177336D01*
X773982Y177355D01*
X774001Y177412D01*
X774039Y177488D01*
X774115Y177602D01*
X774192Y177735D01*
X774287Y177887D01*
X774534Y178249D01*
X774857Y178629D01*
X775238Y179029D01*
X775695Y179409D01*
X775942Y179581D01*
X776208Y179733D01*
X776227Y179752D01*
X776284Y179771D01*
X776360Y179809D01*
X776475Y179866D01*
X776608Y179923D01*
X776779Y179980D01*
X776969Y180056D01*
X777178Y180132D01*
X777426Y180208D01*
X777673Y180285D01*
X777958Y180342D01*
X778244Y180399D01*
X778891Y180494D01*
X779576Y180532D01*
X779804D01*
X779937Y180513D01*
D02*
G37*
G36*
X757545Y176974D02*
X757678D01*
X757830Y176955D01*
X758173Y176898D01*
X758553Y176803D01*
X758972Y176670D01*
X759371Y176480D01*
X759752Y176213D01*
X759771D01*
X759790Y176175D01*
X759904Y176080D01*
X760075Y175890D01*
X760266Y175662D01*
X760475Y175357D01*
X760684Y174977D01*
X760855Y174539D01*
X760988Y174044D01*
X759466Y173816D01*
Y173835D01*
X759447Y173854D01*
X759428Y173968D01*
X759371Y174140D01*
X759276Y174349D01*
X759181Y174577D01*
X759048Y174805D01*
X758877Y175034D01*
X758687Y175224D01*
X758667Y175243D01*
X758591Y175300D01*
X758477Y175376D01*
X758306Y175471D01*
X758116Y175547D01*
X757887Y175623D01*
X757640Y175681D01*
X757355Y175700D01*
X757241D01*
X757165Y175681D01*
X756936Y175662D01*
X756670Y175585D01*
X756366Y175490D01*
X756042Y175338D01*
X755738Y175129D01*
X755585Y174996D01*
X755433Y174844D01*
X755395Y174805D01*
X755376Y174748D01*
X755319Y174672D01*
X755262Y174596D01*
X755205Y174482D01*
X755148Y174349D01*
X755072Y174178D01*
X754996Y174006D01*
X754939Y173816D01*
X754882Y173588D01*
X754825Y173340D01*
X754786Y173074D01*
X754748Y172789D01*
X754710Y172484D01*
Y172142D01*
Y172123D01*
Y172066D01*
Y171971D01*
X754729Y171838D01*
Y171685D01*
X754748Y171514D01*
X754805Y171096D01*
X754882Y170658D01*
X755015Y170201D01*
X755186Y169783D01*
X755300Y169593D01*
X755414Y169422D01*
X755452Y169383D01*
X755547Y169288D01*
X755700Y169155D01*
X755909Y169003D01*
X756175Y168851D01*
X756499Y168718D01*
X756860Y168622D01*
X757069Y168603D01*
X757279Y168584D01*
X757431D01*
X757602Y168622D01*
X757811Y168661D01*
X758059Y168718D01*
X758306Y168813D01*
X758553Y168946D01*
X758801Y169136D01*
X758820Y169155D01*
X758896Y169250D01*
X759010Y169383D01*
X759143Y169574D01*
X759276Y169821D01*
X759409Y170125D01*
X759524Y170487D01*
X759600Y170905D01*
X761141Y170696D01*
Y170677D01*
X761122Y170620D01*
X761103Y170544D01*
X761084Y170430D01*
X761046Y170297D01*
X761008Y170144D01*
X760874Y169783D01*
X760703Y169383D01*
X760475Y168965D01*
X760189Y168546D01*
X759828Y168185D01*
X759809D01*
X759790Y168147D01*
X759733Y168109D01*
X759638Y168052D01*
X759543Y167976D01*
X759428Y167899D01*
X759276Y167823D01*
X759124Y167747D01*
X758763Y167576D01*
X758325Y167424D01*
X757830Y167329D01*
X757564Y167310D01*
X757279Y167291D01*
X757088D01*
X756974Y167310D01*
X756803Y167329D01*
X756613Y167348D01*
X756423Y167386D01*
X756194Y167443D01*
X755700Y167595D01*
X755452Y167690D01*
X755205Y167804D01*
X754939Y167957D01*
X754691Y168128D01*
X754463Y168318D01*
X754235Y168527D01*
X754216Y168546D01*
X754178Y168584D01*
X754121Y168661D01*
X754063Y168756D01*
X753968Y168889D01*
X753873Y169041D01*
X753778Y169231D01*
X753664Y169440D01*
X753550Y169669D01*
X753455Y169935D01*
X753360Y170240D01*
X753264Y170563D01*
X753207Y170905D01*
X753150Y171286D01*
X753112Y171685D01*
X753093Y172104D01*
Y172123D01*
Y172180D01*
Y172256D01*
Y172351D01*
X753112Y172484D01*
Y172637D01*
X753150Y172998D01*
X753207Y173398D01*
X753303Y173854D01*
X753417Y174292D01*
X753588Y174729D01*
Y174748D01*
X753607Y174786D01*
X753645Y174844D01*
X753683Y174920D01*
X753797Y175110D01*
X753968Y175357D01*
X754178Y175643D01*
X754425Y175909D01*
X754729Y176194D01*
X755091Y176423D01*
X755110D01*
X755129Y176442D01*
X755186Y176480D01*
X755262Y176518D01*
X755471Y176613D01*
X755738Y176708D01*
X756080Y176822D01*
X756442Y176898D01*
X756860Y176974D01*
X757298Y176993D01*
X757450D01*
X757545Y176974D01*
D02*
G37*
G36*
X850195Y172009D02*
X851926D01*
Y170563D01*
X850195D01*
Y167500D01*
X848616D01*
Y170563D01*
X843042D01*
Y172009D01*
X848920Y180304D01*
X850195D01*
Y172009D01*
D02*
G37*
G36*
X838171Y180323D02*
X838323Y180304D01*
X838514Y180285D01*
X838704Y180266D01*
X838932Y180208D01*
X839389Y180094D01*
X839883Y179904D01*
X840112Y179790D01*
X840340Y179657D01*
X840568Y179505D01*
X840778Y179314D01*
X840797Y179295D01*
X840816Y179276D01*
X840873Y179219D01*
X840949Y179124D01*
X841025Y179029D01*
X841120Y178915D01*
X841215Y178763D01*
X841329Y178610D01*
X841520Y178249D01*
X841691Y177811D01*
X841767Y177583D01*
X841824Y177317D01*
X841843Y177069D01*
X841862Y176784D01*
Y176746D01*
Y176651D01*
X841843Y176499D01*
X841824Y176308D01*
X841786Y176061D01*
X841729Y175814D01*
X841653Y175547D01*
X841539Y175262D01*
X841520Y175224D01*
X841481Y175129D01*
X841405Y174996D01*
X841291Y174805D01*
X841139Y174558D01*
X840968Y174292D01*
X840740Y174006D01*
X840492Y173702D01*
X840454Y173664D01*
X840359Y173550D01*
X840283Y173474D01*
X840169Y173360D01*
X840055Y173245D01*
X839921Y173112D01*
X839769Y172960D01*
X839579Y172789D01*
X839389Y172618D01*
X839161Y172408D01*
X838932Y172199D01*
X838666Y171971D01*
X838381Y171723D01*
X838076Y171457D01*
X838057Y171438D01*
X838019Y171400D01*
X837943Y171343D01*
X837848Y171267D01*
X837619Y171058D01*
X837315Y170810D01*
X837011Y170544D01*
X836725Y170278D01*
X836459Y170030D01*
X836364Y169935D01*
X836269Y169840D01*
X836250Y169821D01*
X836212Y169764D01*
X836136Y169688D01*
X836040Y169574D01*
X835926Y169459D01*
X835812Y169307D01*
X835603Y169003D01*
X841881D01*
Y167500D01*
X833415D01*
Y167519D01*
Y167595D01*
Y167709D01*
X833434Y167842D01*
X833453Y168014D01*
X833472Y168185D01*
X833529Y168394D01*
X833586Y168584D01*
Y168603D01*
X833605Y168622D01*
X833643Y168737D01*
X833719Y168908D01*
X833834Y169117D01*
X833986Y169383D01*
X834157Y169669D01*
X834366Y169973D01*
X834614Y170278D01*
Y170297D01*
X834652Y170316D01*
X834747Y170430D01*
X834918Y170601D01*
X835146Y170829D01*
X835432Y171115D01*
X835793Y171457D01*
X836212Y171819D01*
X836687Y172218D01*
X836706Y172237D01*
X836783Y172294D01*
X836878Y172389D01*
X837030Y172504D01*
X837201Y172637D01*
X837391Y172808D01*
X837810Y173207D01*
X838285Y173626D01*
X838742Y174083D01*
X838970Y174311D01*
X839161Y174520D01*
X839351Y174729D01*
X839503Y174920D01*
Y174939D01*
X839541Y174958D01*
X839579Y175015D01*
X839617Y175091D01*
X839731Y175281D01*
X839883Y175528D01*
X840017Y175833D01*
X840131Y176156D01*
X840207Y176480D01*
X840245Y176822D01*
Y176841D01*
Y176860D01*
X840226Y176974D01*
X840207Y177146D01*
X840169Y177374D01*
X840074Y177621D01*
X839960Y177887D01*
X839788Y178154D01*
X839560Y178401D01*
X839522Y178420D01*
X839446Y178496D01*
X839294Y178610D01*
X839103Y178724D01*
X838837Y178839D01*
X838552Y178953D01*
X838209Y179029D01*
X837829Y179048D01*
X837715D01*
X837639Y179029D01*
X837429Y179010D01*
X837182Y178953D01*
X836878Y178877D01*
X836573Y178743D01*
X836269Y178572D01*
X836002Y178344D01*
X835983Y178306D01*
X835907Y178211D01*
X835793Y178059D01*
X835679Y177849D01*
X835546Y177583D01*
X835451Y177260D01*
X835375Y176879D01*
X835337Y176461D01*
X833719Y176632D01*
Y176651D01*
Y176708D01*
X833738Y176803D01*
X833757Y176936D01*
X833796Y177088D01*
X833834Y177260D01*
X833929Y177659D01*
X834081Y178097D01*
X834309Y178553D01*
X834442Y178782D01*
X834595Y178991D01*
X834766Y179200D01*
X834956Y179390D01*
X834975Y179409D01*
X835013Y179428D01*
X835070Y179485D01*
X835146Y179543D01*
X835260Y179619D01*
X835394Y179695D01*
X835546Y179771D01*
X835736Y179866D01*
X835926Y179961D01*
X836136Y180037D01*
X836383Y180113D01*
X836649Y180189D01*
X836916Y180247D01*
X837220Y180304D01*
X837524Y180323D01*
X837867Y180342D01*
X838038D01*
X838171Y180323D01*
D02*
G37*
G36*
X818271D02*
X818424Y180304D01*
X818614Y180285D01*
X818804Y180266D01*
X819033Y180208D01*
X819489Y180094D01*
X819984Y179904D01*
X820212Y179790D01*
X820440Y179657D01*
X820669Y179505D01*
X820878Y179314D01*
X820897Y179295D01*
X820916Y179276D01*
X820973Y179219D01*
X821049Y179124D01*
X821125Y179029D01*
X821220Y178915D01*
X821316Y178763D01*
X821430Y178610D01*
X821620Y178249D01*
X821791Y177811D01*
X821867Y177583D01*
X821924Y177317D01*
X821943Y177069D01*
X821962Y176784D01*
Y176746D01*
Y176651D01*
X821943Y176499D01*
X821924Y176308D01*
X821886Y176061D01*
X821829Y175814D01*
X821753Y175547D01*
X821639Y175262D01*
X821620Y175224D01*
X821582Y175129D01*
X821506Y174996D01*
X821392Y174805D01*
X821239Y174558D01*
X821068Y174292D01*
X820840Y174006D01*
X820592Y173702D01*
X820555Y173664D01*
X820459Y173550D01*
X820383Y173474D01*
X820269Y173360D01*
X820155Y173245D01*
X820022Y173112D01*
X819870Y172960D01*
X819679Y172789D01*
X819489Y172618D01*
X819261Y172408D01*
X819033Y172199D01*
X818766Y171971D01*
X818481Y171723D01*
X818176Y171457D01*
X818157Y171438D01*
X818119Y171400D01*
X818043Y171343D01*
X817948Y171267D01*
X817720Y171058D01*
X817415Y170810D01*
X817111Y170544D01*
X816826Y170278D01*
X816559Y170030D01*
X816464Y169935D01*
X816369Y169840D01*
X816350Y169821D01*
X816312Y169764D01*
X816236Y169688D01*
X816141Y169574D01*
X816027Y169459D01*
X815912Y169307D01*
X815703Y169003D01*
X821981D01*
Y167500D01*
X813515D01*
Y167519D01*
Y167595D01*
Y167709D01*
X813534Y167842D01*
X813553Y168014D01*
X813572Y168185D01*
X813630Y168394D01*
X813687Y168584D01*
Y168603D01*
X813706Y168622D01*
X813744Y168737D01*
X813820Y168908D01*
X813934Y169117D01*
X814086Y169383D01*
X814257Y169669D01*
X814467Y169973D01*
X814714Y170278D01*
Y170297D01*
X814752Y170316D01*
X814847Y170430D01*
X815018Y170601D01*
X815247Y170829D01*
X815532Y171115D01*
X815893Y171457D01*
X816312Y171819D01*
X816788Y172218D01*
X816807Y172237D01*
X816883Y172294D01*
X816978Y172389D01*
X817130Y172504D01*
X817301Y172637D01*
X817492Y172808D01*
X817910Y173207D01*
X818386Y173626D01*
X818842Y174083D01*
X819071Y174311D01*
X819261Y174520D01*
X819451Y174729D01*
X819603Y174920D01*
Y174939D01*
X819641Y174958D01*
X819679Y175015D01*
X819717Y175091D01*
X819831Y175281D01*
X819984Y175528D01*
X820117Y175833D01*
X820231Y176156D01*
X820307Y176480D01*
X820345Y176822D01*
Y176841D01*
Y176860D01*
X820326Y176974D01*
X820307Y177146D01*
X820269Y177374D01*
X820174Y177621D01*
X820060Y177887D01*
X819889Y178154D01*
X819660Y178401D01*
X819622Y178420D01*
X819546Y178496D01*
X819394Y178610D01*
X819204Y178724D01*
X818937Y178839D01*
X818652Y178953D01*
X818310Y179029D01*
X817929Y179048D01*
X817815D01*
X817739Y179029D01*
X817530Y179010D01*
X817282Y178953D01*
X816978Y178877D01*
X816673Y178743D01*
X816369Y178572D01*
X816103Y178344D01*
X816084Y178306D01*
X816008Y178211D01*
X815893Y178059D01*
X815779Y177849D01*
X815646Y177583D01*
X815551Y177260D01*
X815475Y176879D01*
X815437Y176461D01*
X813820Y176632D01*
Y176651D01*
Y176708D01*
X813839Y176803D01*
X813858Y176936D01*
X813896Y177088D01*
X813934Y177260D01*
X814029Y177659D01*
X814181Y178097D01*
X814409Y178553D01*
X814543Y178782D01*
X814695Y178991D01*
X814866Y179200D01*
X815056Y179390D01*
X815075Y179409D01*
X815113Y179428D01*
X815171Y179485D01*
X815247Y179543D01*
X815361Y179619D01*
X815494Y179695D01*
X815646Y179771D01*
X815836Y179866D01*
X816027Y179961D01*
X816236Y180037D01*
X816483Y180113D01*
X816749Y180189D01*
X817016Y180247D01*
X817320Y180304D01*
X817625Y180323D01*
X817967Y180342D01*
X818138D01*
X818271Y180323D01*
D02*
G37*
G36*
X801073Y169003D02*
X807370D01*
Y167500D01*
X799380D01*
Y180304D01*
X801073D01*
Y169003D01*
D02*
G37*
G36*
X792607Y180285D02*
X792759D01*
X793083Y180247D01*
X793463Y180208D01*
X793844Y180132D01*
X794243Y180037D01*
X794586Y179904D01*
X794605D01*
X794624Y179885D01*
X794738Y179828D01*
X794890Y179733D01*
X795100Y179619D01*
X795328Y179447D01*
X795556Y179238D01*
X795765Y178991D01*
X795975Y178706D01*
X795994Y178667D01*
X796051Y178572D01*
X796146Y178401D01*
X796241Y178192D01*
X796317Y177945D01*
X796412Y177659D01*
X796469Y177336D01*
X796488Y177012D01*
Y176974D01*
Y176879D01*
X796469Y176708D01*
X796431Y176518D01*
X796374Y176270D01*
X796298Y176023D01*
X796184Y175738D01*
X796032Y175471D01*
X796013Y175433D01*
X795956Y175357D01*
X795842Y175224D01*
X795708Y175053D01*
X795518Y174862D01*
X795271Y174672D01*
X795004Y174482D01*
X794681Y174311D01*
X794700D01*
X794738Y174292D01*
X794795Y174273D01*
X794871Y174254D01*
X795080Y174159D01*
X795347Y174044D01*
X795632Y173873D01*
X795918Y173664D01*
X796222Y173417D01*
X796469Y173131D01*
X796488Y173093D01*
X796564Y172979D01*
X796679Y172808D01*
X796793Y172580D01*
X796907Y172294D01*
X797021Y171971D01*
X797097Y171609D01*
X797116Y171210D01*
Y171191D01*
Y171172D01*
Y171058D01*
X797097Y170886D01*
X797078Y170658D01*
X797021Y170392D01*
X796964Y170106D01*
X796869Y169821D01*
X796736Y169517D01*
X796717Y169479D01*
X796660Y169383D01*
X796583Y169250D01*
X796469Y169079D01*
X796336Y168889D01*
X796184Y168699D01*
X795994Y168508D01*
X795784Y168337D01*
X795765Y168318D01*
X795689Y168261D01*
X795556Y168185D01*
X795404Y168109D01*
X795195Y167995D01*
X794966Y167899D01*
X794681Y167804D01*
X794377Y167709D01*
X794339D01*
X794224Y167671D01*
X794053Y167652D01*
X793806Y167614D01*
X793502Y167576D01*
X793159Y167538D01*
X792759Y167519D01*
X792322Y167500D01*
X787452D01*
Y180304D01*
X792493D01*
X792607Y180285D01*
D02*
G37*
G36*
X828202Y180323D02*
X828450Y180285D01*
X828735Y180247D01*
X829039Y180170D01*
X829344Y180056D01*
X829648Y179923D01*
X829686Y179904D01*
X829781Y179847D01*
X829915Y179752D01*
X830105Y179619D01*
X830295Y179447D01*
X830523Y179238D01*
X830733Y179010D01*
X830923Y178724D01*
X830942Y178687D01*
X830999Y178591D01*
X831094Y178420D01*
X831208Y178192D01*
X831341Y177925D01*
X831475Y177602D01*
X831608Y177222D01*
X831722Y176822D01*
Y176803D01*
X831741Y176765D01*
X831760Y176708D01*
X831779Y176613D01*
X831798Y176499D01*
X831817Y176366D01*
X831855Y176213D01*
X831874Y176023D01*
X831912Y175814D01*
X831931Y175585D01*
X831950Y175338D01*
X831988Y175072D01*
X832007Y174786D01*
Y174482D01*
X832026Y174140D01*
Y173797D01*
Y173778D01*
Y173702D01*
Y173588D01*
Y173417D01*
X832007Y173226D01*
Y173017D01*
X831988Y172770D01*
X831969Y172504D01*
X831912Y171933D01*
X831817Y171324D01*
X831703Y170715D01*
X831627Y170430D01*
X831551Y170163D01*
Y170144D01*
X831532Y170106D01*
X831494Y170030D01*
X831475Y169935D01*
X831417Y169821D01*
X831360Y169688D01*
X831208Y169383D01*
X831018Y169041D01*
X830771Y168680D01*
X830485Y168337D01*
X830162Y168033D01*
X830143D01*
X830124Y167995D01*
X830067Y167957D01*
X829991Y167918D01*
X829800Y167804D01*
X829534Y167671D01*
X829192Y167519D01*
X828792Y167405D01*
X828355Y167329D01*
X827841Y167291D01*
X827670D01*
X827536Y167310D01*
X827384Y167329D01*
X827194Y167367D01*
X827004Y167405D01*
X826795Y167462D01*
X826566Y167519D01*
X826319Y167614D01*
X826072Y167709D01*
X825843Y167842D01*
X825596Y167995D01*
X825368Y168166D01*
X825139Y168375D01*
X824930Y168603D01*
X824911Y168622D01*
X824873Y168680D01*
X824816Y168775D01*
X824740Y168908D01*
X824645Y169079D01*
X824531Y169307D01*
X824417Y169555D01*
X824302Y169859D01*
X824188Y170201D01*
X824074Y170582D01*
X823960Y171000D01*
X823865Y171476D01*
X823789Y171990D01*
X823732Y172542D01*
X823693Y173150D01*
X823674Y173797D01*
Y173816D01*
Y173892D01*
Y174006D01*
Y174178D01*
X823693Y174368D01*
Y174596D01*
X823713Y174844D01*
X823732Y175110D01*
X823789Y175681D01*
X823865Y176289D01*
X823979Y176898D01*
X824055Y177183D01*
X824131Y177450D01*
Y177469D01*
X824150Y177507D01*
X824188Y177583D01*
X824226Y177678D01*
X824264Y177792D01*
X824321Y177925D01*
X824493Y178230D01*
X824683Y178572D01*
X824911Y178934D01*
X825197Y179276D01*
X825520Y179581D01*
X825539D01*
X825558Y179619D01*
X825615Y179657D01*
X825691Y179695D01*
X825786Y179752D01*
X825881Y179828D01*
X826167Y179961D01*
X826490Y180094D01*
X826890Y180228D01*
X827346Y180304D01*
X827841Y180342D01*
X828012D01*
X828202Y180323D01*
D02*
G37*
G36*
X763538Y180494D02*
X763595Y180418D01*
X763671Y180304D01*
X763785Y180132D01*
X763918Y179942D01*
X764070Y179695D01*
X764242Y179428D01*
X764432Y179143D01*
X764622Y178820D01*
X764831Y178458D01*
X765022Y178097D01*
X765231Y177716D01*
X765611Y176917D01*
X765783Y176518D01*
X765935Y176099D01*
Y176080D01*
X765973Y176023D01*
X765992Y175909D01*
X766049Y175776D01*
X766087Y175604D01*
X766144Y175395D01*
X766220Y175148D01*
X766277Y174881D01*
X766334Y174596D01*
X766411Y174292D01*
X766468Y173968D01*
X766506Y173626D01*
X766582Y172884D01*
X766620Y172123D01*
Y172104D01*
Y172009D01*
Y171895D01*
X766601Y171723D01*
Y171514D01*
X766582Y171267D01*
X766544Y170982D01*
X766506Y170677D01*
X766449Y170335D01*
X766391Y169973D01*
X766239Y169212D01*
X766011Y168394D01*
X765859Y167995D01*
X765706Y167576D01*
X765687Y167557D01*
X765668Y167481D01*
X765611Y167367D01*
X765535Y167215D01*
X765459Y167024D01*
X765345Y166796D01*
X765231Y166549D01*
X765098Y166282D01*
X764946Y165978D01*
X764774Y165674D01*
X764394Y165027D01*
X763975Y164380D01*
X763519Y163733D01*
X762396D01*
Y163752D01*
X762434Y163790D01*
X762453Y163847D01*
X762510Y163923D01*
X762568Y164018D01*
X762644Y164152D01*
X762720Y164285D01*
X762796Y164456D01*
X763005Y164837D01*
X763214Y165274D01*
X763462Y165788D01*
X763709Y166359D01*
X763937Y166967D01*
X764185Y167614D01*
X764394Y168318D01*
X764603Y169041D01*
X764755Y169783D01*
X764889Y170563D01*
X764965Y171343D01*
X765003Y172123D01*
Y172142D01*
Y172199D01*
Y172294D01*
Y172408D01*
X764984Y172561D01*
Y172732D01*
X764965Y172922D01*
Y173150D01*
X764908Y173645D01*
X764850Y174178D01*
X764755Y174767D01*
X764622Y175376D01*
Y175395D01*
X764603Y175433D01*
X764584Y175509D01*
X764565Y175604D01*
X764527Y175719D01*
X764489Y175852D01*
X764413Y176175D01*
X764280Y176575D01*
X764146Y176993D01*
X763975Y177431D01*
X763785Y177887D01*
Y177906D01*
X763766Y177925D01*
X763747Y177964D01*
X763709Y178040D01*
X763671Y178135D01*
X763614Y178230D01*
X763557Y178363D01*
X763481Y178515D01*
X763405Y178687D01*
X763290Y178877D01*
X763176Y179086D01*
X763062Y179333D01*
X762910Y179581D01*
X762758Y179866D01*
X762587Y180170D01*
X762396Y180513D01*
X763519D01*
X763538Y180494D01*
D02*
G37*
G36*
X751704D02*
X751685Y180437D01*
X751628Y180342D01*
X751552Y180208D01*
X751457Y180075D01*
X751362Y179885D01*
X751153Y179505D01*
X750905Y179067D01*
X750677Y178648D01*
X750468Y178249D01*
X750392Y178059D01*
X750316Y177906D01*
Y177887D01*
X750297Y177849D01*
X750259Y177792D01*
X750220Y177697D01*
X750182Y177583D01*
X750125Y177450D01*
X750011Y177146D01*
X749878Y176765D01*
X749745Y176346D01*
X749612Y175890D01*
X749479Y175395D01*
Y175376D01*
X749460Y175319D01*
X749441Y175243D01*
X749421Y175110D01*
X749402Y174958D01*
X749364Y174786D01*
X749326Y174596D01*
X749307Y174368D01*
X749269Y174140D01*
X749231Y173873D01*
X749174Y173321D01*
X749136Y172732D01*
X749117Y172123D01*
Y172104D01*
Y172066D01*
Y172009D01*
Y171933D01*
X749136Y171838D01*
Y171704D01*
Y171571D01*
X749155Y171400D01*
X749193Y171019D01*
X749250Y170582D01*
X749345Y170068D01*
X749441Y169498D01*
X749574Y168889D01*
X749745Y168223D01*
X749973Y167538D01*
X750220Y166815D01*
X750525Y166054D01*
X750867Y165293D01*
X751267Y164513D01*
X751723Y163733D01*
X750601D01*
X750582Y163752D01*
X750544Y163809D01*
X750468Y163904D01*
X750392Y164018D01*
X750278Y164190D01*
X750144Y164380D01*
X749992Y164589D01*
X749840Y164837D01*
X749669Y165103D01*
X749479Y165407D01*
X749307Y165712D01*
X749117Y166054D01*
X748927Y166416D01*
X748756Y166777D01*
X748394Y167576D01*
Y167595D01*
X748356Y167671D01*
X748318Y167785D01*
X748261Y167957D01*
X748185Y168147D01*
X748109Y168394D01*
X748033Y168661D01*
X747957Y168965D01*
X747861Y169288D01*
X747785Y169650D01*
X747709Y170030D01*
X747633Y170411D01*
X747538Y171248D01*
X747519Y171685D01*
X747500Y172123D01*
Y172142D01*
Y172218D01*
Y172332D01*
X747519Y172484D01*
Y172656D01*
X747538Y172884D01*
X747557Y173131D01*
X747576Y173398D01*
X747614Y173683D01*
X747671Y174006D01*
X747785Y174672D01*
X747938Y175376D01*
X748166Y176099D01*
X748185Y176118D01*
X748204Y176194D01*
X748242Y176327D01*
X748318Y176480D01*
X748394Y176670D01*
X748508Y176917D01*
X748623Y177183D01*
X748756Y177488D01*
X748927Y177792D01*
X749098Y178154D01*
X749307Y178515D01*
X749517Y178896D01*
X749764Y179295D01*
X750030Y179695D01*
X750297Y180094D01*
X750601Y180513D01*
X751723D01*
X751704Y180494D01*
D02*
G37*
%LPC*%
G36*
X742254Y201756D02*
X737185D01*
Y196449D01*
X741968D01*
X742230Y196472D01*
X742563Y196496D01*
X742920Y196520D01*
X743301Y196568D01*
X743658Y196639D01*
X743991Y196734D01*
X744039Y196758D01*
X744134Y196782D01*
X744277Y196877D01*
X744467Y196972D01*
X744658Y197115D01*
X744872Y197258D01*
X745086Y197472D01*
X745253Y197686D01*
X745276Y197710D01*
X745324Y197805D01*
X745395Y197948D01*
X745467Y198115D01*
X745538Y198329D01*
X745610Y198591D01*
X745657Y198853D01*
X745681Y199138D01*
Y199162D01*
Y199186D01*
X745657Y199328D01*
X745633Y199543D01*
X745586Y199804D01*
X745467Y200090D01*
X745324Y200423D01*
X745134Y200733D01*
X744848Y201018D01*
X744800Y201042D01*
X744681Y201137D01*
X744491Y201256D01*
X744205Y201399D01*
X743848Y201518D01*
X743396Y201637D01*
X742873Y201732D01*
X742254Y201756D01*
D02*
G37*
G36*
X852566Y201947D02*
X852447D01*
X852352Y201923D01*
X852090Y201875D01*
X851780Y201804D01*
X851447Y201661D01*
X851090Y201447D01*
X850900Y201328D01*
X850733Y201161D01*
X850567Y200994D01*
X850400Y200780D01*
Y200756D01*
X850352Y200709D01*
X850305Y200614D01*
X850234Y200495D01*
X850162Y200328D01*
X850091Y200114D01*
X849995Y199852D01*
X849900Y199566D01*
X849805Y199209D01*
X849710Y198829D01*
X849639Y198400D01*
X849567Y197901D01*
X849496Y197353D01*
X849448Y196758D01*
X849424Y196116D01*
X849400Y195402D01*
Y195354D01*
Y195235D01*
Y195021D01*
X849424Y194759D01*
Y194450D01*
X849448Y194093D01*
X849472Y193688D01*
X849520Y193260D01*
X849615Y192379D01*
X849781Y191522D01*
X849876Y191118D01*
X849995Y190737D01*
X850138Y190427D01*
X850305Y190142D01*
Y190118D01*
X850352Y190094D01*
X850471Y189951D01*
X850662Y189737D01*
X850947Y189499D01*
X851281Y189261D01*
X851662Y189047D01*
X852114Y188904D01*
X852352Y188880D01*
X852590Y188857D01*
X852732D01*
X852828Y188880D01*
X853066Y188928D01*
X853375Y189023D01*
X853756Y189166D01*
X854137Y189404D01*
X854327Y189547D01*
X854518Y189713D01*
X854708Y189928D01*
X854874Y190142D01*
Y190166D01*
X854922Y190213D01*
X854970Y190285D01*
X855017Y190404D01*
X855089Y190570D01*
X855160Y190761D01*
X855255Y190999D01*
X855350Y191284D01*
X855422Y191617D01*
X855517Y191998D01*
X855589Y192427D01*
X855660Y192903D01*
X855707Y193450D01*
X855755Y194045D01*
X855803Y194688D01*
Y195402D01*
Y195449D01*
Y195568D01*
Y195782D01*
X855779Y196044D01*
Y196354D01*
X855755Y196711D01*
X855731Y197115D01*
X855684Y197520D01*
X855589Y198400D01*
X855422Y199257D01*
X855303Y199662D01*
X855184Y200042D01*
X855041Y200352D01*
X854874Y200637D01*
Y200661D01*
X854827Y200685D01*
X854708Y200852D01*
X854518Y201042D01*
X854232Y201304D01*
X853899Y201542D01*
X853518Y201732D01*
X853066Y201899D01*
X852828Y201923D01*
X852566Y201947D01*
D02*
G37*
G36*
X848616Y177735D02*
X844583Y172009D01*
X848616D01*
Y177735D01*
D02*
G37*
G36*
X792170Y178801D02*
X789145D01*
Y174920D01*
X792284D01*
X792531Y174939D01*
X792779Y174958D01*
X793045Y174977D01*
X793292Y175015D01*
X793502Y175053D01*
X793540Y175072D01*
X793616Y175091D01*
X793730Y175129D01*
X793863Y175205D01*
X794015Y175281D01*
X794186Y175395D01*
X794339Y175528D01*
X794472Y175681D01*
X794491Y175700D01*
X794529Y175757D01*
X794586Y175871D01*
X794643Y176004D01*
X794700Y176156D01*
X794757Y176346D01*
X794795Y176575D01*
X794814Y176822D01*
Y176860D01*
Y176936D01*
X794795Y177050D01*
X794776Y177202D01*
X794738Y177374D01*
X794681Y177564D01*
X794605Y177754D01*
X794491Y177945D01*
X794472Y177964D01*
X794434Y178021D01*
X794358Y178116D01*
X794262Y178211D01*
X794148Y178325D01*
X793996Y178439D01*
X793825Y178534D01*
X793616Y178610D01*
X793597D01*
X793502Y178648D01*
X793368Y178667D01*
X793178Y178706D01*
X792912Y178743D01*
X792569Y178763D01*
X792170Y178801D01*
D02*
G37*
G36*
X792531Y173417D02*
X789145D01*
Y169003D01*
X792779D01*
X793159Y169022D01*
X793330Y169041D01*
X793483Y169060D01*
X793502D01*
X793578Y169079D01*
X793692Y169098D01*
X793825Y169136D01*
X794148Y169250D01*
X794301Y169326D01*
X794453Y169403D01*
X794472Y169422D01*
X794529Y169440D01*
X794586Y169498D01*
X794681Y169593D01*
X794795Y169688D01*
X794890Y169802D01*
X795004Y169954D01*
X795100Y170106D01*
X795119Y170125D01*
X795138Y170182D01*
X795176Y170297D01*
X795233Y170430D01*
X795290Y170582D01*
X795328Y170772D01*
X795347Y170982D01*
X795366Y171210D01*
Y171248D01*
Y171324D01*
X795347Y171457D01*
X795328Y171628D01*
X795271Y171819D01*
X795214Y172028D01*
X795119Y172237D01*
X794985Y172446D01*
X794966Y172465D01*
X794909Y172542D01*
X794833Y172618D01*
X794719Y172732D01*
X794567Y172865D01*
X794396Y172979D01*
X794186Y173093D01*
X793958Y173188D01*
X793920Y173207D01*
X793844Y173226D01*
X793692Y173264D01*
X793483Y173302D01*
X793216Y173340D01*
X792893Y173379D01*
X792531Y173417D01*
D02*
G37*
G36*
X827822Y179048D02*
X827727D01*
X827651Y179029D01*
X827441Y178991D01*
X827194Y178934D01*
X826928Y178820D01*
X826642Y178648D01*
X826490Y178553D01*
X826357Y178420D01*
X826224Y178287D01*
X826091Y178116D01*
Y178097D01*
X826053Y178059D01*
X826014Y177983D01*
X825957Y177887D01*
X825900Y177754D01*
X825843Y177583D01*
X825767Y177374D01*
X825691Y177146D01*
X825615Y176860D01*
X825539Y176556D01*
X825482Y176213D01*
X825425Y175814D01*
X825368Y175376D01*
X825330Y174901D01*
X825311Y174387D01*
X825292Y173816D01*
Y173778D01*
Y173683D01*
Y173512D01*
X825311Y173302D01*
Y173055D01*
X825330Y172770D01*
X825349Y172446D01*
X825387Y172104D01*
X825463Y171400D01*
X825596Y170715D01*
X825672Y170392D01*
X825767Y170087D01*
X825881Y169840D01*
X826014Y169612D01*
Y169593D01*
X826053Y169574D01*
X826148Y169459D01*
X826300Y169288D01*
X826528Y169098D01*
X826795Y168908D01*
X827099Y168737D01*
X827460Y168622D01*
X827651Y168603D01*
X827841Y168584D01*
X827955D01*
X828031Y168603D01*
X828221Y168641D01*
X828469Y168718D01*
X828773Y168832D01*
X829078Y169022D01*
X829230Y169136D01*
X829382Y169269D01*
X829534Y169440D01*
X829667Y169612D01*
Y169631D01*
X829705Y169669D01*
X829743Y169726D01*
X829781Y169821D01*
X829838Y169954D01*
X829895Y170106D01*
X829972Y170297D01*
X830048Y170525D01*
X830105Y170791D01*
X830181Y171096D01*
X830238Y171438D01*
X830295Y171819D01*
X830333Y172256D01*
X830371Y172732D01*
X830409Y173245D01*
Y173816D01*
Y173854D01*
Y173949D01*
Y174121D01*
X830390Y174330D01*
Y174577D01*
X830371Y174862D01*
X830352Y175186D01*
X830314Y175509D01*
X830238Y176213D01*
X830105Y176898D01*
X830010Y177222D01*
X829915Y177526D01*
X829800Y177773D01*
X829667Y178002D01*
Y178021D01*
X829629Y178040D01*
X829534Y178173D01*
X829382Y178325D01*
X829154Y178534D01*
X828887Y178724D01*
X828583Y178877D01*
X828221Y179010D01*
X828031Y179029D01*
X827822Y179048D01*
D02*
G37*
%LPD*%
D10*
X146500Y287500D02*
G03*
X146500Y287500I-69000J0D01*
G01*
X415000Y636750D02*
X485000D01*
X461373Y620250D02*
X485000D01*
X474474Y665450D02*
X476650Y669200D01*
X477127D02*
X480940Y671310D01*
Y672690D01*
X477150Y674800D02*
X480940Y672690D01*
X477150Y674800D02*
X480940Y676910D01*
Y678290D01*
X477150Y680400D02*
X480940Y678290D01*
X477150Y680400D02*
X480940Y682510D01*
Y683890D01*
X477150Y686000D02*
X480940Y683890D01*
X477150Y686000D02*
X480940Y688110D01*
Y689490D01*
X477150Y691600D02*
X480940Y689490D01*
X477150Y691600D02*
X480940Y693710D01*
Y695090D01*
X477150Y697200D02*
X480940Y695090D01*
X477150Y697200D02*
X480940Y699310D01*
Y700690D01*
X477150Y702800D02*
X480940Y700690D01*
X477150Y702800D02*
X480940Y704910D01*
Y706290D01*
X477150Y708400D02*
X480940Y706290D01*
X423350Y708400D02*
X477150D01*
X419060Y706290D02*
X423350Y708400D01*
X419060Y704910D02*
Y706290D01*
Y704910D02*
X422850Y702800D01*
X419060Y700690D02*
X422850Y702800D01*
X419060Y699310D02*
Y700690D01*
Y699310D02*
X422850Y697200D01*
X419060Y695090D02*
X422850Y697200D01*
X419060Y693710D02*
Y695090D01*
Y693710D02*
X422850Y691600D01*
X419060Y689490D02*
X422850Y691600D01*
X419060Y688110D02*
Y689490D01*
Y688110D02*
X422850Y686000D01*
X419060Y683890D02*
X422850Y686000D01*
X419060Y682510D02*
Y683890D01*
Y682510D02*
X422850Y680400D01*
X419060Y678290D02*
X422850Y680400D01*
X419060Y676910D02*
Y678290D01*
Y676910D02*
X422850Y674800D01*
X419060Y672690D02*
X422850Y674800D01*
X419060Y671310D02*
Y672690D01*
Y671310D02*
X422850Y669200D01*
X477127D01*
X423350D02*
X425467Y665450D01*
X425467D02*
X474474D01*
Y636750D02*
Y665450D01*
X476650Y708400D02*
Y715550D01*
X423350D02*
X476650D01*
X423350Y708400D02*
Y715550D01*
X425467Y636750D02*
Y665450D01*
X419060Y676910D02*
X480940Y671310D01*
X419060Y678290D02*
X480940Y672690D01*
X422850Y680400D02*
X477150Y674800D01*
X422850D02*
X477127Y669200D01*
X419060Y671310D02*
X476650Y669200D01*
X419060Y672690D02*
X477127Y669200D01*
X419060Y682510D02*
X480940Y676910D01*
X419060Y683890D02*
X480940Y678290D01*
X422850Y686000D02*
X477150Y680400D01*
X419060Y688110D02*
X480940Y682510D01*
X419060Y689490D02*
X480940Y683890D01*
X422850Y691600D02*
X477150Y686000D01*
X419060Y693710D02*
X480940Y688110D01*
X419060Y695090D02*
X480940Y689490D01*
X422850Y697200D02*
X477150Y691600D01*
X419060Y699310D02*
X480940Y693710D01*
X419060Y700690D02*
X480940Y695090D01*
X422850Y702800D02*
X477150Y697200D01*
X419060Y704910D02*
X480940Y699310D01*
X419060Y706290D02*
X480940Y700690D01*
X423350Y708400D02*
X477150Y702800D01*
X423350Y708400D02*
X480940Y704910D01*
X423350Y708400D02*
X480940Y706290D01*
X485000Y620250D02*
Y636750D01*
X415000Y620250D02*
Y636750D01*
Y620250D02*
X438627D01*
X615000Y636750D02*
X685000D01*
X661373Y620250D02*
X685000D01*
X674474Y665450D02*
X676650Y669200D01*
X677127D02*
X680940Y671310D01*
Y672690D01*
X677150Y674800D02*
X680940Y672690D01*
X677150Y674800D02*
X680940Y676910D01*
Y678290D01*
X677150Y680400D02*
X680940Y678290D01*
X677150Y680400D02*
X680940Y682510D01*
Y683890D01*
X677150Y686000D02*
X680940Y683890D01*
X677150Y686000D02*
X680940Y688110D01*
Y689490D01*
X677150Y691600D02*
X680940Y689490D01*
X677150Y691600D02*
X680940Y693710D01*
Y695090D01*
X677150Y697200D02*
X680940Y695090D01*
X677150Y697200D02*
X680940Y699310D01*
Y700690D01*
X677150Y702800D02*
X680940Y700690D01*
X677150Y702800D02*
X680940Y704910D01*
Y706290D01*
X677150Y708400D02*
X680940Y706290D01*
X623350Y708400D02*
X677150D01*
X619060Y706290D02*
X623350Y708400D01*
X619060Y704910D02*
Y706290D01*
Y704910D02*
X622850Y702800D01*
X619060Y700690D02*
X622850Y702800D01*
X619060Y699310D02*
Y700690D01*
Y699310D02*
X622850Y697200D01*
X619060Y695090D02*
X622850Y697200D01*
X619060Y693710D02*
Y695090D01*
Y693710D02*
X622850Y691600D01*
X619060Y689490D02*
X622850Y691600D01*
X619060Y688110D02*
Y689490D01*
Y688110D02*
X622850Y686000D01*
X619060Y683890D02*
X622850Y686000D01*
X619060Y682510D02*
Y683890D01*
Y682510D02*
X622850Y680400D01*
X619060Y678290D02*
X622850Y680400D01*
X619060Y676910D02*
Y678290D01*
Y676910D02*
X622850Y674800D01*
X619060Y672690D02*
X622850Y674800D01*
X619060Y671310D02*
Y672690D01*
Y671310D02*
X622850Y669200D01*
X677127D01*
X623350D02*
X625467Y665450D01*
X625467D02*
X674474D01*
Y636750D02*
Y665450D01*
X676650Y708400D02*
Y715550D01*
X623350D02*
X676650D01*
X623350Y708400D02*
Y715550D01*
X625467Y636750D02*
Y665450D01*
X619060Y676910D02*
X680940Y671310D01*
X619060Y678290D02*
X680940Y672690D01*
X622850Y680400D02*
X677150Y674800D01*
X622850D02*
X677127Y669200D01*
X619060Y671310D02*
X676650Y669200D01*
X619060Y672690D02*
X677127Y669200D01*
X619060Y682510D02*
X680940Y676910D01*
X619060Y683890D02*
X680940Y678290D01*
X622850Y686000D02*
X677150Y680400D01*
X619060Y688110D02*
X680940Y682510D01*
X619060Y689490D02*
X680940Y683890D01*
X622850Y691600D02*
X677150Y686000D01*
X619060Y693710D02*
X680940Y688110D01*
X619060Y695090D02*
X680940Y689490D01*
X622850Y697200D02*
X677150Y691600D01*
X619060Y699310D02*
X680940Y693710D01*
X619060Y700690D02*
X680940Y695090D01*
X622850Y702800D02*
X677150Y697200D01*
X619060Y704910D02*
X680940Y699310D01*
X619060Y706290D02*
X680940Y700690D01*
X623350Y708400D02*
X677150Y702800D01*
X623350Y708400D02*
X680940Y704910D01*
X623350Y708400D02*
X680940Y706290D01*
X685000Y620250D02*
Y636750D01*
X615000Y620250D02*
Y636750D01*
Y620250D02*
X638627D01*
X215000Y636750D02*
X285000D01*
X261373Y620250D02*
X285000D01*
X274474Y665450D02*
X276650Y669200D01*
X277127D02*
X280940Y671310D01*
Y672690D01*
X277150Y674800D02*
X280940Y672690D01*
X277150Y674800D02*
X280940Y676910D01*
Y678290D01*
X277150Y680400D02*
X280940Y678290D01*
X277150Y680400D02*
X280940Y682510D01*
Y683890D01*
X277150Y686000D02*
X280940Y683890D01*
X277150Y686000D02*
X280940Y688110D01*
Y689490D01*
X277150Y691600D02*
X280940Y689490D01*
X277150Y691600D02*
X280940Y693710D01*
Y695090D01*
X277150Y697200D02*
X280940Y695090D01*
X277150Y697200D02*
X280940Y699310D01*
Y700690D01*
X277150Y702800D02*
X280940Y700690D01*
X277150Y702800D02*
X280940Y704910D01*
Y706290D01*
X277150Y708400D02*
X280940Y706290D01*
X223350Y708400D02*
X277150D01*
X219060Y706290D02*
X223350Y708400D01*
X219060Y704910D02*
Y706290D01*
Y704910D02*
X222850Y702800D01*
X219060Y700690D02*
X222850Y702800D01*
X219060Y699310D02*
Y700690D01*
Y699310D02*
X222850Y697200D01*
X219060Y695090D02*
X222850Y697200D01*
X219060Y693710D02*
Y695090D01*
Y693710D02*
X222850Y691600D01*
X219060Y689490D02*
X222850Y691600D01*
X219060Y688110D02*
Y689490D01*
Y688110D02*
X222850Y686000D01*
X219060Y683890D02*
X222850Y686000D01*
X219060Y682510D02*
Y683890D01*
Y682510D02*
X222850Y680400D01*
X219060Y678290D02*
X222850Y680400D01*
X219060Y676910D02*
Y678290D01*
Y676910D02*
X222850Y674800D01*
X219060Y672690D02*
X222850Y674800D01*
X219060Y671310D02*
Y672690D01*
Y671310D02*
X222850Y669200D01*
X277127D01*
X223350D02*
X225467Y665450D01*
X225467D02*
X274474D01*
Y636750D02*
Y665450D01*
X276650Y708400D02*
Y715550D01*
X223350D02*
X276650D01*
X223350Y708400D02*
Y715550D01*
X225467Y636750D02*
Y665450D01*
X219060Y676910D02*
X280940Y671310D01*
X219060Y678290D02*
X280940Y672690D01*
X222850Y680400D02*
X277150Y674800D01*
X222850D02*
X277127Y669200D01*
X219060Y671310D02*
X276650Y669200D01*
X219060Y672690D02*
X277127Y669200D01*
X219060Y682510D02*
X280940Y676910D01*
X219060Y683890D02*
X280940Y678290D01*
X222850Y686000D02*
X277150Y680400D01*
X219060Y688110D02*
X280940Y682510D01*
X219060Y689490D02*
X280940Y683890D01*
X222850Y691600D02*
X277150Y686000D01*
X219060Y693710D02*
X280940Y688110D01*
X219060Y695090D02*
X280940Y689490D01*
X222850Y697200D02*
X277150Y691600D01*
X219060Y699310D02*
X280940Y693710D01*
X219060Y700690D02*
X280940Y695090D01*
X222850Y702800D02*
X277150Y697200D01*
X219060Y704910D02*
X280940Y699310D01*
X219060Y706290D02*
X280940Y700690D01*
X223350Y708400D02*
X277150Y702800D01*
X223350Y708400D02*
X280940Y704910D01*
X223350Y708400D02*
X280940Y706290D01*
X285000Y620250D02*
Y636750D01*
X215000Y620250D02*
Y636750D01*
Y620250D02*
X238627D01*
X798750Y319500D02*
Y320500D01*
X806250Y319500D02*
Y320500D01*
X789500Y357000D02*
X797500D01*
Y347000D02*
Y357000D01*
X767500D02*
X775500D01*
X767500Y347000D02*
Y357000D01*
X797500Y290500D02*
X827500D01*
X797500Y284500D02*
X827500D01*
Y290500D01*
X797500Y284500D02*
Y290500D01*
X829500Y311250D02*
X830500D01*
X829500Y318750D02*
X830500D01*
X752500Y390500D02*
X782500D01*
X752500Y384500D02*
X782500D01*
Y390500D01*
X752500Y384500D02*
Y390500D01*
X747000Y275000D02*
Y283000D01*
X737000Y275000D02*
X747000D01*
Y297000D02*
Y305000D01*
X737000D02*
X747000D01*
X771250Y282000D02*
Y283000D01*
X763750Y282000D02*
Y283000D01*
X734500Y311250D02*
X735500D01*
X734500Y318750D02*
X735500D01*
X734500Y261250D02*
X735500D01*
X734500Y268750D02*
X735500D01*
X642000Y253750D02*
X643000D01*
X642000Y246250D02*
X643000D01*
X544500Y236250D02*
X545500D01*
X544500Y243750D02*
X545500D01*
X444500Y267500D02*
Y297500D01*
X450500Y267500D02*
Y297500D01*
X444500D02*
X450500D01*
X444500Y267500D02*
X450500D01*
X478750Y292000D02*
Y293000D01*
X471250Y292000D02*
Y293000D01*
X342500Y527500D02*
X502500D01*
X342500Y367500D02*
X502500D01*
X885000Y445000D02*
X901900D01*
X885000Y355000D02*
X901900D01*
X844000Y445000D02*
X867000D01*
X844000Y355000D02*
X867000D01*
X901900D02*
Y445000D01*
X815000Y355000D02*
Y445000D01*
Y355000D02*
X824000D01*
X815000Y445000D02*
X824000D01*
X793750Y464500D02*
Y465500D01*
X801250Y464500D02*
Y465500D01*
X849500Y511250D02*
X850500D01*
X849500Y503750D02*
X850500D01*
X821250Y490000D02*
X830000D01*
Y498750D01*
X776250Y497500D02*
X782500Y491250D01*
X821250Y545000D02*
X830000D01*
Y536250D02*
Y545000D01*
X775000D02*
X783750D01*
X775000Y536250D02*
Y545000D01*
X763750Y502000D02*
Y503000D01*
X756250Y502000D02*
Y503000D01*
X751250Y502000D02*
Y503000D01*
X743750Y502000D02*
Y503000D01*
X656500Y545900D02*
X658500D01*
X656500Y554100D02*
X658500D01*
X429000Y544100D02*
X431000D01*
X429000Y535900D02*
X431000D01*
X137500Y527500D02*
X297500D01*
X137500Y367500D02*
X297500D01*
X78750Y369500D02*
Y370500D01*
X71250Y369500D02*
Y370500D01*
X95500Y384500D02*
Y392500D01*
X105500D01*
X95500Y362500D02*
Y370500D01*
Y362500D02*
X105500D01*
X109500Y421250D02*
X110500D01*
X109500Y413750D02*
X110500D01*
X109500Y436250D02*
X110500D01*
X109500Y428750D02*
X110500D01*
X-1000Y363000D02*
Y437000D01*
X36000Y363000D02*
Y437000D01*
X0Y363000D02*
X35000D01*
X-16000Y412500D02*
X-2500D01*
X-16000Y387500D02*
Y412500D01*
Y387500D02*
X-2500D01*
X0Y437000D02*
X35000D01*
X0Y537000D02*
X35000D01*
X-16000Y487500D02*
X-2500D01*
X-16000D02*
Y512500D01*
X-2500D01*
X0Y463000D02*
X35000D01*
X36000D02*
Y537000D01*
X-1000Y463000D02*
Y537000D01*
X0Y187000D02*
X35000D01*
X-16000Y137500D02*
X-2500D01*
X-16000D02*
Y162500D01*
X-2500D01*
X0Y113000D02*
X35000D01*
X36000D02*
Y187000D01*
X-1000Y113000D02*
Y187000D01*
X806250Y464500D02*
Y465500D01*
X813750Y464500D02*
Y465500D01*
X519500Y236250D02*
X520500D01*
X519500Y243750D02*
X520500D01*
X672000Y593996D02*
Y582000D01*
X679997D01*
X683996Y593996D02*
Y582000D01*
X689994D01*
X691993Y583999D01*
Y585999D01*
X689994Y587998D01*
X683996D01*
X689994D01*
X691993Y589997D01*
Y591997D01*
X689994Y593996D01*
X683996D01*
X469500Y582000D02*
Y593996D01*
X473499Y589997D01*
X477497Y593996D01*
Y582000D01*
X481496Y593996D02*
Y582000D01*
X487494D01*
X489493Y583999D01*
Y585999D01*
X487494Y587998D01*
X481496D01*
X487494D01*
X489493Y589997D01*
Y591997D01*
X487494Y593996D01*
X481496D01*
X269500Y593996D02*
Y582000D01*
Y587998D01*
X277497D01*
Y593996D01*
Y582000D01*
X281496Y593996D02*
Y582000D01*
X287494D01*
X289494Y583999D01*
Y585999D01*
X287494Y587998D01*
X281496D01*
X287494D01*
X289494Y589997D01*
Y591997D01*
X287494Y593996D01*
X281496D01*
X350503Y307497D02*
X348504Y305498D01*
Y301499D01*
X350503Y299500D01*
X358501D01*
X360500Y301499D01*
Y305498D01*
X358501Y307497D01*
X350503Y319494D02*
X348504Y317494D01*
Y313496D01*
X350503Y311496D01*
X352503D01*
X354502Y313496D01*
Y317494D01*
X356501Y319494D01*
X358501D01*
X360500Y317494D01*
Y313496D01*
X358501Y311496D01*
X323504Y299500D02*
X335500D01*
Y305498D01*
X333501Y307497D01*
X325503D01*
X323504Y305498D01*
Y299500D01*
X325503Y319494D02*
X323504Y317494D01*
Y313496D01*
X325503Y311496D01*
X333501D01*
X335500Y313496D01*
Y317494D01*
X333501Y319494D01*
X308000Y299500D02*
X296004D01*
Y305498D01*
X298003Y307497D01*
X302002D01*
X304001Y305498D01*
Y299500D01*
Y303499D02*
X308000Y307497D01*
X298003Y319494D02*
X296004Y317494D01*
Y313496D01*
X298003Y311496D01*
X300003D01*
X302002Y313496D01*
Y317494D01*
X304001Y319494D01*
X306001D01*
X308000Y317494D01*
Y313496D01*
X306001Y311496D01*
X296004Y323492D02*
Y331490D01*
Y327491D01*
X308000D01*
X271004Y299500D02*
X283000D01*
Y305498D01*
X281001Y307497D01*
X273003D01*
X271004Y305498D01*
Y299500D01*
X283000Y311496D02*
X275003D01*
X271004Y315495D01*
X275003Y319494D01*
X283000D01*
X277002D01*
Y311496D01*
X271004Y323492D02*
Y331490D01*
Y327491D01*
X283000D01*
X245503Y307497D02*
X243504Y305498D01*
Y301499D01*
X245503Y299500D01*
X247503D01*
X249502Y301499D01*
Y305498D01*
X251501Y307497D01*
X253501D01*
X255500Y305498D01*
Y301499D01*
X253501Y299500D01*
X245503Y319494D02*
X243504Y317494D01*
Y313496D01*
X245503Y311496D01*
X253501D01*
X255500Y313496D01*
Y317494D01*
X253501Y319494D01*
X243504Y323492D02*
X255500D01*
X251501D01*
X243504Y331490D01*
X249502Y325492D01*
X255500Y331490D01*
X218504Y299500D02*
X226501D01*
X230500Y303499D01*
X226501Y307497D01*
X218504D01*
X220503Y319494D02*
X218504Y317494D01*
Y313496D01*
X220503Y311496D01*
X228501D01*
X230500Y313496D01*
Y317494D01*
X228501Y319494D01*
X220503Y331490D02*
X218504Y329490D01*
Y325492D01*
X220503Y323492D01*
X228501D01*
X230500Y325492D01*
Y329490D01*
X228501Y331490D01*
X193003Y307497D02*
X191004Y305498D01*
Y301499D01*
X193003Y299500D01*
X201001D01*
X203000Y301499D01*
Y305498D01*
X201001Y307497D01*
X197002D01*
Y303499D01*
X203000Y311496D02*
X191004D01*
X203000Y319494D01*
X191004D01*
Y323492D02*
X203000D01*
Y329490D01*
X201001Y331490D01*
X193003D01*
X191004Y329490D01*
Y323492D01*
X43504Y145498D02*
Y141499D01*
X45503Y139500D01*
X53501D01*
X55500Y141499D01*
Y145498D01*
X53501Y147497D01*
X45503D01*
X43504Y145498D01*
Y151496D02*
X55500D01*
X51501D01*
X43504Y159494D01*
X49502Y153496D01*
X55500Y159494D01*
X48003Y492000D02*
X56334D01*
X58000Y493666D01*
Y496998D01*
X56334Y498665D01*
X48003D01*
X58000Y501997D02*
X48003D01*
Y506995D01*
X49669Y508661D01*
X53002D01*
X54668Y506995D01*
Y501997D01*
X45503Y382000D02*
X55500D01*
Y386998D01*
X53834Y388665D01*
X47169D01*
X45503Y386998D01*
Y382000D01*
Y396995D02*
Y393663D01*
X47169Y391997D01*
X53834D01*
X55500Y393663D01*
Y396995D01*
X53834Y398661D01*
X47169D01*
X45503Y396995D01*
Y401994D02*
X55500D01*
X52168Y405326D01*
X55500Y408658D01*
X45503D01*
X55500Y411990D02*
X45503D01*
X55500Y418655D01*
X45503D01*
X648000Y169500D02*
X636004D01*
Y175498D01*
X638003Y177497D01*
X642002D01*
X644001Y175498D01*
Y169500D01*
Y173499D02*
X648000Y177497D01*
X638003Y189494D02*
X636004Y187494D01*
Y183496D01*
X638003Y181496D01*
X640003D01*
X642002Y183496D01*
Y187494D01*
X644001Y189494D01*
X646001D01*
X648000Y187494D01*
Y183496D01*
X646001Y181496D01*
X636004Y193492D02*
Y201490D01*
Y197491D01*
X648000D01*
X610503Y177497D02*
X608504Y175498D01*
Y171499D01*
X610503Y169500D01*
X618501D01*
X620500Y171499D01*
Y175498D01*
X618501Y177497D01*
X608504Y181496D02*
X620500D01*
Y189494D01*
X608504Y193492D02*
X620500D01*
X616501D01*
X608504Y201490D01*
X614502Y195492D01*
X620500Y201490D01*
X583504Y169500D02*
X595500D01*
Y175498D01*
X593501Y177497D01*
X585503D01*
X583504Y175498D01*
Y169500D01*
Y181496D02*
Y185495D01*
Y183496D01*
X595500D01*
Y181496D01*
Y185495D01*
X583504Y197491D02*
Y193492D01*
X585503Y191493D01*
X593501D01*
X595500Y193492D01*
Y197491D01*
X593501Y199490D01*
X585503D01*
X583504Y197491D01*
X560503Y177497D02*
X558504Y175498D01*
Y171499D01*
X560503Y169500D01*
X568501D01*
X570500Y171499D01*
Y175498D01*
X568501Y177497D01*
X564502D01*
Y173499D01*
X570500Y181496D02*
X558504D01*
X570500Y189494D01*
X558504D01*
Y193492D02*
X570500D01*
Y199490D01*
X568501Y201490D01*
X560503D01*
X558504Y199490D01*
Y193492D01*
X533504Y169500D02*
Y177497D01*
Y173499D01*
X545500D01*
X533504Y181496D02*
X545500Y189494D01*
X533504D02*
X545500Y181496D01*
X533504Y193492D02*
X545500D01*
Y199490D01*
X543501Y201490D01*
X535503D01*
X533504Y199490D01*
Y193492D01*
X506004Y169500D02*
Y177497D01*
Y173499D01*
X518000D01*
X506004Y181496D02*
X518000Y189494D01*
X506004D02*
X518000Y181496D01*
X506004Y193492D02*
X518000D01*
Y199490D01*
X516001Y201490D01*
X508003D01*
X506004Y199490D01*
Y193492D01*
X481004Y169500D02*
X489001D01*
X493000Y173499D01*
X489001Y177497D01*
X481004D01*
X483003Y189494D02*
X481004Y187494D01*
Y183495D01*
X483003Y181496D01*
X491001D01*
X493000Y183495D01*
Y187494D01*
X491001Y189494D01*
X483003Y201490D02*
X481004Y199490D01*
Y195492D01*
X483003Y193492D01*
X491001D01*
X493000Y195492D01*
Y199490D01*
X491001Y201490D01*
D11*
X838798Y300946D02*
G03*
X838320Y274470I11202J-13444D01*
G01*
X861202Y274057D02*
G03*
X861680Y300533I-11202J13444D01*
G01*
X855354Y321073D02*
X842500D01*
X848927Y327500D02*
Y314646D01*
D12*
X188800Y337300D02*
Y362700D01*
X362000D01*
Y337300D02*
Y362700D01*
X188800Y337300D02*
X362000D01*
X746500Y345500D02*
Y379500D01*
X728500Y345500D02*
Y379500D01*
Y393000D02*
Y427000D01*
X746500Y393000D02*
Y427000D01*
X455500Y264000D02*
X489500D01*
X455500Y246000D02*
X489500D01*
X408000D02*
X442000D01*
X408000Y264000D02*
X442000D01*
X650300Y207300D02*
Y232700D01*
X477100Y207300D02*
X650300D01*
X477100D02*
Y232700D01*
X650300D01*
X628100Y234800D02*
Y260200D01*
X577300Y234800D02*
X628100D01*
X577300D02*
Y260200D01*
X628100D01*
X493999Y285835D02*
X486001D01*
Y289834D01*
X487334Y291167D01*
X490000D01*
X491333Y289834D01*
Y285835D01*
Y288501D02*
X493999Y291167D01*
Y299165D02*
Y293833D01*
X488667Y299165D01*
X487334D01*
X486001Y297832D01*
Y295166D01*
X487334Y293833D01*
X75003Y428501D02*
Y436499D01*
X79002D01*
X80335Y435166D01*
Y432500D01*
X79002Y431167D01*
X75003D01*
X77669D02*
X80335Y428501D01*
X83001D02*
X85667D01*
X84334D01*
Y436499D01*
X83001Y435166D01*
X89665D02*
X90998Y436499D01*
X93664D01*
X94997Y435166D01*
Y433833D01*
X93664Y432500D01*
X92331D01*
X93664D01*
X94997Y431167D01*
Y429834D01*
X93664Y428501D01*
X90998D01*
X89665Y429834D01*
X75003Y413501D02*
Y421499D01*
X79002D01*
X80335Y420166D01*
Y417500D01*
X79002Y416167D01*
X75003D01*
X77669D02*
X80335Y413501D01*
X83001D02*
X85667D01*
X84334D01*
Y421499D01*
X83001Y420166D01*
X94997Y413501D02*
X89665D01*
X94997Y418833D01*
Y420166D01*
X93664Y421499D01*
X90998D01*
X89665Y420166D01*
X153170Y291499D02*
Y283501D01*
X157168D01*
X158501Y284834D01*
Y286167D01*
X157168Y287500D01*
X153170D01*
X157168D01*
X158501Y288833D01*
Y290166D01*
X157168Y291499D01*
X153170D01*
X161167D02*
X166499D01*
Y290166D01*
X161167Y284834D01*
Y283501D01*
X166499D01*
X169165D02*
X171830D01*
X170497D01*
Y291499D01*
X169165Y290166D01*
X844555Y302031D02*
Y294034D01*
X848554D01*
X849886Y295367D01*
Y300698D01*
X848554Y302031D01*
X844555D01*
X852552Y294034D02*
X855218D01*
X853885D01*
Y302031D01*
X852552Y300698D01*
X78999Y387503D02*
X71001D01*
Y391502D01*
X72334Y392835D01*
X75000D01*
X76333Y391502D01*
Y387503D01*
Y390169D02*
X78999Y392835D01*
Y395501D02*
Y398167D01*
Y396834D01*
X71001D01*
X72334Y395501D01*
X71001Y402165D02*
Y407497D01*
X72334D01*
X77666Y402165D01*
X78999D01*
X106167Y399834D02*
Y405166D01*
X104834Y406499D01*
X102168D01*
X100836Y405166D01*
Y399834D01*
X102168Y398501D01*
X104834D01*
X103501Y401167D02*
X106167Y398501D01*
X104834D02*
X106167Y399834D01*
X114164Y398501D02*
X108833D01*
X114164Y403833D01*
Y405166D01*
X112832Y406499D01*
X110166D01*
X108833Y405166D01*
X410835Y308999D02*
Y302334D01*
X412168Y301001D01*
X414834D01*
X416167Y302334D01*
Y308999D01*
X418833Y307666D02*
X420166Y308999D01*
X422832D01*
X424165Y307666D01*
Y306333D01*
X422832Y305000D01*
X421499D01*
X422832D01*
X424165Y303667D01*
Y302334D01*
X422832Y301001D01*
X420166D01*
X418833Y302334D01*
X733335Y248501D02*
Y256499D01*
X737334D01*
X738667Y255166D01*
Y252500D01*
X737334Y251167D01*
X733335D01*
X736001D02*
X738667Y248501D01*
X746665Y256499D02*
X743999Y255166D01*
X741333Y252500D01*
Y249834D01*
X742666Y248501D01*
X745332D01*
X746665Y249834D01*
Y251167D01*
X745332Y252500D01*
X741333D01*
X783999Y275835D02*
X776001D01*
Y279834D01*
X777334Y281167D01*
X780000D01*
X781333Y279834D01*
Y275835D01*
Y278501D02*
X783999Y281167D01*
X776001Y289165D02*
Y283833D01*
X780000D01*
X778667Y286499D01*
Y287832D01*
X780000Y289165D01*
X782666D01*
X783999Y287832D01*
Y285166D01*
X782666Y283833D01*
X728335Y326001D02*
Y333999D01*
X732334D01*
X733667Y332666D01*
Y330000D01*
X732334Y328667D01*
X728335D01*
X731001D02*
X733667Y326001D01*
X740332D02*
Y333999D01*
X736333Y330000D01*
X741665D01*
X757500Y299834D02*
Y305166D01*
X756167Y306499D01*
X753501D01*
X752168Y305166D01*
Y299834D01*
X753501Y298501D01*
X756167D01*
X754834Y301167D02*
X757500Y298501D01*
X756167D02*
X757500Y299834D01*
X760166Y298501D02*
X762832D01*
X761499D01*
Y306499D01*
X760166Y305166D01*
X333335Y536001D02*
Y543999D01*
X336001Y541333D01*
X338667Y543999D01*
Y536001D01*
X341333Y542666D02*
X342666Y543999D01*
X345332D01*
X346665Y542666D01*
Y541333D01*
X345332Y540000D01*
X343999D01*
X345332D01*
X346665Y538667D01*
Y537334D01*
X345332Y536001D01*
X342666D01*
X341333Y537334D01*
X400835Y543999D02*
Y536001D01*
X406167D01*
X414165D02*
X408833D01*
X414165Y541333D01*
Y542666D01*
X412832Y543999D01*
X410166D01*
X408833Y542666D01*
X477168D02*
X475835Y543999D01*
X473170D01*
X471837Y542666D01*
Y537334D01*
X473170Y536001D01*
X475835D01*
X477168Y537334D01*
X485166Y536001D02*
X479834D01*
X485166Y541333D01*
Y542666D01*
X483833Y543999D01*
X481167D01*
X479834Y542666D01*
X487832D02*
X489165Y543999D01*
X491830D01*
X493163Y542666D01*
Y537334D01*
X491830Y536001D01*
X489165D01*
X487832Y537334D01*
Y542666D01*
X380335Y570166D02*
X379002Y571499D01*
X376336D01*
X375003Y570166D01*
Y564834D01*
X376336Y563501D01*
X379002D01*
X380335Y564834D01*
X383001Y563501D02*
X385666D01*
X384333D01*
Y571499D01*
X383001Y570166D01*
X389665Y564834D02*
X390998Y563501D01*
X393664D01*
X394997Y564834D01*
Y570166D01*
X393664Y571499D01*
X390998D01*
X389665Y570166D01*
Y568833D01*
X390998Y567500D01*
X394997D01*
X420335Y240166D02*
X419002Y241499D01*
X416336D01*
X415003Y240166D01*
Y234834D01*
X416336Y233501D01*
X419002D01*
X420335Y234834D01*
X423001Y233501D02*
X425666D01*
X424333D01*
Y241499D01*
X423001Y240166D01*
X429665D02*
X430998Y241499D01*
X433664D01*
X434997Y240166D01*
Y234834D01*
X433664Y233501D01*
X430998D01*
X429665Y234834D01*
Y240166D01*
X404834Y278667D02*
X403501Y277334D01*
Y274668D01*
X404834Y273335D01*
X410166D01*
X411499Y274668D01*
Y277334D01*
X410166Y278667D01*
X404834Y281333D02*
X403501Y282666D01*
Y285332D01*
X404834Y286665D01*
X406167D01*
X407500Y285332D01*
X408833Y286665D01*
X410166D01*
X411499Y285332D01*
Y282666D01*
X410166Y281333D01*
X408833D01*
X407500Y282666D01*
X406167Y281333D01*
X404834D01*
X407500Y282666D02*
Y285332D01*
X441167Y322666D02*
X439834Y323999D01*
X437168D01*
X435835Y322666D01*
Y317334D01*
X437168Y316001D01*
X439834D01*
X441167Y317334D01*
X449165Y323999D02*
X446499Y322666D01*
X443833Y320000D01*
Y317334D01*
X445166Y316001D01*
X447832D01*
X449165Y317334D01*
Y318667D01*
X447832Y320000D01*
X443833D01*
X503667Y275166D02*
X502334Y276499D01*
X499668D01*
X498335Y275166D01*
Y269834D01*
X499668Y268501D01*
X502334D01*
X503667Y269834D01*
X510332Y268501D02*
Y276499D01*
X506333Y272500D01*
X511665D01*
X471167Y242666D02*
X469834Y243999D01*
X467168D01*
X465835Y242666D01*
Y237334D01*
X467168Y236001D01*
X469834D01*
X471167Y237334D01*
X479165Y236001D02*
X473833D01*
X479165Y241333D01*
Y242666D01*
X477832Y243999D01*
X475166D01*
X473833Y242666D01*
X793335Y561499D02*
Y554834D01*
X794668Y553501D01*
X797334D01*
X798667Y554834D01*
Y561499D01*
X805332Y553501D02*
Y561499D01*
X801333Y557500D01*
X806665D01*
X783335Y413999D02*
Y407334D01*
X784668Y406001D01*
X787334D01*
X788667Y407334D01*
Y413999D01*
X796665Y406001D02*
X791333D01*
X796665Y411333D01*
Y412666D01*
X795332Y413999D01*
X792666D01*
X791333Y412666D01*
X807168Y261499D02*
Y254834D01*
X808501Y253501D01*
X811167D01*
X812500Y254834D01*
Y261499D01*
X815166Y253501D02*
X817832D01*
X816499D01*
Y261499D01*
X815166Y260166D01*
X537503Y248501D02*
Y256499D01*
X541502D01*
X542835Y255166D01*
Y252500D01*
X541502Y251167D01*
X537503D01*
X540169D02*
X542835Y248501D01*
X545501D02*
X548166D01*
X546834D01*
Y256499D01*
X545501Y255166D01*
X557497Y256499D02*
X554831Y255166D01*
X552165Y252500D01*
Y249834D01*
X553498Y248501D01*
X556164D01*
X557497Y249834D01*
Y251167D01*
X556164Y252500D01*
X552165D01*
X507503Y248501D02*
Y256499D01*
X511502D01*
X512835Y255166D01*
Y252500D01*
X511502Y251167D01*
X507503D01*
X510169D02*
X512835Y248501D01*
X515501D02*
X518167D01*
X516834D01*
Y256499D01*
X515501Y255166D01*
X527497Y256499D02*
X522165D01*
Y252500D01*
X524831Y253833D01*
X526164D01*
X527497Y252500D01*
Y249834D01*
X526164Y248501D01*
X523498D01*
X522165Y249834D01*
X682503Y246001D02*
Y253999D01*
X686502D01*
X687835Y252666D01*
Y250000D01*
X686502Y248667D01*
X682503D01*
X685169D02*
X687835Y246001D01*
X690501D02*
X693167D01*
X691834D01*
Y253999D01*
X690501Y252666D01*
X701164Y246001D02*
Y253999D01*
X697165Y250000D01*
X702497D01*
X868836Y503501D02*
Y511499D01*
X872835D01*
X874168Y510166D01*
Y507500D01*
X872835Y506167D01*
X868836D01*
X871502D02*
X874168Y503501D01*
X876834D02*
X879499D01*
X878167D01*
Y511499D01*
X876834Y510166D01*
X883498Y503501D02*
X886164D01*
X884831D01*
Y511499D01*
X883498Y510166D01*
X751499Y520003D02*
X743501D01*
Y524002D01*
X744834Y525335D01*
X747500D01*
X748833Y524002D01*
Y520003D01*
Y522669D02*
X751499Y525335D01*
Y528001D02*
Y530667D01*
Y529334D01*
X743501D01*
X744834Y528001D01*
Y534665D02*
X743501Y535998D01*
Y538664D01*
X744834Y539997D01*
X750166D01*
X751499Y538664D01*
Y535998D01*
X750166Y534665D01*
X744834D01*
X766499Y523335D02*
X758501D01*
Y527334D01*
X759834Y528667D01*
X762500D01*
X763833Y527334D01*
Y523335D01*
Y526001D02*
X766499Y528667D01*
X765166Y531333D02*
X766499Y532666D01*
Y535332D01*
X765166Y536665D01*
X759834D01*
X758501Y535332D01*
Y532666D01*
X759834Y531333D01*
X761167D01*
X762500Y532666D01*
Y536665D01*
X788999Y460835D02*
X781001D01*
Y464834D01*
X782334Y466167D01*
X785000D01*
X786333Y464834D01*
Y460835D01*
Y463501D02*
X788999Y466167D01*
X782334Y468833D02*
X781001Y470166D01*
Y472832D01*
X782334Y474165D01*
X783667D01*
X785000Y472832D01*
X786333Y474165D01*
X787666D01*
X788999Y472832D01*
Y470166D01*
X787666Y468833D01*
X786333D01*
X785000Y470166D01*
X783667Y468833D01*
X782334D01*
X785000Y470166D02*
Y472832D01*
X826499Y460835D02*
X818501D01*
Y464834D01*
X819834Y466167D01*
X822500D01*
X823833Y464834D01*
Y460835D01*
Y463501D02*
X826499Y466167D01*
X818501Y468833D02*
Y474165D01*
X819834D01*
X825166Y468833D01*
X826499D01*
X816499Y313335D02*
X808501D01*
Y317334D01*
X809834Y318667D01*
X812500D01*
X813833Y317334D01*
Y313335D01*
Y316001D02*
X816499Y318667D01*
X809834Y321333D02*
X808501Y322666D01*
Y325332D01*
X809834Y326665D01*
X811167D01*
X812500Y325332D01*
Y323999D01*
Y325332D01*
X813833Y326665D01*
X815166D01*
X816499Y325332D01*
Y322666D01*
X815166Y321333D01*
X824668Y326001D02*
Y333999D01*
X828667D01*
X830000Y332666D01*
Y330000D01*
X828667Y328667D01*
X824668D01*
X827334D02*
X830000Y326001D01*
X832666D02*
X835332D01*
X833999D01*
Y333999D01*
X832666Y332666D01*
X263335Y96001D02*
Y103999D01*
X266001Y101333D01*
X268667Y103999D01*
Y96001D01*
X275332D02*
Y103999D01*
X271333Y100000D01*
X276665D01*
X208335Y538501D02*
Y546499D01*
X211001Y543833D01*
X213667Y546499D01*
Y538501D01*
X221665D02*
X216333D01*
X221665Y543833D01*
Y545166D01*
X220332Y546499D01*
X217666D01*
X216333Y545166D01*
X537168Y553501D02*
Y561499D01*
X539834Y558833D01*
X542500Y561499D01*
Y553501D01*
X545166D02*
X547832D01*
X546499D01*
Y561499D01*
X545166Y560166D01*
X674668Y553999D02*
Y546001D01*
X680000D01*
X682666D02*
X685332D01*
X683999D01*
Y553999D01*
X682666Y552666D01*
X773335Y326499D02*
Y318501D01*
X777334D01*
X778667Y319834D01*
Y325166D01*
X777334Y326499D01*
X773335D01*
X786665Y318501D02*
X781333D01*
X786665Y323833D01*
Y325166D01*
X785332Y326499D01*
X782666D01*
X781333Y325166D01*
X602835Y552666D02*
X601502Y553999D01*
X598836D01*
X597503Y552666D01*
Y547334D01*
X598836Y546001D01*
X601502D01*
X602835Y547334D01*
X605501Y546001D02*
X608166D01*
X606834D01*
Y553999D01*
X605501Y552666D01*
X612165D02*
X613498Y553999D01*
X616164D01*
X617497Y552666D01*
Y551333D01*
X616164Y550000D01*
X617497Y548667D01*
Y547334D01*
X616164Y546001D01*
X613498D01*
X612165Y547334D01*
Y548667D01*
X613498Y550000D01*
X612165Y551333D01*
Y552666D01*
X613498Y550000D02*
X616164D01*
X732334Y510335D02*
X731001Y509002D01*
Y506336D01*
X732334Y505003D01*
X737666D01*
X738999Y506336D01*
Y509002D01*
X737666Y510335D01*
X738999Y513001D02*
Y515667D01*
Y514334D01*
X731001D01*
X732334Y513001D01*
X731001Y519665D02*
Y524997D01*
X732334D01*
X737666Y519665D01*
X738999D01*
X872835Y497666D02*
X871502Y498999D01*
X868836D01*
X867503Y497666D01*
Y492334D01*
X868836Y491001D01*
X871502D01*
X872835Y492334D01*
X875501Y491001D02*
X878166D01*
X876834D01*
Y498999D01*
X875501Y497666D01*
X887497Y498999D02*
X884831Y497666D01*
X882165Y495000D01*
Y492334D01*
X883498Y491001D01*
X886164D01*
X887497Y492334D01*
Y493667D01*
X886164Y495000D01*
X882165D01*
X872835Y482666D02*
X871502Y483999D01*
X868836D01*
X867503Y482666D01*
Y477334D01*
X868836Y476001D01*
X871502D01*
X872835Y477334D01*
X875501Y476001D02*
X878166D01*
X876834D01*
Y483999D01*
X875501Y482666D01*
X887497Y483999D02*
X882165D01*
Y480000D01*
X884831Y481333D01*
X886164D01*
X887497Y480000D01*
Y477334D01*
X886164Y476001D01*
X883498D01*
X882165Y477334D01*
X687835Y237666D02*
X686502Y238999D01*
X683836D01*
X682503Y237666D01*
Y232334D01*
X683836Y231001D01*
X686502D01*
X687835Y232334D01*
X690501Y231001D02*
X693167D01*
X691834D01*
Y238999D01*
X690501Y237666D01*
X701164Y231001D02*
Y238999D01*
X697165Y235000D01*
X702497D01*
X317334Y477835D02*
X316001Y476502D01*
Y473836D01*
X317334Y472503D01*
X322666D01*
X323999Y473836D01*
Y476502D01*
X322666Y477835D01*
X323999Y480501D02*
Y483167D01*
Y481834D01*
X316001D01*
X317334Y480501D01*
Y487165D02*
X316001Y488498D01*
Y491164D01*
X317334Y492497D01*
X318667D01*
X320000Y491164D01*
Y489831D01*
Y491164D01*
X321333Y492497D01*
X322666D01*
X323999Y491164D01*
Y488498D01*
X322666Y487165D01*
X317334Y382835D02*
X316001Y381502D01*
Y378836D01*
X317334Y377503D01*
X322666D01*
X323999Y378836D01*
Y381502D01*
X322666Y382835D01*
X323999Y385501D02*
Y388167D01*
Y386834D01*
X316001D01*
X317334Y385501D01*
X323999Y397497D02*
Y392165D01*
X318667Y397497D01*
X317334D01*
X316001Y396164D01*
Y393498D01*
X317334Y392165D01*
X714168Y252666D02*
X712835Y253999D01*
X710169D01*
X708836Y252666D01*
Y247334D01*
X710169Y246001D01*
X712835D01*
X714168Y247334D01*
X716833Y246001D02*
X719499D01*
X718167D01*
Y253999D01*
X716833Y252666D01*
X723498Y246001D02*
X726164D01*
X724831D01*
Y253999D01*
X723498Y252666D01*
X717334Y411167D02*
X716001Y409834D01*
Y407168D01*
X717334Y405835D01*
X722666D01*
X723999Y407168D01*
Y409834D01*
X722666Y411167D01*
Y413833D02*
X723999Y415166D01*
Y417832D01*
X722666Y419165D01*
X717334D01*
X716001Y417832D01*
Y415166D01*
X717334Y413833D01*
X718667D01*
X720000Y415166D01*
Y419165D01*
X763667Y432666D02*
X762334Y433999D01*
X759668D01*
X758335Y432666D01*
Y427334D01*
X759668Y426001D01*
X762334D01*
X763667Y427334D01*
X766333Y433999D02*
X771665D01*
Y432666D01*
X766333Y427334D01*
Y426001D01*
X802334Y381167D02*
X801001Y379834D01*
Y377168D01*
X802334Y375835D01*
X807666D01*
X808999Y377168D01*
Y379834D01*
X807666Y381167D01*
X801001Y389165D02*
Y383833D01*
X805000D01*
X803667Y386499D01*
Y387832D01*
X805000Y389165D01*
X807666D01*
X808999Y387832D01*
Y385166D01*
X807666Y383833D01*
X754834Y331167D02*
X753501Y329834D01*
Y327168D01*
X754834Y325835D01*
X760166D01*
X761499Y327168D01*
Y329834D01*
X760166Y331167D01*
X754834Y333833D02*
X753501Y335166D01*
Y337832D01*
X754834Y339165D01*
X756167D01*
X757500Y337832D01*
Y336499D01*
Y337832D01*
X758833Y339165D01*
X760166D01*
X761499Y337832D01*
Y335166D01*
X760166Y333833D01*
X717334Y360000D02*
X716001Y358667D01*
Y356001D01*
X717334Y354668D01*
X722666D01*
X723999Y356001D01*
Y358667D01*
X722666Y360000D01*
X723999Y362666D02*
Y365332D01*
Y363999D01*
X716001D01*
X717334Y362666D01*
D13*
X692500Y530000D02*
Y542500D01*
X532500Y530000D02*
Y542500D01*
X692500Y487500D02*
Y500000D01*
X532500Y487500D02*
Y500000D01*
X692500Y272500D02*
Y285000D01*
X680000Y272500D02*
X692500D01*
X532500D02*
Y285000D01*
Y272500D02*
X545000D01*
X532500Y542500D02*
X692500D01*
X63639Y248070D02*
X46500D01*
X55070Y239500D02*
Y256639D01*
D14*
X830500Y227161D02*
X863822D01*
X847161Y243822D02*
Y210500D01*
X848000Y107161D02*
X881322D01*
X864661Y123822D02*
Y90500D01*
M02*
