G04*
G04 #@! TF.GenerationSoftware,Altium Limited,Altium Designer,23.0.1 (38)*
G04*
G04 Layer_Physical_Order=2*
G04 Layer_Color=16711680*
%FSLAX44Y44*%
%MOMM*%
G71*
G04*
G04 #@! TF.SameCoordinates,4C8F7ACE-B835-4E2F-ABB1-864D6479480B*
G04*
G04*
G04 #@! TF.FilePolarity,Positive*
G04*
G01*
G75*
%ADD13C,0.2500*%
%ADD15R,1.6000X4.9000*%
%ADD68C,1.0000*%
%ADD70C,0.6000*%
%ADD72C,4.0000*%
%ADD73R,1.7100X1.7100*%
%ADD74C,1.7100*%
%ADD75C,0.6500*%
%ADD76C,2.0000*%
G04:AMPARAMS|DCode=77|XSize=2mm|YSize=2mm|CornerRadius=0.5mm|HoleSize=0mm|Usage=FLASHONLY|Rotation=90.000|XOffset=0mm|YOffset=0mm|HoleType=Round|Shape=RoundedRectangle|*
%AMROUNDEDRECTD77*
21,1,2.0000,1.0000,0,0,90.0*
21,1,1.0000,2.0000,0,0,90.0*
1,1,1.0000,0.5000,0.5000*
1,1,1.0000,0.5000,-0.5000*
1,1,1.0000,-0.5000,-0.5000*
1,1,1.0000,-0.5000,0.5000*
%
%ADD77ROUNDEDRECTD77*%
%ADD78C,1.5900*%
%ADD79R,1.5900X1.5900*%
%ADD80C,1.8000*%
%ADD81O,2.2000X2.2500*%
%ADD82C,2.2000*%
%ADD83R,1.6000X1.6000*%
%ADD84C,1.6000*%
%ADD85C,0.6000*%
G36*
X896941Y160000D02*
X896941Y3059D01*
X835000D01*
Y87433D01*
X837155Y90658D01*
X839039Y95208D01*
X840000Y100038D01*
Y104962D01*
X839039Y109792D01*
X837155Y114342D01*
X835000Y117567D01*
Y160000D01*
X66346D01*
X65859Y161173D01*
X81372Y176686D01*
X650000D01*
X651268Y176939D01*
X652343Y177657D01*
X709843Y235157D01*
X710561Y236232D01*
X710814Y237500D01*
Y285256D01*
X711181Y285573D01*
X712084Y285845D01*
X712168Y285761D01*
X712632Y285569D01*
X713049Y285290D01*
X713542Y285192D01*
X714005Y285000D01*
X714508D01*
X715000Y284902D01*
X715492Y285000D01*
X715995D01*
X716458Y285192D01*
X716951Y285290D01*
X717368Y285569D01*
X717832Y285761D01*
X718187Y286116D01*
X718605Y286395D01*
X718884Y286813D01*
X719170Y287099D01*
X719512Y287072D01*
X720440Y286748D01*
Y245424D01*
X717508Y242493D01*
X716385Y241030D01*
X715680Y239327D01*
X715440Y237500D01*
X715680Y235673D01*
X716385Y233970D01*
X717508Y232508D01*
X718970Y231385D01*
X720673Y230680D01*
X722500Y230440D01*
X724327Y230680D01*
X726030Y231385D01*
X727492Y232508D01*
X732492Y237508D01*
X733615Y238970D01*
X734320Y240673D01*
X734560Y242500D01*
Y372500D01*
X734320Y374327D01*
X733615Y376030D01*
X732492Y377492D01*
X729992Y379992D01*
X728530Y381115D01*
X726827Y381820D01*
X725000Y382060D01*
X723173Y381820D01*
X721470Y381115D01*
X720008Y379992D01*
X718885Y378530D01*
X718180Y376827D01*
X717940Y375000D01*
X718180Y373173D01*
X718885Y371470D01*
X720008Y370008D01*
X720440Y369576D01*
Y328252D01*
X719512Y327928D01*
X719170Y327901D01*
X718884Y328187D01*
X718605Y328605D01*
X718187Y328884D01*
X717832Y329239D01*
X717368Y329431D01*
X716951Y329710D01*
X716458Y329808D01*
X715995Y330000D01*
X715492D01*
X715000Y330098D01*
X714508Y330000D01*
X714005D01*
X713542Y329808D01*
X713049Y329710D01*
X712632Y329431D01*
X712168Y329239D01*
X711813Y328884D01*
X711395Y328605D01*
X711270Y328418D01*
X710525Y328463D01*
X709891Y328758D01*
X709239Y330332D01*
X707832Y331739D01*
X707654Y331813D01*
Y333187D01*
X707832Y333261D01*
X709239Y334668D01*
X710000Y336505D01*
Y338495D01*
X709239Y340332D01*
X707832Y341739D01*
X707528Y341865D01*
Y343135D01*
X707832Y343261D01*
X709239Y344668D01*
X710000Y346505D01*
Y348495D01*
X709239Y350332D01*
X707832Y351739D01*
X705995Y352500D01*
X704005D01*
X702168Y351739D01*
X700761Y350332D01*
X700580Y349895D01*
X700562Y349892D01*
X699487Y349173D01*
X687657Y337343D01*
X686939Y336268D01*
X686686Y335000D01*
Y243873D01*
X643627Y200814D01*
X601197D01*
X601098Y201072D01*
X600985Y202084D01*
X601843Y202657D01*
X609748Y210562D01*
X610428Y210169D01*
X613111Y209450D01*
X615889D01*
X618572Y210169D01*
X620978Y211558D01*
X622942Y213522D01*
X624331Y215928D01*
X625050Y218611D01*
Y221389D01*
X624331Y224072D01*
X622942Y226478D01*
X621504Y227916D01*
X622030Y229186D01*
X623628D01*
X627657Y225157D01*
X628732Y224439D01*
X629350Y224316D01*
Y209450D01*
X650450D01*
Y230550D01*
X632840D01*
X632620Y230594D01*
X632238D01*
X631432Y230754D01*
X627343Y234843D01*
X626268Y235561D01*
X625000Y235814D01*
X606988D01*
X606559Y236280D01*
X607116Y237550D01*
X625350D01*
Y257450D01*
X605450D01*
Y256032D01*
X604180Y255506D01*
X588314Y271373D01*
Y350000D01*
X588061Y351268D01*
X587343Y352343D01*
X581073Y358613D01*
X579998Y359331D01*
X578730Y359584D01*
X551403D01*
X550135Y359331D01*
X549060Y358613D01*
X545447Y355000D01*
X544506D01*
X542668Y354239D01*
X541261Y352832D01*
X540500Y350995D01*
Y349005D01*
X541261Y347168D01*
X542668Y345761D01*
X544506Y345000D01*
X546495D01*
X548332Y345761D01*
X548920Y346349D01*
X549750Y347157D01*
X550580Y346349D01*
X551168Y345761D01*
X552910Y345040D01*
X553182Y344632D01*
X566634Y331179D01*
Y232731D01*
X566786Y231969D01*
X566188Y231167D01*
X565848Y230906D01*
X565160Y231090D01*
X564970D01*
Y220000D01*
Y208910D01*
X565160D01*
X567981Y209666D01*
X570509Y211126D01*
X570987Y211603D01*
X572365Y211185D01*
X572459Y210712D01*
X573177Y209637D01*
X580157Y202657D01*
X581015Y202084D01*
X580902Y201072D01*
X580803Y200814D01*
X291373D01*
X83314Y408872D01*
Y467500D01*
X83061Y468768D01*
X82343Y469843D01*
X62093Y490093D01*
X61018Y490811D01*
X59750Y491064D01*
X28210D01*
X26942Y490811D01*
X25867Y490093D01*
X24403Y488629D01*
X23684Y487554D01*
X23432Y486286D01*
Y485968D01*
X20754Y485250D01*
X18246Y483802D01*
X16198Y481754D01*
X14750Y479246D01*
X14000Y476448D01*
Y473552D01*
X14750Y470754D01*
X16198Y468246D01*
X18246Y466198D01*
X20754Y464750D01*
X23552Y464000D01*
X26448D01*
X29246Y464750D01*
X31754Y466198D01*
X33802Y468246D01*
X35250Y470754D01*
X36000Y473552D01*
Y476448D01*
X35250Y479246D01*
X33802Y481754D01*
X32390Y483166D01*
X32916Y484436D01*
X58377D01*
X76686Y466128D01*
Y407500D01*
X76939Y406232D01*
X77657Y405157D01*
X135880Y346933D01*
X135255Y345763D01*
X135000Y345814D01*
X41373D01*
X28314Y358872D01*
Y364500D01*
X29246Y364750D01*
X31754Y366198D01*
X33802Y368246D01*
X35250Y370754D01*
X36000Y373552D01*
Y376448D01*
X35250Y379246D01*
X33802Y381754D01*
X31754Y383802D01*
X29246Y385250D01*
X26448Y386000D01*
X23552D01*
X20754Y385250D01*
X18246Y383802D01*
X16198Y381754D01*
X14750Y379246D01*
X14000Y376448D01*
Y373552D01*
X14750Y370754D01*
X16198Y368246D01*
X18246Y366198D01*
X20754Y364750D01*
X21686Y364500D01*
Y357500D01*
X21939Y356232D01*
X22657Y355157D01*
X37657Y340157D01*
X38732Y339439D01*
X40000Y339186D01*
X133628D01*
X287657Y185157D01*
X288515Y184584D01*
X288402Y183572D01*
X288304Y183314D01*
X80000D01*
X78732Y183061D01*
X77657Y182343D01*
X55314Y160000D01*
X3059D01*
X3059Y616941D01*
X896941D01*
X896941Y160000D01*
D02*
G37*
G36*
X64904Y158558D02*
X64904Y158558D01*
Y158558D01*
X64904Y158558D01*
X65565Y158116D01*
X66346Y157961D01*
X127500D01*
Y3059D01*
X3059D01*
Y156691D01*
X3059Y157961D01*
X51615D01*
X52101Y156788D01*
X30082Y134768D01*
X29246Y135250D01*
X26448Y136000D01*
X23552D01*
X20754Y135250D01*
X18246Y133802D01*
X16198Y131754D01*
X14750Y129246D01*
X14000Y126448D01*
Y123552D01*
X14750Y120754D01*
X16198Y118246D01*
X18246Y116198D01*
X20754Y114750D01*
X23552Y114000D01*
X26448D01*
X29246Y114750D01*
X31754Y116198D01*
X33802Y118246D01*
X35250Y120754D01*
X36000Y123552D01*
Y126448D01*
X35250Y129246D01*
X34768Y130082D01*
X63372Y158685D01*
X64904Y158558D01*
D02*
G37*
%LPC*%
G36*
X862220Y602540D02*
X861270D01*
Y581270D01*
X882540D01*
Y582220D01*
X881674Y586575D01*
X879975Y590677D01*
X877508Y594368D01*
X874368Y597508D01*
X870677Y599975D01*
X866575Y601674D01*
X862220Y602540D01*
D02*
G37*
G36*
X858730D02*
X857780D01*
X853425Y601674D01*
X849323Y599975D01*
X845632Y597508D01*
X842492Y594368D01*
X840025Y590677D01*
X838326Y586575D01*
X837460Y582220D01*
Y581270D01*
X858730D01*
Y602540D01*
D02*
G37*
G36*
X42220D02*
X41270D01*
Y581270D01*
X62540D01*
Y582220D01*
X61674Y586575D01*
X59975Y590677D01*
X57508Y594368D01*
X54368Y597508D01*
X50677Y599975D01*
X46575Y601674D01*
X42220Y602540D01*
D02*
G37*
G36*
X38730D02*
X37780D01*
X33425Y601674D01*
X29323Y599975D01*
X25632Y597508D01*
X22492Y594368D01*
X20025Y590677D01*
X18326Y586575D01*
X17460Y582220D01*
Y581270D01*
X38730D01*
Y602540D01*
D02*
G37*
G36*
X882540Y578730D02*
X861270D01*
Y557460D01*
X862220D01*
X866575Y558326D01*
X870677Y560025D01*
X874368Y562492D01*
X877508Y565632D01*
X879975Y569323D01*
X881674Y573425D01*
X882540Y577780D01*
Y578730D01*
D02*
G37*
G36*
X858730D02*
X837460D01*
Y577780D01*
X838326Y573425D01*
X840025Y569323D01*
X842492Y565632D01*
X845632Y562492D01*
X849323Y560025D01*
X853425Y558326D01*
X857780Y557460D01*
X858730D01*
Y578730D01*
D02*
G37*
G36*
X62540D02*
X41270D01*
Y557460D01*
X42220D01*
X46575Y558326D01*
X50677Y560025D01*
X54368Y562492D01*
X57508Y565632D01*
X59975Y569323D01*
X61674Y573425D01*
X62540Y577780D01*
Y578730D01*
D02*
G37*
G36*
X38730D02*
X17460D01*
Y577780D01*
X18326Y573425D01*
X20025Y569323D01*
X22492Y565632D01*
X25632Y562492D01*
X29323Y560025D01*
X33425Y558326D01*
X37780Y557460D01*
X38730D01*
Y578730D01*
D02*
G37*
G36*
X51270Y548740D02*
Y536270D01*
X63523D01*
X63191Y538785D01*
X61827Y542078D01*
X59657Y544907D01*
X56828Y547077D01*
X53535Y548441D01*
X51270Y548740D01*
D02*
G37*
G36*
X48730Y548740D02*
X46465Y548441D01*
X43172Y547077D01*
X40343Y544907D01*
X38173Y542078D01*
X36809Y538785D01*
X36477Y536270D01*
X48730D01*
Y548740D01*
D02*
G37*
G36*
X26519Y536540D02*
X26270D01*
Y526270D01*
X36540D01*
Y526519D01*
X35754Y529454D01*
X34234Y532086D01*
X32086Y534234D01*
X29454Y535754D01*
X26519Y536540D01*
D02*
G37*
G36*
X23730D02*
X23481D01*
X20546Y535754D01*
X17914Y534234D01*
X15766Y532086D01*
X14246Y529454D01*
X13460Y526519D01*
Y526270D01*
X23730D01*
Y536540D01*
D02*
G37*
G36*
X63523Y533730D02*
X51270D01*
Y521260D01*
X53535Y521558D01*
X56828Y522923D01*
X59657Y525093D01*
X61827Y527922D01*
X63191Y531215D01*
X63523Y533730D01*
D02*
G37*
G36*
X48730D02*
X36477D01*
X36809Y531215D01*
X38173Y527922D01*
X40343Y525093D01*
X43172Y522923D01*
X46465Y521558D01*
X48730Y521260D01*
Y533730D01*
D02*
G37*
G36*
X36540Y523730D02*
X26270D01*
Y513460D01*
X26519D01*
X29454Y514246D01*
X32086Y515766D01*
X34234Y517914D01*
X35754Y520546D01*
X36540Y523481D01*
Y523730D01*
D02*
G37*
G36*
X23730D02*
X13460D01*
Y523481D01*
X14246Y520546D01*
X15766Y517914D01*
X17914Y515766D01*
X20546Y514246D01*
X23481Y513460D01*
X23730D01*
Y523730D01*
D02*
G37*
G36*
X278495Y520000D02*
X276505D01*
X274668Y519239D01*
X273261Y517832D01*
X272500Y515995D01*
Y514686D01*
X267657Y509843D01*
X266939Y508768D01*
X266686Y507500D01*
Y452500D01*
X266939Y451232D01*
X267657Y450157D01*
X277657Y440157D01*
X278732Y439439D01*
X280000Y439186D01*
X298627D01*
X340880Y396933D01*
X340255Y395763D01*
X340000Y395814D01*
X191373D01*
X165814Y421372D01*
Y433743D01*
X166739Y434668D01*
X167500Y436506D01*
Y438495D01*
X166739Y440332D01*
X165332Y441739D01*
X163495Y442500D01*
X161505D01*
X159668Y441739D01*
X158261Y440332D01*
X157500Y438495D01*
Y436506D01*
X158261Y434668D01*
X159186Y433743D01*
Y420000D01*
X159237Y419745D01*
X158067Y419120D01*
X157343Y419843D01*
X156268Y420561D01*
X155000Y420814D01*
X98757D01*
X97832Y421739D01*
X95995Y422500D01*
X94005D01*
X92168Y421739D01*
X90761Y420332D01*
X90000Y418495D01*
Y416505D01*
X90761Y414668D01*
X92168Y413261D01*
X94005Y412500D01*
X95995D01*
X97832Y413261D01*
X98757Y414186D01*
X153628D01*
X164254Y403560D01*
X163534Y402483D01*
X163495Y402500D01*
X161505D01*
X159668Y401739D01*
X158261Y400332D01*
X157500Y398495D01*
Y396505D01*
X158261Y394668D01*
X159668Y393261D01*
X161505Y392500D01*
X162814D01*
X173327Y381987D01*
X172841Y380814D01*
X166257D01*
X165332Y381739D01*
X163495Y382500D01*
X161505D01*
X159668Y381739D01*
X158261Y380332D01*
X157500Y378495D01*
Y376505D01*
X158261Y374668D01*
X159668Y373261D01*
X161505Y372500D01*
X163495D01*
X165332Y373261D01*
X166257Y374186D01*
X326128D01*
X333657Y366657D01*
X334732Y365939D01*
X336000Y365686D01*
X422225D01*
X422632Y364431D01*
X422168Y364239D01*
X421813Y363884D01*
X421395Y363605D01*
X421116Y363187D01*
X420761Y362832D01*
X420569Y362368D01*
X420290Y361951D01*
X420192Y361458D01*
X420000Y360995D01*
Y360493D01*
X419902Y360000D01*
Y289612D01*
X406395Y276105D01*
X406116Y275687D01*
X405761Y275332D01*
X405569Y274868D01*
X405290Y274451D01*
X405192Y273958D01*
X405000Y273495D01*
Y272992D01*
X404902Y272500D01*
X405000Y272008D01*
Y271505D01*
X405192Y271042D01*
X405290Y270549D01*
X405569Y270132D01*
X405761Y269668D01*
X406116Y269313D01*
X406395Y268895D01*
X406813Y268616D01*
X407168Y268261D01*
X407632Y268069D01*
X408049Y267790D01*
X408542Y267692D01*
X409005Y267500D01*
X409507D01*
X410000Y267402D01*
X410493Y267500D01*
X410994D01*
X411458Y267692D01*
X411951Y267790D01*
X412368Y268069D01*
X412832Y268261D01*
X413187Y268616D01*
X413605Y268895D01*
X428605Y283895D01*
X429710Y285549D01*
X430098Y287500D01*
Y360000D01*
X430000Y360493D01*
Y360995D01*
X429808Y361458D01*
X429710Y361951D01*
X429431Y362368D01*
X429239Y362832D01*
X428884Y363187D01*
X428605Y363605D01*
X428187Y363884D01*
X427832Y364239D01*
X427368Y364431D01*
X427775Y365686D01*
X599341D01*
X599827Y364513D01*
X595157Y359843D01*
X594439Y358768D01*
X594186Y357500D01*
Y294549D01*
X593438Y294239D01*
X592031Y292832D01*
X591270Y290995D01*
Y289005D01*
X592031Y287168D01*
X593438Y285761D01*
X595275Y285000D01*
X597265D01*
X599102Y285761D01*
X600509Y287168D01*
X601270Y289005D01*
X602500D01*
X603261Y287168D01*
X604668Y285761D01*
X606505Y285000D01*
X608495D01*
X610332Y285761D01*
X611739Y287168D01*
X612500Y289005D01*
Y290995D01*
X611739Y292832D01*
X610814Y293757D01*
Y358628D01*
X616373Y364186D01*
X700000D01*
X701268Y364439D01*
X702343Y365157D01*
X734843Y397657D01*
X735561Y398732D01*
X735814Y400000D01*
Y456128D01*
X747186Y467500D01*
X748495D01*
X750332Y468261D01*
X751739Y469668D01*
X752500Y471505D01*
Y473495D01*
X751739Y475332D01*
X751558Y475513D01*
X752044Y476686D01*
X756243D01*
X757168Y475761D01*
X759005Y475000D01*
X760995D01*
X762832Y475761D01*
X764239Y477168D01*
X765000Y479005D01*
Y480995D01*
X764239Y482832D01*
X762832Y484239D01*
X760995Y485000D01*
X759005D01*
X757168Y484239D01*
X756243Y483314D01*
X745000D01*
X743732Y483061D01*
X742657Y482343D01*
X725157Y464843D01*
X724439Y463768D01*
X724186Y462500D01*
Y403873D01*
X711673Y391360D01*
X710211Y391693D01*
X709739Y392832D01*
X708607Y393964D01*
X708461Y394787D01*
X708627Y395491D01*
X709787Y396651D01*
X710548Y398489D01*
Y400478D01*
X709787Y402316D01*
X708380Y403722D01*
X706542Y404484D01*
X705966D01*
X705440Y405754D01*
X706320Y406634D01*
X706592Y407040D01*
X708332Y407761D01*
X709739Y409168D01*
X710500Y411005D01*
Y412995D01*
X709739Y414832D01*
X708332Y416239D01*
X707550Y416563D01*
Y417937D01*
X708332Y418261D01*
X709739Y419668D01*
X710500Y421505D01*
Y423495D01*
X709739Y425332D01*
X708332Y426739D01*
X708154Y426813D01*
Y428187D01*
X708332Y428261D01*
X709739Y429668D01*
X710500Y431505D01*
Y433495D01*
X709739Y435332D01*
X708332Y436739D01*
X708154Y436813D01*
Y438187D01*
X708332Y438261D01*
X709739Y439668D01*
X710500Y441505D01*
Y443495D01*
X709739Y445332D01*
X708332Y446739D01*
X708070Y446847D01*
Y448117D01*
X708213Y448176D01*
X709620Y449583D01*
X710381Y451421D01*
Y453410D01*
X709620Y455248D01*
X708213Y456654D01*
X707814Y456820D01*
Y458194D01*
X707901Y458231D01*
X709308Y459637D01*
X710069Y461475D01*
Y463464D01*
X709308Y465302D01*
X707901Y466708D01*
X707651Y466812D01*
Y468186D01*
X707832Y468261D01*
X709239Y469668D01*
X710000Y471505D01*
Y473495D01*
X709239Y475332D01*
X707832Y476739D01*
X705995Y477500D01*
X704005D01*
X702168Y476739D01*
X700761Y475332D01*
X700000Y473495D01*
Y472186D01*
X678627Y450814D01*
X508873D01*
X482500Y477186D01*
Y478495D01*
X481739Y480332D01*
X480332Y481739D01*
X478495Y482500D01*
X476505D01*
X474668Y481739D01*
X473261Y480332D01*
X472500Y478495D01*
Y476505D01*
X473261Y474668D01*
X474668Y473261D01*
X476505Y472500D01*
X477814D01*
X505157Y445157D01*
X506015Y444584D01*
X505902Y443572D01*
X505804Y443314D01*
X496373D01*
X482500Y457186D01*
Y458495D01*
X481739Y460332D01*
X480332Y461739D01*
X478495Y462500D01*
X476505D01*
X474668Y461739D01*
X473261Y460332D01*
X472500Y458495D01*
Y456505D01*
X473261Y454668D01*
X474668Y453261D01*
X476505Y452500D01*
X477814D01*
X492657Y437657D01*
X493515Y437084D01*
X493402Y436072D01*
X493304Y435814D01*
X484809D01*
X482500Y438122D01*
Y438495D01*
X481739Y440332D01*
X480332Y441739D01*
X478495Y442500D01*
X476505D01*
X474668Y441739D01*
X473743Y440814D01*
X336373D01*
X281967Y495219D01*
X282500Y496505D01*
Y498495D01*
X281739Y500332D01*
X280332Y501739D01*
X278495Y502500D01*
X276505D01*
X274668Y501739D01*
X274487Y501558D01*
X273314Y502044D01*
Y506128D01*
X277186Y510000D01*
X278495D01*
X280332Y510761D01*
X281739Y512168D01*
X282500Y514005D01*
Y515995D01*
X281739Y517832D01*
X280332Y519239D01*
X278495Y520000D01*
D02*
G37*
G36*
X51783Y478540D02*
X51270D01*
Y466270D01*
X63540D01*
Y466782D01*
X62617Y470226D01*
X60835Y473314D01*
X58314Y475835D01*
X55226Y477617D01*
X51783Y478540D01*
D02*
G37*
G36*
X48730D02*
X48217D01*
X44774Y477617D01*
X41686Y475835D01*
X39165Y473314D01*
X37383Y470226D01*
X36460Y466782D01*
Y466270D01*
X48730D01*
Y478540D01*
D02*
G37*
G36*
X63540Y463730D02*
X51270D01*
Y451460D01*
X51783D01*
X55226Y452383D01*
X58314Y454165D01*
X60835Y456686D01*
X62617Y459774D01*
X63540Y463217D01*
Y463730D01*
D02*
G37*
G36*
X48730D02*
X36460D01*
Y463217D01*
X37383Y459774D01*
X39165Y456686D01*
X41686Y454165D01*
X44774Y452383D01*
X48217Y451460D01*
X48730D01*
Y463730D01*
D02*
G37*
G36*
X51270Y448740D02*
Y436270D01*
X63523D01*
X63191Y438785D01*
X61827Y442078D01*
X59657Y444907D01*
X56828Y447077D01*
X53535Y448441D01*
X51270Y448740D01*
D02*
G37*
G36*
X48730D02*
X46465Y448441D01*
X43172Y447077D01*
X40343Y444907D01*
X38173Y442078D01*
X36809Y438785D01*
X36477Y436270D01*
X48730D01*
Y448740D01*
D02*
G37*
G36*
X835000Y500098D02*
X834508Y500000D01*
X834005D01*
X833542Y499808D01*
X833049Y499710D01*
X832632Y499431D01*
X832168Y499239D01*
X831813Y498884D01*
X831395Y498605D01*
X831116Y498187D01*
X830761Y497832D01*
X830569Y497368D01*
X830290Y496951D01*
X830192Y496458D01*
X830000Y495995D01*
Y495493D01*
X829902Y495000D01*
X830000Y494507D01*
Y494005D01*
X830192Y493542D01*
X830290Y493049D01*
X830569Y492632D01*
X830761Y492168D01*
X831116Y491813D01*
X831395Y491395D01*
X844902Y477888D01*
Y432432D01*
X844663Y432294D01*
X843632Y432043D01*
X842374Y433301D01*
X840444Y434100D01*
X838356D01*
X836426Y433301D01*
X834949Y431824D01*
X834150Y429894D01*
Y427806D01*
X834949Y425876D01*
X836426Y424399D01*
X838356Y423600D01*
X840444D01*
X842374Y424399D01*
X843632Y425657D01*
X844663Y425406D01*
X844902Y425268D01*
Y422500D01*
X845000Y422007D01*
Y421506D01*
X845192Y421042D01*
X845290Y420549D01*
X845569Y420132D01*
X845761Y419668D01*
X846116Y419313D01*
X846395Y418895D01*
X846813Y418616D01*
X847168Y418261D01*
X847632Y418069D01*
X848049Y417790D01*
X848542Y417692D01*
X849005Y417500D01*
X849508D01*
X850000Y417402D01*
X850492Y417500D01*
X850995D01*
X851458Y417692D01*
X851951Y417790D01*
X852368Y418069D01*
X852832Y418261D01*
X853187Y418616D01*
X853605Y418895D01*
X853884Y419313D01*
X854239Y419668D01*
X854431Y420132D01*
X854710Y420549D01*
X854808Y421042D01*
X855000Y421506D01*
Y422007D01*
X855098Y422500D01*
Y480000D01*
X854710Y481951D01*
X853605Y483605D01*
X838605Y498605D01*
X838187Y498884D01*
X837832Y499239D01*
X837368Y499431D01*
X836951Y499710D01*
X836458Y499808D01*
X835995Y500000D01*
X835492D01*
X835000Y500098D01*
D02*
G37*
G36*
X26519Y436540D02*
X26270D01*
Y426270D01*
X36540D01*
Y426519D01*
X35754Y429454D01*
X34234Y432086D01*
X32086Y434234D01*
X29454Y435754D01*
X26519Y436540D01*
D02*
G37*
G36*
X23730D02*
X23481D01*
X20546Y435754D01*
X17914Y434234D01*
X15766Y432086D01*
X14246Y429454D01*
X13460Y426519D01*
Y426270D01*
X23730D01*
Y436540D01*
D02*
G37*
G36*
X63523Y433730D02*
X51270D01*
Y421260D01*
X53535Y421558D01*
X56828Y422923D01*
X59657Y425093D01*
X61827Y427921D01*
X63191Y431215D01*
X63523Y433730D01*
D02*
G37*
G36*
X48730D02*
X36477D01*
X36809Y431215D01*
X38173Y427921D01*
X40343Y425093D01*
X43172Y422923D01*
X46465Y421558D01*
X48730Y421260D01*
Y433730D01*
D02*
G37*
G36*
X36540Y423730D02*
X26270D01*
Y413460D01*
X26519D01*
X29454Y414246D01*
X32086Y415766D01*
X34234Y417914D01*
X35754Y420546D01*
X36540Y423481D01*
Y423730D01*
D02*
G37*
G36*
X23730D02*
X13460D01*
Y423481D01*
X14246Y420546D01*
X15766Y417914D01*
X17914Y415766D01*
X20546Y414246D01*
X23481Y413460D01*
X23730D01*
Y423730D01*
D02*
G37*
G36*
X840995Y412500D02*
X839005D01*
X837168Y411739D01*
X835761Y410332D01*
X835000Y408495D01*
Y406505D01*
X835761Y404668D01*
X836838Y403591D01*
Y401713D01*
X836065Y400940D01*
X835766Y400217D01*
X834267Y399919D01*
X824343Y409843D01*
X823268Y410561D01*
X822000Y410814D01*
X813757D01*
X812832Y411739D01*
X810995Y412500D01*
X809005D01*
X807168Y411739D01*
X805761Y410332D01*
X805000Y408495D01*
Y406505D01*
X805761Y404668D01*
X807168Y403261D01*
X807472Y403135D01*
Y401865D01*
X807168Y401739D01*
X805761Y400332D01*
X805000Y398495D01*
Y396506D01*
X805761Y394668D01*
X807168Y393261D01*
X809005Y392500D01*
X810995D01*
X812832Y393261D01*
X814239Y394668D01*
X815000Y396506D01*
Y398495D01*
X814239Y400332D01*
X812832Y401739D01*
X812528Y401865D01*
Y403135D01*
X812832Y403261D01*
X813757Y404186D01*
X820628D01*
X833673Y391141D01*
X833598Y390960D01*
Y388971D01*
X834360Y387133D01*
X835766Y385727D01*
X837604Y384965D01*
X839593D01*
X841431Y385727D01*
X842837Y387133D01*
X843598Y388971D01*
Y390960D01*
X842837Y392798D01*
X843349Y394082D01*
X844543Y395276D01*
X845304Y397113D01*
Y399103D01*
X844543Y400940D01*
X843466Y402018D01*
Y403895D01*
X844239Y404668D01*
X845000Y406505D01*
Y408495D01*
X844239Y410332D01*
X842832Y411739D01*
X840995Y412500D01*
D02*
G37*
G36*
X51783Y378540D02*
X51270D01*
Y366270D01*
X63540D01*
Y366782D01*
X62617Y370226D01*
X60835Y373314D01*
X58314Y375835D01*
X55226Y377617D01*
X51783Y378540D01*
D02*
G37*
G36*
X48730D02*
X48217D01*
X44774Y377617D01*
X41686Y375835D01*
X39165Y373314D01*
X37383Y370226D01*
X36460Y366782D01*
Y366270D01*
X48730D01*
Y378540D01*
D02*
G37*
G36*
X840444Y376400D02*
X838356D01*
X836426Y375601D01*
X834949Y374124D01*
X834150Y372194D01*
Y370106D01*
X834949Y368176D01*
X836426Y366699D01*
X838356Y365900D01*
X840444D01*
X842374Y366699D01*
X843851Y368176D01*
X844650Y370106D01*
Y372194D01*
X843851Y374124D01*
X842374Y375601D01*
X840444Y376400D01*
D02*
G37*
G36*
X63540Y363730D02*
X51270D01*
Y351460D01*
X51783D01*
X55226Y352383D01*
X58314Y354165D01*
X60835Y356686D01*
X62617Y359774D01*
X63540Y363217D01*
Y363730D01*
D02*
G37*
G36*
X48730D02*
X36460D01*
Y363217D01*
X37383Y359774D01*
X39165Y356686D01*
X41686Y354165D01*
X44774Y352383D01*
X48217Y351460D01*
X48730D01*
Y363730D01*
D02*
G37*
G36*
X210290Y361090D02*
X200470D01*
Y351270D01*
X210290D01*
Y361090D01*
D02*
G37*
G36*
X197930D02*
X188110D01*
Y351270D01*
X197930D01*
Y361090D01*
D02*
G37*
G36*
X352989Y360550D02*
X350211D01*
X347528Y359831D01*
X345122Y358442D01*
X343158Y356478D01*
X341769Y354072D01*
X341050Y351389D01*
Y348611D01*
X341769Y345928D01*
X343158Y343522D01*
X345122Y341558D01*
X347528Y340169D01*
X350211Y339450D01*
X352989D01*
X355672Y340169D01*
X358078Y341558D01*
X360042Y343522D01*
X361431Y345928D01*
X362150Y348611D01*
Y351389D01*
X361431Y354072D01*
X360042Y356478D01*
X358078Y358442D01*
X355672Y359831D01*
X352989Y360550D01*
D02*
G37*
G36*
X327589D02*
X324811D01*
X322128Y359831D01*
X319722Y358442D01*
X317758Y356478D01*
X316369Y354072D01*
X315650Y351389D01*
Y348611D01*
X316369Y345928D01*
X317758Y343522D01*
X319722Y341558D01*
X322128Y340169D01*
X324811Y339450D01*
X327589D01*
X330272Y340169D01*
X332678Y341558D01*
X334642Y343522D01*
X336031Y345928D01*
X336750Y348611D01*
Y351389D01*
X336031Y354072D01*
X334642Y356478D01*
X332678Y358442D01*
X330272Y359831D01*
X327589Y360550D01*
D02*
G37*
G36*
X302189D02*
X299411D01*
X296728Y359831D01*
X294322Y358442D01*
X292358Y356478D01*
X290969Y354072D01*
X290250Y351389D01*
Y348611D01*
X290969Y345928D01*
X292358Y343522D01*
X294322Y341558D01*
X296728Y340169D01*
X299411Y339450D01*
X302189D01*
X304872Y340169D01*
X307278Y341558D01*
X309242Y343522D01*
X310631Y345928D01*
X311350Y348611D01*
Y351389D01*
X310631Y354072D01*
X309242Y356478D01*
X307278Y358442D01*
X304872Y359831D01*
X302189Y360550D01*
D02*
G37*
G36*
X276789D02*
X274011D01*
X271328Y359831D01*
X268922Y358442D01*
X266958Y356478D01*
X265569Y354072D01*
X264850Y351389D01*
Y348611D01*
X265569Y345928D01*
X266958Y343522D01*
X268922Y341558D01*
X271328Y340169D01*
X274011Y339450D01*
X276789D01*
X279472Y340169D01*
X281878Y341558D01*
X283842Y343522D01*
X285231Y345928D01*
X285950Y348611D01*
Y351389D01*
X285231Y354072D01*
X283842Y356478D01*
X281878Y358442D01*
X279472Y359831D01*
X276789Y360550D01*
D02*
G37*
G36*
X251389D02*
X248611D01*
X245928Y359831D01*
X243522Y358442D01*
X241558Y356478D01*
X240169Y354072D01*
X239450Y351389D01*
Y348611D01*
X240169Y345928D01*
X241558Y343522D01*
X243522Y341558D01*
X245928Y340169D01*
X248611Y339450D01*
X251389D01*
X254072Y340169D01*
X256478Y341558D01*
X258442Y343522D01*
X259831Y345928D01*
X260550Y348611D01*
Y351389D01*
X259831Y354072D01*
X258442Y356478D01*
X256478Y358442D01*
X254072Y359831D01*
X251389Y360550D01*
D02*
G37*
G36*
X210290Y348730D02*
X200470D01*
Y338910D01*
X210290D01*
Y348730D01*
D02*
G37*
G36*
X197930D02*
X188110D01*
Y338910D01*
X197930D01*
Y348730D01*
D02*
G37*
G36*
X79080Y337500D02*
X75920D01*
X72868Y336682D01*
X70132Y335102D01*
X67898Y332868D01*
X66318Y330132D01*
X65500Y327080D01*
Y323920D01*
X66318Y320868D01*
X67898Y318132D01*
X70132Y315898D01*
X72868Y314318D01*
X75920Y313500D01*
X79080D01*
X82132Y314318D01*
X84868Y315898D01*
X87102Y318132D01*
X88682Y320868D01*
X89500Y323920D01*
Y327080D01*
X88682Y330132D01*
X87102Y332868D01*
X84868Y335102D01*
X82132Y336682D01*
X79080Y337500D01*
D02*
G37*
G36*
X547398Y307190D02*
X545409D01*
X543571Y306429D01*
X542646Y305504D01*
X464621D01*
X463353Y305251D01*
X462469Y304661D01*
X462398Y304690D01*
X460409D01*
X458571Y303929D01*
X457164Y302522D01*
X456403Y300685D01*
Y298696D01*
X457164Y296858D01*
X458571Y295451D01*
X460409Y294690D01*
X462398D01*
X464235Y295451D01*
X465642Y296858D01*
X466403Y298696D01*
Y298876D01*
X542646D01*
X543571Y297951D01*
X545409Y297190D01*
X547398D01*
X549235Y297951D01*
X550642Y299358D01*
X551403Y301196D01*
Y303185D01*
X550642Y305022D01*
X549235Y306429D01*
X547398Y307190D01*
D02*
G37*
G36*
X490995Y320000D02*
X489005D01*
X487168Y319239D01*
X485761Y317832D01*
X485000Y315995D01*
Y314005D01*
X485761Y312168D01*
X487168Y310761D01*
X489005Y310000D01*
X490995D01*
X492832Y310761D01*
X493757Y311686D01*
X546128D01*
X555000Y302814D01*
Y301505D01*
X555761Y299668D01*
X557168Y298261D01*
X559005Y297500D01*
X560995D01*
X562832Y298261D01*
X564239Y299668D01*
X565000Y301505D01*
Y303495D01*
X564239Y305332D01*
X562832Y306739D01*
X560995Y307500D01*
X559686D01*
X549843Y317343D01*
X548768Y318061D01*
X547500Y318314D01*
X493757D01*
X492832Y319239D01*
X490995Y320000D01*
D02*
G37*
G36*
X860000Y310200D02*
X840000D01*
Y290200D01*
X860000D01*
Y310200D01*
D02*
G37*
G36*
X225989Y360550D02*
X223211D01*
X220528Y359831D01*
X218122Y358442D01*
X216158Y356478D01*
X214769Y354072D01*
X214050Y351389D01*
Y348611D01*
X214769Y345928D01*
X216158Y343522D01*
X218122Y341558D01*
X219702Y340646D01*
Y295200D01*
X220090Y293249D01*
X220677Y292370D01*
X220761Y292168D01*
X220916Y292013D01*
X221195Y291595D01*
X221395Y291395D01*
X221813Y291116D01*
X222168Y290761D01*
X222632Y290569D01*
X223049Y290290D01*
X223542Y290192D01*
X224005Y290000D01*
X224508D01*
X225000Y289902D01*
X225492Y290000D01*
X225995D01*
X226458Y290192D01*
X226951Y290290D01*
X227369Y290569D01*
X227832Y290761D01*
X228187Y291116D01*
X228605Y291395D01*
X228884Y291813D01*
X229239Y292168D01*
X229431Y292631D01*
X229710Y293049D01*
X229808Y293542D01*
X230000Y294005D01*
Y294508D01*
X230098Y295000D01*
X230000Y295492D01*
Y295995D01*
X229898Y296241D01*
Y340877D01*
X231078Y341558D01*
X233042Y343522D01*
X234431Y345928D01*
X235150Y348611D01*
Y351389D01*
X234431Y354072D01*
X233042Y356478D01*
X231078Y358442D01*
X228672Y359831D01*
X225989Y360550D01*
D02*
G37*
G36*
X851317Y284800D02*
X848683D01*
X846140Y284118D01*
X843860Y282802D01*
X841998Y280940D01*
X840682Y278660D01*
X840000Y276117D01*
Y273484D01*
X840682Y270940D01*
X841998Y268660D01*
X843860Y266798D01*
X846140Y265481D01*
X848683Y264800D01*
X851317D01*
X853860Y265481D01*
X856140Y266798D01*
X858002Y268660D01*
X859318Y270940D01*
X860000Y273484D01*
Y276117D01*
X859318Y278660D01*
X858002Y280940D01*
X856140Y282802D01*
X853860Y284118D01*
X851317Y284800D01*
D02*
G37*
G36*
X82500Y261560D02*
X72500D01*
X70673Y261320D01*
X68970Y260614D01*
X67508Y259492D01*
X66385Y258030D01*
X65680Y256327D01*
X65440Y254500D01*
Y244500D01*
X65680Y242673D01*
X66385Y240970D01*
X67508Y239508D01*
X68970Y238386D01*
X70673Y237680D01*
X72500Y237440D01*
X82500D01*
X84327Y237680D01*
X86030Y238386D01*
X87493Y239508D01*
X88615Y240970D01*
X89320Y242673D01*
X89560Y244500D01*
Y254500D01*
X89320Y256327D01*
X88615Y258030D01*
X87493Y259492D01*
X86030Y260614D01*
X84327Y261320D01*
X82500Y261560D01*
D02*
G37*
G36*
X783481Y237990D02*
X783370D01*
Y228770D01*
X792590D01*
Y228881D01*
X791875Y231549D01*
X790494Y233941D01*
X788541Y235894D01*
X786149Y237275D01*
X783481Y237990D01*
D02*
G37*
G36*
X780830D02*
X780719D01*
X778051Y237275D01*
X775659Y235894D01*
X773706Y233941D01*
X772325Y231549D01*
X771610Y228881D01*
Y228770D01*
X780830D01*
Y237990D01*
D02*
G37*
G36*
X562430Y231090D02*
X562240D01*
X559419Y230334D01*
X556891Y228874D01*
X554826Y226809D01*
X553366Y224281D01*
X552610Y221460D01*
Y221270D01*
X562430D01*
Y231090D01*
D02*
G37*
G36*
X817450Y237450D02*
X797550D01*
Y217550D01*
X817450D01*
Y237450D01*
D02*
G37*
G36*
X792590Y226230D02*
X783370D01*
Y217010D01*
X783481D01*
X786149Y217725D01*
X788541Y219106D01*
X790494Y221059D01*
X791875Y223451D01*
X792590Y226119D01*
Y226230D01*
D02*
G37*
G36*
X780830D02*
X771610D01*
Y226119D01*
X772325Y223451D01*
X773706Y221059D01*
X775659Y219106D01*
X778051Y217725D01*
X780719Y217010D01*
X780830D01*
Y226230D01*
D02*
G37*
G36*
X539689Y230550D02*
X536911D01*
X534228Y229831D01*
X531822Y228442D01*
X529858Y226478D01*
X528469Y224072D01*
X527750Y221389D01*
Y218611D01*
X528469Y215928D01*
X529858Y213522D01*
X531822Y211558D01*
X534228Y210169D01*
X536911Y209450D01*
X539689D01*
X542372Y210169D01*
X544778Y211558D01*
X546742Y213522D01*
X548131Y215928D01*
X548850Y218611D01*
Y221389D01*
X548131Y224072D01*
X546742Y226478D01*
X544778Y228442D01*
X542372Y229831D01*
X539689Y230550D01*
D02*
G37*
G36*
X514289D02*
X511511D01*
X508828Y229831D01*
X506422Y228442D01*
X504458Y226478D01*
X503069Y224072D01*
X502350Y221389D01*
Y218611D01*
X503069Y215928D01*
X504458Y213522D01*
X506422Y211558D01*
X508828Y210169D01*
X511511Y209450D01*
X514289D01*
X516972Y210169D01*
X519378Y211558D01*
X521342Y213522D01*
X522731Y215928D01*
X523450Y218611D01*
Y221389D01*
X522731Y224072D01*
X521342Y226478D01*
X519378Y228442D01*
X516972Y229831D01*
X514289Y230550D01*
D02*
G37*
G36*
X488889D02*
X486111D01*
X483428Y229831D01*
X481022Y228442D01*
X479058Y226478D01*
X477669Y224072D01*
X476950Y221389D01*
Y218611D01*
X477669Y215928D01*
X479058Y213522D01*
X481022Y211558D01*
X483428Y210169D01*
X486111Y209450D01*
X488889D01*
X491572Y210169D01*
X493978Y211558D01*
X495942Y213522D01*
X497331Y215928D01*
X498050Y218611D01*
Y221389D01*
X497331Y224072D01*
X495942Y226478D01*
X493978Y228442D01*
X491572Y229831D01*
X488889Y230550D01*
D02*
G37*
G36*
X562430Y218730D02*
X552610D01*
Y218540D01*
X553366Y215719D01*
X554826Y213191D01*
X556891Y211126D01*
X559419Y209666D01*
X562240Y208910D01*
X562430D01*
Y218730D01*
D02*
G37*
G36*
X457500Y240098D02*
X457007Y240000D01*
X456505D01*
X456042Y239808D01*
X455549Y239710D01*
X455132Y239431D01*
X454668Y239239D01*
X454313Y238884D01*
X453895Y238605D01*
X453616Y238187D01*
X453261Y237832D01*
X453069Y237368D01*
X452790Y236951D01*
X452692Y236458D01*
X452500Y235995D01*
Y235492D01*
X452402Y235000D01*
Y210000D01*
X452500Y209508D01*
Y209005D01*
X452692Y208542D01*
X452790Y208049D01*
X453069Y207632D01*
X453261Y207168D01*
X453616Y206813D01*
X453895Y206395D01*
X454313Y206116D01*
X454668Y205761D01*
X455132Y205569D01*
X455549Y205290D01*
X456041Y205192D01*
X456505Y205000D01*
X457008D01*
X457500Y204902D01*
X457992Y205000D01*
X458495D01*
X458959Y205192D01*
X459451Y205290D01*
X459868Y205569D01*
X460332Y205761D01*
X460687Y206116D01*
X461105Y206395D01*
X461384Y206813D01*
X461739Y207168D01*
X461931Y207632D01*
X462210Y208049D01*
X462308Y208542D01*
X462500Y209005D01*
Y209508D01*
X462598Y210000D01*
Y235000D01*
X462500Y235492D01*
Y235995D01*
X462308Y236458D01*
X462210Y236951D01*
X461931Y237368D01*
X461739Y237832D01*
X461384Y238187D01*
X461105Y238605D01*
X460687Y238884D01*
X460332Y239239D01*
X459868Y239431D01*
X459451Y239710D01*
X458958Y239808D01*
X458495Y240000D01*
X457993D01*
X457500Y240098D01*
D02*
G37*
G36*
X51270Y198740D02*
Y186270D01*
X63523D01*
X63191Y188785D01*
X61827Y192078D01*
X59657Y194907D01*
X56828Y197077D01*
X53535Y198442D01*
X51270Y198740D01*
D02*
G37*
G36*
X48730D02*
X46465Y198442D01*
X43172Y197077D01*
X40343Y194907D01*
X38173Y192078D01*
X36809Y188785D01*
X36477Y186270D01*
X48730D01*
Y198740D01*
D02*
G37*
G36*
X26519Y186540D02*
X26270D01*
Y176270D01*
X36540D01*
Y176519D01*
X35754Y179454D01*
X34234Y182086D01*
X32086Y184234D01*
X29454Y185754D01*
X26519Y186540D01*
D02*
G37*
G36*
X23730D02*
X23481D01*
X20546Y185754D01*
X17914Y184234D01*
X15766Y182086D01*
X14246Y179454D01*
X13460Y176519D01*
Y176270D01*
X23730D01*
Y186540D01*
D02*
G37*
G36*
X48730Y183730D02*
X36477D01*
X36809Y181215D01*
X38173Y177922D01*
X40343Y175093D01*
X43172Y172923D01*
X46465Y171558D01*
X48730Y171260D01*
Y183730D01*
D02*
G37*
G36*
X63523D02*
X51270D01*
Y171260D01*
X53535Y171558D01*
X56828Y172923D01*
X59657Y175093D01*
X61827Y177922D01*
X63191Y181215D01*
X63523Y183730D01*
D02*
G37*
G36*
X36540Y173730D02*
X26270D01*
Y163460D01*
X26519D01*
X29454Y164247D01*
X32086Y165766D01*
X34234Y167914D01*
X35754Y170546D01*
X36540Y173481D01*
Y173730D01*
D02*
G37*
G36*
X23730D02*
X13460D01*
Y173481D01*
X14246Y170546D01*
X15766Y167914D01*
X17914Y165766D01*
X20546Y164247D01*
X23481Y163460D01*
X23730D01*
Y173730D01*
D02*
G37*
G36*
X862220Y62540D02*
X861270D01*
Y41270D01*
X882540D01*
Y42220D01*
X881674Y46575D01*
X879975Y50677D01*
X877508Y54368D01*
X874368Y57508D01*
X870677Y59975D01*
X866575Y61674D01*
X862220Y62540D01*
D02*
G37*
G36*
X858730D02*
X857780D01*
X853425Y61674D01*
X849323Y59975D01*
X845632Y57508D01*
X842492Y54368D01*
X840025Y50677D01*
X838326Y46575D01*
X837460Y42220D01*
Y41270D01*
X858730D01*
Y62540D01*
D02*
G37*
G36*
X882540Y38730D02*
X861270D01*
Y17460D01*
X862220D01*
X866575Y18326D01*
X870677Y20025D01*
X874368Y22492D01*
X877508Y25632D01*
X879975Y29323D01*
X881674Y33425D01*
X882540Y37780D01*
Y38730D01*
D02*
G37*
G36*
X858730D02*
X837460D01*
Y37780D01*
X838326Y33425D01*
X840025Y29323D01*
X842492Y25632D01*
X845632Y22492D01*
X849323Y20025D01*
X853425Y18326D01*
X857780Y17460D01*
X858730D01*
Y38730D01*
D02*
G37*
G36*
X51783Y128540D02*
X51270D01*
Y116270D01*
X63540D01*
Y116783D01*
X62617Y120226D01*
X60835Y123314D01*
X58314Y125835D01*
X55226Y127617D01*
X51783Y128540D01*
D02*
G37*
G36*
X48730D02*
X48217D01*
X44774Y127617D01*
X41686Y125835D01*
X39165Y123314D01*
X37383Y120226D01*
X36460Y116783D01*
Y116270D01*
X48730D01*
Y128540D01*
D02*
G37*
G36*
X97220Y125040D02*
X96270D01*
Y103770D01*
X117540D01*
Y104720D01*
X116674Y109075D01*
X114975Y113177D01*
X112508Y116868D01*
X109368Y120008D01*
X105677Y122475D01*
X101575Y124174D01*
X97220Y125040D01*
D02*
G37*
G36*
X93730D02*
X92780D01*
X88425Y124174D01*
X84323Y122475D01*
X80632Y120008D01*
X77492Y116868D01*
X75025Y113177D01*
X73326Y109075D01*
X72460Y104720D01*
Y103770D01*
X93730D01*
Y125040D01*
D02*
G37*
G36*
X63540Y113730D02*
X51270D01*
Y101460D01*
X51783D01*
X55226Y102383D01*
X58314Y104165D01*
X60835Y106686D01*
X62617Y109774D01*
X63540Y113217D01*
Y113730D01*
D02*
G37*
G36*
X48730D02*
X36460D01*
Y113217D01*
X37383Y109774D01*
X39165Y106686D01*
X41686Y104165D01*
X44774Y102383D01*
X48217Y101460D01*
X48730D01*
Y113730D01*
D02*
G37*
G36*
X117540Y101230D02*
X96270D01*
Y79960D01*
X97220D01*
X101575Y80826D01*
X105677Y82525D01*
X109368Y84992D01*
X112508Y88132D01*
X114975Y91823D01*
X116674Y95925D01*
X117540Y100280D01*
Y101230D01*
D02*
G37*
G36*
X93730D02*
X72460D01*
Y100280D01*
X73326Y95925D01*
X75025Y91823D01*
X77492Y88132D01*
X80632Y84992D01*
X84323Y82525D01*
X88425Y80826D01*
X92780Y79960D01*
X93730D01*
Y101230D01*
D02*
G37*
G36*
X42220Y62540D02*
X41270D01*
Y41270D01*
X62540D01*
Y42220D01*
X61674Y46575D01*
X59975Y50677D01*
X57508Y54368D01*
X54368Y57508D01*
X50677Y59975D01*
X46575Y61674D01*
X42220Y62540D01*
D02*
G37*
G36*
X38730D02*
X37780D01*
X33425Y61674D01*
X29323Y59975D01*
X25632Y57508D01*
X22492Y54368D01*
X20025Y50677D01*
X18326Y46575D01*
X17460Y42220D01*
Y41270D01*
X38730D01*
Y62540D01*
D02*
G37*
G36*
X62540Y38730D02*
X41270D01*
Y17460D01*
X42220D01*
X46575Y18326D01*
X50677Y20025D01*
X54368Y22492D01*
X57508Y25632D01*
X59975Y29323D01*
X61674Y33425D01*
X62540Y37780D01*
Y38730D01*
D02*
G37*
G36*
X38730D02*
X17460D01*
Y37780D01*
X18326Y33425D01*
X20025Y29323D01*
X22492Y25632D01*
X25632Y22492D01*
X29323Y20025D01*
X33425Y18326D01*
X37780Y17460D01*
X38730D01*
Y38730D01*
D02*
G37*
%LPD*%
D13*
X705000Y326786D02*
Y327500D01*
X650000Y180000D02*
X707500Y237500D01*
Y324286D01*
X705000Y326786D02*
X707500Y324286D01*
X162500Y420000D02*
Y437500D01*
Y420000D02*
X190000Y392500D01*
X340000D01*
X345810Y386690D01*
X185000Y387500D02*
X337500D01*
X95000Y417500D02*
X155000D01*
X185000Y387500D01*
X337500D02*
X347000Y378000D01*
X177500Y382500D02*
X332500D01*
X162500Y397500D02*
X177500Y382500D01*
X332500D02*
X341500Y373500D01*
X280000Y442500D02*
X300000D01*
X270000Y452500D02*
X280000Y442500D01*
X270000Y452500D02*
Y507500D01*
X300000Y442500D02*
X350509Y391991D01*
X335000Y437500D02*
X477500D01*
X277500Y497500D02*
X278170Y496830D01*
Y494330D02*
Y496830D01*
Y494330D02*
X335000Y437500D01*
X277500Y477500D02*
X282500D01*
X337500Y422500D01*
X477500D01*
X477500Y410000D02*
X477500Y410000D01*
X342500Y410000D02*
X477500D01*
X278867Y457500D02*
X295000D01*
X342500Y410000D01*
X336000Y369000D02*
X601500D01*
X327500Y377500D02*
X336000Y369000D01*
X162500Y377500D02*
X327500D01*
X341500Y373500D02*
X588500D01*
X347000Y378000D02*
X585500D01*
X345810Y386690D02*
X365456D01*
X580137Y400000D02*
X590137Y410000D01*
X361739Y398261D02*
X362686D01*
X364426Y400000D01*
X580137D01*
X584690Y384690D02*
X595000Y395000D01*
X601500Y369000D02*
X612500Y380000D01*
X373903Y384250D02*
X374343Y384690D01*
X583478Y390500D02*
X592978Y400000D01*
X369266Y390500D02*
X583478D01*
X581558Y395000D02*
X591558Y405000D01*
X374343Y384690D02*
X584690D01*
X588500Y373500D02*
X600000Y385000D01*
X585500Y378000D02*
X597500Y390000D01*
X367346Y395000D02*
X581558D01*
X365456Y386690D02*
X369266Y390500D01*
X364336Y391991D02*
X367346Y395000D01*
X40000Y342500D02*
X135000D01*
X290000Y187500D01*
X645000D01*
X80000Y407500D02*
Y467500D01*
X290000Y197500D02*
X645000D01*
X80000Y407500D02*
X290000Y197500D01*
X580113Y410000D02*
X585001Y414888D01*
X477500Y410000D02*
X580113D01*
X477500Y422500D02*
X477694Y422694D01*
X584740D01*
X584934Y422888D01*
X477500Y477500D02*
X507500Y447500D01*
X680000D02*
X705000Y472500D01*
X507500Y447500D02*
X680000D01*
X477500Y457500D02*
X495000Y440000D01*
X682600D02*
X705069Y462469D01*
X495000Y440000D02*
X682600D01*
X662966Y410000D02*
X705381Y452415D01*
X590137Y410000D02*
X662966D01*
X591558Y405000D02*
X668000D01*
X705500Y442500D01*
X673000Y400000D02*
X705500Y432500D01*
X592978Y400000D02*
X673000D01*
X597500Y390000D02*
X685000D01*
X703977Y409530D02*
X705500Y411053D01*
X703977Y408977D02*
Y409530D01*
X685000Y390000D02*
X703977Y408977D01*
X705500Y411053D02*
Y412000D01*
X595000Y395000D02*
X678000D01*
X705500Y422500D01*
X690117Y385000D02*
X704601Y399484D01*
X600000Y385000D02*
X690117D01*
X612500Y380000D02*
X695500D01*
X597500Y293218D02*
Y357500D01*
X612500Y372500D02*
X697500D01*
X597500Y357500D02*
X612500Y372500D01*
X695500Y380000D02*
X705500Y390000D01*
X704601Y399484D02*
X705548D01*
X697500Y372500D02*
X727500Y402500D01*
X690000Y335000D02*
X701830Y346830D01*
X690000Y242500D02*
Y335000D01*
X645000Y197500D02*
X690000Y242500D01*
X697500Y240000D02*
Y330000D01*
X705000Y337500D01*
X645000Y187500D02*
X697500Y240000D01*
X704330Y346830D02*
X705000Y347500D01*
X701830Y346830D02*
X704330D01*
X727500Y402500D02*
Y462500D01*
X732500Y400000D02*
Y457500D01*
X700000Y367500D02*
X732500Y400000D01*
X615000Y367500D02*
X700000D01*
X727500Y462500D02*
X745000Y480000D01*
X732500Y457500D02*
X747500Y472500D01*
X745000Y480000D02*
X760000D01*
X547500Y315000D02*
X560000Y302500D01*
X490000Y315000D02*
X547500D01*
X80000Y180000D02*
X650000D01*
X25000Y475000D02*
X26746Y476746D01*
Y486286D01*
X28210Y487750D02*
X59750D01*
X80000Y467500D01*
X26746Y486286D02*
X28210Y487750D01*
X25000Y357500D02*
X40000Y342500D01*
X25000Y357500D02*
Y375000D01*
Y125000D02*
X80000Y180000D01*
X607500Y290000D02*
Y360000D01*
X615000Y367500D01*
X596932Y292650D02*
X597500Y293218D01*
X596270Y290000D02*
X596932Y290662D01*
Y292650D01*
X585000Y270000D02*
X602500Y252500D01*
X578730Y356270D02*
X585000Y350000D01*
Y270000D02*
Y350000D01*
X551403Y356270D02*
X578730D01*
X631352Y227280D02*
X632620D01*
X630000Y227500D02*
X631132D01*
X632620Y227280D02*
X639900Y220000D01*
X625000Y232500D02*
X630000Y227500D01*
X631132D02*
X631352Y227280D01*
X605000Y232500D02*
X625000D01*
X602500Y235000D02*
X605000Y232500D01*
X602500Y235000D02*
Y252500D01*
X545500Y350000D02*
Y350367D01*
X551403Y356270D01*
X580000Y257500D02*
X590000Y247500D01*
X580000Y257500D02*
Y340000D01*
X570000Y350000D02*
X580000Y340000D01*
X554000Y349064D02*
Y350000D01*
Y349064D02*
X555525Y347538D01*
Y346975D02*
Y347538D01*
Y346975D02*
X569948Y332552D01*
Y232731D02*
Y332552D01*
X575520Y211980D02*
Y227160D01*
X569948Y232731D02*
X575520Y227160D01*
X574488Y234612D02*
Y336645D01*
Y234612D02*
X589100Y220000D01*
X575520Y211980D02*
X582500Y205000D01*
X599500D02*
X614500Y220000D01*
X582500Y205000D02*
X599500D01*
X562000Y349133D02*
X574488Y336645D01*
X562000Y349133D02*
Y350000D01*
X350509Y391991D02*
X364336D01*
X461403Y299690D02*
X462121D01*
X464621Y302190D01*
X546403D01*
X478436Y437500D02*
X483436Y432500D01*
X477500Y437500D02*
X478436D01*
X483436Y432500D02*
X570000D01*
X270000Y507500D02*
X277500Y515000D01*
X822000Y407500D02*
X838598Y390902D01*
Y389965D02*
Y390902D01*
X840152Y398260D02*
X840304Y398108D01*
X840000Y407500D02*
X840152Y407348D01*
Y398260D02*
Y407348D01*
X810000Y407500D02*
X822000D01*
D15*
X424600Y591750D02*
D03*
X475400D02*
D03*
X624600D02*
D03*
X675400D02*
D03*
X224600D02*
D03*
X275400D02*
D03*
D68*
X722500Y237500D02*
X727500Y242500D01*
Y372500D01*
X725000Y375000D02*
X727500Y372500D01*
D70*
X715000Y290000D02*
Y325000D01*
X457500Y210000D02*
Y235000D01*
X410000Y272500D02*
X425000Y287500D01*
X224800Y295200D02*
Y349800D01*
X224600Y350000D02*
X224800Y349800D01*
Y295200D02*
X225000Y295000D01*
X425000Y287500D02*
Y360000D01*
X835000Y495000D02*
X850000Y480000D01*
Y422500D02*
Y480000D01*
D72*
X815000Y102500D02*
D03*
X95000D02*
D03*
X860000Y580000D02*
D03*
Y40000D02*
D03*
X40000D02*
D03*
Y580000D02*
D03*
D73*
X199200Y350000D02*
D03*
X639900Y220000D02*
D03*
D74*
X224600Y350000D02*
D03*
X250000D02*
D03*
X275400D02*
D03*
X300800D02*
D03*
X326200D02*
D03*
X351600D02*
D03*
X614500Y220000D02*
D03*
X589100D02*
D03*
X563700D02*
D03*
X538300D02*
D03*
X512900D02*
D03*
X487500D02*
D03*
D75*
X839400Y428850D02*
D03*
Y371150D02*
D03*
D76*
X77500Y325500D02*
D03*
D77*
Y249500D02*
D03*
D78*
X782100Y227500D02*
D03*
X590000Y247500D02*
D03*
D79*
X807500Y227500D02*
D03*
X615400Y247500D02*
D03*
D80*
X25000Y425000D02*
D03*
Y375000D02*
D03*
Y475000D02*
D03*
Y525000D02*
D03*
Y125000D02*
D03*
Y175000D02*
D03*
D81*
X50000Y435000D02*
D03*
Y535000D02*
D03*
Y185000D02*
D03*
D82*
Y365000D02*
D03*
Y465000D02*
D03*
Y115000D02*
D03*
D83*
X850000Y300200D02*
D03*
D84*
Y274800D02*
D03*
D85*
X437583Y563075D02*
D03*
X434093Y526831D02*
D03*
X445093Y526833D02*
D03*
X456090Y527107D02*
D03*
X463917Y557537D02*
D03*
X416780Y553167D02*
D03*
X405780D02*
D03*
X394780D02*
D03*
X372780D02*
D03*
X361780D02*
D03*
X350901Y551537D02*
D03*
X341085Y546573D02*
D03*
X333319Y538783D02*
D03*
X325452Y531094D02*
D03*
X321931Y520673D02*
D03*
X322040Y509674D02*
D03*
X362264Y507132D02*
D03*
X363069Y518102D02*
D03*
X369760Y526833D02*
D03*
X380760D02*
D03*
X391760D02*
D03*
X402760D02*
D03*
X413760D02*
D03*
X424760Y526831D02*
D03*
X428438Y552894D02*
D03*
X697853Y529198D02*
D03*
X714339Y559010D02*
D03*
X892367Y601814D02*
D03*
Y551814D02*
D03*
Y501814D02*
D03*
Y451814D02*
D03*
Y401814D02*
D03*
Y351814D02*
D03*
Y301814D02*
D03*
Y251814D02*
D03*
Y201814D02*
D03*
Y151814D02*
D03*
Y101814D02*
D03*
Y51814D02*
D03*
X867367Y551814D02*
D03*
X879867Y526814D02*
D03*
Y426814D02*
D03*
X867367Y401814D02*
D03*
X879867Y376814D02*
D03*
Y326814D02*
D03*
X867367Y301814D02*
D03*
X879867Y276814D02*
D03*
X867367Y251814D02*
D03*
X879867Y226814D02*
D03*
X867367Y201814D02*
D03*
X879867Y176814D02*
D03*
X867367Y151814D02*
D03*
X879867Y126814D02*
D03*
X867367Y101814D02*
D03*
X879867Y76814D02*
D03*
X842367Y601814D02*
D03*
Y551814D02*
D03*
X854867Y526814D02*
D03*
Y326814D02*
D03*
X842367Y251814D02*
D03*
X854867Y226814D02*
D03*
X842367Y201814D02*
D03*
X854867Y176814D02*
D03*
X842367Y151814D02*
D03*
X854867Y126814D02*
D03*
Y76814D02*
D03*
X817367Y601814D02*
D03*
X829867Y576814D02*
D03*
X817367Y351814D02*
D03*
X829867Y226814D02*
D03*
Y176814D02*
D03*
X792367Y601814D02*
D03*
X804867Y576814D02*
D03*
X792367Y201814D02*
D03*
X767367Y601814D02*
D03*
X779867Y576814D02*
D03*
X767367Y551814D02*
D03*
X779867Y476814D02*
D03*
X767367Y451814D02*
D03*
X779867Y426814D02*
D03*
X767367Y401814D02*
D03*
Y301814D02*
D03*
Y251814D02*
D03*
Y201814D02*
D03*
X779867Y176814D02*
D03*
X742367Y601814D02*
D03*
X754867Y576814D02*
D03*
X742367Y551814D02*
D03*
X754867Y526814D02*
D03*
X742367Y451814D02*
D03*
X754867Y426814D02*
D03*
Y326814D02*
D03*
X742367Y301814D02*
D03*
X754867Y276814D02*
D03*
X742367Y251814D02*
D03*
X754867Y226814D02*
D03*
X742367Y201814D02*
D03*
X754867Y176814D02*
D03*
X717367Y601814D02*
D03*
X729867Y576814D02*
D03*
Y476814D02*
D03*
X717367Y451814D02*
D03*
Y401814D02*
D03*
X729867Y226814D02*
D03*
X717367Y201814D02*
D03*
X729867Y176814D02*
D03*
X692367Y601814D02*
D03*
X704867Y576814D02*
D03*
Y176814D02*
D03*
X667367Y501814D02*
D03*
Y351814D02*
D03*
Y301814D02*
D03*
X679867Y176814D02*
D03*
X654867Y526814D02*
D03*
X642367Y501814D02*
D03*
X654867Y476814D02*
D03*
X642367Y351814D02*
D03*
X654867Y326814D02*
D03*
X642367Y301814D02*
D03*
X629867Y526814D02*
D03*
X617367Y501814D02*
D03*
X629867Y476814D02*
D03*
X617367Y351814D02*
D03*
X629867Y326814D02*
D03*
X617367Y301814D02*
D03*
X592367Y601814D02*
D03*
X604867Y576814D02*
D03*
X592367Y551814D02*
D03*
X604867Y526814D02*
D03*
X592367Y501814D02*
D03*
X604867Y476814D02*
D03*
X567367Y601814D02*
D03*
X579867Y576814D02*
D03*
X567367Y551814D02*
D03*
X579867Y526814D02*
D03*
X567367Y501814D02*
D03*
X579867Y476814D02*
D03*
X542367Y601814D02*
D03*
X554867Y576814D02*
D03*
X542367Y551814D02*
D03*
X554867Y526814D02*
D03*
Y476814D02*
D03*
X517367Y601814D02*
D03*
X529867Y576814D02*
D03*
X517367Y551814D02*
D03*
Y251814D02*
D03*
X492367Y601814D02*
D03*
X504867Y576814D02*
D03*
X492367Y551814D02*
D03*
X504867Y276814D02*
D03*
X479867Y526814D02*
D03*
X467367Y501814D02*
D03*
Y451814D02*
D03*
X442367Y501814D02*
D03*
X454867Y476814D02*
D03*
X442367Y451814D02*
D03*
X417367Y501814D02*
D03*
X429867Y476814D02*
D03*
X417367Y451814D02*
D03*
X392367Y601814D02*
D03*
X404867Y576814D02*
D03*
X392367Y501814D02*
D03*
X404867Y476814D02*
D03*
X392367Y451814D02*
D03*
Y301814D02*
D03*
Y251814D02*
D03*
X367367Y601814D02*
D03*
X379867Y576814D02*
D03*
Y476814D02*
D03*
X367367Y451814D02*
D03*
Y301814D02*
D03*
X379867Y276814D02*
D03*
X367367Y251814D02*
D03*
X342367Y601814D02*
D03*
X354867Y576814D02*
D03*
X342367Y301814D02*
D03*
X354867Y276814D02*
D03*
X342367Y251814D02*
D03*
X317367Y601814D02*
D03*
X329867Y576814D02*
D03*
X317367Y551814D02*
D03*
Y301814D02*
D03*
X329867Y276814D02*
D03*
X317367Y251814D02*
D03*
X292367Y601814D02*
D03*
X304867Y576814D02*
D03*
X292367Y551814D02*
D03*
Y301814D02*
D03*
X304867Y276814D02*
D03*
X292367Y251814D02*
D03*
X267367Y401814D02*
D03*
Y301814D02*
D03*
X279867Y276814D02*
D03*
X267367Y251814D02*
D03*
X242367Y501814D02*
D03*
X254867Y476814D02*
D03*
X242367Y451814D02*
D03*
X254867Y426814D02*
D03*
X242367Y401814D02*
D03*
Y301814D02*
D03*
X254867Y276814D02*
D03*
X242367Y201814D02*
D03*
X217367Y501814D02*
D03*
X229867Y476814D02*
D03*
X217367Y451814D02*
D03*
X229867Y426814D02*
D03*
X217367Y401814D02*
D03*
X229867Y226814D02*
D03*
X217367Y201814D02*
D03*
X192367Y601814D02*
D03*
X204867Y576814D02*
D03*
X192367Y501814D02*
D03*
X204867Y476814D02*
D03*
X192367Y451814D02*
D03*
X204867Y426814D02*
D03*
X192367Y401814D02*
D03*
X204867Y326814D02*
D03*
Y226814D02*
D03*
X192367Y201814D02*
D03*
X167367Y601814D02*
D03*
X179867Y576814D02*
D03*
X167367Y501814D02*
D03*
X179867Y476814D02*
D03*
X167367Y451814D02*
D03*
X179867Y426814D02*
D03*
X167367Y351814D02*
D03*
X179867Y326814D02*
D03*
Y276814D02*
D03*
Y226814D02*
D03*
X167367Y201814D02*
D03*
X142367Y601814D02*
D03*
X154867Y576814D02*
D03*
X142367Y551814D02*
D03*
Y301814D02*
D03*
X154867Y276814D02*
D03*
Y226814D02*
D03*
X142367Y201814D02*
D03*
X117367Y601814D02*
D03*
X129867Y576814D02*
D03*
X117367Y551814D02*
D03*
Y451814D02*
D03*
Y401814D02*
D03*
X129867Y326814D02*
D03*
X117367Y301814D02*
D03*
X129867Y276814D02*
D03*
Y226814D02*
D03*
X117367Y201814D02*
D03*
Y151814D02*
D03*
Y51814D02*
D03*
X92367Y601814D02*
D03*
X104867Y576814D02*
D03*
X92367Y551814D02*
D03*
X104867Y526814D02*
D03*
X92367Y501814D02*
D03*
X104867Y476814D02*
D03*
X92367Y451814D02*
D03*
Y351814D02*
D03*
X104867Y326814D02*
D03*
X92367Y301814D02*
D03*
X104867Y276814D02*
D03*
Y226814D02*
D03*
X92367Y201814D02*
D03*
Y151814D02*
D03*
X104867Y126814D02*
D03*
Y76814D02*
D03*
X92367Y51814D02*
D03*
X67367Y601814D02*
D03*
X79867Y576814D02*
D03*
X67367Y551814D02*
D03*
X79867Y526814D02*
D03*
X67367Y501814D02*
D03*
X79867Y476814D02*
D03*
X67367Y451814D02*
D03*
Y401814D02*
D03*
Y351814D02*
D03*
Y301814D02*
D03*
X79867Y276814D02*
D03*
Y226814D02*
D03*
X67367Y201814D02*
D03*
Y151814D02*
D03*
X79867Y126814D02*
D03*
X67367Y101814D02*
D03*
X79867Y76814D02*
D03*
X67367Y51814D02*
D03*
X42367Y551814D02*
D03*
Y501814D02*
D03*
Y401814D02*
D03*
X54867Y326814D02*
D03*
X42367Y301814D02*
D03*
X54867Y276814D02*
D03*
X42367Y251814D02*
D03*
X54867Y226814D02*
D03*
X42367Y201814D02*
D03*
Y151814D02*
D03*
X54867Y76814D02*
D03*
X236833Y564178D02*
D03*
X229865Y555667D02*
D03*
X207865D02*
D03*
X196865D02*
D03*
X185865D02*
D03*
X174865D02*
D03*
X163865D02*
D03*
X152865D02*
D03*
X132380Y549157D02*
D03*
X126151Y540091D02*
D03*
X120157Y530868D02*
D03*
X116931Y520351D02*
D03*
X117082Y509352D02*
D03*
X157407Y507476D02*
D03*
X158069Y518456D02*
D03*
X159708Y529333D02*
D03*
X170708D02*
D03*
X181708D02*
D03*
X192708D02*
D03*
X203708D02*
D03*
X214708D02*
D03*
X225708D02*
D03*
X236708D02*
D03*
X247584Y530977D02*
D03*
X256683Y537158D02*
D03*
X262106Y546729D02*
D03*
X263167Y557677D02*
D03*
Y568677D02*
D03*
X635956Y563069D02*
D03*
X634512Y537028D02*
D03*
X645512Y536954D02*
D03*
X662297Y568910D02*
D03*
X658120Y537496D02*
D03*
X669103Y536904D02*
D03*
X680062Y537853D02*
D03*
X691062D02*
D03*
X680100Y519207D02*
D03*
X676431Y508837D02*
D03*
X679480Y498268D02*
D03*
X690326Y496431D02*
D03*
X701325Y496353D02*
D03*
X712325D02*
D03*
X723324Y496181D02*
D03*
X733848Y499381D02*
D03*
X735569Y510246D02*
D03*
X722147Y538369D02*
D03*
X720565Y549255D02*
D03*
X703612Y562027D02*
D03*
X692613Y562147D02*
D03*
X681613D02*
D03*
X670638Y562894D02*
D03*
X802500Y517500D02*
D03*
Y506750D02*
D03*
Y528250D02*
D03*
X791750Y517500D02*
D03*
X813000D02*
D03*
X373903Y384250D02*
D03*
X477500Y410000D02*
D03*
Y422500D02*
D03*
X705000Y337500D02*
D03*
Y327500D02*
D03*
Y347500D02*
D03*
X715000Y290000D02*
D03*
Y325000D02*
D03*
X725000Y375000D02*
D03*
X705500Y390000D02*
D03*
Y412000D02*
D03*
X705548Y399484D02*
D03*
X705500Y422500D02*
D03*
Y432500D02*
D03*
Y442500D02*
D03*
X705381Y452415D02*
D03*
X705069Y462469D02*
D03*
X705000Y472500D02*
D03*
X585001Y414888D02*
D03*
X457500Y235000D02*
D03*
X866575Y475334D02*
D03*
Y495334D02*
D03*
X747500Y472500D02*
D03*
X560000Y302500D02*
D03*
X225000Y295000D02*
D03*
X722500Y237500D02*
D03*
X457500Y210000D02*
D03*
X607500Y290000D02*
D03*
X596270D02*
D03*
X554000Y350000D02*
D03*
X562000D02*
D03*
X570000D02*
D03*
X584934Y422888D02*
D03*
X545500Y350000D02*
D03*
X361739Y398261D02*
D03*
X490000Y315000D02*
D03*
X410000Y272500D02*
D03*
X425000Y360000D02*
D03*
X546403Y302190D02*
D03*
X461403Y299690D02*
D03*
X760000Y480000D02*
D03*
X570000Y432500D02*
D03*
X277500Y515000D02*
D03*
Y497500D02*
D03*
Y477500D02*
D03*
X278867Y457500D02*
D03*
X95000Y417500D02*
D03*
X162500Y377500D02*
D03*
Y397500D02*
D03*
Y437500D02*
D03*
X477500Y457500D02*
D03*
Y477500D02*
D03*
Y437500D02*
D03*
X850000Y422500D02*
D03*
X835000Y495000D02*
D03*
X838598Y389965D02*
D03*
X840304Y398108D02*
D03*
X840000Y407500D02*
D03*
X810000Y397500D02*
D03*
Y407500D02*
D03*
M02*
