G04*
G04 #@! TF.GenerationSoftware,Altium Limited,Altium Designer,23.0.1 (38)*
G04*
G04 Layer_Color=8388736*
%FSLAX44Y44*%
%MOMM*%
G71*
G04*
G04 #@! TF.SameCoordinates,4C8F7ACE-B835-4E2F-ABB1-864D6479480B*
G04*
G04*
G04 #@! TF.FilePolarity,Negative*
G04*
G01*
G75*
%ADD34R,1.8032X5.1032*%
%ADD35R,1.7032X4.0132*%
%ADD36R,1.1532X0.8032*%
%ADD37R,0.8032X1.2032*%
%ADD38R,1.2032X1.0032*%
%ADD39R,0.8032X1.1532*%
G04:AMPARAMS|DCode=40|XSize=1.8632mm|YSize=1.6232mm|CornerRadius=0.3501mm|HoleSize=0mm|Usage=FLASHONLY|Rotation=270.000|XOffset=0mm|YOffset=0mm|HoleType=Round|Shape=RoundedRectangle|*
%AMROUNDEDRECTD40*
21,1,1.8632,0.9230,0,0,270.0*
21,1,1.1630,1.6232,0,0,270.0*
1,1,0.7002,-0.4615,-0.5815*
1,1,0.7002,-0.4615,0.5815*
1,1,0.7002,0.4615,0.5815*
1,1,0.7002,0.4615,-0.5815*
%
%ADD40ROUNDEDRECTD40*%
%ADD41R,1.0032X1.2032*%
%ADD42R,1.2032X0.8032*%
G04:AMPARAMS|DCode=43|XSize=1.8632mm|YSize=1.6232mm|CornerRadius=0.3501mm|HoleSize=0mm|Usage=FLASHONLY|Rotation=0.000|XOffset=0mm|YOffset=0mm|HoleType=Round|Shape=RoundedRectangle|*
%AMROUNDEDRECTD43*
21,1,1.8632,0.9230,0,0,0.0*
21,1,1.1630,1.6232,0,0,0.0*
1,1,0.7002,0.5815,-0.4615*
1,1,0.7002,-0.5815,-0.4615*
1,1,0.7002,-0.5815,0.4615*
1,1,0.7002,0.5815,0.4615*
%
%ADD43ROUNDEDRECTD43*%
%ADD44R,1.8032X1.0032*%
%ADD45R,1.0032X1.8032*%
%ADD46R,2.7032X1.6032*%
G04:AMPARAMS|DCode=47|XSize=0.44mm|YSize=1.59mm|CornerRadius=0.115mm|HoleSize=0mm|Usage=FLASHONLY|Rotation=90.000|XOffset=0mm|YOffset=0mm|HoleType=Round|Shape=RoundedRectangle|*
%AMROUNDEDRECTD47*
21,1,0.4400,1.3600,0,0,90.0*
21,1,0.2100,1.5900,0,0,90.0*
1,1,0.2300,0.6800,0.1050*
1,1,0.2300,0.6800,-0.1050*
1,1,0.2300,-0.6800,-0.1050*
1,1,0.2300,-0.6800,0.1050*
%
%ADD47ROUNDEDRECTD47*%
G04:AMPARAMS|DCode=48|XSize=1.94mm|YSize=1.34mm|CornerRadius=0.19mm|HoleSize=0mm|Usage=FLASHONLY|Rotation=90.000|XOffset=0mm|YOffset=0mm|HoleType=Round|Shape=RoundedRectangle|*
%AMROUNDEDRECTD48*
21,1,1.9400,0.9600,0,0,90.0*
21,1,1.5600,1.3400,0,0,90.0*
1,1,0.3800,0.4800,0.7800*
1,1,0.3800,0.4800,-0.7800*
1,1,0.3800,-0.4800,-0.7800*
1,1,0.3800,-0.4800,0.7800*
%
%ADD48ROUNDEDRECTD48*%
G04:AMPARAMS|DCode=49|XSize=1.94mm|YSize=1.64mm|CornerRadius=0.22mm|HoleSize=0mm|Usage=FLASHONLY|Rotation=270.000|XOffset=0mm|YOffset=0mm|HoleType=Round|Shape=RoundedRectangle|*
%AMROUNDEDRECTD49*
21,1,1.9400,1.2000,0,0,270.0*
21,1,1.5000,1.6400,0,0,270.0*
1,1,0.4400,-0.6000,-0.7500*
1,1,0.4400,-0.6000,0.7500*
1,1,0.4400,0.6000,0.7500*
1,1,0.4400,0.6000,-0.7500*
%
%ADD49ROUNDEDRECTD49*%
G04:AMPARAMS|DCode=50|XSize=3.4032mm|YSize=3.4032mm|CornerRadius=0.1816mm|HoleSize=0mm|Usage=FLASHONLY|Rotation=180.000|XOffset=0mm|YOffset=0mm|HoleType=Round|Shape=RoundedRectangle|*
%AMROUNDEDRECTD50*
21,1,3.4032,3.0400,0,0,180.0*
21,1,3.0400,3.4032,0,0,180.0*
1,1,0.3632,-1.5200,1.5200*
1,1,0.3632,1.5200,1.5200*
1,1,0.3632,1.5200,-1.5200*
1,1,0.3632,-1.5200,-1.5200*
%
%ADD50ROUNDEDRECTD50*%
G04:AMPARAMS|DCode=51|XSize=0.4532mm|YSize=1.4032mm|CornerRadius=0.1266mm|HoleSize=0mm|Usage=FLASHONLY|Rotation=90.000|XOffset=0mm|YOffset=0mm|HoleType=Round|Shape=RoundedRectangle|*
%AMROUNDEDRECTD51*
21,1,0.4532,1.1500,0,0,90.0*
21,1,0.2000,1.4032,0,0,90.0*
1,1,0.2532,0.5750,0.1000*
1,1,0.2532,0.5750,-0.1000*
1,1,0.2532,-0.5750,-0.1000*
1,1,0.2532,-0.5750,0.1000*
%
%ADD51ROUNDEDRECTD51*%
G04:AMPARAMS|DCode=52|XSize=0.4532mm|YSize=1.4032mm|CornerRadius=0.1266mm|HoleSize=0mm|Usage=FLASHONLY|Rotation=180.000|XOffset=0mm|YOffset=0mm|HoleType=Round|Shape=RoundedRectangle|*
%AMROUNDEDRECTD52*
21,1,0.4532,1.1500,0,0,180.0*
21,1,0.2000,1.4032,0,0,180.0*
1,1,0.2532,-0.1000,0.5750*
1,1,0.2532,0.1000,0.5750*
1,1,0.2532,0.1000,-0.5750*
1,1,0.2532,-0.1000,-0.5750*
%
%ADD52ROUNDEDRECTD52*%
%ADD53R,0.9432X1.2232*%
%ADD54C,4.2032*%
%ADD55R,1.9132X1.9132*%
%ADD56C,1.9132*%
%ADD57C,0.7900*%
%ADD58C,2.2032*%
G04:AMPARAMS|DCode=59|XSize=2.2032mm|YSize=2.2032mm|CornerRadius=0.6016mm|HoleSize=0mm|Usage=FLASHONLY|Rotation=90.000|XOffset=0mm|YOffset=0mm|HoleType=Round|Shape=RoundedRectangle|*
%AMROUNDEDRECTD59*
21,1,2.2032,1.0000,0,0,90.0*
21,1,1.0000,2.2032,0,0,90.0*
1,1,1.2032,0.5000,0.5000*
1,1,1.2032,0.5000,-0.5000*
1,1,1.2032,-0.5000,-0.5000*
1,1,1.2032,-0.5000,0.5000*
%
%ADD59ROUNDEDRECTD59*%
%ADD60C,1.7932*%
%ADD61R,1.7932X1.7932*%
%ADD62C,2.0032*%
%ADD63O,2.4032X2.4532*%
%ADD64C,2.4032*%
%ADD65R,1.8032X1.8032*%
%ADD66C,1.8032*%
%ADD67C,0.8032*%
D34*
X424600Y591750D02*
D03*
X475400D02*
D03*
X624600D02*
D03*
X675400D02*
D03*
X224600D02*
D03*
X275400D02*
D03*
D35*
X450000Y594800D02*
D03*
X650000D02*
D03*
X250000D02*
D03*
D36*
X802500Y312500D02*
D03*
Y327500D02*
D03*
X767500Y290000D02*
D03*
Y275000D02*
D03*
X475000Y300000D02*
D03*
Y285000D02*
D03*
X797500Y457500D02*
D03*
Y472500D02*
D03*
X760000Y510000D02*
D03*
Y495000D02*
D03*
X747500Y510000D02*
D03*
Y495000D02*
D03*
X75000Y377500D02*
D03*
Y362500D02*
D03*
X810000Y457500D02*
D03*
Y472500D02*
D03*
D37*
X782500Y362000D02*
D03*
X792000Y338000D02*
D03*
X773000D02*
D03*
X803000Y299500D02*
D03*
X822000D02*
D03*
Y275500D02*
D03*
X812500D02*
D03*
X803000D02*
D03*
X758000Y399500D02*
D03*
X777000D02*
D03*
Y375500D02*
D03*
X767500D02*
D03*
X758000D02*
D03*
D38*
X792500Y375750D02*
D03*
Y389250D02*
D03*
X757500Y348250D02*
D03*
Y361750D02*
D03*
X422500Y273250D02*
D03*
Y286750D02*
D03*
X722500Y521750D02*
D03*
Y508250D02*
D03*
X385000Y540750D02*
D03*
Y554250D02*
D03*
X320000Y408250D02*
D03*
Y421750D02*
D03*
Y461750D02*
D03*
Y448250D02*
D03*
D39*
X837500Y315000D02*
D03*
X822500D02*
D03*
X742500D02*
D03*
X727500D02*
D03*
X742500Y265000D02*
D03*
X727500D02*
D03*
X635000Y250000D02*
D03*
X650000D02*
D03*
X552500Y240000D02*
D03*
X537500D02*
D03*
X842500Y507500D02*
D03*
X857500D02*
D03*
X102500Y417500D02*
D03*
X117500D02*
D03*
X102500Y432500D02*
D03*
X117500D02*
D03*
X527500Y240000D02*
D03*
X512500D02*
D03*
D40*
X737500Y349250D02*
D03*
Y375750D02*
D03*
Y423250D02*
D03*
Y396750D02*
D03*
D41*
X771750Y415000D02*
D03*
X758250D02*
D03*
X674250Y250000D02*
D03*
X660750D02*
D03*
X674250Y235000D02*
D03*
X660750D02*
D03*
X435750Y305000D02*
D03*
X449250D02*
D03*
X473250Y272500D02*
D03*
X486750D02*
D03*
X856750Y480000D02*
D03*
X843250D02*
D03*
Y495000D02*
D03*
X856750D02*
D03*
X625750Y550000D02*
D03*
X639250D02*
D03*
X450750Y540000D02*
D03*
X464250D02*
D03*
D42*
X752000Y290000D02*
D03*
X728000Y280500D02*
D03*
Y299500D02*
D03*
X435500Y273000D02*
D03*
Y292000D02*
D03*
X459500D02*
D03*
Y282500D02*
D03*
Y273000D02*
D03*
X90500Y377500D02*
D03*
X114500Y387000D02*
D03*
Y368000D02*
D03*
D43*
X485750Y255000D02*
D03*
X459250D02*
D03*
X411750D02*
D03*
X438250D02*
D03*
D44*
X532500Y519500D02*
D03*
Y508500D02*
D03*
Y479500D02*
D03*
Y468500D02*
D03*
Y457500D02*
D03*
Y446500D02*
D03*
Y435500D02*
D03*
Y424500D02*
D03*
Y413500D02*
D03*
Y325500D02*
D03*
Y402500D02*
D03*
Y391500D02*
D03*
Y380500D02*
D03*
Y369500D02*
D03*
Y358500D02*
D03*
Y347500D02*
D03*
Y336500D02*
D03*
Y303500D02*
D03*
Y314500D02*
D03*
Y292500D02*
D03*
X692500D02*
D03*
Y369500D02*
D03*
Y358500D02*
D03*
Y347500D02*
D03*
Y336500D02*
D03*
Y303500D02*
D03*
Y314500D02*
D03*
Y325500D02*
D03*
Y519500D02*
D03*
Y457500D02*
D03*
Y479500D02*
D03*
Y508500D02*
D03*
Y435500D02*
D03*
Y468500D02*
D03*
Y413500D02*
D03*
Y424500D02*
D03*
Y446500D02*
D03*
Y402500D02*
D03*
Y380500D02*
D03*
Y391500D02*
D03*
D45*
X672500Y272500D02*
D03*
X661500D02*
D03*
X639500D02*
D03*
X628500D02*
D03*
X617500D02*
D03*
X607500D02*
D03*
X596500D02*
D03*
X585500D02*
D03*
X574500D02*
D03*
X563500D02*
D03*
X552500D02*
D03*
X650500D02*
D03*
D46*
X502500Y397500D02*
D03*
X342500Y377500D02*
D03*
Y397500D02*
D03*
Y417500D02*
D03*
Y437500D02*
D03*
Y457500D02*
D03*
Y477500D02*
D03*
Y497500D02*
D03*
Y517500D02*
D03*
X502500D02*
D03*
Y497500D02*
D03*
Y477500D02*
D03*
Y457500D02*
D03*
Y437500D02*
D03*
Y417500D02*
D03*
Y377500D02*
D03*
X297500Y397500D02*
D03*
X137500Y377500D02*
D03*
Y397500D02*
D03*
Y417500D02*
D03*
Y437500D02*
D03*
Y457500D02*
D03*
Y477500D02*
D03*
Y497500D02*
D03*
Y517500D02*
D03*
X297500D02*
D03*
Y497500D02*
D03*
Y477500D02*
D03*
Y457500D02*
D03*
Y437500D02*
D03*
Y417500D02*
D03*
Y377500D02*
D03*
D47*
X825000Y366000D02*
D03*
Y377000D02*
D03*
Y382500D02*
D03*
Y392500D02*
D03*
Y407500D02*
D03*
Y417500D02*
D03*
Y423000D02*
D03*
Y431000D02*
D03*
Y434000D02*
D03*
Y426000D02*
D03*
Y412500D02*
D03*
Y402500D02*
D03*
Y397500D02*
D03*
Y387500D02*
D03*
Y374000D02*
D03*
Y369000D02*
D03*
D48*
X875800Y450800D02*
D03*
Y349200D02*
D03*
D49*
X834000D02*
D03*
Y450800D02*
D03*
D50*
X802500Y517500D02*
D03*
D51*
X827500Y502500D02*
D03*
Y507500D02*
D03*
Y512500D02*
D03*
X777500Y502500D02*
D03*
Y507500D02*
D03*
Y512500D02*
D03*
X827500Y522500D02*
D03*
Y527500D02*
D03*
Y532500D02*
D03*
X777500Y522500D02*
D03*
Y527500D02*
D03*
Y532500D02*
D03*
X827500Y517500D02*
D03*
X777500D02*
D03*
D52*
X817500Y492500D02*
D03*
X812500D02*
D03*
X807500D02*
D03*
X797500D02*
D03*
X792500D02*
D03*
X787500D02*
D03*
X817500Y542500D02*
D03*
X812500D02*
D03*
X807500D02*
D03*
X797500D02*
D03*
X792500D02*
D03*
X787500D02*
D03*
X802500Y492500D02*
D03*
Y542500D02*
D03*
D53*
X664850Y550000D02*
D03*
X650150D02*
D03*
X422650Y540000D02*
D03*
X437350D02*
D03*
D54*
X815000Y102500D02*
D03*
X95000D02*
D03*
X860000Y580000D02*
D03*
Y40000D02*
D03*
X40000D02*
D03*
Y580000D02*
D03*
D55*
X199200Y350000D02*
D03*
X639900Y220000D02*
D03*
D56*
X224600Y350000D02*
D03*
X250000D02*
D03*
X275400D02*
D03*
X300800D02*
D03*
X326200D02*
D03*
X351600D02*
D03*
X614500Y220000D02*
D03*
X589100D02*
D03*
X563700D02*
D03*
X538300D02*
D03*
X512900D02*
D03*
X487500D02*
D03*
D57*
X839400Y428850D02*
D03*
Y371150D02*
D03*
D58*
X77500Y325500D02*
D03*
D59*
Y249500D02*
D03*
D60*
X782100Y227500D02*
D03*
X590000Y247500D02*
D03*
D61*
X807500Y227500D02*
D03*
X615400Y247500D02*
D03*
D62*
X25000Y425000D02*
D03*
Y375000D02*
D03*
Y475000D02*
D03*
Y525000D02*
D03*
Y125000D02*
D03*
Y175000D02*
D03*
D63*
X50000Y435000D02*
D03*
Y535000D02*
D03*
Y185000D02*
D03*
D64*
Y365000D02*
D03*
Y465000D02*
D03*
Y115000D02*
D03*
D65*
X850000Y300200D02*
D03*
D66*
Y274800D02*
D03*
D67*
X802500Y517500D02*
D03*
Y506750D02*
D03*
Y528250D02*
D03*
X791750Y517500D02*
D03*
X813000D02*
D03*
M02*
