M48
;Layer_Color=9474304
;FILE_FORMAT=4:2
METRIC,LZ
;TYPE=PLATED
T1F00S00C0.30
T2F00S00C1.06
T3F00S00C1.14
T4F00S00C2.60
%
T01
X004025Y00065
X004525
X004775Y00115
X004275
X003775
X004025Y00165
X004525
X004775Y00215
X004275
X003775
X003775Y0027
X00385
X003825Y002775
Y00285
Y002925
X00375Y0029
X003925Y0031
X004
X004775Y00315
X004525Y00365
X004775Y00415
X004525Y00265
X0037Y0027
X0036Y00305
X002775Y00315
X002275
X001775
X001275
X001525Y00365
X002025
X002525
X003025
X002775Y00415
X002275
X001775
X001275
X000775
X001025Y00365
X000525
Y00265
X000775Y00215
X001275
X001525Y00265
X002025
X002525
X002775Y0023
X002625Y0019
X002775Y0015
X003025Y00165
X003275Y00115
X003025Y00065
X002025
X001775Y00115
X002025Y00165
X001525
X001025
X000525
X000775Y00115
X001025Y00065
X000525
X002275Y00215
X002525Y00465
X003025
X003525
X003275Y00515
X002775
X002275
X001775
X002025Y00465
X001525
X000525
X004025
X004525
X004775Y00515
X004275
X003775
T02
X00035Y0031
X000604
T03
X001Y0002
X001254
X001508
X001762
X002016
X00227
X002524
X002778
X003032
X003286
X00354
X003794
T04
X0003Y0003
X0047
X0003Y0054
X0047
M30
