G04*
G04 #@! TF.GenerationSoftware,Altium Limited,Altium Designer,23.0.1 (38)*
G04*
G04 Layer_Color=8421504*
%FSLAX42Y42*%
%MOMM*%
G71*
G04*
G04 #@! TF.SameCoordinates,1CED9901-E32D-4687-B992-F5E23856CA55*
G04*
G04*
G04 #@! TF.FilePolarity,Positive*
G04*
G01*
G75*
%ADD15R,2.50X1.80*%
%ADD16R,1.60X4.90*%
%ADD17R,1.50X3.81*%
%ADD18R,0.80X1.00*%
%ADD19R,1.02X0.74*%
%ADD20R,1.25X1.75*%
G04:AMPARAMS|DCode=21|XSize=2.27mm|YSize=1.65mm|CornerRadius=0.25mm|HoleSize=0mm|Usage=FLASHONLY|Rotation=180.000|XOffset=0mm|YOffset=0mm|HoleType=Round|Shape=RoundedRectangle|*
%AMROUNDEDRECTD21*
21,1,2.27,1.16,0,0,180.0*
21,1,1.78,1.65,0,0,180.0*
1,1,0.50,-0.89,0.58*
1,1,0.50,0.89,0.58*
1,1,0.50,0.89,-0.58*
1,1,0.50,-0.89,-0.58*
%
%ADD21ROUNDEDRECTD21*%
G04:AMPARAMS|DCode=22|XSize=3.28mm|YSize=6.63mm|CornerRadius=0.25mm|HoleSize=0mm|Usage=FLASHONLY|Rotation=180.000|XOffset=0mm|YOffset=0mm|HoleType=Round|Shape=RoundedRectangle|*
%AMROUNDEDRECTD22*
21,1,3.28,6.14,0,0,180.0*
21,1,2.79,6.63,0,0,180.0*
1,1,0.49,-1.39,3.07*
1,1,0.49,1.39,3.07*
1,1,0.49,1.39,-3.07*
1,1,0.49,-1.39,-3.07*
%
%ADD22ROUNDEDRECTD22*%
%ADD23R,1.00X1.45*%
%ADD24R,1.00X0.60*%
%ADD25R,0.60X0.95*%
%ADD26R,0.95X0.60*%
%ADD27R,1.45X1.00*%
D15*
X3000Y1100D02*
D03*
Y1500D02*
D03*
Y1900D02*
D03*
Y2300D02*
D03*
Y2700D02*
D03*
Y3100D02*
D03*
Y3500D02*
D03*
Y3900D02*
D03*
X1000Y1100D02*
D03*
Y1500D02*
D03*
Y1900D02*
D03*
Y2300D02*
D03*
Y2700D02*
D03*
Y3100D02*
D03*
Y3500D02*
D03*
Y3900D02*
D03*
D16*
X746Y5417D02*
D03*
X1254D02*
D03*
D17*
X1000Y5448D02*
D03*
D18*
X1143Y4550D02*
D03*
X1007D02*
D03*
X1143Y4950D02*
D03*
X1007D02*
D03*
X3467Y3925D02*
D03*
X3333D02*
D03*
D19*
X1000Y4824D02*
D03*
Y4676D02*
D03*
D20*
X3335Y2275D02*
D03*
X3615D02*
D03*
D21*
X3733Y4100D02*
D03*
X4167D02*
D03*
D22*
X3733Y3475D02*
D03*
X4217D02*
D03*
D23*
X4145Y2900D02*
D03*
X4305D02*
D03*
D24*
X3705Y2995D02*
D03*
Y2900D02*
D03*
Y2805D02*
D03*
X3945D02*
D03*
Y2900D02*
D03*
Y2995D02*
D03*
D25*
X3800Y2625D02*
D03*
X3950D02*
D03*
D26*
X3500Y2700D02*
D03*
Y2550D02*
D03*
Y2950D02*
D03*
Y2800D02*
D03*
D27*
X3325Y4095D02*
D03*
Y4255D02*
D03*
M02*
