G04*
G04 #@! TF.GenerationSoftware,Altium Limited,Altium Designer,23.0.1 (38)*
G04*
G04 Layer_Physical_Order=2*
G04 Layer_Color=16711680*
%FSLAX42Y42*%
%MOMM*%
G71*
G04*
G04 #@! TF.SameCoordinates,1CED9901-E32D-4687-B992-F5E23856CA55*
G04*
G04*
G04 #@! TF.FilePolarity,Positive*
G04*
G01*
G75*
%ADD16R,1.60X4.90*%
%ADD46C,0.25*%
%ADD49C,1.59*%
%ADD50R,1.59X1.59*%
%ADD51C,1.71*%
%ADD52R,1.71X1.71*%
%ADD53C,3.00*%
%ADD54C,0.60*%
G36*
X4967Y33D02*
X33D01*
Y5667D01*
X4967D01*
Y33D01*
D02*
G37*
%LPC*%
G36*
X4717Y5575D02*
X4713D01*
Y5413D01*
X4875D01*
Y5417D01*
X4869Y5451D01*
X4855Y5483D01*
X4836Y5512D01*
X4812Y5536D01*
X4783Y5555D01*
X4751Y5569D01*
X4717Y5575D01*
D02*
G37*
G36*
X4687D02*
X4683D01*
X4649Y5569D01*
X4617Y5555D01*
X4588Y5536D01*
X4564Y5512D01*
X4545Y5483D01*
X4531Y5451D01*
X4525Y5417D01*
Y5413D01*
X4687D01*
Y5575D01*
D02*
G37*
G36*
X317D02*
X313D01*
Y5413D01*
X475D01*
Y5417D01*
X469Y5451D01*
X455Y5483D01*
X436Y5512D01*
X412Y5536D01*
X383Y5555D01*
X351Y5569D01*
X317Y5575D01*
D02*
G37*
G36*
X287D02*
X283D01*
X249Y5569D01*
X217Y5555D01*
X188Y5536D01*
X164Y5512D01*
X145Y5483D01*
X131Y5451D01*
X125Y5417D01*
Y5413D01*
X287D01*
Y5575D01*
D02*
G37*
G36*
X4875Y5387D02*
X4713D01*
Y5225D01*
X4717D01*
X4751Y5231D01*
X4783Y5245D01*
X4812Y5264D01*
X4836Y5288D01*
X4855Y5317D01*
X4869Y5349D01*
X4875Y5383D01*
Y5387D01*
D02*
G37*
G36*
X4687D02*
X4525D01*
Y5383D01*
X4531Y5349D01*
X4545Y5317D01*
X4564Y5288D01*
X4588Y5264D01*
X4617Y5245D01*
X4649Y5231D01*
X4683Y5225D01*
X4687D01*
Y5387D01*
D02*
G37*
G36*
X475D02*
X313D01*
Y5225D01*
X317D01*
X351Y5231D01*
X383Y5245D01*
X412Y5264D01*
X436Y5288D01*
X455Y5317D01*
X469Y5349D01*
X475Y5383D01*
Y5387D01*
D02*
G37*
G36*
X287D02*
X125D01*
Y5383D01*
X131Y5349D01*
X145Y5317D01*
X164Y5288D01*
X188Y5264D01*
X217Y5245D01*
X249Y5231D01*
X283Y5225D01*
X287D01*
Y5387D01*
D02*
G37*
G36*
X364Y3205D02*
X363D01*
Y3113D01*
X455D01*
Y3114D01*
X448Y3140D01*
X434Y3164D01*
X414Y3184D01*
X390Y3198D01*
X364Y3205D01*
D02*
G37*
G36*
X337D02*
X336D01*
X310Y3198D01*
X286Y3184D01*
X266Y3164D01*
X252Y3140D01*
X245Y3114D01*
Y3113D01*
X337D01*
Y3205D01*
D02*
G37*
G36*
X703Y3200D02*
X505D01*
Y3000D01*
X703D01*
Y3200D01*
D02*
G37*
G36*
X455Y3087D02*
X363D01*
Y2995D01*
X364D01*
X390Y3002D01*
X414Y3016D01*
X434Y3036D01*
X448Y3060D01*
X455Y3086D01*
Y3087D01*
D02*
G37*
G36*
X337D02*
X245D01*
Y3086D01*
X252Y3060D01*
X266Y3036D01*
X286Y3016D01*
X310Y3002D01*
X336Y2995D01*
X337D01*
Y3087D01*
D02*
G37*
G36*
X4717Y475D02*
X4713D01*
Y313D01*
X4875D01*
Y317D01*
X4869Y351D01*
X4855Y383D01*
X4836Y412D01*
X4812Y436D01*
X4783Y455D01*
X4751Y469D01*
X4717Y475D01*
D02*
G37*
G36*
X4687D02*
X4683D01*
X4649Y469D01*
X4617Y455D01*
X4588Y436D01*
X4564Y412D01*
X4545Y383D01*
X4531Y351D01*
X4525Y317D01*
Y313D01*
X4687D01*
Y475D01*
D02*
G37*
G36*
X317D02*
X313D01*
Y313D01*
X475D01*
Y317D01*
X469Y351D01*
X455Y383D01*
X436Y412D01*
X412Y436D01*
X383Y455D01*
X351Y469D01*
X317Y475D01*
D02*
G37*
G36*
X287D02*
X283D01*
X249Y469D01*
X217Y455D01*
X188Y436D01*
X164Y412D01*
X145Y383D01*
X131Y351D01*
X125Y317D01*
Y313D01*
X287D01*
Y475D01*
D02*
G37*
G36*
X3809Y311D02*
X3807D01*
Y213D01*
X3905D01*
Y215D01*
X3897Y243D01*
X3883Y268D01*
X3862Y289D01*
X3837Y303D01*
X3809Y311D01*
D02*
G37*
G36*
X3781D02*
X3779D01*
X3751Y303D01*
X3726Y289D01*
X3705Y268D01*
X3691Y243D01*
X3683Y215D01*
Y213D01*
X3781D01*
Y311D01*
D02*
G37*
G36*
X1111D02*
X1013D01*
Y213D01*
X1111D01*
Y311D01*
D02*
G37*
G36*
X987D02*
X889D01*
Y213D01*
X987D01*
Y311D01*
D02*
G37*
G36*
X4875Y287D02*
X4713D01*
Y125D01*
X4717D01*
X4751Y131D01*
X4783Y145D01*
X4812Y164D01*
X4836Y188D01*
X4855Y217D01*
X4869Y249D01*
X4875Y283D01*
Y287D01*
D02*
G37*
G36*
X4687D02*
X4525D01*
Y283D01*
X4531Y249D01*
X4545Y217D01*
X4564Y188D01*
X4588Y164D01*
X4617Y145D01*
X4649Y131D01*
X4683Y125D01*
X4687D01*
Y287D01*
D02*
G37*
G36*
X475D02*
X313D01*
Y125D01*
X317D01*
X351Y131D01*
X383Y145D01*
X412Y164D01*
X436Y188D01*
X455Y217D01*
X469Y249D01*
X475Y283D01*
Y287D01*
D02*
G37*
G36*
X287D02*
X125D01*
Y283D01*
X131Y249D01*
X145Y217D01*
X164Y188D01*
X188Y164D01*
X217Y145D01*
X249Y131D01*
X283Y125D01*
X287D01*
Y287D01*
D02*
G37*
G36*
X3554Y306D02*
X3526D01*
X3499Y298D01*
X3475Y284D01*
X3456Y265D01*
X3442Y241D01*
X3435Y214D01*
Y186D01*
X3442Y159D01*
X3456Y135D01*
X3475Y116D01*
X3499Y102D01*
X3526Y94D01*
X3554D01*
X3581Y102D01*
X3605Y116D01*
X3624Y135D01*
X3638Y159D01*
X3646Y186D01*
Y214D01*
X3638Y241D01*
X3624Y265D01*
X3605Y284D01*
X3581Y298D01*
X3554Y306D01*
D02*
G37*
G36*
X3300D02*
X3272D01*
X3245Y298D01*
X3221Y284D01*
X3202Y265D01*
X3188Y241D01*
X3181Y214D01*
Y186D01*
X3188Y159D01*
X3202Y135D01*
X3221Y116D01*
X3245Y102D01*
X3272Y94D01*
X3300D01*
X3327Y102D01*
X3351Y116D01*
X3370Y135D01*
X3384Y159D01*
X3392Y186D01*
Y214D01*
X3384Y241D01*
X3370Y265D01*
X3351Y284D01*
X3327Y298D01*
X3300Y306D01*
D02*
G37*
G36*
X3046D02*
X3018D01*
X2991Y298D01*
X2967Y284D01*
X2948Y265D01*
X2934Y241D01*
X2926Y214D01*
Y186D01*
X2934Y159D01*
X2948Y135D01*
X2967Y116D01*
X2991Y102D01*
X3018Y94D01*
X3046D01*
X3073Y102D01*
X3097Y116D01*
X3116Y135D01*
X3130Y159D01*
X3138Y186D01*
Y214D01*
X3130Y241D01*
X3116Y265D01*
X3097Y284D01*
X3073Y298D01*
X3046Y306D01*
D02*
G37*
G36*
X2792D02*
X2764D01*
X2737Y298D01*
X2713Y284D01*
X2694Y265D01*
X2680Y241D01*
X2673Y214D01*
Y186D01*
X2680Y159D01*
X2694Y135D01*
X2713Y116D01*
X2737Y102D01*
X2764Y94D01*
X2792D01*
X2819Y102D01*
X2843Y116D01*
X2862Y135D01*
X2876Y159D01*
X2883Y186D01*
Y214D01*
X2876Y241D01*
X2862Y265D01*
X2843Y284D01*
X2819Y298D01*
X2792Y306D01*
D02*
G37*
G36*
X2538D02*
X2510D01*
X2483Y298D01*
X2459Y284D01*
X2440Y265D01*
X2426Y241D01*
X2418Y214D01*
Y186D01*
X2426Y159D01*
X2440Y135D01*
X2459Y116D01*
X2483Y102D01*
X2510Y94D01*
X2538D01*
X2565Y102D01*
X2589Y116D01*
X2608Y135D01*
X2622Y159D01*
X2630Y186D01*
Y214D01*
X2622Y241D01*
X2608Y265D01*
X2589Y284D01*
X2565Y298D01*
X2538Y306D01*
D02*
G37*
G36*
X2284D02*
X2256D01*
X2229Y298D01*
X2205Y284D01*
X2186Y265D01*
X2172Y241D01*
X2165Y214D01*
Y186D01*
X2172Y159D01*
X2186Y135D01*
X2205Y116D01*
X2229Y102D01*
X2256Y94D01*
X2284D01*
X2311Y102D01*
X2335Y116D01*
X2354Y135D01*
X2368Y159D01*
X2375Y186D01*
Y214D01*
X2368Y241D01*
X2354Y265D01*
X2335Y284D01*
X2311Y298D01*
X2284Y306D01*
D02*
G37*
G36*
X2030D02*
X2002D01*
X1975Y298D01*
X1951Y284D01*
X1932Y265D01*
X1918Y241D01*
X1910Y214D01*
Y186D01*
X1918Y159D01*
X1932Y135D01*
X1951Y116D01*
X1975Y102D01*
X2002Y94D01*
X2030D01*
X2057Y102D01*
X2081Y116D01*
X2100Y135D01*
X2114Y159D01*
X2122Y186D01*
Y214D01*
X2114Y241D01*
X2100Y265D01*
X2081Y284D01*
X2057Y298D01*
X2030Y306D01*
D02*
G37*
G36*
X2785Y1550D02*
X2765D01*
X2747Y1542D01*
X2733Y1528D01*
X2725Y1510D01*
Y1497D01*
X1739Y510D01*
X1731Y500D01*
X1731Y498D01*
X1729Y487D01*
Y300D01*
X1721Y298D01*
X1697Y284D01*
X1678Y265D01*
X1664Y241D01*
X1657Y214D01*
Y186D01*
X1664Y159D01*
X1678Y135D01*
X1697Y116D01*
X1721Y102D01*
X1748Y94D01*
X1776D01*
X1803Y102D01*
X1827Y116D01*
X1846Y135D01*
X1860Y159D01*
X1867Y186D01*
Y214D01*
X1860Y241D01*
X1846Y265D01*
X1827Y284D01*
X1803Y298D01*
X1795Y300D01*
Y473D01*
X2772Y1450D01*
X2785D01*
X2803Y1458D01*
X2817Y1472D01*
X2825Y1490D01*
Y1510D01*
X2817Y1528D01*
X2803Y1542D01*
X2785Y1550D01*
D02*
G37*
G36*
Y2350D02*
X2765D01*
X2747Y2342D01*
X2733Y2328D01*
X2725Y2310D01*
Y2290D01*
X2733Y2272D01*
X2742Y2262D01*
Y1689D01*
X1485Y431D01*
X1477Y421D01*
X1477Y419D01*
X1475Y408D01*
Y300D01*
X1467Y298D01*
X1443Y284D01*
X1424Y265D01*
X1410Y241D01*
X1402Y214D01*
Y186D01*
X1410Y159D01*
X1424Y135D01*
X1443Y116D01*
X1467Y102D01*
X1494Y94D01*
X1522D01*
X1549Y102D01*
X1573Y116D01*
X1592Y135D01*
X1606Y159D01*
X1614Y186D01*
Y214D01*
X1606Y241D01*
X1592Y265D01*
X1573Y284D01*
X1549Y298D01*
X1541Y300D01*
Y394D01*
X2798Y1652D01*
X2806Y1662D01*
X2808Y1675D01*
Y2262D01*
X2817Y2272D01*
X2825Y2290D01*
Y2310D01*
X2817Y2328D01*
X2803Y2342D01*
X2785Y2350D01*
D02*
G37*
G36*
X2635Y1950D02*
X2615D01*
X2597Y1942D01*
X2583Y1928D01*
X2575Y1910D01*
Y1890D01*
X2583Y1872D01*
X2592Y1862D01*
Y1714D01*
X1231Y352D01*
X1223Y342D01*
X1223Y340D01*
X1221Y329D01*
Y300D01*
X1213Y298D01*
X1189Y284D01*
X1170Y265D01*
X1156Y241D01*
X1148Y214D01*
Y186D01*
X1156Y159D01*
X1170Y135D01*
X1189Y116D01*
X1213Y102D01*
X1240Y94D01*
X1268D01*
X1295Y102D01*
X1319Y116D01*
X1338Y135D01*
X1352Y159D01*
X1360Y186D01*
Y214D01*
X1352Y241D01*
X1338Y265D01*
X1319Y284D01*
X1295Y298D01*
X1287Y300D01*
Y315D01*
X2648Y1677D01*
X2656Y1687D01*
X2658Y1700D01*
Y1862D01*
X2667Y1872D01*
X2675Y1890D01*
Y1910D01*
X2667Y1928D01*
X2653Y1942D01*
X2635Y1950D01*
D02*
G37*
G36*
X3905Y187D02*
X3807D01*
Y89D01*
X3809D01*
X3837Y97D01*
X3862Y111D01*
X3883Y132D01*
X3897Y157D01*
X3905Y185D01*
Y187D01*
D02*
G37*
G36*
X3781D02*
X3683D01*
Y185D01*
X3691Y157D01*
X3705Y132D01*
X3726Y111D01*
X3751Y97D01*
X3779Y89D01*
X3781D01*
Y187D01*
D02*
G37*
G36*
X1111D02*
X1013D01*
Y89D01*
X1111D01*
Y187D01*
D02*
G37*
G36*
X987D02*
X889D01*
Y89D01*
X987D01*
Y187D01*
D02*
G37*
%LPD*%
D16*
X746Y5417D02*
D03*
X1254D02*
D03*
D46*
X1762Y487D02*
X2775Y1500D01*
X1762Y200D02*
Y487D01*
X1254Y329D02*
X2625Y1700D01*
Y1900D01*
X1254Y200D02*
Y329D01*
X1508Y200D02*
Y408D01*
X2775Y1675D02*
Y2300D01*
X1508Y408D02*
X2775Y1675D01*
D49*
X350Y3100D02*
D03*
D50*
X604D02*
D03*
D51*
X3794Y200D02*
D03*
X3540D02*
D03*
X1254D02*
D03*
X1508D02*
D03*
X1762D02*
D03*
X2016D02*
D03*
X2270D02*
D03*
X2524D02*
D03*
X2778D02*
D03*
X3032D02*
D03*
X3286D02*
D03*
D52*
X1000D02*
D03*
D53*
X4700Y300D02*
D03*
Y5400D02*
D03*
X300D02*
D03*
Y300D02*
D03*
D54*
X3850Y2700D02*
D03*
X3775D02*
D03*
X3700D02*
D03*
X3600Y3050D02*
D03*
X4000Y3100D02*
D03*
X3925D02*
D03*
X3825Y2925D02*
D03*
Y2850D02*
D03*
Y2775D02*
D03*
X3750Y2900D02*
D03*
X4775Y5150D02*
D03*
X4525Y4650D02*
D03*
X4775Y4150D02*
D03*
X4525Y3650D02*
D03*
X4775Y3150D02*
D03*
X4525Y2650D02*
D03*
X4775Y2150D02*
D03*
X4525Y1650D02*
D03*
X4775Y1150D02*
D03*
X4525Y650D02*
D03*
X4275Y5150D02*
D03*
X4025Y4650D02*
D03*
X4275Y2150D02*
D03*
X4025Y1650D02*
D03*
X4275Y1150D02*
D03*
X4025Y650D02*
D03*
X3775Y5150D02*
D03*
X3525Y4650D02*
D03*
X3775Y2150D02*
D03*
Y1150D02*
D03*
X3275Y5150D02*
D03*
X3025Y4650D02*
D03*
Y3650D02*
D03*
Y1650D02*
D03*
X3275Y1150D02*
D03*
X3025Y650D02*
D03*
X2775Y5150D02*
D03*
X2525Y4650D02*
D03*
X2775Y4150D02*
D03*
X2525Y3650D02*
D03*
X2775Y3150D02*
D03*
X2525Y2650D02*
D03*
X2275Y5150D02*
D03*
X2025Y4650D02*
D03*
X2275Y4150D02*
D03*
X2025Y3650D02*
D03*
X2275Y3150D02*
D03*
X2025Y2650D02*
D03*
X2275Y2150D02*
D03*
X2025Y1650D02*
D03*
Y650D02*
D03*
X1775Y5150D02*
D03*
X1525Y4650D02*
D03*
X1775Y4150D02*
D03*
X1525Y3650D02*
D03*
X1775Y3150D02*
D03*
X1525Y2650D02*
D03*
Y1650D02*
D03*
X1775Y1150D02*
D03*
X1275Y4150D02*
D03*
X1025Y3650D02*
D03*
X1275Y3150D02*
D03*
Y2150D02*
D03*
X1025Y1650D02*
D03*
Y650D02*
D03*
X525Y4650D02*
D03*
X775Y4150D02*
D03*
X525Y3650D02*
D03*
Y2650D02*
D03*
X775Y2150D02*
D03*
X525Y1650D02*
D03*
X775Y1150D02*
D03*
X525Y650D02*
D03*
X2625Y1900D02*
D03*
X2775Y1500D02*
D03*
Y2300D02*
D03*
M02*
