G04*
G04 #@! TF.GenerationSoftware,Altium Limited,Altium Designer,23.0.1 (38)*
G04*
G04 Layer_Color=8388736*
%FSLAX42Y42*%
%MOMM*%
G71*
G04*
G04 #@! TF.SameCoordinates,1CED9901-E32D-4687-B992-F5E23856CA55*
G04*
G04*
G04 #@! TF.FilePolarity,Negative*
G04*
G01*
G75*
%ADD28R,2.70X2.00*%
%ADD29R,1.80X5.10*%
%ADD30R,1.70X4.01*%
%ADD31R,1.00X1.20*%
%ADD32R,1.22X0.94*%
%ADD33R,1.45X1.95*%
G04:AMPARAMS|DCode=34|XSize=2.47mm|YSize=1.85mm|CornerRadius=0.35mm|HoleSize=0mm|Usage=FLASHONLY|Rotation=180.000|XOffset=0mm|YOffset=0mm|HoleType=Round|Shape=RoundedRectangle|*
%AMROUNDEDRECTD34*
21,1,2.47,1.16,0,0,180.0*
21,1,1.78,1.85,0,0,180.0*
1,1,0.70,-0.89,0.58*
1,1,0.70,0.89,0.58*
1,1,0.70,0.89,-0.58*
1,1,0.70,-0.89,-0.58*
%
%ADD34ROUNDEDRECTD34*%
G04:AMPARAMS|DCode=35|XSize=3.48mm|YSize=6.83mm|CornerRadius=0.35mm|HoleSize=0mm|Usage=FLASHONLY|Rotation=180.000|XOffset=0mm|YOffset=0mm|HoleType=Round|Shape=RoundedRectangle|*
%AMROUNDEDRECTD35*
21,1,3.48,6.14,0,0,180.0*
21,1,2.79,6.83,0,0,180.0*
1,1,0.70,-1.39,3.07*
1,1,0.70,1.39,3.07*
1,1,0.70,1.39,-3.07*
1,1,0.70,-1.39,-3.07*
%
%ADD35ROUNDEDRECTD35*%
%ADD36R,1.20X1.65*%
%ADD37R,1.20X0.80*%
%ADD38R,0.80X1.15*%
%ADD39R,1.15X0.80*%
%ADD40R,1.65X1.20*%
%ADD41C,1.79*%
%ADD42R,1.79X1.79*%
%ADD43C,1.91*%
%ADD44R,1.91X1.91*%
%ADD45C,3.20*%
D28*
X3000Y1100D02*
D03*
Y1500D02*
D03*
Y1900D02*
D03*
Y2300D02*
D03*
Y2700D02*
D03*
Y3100D02*
D03*
Y3500D02*
D03*
Y3900D02*
D03*
X1000Y1100D02*
D03*
Y1500D02*
D03*
Y1900D02*
D03*
Y2300D02*
D03*
Y2700D02*
D03*
Y3100D02*
D03*
Y3500D02*
D03*
Y3900D02*
D03*
D29*
X746Y5417D02*
D03*
X1254D02*
D03*
D30*
X1000Y5448D02*
D03*
D31*
X1143Y4550D02*
D03*
X1007D02*
D03*
X1143Y4950D02*
D03*
X1007D02*
D03*
X3467Y3925D02*
D03*
X3333D02*
D03*
D32*
X1000Y4824D02*
D03*
Y4676D02*
D03*
D33*
X3335Y2275D02*
D03*
X3615D02*
D03*
D34*
X3733Y4100D02*
D03*
X4167D02*
D03*
D35*
X3733Y3475D02*
D03*
X4217D02*
D03*
D36*
X4145Y2900D02*
D03*
X4305D02*
D03*
D37*
X3705Y2995D02*
D03*
Y2900D02*
D03*
Y2805D02*
D03*
X3945D02*
D03*
Y2900D02*
D03*
Y2995D02*
D03*
D38*
X3800Y2625D02*
D03*
X3950D02*
D03*
D39*
X3500Y2700D02*
D03*
Y2550D02*
D03*
Y2950D02*
D03*
Y2800D02*
D03*
D40*
X3325Y4095D02*
D03*
Y4255D02*
D03*
D41*
X350Y3100D02*
D03*
D42*
X604D02*
D03*
D43*
X3794Y200D02*
D03*
X3540D02*
D03*
X1254D02*
D03*
X1508D02*
D03*
X1762D02*
D03*
X2016D02*
D03*
X2270D02*
D03*
X2524D02*
D03*
X2778D02*
D03*
X3032D02*
D03*
X3286D02*
D03*
D44*
X1000D02*
D03*
D45*
X4700Y300D02*
D03*
Y5400D02*
D03*
X300D02*
D03*
Y300D02*
D03*
M02*
