G04*
G04 #@! TF.GenerationSoftware,Altium Limited,Altium Designer,23.0.1 (38)*
G04*
G04 Layer_Color=8421504*
%FSLAX42Y42*%
%MOMM*%
G71*
G04*
G04 #@! TF.SameCoordinates,CE83F5B9-99AD-438B-81A1-E9B9CC2BE83F*
G04*
G04*
G04 #@! TF.FilePolarity,Positive*
G04*
G01*
G75*
%ADD15R,0.80X1.00*%
%ADD16R,0.74X1.02*%
%ADD17R,1.00X0.80*%
G04:AMPARAMS|DCode=18|XSize=2mm|YSize=1mm|CornerRadius=0.25mm|HoleSize=0mm|Usage=FLASHONLY|Rotation=180.000|XOffset=0mm|YOffset=0mm|HoleType=Round|Shape=RoundedRectangle|*
%AMROUNDEDRECTD18*
21,1,2.00,0.50,0,0,180.0*
21,1,1.50,1.00,0,0,180.0*
1,1,0.50,-0.75,0.25*
1,1,0.50,0.75,0.25*
1,1,0.50,0.75,-0.25*
1,1,0.50,-0.75,-0.25*
%
%ADD18ROUNDEDRECTD18*%
%ADD19R,1.00X0.60*%
%ADD20R,0.60X0.95*%
%ADD21R,0.95X0.60*%
%ADD22R,1.00X1.45*%
%ADD23R,1.45X1.00*%
%ADD24R,1.60X4.90*%
%ADD25R,1.50X3.81*%
D15*
X4142Y4975D02*
D03*
X4008D02*
D03*
X882D02*
D03*
X1018D02*
D03*
D16*
X3824Y4850D02*
D03*
X3676D02*
D03*
X1177D02*
D03*
X1323D02*
D03*
D17*
X3525Y4708D02*
D03*
Y4842D02*
D03*
X1475Y4708D02*
D03*
Y4842D02*
D03*
X1225Y2133D02*
D03*
Y2267D02*
D03*
D18*
X3300Y4858D02*
D03*
Y2979D02*
D03*
X1700Y2725D02*
D03*
Y3233D02*
D03*
Y3360D02*
D03*
Y3487D02*
D03*
Y3614D02*
D03*
Y4731D02*
D03*
Y4858D02*
D03*
Y4985D02*
D03*
Y3106D02*
D03*
Y2979D02*
D03*
Y2852D02*
D03*
X3300Y4985D02*
D03*
Y4731D02*
D03*
Y3614D02*
D03*
Y3487D02*
D03*
Y3360D02*
D03*
Y3233D02*
D03*
Y3106D02*
D03*
Y2852D02*
D03*
Y2725D02*
D03*
D19*
X980Y2645D02*
D03*
Y2550D02*
D03*
Y2455D02*
D03*
X1220D02*
D03*
Y2645D02*
D03*
D20*
X825Y2275D02*
D03*
X975D02*
D03*
D21*
X1425Y2850D02*
D03*
Y2700D02*
D03*
D22*
X1225Y2850D02*
D03*
X1065D02*
D03*
D23*
X800Y2655D02*
D03*
Y2495D02*
D03*
D24*
X3746Y5417D02*
D03*
X4254D02*
D03*
X1254D02*
D03*
X746D02*
D03*
D25*
X4000Y5448D02*
D03*
X1000D02*
D03*
M02*
