G04*
G04 #@! TF.GenerationSoftware,Altium Limited,Altium Designer,23.0.1 (38)*
G04*
G04 Layer_Physical_Order=1*
G04 Layer_Color=255*
%FSLAX42Y42*%
%MOMM*%
G71*
G04*
G04 #@! TF.SameCoordinates,CE83F5B9-99AD-438B-81A1-E9B9CC2BE83F*
G04*
G04*
G04 #@! TF.FilePolarity,Positive*
G04*
G01*
G75*
%ADD10C,0.25*%
%ADD15R,0.80X1.00*%
%ADD16R,0.74X1.02*%
%ADD17R,1.00X0.80*%
G04:AMPARAMS|DCode=18|XSize=2mm|YSize=1mm|CornerRadius=0.25mm|HoleSize=0mm|Usage=FLASHONLY|Rotation=180.000|XOffset=0mm|YOffset=0mm|HoleType=Round|Shape=RoundedRectangle|*
%AMROUNDEDRECTD18*
21,1,2.00,0.50,0,0,180.0*
21,1,1.50,1.00,0,0,180.0*
1,1,0.50,-0.75,0.25*
1,1,0.50,0.75,0.25*
1,1,0.50,0.75,-0.25*
1,1,0.50,-0.75,-0.25*
%
%ADD18ROUNDEDRECTD18*%
%ADD19R,1.00X0.60*%
%ADD20R,0.60X0.95*%
%ADD21R,0.95X0.60*%
%ADD22R,1.00X1.45*%
%ADD23R,1.45X1.00*%
%ADD24R,1.60X4.90*%
%ADD25R,1.50X3.81*%
%ADD42C,1.00*%
%ADD43C,0.80*%
%ADD44C,0.60*%
%ADD45C,1.59*%
%ADD46R,1.59X1.59*%
%ADD47C,1.71*%
%ADD48R,1.71X1.71*%
%ADD49C,3.00*%
%ADD50C,0.60*%
G36*
X4967Y33D02*
X33D01*
Y5667D01*
X896D01*
X905Y5658D01*
X905Y5654D01*
Y5238D01*
X929D01*
Y4992D01*
X932Y4974D01*
X939Y4957D01*
X950Y4943D01*
X953Y4940D01*
X957Y4924D01*
Y4905D01*
X964D01*
X982Y4873D01*
X1008Y4841D01*
X1041Y4814D01*
X1078Y4794D01*
X1118Y4782D01*
X1119Y4782D01*
Y4779D01*
X1148D01*
X1150Y4779D01*
X1152Y4779D01*
X1177D01*
Y4775D01*
X1323Y4775D01*
Y4779D01*
X1381D01*
Y4787D01*
X1382Y4787D01*
X1405D01*
Y4783D01*
X1545D01*
Y4787D01*
X1624D01*
X1625Y4787D01*
X1775D01*
X1793Y4791D01*
X1807Y4801D01*
X1817Y4815D01*
X1821Y4833D01*
Y4883D01*
X1817Y4901D01*
X1807Y4915D01*
X1793Y4925D01*
X1775Y4929D01*
X1625D01*
X1624Y4929D01*
X1358D01*
X1340Y4926D01*
X1327Y4921D01*
X1301D01*
X1177Y4926D01*
Y4921D01*
X1149D01*
X1141Y4922D01*
X1123Y4929D01*
X1108Y4941D01*
X1097Y4956D01*
X1090Y4973D01*
X1088Y4983D01*
X1087Y4983D01*
X1086Y4993D01*
X1079Y5010D01*
X1077Y5012D01*
Y5045D01*
X1071D01*
Y5238D01*
X1095D01*
Y5654D01*
X1095Y5658D01*
X1104Y5667D01*
X3896D01*
X3905Y5658D01*
X3905Y5654D01*
Y5238D01*
X3937D01*
Y4983D01*
X3937Y4982D01*
X3928Y4961D01*
X3914Y4943D01*
X3896Y4929D01*
X3876Y4921D01*
X3825D01*
Y4925D01*
X3692Y4929D01*
Y4926D01*
X3679Y4922D01*
X3668Y4926D01*
X3650Y4929D01*
X3376D01*
X3375Y4929D01*
X3225D01*
X3207Y4925D01*
X3193Y4915D01*
X3183Y4901D01*
X3179Y4883D01*
Y4833D01*
X3183Y4815D01*
X3193Y4801D01*
X3207Y4791D01*
X3225Y4787D01*
X3375D01*
X3376Y4787D01*
X3455D01*
Y4783D01*
X3595D01*
Y4787D01*
X3619D01*
Y4779D01*
X3692D01*
Y4775D01*
X3820D01*
X3824Y4779D01*
X3832D01*
X3849Y4777D01*
X3849Y4777D01*
X3853Y4776D01*
X3861Y4777D01*
X3898Y4780D01*
X3940Y4793D01*
X3980Y4815D01*
X4014Y4843D01*
X4043Y4878D01*
X4058Y4905D01*
X4067D01*
Y4929D01*
X4074Y4949D01*
X4077Y4960D01*
X4077Y4962D01*
X4076Y4962D01*
X4078Y4975D01*
Y5238D01*
X4095D01*
Y5654D01*
X4095Y5658D01*
X4104Y5667D01*
X4967D01*
Y33D01*
D02*
G37*
%LPC*%
G36*
X4717Y5575D02*
X4713D01*
Y5413D01*
X4875D01*
Y5417D01*
X4869Y5451D01*
X4855Y5483D01*
X4836Y5512D01*
X4812Y5536D01*
X4783Y5555D01*
X4751Y5569D01*
X4717Y5575D01*
D02*
G37*
G36*
X4687D02*
X4683D01*
X4649Y5569D01*
X4617Y5555D01*
X4588Y5536D01*
X4564Y5512D01*
X4545Y5483D01*
X4531Y5451D01*
X4525Y5417D01*
Y5413D01*
X4687D01*
Y5575D01*
D02*
G37*
G36*
X317D02*
X313D01*
Y5413D01*
X475D01*
Y5417D01*
X469Y5451D01*
X455Y5483D01*
X436Y5512D01*
X412Y5536D01*
X383Y5555D01*
X351Y5569D01*
X317Y5575D01*
D02*
G37*
G36*
X287D02*
X283D01*
X249Y5569D01*
X217Y5555D01*
X188Y5536D01*
X164Y5512D01*
X145Y5483D01*
X131Y5451D01*
X125Y5417D01*
Y5413D01*
X287D01*
Y5575D01*
D02*
G37*
G36*
X4875Y5387D02*
X4713D01*
Y5225D01*
X4717D01*
X4751Y5231D01*
X4783Y5245D01*
X4812Y5264D01*
X4836Y5288D01*
X4855Y5317D01*
X4869Y5349D01*
X4875Y5383D01*
Y5387D01*
D02*
G37*
G36*
X4687D02*
X4525D01*
Y5383D01*
X4531Y5349D01*
X4545Y5317D01*
X4564Y5288D01*
X4588Y5264D01*
X4617Y5245D01*
X4649Y5231D01*
X4683Y5225D01*
X4687D01*
Y5387D01*
D02*
G37*
G36*
X475D02*
X313D01*
Y5225D01*
X317D01*
X351Y5231D01*
X383Y5245D01*
X412Y5264D01*
X436Y5288D01*
X455Y5317D01*
X469Y5349D01*
X475Y5383D01*
Y5387D01*
D02*
G37*
G36*
X287D02*
X125D01*
Y5383D01*
X131Y5349D01*
X145Y5317D01*
X164Y5288D01*
X188Y5264D01*
X217Y5245D01*
X249Y5231D01*
X283Y5225D01*
X287D01*
Y5387D01*
D02*
G37*
G36*
X1775Y3558D02*
X1625D01*
X1607Y3554D01*
X1593Y3544D01*
X1583Y3530D01*
X1579Y3512D01*
Y3462D01*
X1583Y3444D01*
X1593Y3430D01*
Y3417D01*
X1583Y3403D01*
X1579Y3385D01*
Y3335D01*
X1583Y3317D01*
X1593Y3303D01*
Y3290D01*
X1583Y3276D01*
X1579Y3258D01*
Y3208D01*
X1583Y3190D01*
X1593Y3176D01*
Y3163D01*
X1583Y3149D01*
X1581Y3139D01*
X1487D01*
X1274Y3351D01*
Y3503D01*
X1076D01*
Y3304D01*
X1228D01*
X1450Y3083D01*
X1460Y3075D01*
X1473Y3073D01*
X1581D01*
X1583Y3063D01*
X1593Y3049D01*
Y3036D01*
X1583Y3022D01*
X1581Y3012D01*
X1360D01*
X1265Y3107D01*
X1268Y3112D01*
X1274Y3137D01*
Y3163D01*
X1268Y3188D01*
X1255Y3211D01*
X1236Y3230D01*
X1213Y3243D01*
X1188Y3249D01*
X1162D01*
X1137Y3243D01*
X1114Y3230D01*
X1095Y3211D01*
X1082Y3188D01*
X1076Y3163D01*
Y3137D01*
X1082Y3112D01*
X1095Y3089D01*
X1114Y3070D01*
X1137Y3057D01*
X1162Y3050D01*
X1188D01*
X1213Y3057D01*
X1218Y3060D01*
X1323Y2956D01*
X1333Y2948D01*
X1346Y2946D01*
X1581D01*
X1583Y2936D01*
X1590Y2926D01*
X1584Y2913D01*
X1295D01*
Y2942D01*
X1155D01*
Y2758D01*
X1159D01*
Y2695D01*
X1150D01*
Y2595D01*
X1187D01*
X1197Y2588D01*
X1220Y2584D01*
X1243Y2588D01*
X1253Y2595D01*
X1290D01*
Y2695D01*
X1281D01*
Y2758D01*
X1295D01*
Y2791D01*
X1598D01*
X1607Y2785D01*
X1625Y2781D01*
X1775D01*
X1793Y2785D01*
X1807Y2795D01*
X1817Y2809D01*
X1821Y2827D01*
Y2877D01*
X1817Y2895D01*
X1807Y2909D01*
Y2922D01*
X1817Y2936D01*
X1821Y2954D01*
Y3004D01*
X1817Y3022D01*
X1807Y3036D01*
Y3049D01*
X1817Y3063D01*
X1821Y3081D01*
Y3131D01*
X1817Y3149D01*
X1807Y3163D01*
Y3166D01*
X1809Y3178D01*
X1810Y3179D01*
X1823Y3181D01*
X1892Y3111D01*
Y1088D01*
X1883Y1078D01*
X1875Y1060D01*
Y1040D01*
X1883Y1022D01*
X1897Y1008D01*
X1915Y1000D01*
X1935D01*
X1953Y1008D01*
X1967Y1022D01*
X1975Y1040D01*
Y1060D01*
X1967Y1078D01*
X1958Y1088D01*
Y3125D01*
X1956Y3138D01*
X1948Y3148D01*
X1847Y3250D01*
X1836Y3257D01*
X1823Y3260D01*
X1821D01*
X1817Y3276D01*
X1807Y3290D01*
Y3303D01*
X1809Y3305D01*
X1822Y3306D01*
X1992Y3136D01*
Y1211D01*
X1985Y1194D01*
Y1174D01*
X1992Y1155D01*
X2006Y1141D01*
X2025Y1134D01*
X2045D01*
X2063Y1141D01*
X2077Y1155D01*
X2085Y1174D01*
Y1194D01*
X2077Y1212D01*
X2063Y1226D01*
X2058Y1228D01*
Y3150D01*
X2056Y3163D01*
X2048Y3173D01*
X1847Y3375D01*
X1836Y3382D01*
X1823Y3385D01*
X1821D01*
Y3385D01*
X1817Y3403D01*
X1807Y3417D01*
Y3430D01*
X1817Y3444D01*
X1821Y3462D01*
Y3512D01*
X1817Y3530D01*
X1807Y3544D01*
X1793Y3554D01*
X1775Y3558D01*
D02*
G37*
G36*
X893Y2725D02*
X707D01*
Y2711D01*
X650D01*
X627Y2707D01*
X607Y2693D01*
X593Y2673D01*
X589Y2650D01*
X593Y2627D01*
X607Y2607D01*
X627Y2593D01*
X650Y2589D01*
X707D01*
Y2585D01*
X893D01*
Y2594D01*
X980D01*
X985Y2595D01*
X1050D01*
Y2695D01*
X985D01*
X980Y2696D01*
X893D01*
Y2725D01*
D02*
G37*
G36*
X1290Y2505D02*
X1150D01*
Y2405D01*
X1187D01*
Y2327D01*
X1155D01*
Y2208D01*
X1295D01*
Y2327D01*
X1253D01*
Y2405D01*
X1290D01*
Y2505D01*
D02*
G37*
G36*
X1050D02*
X910D01*
Y2405D01*
X942D01*
Y2342D01*
X925D01*
Y2208D01*
X947D01*
Y2142D01*
X942Y2137D01*
X935Y2119D01*
Y2099D01*
X942Y2080D01*
X956Y2066D01*
X975Y2059D01*
X995D01*
X1013Y2066D01*
X1027Y2080D01*
X1035Y2099D01*
Y2119D01*
X1027Y2137D01*
X1013Y2151D01*
Y2208D01*
X1025D01*
Y2342D01*
X1008D01*
Y2405D01*
X1050D01*
Y2505D01*
D02*
G37*
G36*
X1425Y2761D02*
X1402Y2757D01*
X1392Y2750D01*
X1357D01*
Y2650D01*
X1364D01*
Y1950D01*
X1368Y1927D01*
X1382Y1907D01*
X1402Y1893D01*
X1425Y1889D01*
X1448Y1893D01*
X1468Y1907D01*
X1482Y1927D01*
X1486Y1950D01*
Y2650D01*
X1493D01*
Y2750D01*
X1458D01*
X1448Y2757D01*
X1425Y2761D01*
D02*
G37*
G36*
X4717Y475D02*
X4713D01*
Y313D01*
X4875D01*
Y317D01*
X4869Y351D01*
X4855Y383D01*
X4836Y412D01*
X4812Y436D01*
X4783Y455D01*
X4751Y469D01*
X4717Y475D01*
D02*
G37*
G36*
X4687D02*
X4683D01*
X4649Y469D01*
X4617Y455D01*
X4588Y436D01*
X4564Y412D01*
X4545Y383D01*
X4531Y351D01*
X4525Y317D01*
Y313D01*
X4687D01*
Y475D01*
D02*
G37*
G36*
X317D02*
X313D01*
Y313D01*
X475D01*
Y317D01*
X469Y351D01*
X455Y383D01*
X436Y412D01*
X412Y436D01*
X383Y455D01*
X351Y469D01*
X317Y475D01*
D02*
G37*
G36*
X287D02*
X283D01*
X249Y469D01*
X217Y455D01*
X188Y436D01*
X164Y412D01*
X145Y383D01*
X131Y351D01*
X125Y317D01*
Y313D01*
X287D01*
Y475D01*
D02*
G37*
G36*
X3375Y3558D02*
X3225D01*
X3207Y3554D01*
X3193Y3544D01*
X3183Y3530D01*
X3181Y3520D01*
X3162D01*
X3149Y3518D01*
X3139Y3510D01*
X2827Y3198D01*
X2819Y3188D01*
X2817Y3175D01*
Y1414D01*
X1811Y408D01*
X1429D01*
X1416Y406D01*
X1406Y398D01*
X1302Y294D01*
X1295Y298D01*
X1268Y306D01*
X1240D01*
X1213Y298D01*
X1189Y284D01*
X1170Y265D01*
X1156Y241D01*
X1148Y214D01*
Y186D01*
X1156Y159D01*
X1170Y135D01*
X1189Y116D01*
X1213Y102D01*
X1240Y94D01*
X1268D01*
X1295Y102D01*
X1319Y116D01*
X1338Y135D01*
X1352Y159D01*
X1360Y186D01*
Y214D01*
X1352Y241D01*
X1348Y248D01*
X1443Y342D01*
X1825D01*
X1838Y344D01*
X1848Y352D01*
X2872Y1375D01*
X2879Y1375D01*
X2886Y1373D01*
X2887Y1372D01*
X2887Y1371D01*
X1810Y294D01*
X1803Y298D01*
X1776Y306D01*
X1748D01*
X1721Y298D01*
X1697Y284D01*
X1678Y265D01*
X1664Y241D01*
X1657Y214D01*
Y186D01*
X1664Y159D01*
X1678Y135D01*
X1697Y116D01*
X1721Y102D01*
X1748Y94D01*
X1776D01*
X1803Y102D01*
X1827Y116D01*
X1846Y135D01*
X1860Y159D01*
X1867Y186D01*
Y214D01*
X1860Y241D01*
X1856Y248D01*
X2948Y1340D01*
X2954Y1348D01*
X2964Y1347D01*
X2967Y1346D01*
Y1198D01*
X2064Y294D01*
X2057Y298D01*
X2030Y306D01*
X2002D01*
X1975Y298D01*
X1951Y284D01*
X1932Y265D01*
X1918Y241D01*
X1910Y214D01*
Y186D01*
X1918Y159D01*
X1932Y135D01*
X1951Y116D01*
X1975Y102D01*
X2002Y94D01*
X2030D01*
X2057Y102D01*
X2081Y116D01*
X2100Y135D01*
X2114Y159D01*
X2122Y186D01*
Y214D01*
X2114Y241D01*
X2110Y248D01*
X3023Y1161D01*
X3029Y1169D01*
X3039Y1168D01*
X3042Y1167D01*
Y1019D01*
X2318Y294D01*
X2311Y298D01*
X2284Y306D01*
X2256D01*
X2229Y298D01*
X2205Y284D01*
X2186Y265D01*
X2172Y241D01*
X2165Y214D01*
Y186D01*
X2172Y159D01*
X2186Y135D01*
X2205Y116D01*
X2229Y102D01*
X2256Y94D01*
X2284D01*
X2311Y102D01*
X2335Y116D01*
X2354Y135D01*
X2368Y159D01*
X2375Y186D01*
Y214D01*
X2368Y241D01*
X2364Y248D01*
X3098Y982D01*
X3106Y992D01*
X3108Y1005D01*
Y2861D01*
X3176Y2929D01*
X3188Y2928D01*
X3191Y2924D01*
X3193Y2912D01*
Y2909D01*
X3183Y2895D01*
X3179Y2877D01*
Y2827D01*
X3183Y2809D01*
X3193Y2795D01*
X3207Y2785D01*
X3225Y2781D01*
X3375D01*
X3393Y2785D01*
X3407Y2795D01*
X3417Y2809D01*
X3421Y2827D01*
Y2877D01*
X3417Y2895D01*
X3407Y2909D01*
Y2922D01*
X3417Y2936D01*
X3421Y2954D01*
Y3004D01*
X3417Y3022D01*
X3407Y3036D01*
Y3049D01*
X3417Y3063D01*
X3419Y3073D01*
X3467D01*
Y1164D01*
X2588Y285D01*
X2565Y298D01*
X2538Y306D01*
X2510D01*
X2483Y298D01*
X2459Y284D01*
X2440Y265D01*
X2426Y241D01*
X2418Y214D01*
Y186D01*
X2426Y159D01*
X2440Y135D01*
X2459Y116D01*
X2483Y102D01*
X2510Y94D01*
X2538D01*
X2565Y102D01*
X2589Y116D01*
X2608Y135D01*
X2622Y159D01*
X2630Y186D01*
Y214D01*
X2626Y229D01*
X3523Y1127D01*
X3531Y1137D01*
X3533Y1150D01*
Y3091D01*
X3531Y3104D01*
X3523Y3115D01*
X3509Y3129D01*
X3498Y3137D01*
X3485Y3139D01*
X3419D01*
X3417Y3149D01*
X3407Y3163D01*
Y3176D01*
X3417Y3190D01*
X3421Y3208D01*
Y3258D01*
X3417Y3276D01*
X3407Y3290D01*
Y3303D01*
X3417Y3317D01*
X3421Y3335D01*
Y3385D01*
X3417Y3403D01*
X3407Y3417D01*
Y3430D01*
X3417Y3444D01*
X3421Y3462D01*
Y3512D01*
X3417Y3530D01*
X3407Y3544D01*
X3393Y3554D01*
X3375Y3558D01*
D02*
G37*
G36*
X3809Y311D02*
X3807D01*
Y213D01*
X3905D01*
Y215D01*
X3897Y243D01*
X3883Y268D01*
X3862Y289D01*
X3837Y303D01*
X3809Y311D01*
D02*
G37*
G36*
X3781D02*
X3779D01*
X3751Y303D01*
X3726Y289D01*
X3705Y268D01*
X3691Y243D01*
X3683Y215D01*
Y213D01*
X3781D01*
Y311D01*
D02*
G37*
G36*
X1111D02*
X1013D01*
Y213D01*
X1111D01*
Y311D01*
D02*
G37*
G36*
X987D02*
X889D01*
Y213D01*
X987D01*
Y311D01*
D02*
G37*
G36*
X4875Y287D02*
X4713D01*
Y125D01*
X4717D01*
X4751Y131D01*
X4783Y145D01*
X4812Y164D01*
X4836Y188D01*
X4855Y217D01*
X4869Y249D01*
X4875Y283D01*
Y287D01*
D02*
G37*
G36*
X4687D02*
X4525D01*
Y283D01*
X4531Y249D01*
X4545Y217D01*
X4564Y188D01*
X4588Y164D01*
X4617Y145D01*
X4649Y131D01*
X4683Y125D01*
X4687D01*
Y287D01*
D02*
G37*
G36*
X475D02*
X313D01*
Y125D01*
X317D01*
X351Y131D01*
X383Y145D01*
X412Y164D01*
X436Y188D01*
X455Y217D01*
X469Y249D01*
X475Y283D01*
Y287D01*
D02*
G37*
G36*
X287D02*
X125D01*
Y283D01*
X131Y249D01*
X145Y217D01*
X164Y188D01*
X188Y164D01*
X217Y145D01*
X249Y131D01*
X283Y125D01*
X287D01*
Y287D01*
D02*
G37*
G36*
X3554Y306D02*
X3526D01*
X3499Y298D01*
X3475Y284D01*
X3456Y265D01*
X3442Y241D01*
X3435Y214D01*
Y186D01*
X3442Y159D01*
X3456Y135D01*
X3475Y116D01*
X3499Y102D01*
X3526Y94D01*
X3554D01*
X3581Y102D01*
X3605Y116D01*
X3624Y135D01*
X3638Y159D01*
X3646Y186D01*
Y214D01*
X3638Y241D01*
X3624Y265D01*
X3605Y284D01*
X3581Y298D01*
X3554Y306D01*
D02*
G37*
G36*
X3300D02*
X3272D01*
X3245Y298D01*
X3221Y284D01*
X3202Y265D01*
X3188Y241D01*
X3181Y214D01*
Y186D01*
X3188Y159D01*
X3202Y135D01*
X3221Y116D01*
X3245Y102D01*
X3272Y94D01*
X3300D01*
X3327Y102D01*
X3351Y116D01*
X3370Y135D01*
X3384Y159D01*
X3392Y186D01*
Y214D01*
X3384Y241D01*
X3370Y265D01*
X3351Y284D01*
X3327Y298D01*
X3300Y306D01*
D02*
G37*
G36*
X3046D02*
X3018D01*
X2991Y298D01*
X2967Y284D01*
X2948Y265D01*
X2934Y241D01*
X2926Y214D01*
Y186D01*
X2934Y159D01*
X2948Y135D01*
X2967Y116D01*
X2991Y102D01*
X3018Y94D01*
X3046D01*
X3073Y102D01*
X3097Y116D01*
X3116Y135D01*
X3130Y159D01*
X3138Y186D01*
Y214D01*
X3130Y241D01*
X3116Y265D01*
X3097Y284D01*
X3073Y298D01*
X3046Y306D01*
D02*
G37*
G36*
X2792D02*
X2764D01*
X2737Y298D01*
X2713Y284D01*
X2694Y265D01*
X2680Y241D01*
X2673Y214D01*
Y186D01*
X2680Y159D01*
X2694Y135D01*
X2713Y116D01*
X2737Y102D01*
X2764Y94D01*
X2792D01*
X2819Y102D01*
X2843Y116D01*
X2862Y135D01*
X2876Y159D01*
X2883Y186D01*
Y214D01*
X2876Y241D01*
X2862Y265D01*
X2843Y284D01*
X2819Y298D01*
X2792Y306D01*
D02*
G37*
G36*
X1522D02*
X1494D01*
X1467Y298D01*
X1443Y284D01*
X1424Y265D01*
X1410Y241D01*
X1402Y214D01*
Y186D01*
X1410Y159D01*
X1424Y135D01*
X1443Y116D01*
X1467Y102D01*
X1494Y94D01*
X1522D01*
X1549Y102D01*
X1573Y116D01*
X1592Y135D01*
X1606Y159D01*
X1614Y186D01*
Y214D01*
X1606Y241D01*
X1592Y265D01*
X1573Y284D01*
X1549Y298D01*
X1522Y306D01*
D02*
G37*
G36*
X3905Y187D02*
X3807D01*
Y89D01*
X3809D01*
X3837Y97D01*
X3862Y111D01*
X3883Y132D01*
X3897Y157D01*
X3905Y185D01*
Y187D01*
D02*
G37*
G36*
X3781D02*
X3683D01*
Y185D01*
X3691Y157D01*
X3705Y132D01*
X3726Y111D01*
X3751Y97D01*
X3779Y89D01*
X3781D01*
Y187D01*
D02*
G37*
G36*
X1111D02*
X1013D01*
Y89D01*
X1111D01*
Y187D01*
D02*
G37*
G36*
X987D02*
X889D01*
Y89D01*
X987D01*
Y187D01*
D02*
G37*
%LPD*%
D10*
X1220Y2273D02*
X1225Y2267D01*
X1220Y2273D02*
Y2455D01*
X1323Y4850D02*
X1350D01*
X1825Y375D02*
X2850Y1400D01*
X1254Y200D02*
X1429Y375D01*
X1825D01*
X1762Y200D02*
X2925Y1363D01*
Y3100D01*
X3000Y1184D02*
Y3025D01*
X2016Y200D02*
X3000Y1184D01*
X2270Y200D02*
X3075Y1005D01*
Y2875D01*
X2550Y200D02*
X3500Y1150D01*
X2524Y200D02*
X2550D01*
X3500Y1150D02*
Y3091D01*
X2850Y1400D02*
Y3175D01*
X3162Y3487D01*
X2925Y3100D02*
X3177Y3352D01*
X3000Y3025D02*
X3185Y3210D01*
X3075Y2875D02*
X3177Y2977D01*
Y3352D02*
X3292D01*
X3300Y3360D01*
X3162Y3487D02*
X3300D01*
X3185Y3210D02*
X3277D01*
X3300Y3233D01*
X3298Y2977D02*
X3300Y2979D01*
X3177Y2977D02*
X3298D01*
X1700Y3360D02*
X1708Y3352D01*
X1823D02*
X2025Y3150D01*
Y1175D02*
Y3150D01*
X1708Y3352D02*
X1823D01*
X1925Y1050D02*
Y3125D01*
X1706Y3227D02*
X1823D01*
X1925Y3125D01*
X1700Y3233D02*
X1706Y3227D01*
X4008Y4975D02*
Y4975D01*
X4000Y5373D02*
X4008Y5365D01*
X1473Y3106D02*
X1700D01*
X1175Y3404D02*
X1473Y3106D01*
X1175Y3150D02*
X1346Y2979D01*
X1700D01*
X980Y2114D02*
Y2270D01*
Y2114D02*
X985Y2109D01*
X975Y2275D02*
X980Y2270D01*
X975Y2450D02*
X980Y2455D01*
X975Y2275D02*
Y2450D01*
X795Y2650D02*
X800Y2655D01*
X1388Y2845D02*
X1407Y2825D01*
X1425D01*
X1225Y2850D02*
X1227Y2852D01*
X1220Y2845D02*
X1225Y2850D01*
X800Y2655D02*
X810Y2645D01*
X3300Y3106D02*
X3485D01*
X3500Y3091D01*
D15*
X4142Y4975D02*
D03*
X4008D02*
D03*
X882D02*
D03*
X1018D02*
D03*
D16*
X3824Y4850D02*
D03*
X3676D02*
D03*
X1177D02*
D03*
X1323D02*
D03*
D17*
X3525Y4708D02*
D03*
Y4842D02*
D03*
X1475Y4708D02*
D03*
Y4842D02*
D03*
X1225Y2133D02*
D03*
Y2267D02*
D03*
D18*
X3300Y4858D02*
D03*
Y2979D02*
D03*
X1700Y2725D02*
D03*
Y3233D02*
D03*
Y3360D02*
D03*
Y3487D02*
D03*
Y3614D02*
D03*
Y4731D02*
D03*
Y4858D02*
D03*
Y4985D02*
D03*
Y3106D02*
D03*
Y2979D02*
D03*
Y2852D02*
D03*
X3300Y4985D02*
D03*
Y4731D02*
D03*
Y3614D02*
D03*
Y3487D02*
D03*
Y3360D02*
D03*
Y3233D02*
D03*
Y3106D02*
D03*
Y2852D02*
D03*
Y2725D02*
D03*
D19*
X980Y2645D02*
D03*
Y2550D02*
D03*
Y2455D02*
D03*
X1220D02*
D03*
Y2645D02*
D03*
D20*
X825Y2275D02*
D03*
X975D02*
D03*
D21*
X1425Y2850D02*
D03*
Y2700D02*
D03*
D22*
X1225Y2850D02*
D03*
X1065D02*
D03*
D23*
X800Y2655D02*
D03*
Y2495D02*
D03*
D24*
X3746Y5417D02*
D03*
X4254D02*
D03*
X1254D02*
D03*
X746D02*
D03*
D25*
X4000Y5448D02*
D03*
X1000D02*
D03*
D42*
X3850Y4847D02*
G03*
X4008Y4975I3J157D01*
G01*
X1018D02*
G03*
X1150Y4849I142J17D01*
G01*
X1000Y4992D02*
Y5448D01*
Y4992D02*
X1018Y4975D01*
X1358Y4858D02*
X1700D01*
X1350Y4850D02*
X1358Y4858D01*
X3300D02*
X3650D01*
X4008Y4975D02*
Y5365D01*
D43*
X1425Y1950D02*
Y2700D01*
X650Y2650D02*
X795D01*
X1227Y2852D02*
X1700D01*
X1220Y2645D02*
Y2845D01*
D44*
X810Y2645D02*
X980D01*
D45*
X1175Y3150D02*
D03*
D46*
Y3404D02*
D03*
D47*
X3794Y200D02*
D03*
X3540D02*
D03*
X1254D02*
D03*
X1508D02*
D03*
X1762D02*
D03*
X2016D02*
D03*
X2270D02*
D03*
X2524D02*
D03*
X2778D02*
D03*
X3032D02*
D03*
X3286D02*
D03*
D48*
X1000D02*
D03*
D49*
X4700Y300D02*
D03*
Y5400D02*
D03*
X300D02*
D03*
Y300D02*
D03*
D50*
X1275Y2550D02*
D03*
X1088Y2556D02*
D03*
X963D02*
D03*
X3876Y5089D02*
D03*
X3851Y4982D02*
D03*
X3933Y4728D02*
D03*
X4031Y4778D02*
D03*
X4103Y4861D02*
D03*
X4139Y5075D02*
D03*
X886Y5163D02*
D03*
X3512Y4990D02*
D03*
X3120Y4889D02*
D03*
X3133Y4780D02*
D03*
X3669Y4718D02*
D03*
X3775Y4748D02*
D03*
X3765Y4963D02*
D03*
X3658Y4989D02*
D03*
X1446Y4990D02*
D03*
X1336Y4987D02*
D03*
X1335Y4718D02*
D03*
X1869Y4785D02*
D03*
X1880Y4894D02*
D03*
X931Y4841D02*
D03*
X1009Y4763D02*
D03*
X1111Y4722D02*
D03*
X1221Y4719D02*
D03*
X1209Y4982D02*
D03*
X1149Y5074D02*
D03*
X4775Y5150D02*
D03*
X4525Y4650D02*
D03*
X4775Y4150D02*
D03*
X4525Y3650D02*
D03*
X4775Y3150D02*
D03*
X4525Y2650D02*
D03*
X4775Y2150D02*
D03*
X4525Y1650D02*
D03*
X4775Y1150D02*
D03*
X4525Y650D02*
D03*
X4025Y4650D02*
D03*
X4275Y4150D02*
D03*
X4025Y3650D02*
D03*
X4275Y3150D02*
D03*
X4025Y2650D02*
D03*
X4275Y2150D02*
D03*
X4025Y1650D02*
D03*
X4275Y1150D02*
D03*
X4025Y650D02*
D03*
X3775Y4150D02*
D03*
X3525Y3650D02*
D03*
X3775Y3150D02*
D03*
Y2150D02*
D03*
Y1150D02*
D03*
X3525Y650D02*
D03*
X3275Y5150D02*
D03*
X3025Y4650D02*
D03*
X3275Y4150D02*
D03*
X3025Y3650D02*
D03*
X3275Y2150D02*
D03*
Y1150D02*
D03*
X2775Y5150D02*
D03*
X2525Y4650D02*
D03*
X2775Y4150D02*
D03*
X2525Y3650D02*
D03*
X2775Y3150D02*
D03*
X2525Y2650D02*
D03*
X2775Y2150D02*
D03*
X2525Y1650D02*
D03*
X2275Y5150D02*
D03*
X2025Y4650D02*
D03*
X2275Y4150D02*
D03*
X2025Y3650D02*
D03*
X2275Y3150D02*
D03*
Y2150D02*
D03*
Y1150D02*
D03*
X1775Y5150D02*
D03*
Y4150D02*
D03*
X1525Y3650D02*
D03*
Y2650D02*
D03*
Y1650D02*
D03*
X1775Y1150D02*
D03*
X1025Y4650D02*
D03*
X1275Y4150D02*
D03*
X1025Y3650D02*
D03*
Y1650D02*
D03*
X1275Y1150D02*
D03*
X1025Y650D02*
D03*
X525Y4650D02*
D03*
X775Y4150D02*
D03*
X525Y3650D02*
D03*
X775Y3150D02*
D03*
X525Y2650D02*
D03*
X775Y2150D02*
D03*
X525Y1650D02*
D03*
X775Y1150D02*
D03*
X525Y650D02*
D03*
X985Y2109D02*
D03*
X1425Y1950D02*
D03*
X650Y2650D02*
D03*
X2035Y1184D02*
D03*
X1925Y1050D02*
D03*
M02*
