G04*
G04 #@! TF.GenerationSoftware,Altium Limited,Altium Designer,23.0.1 (38)*
G04*
G04 Layer_Physical_Order=2*
G04 Layer_Color=16711680*
%FSLAX42Y42*%
%MOMM*%
G71*
G04*
G04 #@! TF.SameCoordinates,CE83F5B9-99AD-438B-81A1-E9B9CC2BE83F*
G04*
G04*
G04 #@! TF.FilePolarity,Positive*
G04*
G01*
G75*
%ADD10C,0.25*%
%ADD24R,1.60X4.90*%
%ADD43C,0.80*%
%ADD45C,1.59*%
%ADD46R,1.59X1.59*%
%ADD47C,1.71*%
%ADD48R,1.71X1.71*%
%ADD49C,3.00*%
%ADD50C,0.60*%
G36*
X4967Y33D02*
X33D01*
Y5667D01*
X4967D01*
Y33D01*
D02*
G37*
%LPC*%
G36*
X4717Y5575D02*
X4713D01*
Y5413D01*
X4875D01*
Y5417D01*
X4869Y5451D01*
X4855Y5483D01*
X4836Y5512D01*
X4812Y5536D01*
X4783Y5555D01*
X4751Y5569D01*
X4717Y5575D01*
D02*
G37*
G36*
X4687D02*
X4683D01*
X4649Y5569D01*
X4617Y5555D01*
X4588Y5536D01*
X4564Y5512D01*
X4545Y5483D01*
X4531Y5451D01*
X4525Y5417D01*
Y5413D01*
X4687D01*
Y5575D01*
D02*
G37*
G36*
X317D02*
X313D01*
Y5413D01*
X475D01*
Y5417D01*
X469Y5451D01*
X455Y5483D01*
X436Y5512D01*
X412Y5536D01*
X383Y5555D01*
X351Y5569D01*
X317Y5575D01*
D02*
G37*
G36*
X287D02*
X283D01*
X249Y5569D01*
X217Y5555D01*
X188Y5536D01*
X164Y5512D01*
X145Y5483D01*
X131Y5451D01*
X125Y5417D01*
Y5413D01*
X287D01*
Y5575D01*
D02*
G37*
G36*
X4875Y5387D02*
X4713D01*
Y5225D01*
X4717D01*
X4751Y5231D01*
X4783Y5245D01*
X4812Y5264D01*
X4836Y5288D01*
X4855Y5317D01*
X4869Y5349D01*
X4875Y5383D01*
Y5387D01*
D02*
G37*
G36*
X4687D02*
X4525D01*
Y5383D01*
X4531Y5349D01*
X4545Y5317D01*
X4564Y5288D01*
X4588Y5264D01*
X4617Y5245D01*
X4649Y5231D01*
X4683Y5225D01*
X4687D01*
Y5387D01*
D02*
G37*
G36*
X475D02*
X313D01*
Y5225D01*
X317D01*
X351Y5231D01*
X383Y5245D01*
X412Y5264D01*
X436Y5288D01*
X455Y5317D01*
X469Y5349D01*
X475Y5383D01*
Y5387D01*
D02*
G37*
G36*
X287D02*
X125D01*
Y5383D01*
X131Y5349D01*
X145Y5317D01*
X164Y5288D01*
X188Y5264D01*
X217Y5245D01*
X249Y5231D01*
X283Y5225D01*
X287D01*
Y5387D01*
D02*
G37*
G36*
X1274Y3503D02*
X1076D01*
Y3304D01*
X1274D01*
Y3503D01*
D02*
G37*
G36*
X1188Y3249D02*
X1162D01*
X1137Y3243D01*
X1114Y3230D01*
X1095Y3211D01*
X1082Y3188D01*
X1076Y3163D01*
Y3137D01*
X1082Y3112D01*
X1095Y3089D01*
X1114Y3070D01*
X1137Y3057D01*
X1162Y3050D01*
X1188D01*
X1213Y3057D01*
X1236Y3070D01*
X1255Y3089D01*
X1268Y3112D01*
X1274Y3137D01*
Y3163D01*
X1268Y3188D01*
X1255Y3211D01*
X1236Y3230D01*
X1213Y3243D01*
X1188Y3249D01*
D02*
G37*
G36*
X2045Y1234D02*
X2025D01*
X2006Y1226D01*
X1997Y1217D01*
X1909D01*
X1896Y1214D01*
X1885Y1207D01*
X1485Y806D01*
X1477Y796D01*
X1477Y794D01*
X1475Y783D01*
Y300D01*
X1467Y298D01*
X1443Y284D01*
X1424Y265D01*
X1410Y241D01*
X1402Y214D01*
Y186D01*
X1410Y159D01*
X1424Y135D01*
X1443Y116D01*
X1467Y102D01*
X1494Y94D01*
X1522D01*
X1549Y102D01*
X1573Y116D01*
X1592Y135D01*
X1606Y159D01*
X1614Y186D01*
Y214D01*
X1606Y241D01*
X1592Y265D01*
X1573Y284D01*
X1549Y298D01*
X1541Y300D01*
Y769D01*
X1922Y1151D01*
X1997D01*
X2006Y1141D01*
X2025Y1134D01*
X2045D01*
X2063Y1141D01*
X2077Y1155D01*
X2085Y1174D01*
Y1194D01*
X2077Y1212D01*
X2063Y1226D01*
X2045Y1234D01*
D02*
G37*
G36*
X4717Y475D02*
X4713D01*
Y313D01*
X4875D01*
Y317D01*
X4869Y351D01*
X4855Y383D01*
X4836Y412D01*
X4812Y436D01*
X4783Y455D01*
X4751Y469D01*
X4717Y475D01*
D02*
G37*
G36*
X4687D02*
X4683D01*
X4649Y469D01*
X4617Y455D01*
X4588Y436D01*
X4564Y412D01*
X4545Y383D01*
X4531Y351D01*
X4525Y317D01*
Y313D01*
X4687D01*
Y475D01*
D02*
G37*
G36*
X317D02*
X313D01*
Y313D01*
X475D01*
Y317D01*
X469Y351D01*
X455Y383D01*
X436Y412D01*
X412Y436D01*
X383Y455D01*
X351Y469D01*
X317Y475D01*
D02*
G37*
G36*
X287D02*
X283D01*
X249Y469D01*
X217Y455D01*
X188Y436D01*
X164Y412D01*
X145Y383D01*
X131Y351D01*
X125Y317D01*
Y313D01*
X287D01*
Y475D01*
D02*
G37*
G36*
X3809Y311D02*
X3807D01*
Y213D01*
X3905D01*
Y215D01*
X3897Y243D01*
X3883Y268D01*
X3862Y289D01*
X3837Y303D01*
X3809Y311D01*
D02*
G37*
G36*
X3781D02*
X3779D01*
X3751Y303D01*
X3726Y289D01*
X3705Y268D01*
X3691Y243D01*
X3683Y215D01*
Y213D01*
X3781D01*
Y311D01*
D02*
G37*
G36*
X1111D02*
X1013D01*
Y213D01*
X1111D01*
Y311D01*
D02*
G37*
G36*
X987D02*
X889D01*
Y213D01*
X987D01*
Y311D01*
D02*
G37*
G36*
X4875Y287D02*
X4713D01*
Y125D01*
X4717D01*
X4751Y131D01*
X4783Y145D01*
X4812Y164D01*
X4836Y188D01*
X4855Y217D01*
X4869Y249D01*
X4875Y283D01*
Y287D01*
D02*
G37*
G36*
X4687D02*
X4525D01*
Y283D01*
X4531Y249D01*
X4545Y217D01*
X4564Y188D01*
X4588Y164D01*
X4617Y145D01*
X4649Y131D01*
X4683Y125D01*
X4687D01*
Y287D01*
D02*
G37*
G36*
X475D02*
X313D01*
Y125D01*
X317D01*
X351Y131D01*
X383Y145D01*
X412Y164D01*
X436Y188D01*
X455Y217D01*
X469Y249D01*
X475Y283D01*
Y287D01*
D02*
G37*
G36*
X287D02*
X125D01*
Y283D01*
X131Y249D01*
X145Y217D01*
X164Y188D01*
X188Y164D01*
X217Y145D01*
X249Y131D01*
X283Y125D01*
X287D01*
Y287D01*
D02*
G37*
G36*
X660Y2700D02*
X640D01*
X622Y2692D01*
X608Y2678D01*
X600Y2660D01*
Y2641D01*
X595Y2618D01*
X600Y2595D01*
X613Y2575D01*
X1132Y2057D01*
X1152Y2043D01*
X1175Y2039D01*
X1750D01*
X3481Y307D01*
Y288D01*
X3475Y284D01*
X3456Y265D01*
X3442Y241D01*
X3435Y214D01*
Y186D01*
X3442Y159D01*
X3456Y135D01*
X3475Y116D01*
X3499Y102D01*
X3526Y94D01*
X3554D01*
X3581Y102D01*
X3605Y116D01*
X3624Y135D01*
X3638Y159D01*
X3646Y186D01*
Y214D01*
X3638Y241D01*
X3624Y265D01*
X3605Y284D01*
X3603Y285D01*
Y333D01*
X3599Y356D01*
X3585Y376D01*
X1818Y2143D01*
X1798Y2157D01*
X1775Y2161D01*
X1200D01*
X700Y2662D01*
X699Y2662D01*
X692Y2678D01*
X678Y2692D01*
X660Y2700D01*
D02*
G37*
G36*
X1650Y2011D02*
X1425D01*
X1402Y2007D01*
X1382Y1993D01*
X1368Y1973D01*
X1364Y1950D01*
X1368Y1927D01*
X1382Y1907D01*
X1402Y1893D01*
X1425Y1889D01*
X1625D01*
X3217Y297D01*
Y280D01*
X3202Y265D01*
X3188Y241D01*
X3181Y214D01*
Y186D01*
X3188Y159D01*
X3202Y135D01*
X3221Y116D01*
X3245Y102D01*
X3272Y94D01*
X3300D01*
X3327Y102D01*
X3351Y116D01*
X3370Y135D01*
X3384Y159D01*
X3392Y186D01*
Y214D01*
X3384Y241D01*
X3370Y265D01*
X3351Y284D01*
X3339Y291D01*
Y322D01*
X3334Y346D01*
X3321Y366D01*
X1693Y1993D01*
X1673Y2007D01*
X1650Y2011D01*
D02*
G37*
G36*
X995Y2159D02*
X975D01*
X956Y2151D01*
X942Y2137D01*
X935Y2119D01*
Y2099D01*
X942Y2080D01*
X956Y2066D01*
X966Y2062D01*
X1227Y1802D01*
X1237Y1794D01*
X1239Y1794D01*
X1250Y1792D01*
X1588D01*
X2117Y1263D01*
Y1095D01*
X2119Y1084D01*
X2119Y1082D01*
X2127Y1072D01*
X2942Y256D01*
X2934Y241D01*
X2926Y214D01*
Y186D01*
X2934Y159D01*
X2948Y135D01*
X2967Y116D01*
X2991Y102D01*
X3018Y94D01*
X3046D01*
X3073Y102D01*
X3097Y116D01*
X3116Y135D01*
X3130Y159D01*
X3138Y186D01*
Y214D01*
X3130Y241D01*
X3116Y265D01*
X3097Y284D01*
X3073Y298D01*
X3046Y306D01*
X3018D01*
X2993Y299D01*
X2183Y1109D01*
Y1277D01*
X2181Y1290D01*
X2173Y1301D01*
X1626Y1848D01*
X1615Y1856D01*
X1613Y1856D01*
X1602Y1858D01*
X1264D01*
X1031Y2091D01*
X1035Y2099D01*
Y2119D01*
X1027Y2137D01*
X1013Y2151D01*
X995Y2159D01*
D02*
G37*
G36*
X1935Y1100D02*
X1915D01*
X1897Y1092D01*
X1883Y1078D01*
X1875Y1060D01*
Y1040D01*
X1883Y1022D01*
X1897Y1008D01*
X1915Y1000D01*
X1935D01*
X1936Y1000D01*
X2685Y251D01*
X2680Y241D01*
X2673Y214D01*
Y186D01*
X2680Y159D01*
X2694Y135D01*
X2713Y116D01*
X2737Y102D01*
X2764Y94D01*
X2792D01*
X2819Y102D01*
X2843Y116D01*
X2862Y135D01*
X2876Y159D01*
X2883Y186D01*
Y214D01*
X2876Y241D01*
X2862Y265D01*
X2843Y284D01*
X2819Y298D01*
X2792Y306D01*
X2764D01*
X2737Y298D01*
X2734Y296D01*
X1975Y1055D01*
Y1060D01*
X1967Y1078D01*
X1953Y1092D01*
X1935Y1100D01*
D02*
G37*
G36*
X2538Y306D02*
X2510D01*
X2483Y298D01*
X2459Y284D01*
X2440Y265D01*
X2426Y241D01*
X2418Y214D01*
Y186D01*
X2426Y159D01*
X2440Y135D01*
X2459Y116D01*
X2483Y102D01*
X2510Y94D01*
X2538D01*
X2565Y102D01*
X2589Y116D01*
X2608Y135D01*
X2622Y159D01*
X2630Y186D01*
Y214D01*
X2622Y241D01*
X2608Y265D01*
X2589Y284D01*
X2565Y298D01*
X2538Y306D01*
D02*
G37*
G36*
X2284D02*
X2256D01*
X2229Y298D01*
X2205Y284D01*
X2186Y265D01*
X2172Y241D01*
X2165Y214D01*
Y186D01*
X2172Y159D01*
X2186Y135D01*
X2205Y116D01*
X2229Y102D01*
X2256Y94D01*
X2284D01*
X2311Y102D01*
X2335Y116D01*
X2354Y135D01*
X2368Y159D01*
X2375Y186D01*
Y214D01*
X2368Y241D01*
X2354Y265D01*
X2335Y284D01*
X2311Y298D01*
X2284Y306D01*
D02*
G37*
G36*
X2030D02*
X2002D01*
X1975Y298D01*
X1951Y284D01*
X1932Y265D01*
X1918Y241D01*
X1910Y214D01*
Y186D01*
X1918Y159D01*
X1932Y135D01*
X1951Y116D01*
X1975Y102D01*
X2002Y94D01*
X2030D01*
X2057Y102D01*
X2081Y116D01*
X2100Y135D01*
X2114Y159D01*
X2122Y186D01*
Y214D01*
X2114Y241D01*
X2100Y265D01*
X2081Y284D01*
X2057Y298D01*
X2030Y306D01*
D02*
G37*
G36*
X1776D02*
X1748D01*
X1721Y298D01*
X1697Y284D01*
X1678Y265D01*
X1664Y241D01*
X1657Y214D01*
Y186D01*
X1664Y159D01*
X1678Y135D01*
X1697Y116D01*
X1721Y102D01*
X1748Y94D01*
X1776D01*
X1803Y102D01*
X1827Y116D01*
X1846Y135D01*
X1860Y159D01*
X1867Y186D01*
Y214D01*
X1860Y241D01*
X1846Y265D01*
X1827Y284D01*
X1803Y298D01*
X1776Y306D01*
D02*
G37*
G36*
X1268D02*
X1240D01*
X1213Y298D01*
X1189Y284D01*
X1170Y265D01*
X1156Y241D01*
X1148Y214D01*
Y186D01*
X1156Y159D01*
X1170Y135D01*
X1189Y116D01*
X1213Y102D01*
X1240Y94D01*
X1268D01*
X1295Y102D01*
X1319Y116D01*
X1338Y135D01*
X1352Y159D01*
X1360Y186D01*
Y214D01*
X1352Y241D01*
X1338Y265D01*
X1319Y284D01*
X1295Y298D01*
X1268Y306D01*
D02*
G37*
G36*
X3905Y187D02*
X3807D01*
Y89D01*
X3809D01*
X3837Y97D01*
X3862Y111D01*
X3883Y132D01*
X3897Y157D01*
X3905Y185D01*
Y187D01*
D02*
G37*
G36*
X3781D02*
X3683D01*
Y185D01*
X3691Y157D01*
X3705Y132D01*
X3726Y111D01*
X3751Y97D01*
X3779Y89D01*
X3781D01*
Y187D01*
D02*
G37*
G36*
X1111D02*
X1013D01*
Y89D01*
X1111D01*
Y187D01*
D02*
G37*
G36*
X987D02*
X889D01*
Y89D01*
X987D01*
Y187D01*
D02*
G37*
%LPD*%
D10*
X1508Y783D02*
X1909Y1184D01*
X1508Y200D02*
Y783D01*
X2150Y1095D02*
Y1277D01*
X1602Y1825D02*
X2150Y1277D01*
Y1095D02*
X3070Y175D01*
X975Y2100D02*
X1250Y1825D01*
X1602D01*
X657Y2618D02*
Y2643D01*
X650Y2650D02*
X657Y2643D01*
X1909Y1184D02*
X2035D01*
X1925Y1050D02*
X1933D01*
X2808Y175D02*
X2816D01*
X1933Y1050D02*
X2808Y175D01*
D24*
X3746Y5417D02*
D03*
X4254D02*
D03*
X1254D02*
D03*
X746D02*
D03*
D43*
X1650Y1950D02*
X3278Y322D01*
Y208D02*
Y322D01*
Y208D02*
X3286Y200D01*
X1775Y2100D02*
X3542Y333D01*
Y211D02*
X3574Y179D01*
X3542Y211D02*
Y333D01*
X1175Y2100D02*
X1775D01*
X657Y2618D02*
X1175Y2100D01*
X1425Y1950D02*
X1650D01*
D45*
X1175Y3150D02*
D03*
D46*
Y3404D02*
D03*
D47*
X3794Y200D02*
D03*
X3540D02*
D03*
X1254D02*
D03*
X1508D02*
D03*
X1762D02*
D03*
X2016D02*
D03*
X2270D02*
D03*
X2524D02*
D03*
X2778D02*
D03*
X3032D02*
D03*
X3286D02*
D03*
D48*
X1000D02*
D03*
D49*
X4700Y300D02*
D03*
Y5400D02*
D03*
X300D02*
D03*
Y300D02*
D03*
D50*
X1275Y2550D02*
D03*
X1088Y2556D02*
D03*
X963D02*
D03*
X3876Y5089D02*
D03*
X3851Y4982D02*
D03*
X3933Y4728D02*
D03*
X4031Y4778D02*
D03*
X4103Y4861D02*
D03*
X4139Y5075D02*
D03*
X886Y5163D02*
D03*
X3512Y4990D02*
D03*
X3120Y4889D02*
D03*
X3133Y4780D02*
D03*
X3669Y4718D02*
D03*
X3775Y4748D02*
D03*
X3765Y4963D02*
D03*
X3658Y4989D02*
D03*
X1446Y4990D02*
D03*
X1336Y4987D02*
D03*
X1335Y4718D02*
D03*
X1869Y4785D02*
D03*
X1880Y4894D02*
D03*
X931Y4841D02*
D03*
X1009Y4763D02*
D03*
X1111Y4722D02*
D03*
X1221Y4719D02*
D03*
X1209Y4982D02*
D03*
X1149Y5074D02*
D03*
X4775Y5150D02*
D03*
X4525Y4650D02*
D03*
X4775Y4150D02*
D03*
X4525Y3650D02*
D03*
X4775Y3150D02*
D03*
X4525Y2650D02*
D03*
X4775Y2150D02*
D03*
X4525Y1650D02*
D03*
X4775Y1150D02*
D03*
X4525Y650D02*
D03*
X4025Y4650D02*
D03*
X4275Y4150D02*
D03*
X4025Y3650D02*
D03*
X4275Y3150D02*
D03*
X4025Y2650D02*
D03*
X4275Y2150D02*
D03*
X4025Y1650D02*
D03*
X4275Y1150D02*
D03*
X4025Y650D02*
D03*
X3775Y4150D02*
D03*
X3525Y3650D02*
D03*
X3775Y3150D02*
D03*
Y2150D02*
D03*
Y1150D02*
D03*
X3525Y650D02*
D03*
X3275Y5150D02*
D03*
X3025Y4650D02*
D03*
X3275Y4150D02*
D03*
X3025Y3650D02*
D03*
X3275Y2150D02*
D03*
Y1150D02*
D03*
X2775Y5150D02*
D03*
X2525Y4650D02*
D03*
X2775Y4150D02*
D03*
X2525Y3650D02*
D03*
X2775Y3150D02*
D03*
X2525Y2650D02*
D03*
X2775Y2150D02*
D03*
X2525Y1650D02*
D03*
X2275Y5150D02*
D03*
X2025Y4650D02*
D03*
X2275Y4150D02*
D03*
X2025Y3650D02*
D03*
X2275Y3150D02*
D03*
Y2150D02*
D03*
Y1150D02*
D03*
X1775Y5150D02*
D03*
Y4150D02*
D03*
X1525Y3650D02*
D03*
Y2650D02*
D03*
Y1650D02*
D03*
X1775Y1150D02*
D03*
X1025Y4650D02*
D03*
X1275Y4150D02*
D03*
X1025Y3650D02*
D03*
Y1650D02*
D03*
X1275Y1150D02*
D03*
X1025Y650D02*
D03*
X525Y4650D02*
D03*
X775Y4150D02*
D03*
X525Y3650D02*
D03*
X775Y3150D02*
D03*
X525Y2650D02*
D03*
X775Y2150D02*
D03*
X525Y1650D02*
D03*
X775Y1150D02*
D03*
X525Y650D02*
D03*
X985Y2109D02*
D03*
X1425Y1950D02*
D03*
X650Y2650D02*
D03*
X2035Y1184D02*
D03*
X1925Y1050D02*
D03*
M02*
