G04*
G04 #@! TF.GenerationSoftware,Altium Limited,Altium Designer,23.0.1 (38)*
G04*
G04 Layer_Color=65535*
%FSLAX42Y42*%
%MOMM*%
G71*
G04*
G04 #@! TF.SameCoordinates,CE83F5B9-99AD-438B-81A1-E9B9CC2BE83F*
G04*
G04*
G04 #@! TF.FilePolarity,Positive*
G04*
G01*
G75*
%ADD10C,0.25*%
%ADD11C,0.20*%
%ADD12C,0.15*%
%ADD13C,0.12*%
%ADD14C,0.25*%
D10*
X3450Y2575D02*
G03*
X3450Y2575I-50J0D01*
G01*
D11*
X3740Y4809D02*
X3760D01*
X3740Y4891D02*
X3760D01*
X1240Y4891D02*
X1260D01*
X1240Y4809D02*
X1260D01*
X1070Y2700D02*
X1130D01*
X1070Y2400D02*
X1130D01*
X1070D02*
Y2700D01*
X1130Y2400D02*
Y2700D01*
X895Y2312D02*
X905D01*
X895Y2238D02*
X905D01*
X1462Y2770D02*
Y2780D01*
X1388Y2770D02*
Y2780D01*
X3650Y5867D02*
X4350D01*
X4114Y5703D02*
X4350D01*
X4245Y6154D02*
X4266Y6192D01*
X4271D02*
X4309Y6213D01*
Y6227D01*
X4272Y6248D02*
X4309Y6227D01*
X4272Y6248D02*
X4309Y6269D01*
Y6283D01*
X4272Y6304D02*
X4309Y6283D01*
X4272Y6304D02*
X4309Y6325D01*
Y6339D01*
X4272Y6360D02*
X4309Y6339D01*
X4272Y6360D02*
X4309Y6381D01*
Y6395D01*
X4272Y6416D02*
X4309Y6395D01*
X4272Y6416D02*
X4309Y6437D01*
Y6451D01*
X4272Y6472D02*
X4309Y6451D01*
X4272Y6472D02*
X4309Y6493D01*
Y6507D01*
X4272Y6528D02*
X4309Y6507D01*
X4272Y6528D02*
X4309Y6549D01*
Y6563D01*
X4272Y6584D02*
X4309Y6563D01*
X3733Y6584D02*
X4272D01*
X3691Y6563D02*
X3733Y6584D01*
X3691Y6549D02*
Y6563D01*
Y6549D02*
X3728Y6528D01*
X3691Y6507D02*
X3728Y6528D01*
X3691Y6493D02*
Y6507D01*
Y6493D02*
X3728Y6472D01*
X3691Y6451D02*
X3728Y6472D01*
X3691Y6437D02*
Y6451D01*
Y6437D02*
X3728Y6416D01*
X3691Y6395D02*
X3728Y6416D01*
X3691Y6381D02*
Y6395D01*
Y6381D02*
X3728Y6360D01*
X3691Y6339D02*
X3728Y6360D01*
X3691Y6325D02*
Y6339D01*
Y6325D02*
X3728Y6304D01*
X3691Y6283D02*
X3728Y6304D01*
X3691Y6269D02*
Y6283D01*
Y6269D02*
X3728Y6248D01*
X3691Y6227D02*
X3728Y6248D01*
X3691Y6213D02*
Y6227D01*
Y6213D02*
X3728Y6192D01*
X4271D01*
X3733D02*
X3755Y6154D01*
X3755D02*
X4245D01*
Y5867D02*
Y6154D01*
X4267Y6584D02*
Y6656D01*
X3733D02*
X4267D01*
X3733Y6584D02*
Y6656D01*
X3755Y5867D02*
Y6154D01*
X3691Y6269D02*
X4309Y6213D01*
X3691Y6283D02*
X4309Y6227D01*
X3728Y6304D02*
X4272Y6248D01*
X3728D02*
X4271Y6192D01*
X3691Y6213D02*
X4266Y6192D01*
X3691Y6227D02*
X4271Y6192D01*
X3691Y6325D02*
X4309Y6269D01*
X3691Y6339D02*
X4309Y6283D01*
X3728Y6360D02*
X4272Y6304D01*
X3691Y6381D02*
X4309Y6325D01*
X3691Y6395D02*
X4309Y6339D01*
X3728Y6416D02*
X4272Y6360D01*
X3691Y6437D02*
X4309Y6381D01*
X3691Y6451D02*
X4309Y6395D01*
X3728Y6472D02*
X4272Y6416D01*
X3691Y6493D02*
X4309Y6437D01*
X3691Y6507D02*
X4309Y6451D01*
X3728Y6528D02*
X4272Y6472D01*
X3691Y6549D02*
X4309Y6493D01*
X3691Y6563D02*
X4309Y6507D01*
X3733Y6584D02*
X4272Y6528D01*
X3733Y6584D02*
X4309Y6549D01*
X3733Y6584D02*
X4309Y6563D01*
X4350Y5703D02*
Y5867D01*
X3650Y5703D02*
Y5867D01*
Y5703D02*
X3886D01*
X650D02*
X886D01*
X650D02*
Y5867D01*
X1350Y5703D02*
Y5867D01*
X734Y6584D02*
X1309Y6563D01*
X734Y6584D02*
X1309Y6549D01*
X734Y6584D02*
X1272Y6528D01*
X691Y6563D02*
X1309Y6507D01*
X691Y6549D02*
X1309Y6493D01*
X728Y6528D02*
X1272Y6472D01*
X691Y6507D02*
X1309Y6451D01*
X691Y6493D02*
X1309Y6437D01*
X728Y6472D02*
X1272Y6416D01*
X691Y6451D02*
X1309Y6395D01*
X691Y6437D02*
X1309Y6381D01*
X728Y6416D02*
X1272Y6360D01*
X691Y6395D02*
X1309Y6339D01*
X691Y6381D02*
X1309Y6325D01*
X728Y6360D02*
X1272Y6304D01*
X691Y6339D02*
X1309Y6283D01*
X691Y6325D02*
X1309Y6269D01*
X691Y6227D02*
X1271Y6192D01*
X691Y6213D02*
X1266Y6192D01*
X728Y6248D02*
X1271Y6192D01*
X728Y6304D02*
X1272Y6248D01*
X691Y6283D02*
X1309Y6227D01*
X691Y6269D02*
X1309Y6213D01*
X755Y5867D02*
Y6154D01*
X734Y6584D02*
Y6656D01*
X1266D01*
Y6584D02*
Y6656D01*
X1245Y5867D02*
Y6154D01*
X755D02*
X1245D01*
X734Y6192D02*
X755Y6154D01*
X728Y6192D02*
X1271D01*
X691Y6213D02*
X728Y6192D01*
X691Y6213D02*
Y6227D01*
X728Y6248D01*
X691Y6269D02*
X728Y6248D01*
X691Y6269D02*
Y6283D01*
X728Y6304D01*
X691Y6325D02*
X728Y6304D01*
X691Y6325D02*
Y6339D01*
X728Y6360D01*
X691Y6381D02*
X728Y6360D01*
X691Y6381D02*
Y6395D01*
X728Y6416D01*
X691Y6437D02*
X728Y6416D01*
X691Y6437D02*
Y6451D01*
X728Y6472D01*
X691Y6493D02*
X728Y6472D01*
X691Y6493D02*
Y6507D01*
X728Y6528D01*
X691Y6549D02*
X728Y6528D01*
X691Y6549D02*
Y6563D01*
X734Y6584D01*
X1272D01*
X1309Y6563D01*
Y6549D02*
Y6563D01*
X1272Y6528D02*
X1309Y6549D01*
X1272Y6528D02*
X1309Y6507D01*
Y6493D02*
Y6507D01*
X1272Y6472D02*
X1309Y6493D01*
X1272Y6472D02*
X1309Y6451D01*
Y6437D02*
Y6451D01*
X1272Y6416D02*
X1309Y6437D01*
X1272Y6416D02*
X1309Y6395D01*
Y6381D02*
Y6395D01*
X1272Y6360D02*
X1309Y6381D01*
X1272Y6360D02*
X1309Y6339D01*
Y6325D02*
Y6339D01*
X1272Y6304D02*
X1309Y6325D01*
X1272Y6304D02*
X1309Y6283D01*
Y6269D02*
Y6283D01*
X1272Y6248D02*
X1309Y6269D01*
X1272Y6248D02*
X1309Y6227D01*
Y6213D02*
Y6227D01*
X1271Y6192D02*
X1309Y6213D01*
X1245Y6154D02*
X1266Y6192D01*
X1114Y5703D02*
X1350D01*
X650Y5867D02*
X1350D01*
D12*
X1700Y3725D02*
Y4625D01*
X3300Y3725D02*
Y4625D01*
X1700Y5075D02*
X3300D01*
X1700Y2575D02*
X3300D01*
D13*
X1048Y3023D02*
Y3531D01*
Y3023D02*
X1302D01*
Y3531D01*
X1048D02*
X1302D01*
X896Y73D02*
Y327D01*
X3910D01*
Y73D02*
Y327D01*
X896Y73D02*
X3910D01*
X3667Y5050D02*
Y4950D01*
X3733D01*
X3833D02*
X3767D01*
X3833Y5017D01*
Y5033D01*
X3817Y5050D01*
X3783D01*
X3767Y5033D01*
X4433Y5150D02*
X4400D01*
X4417D01*
Y5067D01*
X4400Y5050D01*
X4383D01*
X4367Y5067D01*
X4467Y5050D02*
Y5150D01*
X4517D01*
X4533Y5133D01*
Y5100D01*
X4517Y5083D01*
X4467D01*
X4617Y5050D02*
Y5150D01*
X4567Y5100D01*
X4633D01*
X4058Y4858D02*
X4042Y4875D01*
X4008D01*
X3992Y4858D01*
Y4792D01*
X4008Y4775D01*
X4042D01*
X4058Y4792D01*
X4092Y4875D02*
X4158D01*
Y4858D01*
X4092Y4792D01*
Y4775D01*
X3492Y4508D02*
X3475Y4492D01*
Y4458D01*
X3492Y4442D01*
X3558D01*
X3575Y4458D01*
Y4492D01*
X3558Y4508D01*
X3475Y4608D02*
Y4542D01*
X3525D01*
X3508Y4575D01*
Y4592D01*
X3525Y4608D01*
X3558D01*
X3575Y4592D01*
Y4558D01*
X3558Y4542D01*
X4025Y250D02*
X3992D01*
X4008D01*
Y167D01*
X3992Y150D01*
X3975D01*
X3958Y167D01*
X4058Y150D02*
Y250D01*
X4108D01*
X4125Y233D01*
Y200D01*
X4108Y183D01*
X4058D01*
X4158Y150D02*
X4192D01*
X4175D01*
Y250D01*
X4158Y233D01*
X1050Y2208D02*
X1133D01*
X1150Y2225D01*
Y2258D01*
X1133Y2275D01*
X1050D01*
X1150Y2308D02*
Y2342D01*
Y2325D01*
X1050D01*
X1067Y2308D01*
X1475Y2467D02*
X1375D01*
Y2517D01*
X1392Y2533D01*
X1425D01*
X1442Y2517D01*
Y2467D01*
Y2500D02*
X1475Y2533D01*
Y2633D02*
Y2567D01*
X1408Y2633D01*
X1392D01*
X1375Y2617D01*
Y2583D01*
X1392Y2567D01*
X833Y2100D02*
Y2200D01*
X883D01*
X900Y2183D01*
Y2150D01*
X883Y2133D01*
X833D01*
X867D02*
X900Y2100D01*
X933D02*
X967D01*
X950D01*
Y2200D01*
X933Y2183D01*
X2508Y2400D02*
Y2500D01*
X2542Y2467D01*
X2575Y2500D01*
Y2400D01*
X2608D02*
X2642D01*
X2625D01*
Y2500D01*
X2608Y2483D01*
X1158Y5050D02*
Y4950D01*
X1225D01*
X1258D02*
X1292D01*
X1275D01*
Y5050D01*
X1258Y5033D01*
X508Y5100D02*
X475D01*
X492D01*
Y5017D01*
X475Y5000D01*
X458D01*
X442Y5017D01*
X542Y5000D02*
Y5100D01*
X592D01*
X608Y5083D01*
Y5050D01*
X592Y5033D01*
X542D01*
X642Y5083D02*
X658Y5100D01*
X692D01*
X708Y5083D01*
Y5067D01*
X692Y5050D01*
X675D01*
X692D01*
X708Y5033D01*
Y5017D01*
X692Y5000D01*
X658D01*
X642Y5017D01*
X1108Y3675D02*
X1075D01*
X1092D01*
Y3592D01*
X1075Y3575D01*
X1058D01*
X1042Y3592D01*
X1142Y3575D02*
Y3675D01*
X1192D01*
X1208Y3658D01*
Y3625D01*
X1192Y3608D01*
X1142D01*
X1308Y3575D02*
X1242D01*
X1308Y3642D01*
Y3658D01*
X1292Y3675D01*
X1258D01*
X1242Y3658D01*
X908Y5158D02*
X892Y5175D01*
X858D01*
X842Y5158D01*
Y5092D01*
X858Y5075D01*
X892D01*
X908Y5092D01*
X1008Y5175D02*
X975Y5158D01*
X942Y5125D01*
Y5092D01*
X958Y5075D01*
X992D01*
X1008Y5092D01*
Y5108D01*
X992Y5125D01*
X942D01*
X1442Y4533D02*
X1425Y4517D01*
Y4483D01*
X1442Y4467D01*
X1508D01*
X1525Y4483D01*
Y4517D01*
X1508Y4533D01*
X1525Y4617D02*
X1425D01*
X1475Y4567D01*
Y4633D01*
X883Y2883D02*
X867Y2900D01*
X833D01*
X817Y2883D01*
Y2817D01*
X833Y2800D01*
X867D01*
X883Y2817D01*
X917Y2883D02*
X933Y2900D01*
X967D01*
X983Y2883D01*
Y2867D01*
X967Y2850D01*
X950D01*
X967D01*
X983Y2833D01*
Y2817D01*
X967Y2800D01*
X933D01*
X917Y2817D01*
X1342Y2183D02*
X1325Y2167D01*
Y2133D01*
X1342Y2117D01*
X1408D01*
X1425Y2133D01*
Y2167D01*
X1408Y2183D01*
X1425Y2283D02*
Y2217D01*
X1358Y2283D01*
X1342D01*
X1325Y2267D01*
Y2233D01*
X1342Y2217D01*
X625Y2583D02*
X608Y2600D01*
X575D01*
X558Y2583D01*
Y2517D01*
X575Y2500D01*
X608D01*
X625Y2517D01*
X658Y2500D02*
X692D01*
X675D01*
Y2600D01*
X658Y2583D01*
D14*
X425Y3225D02*
Y3075D01*
X500D01*
X525Y3100D01*
Y3200D01*
X500Y3225D01*
X425D01*
X575D02*
X625D01*
X600D01*
Y3075D01*
X575D01*
X625D01*
X775Y3225D02*
X725D01*
X700Y3200D01*
Y3100D01*
X725Y3075D01*
X775D01*
X800Y3100D01*
Y3200D01*
X775Y3225D01*
X850D02*
X950D01*
Y3200D01*
X850Y3100D01*
Y3075D01*
X425Y3500D02*
Y3350D01*
X500D01*
X525Y3375D01*
Y3475D01*
X500Y3500D01*
X425D01*
X575D02*
X625D01*
X600D01*
Y3350D01*
X575D01*
X625D01*
X775Y3500D02*
X725D01*
X700Y3475D01*
Y3375D01*
X725Y3350D01*
X775D01*
X800Y3375D01*
Y3475D01*
X775Y3500D01*
X850Y3475D02*
X875Y3500D01*
X925D01*
X950Y3475D01*
Y3450D01*
X925Y3425D01*
X950Y3400D01*
Y3375D01*
X925Y3350D01*
X875D01*
X850Y3375D01*
Y3400D01*
X875Y3425D01*
X850Y3450D01*
Y3475D01*
X875Y3425D02*
X925D01*
X4550Y1525D02*
X4500Y1475D01*
X4450D01*
X4400Y1525D01*
X4450Y1700D02*
Y1625D01*
X4475Y1600D01*
X4525D01*
X4550Y1625D01*
Y1700D01*
Y1750D02*
X4500Y1800D01*
X4450D01*
X4400Y1750D01*
X4425Y2125D02*
X4400Y2100D01*
Y2050D01*
X4425Y2025D01*
X4525D01*
X4550Y2050D01*
Y2100D01*
X4525Y2125D01*
X4475D01*
Y2075D01*
X4400Y2175D02*
X4550D01*
Y2250D01*
X4525Y2275D01*
X4500D01*
X4475Y2250D01*
Y2175D01*
Y2250D01*
X4450Y2275D01*
X4425D01*
X4400Y2250D01*
Y2175D01*
Y2325D02*
X4550D01*
Y2425D01*
Y2575D02*
Y2475D01*
X4450Y2575D01*
X4425D01*
X4400Y2550D01*
Y2500D01*
X4425Y2475D01*
Y2625D02*
X4400Y2650D01*
Y2700D01*
X4425Y2725D01*
X4525D01*
X4550Y2700D01*
Y2650D01*
X4525Y2625D01*
X4425D01*
X4550Y2875D02*
Y2775D01*
X4450Y2875D01*
X4425D01*
X4400Y2850D01*
Y2800D01*
X4425Y2775D01*
X4400Y3025D02*
Y2925D01*
X4475D01*
X4450Y2975D01*
Y3000D01*
X4475Y3025D01*
X4525D01*
X4550Y3000D01*
Y2950D01*
X4525Y2925D01*
X4025Y1550D02*
Y1450D01*
X4175D01*
Y1550D01*
X4100Y1450D02*
Y1500D01*
X4050Y1600D02*
X4025Y1625D01*
Y1675D01*
X4050Y1700D01*
X4075D01*
X4100Y1675D01*
X4125Y1700D01*
X4150D01*
X4175Y1675D01*
Y1625D01*
X4150Y1600D01*
X4125D01*
X4100Y1625D01*
X4075Y1600D01*
X4050D01*
X4100Y1625D02*
Y1675D01*
X4050Y1750D02*
X4025Y1775D01*
Y1825D01*
X4050Y1850D01*
X4150D01*
X4175Y1825D01*
Y1775D01*
X4150Y1750D01*
X4050D01*
X4175Y2125D02*
Y2075D01*
X4150Y2050D01*
X4100D01*
X4075Y2075D01*
Y2125D01*
X4100Y2150D01*
X4125D01*
Y2050D01*
X4075Y2200D02*
X4175Y2250D01*
X4075Y2300D01*
Y2375D02*
Y2425D01*
X4100Y2450D01*
X4175D01*
Y2375D01*
X4150Y2350D01*
X4125Y2375D01*
Y2450D01*
X4175Y2500D02*
Y2550D01*
Y2525D01*
X4025D01*
Y2500D01*
X4075Y2625D02*
X4150D01*
X4175Y2650D01*
Y2725D01*
X4075D01*
Y2800D02*
Y2850D01*
X4100Y2875D01*
X4175D01*
Y2800D01*
X4150Y2775D01*
X4125Y2800D01*
Y2875D01*
X4050Y2950D02*
X4075D01*
Y2925D01*
Y2975D01*
Y2950D01*
X4150D01*
X4175Y2975D01*
Y3050D02*
Y3100D01*
Y3075D01*
X4075D01*
Y3050D01*
X4175Y3200D02*
Y3250D01*
X4150Y3275D01*
X4100D01*
X4075Y3250D01*
Y3200D01*
X4100Y3175D01*
X4150D01*
X4175Y3200D01*
Y3325D02*
X4075D01*
Y3400D01*
X4100Y3425D01*
X4175D01*
Y3625D02*
X4075D01*
Y3650D01*
X4100Y3675D01*
X4175D01*
X4100D01*
X4075Y3700D01*
X4100Y3725D01*
X4175D01*
Y3800D02*
Y3850D01*
X4150Y3875D01*
X4100D01*
X4075Y3850D01*
Y3800D01*
X4100Y3775D01*
X4150D01*
X4175Y3800D01*
X4025Y4025D02*
X4175D01*
Y3950D01*
X4150Y3925D01*
X4100D01*
X4075Y3950D01*
Y4025D01*
Y4075D02*
X4150D01*
X4175Y4100D01*
Y4175D01*
X4075D01*
X4175Y4225D02*
Y4274D01*
Y4249D01*
X4025D01*
Y4225D01*
X4175Y4424D02*
Y4374D01*
X4150Y4349D01*
X4100D01*
X4075Y4374D01*
Y4424D01*
X4100Y4449D01*
X4125D01*
Y4349D01*
X3225Y5375D02*
Y5225D01*
Y5300D01*
X3325D01*
Y5375D01*
Y5225D01*
X3375Y5375D02*
Y5225D01*
X3450D01*
X3475Y5250D01*
Y5275D01*
X3450Y5300D01*
X3375D01*
X3450D01*
X3475Y5325D01*
Y5350D01*
X3450Y5375D01*
X3375D01*
X1525D02*
Y5225D01*
X1625D01*
X1675Y5375D02*
Y5225D01*
X1750D01*
X1775Y5250D01*
Y5275D01*
X1750Y5300D01*
X1675D01*
X1750D01*
X1775Y5325D01*
Y5350D01*
X1750Y5375D01*
X1675D01*
X3725Y600D02*
X3700Y575D01*
Y525D01*
X3725Y500D01*
X3825D01*
X3850Y525D01*
Y575D01*
X3825Y600D01*
X3775D01*
Y550D01*
X3850Y650D02*
X3700D01*
X3850Y750D01*
X3700D01*
Y800D02*
X3850D01*
Y875D01*
X3825Y900D01*
X3725D01*
X3700Y875D01*
Y800D01*
X3525Y500D02*
Y600D01*
X3475Y550D02*
X3575D01*
X3450Y650D02*
X3550D01*
X3600Y700D01*
X3550Y750D01*
X3450D01*
Y800D02*
X3600D01*
Y875D01*
X3575Y900D01*
X3550D01*
X3525Y875D01*
Y800D01*
Y875D01*
X3500Y900D01*
X3475D01*
X3450Y875D01*
Y800D01*
X3600Y950D02*
X3500D01*
X3450Y1000D01*
X3500Y1050D01*
X3600D01*
X3525D01*
Y950D01*
X3450Y1100D02*
Y1200D01*
Y1150D01*
X3600D01*
X3275Y500D02*
Y600D01*
X3225Y550D02*
X3325D01*
X3225Y650D02*
X3200Y675D01*
Y725D01*
X3225Y750D01*
X3250D01*
X3275Y725D01*
Y700D01*
Y725D01*
X3300Y750D01*
X3325D01*
X3350Y725D01*
Y675D01*
X3325Y650D01*
X3200Y800D02*
X3300D01*
X3350Y850D01*
X3300Y900D01*
X3200D01*
X3225Y950D02*
X3200Y975D01*
Y1025D01*
X3225Y1050D01*
X3250D01*
X3275Y1025D01*
Y1000D01*
Y1025D01*
X3300Y1050D01*
X3325D01*
X3350Y1025D01*
Y975D01*
X3325Y950D01*
X3100Y500D02*
X2950D01*
Y575D01*
X2975Y600D01*
X3025D01*
X3050Y575D01*
Y500D01*
Y550D02*
X3100Y600D01*
X2950Y750D02*
Y650D01*
X3025D01*
Y700D01*
Y650D01*
X3100D01*
X2950Y900D02*
Y800D01*
X3100D01*
Y900D01*
X3025Y800D02*
Y850D01*
X3100Y950D02*
X2950D01*
X3100Y1050D01*
X2950D01*
X2700Y500D02*
Y550D01*
Y525D01*
X2850D01*
Y500D01*
Y550D01*
Y625D02*
X2700D01*
X2850Y725D01*
X2700D01*
Y775D02*
Y875D01*
Y825D01*
X2850D01*
X2600Y500D02*
X2450D01*
X2500Y550D01*
X2450Y600D01*
X2600D01*
X2450Y725D02*
Y675D01*
X2475Y650D01*
X2575D01*
X2600Y675D01*
Y725D01*
X2575Y750D01*
X2475D01*
X2450Y725D01*
X2475Y900D02*
X2450Y875D01*
Y825D01*
X2475Y800D01*
X2500D01*
X2525Y825D01*
Y875D01*
X2550Y900D01*
X2575D01*
X2600Y875D01*
Y825D01*
X2575Y800D01*
X2450Y950D02*
Y1000D01*
Y975D01*
X2600D01*
Y950D01*
Y1000D01*
X2350Y500D02*
X2200D01*
X2250Y550D01*
X2200Y600D01*
X2350D01*
X2200Y650D02*
Y700D01*
Y675D01*
X2350D01*
Y650D01*
Y700D01*
X2225Y875D02*
X2200Y850D01*
Y800D01*
X2225Y775D01*
X2250D01*
X2275Y800D01*
Y850D01*
X2300Y875D01*
X2325D01*
X2350Y850D01*
Y800D01*
X2325Y775D01*
X2200Y1000D02*
Y950D01*
X2225Y925D01*
X2325D01*
X2350Y950D01*
Y1000D01*
X2325Y1025D01*
X2225D01*
X2200Y1000D01*
X1975Y600D02*
X1950Y575D01*
Y525D01*
X1975Y500D01*
X2000D01*
X2025Y525D01*
Y575D01*
X2050Y600D01*
X2075D01*
X2100Y575D01*
Y525D01*
X2075Y500D01*
X1975Y750D02*
X1950Y725D01*
Y675D01*
X1975Y650D01*
X2075D01*
X2100Y675D01*
Y725D01*
X2075Y750D01*
X1950Y800D02*
X2100D01*
X2050D01*
X1950Y900D01*
X2025Y825D01*
X2100Y900D01*
X1825Y500D02*
X1675D01*
X1825Y600D01*
X1675D01*
X1700Y750D02*
X1675Y725D01*
Y675D01*
X1700Y650D01*
X1725D01*
X1750Y675D01*
Y725D01*
X1775Y750D01*
X1800D01*
X1825Y725D01*
Y675D01*
X1800Y650D01*
X1700Y900D02*
X1675Y875D01*
Y825D01*
X1700Y800D01*
X1725D01*
X1750Y825D01*
Y875D01*
X1775Y900D01*
X1800D01*
X1825Y875D01*
Y825D01*
X1800Y800D01*
X1575Y500D02*
X1425D01*
Y575D01*
X1450Y600D01*
X1500D01*
X1525Y575D01*
Y500D01*
Y550D02*
X1575Y600D01*
X1425Y750D02*
Y650D01*
X1575D01*
Y750D01*
X1500Y650D02*
Y700D01*
X1450Y900D02*
X1425Y875D01*
Y825D01*
X1450Y800D01*
X1475D01*
X1500Y825D01*
Y875D01*
X1525Y900D01*
X1550D01*
X1575Y875D01*
Y825D01*
X1550Y800D01*
X1425Y1050D02*
Y950D01*
X1575D01*
Y1050D01*
X1500Y950D02*
Y1000D01*
X1425Y1100D02*
Y1200D01*
Y1150D01*
X1575D01*
X1175Y500D02*
X1325D01*
Y575D01*
X1300Y600D01*
X1275D01*
X1250Y575D01*
Y500D01*
Y575D01*
X1225Y600D01*
X1200D01*
X1175Y575D01*
Y500D01*
Y650D02*
X1300D01*
X1325Y675D01*
Y725D01*
X1300Y750D01*
X1175D01*
X1200Y900D02*
X1175Y875D01*
Y825D01*
X1200Y800D01*
X1225D01*
X1250Y825D01*
Y875D01*
X1275Y900D01*
X1300D01*
X1325Y875D01*
Y825D01*
X1300Y800D01*
X1175Y950D02*
X1200D01*
X1250Y1000D01*
X1200Y1050D01*
X1175D01*
X1250Y1000D02*
X1325D01*
X950Y600D02*
X925Y575D01*
Y525D01*
X950Y500D01*
X1050D01*
X1075Y525D01*
Y575D01*
X1050Y600D01*
X1000D01*
Y550D01*
X1075Y650D02*
X925D01*
X1075Y750D01*
X925D01*
Y800D02*
X1075D01*
Y875D01*
X1050Y900D01*
X950D01*
X925Y875D01*
Y800D01*
M02*
