G04*
G04 #@! TF.GenerationSoftware,Altium Limited,Altium Designer,23.0.1 (38)*
G04*
G04 Layer_Color=8388736*
%FSLAX42Y42*%
%MOMM*%
G71*
G04*
G04 #@! TF.SameCoordinates,CE83F5B9-99AD-438B-81A1-E9B9CC2BE83F*
G04*
G04*
G04 #@! TF.FilePolarity,Negative*
G04*
G01*
G75*
%ADD26R,1.00X1.20*%
%ADD27R,0.94X1.22*%
%ADD28R,1.20X1.00*%
G04:AMPARAMS|DCode=29|XSize=2.2mm|YSize=1.2mm|CornerRadius=0.35mm|HoleSize=0mm|Usage=FLASHONLY|Rotation=180.000|XOffset=0mm|YOffset=0mm|HoleType=Round|Shape=RoundedRectangle|*
%AMROUNDEDRECTD29*
21,1,2.20,0.50,0,0,180.0*
21,1,1.50,1.20,0,0,180.0*
1,1,0.70,-0.75,0.25*
1,1,0.70,0.75,0.25*
1,1,0.70,0.75,-0.25*
1,1,0.70,-0.75,-0.25*
%
%ADD29ROUNDEDRECTD29*%
%ADD30R,1.20X0.80*%
%ADD31R,0.80X1.15*%
%ADD32R,1.15X0.80*%
%ADD33R,1.20X1.65*%
%ADD34R,1.65X1.20*%
%ADD35R,1.80X5.10*%
%ADD36R,1.70X4.01*%
%ADD37C,1.79*%
%ADD38R,1.79X1.79*%
%ADD39C,1.91*%
%ADD40R,1.91X1.91*%
%ADD41C,3.20*%
D26*
X4142Y4975D02*
D03*
X4008D02*
D03*
X882D02*
D03*
X1018D02*
D03*
D27*
X3824Y4850D02*
D03*
X3676D02*
D03*
X1177D02*
D03*
X1323D02*
D03*
D28*
X3525Y4708D02*
D03*
Y4842D02*
D03*
X1475Y4708D02*
D03*
Y4842D02*
D03*
X1225Y2133D02*
D03*
Y2267D02*
D03*
D29*
X3300Y4858D02*
D03*
Y2979D02*
D03*
X1700Y2725D02*
D03*
Y3233D02*
D03*
Y3360D02*
D03*
Y3487D02*
D03*
Y3614D02*
D03*
Y4731D02*
D03*
Y4858D02*
D03*
Y4985D02*
D03*
Y3106D02*
D03*
Y2979D02*
D03*
Y2852D02*
D03*
X3300Y4985D02*
D03*
Y4731D02*
D03*
Y3614D02*
D03*
Y3487D02*
D03*
Y3360D02*
D03*
Y3233D02*
D03*
Y3106D02*
D03*
Y2852D02*
D03*
Y2725D02*
D03*
D30*
X980Y2645D02*
D03*
Y2550D02*
D03*
Y2455D02*
D03*
X1220D02*
D03*
Y2645D02*
D03*
D31*
X825Y2275D02*
D03*
X975D02*
D03*
D32*
X1425Y2850D02*
D03*
Y2700D02*
D03*
D33*
X1225Y2850D02*
D03*
X1065D02*
D03*
D34*
X800Y2655D02*
D03*
Y2495D02*
D03*
D35*
X3746Y5417D02*
D03*
X4254D02*
D03*
X1254D02*
D03*
X746D02*
D03*
D36*
X4000Y5448D02*
D03*
X1000D02*
D03*
D37*
X1175Y3150D02*
D03*
D38*
Y3404D02*
D03*
D39*
X3794Y200D02*
D03*
X3540D02*
D03*
X1254D02*
D03*
X1508D02*
D03*
X1762D02*
D03*
X2016D02*
D03*
X2270D02*
D03*
X2524D02*
D03*
X2778D02*
D03*
X3032D02*
D03*
X3286D02*
D03*
D40*
X1000D02*
D03*
D41*
X4700Y300D02*
D03*
Y5400D02*
D03*
X300D02*
D03*
Y300D02*
D03*
M02*
