M48
;Layer_Color=9474304
;FILE_FORMAT=4:2
METRIC,LZ
;TYPE=PLATED
T1F00S00C0.30
T2F00S00C1.06
T3F00S00C1.14
T4F00S00C2.60
%
T01
X004025Y00065
X004525
X004775Y00115
X004275
X003775
X004025Y00165
X004525
X004775Y00215
X004275
X003775
X004025Y00265
X004525
X004775Y00315
X004275
X003775
X004025Y00365
X004525
X004775Y00415
X004275
X003775
X003275
X002775
X002275
X001775
X001275
X000775
X001025Y00365
X001525
X002025
X002525
X003025
X003525
X002775Y00315
X002275
X002525Y00265
X002775Y00215
X003275
Y00115
X003525Y00065
X002275Y00115
X002035Y001184
X001925Y00105
X001775Y00115
X001275
X000775
X001025Y00165
X000985Y002109
X000775Y00215
X000963Y002556
X001088
X001275Y00255
X001525Y00265
X001425Y00195
X001525Y00165
X002525
X002275Y00215
X00065Y00265
X000525Y00265
X000775Y00315
X000525Y00365
Y00165
Y00065
X001025
Y00465
X001009Y004763
X001111Y004722
X001221Y004719
X001335Y004718
X001336Y004987
X001446Y00499
X001209Y004982
X001149Y005074
X000886Y005163
X000931Y004841
X000525Y00465
X001869Y004785
X00188Y004894
X001775Y00515
X002275
X002775
X003275
X003512Y00499
X003658Y004989
X003669Y004718
X003133Y00478
X00312Y004889
X003025Y00465
X002525
X002025
X003775Y004748
X003933Y004728
X004031Y004778
X004025Y00465
X004103Y004861
X004139Y005075
X003876Y005089
X003851Y004982
X003765Y004963
X004525Y00465
X004775Y00515
T02
X001175Y00315
Y003404
T03
X001Y0002
X001254
X001508
X001762
X002016
X00227
X002524
X002778
X003032
X003286
X00354
X003794
T04
X0003Y0003
X0047
X0003Y0054
X0047
M30
