G04*
G04 #@! TF.GenerationSoftware,Altium Limited,Altium Designer,23.0.1 (38)*
G04*
G04 Layer_Physical_Order=1*
G04 Layer_Color=255*
%FSLAX42Y42*%
%MOMM*%
G71*
G04*
G04 #@! TF.SameCoordinates,51832A7B-EBBE-4AEE-AE6A-D67D995C2764*
G04*
G04*
G04 #@! TF.FilePolarity,Positive*
G04*
G01*
G75*
%ADD10C,0.25*%
%ADD15R,1.60X4.90*%
%ADD16R,1.50X3.81*%
G04:AMPARAMS|DCode=17|XSize=2mm|YSize=1mm|CornerRadius=0.1mm|HoleSize=0mm|Usage=FLASHONLY|Rotation=270.000|XOffset=0mm|YOffset=0mm|HoleType=Round|Shape=RoundedRectangle|*
%AMROUNDEDRECTD17*
21,1,2.00,0.80,0,0,270.0*
21,1,1.80,1.00,0,0,270.0*
1,1,0.20,-0.40,-0.90*
1,1,0.20,-0.40,0.90*
1,1,0.20,0.40,0.90*
1,1,0.20,0.40,-0.90*
%
%ADD17ROUNDEDRECTD17*%
%ADD18R,0.60X0.95*%
%ADD19R,1.00X1.45*%
%ADD20R,1.00X0.80*%
%ADD21R,1.45X1.00*%
%ADD22R,0.95X0.60*%
%ADD23R,1.00X0.60*%
%ADD24R,0.80X1.00*%
%ADD25R,1.02X0.74*%
%ADD43C,0.80*%
%ADD44C,1.00*%
%ADD45C,0.60*%
%ADD46C,1.71*%
%ADD47R,1.71X1.71*%
%ADD48C,1.59*%
%ADD49R,1.59X1.59*%
%ADD50C,3.00*%
%ADD51C,0.60*%
G36*
X4967Y33D02*
X3835D01*
X3834Y46D01*
X3837Y47D01*
X3862Y61D01*
X3883Y82D01*
X3897Y107D01*
X3905Y135D01*
Y137D01*
X3683D01*
Y135D01*
X3691Y107D01*
X3705Y82D01*
X3726Y61D01*
X3751Y47D01*
X3754Y46D01*
X3753Y33D01*
X3561D01*
X3559Y46D01*
X3581Y52D01*
X3605Y66D01*
X3624Y85D01*
X3638Y109D01*
X3646Y136D01*
Y164D01*
X3638Y191D01*
X3624Y215D01*
X3605Y234D01*
X3601Y237D01*
Y477D01*
X3614Y483D01*
X3635Y462D01*
Y449D01*
X3642Y430D01*
X3656Y416D01*
X3675Y409D01*
X3695D01*
X3713Y416D01*
X3727Y430D01*
X3735Y449D01*
Y469D01*
X3727Y487D01*
X3713Y501D01*
X3695Y509D01*
X3681D01*
X3658Y532D01*
Y3956D01*
X3656Y3969D01*
X3648Y3980D01*
X2535Y5093D01*
X2524Y5101D01*
X2511Y5103D01*
X2342D01*
Y5200D01*
X2208D01*
Y5100D01*
X2237D01*
Y5045D01*
X2200D01*
Y4945D01*
X2340D01*
Y5037D01*
X2498D01*
X3592Y3943D01*
Y3758D01*
X3579Y3752D01*
X2543Y4789D01*
X2542Y4791D01*
Y4865D01*
X2358D01*
Y4856D01*
X2270D01*
X2265Y4855D01*
X2200D01*
Y4755D01*
X2265D01*
X2270Y4754D01*
X2358D01*
Y4725D01*
X2435D01*
X2439Y4719D01*
X3479Y3680D01*
Y237D01*
X3475Y234D01*
X3456Y215D01*
X3442Y191D01*
X3435Y164D01*
Y136D01*
X3442Y109D01*
X3456Y85D01*
X3475Y66D01*
X3499Y52D01*
X3521Y46D01*
X3519Y33D01*
X3307D01*
X3305Y46D01*
X3327Y52D01*
X3351Y66D01*
X3370Y85D01*
X3384Y109D01*
X3392Y136D01*
Y164D01*
X3384Y191D01*
X3370Y215D01*
X3351Y234D01*
X3347Y237D01*
Y3664D01*
X3343Y3687D01*
X3329Y3707D01*
X2396Y4640D01*
X2377Y4653D01*
X2353Y4658D01*
X2200D01*
Y4667D01*
X2100D01*
Y4533D01*
X2200D01*
Y4536D01*
X2328D01*
X3225Y3639D01*
Y237D01*
X3221Y234D01*
X3202Y215D01*
X3188Y191D01*
X3181Y164D01*
Y136D01*
X3188Y109D01*
X3202Y85D01*
X3221Y66D01*
X3245Y52D01*
X3267Y46D01*
X3265Y33D01*
X3053D01*
X3051Y46D01*
X3073Y52D01*
X3097Y66D01*
X3116Y85D01*
X3130Y109D01*
X3138Y136D01*
Y164D01*
X3130Y191D01*
X3116Y215D01*
X3097Y234D01*
X3073Y248D01*
X3046Y256D01*
X3018D01*
X2991Y248D01*
X2967Y234D01*
X2948Y215D01*
X2934Y191D01*
X2926Y164D01*
Y136D01*
X2934Y109D01*
X2948Y85D01*
X2967Y66D01*
X2991Y52D01*
X3013Y46D01*
X3011Y33D01*
X2799D01*
X2797Y46D01*
X2819Y52D01*
X2843Y66D01*
X2862Y85D01*
X2876Y109D01*
X2883Y136D01*
Y164D01*
X2876Y191D01*
X2862Y215D01*
X2843Y234D01*
X2819Y248D01*
X2792Y256D01*
X2764D01*
X2737Y248D01*
X2713Y234D01*
X2694Y215D01*
X2680Y191D01*
X2673Y164D01*
Y136D01*
X2680Y109D01*
X2694Y85D01*
X2713Y66D01*
X2737Y52D01*
X2759Y46D01*
X2757Y33D01*
X2545D01*
X2543Y46D01*
X2565Y52D01*
X2589Y66D01*
X2608Y85D01*
X2622Y109D01*
X2630Y136D01*
Y164D01*
X2622Y191D01*
X2608Y215D01*
X2589Y234D01*
X2565Y248D01*
X2538Y256D01*
X2515D01*
X2408Y363D01*
Y3250D01*
X2406Y3263D01*
X2398Y3273D01*
X1662Y4010D01*
Y4029D01*
X1669D01*
X1681Y4032D01*
X1691Y4038D01*
X1694D01*
X1704Y4032D01*
X1716Y4029D01*
X1723D01*
Y3994D01*
X1725Y3981D01*
X1733Y3971D01*
X2442Y3261D01*
Y463D01*
X2433Y453D01*
X2425Y435D01*
Y415D01*
X2433Y397D01*
X2447Y383D01*
X2465Y375D01*
X2485D01*
X2503Y383D01*
X2517Y397D01*
X2525Y415D01*
Y435D01*
X2517Y453D01*
X2508Y463D01*
Y3275D01*
X2506Y3288D01*
X2498Y3298D01*
X1789Y4008D01*
Y4029D01*
X1796D01*
X1808Y4032D01*
X1818Y4038D01*
X1821D01*
X1831Y4032D01*
X1843Y4029D01*
X1850D01*
Y3992D01*
X1852Y3979D01*
X1860Y3969D01*
X2542Y3286D01*
Y713D01*
X2533Y703D01*
X2525Y685D01*
Y665D01*
X2533Y647D01*
X2547Y633D01*
X2565Y625D01*
X2585D01*
X2603Y633D01*
X2617Y647D01*
X2625Y665D01*
Y685D01*
X2617Y703D01*
X2608Y713D01*
Y3300D01*
X2606Y3313D01*
X2598Y3323D01*
X1916Y4006D01*
Y4029D01*
X1923D01*
X1935Y4032D01*
X1945Y4038D01*
X1948D01*
X1958Y4032D01*
X1970Y4029D01*
X2050D01*
X2062Y4032D01*
X2072Y4038D01*
X2078Y4048D01*
X2081Y4060D01*
Y4240D01*
X2078Y4252D01*
X2072Y4262D01*
X2071Y4262D01*
Y4308D01*
X2090D01*
Y4492D01*
X2071D01*
Y4600D01*
Y4755D01*
X2100D01*
Y4855D01*
X1960D01*
Y4821D01*
X1953Y4811D01*
X1949Y4788D01*
Y4600D01*
Y4400D01*
Y4274D01*
X1936Y4267D01*
X1935Y4268D01*
X1923Y4271D01*
X1843D01*
X1831Y4268D01*
X1821Y4262D01*
X1818D01*
X1808Y4268D01*
X1796Y4271D01*
X1716D01*
X1704Y4268D01*
X1694Y4262D01*
X1691D01*
X1681Y4268D01*
X1669Y4271D01*
X1589D01*
X1577Y4268D01*
X1567Y4262D01*
X1564D01*
X1554Y4268D01*
X1542Y4271D01*
X1462D01*
X1450Y4268D01*
X1440Y4262D01*
X1434Y4252D01*
X1431Y4240D01*
Y4060D01*
X1434Y4048D01*
X1440Y4038D01*
X1450Y4032D01*
X1462Y4029D01*
X1469D01*
Y3998D01*
X1471Y3985D01*
X1479Y3975D01*
X2267Y3186D01*
Y752D01*
X1771Y256D01*
X1748D01*
X1721Y248D01*
X1697Y234D01*
X1678Y215D01*
X1664Y191D01*
X1657Y164D01*
Y136D01*
X1664Y109D01*
X1678Y85D01*
X1697Y66D01*
X1721Y52D01*
X1743Y46D01*
X1741Y33D01*
X1529D01*
X1527Y46D01*
X1549Y52D01*
X1573Y66D01*
X1592Y85D01*
X1606Y109D01*
X1614Y136D01*
Y164D01*
X1606Y191D01*
X1592Y215D01*
X1573Y234D01*
X1549Y248D01*
X1541Y250D01*
Y2579D01*
X1542D01*
X1554Y2582D01*
X1564Y2588D01*
X1567D01*
X1577Y2582D01*
X1589Y2579D01*
X1596D01*
Y2367D01*
X1597Y2364D01*
Y2200D01*
X1795D01*
Y2390D01*
X1808Y2395D01*
X1860Y2343D01*
X1857Y2338D01*
X1850Y2313D01*
Y2287D01*
X1857Y2262D01*
X1870Y2239D01*
X1889Y2220D01*
X1912Y2207D01*
X1937Y2200D01*
X1963D01*
X1988Y2207D01*
X2011Y2220D01*
X2030Y2239D01*
X2043Y2262D01*
X2050Y2287D01*
Y2313D01*
X2043Y2338D01*
X2030Y2361D01*
X2011Y2380D01*
X1988Y2393D01*
X1963Y2400D01*
X1937D01*
X1912Y2393D01*
X1907Y2390D01*
X1789Y2508D01*
Y2579D01*
X1796D01*
X1808Y2582D01*
X1818Y2588D01*
X1824Y2598D01*
X1827Y2610D01*
Y2790D01*
X1824Y2802D01*
X1818Y2812D01*
X1808Y2818D01*
X1796Y2821D01*
X1716D01*
X1704Y2818D01*
X1694Y2812D01*
X1691D01*
X1681Y2818D01*
X1669Y2821D01*
X1589D01*
X1577Y2818D01*
X1567Y2812D01*
X1564D01*
X1554Y2818D01*
X1542Y2821D01*
X1462D01*
X1450Y2818D01*
X1440Y2812D01*
X1437D01*
X1427Y2818D01*
X1415Y2821D01*
X1335D01*
X1323Y2818D01*
X1313Y2812D01*
X1307Y2802D01*
X1304Y2790D01*
Y2610D01*
X1307Y2598D01*
X1313Y2588D01*
X1323Y2582D01*
X1335Y2579D01*
X1342D01*
Y859D01*
X1344Y847D01*
X1351Y837D01*
X1350Y835D01*
Y815D01*
X1358Y797D01*
X1372Y783D01*
X1390Y775D01*
X1410D01*
X1428Y783D01*
X1442Y797D01*
X1450Y815D01*
Y835D01*
X1442Y853D01*
X1428Y867D01*
X1410Y875D01*
X1408D01*
Y2579D01*
X1415D01*
X1427Y2582D01*
X1437Y2588D01*
X1440D01*
X1450Y2582D01*
X1462Y2579D01*
X1475D01*
Y250D01*
X1467Y248D01*
X1443Y234D01*
X1424Y215D01*
X1410Y191D01*
X1402Y164D01*
Y136D01*
X1410Y109D01*
X1424Y85D01*
X1443Y66D01*
X1467Y52D01*
X1489Y46D01*
X1487Y33D01*
X1275D01*
X1273Y46D01*
X1295Y52D01*
X1319Y66D01*
X1338Y85D01*
X1352Y109D01*
X1360Y136D01*
Y164D01*
X1352Y191D01*
X1338Y215D01*
X1319Y234D01*
X1295Y248D01*
X1268Y256D01*
X1240D01*
X1213Y248D01*
X1189Y234D01*
X1170Y215D01*
X1156Y191D01*
X1148Y164D01*
Y136D01*
X1156Y109D01*
X1170Y85D01*
X1189Y66D01*
X1213Y52D01*
X1235Y46D01*
X1233Y33D01*
X1121D01*
X1111Y39D01*
X1111Y46D01*
Y137D01*
X889D01*
Y46D01*
X889Y39D01*
X879Y33D01*
X33D01*
Y5667D01*
X896D01*
X905Y5658D01*
X905Y5654D01*
Y5238D01*
X929D01*
Y4858D01*
Y4779D01*
X929D01*
Y4700D01*
X925D01*
Y4600D01*
X929D01*
Y4554D01*
X928Y4549D01*
Y4495D01*
X923D01*
Y4355D01*
X923D01*
Y4150D01*
X923Y4150D01*
Y4060D01*
X926Y4048D01*
X932Y4038D01*
X942Y4032D01*
X954Y4029D01*
X1034D01*
X1046Y4032D01*
X1056Y4038D01*
X1062Y4048D01*
X1065Y4060D01*
Y4150D01*
X1065Y4150D01*
Y4410D01*
X1067Y4417D01*
X1070Y4435D01*
Y4518D01*
X1071D01*
Y4600D01*
X1075D01*
Y4700D01*
X1071D01*
Y4779D01*
X1071D01*
Y4858D01*
Y5238D01*
X1095D01*
Y5654D01*
X1095Y5658D01*
X1104Y5667D01*
X4967D01*
Y33D01*
D02*
G37*
%LPC*%
G36*
X4717Y5575D02*
X4713D01*
Y5413D01*
X4875D01*
Y5417D01*
X4869Y5451D01*
X4855Y5483D01*
X4836Y5512D01*
X4812Y5536D01*
X4783Y5555D01*
X4751Y5569D01*
X4717Y5575D01*
D02*
G37*
G36*
X4687D02*
X4683D01*
X4649Y5569D01*
X4617Y5555D01*
X4588Y5536D01*
X4564Y5512D01*
X4545Y5483D01*
X4531Y5451D01*
X4525Y5417D01*
Y5413D01*
X4687D01*
Y5575D01*
D02*
G37*
G36*
X317D02*
X313D01*
Y5413D01*
X475D01*
Y5417D01*
X469Y5451D01*
X455Y5483D01*
X436Y5512D01*
X412Y5536D01*
X383Y5555D01*
X351Y5569D01*
X317Y5575D01*
D02*
G37*
G36*
X287D02*
X283D01*
X249Y5569D01*
X217Y5555D01*
X188Y5536D01*
X164Y5512D01*
X145Y5483D01*
X131Y5451D01*
X125Y5417D01*
Y5413D01*
X287D01*
Y5575D01*
D02*
G37*
G36*
X4875Y5387D02*
X4713D01*
Y5225D01*
X4717D01*
X4751Y5231D01*
X4783Y5245D01*
X4812Y5264D01*
X4836Y5288D01*
X4855Y5317D01*
X4869Y5349D01*
X4875Y5383D01*
Y5387D01*
D02*
G37*
G36*
X4687D02*
X4525D01*
Y5383D01*
X4531Y5349D01*
X4545Y5317D01*
X4564Y5288D01*
X4588Y5264D01*
X4617Y5245D01*
X4649Y5231D01*
X4683Y5225D01*
X4687D01*
Y5387D01*
D02*
G37*
G36*
X475D02*
X313D01*
Y5225D01*
X317D01*
X351Y5231D01*
X383Y5245D01*
X412Y5264D01*
X436Y5288D01*
X455Y5317D01*
X469Y5349D01*
X475Y5383D01*
Y5387D01*
D02*
G37*
G36*
X287D02*
X125D01*
Y5383D01*
X131Y5349D01*
X145Y5317D01*
X164Y5288D01*
X188Y5264D01*
X217Y5245D01*
X249Y5231D01*
X283Y5225D01*
X287D01*
Y5387D01*
D02*
G37*
G36*
X1920Y5053D02*
X1780D01*
Y4933D01*
X1920D01*
Y4962D01*
X1960D01*
Y4945D01*
X2100D01*
Y5045D01*
X1960D01*
Y5028D01*
X1920D01*
Y5053D01*
D02*
G37*
G36*
X4717Y475D02*
X4713D01*
Y313D01*
X4875D01*
Y317D01*
X4869Y351D01*
X4855Y383D01*
X4836Y412D01*
X4812Y436D01*
X4783Y455D01*
X4751Y469D01*
X4717Y475D01*
D02*
G37*
G36*
X4687D02*
X4683D01*
X4649Y469D01*
X4617Y455D01*
X4588Y436D01*
X4564Y412D01*
X4545Y383D01*
X4531Y351D01*
X4525Y317D01*
Y313D01*
X4687D01*
Y475D01*
D02*
G37*
G36*
X317D02*
X313D01*
Y313D01*
X475D01*
Y317D01*
X469Y351D01*
X455Y383D01*
X436Y412D01*
X412Y436D01*
X383Y455D01*
X351Y469D01*
X317Y475D01*
D02*
G37*
G36*
X287D02*
X283D01*
X249Y469D01*
X217Y455D01*
X188Y436D01*
X164Y412D01*
X145Y383D01*
X131Y351D01*
X125Y317D01*
Y313D01*
X287D01*
Y475D01*
D02*
G37*
G36*
X3809Y261D02*
X3807D01*
Y163D01*
X3905D01*
Y165D01*
X3897Y193D01*
X3883Y218D01*
X3862Y239D01*
X3837Y253D01*
X3809Y261D01*
D02*
G37*
G36*
X3781D02*
X3779D01*
X3751Y253D01*
X3726Y239D01*
X3705Y218D01*
X3691Y193D01*
X3683Y165D01*
Y163D01*
X3781D01*
Y261D01*
D02*
G37*
G36*
X1111D02*
X1013D01*
Y163D01*
X1111D01*
Y261D01*
D02*
G37*
G36*
X987D02*
X889D01*
Y163D01*
X987D01*
Y261D01*
D02*
G37*
G36*
X4875Y287D02*
X4713D01*
Y125D01*
X4717D01*
X4751Y131D01*
X4783Y145D01*
X4812Y164D01*
X4836Y188D01*
X4855Y217D01*
X4869Y249D01*
X4875Y283D01*
Y287D01*
D02*
G37*
G36*
X4687D02*
X4525D01*
Y283D01*
X4531Y249D01*
X4545Y217D01*
X4564Y188D01*
X4588Y164D01*
X4617Y145D01*
X4649Y131D01*
X4683Y125D01*
X4687D01*
Y287D01*
D02*
G37*
G36*
X475D02*
X313D01*
Y125D01*
X317D01*
X351Y131D01*
X383Y145D01*
X412Y164D01*
X436Y188D01*
X455Y217D01*
X469Y249D01*
X475Y283D01*
Y287D01*
D02*
G37*
G36*
X287D02*
X125D01*
Y283D01*
X131Y249D01*
X145Y217D01*
X164Y188D01*
X188Y164D01*
X217Y145D01*
X249Y131D01*
X283Y125D01*
X287D01*
Y287D01*
D02*
G37*
%LPD*%
D10*
X3625Y518D02*
X3685Y459D01*
X2511Y5070D02*
X3625Y3956D01*
Y518D02*
Y3956D01*
X1502Y3998D02*
X2300Y3200D01*
X1762Y200D02*
X2300Y738D01*
Y3200D01*
X1375Y859D02*
Y2700D01*
Y859D02*
X1400Y834D01*
Y825D02*
Y834D01*
X2475Y425D02*
Y3275D01*
X1756Y3994D02*
X2475Y3275D01*
X2575Y675D02*
Y3300D01*
X1883Y3992D02*
X2575Y3300D01*
X2375Y349D02*
X2524Y200D01*
X2375Y349D02*
Y3250D01*
X1629Y3996D02*
X2375Y3250D01*
X2150Y4600D02*
X2175D01*
X1000Y4858D02*
X1007Y4850D01*
X1502Y2700D02*
X1508Y2694D01*
Y200D02*
Y2694D01*
X1629Y2367D02*
Y2700D01*
Y2367D02*
X1696Y2300D01*
X1756Y2494D02*
Y2700D01*
Y2494D02*
X1950Y2300D01*
X1502Y3998D02*
Y4150D01*
X1629Y3996D02*
Y4150D01*
X1756Y3994D02*
Y4150D01*
X1883Y3992D02*
Y4150D01*
X2270Y5070D02*
Y5145D01*
Y4995D02*
Y5070D01*
X2511D01*
X2270Y5145D02*
X2275Y5150D01*
X1852Y4995D02*
X2030D01*
X1850Y4992D02*
X1852Y4995D01*
X2440Y4805D02*
X2450Y4795D01*
X2010Y4788D02*
X2027Y4805D01*
X2030D01*
X1000Y4842D02*
X1007Y4850D01*
D15*
X746Y5417D02*
D03*
X1254D02*
D03*
D16*
X1000Y5448D02*
D03*
D17*
X867Y2700D02*
D03*
X994D02*
D03*
X1121D02*
D03*
X1248D02*
D03*
X1375D02*
D03*
X1502D02*
D03*
X1629D02*
D03*
X1756D02*
D03*
X1883D02*
D03*
X2010D02*
D03*
X2137D02*
D03*
Y4150D02*
D03*
X2010D02*
D03*
X1883D02*
D03*
X1756D02*
D03*
X1629D02*
D03*
X1502D02*
D03*
X1375D02*
D03*
X1248D02*
D03*
X1121D02*
D03*
X994D02*
D03*
X867D02*
D03*
D18*
X2000Y4600D02*
D03*
X2150D02*
D03*
D19*
X2020Y4400D02*
D03*
X2180D02*
D03*
D20*
X1850Y4858D02*
D03*
Y4992D02*
D03*
D21*
X2450Y4795D02*
D03*
Y4955D02*
D03*
D22*
X2275Y5300D02*
D03*
Y5150D02*
D03*
D23*
X2270Y4805D02*
D03*
Y4900D02*
D03*
Y4995D02*
D03*
X2030D02*
D03*
Y4805D02*
D03*
D24*
X1118Y4425D02*
D03*
X982D02*
D03*
X1143Y4850D02*
D03*
X1007D02*
D03*
D25*
X1000Y4722D02*
D03*
Y4575D02*
D03*
D43*
X2473Y4795D02*
X2483Y4785D01*
Y4762D02*
Y4785D01*
X3540Y200D02*
Y3705D01*
X2450Y4795D02*
X2473D01*
X2483Y4762D02*
X3540Y3705D01*
X2175Y4600D02*
X2178Y4597D01*
X2353D01*
X3286Y200D02*
Y3664D01*
X2353Y4597D02*
X3286Y3664D01*
X2010Y4600D02*
Y4788D01*
Y4400D02*
Y4600D01*
Y4150D02*
Y4400D01*
D44*
X999Y4549D02*
X1000Y4550D01*
X999Y4435D02*
Y4549D01*
X994Y4150D02*
Y4413D01*
X1000Y4858D02*
Y5373D01*
Y4842D02*
Y4858D01*
Y4750D02*
Y4842D01*
D45*
X2270Y4805D02*
X2440D01*
D46*
X3794Y150D02*
D03*
X3540D02*
D03*
X1254D02*
D03*
X1508D02*
D03*
X1762D02*
D03*
X2016D02*
D03*
X2270D02*
D03*
X2524D02*
D03*
X2778D02*
D03*
X3032D02*
D03*
X3286D02*
D03*
D47*
X1000D02*
D03*
D48*
X1950Y2300D02*
D03*
D49*
X1696D02*
D03*
D50*
X4700Y5400D02*
D03*
X4700Y300D02*
D03*
X300Y5400D02*
D03*
Y300D02*
D03*
D51*
X2145Y4775D02*
D03*
Y5025D02*
D03*
X2045Y4900D02*
D03*
X2145D02*
D03*
X4775Y5150D02*
D03*
X4525Y4650D02*
D03*
X4775Y4150D02*
D03*
X4525Y3650D02*
D03*
X4775Y3150D02*
D03*
X4525Y2650D02*
D03*
X4775Y2150D02*
D03*
X4525Y1650D02*
D03*
X4775Y1150D02*
D03*
X4525Y650D02*
D03*
X4275Y5150D02*
D03*
X4025Y4650D02*
D03*
X4275Y4150D02*
D03*
X4025Y3650D02*
D03*
X4275Y3150D02*
D03*
X4025Y2650D02*
D03*
X4275Y2150D02*
D03*
X4025Y1650D02*
D03*
X4275Y1150D02*
D03*
X4025Y650D02*
D03*
X3775Y5150D02*
D03*
X3525Y4650D02*
D03*
X3775Y4150D02*
D03*
Y3150D02*
D03*
Y2150D02*
D03*
Y1150D02*
D03*
X3275Y5150D02*
D03*
X3025Y3650D02*
D03*
Y2650D02*
D03*
Y1650D02*
D03*
Y650D02*
D03*
X2775Y5150D02*
D03*
X2525Y3650D02*
D03*
X2775Y3150D02*
D03*
Y2150D02*
D03*
Y1150D02*
D03*
X2275Y4150D02*
D03*
X2025Y1650D02*
D03*
Y650D02*
D03*
X1775Y5150D02*
D03*
X1525Y4650D02*
D03*
Y3650D02*
D03*
X1775Y3150D02*
D03*
Y2150D02*
D03*
Y1150D02*
D03*
X1025Y3650D02*
D03*
X1275Y3150D02*
D03*
Y2150D02*
D03*
X1025Y1650D02*
D03*
X1275Y1150D02*
D03*
X1025Y650D02*
D03*
X525Y4650D02*
D03*
Y3650D02*
D03*
X775Y3150D02*
D03*
X525Y2650D02*
D03*
X775Y2150D02*
D03*
X525Y1650D02*
D03*
X775Y1150D02*
D03*
X525Y650D02*
D03*
X1400Y825D02*
D03*
X2475Y425D02*
D03*
X2575Y675D02*
D03*
X3685Y459D02*
D03*
M02*
