M48
;Layer_Color=9474304
;FILE_FORMAT=4:2
METRIC,LZ
;TYPE=PLATED
T1F00S00C0.30
T2F00S00C1.06
T3F00S00C1.14
T4F00S00C2.60
%
T01
X004025Y00065
X004525
X004775Y00115
X004275
X003775
X004025Y00165
X004525
X004775Y00215
X004275
X003775
X004025Y00265
X004525
X004775Y00315
X004275
X003775
X004025Y00365
X004525
X004775Y00415
X004275
X003775
X003025Y00365
X002525
X002775Y00315
X003025Y00265
X002775Y00215
X003025Y00165
X002775Y00115
X002575Y000675
X002475Y000425
X002025Y00065
X001775Y00115
X001275
X0014Y000825
X001025Y00065
X000525
X000775Y00115
X001025Y00165
X000525
X000775Y00215
X001275
X001775
X002025Y00165
X001775Y00315
X001275
X000775
X001025Y00365
X001525
X000525
Y00265
X002275Y00415
X003025Y00065
X003685Y000459
X003525Y00465
X003275Y00515
X002775
X002145Y005025
Y0049
X002045
X002145Y004775
X001525Y00465
X001775Y00515
X000525Y00465
X004025
X004525
X004775Y00515
X004275
X003775
T02
X001696Y0023
X00195
T03
X001Y00015
X001254
X001508
X001762
X002016
X00227
X002524
X002778
X003032
X003286
X00354
X003794
T04
X0003Y0003
X0047
X0003Y0054
X0047
M30
