G04*
G04 #@! TF.GenerationSoftware,Altium Limited,Altium Designer,23.0.1 (38)*
G04*
G04 Layer_Color=8421504*
%FSLAX42Y42*%
%MOMM*%
G71*
G04*
G04 #@! TF.SameCoordinates,51832A7B-EBBE-4AEE-AE6A-D67D995C2764*
G04*
G04*
G04 #@! TF.FilePolarity,Positive*
G04*
G01*
G75*
%ADD15R,1.60X4.90*%
%ADD16R,1.50X3.81*%
G04:AMPARAMS|DCode=17|XSize=2mm|YSize=1mm|CornerRadius=0.1mm|HoleSize=0mm|Usage=FLASHONLY|Rotation=270.000|XOffset=0mm|YOffset=0mm|HoleType=Round|Shape=RoundedRectangle|*
%AMROUNDEDRECTD17*
21,1,2.00,0.80,0,0,270.0*
21,1,1.80,1.00,0,0,270.0*
1,1,0.20,-0.40,-0.90*
1,1,0.20,-0.40,0.90*
1,1,0.20,0.40,0.90*
1,1,0.20,0.40,-0.90*
%
%ADD17ROUNDEDRECTD17*%
%ADD18R,0.60X0.95*%
%ADD19R,1.00X1.45*%
%ADD20R,1.00X0.80*%
%ADD21R,1.45X1.00*%
%ADD22R,0.95X0.60*%
%ADD23R,1.00X0.60*%
%ADD24R,0.80X1.00*%
%ADD25R,1.02X0.74*%
D15*
X746Y5417D02*
D03*
X1254D02*
D03*
D16*
X1000Y5448D02*
D03*
D17*
X867Y2700D02*
D03*
X994D02*
D03*
X1121D02*
D03*
X1248D02*
D03*
X1375D02*
D03*
X1502D02*
D03*
X1629D02*
D03*
X1756D02*
D03*
X1883D02*
D03*
X2010D02*
D03*
X2137D02*
D03*
Y4150D02*
D03*
X2010D02*
D03*
X1883D02*
D03*
X1756D02*
D03*
X1629D02*
D03*
X1502D02*
D03*
X1375D02*
D03*
X1248D02*
D03*
X1121D02*
D03*
X994D02*
D03*
X867D02*
D03*
D18*
X2000Y4600D02*
D03*
X2150D02*
D03*
D19*
X2020Y4400D02*
D03*
X2180D02*
D03*
D20*
X1850Y4858D02*
D03*
Y4992D02*
D03*
D21*
X2450Y4795D02*
D03*
Y4955D02*
D03*
D22*
X2275Y5300D02*
D03*
Y5150D02*
D03*
D23*
X2270Y4805D02*
D03*
Y4900D02*
D03*
Y4995D02*
D03*
X2030D02*
D03*
Y4805D02*
D03*
D24*
X1118Y4425D02*
D03*
X982D02*
D03*
X1143Y4850D02*
D03*
X1007D02*
D03*
D25*
X1000Y4722D02*
D03*
Y4575D02*
D03*
M02*
