G04*
G04 #@! TF.GenerationSoftware,Altium Limited,Altium Designer,23.0.1 (38)*
G04*
G04 Layer_Color=8388736*
%FSLAX42Y42*%
%MOMM*%
G71*
G04*
G04 #@! TF.SameCoordinates,51832A7B-EBBE-4AEE-AE6A-D67D995C2764*
G04*
G04*
G04 #@! TF.FilePolarity,Negative*
G04*
G01*
G75*
%ADD26R,1.80X5.10*%
%ADD27R,1.70X4.01*%
G04:AMPARAMS|DCode=28|XSize=2.2mm|YSize=1.2mm|CornerRadius=0.2mm|HoleSize=0mm|Usage=FLASHONLY|Rotation=270.000|XOffset=0mm|YOffset=0mm|HoleType=Round|Shape=RoundedRectangle|*
%AMROUNDEDRECTD28*
21,1,2.20,0.80,0,0,270.0*
21,1,1.80,1.20,0,0,270.0*
1,1,0.40,-0.40,-0.90*
1,1,0.40,-0.40,0.90*
1,1,0.40,0.40,0.90*
1,1,0.40,0.40,-0.90*
%
%ADD28ROUNDEDRECTD28*%
%ADD29R,0.80X1.15*%
%ADD30R,1.20X1.65*%
%ADD31R,1.20X1.00*%
%ADD32R,1.65X1.20*%
%ADD33R,1.15X0.80*%
%ADD34R,1.20X0.80*%
%ADD35R,1.00X1.20*%
%ADD36R,1.22X0.94*%
%ADD37C,1.91*%
%ADD38R,1.91X1.91*%
%ADD39C,1.79*%
%ADD40R,1.79X1.79*%
%ADD41C,3.20*%
%ADD42C,0.80*%
D26*
X746Y5417D02*
D03*
X1254D02*
D03*
D27*
X1000Y5448D02*
D03*
D28*
X867Y2700D02*
D03*
X994D02*
D03*
X1121D02*
D03*
X1248D02*
D03*
X1375D02*
D03*
X1502D02*
D03*
X1629D02*
D03*
X1756D02*
D03*
X1883D02*
D03*
X2010D02*
D03*
X2137D02*
D03*
Y4150D02*
D03*
X2010D02*
D03*
X1883D02*
D03*
X1756D02*
D03*
X1629D02*
D03*
X1502D02*
D03*
X1375D02*
D03*
X1248D02*
D03*
X1121D02*
D03*
X994D02*
D03*
X867D02*
D03*
D29*
X2000Y4600D02*
D03*
X2150D02*
D03*
D30*
X2020Y4400D02*
D03*
X2180D02*
D03*
D31*
X1850Y4858D02*
D03*
Y4992D02*
D03*
D32*
X2450Y4795D02*
D03*
Y4955D02*
D03*
D33*
X2275Y5300D02*
D03*
Y5150D02*
D03*
D34*
X2270Y4805D02*
D03*
Y4900D02*
D03*
Y4995D02*
D03*
X2030D02*
D03*
Y4805D02*
D03*
D35*
X1118Y4425D02*
D03*
X982D02*
D03*
X1143Y4850D02*
D03*
X1007D02*
D03*
D36*
X1000Y4722D02*
D03*
Y4575D02*
D03*
D37*
X3794Y150D02*
D03*
X3540D02*
D03*
X1254D02*
D03*
X1508D02*
D03*
X1762D02*
D03*
X2016D02*
D03*
X2270D02*
D03*
X2524D02*
D03*
X2778D02*
D03*
X3032D02*
D03*
X3286D02*
D03*
D38*
X1000D02*
D03*
D39*
X1950Y2300D02*
D03*
D40*
X1696D02*
D03*
D41*
X4700Y5400D02*
D03*
X4700Y300D02*
D03*
X300Y5400D02*
D03*
Y300D02*
D03*
D42*
X1400Y825D02*
D03*
X2475Y425D02*
D03*
X2575Y675D02*
D03*
X3685Y459D02*
D03*
M02*
