G04*
G04 #@! TF.GenerationSoftware,Altium Limited,Altium Designer,23.0.1 (38)*
G04*
G04 Layer_Color=8421504*
%FSLAX42Y42*%
%MOMM*%
G71*
G04*
G04 #@! TF.SameCoordinates,CB3E82BB-9FF2-476D-B46A-5B8657A237F5*
G04*
G04*
G04 #@! TF.FilePolarity,Positive*
G04*
G01*
G75*
%ADD14R,1.60X4.90*%
%ADD15R,1.50X3.81*%
%ADD16R,0.80X1.00*%
%ADD17R,0.74X1.02*%
%ADD18R,1.00X0.80*%
%ADD19R,0.60X0.95*%
%ADD20R,1.40X2.50*%
%ADD21R,1.45X1.00*%
%ADD22R,0.60X1.00*%
%ADD23R,0.95X0.60*%
%ADD24R,1.00X1.45*%
D14*
X3746Y5417D02*
D03*
X4254D02*
D03*
D15*
X4000Y5448D02*
D03*
D16*
X4142Y4875D02*
D03*
X4008D02*
D03*
D17*
X3724Y4775D02*
D03*
X3576D02*
D03*
D18*
X3425Y4633D02*
D03*
Y4767D02*
D03*
X2725Y2583D02*
D03*
Y2717D02*
D03*
D19*
X2425Y5075D02*
D03*
X2275D02*
D03*
X2000D02*
D03*
X2150D02*
D03*
X2150Y2900D02*
D03*
X2300D02*
D03*
D20*
X1950Y3175D02*
D03*
X1750Y4775D02*
D03*
X1950D02*
D03*
X2150D02*
D03*
X2350D02*
D03*
X2550D02*
D03*
X2750D02*
D03*
X2950D02*
D03*
X3150D02*
D03*
Y3175D02*
D03*
X2950D02*
D03*
X2750D02*
D03*
X2550D02*
D03*
X2350D02*
D03*
X2150D02*
D03*
X1750D02*
D03*
D21*
X2150Y2730D02*
D03*
Y2570D02*
D03*
D22*
X2355Y2480D02*
D03*
X2450D02*
D03*
X2545D02*
D03*
Y2720D02*
D03*
X2355D02*
D03*
D23*
X2725Y2250D02*
D03*
Y2400D02*
D03*
D24*
X2370Y2275D02*
D03*
X2530D02*
D03*
M02*
