G04*
G04 #@! TF.GenerationSoftware,Altium Limited,Altium Designer,23.0.1 (38)*
G04*
G04 Layer_Color=8388736*
%FSLAX42Y42*%
%MOMM*%
G71*
G04*
G04 #@! TF.SameCoordinates,CB3E82BB-9FF2-476D-B46A-5B8657A237F5*
G04*
G04*
G04 #@! TF.FilePolarity,Negative*
G04*
G01*
G75*
%ADD25R,1.80X5.10*%
%ADD26R,1.70X4.01*%
%ADD27R,1.00X1.20*%
%ADD28R,0.94X1.22*%
%ADD29R,1.20X1.00*%
%ADD30R,0.80X1.15*%
%ADD31R,1.60X2.70*%
%ADD32R,1.65X1.20*%
%ADD33R,0.80X1.20*%
%ADD34R,1.15X0.80*%
%ADD35R,1.20X1.65*%
%ADD36C,1.91*%
%ADD37R,1.91X1.91*%
%ADD38C,1.79*%
%ADD39R,1.79X1.79*%
%ADD40C,3.20*%
%ADD41C,0.80*%
D25*
X3746Y5417D02*
D03*
X4254D02*
D03*
D26*
X4000Y5448D02*
D03*
D27*
X4142Y4875D02*
D03*
X4008D02*
D03*
D28*
X3724Y4775D02*
D03*
X3576D02*
D03*
D29*
X3425Y4633D02*
D03*
Y4767D02*
D03*
X2725Y2583D02*
D03*
Y2717D02*
D03*
D30*
X2425Y5075D02*
D03*
X2275D02*
D03*
X2000D02*
D03*
X2150D02*
D03*
X2150Y2900D02*
D03*
X2300D02*
D03*
D31*
X1950Y3175D02*
D03*
X1750Y4775D02*
D03*
X1950D02*
D03*
X2150D02*
D03*
X2350D02*
D03*
X2550D02*
D03*
X2750D02*
D03*
X2950D02*
D03*
X3150D02*
D03*
Y3175D02*
D03*
X2950D02*
D03*
X2750D02*
D03*
X2550D02*
D03*
X2350D02*
D03*
X2150D02*
D03*
X1750D02*
D03*
D32*
X2150Y2730D02*
D03*
Y2570D02*
D03*
D33*
X2355Y2480D02*
D03*
X2450D02*
D03*
X2545D02*
D03*
Y2720D02*
D03*
X2355D02*
D03*
D34*
X2725Y2250D02*
D03*
Y2400D02*
D03*
D35*
X2370Y2275D02*
D03*
X2530D02*
D03*
D36*
X3794Y200D02*
D03*
X3540D02*
D03*
X1254D02*
D03*
X1508D02*
D03*
X1762D02*
D03*
X2016D02*
D03*
X2270D02*
D03*
X2524D02*
D03*
X2778D02*
D03*
X3032D02*
D03*
X3286D02*
D03*
D37*
X1000D02*
D03*
D38*
X1825Y2725D02*
D03*
D39*
X1571D02*
D03*
D40*
X4700Y300D02*
D03*
Y5400D02*
D03*
X300D02*
D03*
Y300D02*
D03*
D41*
X1875Y5075D02*
D03*
X2150Y4300D02*
D03*
X2375Y2125D02*
D03*
X2275Y800D02*
D03*
X3100Y2375D02*
D03*
X2900Y2400D02*
D03*
X1210Y909D02*
D03*
M02*
