M48
;Layer_Color=9474304
;FILE_FORMAT=4:2
METRIC,LZ
;TYPE=PLATED
T1F00S00C0.30
T2F00S00C1.06
T3F00S00C1.14
T4F00S00C2.60
%
T01
X004025Y00065
X004525
X004775Y00115
X004275
X003775
X004025Y00165
X004525
X004775Y00215
X004275
X003775
X004025Y00265
X004525
X004775Y00315
X004275
X003775
X004025Y00365
X004525
X004775Y00415
X004275
X003775
X003275
X002775
X002275
X00215Y0043
X001275Y00415
X000775
X001025Y00365
X000525
X000775Y00315
X001025Y00265
X000525
X000775Y00215
X001025Y00165
X001525
X002025
X002525
X002375Y002125
X002275Y00215
X002295Y0026
X002445
X00257
X002445Y002475
Y002775
X0029Y0024
X0031Y002375
X002775Y00215
X001775
Y00115
X002275
X002275Y0008
X002025Y00065
X001525
X001025
X00121Y000909
X000775Y00115
X000525Y00165
Y00065
X002525Y00365
X003025
X003525
X003275Y00515
X002775
X001875Y005075
X001775Y00515
X001275
X000775
X001025Y00465
X001525
X000525
X004025
X004525
X004775Y00515
T02
X001571Y002725
X001825
T03
X001Y0002
X001254
X001508
X001762
X002016
X00227
X002524
X002778
X003032
X003286
X00354
X003794
T04
X0003Y0003
X0047
X0003Y0054
X0047
M30
