G04*
G04 #@! TF.GenerationSoftware,Altium Limited,Altium Designer,23.0.1 (38)*
G04*
G04 Layer_Color=65535*
%FSLAX42Y42*%
%MOMM*%
G71*
G04*
G04 #@! TF.SameCoordinates,CB3E82BB-9FF2-476D-B46A-5B8657A237F5*
G04*
G04*
G04 #@! TF.FilePolarity,Positive*
G04*
G01*
G75*
%ADD10C,0.12*%
%ADD11C,0.20*%
%ADD12C,0.15*%
%ADD13C,0.25*%
D10*
X896Y73D02*
Y327D01*
X3910D01*
Y73D02*
Y327D01*
X896Y73D02*
X3910D01*
X1444Y2598D02*
X1952D01*
Y2852D01*
X1444D02*
X1952D01*
X1444Y2598D02*
Y2852D01*
X1992Y5175D02*
Y5275D01*
X2042D01*
X2058Y5258D01*
Y5225D01*
X2042Y5208D01*
X1992D01*
X2025D02*
X2058Y5175D01*
X2092Y5258D02*
X2108Y5275D01*
X2142D01*
X2158Y5258D01*
Y5242D01*
X2142Y5225D01*
X2125D01*
X2142D01*
X2158Y5208D01*
Y5192D01*
X2142Y5175D01*
X2108D01*
X2092Y5192D01*
X2267Y5175D02*
Y5275D01*
X2317D01*
X2333Y5258D01*
Y5225D01*
X2317Y5208D01*
X2267D01*
X2300D02*
X2333Y5175D01*
X2417D02*
Y5275D01*
X2367Y5225D01*
X2433D01*
X3308Y3875D02*
Y3975D01*
X3342Y3942D01*
X3375Y3975D01*
Y3875D01*
X3408D02*
X3442D01*
X3425D01*
Y3975D01*
X3408Y3958D01*
X4075Y250D02*
X4042D01*
X4058D01*
Y167D01*
X4042Y150D01*
X4025D01*
X4008Y167D01*
X4108Y150D02*
Y250D01*
X4158D01*
X4175Y233D01*
Y200D01*
X4158Y183D01*
X4108D01*
X4208Y150D02*
X4242D01*
X4225D01*
Y250D01*
X4208Y233D01*
X2158Y2450D02*
Y2367D01*
X2175Y2350D01*
X2208D01*
X2225Y2367D01*
Y2450D01*
X2258Y2350D02*
X2292D01*
X2275D01*
Y2450D01*
X2258Y2433D01*
X2392Y2850D02*
Y2950D01*
X2442D01*
X2458Y2933D01*
Y2900D01*
X2442Y2883D01*
X2392D01*
X2425D02*
X2458Y2850D01*
X2558D02*
X2492D01*
X2558Y2917D01*
Y2933D01*
X2542Y2950D01*
X2508D01*
X2492Y2933D01*
X2808Y2275D02*
Y2375D01*
X2858D01*
X2875Y2358D01*
Y2325D01*
X2858Y2308D01*
X2808D01*
X2842D02*
X2875Y2275D01*
X2908D02*
X2942D01*
X2925D01*
Y2375D01*
X2908Y2358D01*
X3583Y4675D02*
Y4575D01*
X3650D01*
X3683D02*
X3717D01*
X3700D01*
Y4675D01*
X3683Y4658D01*
X4308Y5075D02*
X4275D01*
X4292D01*
Y4992D01*
X4275Y4975D01*
X4258D01*
X4242Y4992D01*
X4342Y4975D02*
Y5075D01*
X4392D01*
X4408Y5058D01*
Y5025D01*
X4392Y5008D01*
X4342D01*
X4442Y5058D02*
X4458Y5075D01*
X4492D01*
X4508Y5058D01*
Y5042D01*
X4492Y5025D01*
X4475D01*
X4492D01*
X4508Y5008D01*
Y4992D01*
X4492Y4975D01*
X4458D01*
X4442Y4992D01*
X1333Y3000D02*
X1300D01*
X1317D01*
Y2917D01*
X1300Y2900D01*
X1283D01*
X1267Y2917D01*
X1367Y2900D02*
Y3000D01*
X1417D01*
X1433Y2983D01*
Y2950D01*
X1417Y2933D01*
X1367D01*
X1533Y2900D02*
X1467D01*
X1533Y2967D01*
Y2983D01*
X1517Y3000D01*
X1483D01*
X1467Y2983D01*
X4058Y4783D02*
X4042Y4800D01*
X4008D01*
X3992Y4783D01*
Y4717D01*
X4008Y4700D01*
X4042D01*
X4058Y4717D01*
X4158Y4800D02*
X4092D01*
Y4750D01*
X4125Y4767D01*
X4142D01*
X4158Y4750D01*
Y4717D01*
X4142Y4700D01*
X4108D01*
X4092Y4717D01*
X3408Y4558D02*
X3392Y4575D01*
X3358D01*
X3342Y4558D01*
Y4492D01*
X3358Y4475D01*
X3392D01*
X3408Y4492D01*
X3492Y4475D02*
Y4575D01*
X3442Y4525D01*
X3508D01*
X2008Y2433D02*
X1992Y2450D01*
X1958D01*
X1942Y2433D01*
Y2367D01*
X1958Y2350D01*
X1992D01*
X2008Y2367D01*
X2042Y2433D02*
X2058Y2450D01*
X2092D01*
X2108Y2433D01*
Y2417D01*
X2092Y2400D01*
X2075D01*
X2092D01*
X2108Y2383D01*
Y2367D01*
X2092Y2350D01*
X2058D01*
X2042Y2367D01*
X2883Y2683D02*
X2867Y2700D01*
X2833D01*
X2817Y2683D01*
Y2617D01*
X2833Y2600D01*
X2867D01*
X2883Y2617D01*
X2983Y2600D02*
X2917D01*
X2983Y2667D01*
Y2683D01*
X2967Y2700D01*
X2933D01*
X2917Y2683D01*
X2450Y2158D02*
X2433Y2175D01*
X2400D01*
X2383Y2158D01*
Y2092D01*
X2400Y2075D01*
X2433D01*
X2450Y2092D01*
X2483Y2075D02*
X2517D01*
X2500D01*
Y2175D01*
X2483Y2158D01*
D11*
X3650Y5867D02*
X4350D01*
X4114Y5703D02*
X4350D01*
X4245Y6154D02*
X4266Y6192D01*
X4271D02*
X4309Y6213D01*
Y6227D01*
X4272Y6248D02*
X4309Y6227D01*
X4272Y6248D02*
X4309Y6269D01*
Y6283D01*
X4272Y6304D02*
X4309Y6283D01*
X4272Y6304D02*
X4309Y6325D01*
Y6339D01*
X4272Y6360D02*
X4309Y6339D01*
X4272Y6360D02*
X4309Y6381D01*
Y6395D01*
X4272Y6416D02*
X4309Y6395D01*
X4272Y6416D02*
X4309Y6437D01*
Y6451D01*
X4272Y6472D02*
X4309Y6451D01*
X4272Y6472D02*
X4309Y6493D01*
Y6507D01*
X4272Y6528D02*
X4309Y6507D01*
X4272Y6528D02*
X4309Y6549D01*
Y6563D01*
X4272Y6584D02*
X4309Y6563D01*
X3733Y6584D02*
X4272D01*
X3691Y6563D02*
X3733Y6584D01*
X3691Y6549D02*
Y6563D01*
Y6549D02*
X3728Y6528D01*
X3691Y6507D02*
X3728Y6528D01*
X3691Y6493D02*
Y6507D01*
Y6493D02*
X3728Y6472D01*
X3691Y6451D02*
X3728Y6472D01*
X3691Y6437D02*
Y6451D01*
Y6437D02*
X3728Y6416D01*
X3691Y6395D02*
X3728Y6416D01*
X3691Y6381D02*
Y6395D01*
Y6381D02*
X3728Y6360D01*
X3691Y6339D02*
X3728Y6360D01*
X3691Y6325D02*
Y6339D01*
Y6325D02*
X3728Y6304D01*
X3691Y6283D02*
X3728Y6304D01*
X3691Y6269D02*
Y6283D01*
Y6269D02*
X3728Y6248D01*
X3691Y6227D02*
X3728Y6248D01*
X3691Y6213D02*
Y6227D01*
Y6213D02*
X3728Y6192D01*
X4271D01*
X3733D02*
X3755Y6154D01*
X3755D02*
X4245D01*
Y5867D02*
Y6154D01*
X4267Y6584D02*
Y6656D01*
X3733D02*
X4267D01*
X3733Y6584D02*
Y6656D01*
X3755Y5867D02*
Y6154D01*
X3691Y6269D02*
X4309Y6213D01*
X3691Y6283D02*
X4309Y6227D01*
X3728Y6304D02*
X4272Y6248D01*
X3728D02*
X4271Y6192D01*
X3691Y6213D02*
X4266Y6192D01*
X3691Y6227D02*
X4271Y6192D01*
X3691Y6325D02*
X4309Y6269D01*
X3691Y6339D02*
X4309Y6283D01*
X3728Y6360D02*
X4272Y6304D01*
X3691Y6381D02*
X4309Y6325D01*
X3691Y6395D02*
X4309Y6339D01*
X3728Y6416D02*
X4272Y6360D01*
X3691Y6437D02*
X4309Y6381D01*
X3691Y6451D02*
X4309Y6395D01*
X3728Y6472D02*
X4272Y6416D01*
X3691Y6493D02*
X4309Y6437D01*
X3691Y6507D02*
X4309Y6451D01*
X3728Y6528D02*
X4272Y6472D01*
X3691Y6549D02*
X4309Y6493D01*
X3691Y6563D02*
X4309Y6507D01*
X3733Y6584D02*
X4272Y6528D01*
X3733Y6584D02*
X4309Y6549D01*
X3733Y6584D02*
X4309Y6563D01*
X4350Y5703D02*
Y5867D01*
X3650Y5703D02*
Y5867D01*
Y5703D02*
X3886D01*
X3640Y4734D02*
X3660D01*
X3640Y4816D02*
X3660D01*
X2345Y5038D02*
X2355D01*
X2345Y5112D02*
X2355D01*
X2070D02*
X2080D01*
X2070Y5038D02*
X2080D01*
X3250Y3175D02*
Y4775D01*
X1650Y3175D02*
Y4775D01*
X2220Y2938D02*
X2230D01*
X2220Y2862D02*
X2230D01*
X2300Y2570D02*
Y2630D01*
X2600Y2570D02*
Y2630D01*
X2300Y2570D02*
X2600D01*
X2300Y2630D02*
X2600D01*
X2688Y2320D02*
Y2330D01*
X2762Y2320D02*
Y2330D01*
D12*
X1510Y2190D02*
X1610D01*
Y2240D01*
X1593Y2257D01*
X1527D01*
X1510Y2240D01*
Y2190D01*
Y2290D02*
Y2323D01*
Y2307D01*
X1610D01*
Y2290D01*
Y2323D01*
X1510Y2423D02*
Y2390D01*
X1527Y2373D01*
X1593D01*
X1610Y2390D01*
Y2423D01*
X1593Y2440D01*
X1527D01*
X1510Y2423D01*
X1610Y2540D02*
Y2473D01*
X1543Y2540D01*
X1527D01*
X1510Y2523D01*
Y2490D01*
X1527Y2473D01*
X1760Y2190D02*
X1860D01*
Y2240D01*
X1843Y2257D01*
X1777D01*
X1760Y2240D01*
Y2190D01*
Y2290D02*
Y2323D01*
Y2307D01*
X1860D01*
Y2290D01*
Y2323D01*
X1760Y2423D02*
Y2390D01*
X1777Y2373D01*
X1843D01*
X1860Y2390D01*
Y2423D01*
X1843Y2440D01*
X1777D01*
X1760Y2423D01*
X1777Y2473D02*
X1760Y2490D01*
Y2523D01*
X1777Y2540D01*
X1793D01*
X1810Y2523D01*
Y2507D01*
Y2523D01*
X1827Y2540D01*
X1843D01*
X1860Y2523D01*
Y2490D01*
X1843Y2473D01*
D13*
X3225Y5225D02*
Y5375D01*
X3300D01*
X3325Y5350D01*
Y5300D01*
X3300Y5275D01*
X3225D01*
X3275D02*
X3325Y5225D01*
X3475Y5375D02*
X3375D01*
Y5300D01*
X3425D01*
X3375D01*
Y5225D01*
X4625Y1200D02*
X4575Y1150D01*
X4525D01*
X4475Y1200D01*
X4525Y1375D02*
Y1300D01*
X4550Y1275D01*
X4600D01*
X4625Y1300D01*
Y1375D01*
Y1425D02*
X4575Y1475D01*
X4525D01*
X4475Y1425D01*
X4500Y1800D02*
X4475Y1775D01*
Y1725D01*
X4500Y1700D01*
X4600D01*
X4625Y1725D01*
Y1775D01*
X4600Y1800D01*
X4550D01*
Y1750D01*
X4475Y1850D02*
X4625D01*
Y1925D01*
X4600Y1950D01*
X4575D01*
X4550Y1925D01*
Y1850D01*
Y1925D01*
X4525Y1950D01*
X4500D01*
X4475Y1925D01*
Y1850D01*
Y2000D02*
X4625D01*
Y2100D01*
Y2250D02*
Y2150D01*
X4525Y2250D01*
X4500D01*
X4475Y2225D01*
Y2175D01*
X4500Y2150D01*
Y2300D02*
X4475Y2325D01*
Y2375D01*
X4500Y2400D01*
X4600D01*
X4625Y2375D01*
Y2325D01*
X4600Y2300D01*
X4500D01*
X4625Y2550D02*
Y2450D01*
X4525Y2550D01*
X4500D01*
X4475Y2525D01*
Y2475D01*
X4500Y2450D01*
X4475Y2700D02*
Y2600D01*
X4550D01*
X4525Y2650D01*
Y2675D01*
X4550Y2700D01*
X4600D01*
X4625Y2675D01*
Y2625D01*
X4600Y2600D01*
X4325Y1150D02*
Y1200D01*
Y1175D01*
X4175D01*
X4200Y1150D01*
X4325Y1375D02*
Y1275D01*
X4225Y1375D01*
X4200D01*
X4175Y1350D01*
Y1300D01*
X4200Y1275D01*
Y1425D02*
X4175Y1450D01*
Y1500D01*
X4200Y1525D01*
X4225D01*
X4250Y1500D01*
X4275Y1525D01*
X4300D01*
X4325Y1500D01*
Y1450D01*
X4300Y1425D01*
X4275D01*
X4250Y1450D01*
X4225Y1425D01*
X4200D01*
X4250Y1450D02*
Y1500D01*
X4200Y1575D02*
X4175Y1600D01*
Y1650D01*
X4200Y1675D01*
X4300D01*
X4325Y1650D01*
Y1600D01*
X4300Y1575D01*
X4200D01*
X4325Y1950D02*
Y1900D01*
X4300Y1875D01*
X4250D01*
X4225Y1900D01*
Y1950D01*
X4250Y1975D01*
X4275D01*
Y1875D01*
X4225Y2025D02*
X4325Y2075D01*
X4225Y2125D01*
Y2200D02*
Y2250D01*
X4250Y2275D01*
X4325D01*
Y2200D01*
X4300Y2175D01*
X4275Y2200D01*
Y2275D01*
X4325Y2325D02*
Y2375D01*
Y2350D01*
X4175D01*
Y2325D01*
X4225Y2450D02*
X4300D01*
X4325Y2475D01*
Y2550D01*
X4225D01*
Y2625D02*
Y2675D01*
X4250Y2700D01*
X4325D01*
Y2625D01*
X4300Y2600D01*
X4275Y2625D01*
Y2700D01*
X4200Y2775D02*
X4225D01*
Y2750D01*
Y2800D01*
Y2775D01*
X4300D01*
X4325Y2800D01*
Y2875D02*
Y2925D01*
Y2900D01*
X4225D01*
Y2875D01*
X4325Y3025D02*
Y3075D01*
X4300Y3100D01*
X4250D01*
X4225Y3075D01*
Y3025D01*
X4250Y3000D01*
X4300D01*
X4325Y3025D01*
Y3150D02*
X4225D01*
Y3225D01*
X4250Y3250D01*
X4325D01*
Y3450D02*
X4225D01*
Y3475D01*
X4250Y3500D01*
X4325D01*
X4250D01*
X4225Y3525D01*
X4250Y3550D01*
X4325D01*
Y3625D02*
Y3675D01*
X4300Y3700D01*
X4250D01*
X4225Y3675D01*
Y3625D01*
X4250Y3600D01*
X4300D01*
X4325Y3625D01*
X4175Y3850D02*
X4325D01*
Y3775D01*
X4300Y3750D01*
X4250D01*
X4225Y3775D01*
Y3850D01*
Y3900D02*
X4300D01*
X4325Y3925D01*
Y3999D01*
X4225D01*
X4325Y4049D02*
Y4099D01*
Y4074D01*
X4175D01*
Y4049D01*
X4325Y4249D02*
Y4199D01*
X4300Y4174D01*
X4250D01*
X4225Y4199D01*
Y4249D01*
X4250Y4274D01*
X4275D01*
Y4174D01*
X950Y500D02*
X925Y475D01*
Y425D01*
X950Y400D01*
X1050D01*
X1075Y425D01*
Y475D01*
X1050Y500D01*
X1000D01*
Y450D01*
X1075Y550D02*
X925D01*
X1075Y650D01*
X925D01*
Y700D02*
X1075D01*
Y775D01*
X1050Y800D01*
X950D01*
X925Y775D01*
Y700D01*
X1175Y400D02*
X1325D01*
Y475D01*
X1300Y500D01*
X1275D01*
X1250Y475D01*
Y400D01*
Y475D01*
X1225Y500D01*
X1200D01*
X1175Y475D01*
Y400D01*
Y550D02*
X1300D01*
X1325Y575D01*
Y625D01*
X1300Y650D01*
X1175D01*
X1200Y800D02*
X1175Y775D01*
Y725D01*
X1200Y700D01*
X1225D01*
X1250Y725D01*
Y775D01*
X1275Y800D01*
X1300D01*
X1325Y775D01*
Y725D01*
X1300Y700D01*
X1175Y850D02*
X1200D01*
X1250Y900D01*
X1200Y950D01*
X1175D01*
X1250Y900D02*
X1325D01*
X1575Y400D02*
X1425D01*
Y475D01*
X1450Y500D01*
X1500D01*
X1525Y475D01*
Y400D01*
Y450D02*
X1575Y500D01*
X1425Y650D02*
Y550D01*
X1575D01*
Y650D01*
X1500Y550D02*
Y600D01*
X1450Y800D02*
X1425Y775D01*
Y725D01*
X1450Y700D01*
X1475D01*
X1500Y725D01*
Y775D01*
X1525Y800D01*
X1550D01*
X1575Y775D01*
Y725D01*
X1550Y700D01*
X1425Y950D02*
Y850D01*
X1575D01*
Y950D01*
X1500Y850D02*
Y900D01*
X1425Y1000D02*
Y1100D01*
Y1050D01*
X1575D01*
X1825Y400D02*
X1675D01*
X1825Y500D01*
X1675D01*
X1700Y650D02*
X1675Y625D01*
Y575D01*
X1700Y550D01*
X1725D01*
X1750Y575D01*
Y625D01*
X1775Y650D01*
X1800D01*
X1825Y625D01*
Y575D01*
X1800Y550D01*
X1700Y800D02*
X1675Y775D01*
Y725D01*
X1700Y700D01*
X1725D01*
X1750Y725D01*
Y775D01*
X1775Y800D01*
X1800D01*
X1825Y775D01*
Y725D01*
X1800Y700D01*
X1975Y500D02*
X1950Y475D01*
Y425D01*
X1975Y400D01*
X2000D01*
X2025Y425D01*
Y475D01*
X2050Y500D01*
X2075D01*
X2100Y475D01*
Y425D01*
X2075Y400D01*
X1975Y650D02*
X1950Y625D01*
Y575D01*
X1975Y550D01*
X2075D01*
X2100Y575D01*
Y625D01*
X2075Y650D01*
X1950Y700D02*
X2100D01*
X2050D01*
X1950Y800D01*
X2025Y725D01*
X2100Y800D01*
X2350Y400D02*
X2200D01*
X2250Y450D01*
X2200Y500D01*
X2350D01*
X2200Y550D02*
Y600D01*
Y575D01*
X2350D01*
Y550D01*
Y600D01*
X2225Y775D02*
X2200Y750D01*
Y700D01*
X2225Y675D01*
X2250D01*
X2275Y700D01*
Y750D01*
X2300Y775D01*
X2325D01*
X2350Y750D01*
Y700D01*
X2325Y675D01*
X2200Y900D02*
Y850D01*
X2225Y825D01*
X2325D01*
X2350Y850D01*
Y900D01*
X2325Y925D01*
X2225D01*
X2200Y900D01*
X2600Y400D02*
X2450D01*
X2500Y450D01*
X2450Y500D01*
X2600D01*
X2450Y625D02*
Y575D01*
X2475Y550D01*
X2575D01*
X2600Y575D01*
Y625D01*
X2575Y650D01*
X2475D01*
X2450Y625D01*
X2475Y800D02*
X2450Y775D01*
Y725D01*
X2475Y700D01*
X2500D01*
X2525Y725D01*
Y775D01*
X2550Y800D01*
X2575D01*
X2600Y775D01*
Y725D01*
X2575Y700D01*
X2450Y850D02*
Y900D01*
Y875D01*
X2600D01*
Y850D01*
Y900D01*
X2700Y400D02*
Y450D01*
Y425D01*
X2850D01*
Y400D01*
Y450D01*
Y525D02*
X2700D01*
X2850Y625D01*
X2700D01*
Y675D02*
Y775D01*
Y725D01*
X2850D01*
X3100Y400D02*
X2950D01*
Y475D01*
X2975Y500D01*
X3025D01*
X3050Y475D01*
Y400D01*
Y450D02*
X3100Y500D01*
X2950Y650D02*
Y550D01*
X3025D01*
Y600D01*
Y550D01*
X3100D01*
X2950Y800D02*
Y700D01*
X3100D01*
Y800D01*
X3025Y700D02*
Y750D01*
X3100Y850D02*
X2950D01*
X3100Y950D01*
X2950D01*
X3275Y400D02*
Y500D01*
X3225Y450D02*
X3325D01*
X3225Y550D02*
X3200Y575D01*
Y625D01*
X3225Y650D01*
X3250D01*
X3275Y625D01*
Y600D01*
Y625D01*
X3300Y650D01*
X3325D01*
X3350Y625D01*
Y575D01*
X3325Y550D01*
X3200Y700D02*
X3300D01*
X3350Y750D01*
X3300Y800D01*
X3200D01*
X3225Y850D02*
X3200Y875D01*
Y925D01*
X3225Y950D01*
X3250D01*
X3275Y925D01*
Y900D01*
Y925D01*
X3300Y950D01*
X3325D01*
X3350Y925D01*
Y875D01*
X3325Y850D01*
X3525Y400D02*
Y500D01*
X3475Y450D02*
X3575D01*
X3450Y550D02*
X3550D01*
X3600Y600D01*
X3550Y650D01*
X3450D01*
Y700D02*
X3600D01*
Y775D01*
X3575Y800D01*
X3550D01*
X3525Y775D01*
Y700D01*
Y775D01*
X3500Y800D01*
X3475D01*
X3450Y775D01*
Y700D01*
X3600Y850D02*
X3500D01*
X3450Y900D01*
X3500Y950D01*
X3600D01*
X3525D01*
Y850D01*
X3450Y1000D02*
Y1100D01*
Y1050D01*
X3600D01*
X3725Y500D02*
X3700Y475D01*
Y425D01*
X3725Y400D01*
X3825D01*
X3850Y425D01*
Y475D01*
X3825Y500D01*
X3775D01*
Y450D01*
X3850Y550D02*
X3700D01*
X3850Y650D01*
X3700D01*
Y700D02*
X3850D01*
Y775D01*
X3825Y800D01*
X3725D01*
X3700Y775D01*
Y700D01*
M02*
