G04*
G04 #@! TF.GenerationSoftware,Altium Limited,Altium Designer,23.0.1 (38)*
G04*
G04 Layer_Physical_Order=2*
G04 Layer_Color=16711680*
%FSLAX42Y42*%
%MOMM*%
G71*
G04*
G04 #@! TF.SameCoordinates,3433DA3D-91B1-4410-BB2C-93CE1E17D256*
G04*
G04*
G04 #@! TF.FilePolarity,Positive*
G04*
G01*
G75*
%ADD14R,1.60X4.90*%
%ADD40C,0.25*%
%ADD41C,0.80*%
%ADD43C,1.71*%
%ADD44R,1.71X1.71*%
%ADD45C,1.59*%
%ADD46R,1.59X1.59*%
%ADD47C,3.00*%
%ADD48C,0.60*%
G36*
X4967Y33D02*
X33D01*
Y5667D01*
X4967D01*
Y33D01*
D02*
G37*
%LPC*%
G36*
X4717Y5575D02*
X4713D01*
Y5413D01*
X4875D01*
Y5417D01*
X4869Y5451D01*
X4855Y5483D01*
X4836Y5512D01*
X4812Y5536D01*
X4783Y5555D01*
X4751Y5569D01*
X4717Y5575D01*
D02*
G37*
G36*
X4687D02*
X4683D01*
X4649Y5569D01*
X4617Y5555D01*
X4588Y5536D01*
X4564Y5512D01*
X4545Y5483D01*
X4531Y5451D01*
X4525Y5417D01*
Y5413D01*
X4687D01*
Y5575D01*
D02*
G37*
G36*
X317D02*
X313D01*
Y5413D01*
X475D01*
Y5417D01*
X469Y5451D01*
X455Y5483D01*
X436Y5512D01*
X412Y5536D01*
X383Y5555D01*
X351Y5569D01*
X317Y5575D01*
D02*
G37*
G36*
X287D02*
X283D01*
X249Y5569D01*
X217Y5555D01*
X188Y5536D01*
X164Y5512D01*
X145Y5483D01*
X131Y5451D01*
X125Y5417D01*
Y5413D01*
X287D01*
Y5575D01*
D02*
G37*
G36*
X4875Y5387D02*
X4713D01*
Y5225D01*
X4717D01*
X4751Y5231D01*
X4783Y5245D01*
X4812Y5264D01*
X4836Y5288D01*
X4855Y5317D01*
X4869Y5349D01*
X4875Y5383D01*
Y5387D01*
D02*
G37*
G36*
X4687D02*
X4525D01*
Y5383D01*
X4531Y5349D01*
X4545Y5317D01*
X4564Y5288D01*
X4588Y5264D01*
X4617Y5245D01*
X4649Y5231D01*
X4683Y5225D01*
X4687D01*
Y5387D01*
D02*
G37*
G36*
X475D02*
X313D01*
Y5225D01*
X317D01*
X351Y5231D01*
X383Y5245D01*
X412Y5264D01*
X436Y5288D01*
X455Y5317D01*
X469Y5349D01*
X475Y5383D01*
Y5387D01*
D02*
G37*
G36*
X287D02*
X125D01*
Y5383D01*
X131Y5349D01*
X145Y5317D01*
X164Y5288D01*
X188Y5264D01*
X217Y5245D01*
X249Y5231D01*
X283Y5225D01*
X287D01*
Y5387D01*
D02*
G37*
G36*
X1580Y4209D02*
X1488D01*
Y4117D01*
X1580D01*
Y4209D01*
D02*
G37*
G36*
X1462D02*
X1370D01*
Y4117D01*
X1462D01*
Y4209D01*
D02*
G37*
G36*
X1580Y4091D02*
X1488D01*
Y3999D01*
X1580D01*
Y4091D01*
D02*
G37*
G36*
X1462D02*
X1370D01*
Y3999D01*
X1462D01*
Y4091D01*
D02*
G37*
G36*
X875Y4311D02*
X852Y4307D01*
X832Y4293D01*
X818Y4273D01*
X814Y4250D01*
Y3808D01*
X801Y3801D01*
X793Y3807D01*
X770Y3811D01*
X746Y3807D01*
X726Y3793D01*
X713Y3773D01*
X708Y3750D01*
Y2716D01*
X713Y2693D01*
X726Y2673D01*
X3182Y218D01*
X3181Y214D01*
Y186D01*
X3188Y159D01*
X3202Y135D01*
X3221Y116D01*
X3245Y102D01*
X3272Y94D01*
X3300D01*
X3327Y102D01*
X3351Y116D01*
X3370Y135D01*
X3384Y159D01*
X3392Y186D01*
Y214D01*
X3384Y241D01*
X3370Y265D01*
X3351Y284D01*
X3327Y298D01*
X3300Y306D01*
X3272D01*
X3268Y304D01*
X831Y2742D01*
Y2890D01*
X843Y2895D01*
X3459Y279D01*
Y269D01*
X3456Y265D01*
X3442Y241D01*
X3435Y214D01*
Y186D01*
X3442Y159D01*
X3456Y135D01*
X3475Y116D01*
X3499Y102D01*
X3526Y94D01*
X3554D01*
X3581Y102D01*
X3605Y116D01*
X3624Y135D01*
X3638Y159D01*
X3646Y186D01*
Y214D01*
X3638Y241D01*
X3624Y265D01*
X3605Y284D01*
X3582Y298D01*
Y304D01*
X3577Y328D01*
X3564Y348D01*
X936Y2975D01*
Y4250D01*
X932Y4273D01*
X918Y4293D01*
X898Y4307D01*
X875Y4311D01*
D02*
G37*
G36*
X1488Y3949D02*
X1462D01*
X1437Y3943D01*
X1414Y3930D01*
X1395Y3911D01*
X1382Y3888D01*
X1376Y3863D01*
Y3837D01*
X1382Y3812D01*
X1395Y3789D01*
X1414Y3770D01*
X1437Y3757D01*
X1462Y3751D01*
X1488D01*
X1513Y3757D01*
X1536Y3770D01*
X1555Y3789D01*
X1568Y3812D01*
X1574Y3837D01*
Y3863D01*
X1568Y3888D01*
X1555Y3911D01*
X1536Y3930D01*
X1513Y3943D01*
X1488Y3949D01*
D02*
G37*
G36*
X4717Y475D02*
X4713D01*
Y313D01*
X4875D01*
Y317D01*
X4869Y351D01*
X4855Y383D01*
X4836Y412D01*
X4812Y436D01*
X4783Y455D01*
X4751Y469D01*
X4717Y475D01*
D02*
G37*
G36*
X4687D02*
X4683D01*
X4649Y469D01*
X4617Y455D01*
X4588Y436D01*
X4564Y412D01*
X4545Y383D01*
X4531Y351D01*
X4525Y317D01*
Y313D01*
X4687D01*
Y475D01*
D02*
G37*
G36*
X317D02*
X313D01*
Y313D01*
X475D01*
Y317D01*
X469Y351D01*
X455Y383D01*
X436Y412D01*
X412Y436D01*
X383Y455D01*
X351Y469D01*
X317Y475D01*
D02*
G37*
G36*
X287D02*
X283D01*
X249Y469D01*
X217Y455D01*
X188Y436D01*
X164Y412D01*
X145Y383D01*
X131Y351D01*
X125Y317D01*
Y313D01*
X287D01*
Y475D01*
D02*
G37*
G36*
X3809Y311D02*
X3807D01*
Y213D01*
X3905D01*
Y215D01*
X3897Y243D01*
X3883Y268D01*
X3862Y289D01*
X3837Y303D01*
X3809Y311D01*
D02*
G37*
G36*
X3781D02*
X3779D01*
X3751Y303D01*
X3726Y289D01*
X3705Y268D01*
X3691Y243D01*
X3683Y215D01*
Y213D01*
X3781D01*
Y311D01*
D02*
G37*
G36*
X1111D02*
X1013D01*
Y213D01*
X1111D01*
Y311D01*
D02*
G37*
G36*
X987D02*
X889D01*
Y213D01*
X987D01*
Y311D01*
D02*
G37*
G36*
X4875Y287D02*
X4713D01*
Y125D01*
X4717D01*
X4751Y131D01*
X4783Y145D01*
X4812Y164D01*
X4836Y188D01*
X4855Y217D01*
X4869Y249D01*
X4875Y283D01*
Y287D01*
D02*
G37*
G36*
X4687D02*
X4525D01*
Y283D01*
X4531Y249D01*
X4545Y217D01*
X4564Y188D01*
X4588Y164D01*
X4617Y145D01*
X4649Y131D01*
X4683Y125D01*
X4687D01*
Y287D01*
D02*
G37*
G36*
X475D02*
X313D01*
Y125D01*
X317D01*
X351Y131D01*
X383Y145D01*
X412Y164D01*
X436Y188D01*
X455Y217D01*
X469Y249D01*
X475Y283D01*
Y287D01*
D02*
G37*
G36*
X287D02*
X125D01*
Y283D01*
X131Y249D01*
X145Y217D01*
X164Y188D01*
X188Y164D01*
X217Y145D01*
X249Y131D01*
X283Y125D01*
X287D01*
Y287D01*
D02*
G37*
G36*
X610Y4225D02*
X590D01*
X572Y4217D01*
X558Y4203D01*
X550Y4185D01*
Y4165D01*
X558Y4147D01*
X567Y4137D01*
Y2632D01*
X569Y2619D01*
X577Y2609D01*
X2938Y248D01*
X2934Y241D01*
X2926Y214D01*
Y186D01*
X2934Y159D01*
X2948Y135D01*
X2967Y116D01*
X2991Y102D01*
X3018Y94D01*
X3046D01*
X3073Y102D01*
X3097Y116D01*
X3116Y135D01*
X3130Y159D01*
X3138Y186D01*
Y214D01*
X3130Y241D01*
X3116Y265D01*
X3097Y284D01*
X3073Y298D01*
X3046Y306D01*
X3018D01*
X2991Y298D01*
X2984Y294D01*
X633Y2646D01*
Y4137D01*
X642Y4147D01*
X650Y4165D01*
Y4185D01*
X642Y4203D01*
X628Y4217D01*
X610Y4225D01*
D02*
G37*
G36*
X585Y1275D02*
X565D01*
X547Y1267D01*
X533Y1253D01*
X525Y1235D01*
Y1215D01*
X533Y1197D01*
X547Y1183D01*
X565Y1175D01*
X578D01*
X627Y1127D01*
X637Y1119D01*
X650Y1117D01*
X1814D01*
X2684Y248D01*
X2680Y241D01*
X2673Y214D01*
Y186D01*
X2680Y159D01*
X2694Y135D01*
X2713Y116D01*
X2737Y102D01*
X2764Y94D01*
X2792D01*
X2819Y102D01*
X2843Y116D01*
X2862Y135D01*
X2876Y159D01*
X2883Y186D01*
Y214D01*
X2876Y241D01*
X2862Y265D01*
X2843Y284D01*
X2819Y298D01*
X2792Y306D01*
X2764D01*
X2737Y298D01*
X2730Y294D01*
X1851Y1173D01*
X1841Y1181D01*
X1828Y1183D01*
X664D01*
X625Y1222D01*
Y1235D01*
X617Y1253D01*
X603Y1267D01*
X585Y1275D01*
D02*
G37*
G36*
X960Y1050D02*
X940D01*
X922Y1042D01*
X908Y1028D01*
X900Y1010D01*
Y990D01*
X908Y972D01*
X922Y958D01*
X940Y950D01*
X960D01*
X978Y958D01*
X988Y967D01*
X1710D01*
X2430Y248D01*
X2426Y241D01*
X2418Y214D01*
Y186D01*
X2426Y159D01*
X2440Y135D01*
X2459Y116D01*
X2483Y102D01*
X2510Y94D01*
X2538D01*
X2565Y102D01*
X2589Y116D01*
X2608Y135D01*
X2622Y159D01*
X2630Y186D01*
Y214D01*
X2622Y241D01*
X2608Y265D01*
X2589Y284D01*
X2565Y298D01*
X2538Y306D01*
X2510D01*
X2483Y298D01*
X2476Y294D01*
X1747Y1023D01*
X1737Y1031D01*
X1724Y1033D01*
X988D01*
X978Y1042D01*
X960Y1050D01*
D02*
G37*
G36*
Y875D02*
X940D01*
X922Y867D01*
X908Y853D01*
X900Y835D01*
Y815D01*
X908Y797D01*
X922Y783D01*
X940Y775D01*
X960D01*
X978Y783D01*
X988Y792D01*
X1631D01*
X2176Y248D01*
X2172Y241D01*
X2165Y214D01*
Y186D01*
X2172Y159D01*
X2186Y135D01*
X2205Y116D01*
X2229Y102D01*
X2256Y94D01*
X2284D01*
X2311Y102D01*
X2335Y116D01*
X2354Y135D01*
X2368Y159D01*
X2375Y186D01*
Y214D01*
X2368Y241D01*
X2354Y265D01*
X2335Y284D01*
X2311Y298D01*
X2284Y306D01*
X2256D01*
X2229Y298D01*
X2222Y294D01*
X1668Y848D01*
X1658Y856D01*
X1645Y858D01*
X988D01*
X978Y867D01*
X960Y875D01*
D02*
G37*
G36*
X1185Y625D02*
X1165D01*
X1147Y617D01*
X1133Y603D01*
X1125Y585D01*
Y565D01*
X1133Y547D01*
X1147Y533D01*
X1165Y525D01*
X1185D01*
X1203Y533D01*
X1213Y542D01*
X1627D01*
X1922Y248D01*
X1918Y241D01*
X1910Y214D01*
Y186D01*
X1918Y159D01*
X1932Y135D01*
X1951Y116D01*
X1975Y102D01*
X2002Y94D01*
X2030D01*
X2057Y102D01*
X2081Y116D01*
X2100Y135D01*
X2114Y159D01*
X2122Y186D01*
Y214D01*
X2114Y241D01*
X2100Y265D01*
X2081Y284D01*
X2057Y298D01*
X2030Y306D01*
X2002D01*
X1975Y298D01*
X1968Y294D01*
X1664Y598D01*
X1654Y606D01*
X1641Y608D01*
X1213D01*
X1203Y617D01*
X1185Y625D01*
D02*
G37*
G36*
X1360Y475D02*
X1340D01*
X1322Y467D01*
X1308Y453D01*
X1300Y435D01*
Y415D01*
X1308Y397D01*
X1322Y383D01*
X1340Y375D01*
X1360D01*
X1378Y383D01*
X1388Y392D01*
X1523D01*
X1668Y248D01*
X1664Y241D01*
X1657Y214D01*
Y186D01*
X1664Y159D01*
X1678Y135D01*
X1697Y116D01*
X1721Y102D01*
X1748Y94D01*
X1776D01*
X1803Y102D01*
X1827Y116D01*
X1846Y135D01*
X1860Y159D01*
X1867Y186D01*
Y214D01*
X1860Y241D01*
X1846Y265D01*
X1827Y284D01*
X1803Y298D01*
X1776Y306D01*
X1748D01*
X1721Y298D01*
X1714Y294D01*
X1560Y448D01*
X1550Y456D01*
X1537Y458D01*
X1388D01*
X1378Y467D01*
X1360Y475D01*
D02*
G37*
G36*
X1522Y306D02*
X1494D01*
X1467Y298D01*
X1443Y284D01*
X1424Y265D01*
X1410Y241D01*
X1402Y214D01*
Y186D01*
X1410Y159D01*
X1424Y135D01*
X1443Y116D01*
X1467Y102D01*
X1494Y94D01*
X1522D01*
X1549Y102D01*
X1573Y116D01*
X1592Y135D01*
X1606Y159D01*
X1614Y186D01*
Y214D01*
X1606Y241D01*
X1592Y265D01*
X1573Y284D01*
X1549Y298D01*
X1522Y306D01*
D02*
G37*
G36*
X1268D02*
X1240D01*
X1213Y298D01*
X1189Y284D01*
X1170Y265D01*
X1156Y241D01*
X1148Y214D01*
Y186D01*
X1156Y159D01*
X1170Y135D01*
X1189Y116D01*
X1213Y102D01*
X1240Y94D01*
X1268D01*
X1295Y102D01*
X1319Y116D01*
X1338Y135D01*
X1352Y159D01*
X1360Y186D01*
Y214D01*
X1352Y241D01*
X1338Y265D01*
X1319Y284D01*
X1295Y298D01*
X1268Y306D01*
D02*
G37*
G36*
X3905Y187D02*
X3807D01*
Y89D01*
X3809D01*
X3837Y97D01*
X3862Y111D01*
X3883Y132D01*
X3897Y157D01*
X3905Y185D01*
Y187D01*
D02*
G37*
G36*
X3781D02*
X3683D01*
Y185D01*
X3691Y157D01*
X3705Y132D01*
X3726Y111D01*
X3751Y97D01*
X3779Y89D01*
X3781D01*
Y187D01*
D02*
G37*
G36*
X1111D02*
X1013D01*
Y89D01*
X1111D01*
Y187D01*
D02*
G37*
G36*
X987D02*
X889D01*
Y89D01*
X987D01*
Y187D01*
D02*
G37*
%LPD*%
D14*
X746Y5417D02*
D03*
X1254D02*
D03*
D40*
X600Y2632D02*
Y4175D01*
Y2632D02*
X3032Y200D01*
X3521Y219D02*
X3540Y200D01*
X650Y1150D02*
X1828D01*
X2778Y200D01*
X950Y1000D02*
X1724D01*
X2524Y200D01*
X575Y1225D02*
X650Y1150D01*
X950Y825D02*
X1645D01*
X2270Y200D01*
X1641Y575D02*
X2016Y200D01*
X1175Y575D02*
X1641D01*
X1350Y425D02*
X1537D01*
X1762Y200D01*
D41*
X875Y2950D02*
X3521Y304D01*
X770Y2716D02*
Y3750D01*
X875Y2950D02*
Y4250D01*
X3521Y219D02*
Y304D01*
X770Y2716D02*
X3286Y200D01*
D43*
X3794D02*
D03*
X3540D02*
D03*
X1254D02*
D03*
X1508D02*
D03*
X1762D02*
D03*
X2016D02*
D03*
X2270D02*
D03*
X2524D02*
D03*
X2778D02*
D03*
X3032D02*
D03*
X3286D02*
D03*
D44*
X1000D02*
D03*
D45*
X1475Y3850D02*
D03*
D46*
Y4104D02*
D03*
D47*
X4700Y300D02*
D03*
Y5400D02*
D03*
X300D02*
D03*
Y300D02*
D03*
D48*
X4775Y5150D02*
D03*
X4525Y4650D02*
D03*
X4775Y4150D02*
D03*
X4525Y3650D02*
D03*
X4775Y3150D02*
D03*
X4525Y2650D02*
D03*
X4775Y2150D02*
D03*
X4525Y1650D02*
D03*
X4775Y1150D02*
D03*
X4525Y650D02*
D03*
X4275Y5150D02*
D03*
X4025Y4650D02*
D03*
X4275Y4150D02*
D03*
X4025Y3650D02*
D03*
X4275Y3150D02*
D03*
X4025Y2650D02*
D03*
X4275Y2150D02*
D03*
X4025Y1650D02*
D03*
X4275Y1150D02*
D03*
X4025Y650D02*
D03*
X3775Y5150D02*
D03*
X3525Y4650D02*
D03*
X3775Y4150D02*
D03*
X3525Y3650D02*
D03*
X3775Y3150D02*
D03*
X3525Y2650D02*
D03*
X3775Y2150D02*
D03*
X3525Y1650D02*
D03*
X3775Y1150D02*
D03*
X3525Y650D02*
D03*
X3275Y5150D02*
D03*
X3025Y4650D02*
D03*
X3275Y4150D02*
D03*
X3025Y3650D02*
D03*
X3275Y3150D02*
D03*
X3025Y2650D02*
D03*
X3275Y2150D02*
D03*
X3025Y1650D02*
D03*
X3275Y1150D02*
D03*
X3025Y650D02*
D03*
X2775Y5150D02*
D03*
X2525Y4650D02*
D03*
X2775Y4150D02*
D03*
X2525Y3650D02*
D03*
X2775Y3150D02*
D03*
X2525Y2650D02*
D03*
X2775Y2150D02*
D03*
X2525Y1650D02*
D03*
X2275Y5150D02*
D03*
X2025Y4650D02*
D03*
X2275Y4150D02*
D03*
X2025Y3650D02*
D03*
X2275Y3150D02*
D03*
X2025Y2650D02*
D03*
X2275Y2150D02*
D03*
X2025Y1650D02*
D03*
X1775Y5150D02*
D03*
X1525Y4650D02*
D03*
X1775Y3150D02*
D03*
X1525Y2650D02*
D03*
X1025Y4650D02*
D03*
X1275Y4150D02*
D03*
Y3150D02*
D03*
X1025Y2650D02*
D03*
X525Y4650D02*
D03*
X775Y2150D02*
D03*
X525Y1650D02*
D03*
Y650D02*
D03*
X770Y3750D02*
D03*
X875Y4250D02*
D03*
X600Y4175D02*
D03*
X575Y1225D02*
D03*
X950Y1000D02*
D03*
X1175Y575D02*
D03*
X950Y825D02*
D03*
X1350Y425D02*
D03*
M02*
