G04*
G04 #@! TF.GenerationSoftware,Altium Limited,Altium Designer,23.0.1 (38)*
G04*
G04 Layer_Physical_Order=1*
G04 Layer_Color=255*
%FSLAX42Y42*%
%MOMM*%
G71*
G04*
G04 #@! TF.SameCoordinates,3433DA3D-91B1-4410-BB2C-93CE1E17D256*
G04*
G04*
G04 #@! TF.FilePolarity,Positive*
G04*
G01*
G75*
%ADD14R,1.60X4.90*%
%ADD15R,1.50X3.81*%
%ADD16R,1.40X2.50*%
%ADD17R,0.80X1.00*%
%ADD18R,1.02X0.74*%
%ADD19R,0.60X0.95*%
%ADD20R,1.45X1.00*%
%ADD21R,0.60X1.00*%
%ADD22R,1.00X1.45*%
%ADD23R,0.95X0.60*%
%ADD39C,1.00*%
%ADD40C,0.25*%
%ADD41C,0.80*%
%ADD42C,0.60*%
%ADD43C,1.71*%
%ADD44R,1.71X1.71*%
%ADD45C,1.59*%
%ADD46R,1.59X1.59*%
%ADD47C,3.00*%
%ADD48C,0.60*%
G36*
X4967Y33D02*
X33D01*
Y5667D01*
X896D01*
X905Y5658D01*
X905Y5654D01*
Y5238D01*
X924D01*
X924Y5238D01*
X928Y5158D01*
X939Y5079D01*
X959Y5001D01*
X986Y4926D01*
X1020Y4854D01*
X1061Y4785D01*
X1109Y4721D01*
X1162Y4662D01*
X1221Y4609D01*
X1285Y4561D01*
X1354Y4520D01*
X1426Y4486D01*
X1501Y4459D01*
X1579Y4439D01*
X1631Y4432D01*
X1643Y4429D01*
Y4429D01*
X1643Y4429D01*
X1661Y4427D01*
X1696Y4417D01*
X1728Y4400D01*
X1756Y4377D01*
X1778Y4349D01*
X1796Y4317D01*
X1806Y4282D01*
X1810Y4246D01*
X1809Y4241D01*
X1807Y4236D01*
X1804Y4217D01*
Y4156D01*
X1804D01*
Y4075D01*
X1800D01*
Y3950D01*
X1804D01*
Y3894D01*
X1804D01*
Y3833D01*
X1805Y3825D01*
X1804Y3817D01*
Y3620D01*
X1785D01*
Y3330D01*
X1965D01*
Y3620D01*
X1946D01*
Y3817D01*
X1945Y3825D01*
X1946Y3833D01*
Y3894D01*
X1946D01*
Y3950D01*
X1950D01*
Y4075D01*
X1946D01*
Y4156D01*
X1946D01*
Y4200D01*
X1947Y4203D01*
X1948Y4214D01*
X1948Y4214D01*
X1951Y4246D01*
X1947Y4297D01*
X1935Y4347D01*
X1915Y4394D01*
X1889Y4438D01*
X1856Y4477D01*
X1817Y4510D01*
X1773Y4537D01*
X1726Y4556D01*
X1676Y4568D01*
X1659Y4570D01*
X1658Y4570D01*
Y4570D01*
X1658Y4570D01*
X1588Y4582D01*
X1515Y4603D01*
X1446Y4632D01*
X1380Y4668D01*
X1318Y4712D01*
X1262Y4762D01*
X1212Y4818D01*
X1168Y4880D01*
X1132Y4946D01*
X1103Y5015D01*
X1082Y5088D01*
X1069Y5162D01*
X1066Y5225D01*
X1078Y5238D01*
X1095D01*
Y5654D01*
X1095Y5658D01*
X1104Y5667D01*
X4967D01*
Y33D01*
D02*
G37*
%LPC*%
G36*
X4717Y5575D02*
X4713D01*
Y5413D01*
X4875D01*
Y5417D01*
X4869Y5451D01*
X4855Y5483D01*
X4836Y5512D01*
X4812Y5536D01*
X4783Y5555D01*
X4751Y5569D01*
X4717Y5575D01*
D02*
G37*
G36*
X4687D02*
X4683D01*
X4649Y5569D01*
X4617Y5555D01*
X4588Y5536D01*
X4564Y5512D01*
X4545Y5483D01*
X4531Y5451D01*
X4525Y5417D01*
Y5413D01*
X4687D01*
Y5575D01*
D02*
G37*
G36*
X317D02*
X313D01*
Y5413D01*
X475D01*
Y5417D01*
X469Y5451D01*
X455Y5483D01*
X436Y5512D01*
X412Y5536D01*
X383Y5555D01*
X351Y5569D01*
X317Y5575D01*
D02*
G37*
G36*
X287D02*
X283D01*
X249Y5569D01*
X217Y5555D01*
X188Y5536D01*
X164Y5512D01*
X145Y5483D01*
X131Y5451D01*
X125Y5417D01*
Y5413D01*
X287D01*
Y5575D01*
D02*
G37*
G36*
X4875Y5387D02*
X4713D01*
Y5225D01*
X4717D01*
X4751Y5231D01*
X4783Y5245D01*
X4812Y5264D01*
X4836Y5288D01*
X4855Y5317D01*
X4869Y5349D01*
X4875Y5383D01*
Y5387D01*
D02*
G37*
G36*
X4687D02*
X4525D01*
Y5383D01*
X4531Y5349D01*
X4545Y5317D01*
X4564Y5288D01*
X4588Y5264D01*
X4617Y5245D01*
X4649Y5231D01*
X4683Y5225D01*
X4687D01*
Y5387D01*
D02*
G37*
G36*
X475D02*
X313D01*
Y5225D01*
X317D01*
X351Y5231D01*
X383Y5245D01*
X412Y5264D01*
X436Y5288D01*
X455Y5317D01*
X469Y5349D01*
X475Y5383D01*
Y5387D01*
D02*
G37*
G36*
X287D02*
X125D01*
Y5383D01*
X131Y5349D01*
X145Y5317D01*
X164Y5288D01*
X188Y5264D01*
X217Y5245D01*
X249Y5231D01*
X283Y5225D01*
X287D01*
Y5387D01*
D02*
G37*
G36*
X730Y4240D02*
X630D01*
Y4230D01*
X617Y4222D01*
X610Y4225D01*
X590D01*
X580Y4221D01*
X568Y4225D01*
Y4225D01*
X432D01*
Y4125D01*
X568D01*
Y4125D01*
X580Y4129D01*
X590Y4125D01*
X610D01*
X617Y4128D01*
X630Y4120D01*
Y4100D01*
X730D01*
Y4240D01*
D02*
G37*
G36*
X1580Y4209D02*
X1488D01*
Y4117D01*
X1580D01*
Y4209D01*
D02*
G37*
G36*
X1462D02*
X1370D01*
Y4117D01*
X1462D01*
Y4209D01*
D02*
G37*
G36*
X925Y4442D02*
X785D01*
Y4258D01*
X819D01*
Y4170D01*
X820Y4165D01*
Y4100D01*
X920D01*
Y4165D01*
X921Y4170D01*
Y4230D01*
X925Y4240D01*
Y4258D01*
X925D01*
Y4442D01*
D02*
G37*
G36*
X1580Y4091D02*
X1488D01*
Y3999D01*
X1580D01*
Y4091D01*
D02*
G37*
G36*
X1462D02*
X1370D01*
Y3999D01*
X1462D01*
Y4091D01*
D02*
G37*
G36*
X730Y4000D02*
X630D01*
Y3958D01*
X603D01*
Y3995D01*
X482D01*
Y3855D01*
X603D01*
Y3892D01*
X630D01*
Y3860D01*
X730D01*
Y4000D01*
D02*
G37*
G36*
X950Y3817D02*
X850D01*
Y3811D01*
X770D01*
X746Y3807D01*
X726Y3793D01*
X713Y3773D01*
X708Y3750D01*
X713Y3727D01*
X726Y3707D01*
X746Y3693D01*
X770Y3689D01*
X850D01*
Y3683D01*
X950D01*
Y3717D01*
X957Y3727D01*
X961Y3750D01*
X957Y3773D01*
X950Y3783D01*
Y3817D01*
D02*
G37*
G36*
X1488Y3949D02*
X1462D01*
X1437Y3943D01*
X1414Y3930D01*
X1395Y3911D01*
X1382Y3888D01*
X1376Y3863D01*
Y3837D01*
X1382Y3812D01*
X1395Y3789D01*
X1414Y3770D01*
X1437Y3757D01*
X1442Y3756D01*
Y3620D01*
X1385D01*
Y3330D01*
X1565D01*
Y3620D01*
X1508D01*
Y3756D01*
X1513Y3757D01*
X1536Y3770D01*
X1555Y3789D01*
X1568Y3812D01*
X1574Y3837D01*
Y3863D01*
X1568Y3888D01*
X1555Y3911D01*
X1536Y3930D01*
X1513Y3943D01*
X1488Y3949D01*
D02*
G37*
G36*
X1365Y3620D02*
X1185D01*
Y3330D01*
X1365D01*
Y3620D01*
D02*
G37*
G36*
X920Y4000D02*
X820D01*
Y3935D01*
X819Y3930D01*
X820Y3925D01*
Y3860D01*
X920D01*
Y3879D01*
X957D01*
Y3850D01*
X989D01*
Y3750D01*
Y3620D01*
X985D01*
Y3330D01*
X1165D01*
Y3620D01*
X1111D01*
Y3750D01*
Y3850D01*
X1143D01*
Y3990D01*
X957D01*
Y3981D01*
X920D01*
Y4000D01*
D02*
G37*
G36*
X965Y3620D02*
X785D01*
Y3330D01*
X965D01*
Y3620D01*
D02*
G37*
G36*
X765D02*
X585D01*
Y3330D01*
X642D01*
Y2564D01*
X302Y2223D01*
X296Y2215D01*
X286Y2216D01*
X283Y2217D01*
Y2236D01*
X498Y2452D01*
X506Y2462D01*
X508Y2475D01*
Y3330D01*
X565D01*
Y3620D01*
X385D01*
Y3330D01*
X442D01*
Y2489D01*
X227Y2273D01*
X219Y2263D01*
X217Y2250D01*
Y1400D01*
X219Y1387D01*
X227Y1377D01*
X1221Y382D01*
Y300D01*
X1213Y298D01*
X1189Y284D01*
X1170Y265D01*
X1156Y241D01*
X1148Y214D01*
Y186D01*
X1156Y159D01*
X1170Y135D01*
X1189Y116D01*
X1213Y102D01*
X1240Y94D01*
X1268D01*
X1295Y102D01*
X1319Y116D01*
X1338Y135D01*
X1352Y159D01*
X1360Y186D01*
Y214D01*
X1352Y241D01*
X1338Y265D01*
X1319Y284D01*
X1295Y298D01*
X1287Y300D01*
Y394D01*
X1292Y399D01*
X1299Y402D01*
X1307Y398D01*
X1308Y397D01*
X1322Y383D01*
X1340Y375D01*
X1360D01*
X1378Y383D01*
X1392Y397D01*
X1400Y415D01*
Y435D01*
X1392Y453D01*
X1378Y467D01*
X1360Y475D01*
X1340D01*
X1327Y470D01*
X1308Y489D01*
Y1730D01*
X1365D01*
Y2020D01*
X1185D01*
Y1730D01*
X1242D01*
Y475D01*
X1242Y472D01*
X1231Y466D01*
X1184Y513D01*
X1188Y526D01*
X1203Y533D01*
X1217Y547D01*
X1225Y565D01*
Y585D01*
X1217Y603D01*
X1203Y617D01*
X1199Y619D01*
X1199Y619D01*
X1192Y630D01*
X1108Y714D01*
Y1730D01*
X1165D01*
Y2020D01*
X985D01*
Y1730D01*
X1042D01*
Y700D01*
X1044Y687D01*
X1052Y677D01*
X1128Y600D01*
X1124Y588D01*
X1113Y584D01*
X932Y764D01*
X940Y775D01*
X940Y775D01*
X960D01*
X978Y783D01*
X992Y797D01*
X1000Y815D01*
Y835D01*
X992Y853D01*
X978Y867D01*
X960Y875D01*
X947D01*
X708Y1114D01*
Y1730D01*
X765D01*
Y2020D01*
X585D01*
Y1730D01*
X642D01*
Y1100D01*
X644Y1087D01*
X652Y1077D01*
X900Y828D01*
Y815D01*
X900Y815D01*
X889Y807D01*
X283Y1414D01*
Y1458D01*
X286Y1459D01*
X296Y1460D01*
X302Y1452D01*
X525Y1228D01*
Y1215D01*
X533Y1197D01*
X547Y1183D01*
X565Y1175D01*
X585D01*
X603Y1183D01*
X617Y1197D01*
X625Y1215D01*
Y1235D01*
X617Y1253D01*
X603Y1267D01*
X585Y1275D01*
X572D01*
X358Y1489D01*
Y2186D01*
X698Y2527D01*
X706Y2537D01*
X708Y2550D01*
Y3330D01*
X765D01*
Y3620D01*
D02*
G37*
G36*
X1765Y2020D02*
X1585D01*
Y1730D01*
X1765D01*
Y2020D01*
D02*
G37*
G36*
X965D02*
X785D01*
Y1730D01*
X842D01*
Y1075D01*
X844Y1062D01*
X852Y1052D01*
X900Y1003D01*
Y990D01*
X908Y972D01*
X922Y958D01*
X940Y950D01*
X960D01*
X978Y958D01*
X992Y972D01*
X1000Y990D01*
Y1010D01*
X992Y1028D01*
X978Y1042D01*
X960Y1050D01*
X947D01*
X908Y1089D01*
Y1730D01*
X965D01*
Y2020D01*
D02*
G37*
G36*
X4717Y475D02*
X4713D01*
Y313D01*
X4875D01*
Y317D01*
X4869Y351D01*
X4855Y383D01*
X4836Y412D01*
X4812Y436D01*
X4783Y455D01*
X4751Y469D01*
X4717Y475D01*
D02*
G37*
G36*
X4687D02*
X4683D01*
X4649Y469D01*
X4617Y455D01*
X4588Y436D01*
X4564Y412D01*
X4545Y383D01*
X4531Y351D01*
X4525Y317D01*
Y313D01*
X4687D01*
Y475D01*
D02*
G37*
G36*
X317D02*
X313D01*
Y313D01*
X475D01*
Y317D01*
X469Y351D01*
X455Y383D01*
X436Y412D01*
X412Y436D01*
X383Y455D01*
X351Y469D01*
X317Y475D01*
D02*
G37*
G36*
X287D02*
X283D01*
X249Y469D01*
X217Y455D01*
X188Y436D01*
X164Y412D01*
X145Y383D01*
X131Y351D01*
X125Y317D01*
Y313D01*
X287D01*
Y475D01*
D02*
G37*
G36*
X3809Y311D02*
X3807D01*
Y213D01*
X3905D01*
Y215D01*
X3897Y243D01*
X3883Y268D01*
X3862Y289D01*
X3837Y303D01*
X3809Y311D01*
D02*
G37*
G36*
X3781D02*
X3779D01*
X3751Y303D01*
X3726Y289D01*
X3705Y268D01*
X3691Y243D01*
X3683Y215D01*
Y213D01*
X3781D01*
Y311D01*
D02*
G37*
G36*
X1111D02*
X1013D01*
Y213D01*
X1111D01*
Y311D01*
D02*
G37*
G36*
X987D02*
X889D01*
Y213D01*
X987D01*
Y311D01*
D02*
G37*
G36*
X4875Y287D02*
X4713D01*
Y125D01*
X4717D01*
X4751Y131D01*
X4783Y145D01*
X4812Y164D01*
X4836Y188D01*
X4855Y217D01*
X4869Y249D01*
X4875Y283D01*
Y287D01*
D02*
G37*
G36*
X4687D02*
X4525D01*
Y283D01*
X4531Y249D01*
X4545Y217D01*
X4564Y188D01*
X4588Y164D01*
X4617Y145D01*
X4649Y131D01*
X4683Y125D01*
X4687D01*
Y287D01*
D02*
G37*
G36*
X475D02*
X313D01*
Y125D01*
X317D01*
X351Y131D01*
X383Y145D01*
X412Y164D01*
X436Y188D01*
X455Y217D01*
X469Y249D01*
X475Y283D01*
Y287D01*
D02*
G37*
G36*
X287D02*
X125D01*
Y283D01*
X131Y249D01*
X145Y217D01*
X164Y188D01*
X188Y164D01*
X217Y145D01*
X249Y131D01*
X283Y125D01*
X287D01*
Y287D01*
D02*
G37*
G36*
X3554Y306D02*
X3526D01*
X3499Y298D01*
X3475Y284D01*
X3456Y265D01*
X3442Y241D01*
X3435Y214D01*
Y186D01*
X3442Y159D01*
X3456Y135D01*
X3475Y116D01*
X3499Y102D01*
X3526Y94D01*
X3554D01*
X3581Y102D01*
X3605Y116D01*
X3624Y135D01*
X3638Y159D01*
X3646Y186D01*
Y214D01*
X3638Y241D01*
X3624Y265D01*
X3605Y284D01*
X3581Y298D01*
X3554Y306D01*
D02*
G37*
G36*
X3300D02*
X3272D01*
X3245Y298D01*
X3221Y284D01*
X3202Y265D01*
X3188Y241D01*
X3181Y214D01*
Y186D01*
X3188Y159D01*
X3202Y135D01*
X3221Y116D01*
X3245Y102D01*
X3272Y94D01*
X3300D01*
X3327Y102D01*
X3351Y116D01*
X3370Y135D01*
X3384Y159D01*
X3392Y186D01*
Y214D01*
X3384Y241D01*
X3370Y265D01*
X3351Y284D01*
X3327Y298D01*
X3300Y306D01*
D02*
G37*
G36*
X3046D02*
X3018D01*
X2991Y298D01*
X2967Y284D01*
X2948Y265D01*
X2934Y241D01*
X2926Y214D01*
Y186D01*
X2934Y159D01*
X2948Y135D01*
X2967Y116D01*
X2991Y102D01*
X3018Y94D01*
X3046D01*
X3073Y102D01*
X3097Y116D01*
X3116Y135D01*
X3130Y159D01*
X3138Y186D01*
Y214D01*
X3130Y241D01*
X3116Y265D01*
X3097Y284D01*
X3073Y298D01*
X3046Y306D01*
D02*
G37*
G36*
X2792D02*
X2764D01*
X2737Y298D01*
X2713Y284D01*
X2694Y265D01*
X2680Y241D01*
X2673Y214D01*
Y186D01*
X2680Y159D01*
X2694Y135D01*
X2713Y116D01*
X2737Y102D01*
X2764Y94D01*
X2792D01*
X2819Y102D01*
X2843Y116D01*
X2862Y135D01*
X2876Y159D01*
X2883Y186D01*
Y214D01*
X2876Y241D01*
X2862Y265D01*
X2843Y284D01*
X2819Y298D01*
X2792Y306D01*
D02*
G37*
G36*
X2538D02*
X2510D01*
X2483Y298D01*
X2459Y284D01*
X2440Y265D01*
X2426Y241D01*
X2418Y214D01*
Y186D01*
X2426Y159D01*
X2440Y135D01*
X2459Y116D01*
X2483Y102D01*
X2510Y94D01*
X2538D01*
X2565Y102D01*
X2589Y116D01*
X2608Y135D01*
X2622Y159D01*
X2630Y186D01*
Y214D01*
X2622Y241D01*
X2608Y265D01*
X2589Y284D01*
X2565Y298D01*
X2538Y306D01*
D02*
G37*
G36*
X2284D02*
X2256D01*
X2229Y298D01*
X2205Y284D01*
X2186Y265D01*
X2172Y241D01*
X2165Y214D01*
Y186D01*
X2172Y159D01*
X2186Y135D01*
X2205Y116D01*
X2229Y102D01*
X2256Y94D01*
X2284D01*
X2311Y102D01*
X2335Y116D01*
X2354Y135D01*
X2368Y159D01*
X2375Y186D01*
Y214D01*
X2368Y241D01*
X2354Y265D01*
X2335Y284D01*
X2311Y298D01*
X2284Y306D01*
D02*
G37*
G36*
X2030D02*
X2002D01*
X1975Y298D01*
X1951Y284D01*
X1932Y265D01*
X1918Y241D01*
X1910Y214D01*
Y186D01*
X1918Y159D01*
X1932Y135D01*
X1951Y116D01*
X1975Y102D01*
X2002Y94D01*
X2030D01*
X2057Y102D01*
X2081Y116D01*
X2100Y135D01*
X2114Y159D01*
X2122Y186D01*
Y214D01*
X2114Y241D01*
X2100Y265D01*
X2081Y284D01*
X2057Y298D01*
X2030Y306D01*
D02*
G37*
G36*
X1776D02*
X1748D01*
X1721Y298D01*
X1697Y284D01*
X1678Y265D01*
X1664Y241D01*
X1657Y214D01*
Y186D01*
X1664Y159D01*
X1678Y135D01*
X1697Y116D01*
X1721Y102D01*
X1748Y94D01*
X1776D01*
X1803Y102D01*
X1827Y116D01*
X1846Y135D01*
X1860Y159D01*
X1867Y186D01*
Y214D01*
X1860Y241D01*
X1846Y265D01*
X1827Y284D01*
X1803Y298D01*
X1776Y306D01*
D02*
G37*
G36*
X1565Y2020D02*
X1385D01*
Y1730D01*
X1442D01*
Y288D01*
X1443Y284D01*
X1424Y265D01*
X1410Y241D01*
X1402Y214D01*
Y186D01*
X1410Y159D01*
X1424Y135D01*
X1443Y116D01*
X1467Y102D01*
X1494Y94D01*
X1522D01*
X1549Y102D01*
X1573Y116D01*
X1592Y135D01*
X1606Y159D01*
X1614Y186D01*
Y214D01*
X1606Y241D01*
X1592Y265D01*
X1573Y284D01*
X1549Y298D01*
X1522Y306D01*
X1508D01*
Y1730D01*
X1565D01*
Y2020D01*
D02*
G37*
G36*
X3905Y187D02*
X3807D01*
Y89D01*
X3809D01*
X3837Y97D01*
X3862Y111D01*
X3883Y132D01*
X3897Y157D01*
X3905Y185D01*
Y187D01*
D02*
G37*
G36*
X3781D02*
X3683D01*
Y185D01*
X3691Y157D01*
X3705Y132D01*
X3726Y111D01*
X3751Y97D01*
X3779Y89D01*
X3781D01*
Y187D01*
D02*
G37*
G36*
X1111D02*
X1013D01*
Y89D01*
X1111D01*
Y187D01*
D02*
G37*
G36*
X987D02*
X889D01*
Y89D01*
X987D01*
Y187D01*
D02*
G37*
%LPD*%
D14*
X746Y5417D02*
D03*
X1254D02*
D03*
D15*
X1000Y5448D02*
D03*
D16*
X675Y1875D02*
D03*
X475Y3475D02*
D03*
X675D02*
D03*
X875D02*
D03*
X1075D02*
D03*
X1275D02*
D03*
X1475D02*
D03*
X1675D02*
D03*
X1875D02*
D03*
Y1875D02*
D03*
X1675D02*
D03*
X1475D02*
D03*
X1275D02*
D03*
X1075D02*
D03*
X875D02*
D03*
X475D02*
D03*
D17*
X2017Y3825D02*
D03*
X1883D02*
D03*
X2017Y4225D02*
D03*
X1883D02*
D03*
X407Y3925D02*
D03*
X543D02*
D03*
D18*
X1875Y4099D02*
D03*
Y3951D02*
D03*
D19*
X1050Y3750D02*
D03*
X900D02*
D03*
D20*
X1050Y3920D02*
D03*
Y4080D02*
D03*
D21*
X870Y4170D02*
D03*
X775D02*
D03*
X680D02*
D03*
Y3930D02*
D03*
X870D02*
D03*
D22*
X855Y4350D02*
D03*
X695D02*
D03*
D23*
X500Y4325D02*
D03*
Y4175D02*
D03*
D39*
X1879Y4221D02*
G03*
X1650Y4500I-254J25D01*
G01*
X1000Y5325D02*
G03*
X1650Y4500I738J-88D01*
G01*
X1875Y4099D02*
Y4217D01*
Y3833D02*
Y3951D01*
Y3475D02*
Y3817D01*
D40*
X543Y3925D02*
X675D01*
X680Y3930D01*
X1875Y4217D02*
X1883Y4225D01*
X1875Y3833D02*
X1883Y3825D01*
X1875Y3817D02*
X1883Y3825D01*
X600Y4175D02*
X675D01*
X500D02*
X600D01*
X325Y1475D02*
X575Y1225D01*
X325Y1475D02*
Y2200D01*
X675Y2550D01*
X875Y1075D02*
Y1875D01*
Y1075D02*
X950Y1000D01*
X1075Y700D02*
Y1875D01*
X1168Y582D02*
X1175Y575D01*
X1168Y582D02*
Y607D01*
X1075Y700D02*
X1168Y607D01*
X1275Y475D02*
Y1875D01*
Y475D02*
X1318Y432D01*
X1343D01*
X1350Y425D01*
X675Y1100D02*
Y1875D01*
Y1100D02*
X950Y825D01*
X250Y1400D02*
X1254Y396D01*
Y200D02*
Y396D01*
X250Y1400D02*
Y2250D01*
X1475Y288D02*
X1480Y283D01*
X1475Y288D02*
Y1875D01*
X1480Y228D02*
X1508Y200D01*
X1480Y228D02*
Y283D01*
X1040Y3930D02*
X1050Y3920D01*
X482Y4175D02*
X500D01*
X675D02*
X680Y4170D01*
X855Y4350D02*
X870Y4335D01*
X1475Y3475D02*
Y3850D01*
X1475Y3475D02*
X1475Y3475D01*
X475Y2475D02*
Y3475D01*
X250Y2250D02*
X475Y2475D01*
X675Y2550D02*
Y3475D01*
X1050Y3500D02*
X1075Y3475D01*
D41*
X770Y3750D02*
X900D01*
X1050D02*
Y3920D01*
Y3500D02*
Y3750D01*
D42*
X870Y4170D02*
Y4335D01*
Y3930D02*
X1040D01*
D43*
X3794Y200D02*
D03*
X3540D02*
D03*
X1254D02*
D03*
X1508D02*
D03*
X1762D02*
D03*
X2016D02*
D03*
X2270D02*
D03*
X2524D02*
D03*
X2778D02*
D03*
X3032D02*
D03*
X3286D02*
D03*
D44*
X1000D02*
D03*
D45*
X1475Y3850D02*
D03*
D46*
Y4104D02*
D03*
D47*
X4700Y300D02*
D03*
Y5400D02*
D03*
X300D02*
D03*
Y300D02*
D03*
D48*
X4775Y5150D02*
D03*
X4525Y4650D02*
D03*
X4775Y4150D02*
D03*
X4525Y3650D02*
D03*
X4775Y3150D02*
D03*
X4525Y2650D02*
D03*
X4775Y2150D02*
D03*
X4525Y1650D02*
D03*
X4775Y1150D02*
D03*
X4525Y650D02*
D03*
X4275Y5150D02*
D03*
X4025Y4650D02*
D03*
X4275Y4150D02*
D03*
X4025Y3650D02*
D03*
X4275Y3150D02*
D03*
X4025Y2650D02*
D03*
X4275Y2150D02*
D03*
X4025Y1650D02*
D03*
X4275Y1150D02*
D03*
X4025Y650D02*
D03*
X3775Y5150D02*
D03*
X3525Y4650D02*
D03*
X3775Y4150D02*
D03*
X3525Y3650D02*
D03*
X3775Y3150D02*
D03*
X3525Y2650D02*
D03*
X3775Y2150D02*
D03*
X3525Y1650D02*
D03*
X3775Y1150D02*
D03*
X3525Y650D02*
D03*
X3275Y5150D02*
D03*
X3025Y4650D02*
D03*
X3275Y4150D02*
D03*
X3025Y3650D02*
D03*
X3275Y3150D02*
D03*
X3025Y2650D02*
D03*
X3275Y2150D02*
D03*
X3025Y1650D02*
D03*
X3275Y1150D02*
D03*
X3025Y650D02*
D03*
X2775Y5150D02*
D03*
X2525Y4650D02*
D03*
X2775Y4150D02*
D03*
X2525Y3650D02*
D03*
X2775Y3150D02*
D03*
X2525Y2650D02*
D03*
X2775Y2150D02*
D03*
X2525Y1650D02*
D03*
X2275Y5150D02*
D03*
X2025Y4650D02*
D03*
X2275Y4150D02*
D03*
X2025Y3650D02*
D03*
X2275Y3150D02*
D03*
X2025Y2650D02*
D03*
X2275Y2150D02*
D03*
X2025Y1650D02*
D03*
X1775Y5150D02*
D03*
X1525Y4650D02*
D03*
X1775Y3150D02*
D03*
X1525Y2650D02*
D03*
X1025Y4650D02*
D03*
X1275Y4150D02*
D03*
Y3150D02*
D03*
X1025Y2650D02*
D03*
X525Y4650D02*
D03*
X775Y2150D02*
D03*
X525Y1650D02*
D03*
Y650D02*
D03*
X770Y3750D02*
D03*
X875Y4250D02*
D03*
X600Y4175D02*
D03*
X575Y1225D02*
D03*
X950Y1000D02*
D03*
X1175Y575D02*
D03*
X950Y825D02*
D03*
X1350Y425D02*
D03*
M02*
