G04*
G04 #@! TF.GenerationSoftware,Altium Limited,Altium Designer,23.0.1 (38)*
G04*
G04 Layer_Color=8388736*
%FSLAX42Y42*%
%MOMM*%
G71*
G04*
G04 #@! TF.SameCoordinates,3433DA3D-91B1-4410-BB2C-93CE1E17D256*
G04*
G04*
G04 #@! TF.FilePolarity,Negative*
G04*
G01*
G75*
%ADD24R,1.80X5.10*%
%ADD25R,1.70X4.01*%
%ADD26R,1.60X2.70*%
%ADD27R,1.00X1.20*%
%ADD28R,1.22X0.94*%
%ADD29R,0.80X1.15*%
%ADD30R,1.65X1.20*%
%ADD31R,0.80X1.20*%
%ADD32R,1.20X1.65*%
%ADD33R,1.15X0.80*%
%ADD34C,1.91*%
%ADD35R,1.91X1.91*%
%ADD36C,1.79*%
%ADD37R,1.79X1.79*%
%ADD38C,3.20*%
D24*
X746Y5417D02*
D03*
X1254D02*
D03*
D25*
X1000Y5448D02*
D03*
D26*
X675Y1875D02*
D03*
X475Y3475D02*
D03*
X675D02*
D03*
X875D02*
D03*
X1075D02*
D03*
X1275D02*
D03*
X1475D02*
D03*
X1675D02*
D03*
X1875D02*
D03*
Y1875D02*
D03*
X1675D02*
D03*
X1475D02*
D03*
X1275D02*
D03*
X1075D02*
D03*
X875D02*
D03*
X475D02*
D03*
D27*
X2017Y3825D02*
D03*
X1883D02*
D03*
X2017Y4225D02*
D03*
X1883D02*
D03*
X407Y3925D02*
D03*
X543D02*
D03*
D28*
X1875Y4099D02*
D03*
Y3951D02*
D03*
D29*
X1050Y3750D02*
D03*
X900D02*
D03*
D30*
X1050Y3920D02*
D03*
Y4080D02*
D03*
D31*
X870Y4170D02*
D03*
X775D02*
D03*
X680D02*
D03*
Y3930D02*
D03*
X870D02*
D03*
D32*
X855Y4350D02*
D03*
X695D02*
D03*
D33*
X500Y4325D02*
D03*
Y4175D02*
D03*
D34*
X3794Y200D02*
D03*
X3540D02*
D03*
X1254D02*
D03*
X1508D02*
D03*
X1762D02*
D03*
X2016D02*
D03*
X2270D02*
D03*
X2524D02*
D03*
X2778D02*
D03*
X3032D02*
D03*
X3286D02*
D03*
D35*
X1000D02*
D03*
D36*
X1475Y3850D02*
D03*
D37*
Y4104D02*
D03*
D38*
X4700Y300D02*
D03*
Y5400D02*
D03*
X300D02*
D03*
Y300D02*
D03*
M02*
