G04*
G04 #@! TF.GenerationSoftware,Altium Limited,Altium Designer,23.0.1 (38)*
G04*
G04 Layer_Color=8421504*
%FSLAX42Y42*%
%MOMM*%
G71*
G04*
G04 #@! TF.SameCoordinates,3433DA3D-91B1-4410-BB2C-93CE1E17D256*
G04*
G04*
G04 #@! TF.FilePolarity,Positive*
G04*
G01*
G75*
%ADD14R,1.60X4.90*%
%ADD15R,1.50X3.81*%
%ADD16R,1.40X2.50*%
%ADD17R,0.80X1.00*%
%ADD18R,1.02X0.74*%
%ADD19R,0.60X0.95*%
%ADD20R,1.45X1.00*%
%ADD21R,0.60X1.00*%
%ADD22R,1.00X1.45*%
%ADD23R,0.95X0.60*%
D14*
X746Y5417D02*
D03*
X1254D02*
D03*
D15*
X1000Y5448D02*
D03*
D16*
X675Y1875D02*
D03*
X475Y3475D02*
D03*
X675D02*
D03*
X875D02*
D03*
X1075D02*
D03*
X1275D02*
D03*
X1475D02*
D03*
X1675D02*
D03*
X1875D02*
D03*
Y1875D02*
D03*
X1675D02*
D03*
X1475D02*
D03*
X1275D02*
D03*
X1075D02*
D03*
X875D02*
D03*
X475D02*
D03*
D17*
X2017Y3825D02*
D03*
X1883D02*
D03*
X2017Y4225D02*
D03*
X1883D02*
D03*
X407Y3925D02*
D03*
X543D02*
D03*
D18*
X1875Y4099D02*
D03*
Y3951D02*
D03*
D19*
X1050Y3750D02*
D03*
X900D02*
D03*
D20*
X1050Y3920D02*
D03*
Y4080D02*
D03*
D21*
X870Y4170D02*
D03*
X775D02*
D03*
X680D02*
D03*
Y3930D02*
D03*
X870D02*
D03*
D22*
X855Y4350D02*
D03*
X695D02*
D03*
D23*
X500Y4325D02*
D03*
Y4175D02*
D03*
M02*
