M48
;Layer_Color=9474304
;FILE_FORMAT=4:2
METRIC,LZ
;TYPE=PLATED
T1F00S00C0.30
T2F00S00C1.06
T3F00S00C1.14
T4F00S00C2.60
%
T01
X004025Y00065
X004525
X004775Y00115
X004275
X003775
X004025Y00165
X004525
X004775Y00215
X004275
X003775
X004025Y00265
X004525
X004775Y00315
X004275
X003775
X004025Y00365
X004525
X004775Y00415
X004275
X003775
X003275
X002775
X002275
X002525Y00365
X003025
X003525
X003275Y00315
X002775
X002275
X001775
X001275
X001525Y00265
X002025
X002525
X003025
X003525
X003275Y00215
X002775
X002275
X002525Y00165
X003025
X003525
X003275Y00115
X003525Y00065
X003025
X00135Y000425
X001175Y000575
X00095Y000825
Y001
X000575Y001225
X000525Y00165
X000775Y00215
X001025Y00265
X00077Y00375
X0006Y004175
X000875Y00425
X001275Y00415
X002025Y00365
Y00165
X000525Y00065
Y00465
X001025
X001525
X002025
X002525
X003025
X003525
X003275Y00515
X002775
X002275
X001775
X003775
X004275
X004775
X004525Y00465
X004025
T02
X001475Y00385
Y004104
T03
X001Y0002
X001254
X001508
X001762
X002016
X00227
X002524
X002778
X003032
X003286
X00354
X003794
T04
X0003Y0003
X0047
X0003Y0054
X0047
M30
