G04*
G04 #@! TF.GenerationSoftware,Altium Limited,Altium Designer,26.6.0 (10)*
G04*
G04 Layer_Color=65535*
G04 Board_Origin=14468504|9645670*
%FSLAX44Y44*%
%MOMM*%
G71*
G04*
G04 #@! TF.SameCoordinates,7998D1FF-D2DA-40C6-B84B-B500990ED48C*
G04*
G04*
G04 #@! TF.FilePolarity,Positive*
G04*
G01*
G75*
%ADD10C,0.2500*%
%ADD11C,0.2000*%
%ADD12C,0.1270*%
%ADD13C,0.2540*%
%ADD14C,0.3000*%
%ADD15C,0.1200*%
%ADD16C,0.1500*%
D10*
X216250Y219150D02*
G03*
X216250Y219150I-1250J0D01*
G01*
X80250Y221950D02*
G03*
X80250Y221950I-1250J0D01*
G01*
D11*
X190500Y285700D02*
X195500D01*
Y218700D02*
Y285700D01*
X190500Y218700D02*
X195500D01*
X226250Y662000D02*
Y663000D01*
X218750Y662000D02*
Y663000D01*
X90000Y1014250D02*
X160000D01*
X136373Y997750D02*
X160000D01*
X149474Y1042950D02*
X151650Y1046700D01*
X152127D02*
X155940Y1048810D01*
Y1050190D01*
X152150Y1052300D02*
X155940Y1050190D01*
X152150Y1052300D02*
X155940Y1054410D01*
Y1055790D01*
X152150Y1057900D02*
X155940Y1055790D01*
X152150Y1057900D02*
X155940Y1060010D01*
Y1061390D01*
X152150Y1063500D02*
X155940Y1061390D01*
X152150Y1063500D02*
X155940Y1065610D01*
Y1066990D01*
X152150Y1069100D02*
X155940Y1066990D01*
X152150Y1069100D02*
X155940Y1071210D01*
Y1072590D01*
X152150Y1074700D02*
X155940Y1072590D01*
X152150Y1074700D02*
X155940Y1076810D01*
Y1078190D01*
X152150Y1080300D02*
X155940Y1078190D01*
X152150Y1080300D02*
X155940Y1082410D01*
Y1083790D01*
X152150Y1085900D02*
X155940Y1083790D01*
X98350Y1085900D02*
X152150D01*
X94060Y1083790D02*
X98350Y1085900D01*
X94060Y1082410D02*
Y1083790D01*
Y1082410D02*
X97850Y1080300D01*
X94060Y1078190D02*
X97850Y1080300D01*
X94060Y1076810D02*
Y1078190D01*
Y1076810D02*
X97850Y1074700D01*
X94060Y1072590D02*
X97850Y1074700D01*
X94060Y1071210D02*
Y1072590D01*
Y1071210D02*
X97850Y1069100D01*
X94060Y1066990D02*
X97850Y1069100D01*
X94060Y1065610D02*
Y1066990D01*
Y1065610D02*
X97850Y1063500D01*
X94060Y1061390D02*
X97850Y1063500D01*
X94060Y1060010D02*
Y1061390D01*
Y1060010D02*
X97850Y1057900D01*
X94060Y1055790D02*
X97850Y1057900D01*
X94060Y1054410D02*
Y1055790D01*
Y1054410D02*
X97850Y1052300D01*
X94060Y1050190D02*
X97850Y1052300D01*
X94060Y1048810D02*
Y1050190D01*
Y1048810D02*
X97850Y1046700D01*
X152127D01*
X98350D02*
X100467Y1042950D01*
X100467D02*
X149474D01*
Y1014250D02*
Y1042950D01*
X151650Y1085900D02*
Y1093050D01*
X98350D02*
X151650D01*
X98350Y1085900D02*
Y1093050D01*
X100467Y1014250D02*
Y1042950D01*
X94060Y1054410D02*
X155940Y1048810D01*
X94060Y1055790D02*
X155940Y1050190D01*
X97850Y1057900D02*
X152150Y1052300D01*
X97850D02*
X152127Y1046700D01*
X94060Y1048810D02*
X151650Y1046700D01*
X94060Y1050190D02*
X152127Y1046700D01*
X94060Y1060010D02*
X155940Y1054410D01*
X94060Y1061390D02*
X155940Y1055790D01*
X97850Y1063500D02*
X152150Y1057900D01*
X94060Y1065610D02*
X155940Y1060010D01*
X94060Y1066990D02*
X155940Y1061390D01*
X97850Y1069100D02*
X152150Y1063500D01*
X94060Y1071210D02*
X155940Y1065610D01*
X94060Y1072590D02*
X155940Y1066990D01*
X97850Y1074700D02*
X152150Y1069100D01*
X94060Y1076810D02*
X155940Y1071210D01*
X94060Y1078190D02*
X155940Y1072590D01*
X97850Y1080300D02*
X152150Y1074700D01*
X94060Y1082410D02*
X155940Y1076810D01*
X94060Y1083790D02*
X155940Y1078190D01*
X98350Y1085900D02*
X152150Y1080300D01*
X98350Y1085900D02*
X155940Y1082410D01*
X98350Y1085900D02*
X155940Y1083790D01*
X160000Y997750D02*
Y1014250D01*
X90000Y997750D02*
Y1014250D01*
Y997750D02*
X113627D01*
X123750Y627000D02*
Y628000D01*
X116250Y627000D02*
Y628000D01*
X136250Y627000D02*
Y628000D01*
X128750Y627000D02*
Y628000D01*
X81250Y599500D02*
Y600500D01*
X88750Y599500D02*
Y600500D01*
X146250Y529500D02*
Y530500D01*
X153750Y529500D02*
Y530500D01*
X103750Y529500D02*
Y530500D01*
X96250Y529500D02*
Y530500D01*
X46250Y529500D02*
Y530500D01*
X53750Y529500D02*
Y530500D01*
X-1900Y75000D02*
X15000D01*
X-1900Y165000D02*
X15000D01*
X33000Y75000D02*
X56000D01*
X33000Y165000D02*
X56000D01*
X-1900Y75000D02*
Y165000D01*
X85000Y75000D02*
Y165000D01*
X76000D02*
X85000D01*
X76000Y75000D02*
X85000D01*
X162000Y372500D02*
X172000D01*
Y364500D02*
Y372500D01*
X162000Y342500D02*
X172000D01*
Y350500D01*
X177000Y411250D02*
X178000D01*
X177000Y403750D02*
X178000D01*
X148750Y397000D02*
Y398000D01*
X141250Y397000D02*
Y398000D01*
Y627000D02*
Y628000D01*
X148750Y627000D02*
Y628000D01*
X103750Y627000D02*
Y628000D01*
X111250Y627000D02*
Y628000D01*
X203750Y529500D02*
Y530500D01*
X196250Y529500D02*
Y530500D01*
X106250Y584500D02*
Y585500D01*
X113750Y584500D02*
Y585500D01*
D12*
X158250Y900990D02*
X221750D01*
X158250Y934010D02*
X221750D01*
X158250Y900990D02*
Y934010D01*
X221750Y900990D02*
Y934010D01*
D13*
X17500Y855000D02*
X182500Y855000D01*
X17500Y645000D02*
X172500Y645000D01*
X182500Y657500D02*
Y855000D01*
X17500Y645000D02*
Y855000D01*
X182500Y655000D02*
Y657500D01*
X172500Y645000D02*
X182500Y655000D01*
X197537Y792536D02*
X195038Y795035D01*
X190039D01*
X187540Y792536D01*
Y790037D01*
X190039Y787538D01*
X195038D01*
X197537Y785038D01*
Y782539D01*
X195038Y780040D01*
X190039D01*
X187540Y782539D01*
X202535Y795035D02*
Y780040D01*
X207533Y785038D01*
X212532Y780040D01*
Y795035D01*
X217530D02*
Y780040D01*
X225028D01*
X227527Y782539D01*
Y792536D01*
X225028Y795035D01*
X217530D01*
X57540Y967540D02*
Y982535D01*
X65038D01*
X67537Y980036D01*
Y975038D01*
X65038Y972538D01*
X57540D01*
X62538D02*
X67537Y967540D01*
X82532Y982535D02*
X72535D01*
Y975038D01*
X77533D01*
X72535D01*
Y967540D01*
X60040Y52535D02*
Y40039D01*
X62539Y37540D01*
X67538D01*
X70037Y40039D01*
Y52535D01*
X85032Y50036D02*
X82533Y52535D01*
X77534D01*
X75035Y50036D01*
Y47537D01*
X77534Y45038D01*
X82533D01*
X85032Y42538D01*
Y40039D01*
X82533Y37540D01*
X77534D01*
X75035Y40039D01*
X90030Y52535D02*
Y37540D01*
X97528D01*
X100027Y40039D01*
Y42538D01*
X97528Y45038D01*
X90030D01*
X97528D01*
X100027Y47537D01*
Y50036D01*
X97528Y52535D01*
X90030D01*
X197540Y102538D02*
X207537D01*
X202538Y107536D02*
Y97539D01*
X212535D02*
X215034Y95040D01*
X220033D01*
X222532Y97539D01*
Y107536D01*
X220033Y110035D01*
X215034D01*
X212535Y107536D01*
Y105037D01*
X215034Y102538D01*
X222532D01*
X227530Y110035D02*
Y100038D01*
X232529Y95040D01*
X237527Y100038D01*
Y110035D01*
D14*
X47500Y614500D02*
Y630500D01*
X182000Y367500D02*
X198000D01*
D15*
X206500Y496750D02*
Y503250D01*
X193500Y496750D02*
Y503250D01*
X143500Y496750D02*
Y503250D01*
X156500Y496750D02*
Y503250D01*
X93500Y496750D02*
Y503250D01*
X106500Y496750D02*
Y503250D01*
X43500Y496750D02*
Y503250D01*
X56500Y496750D02*
Y503250D01*
X217900Y165050D02*
Y169600D01*
X172100D02*
X217900D01*
X172100Y140400D02*
Y144950D01*
Y140400D02*
X217900D01*
Y144950D01*
X172100Y165050D02*
Y169600D01*
X112900Y367900D02*
X117450D01*
X112900Y322100D02*
Y367900D01*
X137550Y322100D02*
X142100D01*
Y367900D01*
X137550D02*
X142100D01*
X112900Y322100D02*
X117450D01*
X80400Y367900D02*
X84950D01*
X80400Y322100D02*
Y367900D01*
X105050Y322100D02*
X109600D01*
Y367900D01*
X105050D02*
X109600D01*
X80400Y322100D02*
X84950D01*
X47900Y367900D02*
X52450D01*
X47900Y322100D02*
Y367900D01*
X72550Y322100D02*
X77100D01*
Y367900D01*
X72550D02*
X77100D01*
X47900Y322100D02*
X52450D01*
X156668Y628334D02*
X155002Y626668D01*
Y623335D01*
X156668Y621669D01*
X163332D01*
X164998Y623335D01*
Y626668D01*
X163332Y628334D01*
X155002Y631666D02*
Y638331D01*
X156668D01*
X163332Y631666D01*
X164998D01*
X80002Y494169D02*
X89998D01*
Y499168D01*
X88332Y500834D01*
X81668D01*
X80002Y499168D01*
Y494169D01*
X89998Y509165D02*
X80002D01*
X85000Y504166D01*
Y510831D01*
X189998Y520004D02*
X180002D01*
Y525002D01*
X181668Y526669D01*
X185000D01*
X186666Y525002D01*
Y520004D01*
Y523336D02*
X189998Y526669D01*
Y530001D02*
Y533333D01*
Y531667D01*
X180002D01*
X181668Y530001D01*
Y538331D02*
X180002Y539998D01*
Y543330D01*
X181668Y544996D01*
X183334D01*
X185000Y543330D01*
Y541664D01*
Y543330D01*
X186666Y544996D01*
X188332D01*
X189998Y543330D01*
Y539998D01*
X188332Y538331D01*
X166670Y175002D02*
Y184998D01*
X171669D01*
X173335Y183332D01*
Y180000D01*
X171669Y178334D01*
X166670D01*
X170002D02*
X173335Y175002D01*
X176667D02*
X179999D01*
X178333D01*
Y184998D01*
X176667Y183332D01*
X184998Y175002D02*
X188330D01*
X186664D01*
Y184998D01*
X184998Y183332D01*
X137498Y523335D02*
X127502D01*
Y528334D01*
X129168Y530000D01*
X132500D01*
X134166Y528334D01*
Y523335D01*
Y526668D02*
X137498Y530000D01*
Y533332D02*
Y536665D01*
Y534998D01*
X127502D01*
X129168Y533332D01*
X180002Y494169D02*
X189998D01*
Y499168D01*
X188332Y500834D01*
X181668D01*
X180002Y499168D01*
Y494169D01*
X181668Y504166D02*
X180002Y505832D01*
Y509165D01*
X181668Y510831D01*
X183334D01*
X185000Y509165D01*
X186666Y510831D01*
X188332D01*
X189998Y509165D01*
Y505832D01*
X188332Y504166D01*
X186666D01*
X185000Y505832D01*
X183334Y504166D01*
X181668D01*
X185000Y505832D02*
Y509165D01*
X191669Y134998D02*
Y125002D01*
X196668D01*
X198334Y126668D01*
Y133332D01*
X196668Y134998D01*
X191669D01*
X201666D02*
X208331D01*
Y133332D01*
X201666Y126668D01*
Y125002D01*
X127502Y495835D02*
X137498D01*
Y500834D01*
X135832Y502500D01*
X129168D01*
X127502Y500834D01*
Y495835D01*
X137498Y505832D02*
Y509165D01*
Y507498D01*
X127502D01*
X129168Y505832D01*
X159169Y307498D02*
Y299168D01*
X160835Y297502D01*
X164168D01*
X165834Y299168D01*
Y307498D01*
X174165Y297502D02*
Y307498D01*
X169166Y302500D01*
X175831D01*
X46669Y267498D02*
Y259168D01*
X48335Y257502D01*
X51668D01*
X53334Y259168D01*
Y267498D01*
X56666Y265832D02*
X58332Y267498D01*
X61665D01*
X63331Y265832D01*
Y264166D01*
X61665Y262500D01*
X59998D01*
X61665D01*
X63331Y260834D01*
Y259168D01*
X61665Y257502D01*
X58332D01*
X56666Y259168D01*
X26669Y609998D02*
Y601668D01*
X28335Y600002D01*
X31668D01*
X33334Y601668D01*
Y609998D01*
X43331Y600002D02*
X36666D01*
X43331Y606666D01*
Y608332D01*
X41665Y609998D01*
X38332D01*
X36666Y608332D01*
X213335Y387498D02*
Y379168D01*
X215002Y377502D01*
X218334D01*
X220000Y379168D01*
Y387498D01*
X223332Y377502D02*
X226665D01*
X224998D01*
Y387498D01*
X223332Y385832D01*
X234998Y240004D02*
X225002D01*
Y245002D01*
X226668Y246668D01*
X230000D01*
X231666Y245002D01*
Y240004D01*
Y243336D02*
X234998Y246668D01*
Y250001D02*
Y253333D01*
Y251667D01*
X225002D01*
X226668Y250001D01*
X234998Y264996D02*
Y258331D01*
X228334Y264996D01*
X226668D01*
X225002Y263330D01*
Y259998D01*
X226668Y258331D01*
X89998Y560004D02*
X80002D01*
Y565003D01*
X81668Y566669D01*
X85000D01*
X86666Y565003D01*
Y560004D01*
Y563336D02*
X89998Y566669D01*
Y570001D02*
Y573333D01*
Y571667D01*
X80002D01*
X81668Y570001D01*
X80002Y584996D02*
Y578331D01*
X85000D01*
X83334Y581664D01*
Y583330D01*
X85000Y584996D01*
X88332D01*
X89998Y583330D01*
Y579998D01*
X88332Y578331D01*
X129998Y572504D02*
X120002D01*
Y577502D01*
X121668Y579169D01*
X125000D01*
X126666Y577502D01*
Y572504D01*
Y575836D02*
X129998Y579169D01*
Y582501D02*
Y585833D01*
Y584167D01*
X120002D01*
X121668Y582501D01*
X129998Y595830D02*
X120002D01*
X125000Y590831D01*
Y597496D01*
X242498Y650004D02*
X232502D01*
Y655002D01*
X234168Y656668D01*
X237500D01*
X239166Y655002D01*
Y650004D01*
Y653336D02*
X242498Y656668D01*
Y660001D02*
Y663333D01*
Y661667D01*
X232502D01*
X234168Y660001D01*
Y668331D02*
X232502Y669998D01*
Y673330D01*
X234168Y674996D01*
X240832D01*
X242498Y673330D01*
Y669998D01*
X240832Y668331D01*
X234168D01*
X149998Y419169D02*
X140002D01*
Y424168D01*
X141668Y425834D01*
X145000D01*
X146666Y424168D01*
Y419169D01*
Y422502D02*
X149998Y425834D01*
X148332Y429166D02*
X149998Y430832D01*
Y434165D01*
X148332Y435831D01*
X141668D01*
X140002Y434165D01*
Y430832D01*
X141668Y429166D01*
X143334D01*
X145000Y430832D01*
Y435831D01*
X169169Y417502D02*
Y427498D01*
X174168D01*
X175834Y425832D01*
Y422500D01*
X174168Y420834D01*
X169169D01*
X172502D02*
X175834Y417502D01*
X179166Y425832D02*
X180832Y427498D01*
X184165D01*
X185831Y425832D01*
Y424166D01*
X184165Y422500D01*
X185831Y420834D01*
Y419168D01*
X184165Y417502D01*
X180832D01*
X179166Y419168D01*
Y420834D01*
X180832Y422500D01*
X179166Y424166D01*
Y425832D01*
X180832Y422500D02*
X184165D01*
X182498Y621669D02*
X172502D01*
Y626668D01*
X174168Y628334D01*
X177500D01*
X179166Y626668D01*
Y621669D01*
Y625002D02*
X182498Y628334D01*
X172502Y631666D02*
Y638331D01*
X174168D01*
X180832Y631666D01*
X182498D01*
X194998Y621669D02*
X185002D01*
Y626668D01*
X186668Y628334D01*
X190000D01*
X191666Y626668D01*
Y621669D01*
Y625002D02*
X194998Y628334D01*
X185002Y638331D02*
X186668Y634998D01*
X190000Y631666D01*
X193332D01*
X194998Y633332D01*
Y636665D01*
X193332Y638331D01*
X191666D01*
X190000Y636665D01*
Y631666D01*
X219998Y621669D02*
X210002D01*
Y626668D01*
X211668Y628334D01*
X215000D01*
X216666Y626668D01*
Y621669D01*
Y625002D02*
X219998Y628334D01*
X210002Y638331D02*
Y631666D01*
X215000D01*
X213334Y634998D01*
Y636665D01*
X215000Y638331D01*
X218332D01*
X219998Y636665D01*
Y633332D01*
X218332Y631666D01*
X207498Y621669D02*
X197502D01*
Y626668D01*
X199168Y628334D01*
X202500D01*
X204166Y626668D01*
Y621669D01*
Y625002D02*
X207498Y628334D01*
Y636665D02*
X197502D01*
X202500Y631666D01*
Y638331D01*
X39998Y521669D02*
X30002D01*
Y526668D01*
X31668Y528334D01*
X35000D01*
X36666Y526668D01*
Y521669D01*
Y525002D02*
X39998Y528334D01*
X31668Y531666D02*
X30002Y533332D01*
Y536665D01*
X31668Y538331D01*
X33334D01*
X35000Y536665D01*
Y534998D01*
Y536665D01*
X36666Y538331D01*
X38332D01*
X39998Y536665D01*
Y533332D01*
X38332Y531666D01*
X89998Y521669D02*
X80002D01*
Y526668D01*
X81668Y528334D01*
X85000D01*
X86666Y526668D01*
Y521669D01*
Y525002D02*
X89998Y528334D01*
Y538331D02*
Y531666D01*
X83334Y538331D01*
X81668D01*
X80002Y536665D01*
Y533332D01*
X81668Y531666D01*
X165000Y329168D02*
Y335832D01*
X163334Y337498D01*
X160002D01*
X158336Y335832D01*
Y329168D01*
X160002Y327502D01*
X163334D01*
X161668Y330834D02*
X165000Y327502D01*
X163334D02*
X165000Y329168D01*
X168332Y327502D02*
X171665D01*
X169998D01*
Y337498D01*
X168332Y335832D01*
X93336Y862502D02*
Y872498D01*
X96668Y869166D01*
X100000Y872498D01*
Y862502D01*
X103332D02*
X106664D01*
X104998D01*
Y872498D01*
X103332Y870832D01*
X183335Y949998D02*
Y940002D01*
X190000D01*
X193332D02*
X196665D01*
X194998D01*
Y949998D01*
X193332Y948332D01*
X121669Y307498D02*
Y297502D01*
X126668D01*
X128334Y299168D01*
Y305832D01*
X126668Y307498D01*
X121669D01*
X138331D02*
X134998Y305832D01*
X131666Y302500D01*
Y299168D01*
X133332Y297502D01*
X136664D01*
X138331Y299168D01*
Y300834D01*
X136664Y302500D01*
X131666D01*
X30002Y491669D02*
X39998D01*
Y496668D01*
X38332Y498334D01*
X31668D01*
X30002Y496668D01*
Y491669D01*
Y508331D02*
Y501666D01*
X35000D01*
X33334Y504998D01*
Y506665D01*
X35000Y508331D01*
X38332D01*
X39998Y506665D01*
Y503332D01*
X38332Y501666D01*
X86669Y307498D02*
Y297502D01*
X91668D01*
X93334Y299168D01*
Y305832D01*
X91668Y307498D01*
X86669D01*
X96666Y305832D02*
X98332Y307498D01*
X101664D01*
X103331Y305832D01*
Y304166D01*
X101664Y302500D01*
X99998D01*
X101664D01*
X103331Y300834D01*
Y299168D01*
X101664Y297502D01*
X98332D01*
X96666Y299168D01*
X54169Y307498D02*
Y297502D01*
X59168D01*
X60834Y299168D01*
Y305832D01*
X59168Y307498D01*
X54169D01*
X70831Y297502D02*
X64166D01*
X70831Y304166D01*
Y305832D01*
X69165Y307498D01*
X65832D01*
X64166Y305832D01*
X189168Y879168D02*
X187502Y877502D01*
Y874170D01*
X189168Y872504D01*
X195832D01*
X197498Y874170D01*
Y877502D01*
X195832Y879168D01*
X197498Y882501D02*
Y885833D01*
Y884167D01*
X187502D01*
X189168Y882501D01*
X187502Y897496D02*
Y890832D01*
X192500D01*
X190834Y894164D01*
Y895830D01*
X192500Y897496D01*
X195832D01*
X197498Y895830D01*
Y892498D01*
X195832Y890832D01*
X231668Y884169D02*
X230002Y882503D01*
Y879170D01*
X231668Y877504D01*
X238332D01*
X239998Y879170D01*
Y882503D01*
X238332Y884169D01*
X239998Y887501D02*
Y890833D01*
Y889167D01*
X230002D01*
X231668Y887501D01*
X239998Y900830D02*
X230002D01*
X235000Y895832D01*
Y902496D01*
X221668Y868332D02*
X220002Y869998D01*
X216670D01*
X215004Y868332D01*
Y861668D01*
X216670Y860002D01*
X220002D01*
X221668Y861668D01*
X225001Y860002D02*
X228333D01*
X226667D01*
Y869998D01*
X225001Y868332D01*
X233332D02*
X234998Y869998D01*
X238330D01*
X239996Y868332D01*
Y866666D01*
X238330Y865000D01*
X236664D01*
X238330D01*
X239996Y863334D01*
Y861668D01*
X238330Y860002D01*
X234998D01*
X233332Y861668D01*
X94168Y566669D02*
X92502Y565003D01*
Y561670D01*
X94168Y560004D01*
X100832D01*
X102498Y561670D01*
Y565003D01*
X100832Y566669D01*
X102498Y570001D02*
Y573333D01*
Y571667D01*
X92502D01*
X94168Y570001D01*
X102498Y584996D02*
Y578331D01*
X95834Y584996D01*
X94168D01*
X92502Y583330D01*
Y579998D01*
X94168Y578331D01*
X204168Y843335D02*
X202502Y841669D01*
Y838336D01*
X204168Y836670D01*
X210832D01*
X212498Y838336D01*
Y841669D01*
X210832Y843335D01*
X212498Y846667D02*
Y849999D01*
Y848333D01*
X202502D01*
X204168Y846667D01*
X212498Y854998D02*
Y858330D01*
Y856664D01*
X202502D01*
X204168Y854998D01*
X221668Y828332D02*
X220002Y829998D01*
X216670D01*
X215004Y828332D01*
Y821668D01*
X216670Y820002D01*
X220002D01*
X221668Y821668D01*
X225001Y820002D02*
X228333D01*
X226667D01*
Y829998D01*
X225001Y828332D01*
X233332D02*
X234998Y829998D01*
X238330D01*
X239996Y828332D01*
Y821668D01*
X238330Y820002D01*
X234998D01*
X233332Y821668D01*
Y828332D01*
X11668Y625834D02*
X10002Y624168D01*
Y620835D01*
X11668Y619169D01*
X18332D01*
X19998Y620835D01*
Y624168D01*
X18332Y625834D01*
Y629166D02*
X19998Y630832D01*
Y634165D01*
X18332Y635831D01*
X11668D01*
X10002Y634165D01*
Y630832D01*
X11668Y629166D01*
X13334D01*
X15000Y630832D01*
Y635831D01*
X220834Y318332D02*
X219168Y319998D01*
X215835D01*
X214169Y318332D01*
Y311668D01*
X215835Y310002D01*
X219168D01*
X220834Y311668D01*
X224166Y318332D02*
X225832Y319998D01*
X229165D01*
X230831Y318332D01*
Y316666D01*
X229165Y315000D01*
X230831Y313334D01*
Y311668D01*
X229165Y310002D01*
X225832D01*
X224166Y311668D01*
Y313334D01*
X225832Y315000D01*
X224166Y316666D01*
Y318332D01*
X225832Y315000D02*
X229165D01*
X195834Y208332D02*
X194168Y209998D01*
X190835D01*
X189169Y208332D01*
Y201668D01*
X190835Y200002D01*
X194168D01*
X195834Y201668D01*
X205831Y209998D02*
X202498Y208332D01*
X199166Y205000D01*
Y201668D01*
X200832Y200002D01*
X204165D01*
X205831Y201668D01*
Y203334D01*
X204165Y205000D01*
X199166D01*
X34168Y580834D02*
X32502Y579168D01*
Y575835D01*
X34168Y574169D01*
X40832D01*
X42498Y575835D01*
Y579168D01*
X40832Y580834D01*
X32502Y590831D02*
Y584166D01*
X37500D01*
X35834Y587498D01*
Y589165D01*
X37500Y590831D01*
X40832D01*
X42498Y589165D01*
Y585832D01*
X40832Y584166D01*
X40834Y200832D02*
X39168Y202498D01*
X35835D01*
X34169Y200832D01*
Y194168D01*
X35835Y192502D01*
X39168D01*
X40834Y194168D01*
X49165Y192502D02*
Y202498D01*
X44166Y197500D01*
X50831D01*
X234168Y685834D02*
X232502Y684168D01*
Y680835D01*
X234168Y679169D01*
X240832D01*
X242498Y680835D01*
Y684168D01*
X240832Y685834D01*
X234168Y689166D02*
X232502Y690832D01*
Y694165D01*
X234168Y695831D01*
X235834D01*
X237500Y694165D01*
Y692498D01*
Y694165D01*
X239166Y695831D01*
X240832D01*
X242498Y694165D01*
Y690832D01*
X240832Y689166D01*
X193334Y330832D02*
X191668Y332498D01*
X188335D01*
X186669Y330832D01*
Y324168D01*
X188335Y322502D01*
X191668D01*
X193334Y324168D01*
X203331Y322502D02*
X196666D01*
X203331Y329166D01*
Y330832D01*
X201665Y332498D01*
X198332D01*
X196666Y330832D01*
X124168Y425000D02*
X122502Y423334D01*
Y420002D01*
X124168Y418335D01*
X130832D01*
X132498Y420002D01*
Y423334D01*
X130832Y425000D01*
X132498Y428332D02*
Y431665D01*
Y429998D01*
X122502D01*
X124168Y428332D01*
D16*
X39000Y221500D02*
Y223700D01*
Y221500D02*
X71000D01*
Y223700D01*
X39000Y251300D02*
Y253500D01*
X71000D01*
Y251300D02*
Y253500D01*
X186500Y461500D02*
Y471497D01*
X191498D01*
X193165Y469831D01*
Y466498D01*
X191498Y464832D01*
X186500D01*
X196497Y471497D02*
Y461500D01*
X199829Y464832D01*
X203161Y461500D01*
Y471497D01*
X206493Y461500D02*
Y471497D01*
X211492D01*
X213158Y469831D01*
Y466498D01*
X211492Y464832D01*
X206493D01*
X209826D02*
X213158Y461500D01*
X136500Y471497D02*
Y463166D01*
X138166Y461500D01*
X141498D01*
X143165Y463166D01*
Y471497D01*
X153161Y469831D02*
X151495Y471497D01*
X148163D01*
X146497Y469831D01*
Y468164D01*
X148163Y466498D01*
X151495D01*
X153161Y464832D01*
Y463166D01*
X151495Y461500D01*
X148163D01*
X146497Y463166D01*
X156494Y471497D02*
Y461500D01*
X161492D01*
X163158Y463166D01*
Y464832D01*
X161492Y466498D01*
X156494D01*
X161492D01*
X163158Y468164D01*
Y469831D01*
X161492Y471497D01*
X156494D01*
X94164Y469831D02*
X92498Y471497D01*
X89166D01*
X87500Y469831D01*
Y463166D01*
X89166Y461500D01*
X92498D01*
X94164Y463166D01*
X97497Y471497D02*
Y461500D01*
Y466498D01*
X104161D01*
Y471497D01*
Y461500D01*
X114158Y469831D02*
X112492Y471497D01*
X109160D01*
X107493Y469831D01*
Y463166D01*
X109160Y461500D01*
X112492D01*
X114158Y463166D01*
Y466498D01*
X110826D01*
X31500Y471497D02*
Y461500D01*
X34832Y464832D01*
X38165Y461500D01*
Y471497D01*
X46495D02*
X43163D01*
X41497Y469831D01*
Y463166D01*
X43163Y461500D01*
X46495D01*
X48161Y463166D01*
Y469831D01*
X46495Y471497D01*
X51494Y461500D02*
Y471497D01*
X56492D01*
X58158Y469831D01*
Y466498D01*
X56492Y464832D01*
X51494D01*
X54826D02*
X58158Y461500D01*
X61490Y471497D02*
Y461500D01*
Y464832D01*
X68155Y471497D01*
X63156Y466498D01*
X68155Y461500D01*
X24832Y886500D02*
X21500Y889832D01*
Y893165D01*
X24832Y896497D01*
X36495Y893165D02*
X31497D01*
X29831Y891498D01*
Y888166D01*
X31497Y886500D01*
X36495D01*
X39827D02*
X43160Y889832D01*
Y893165D01*
X39827Y896497D01*
X64819Y894831D02*
X63153Y896497D01*
X59821D01*
X58155Y894831D01*
Y888166D01*
X59821Y886500D01*
X63153D01*
X64819Y888166D01*
Y891498D01*
X61487D01*
X68152Y896497D02*
Y886500D01*
X73150D01*
X74816Y888166D01*
Y889832D01*
X73150Y891498D01*
X68152D01*
X73150D01*
X74816Y893165D01*
Y894831D01*
X73150Y896497D01*
X68152D01*
X78148D02*
Y886500D01*
X84813D01*
X19000Y915665D02*
X22332Y909000D01*
X25665Y915665D01*
X35661Y909000D02*
X28997D01*
X35661Y915665D01*
Y917331D01*
X33995Y918997D01*
X30663D01*
X28997Y917331D01*
X38993D02*
X40660Y918997D01*
X43992D01*
X45658Y917331D01*
Y910666D01*
X43992Y909000D01*
X40660D01*
X38993Y910666D01*
Y917331D01*
X55655Y909000D02*
X48990D01*
X55655Y915665D01*
Y917331D01*
X53989Y918997D01*
X50656D01*
X48990Y917331D01*
X65652Y918997D02*
X62319Y917331D01*
X58987Y913998D01*
Y910666D01*
X60653Y909000D01*
X63986D01*
X65652Y910666D01*
Y912332D01*
X63986Y913998D01*
X58987D01*
X68984Y909000D02*
Y910666D01*
X70650D01*
Y909000D01*
X68984D01*
X77315Y917331D02*
X78981Y918997D01*
X82313D01*
X83979Y917331D01*
Y910666D01*
X82313Y909000D01*
X78981D01*
X77315Y910666D01*
Y917331D01*
X87311Y910666D02*
X88977Y909000D01*
X92310D01*
X93976Y910666D01*
Y917331D01*
X92310Y918997D01*
X88977D01*
X87311Y917331D01*
Y915665D01*
X88977Y913998D01*
X93976D01*
X6500Y929000D02*
Y938997D01*
X9832Y935665D01*
X13164Y938997D01*
Y929000D01*
X21495D02*
X18163D01*
X16497Y930666D01*
Y933998D01*
X18163Y935665D01*
X21495D01*
X23161Y933998D01*
Y932332D01*
X16497D01*
X26493Y929000D02*
X31492D01*
X33158Y930666D01*
X31492Y932332D01*
X28160D01*
X26493Y933998D01*
X28160Y935665D01*
X33158D01*
X36490Y938997D02*
Y929000D01*
Y933998D01*
X38156Y935665D01*
X41489D01*
X43155Y933998D01*
Y929000D01*
X46487D02*
Y938997D01*
X53152Y929000D01*
Y938997D01*
X58150Y929000D02*
X61482D01*
X63148Y930666D01*
Y933998D01*
X61482Y935665D01*
X58150D01*
X56484Y933998D01*
Y930666D01*
X58150Y929000D01*
X73145Y938997D02*
Y929000D01*
X68147D01*
X66481Y930666D01*
Y933998D01*
X68147Y935665D01*
X73145D01*
X81476Y929000D02*
X78144D01*
X76477Y930666D01*
Y933998D01*
X78144Y935665D01*
X81476D01*
X83142Y933998D01*
Y932332D01*
X76477D01*
X103135Y938997D02*
X96471D01*
Y929000D01*
X103135D01*
X96471Y933998D02*
X99803D01*
X106468Y938997D02*
X113132D01*
Y937331D01*
X106468Y930666D01*
Y929000D01*
X116465Y938997D02*
X123129D01*
Y937331D01*
X116465Y930666D01*
Y929000D01*
M02*
