G04*
G04 #@! TF.GenerationSoftware,Altium Limited,Altium Designer,26.6.0 (10)*
G04*
G04 Layer_Color=32896*
G04 Board_Origin=14468504|9645670*
%FSLAX44Y44*%
%MOMM*%
G71*
G04*
G04 #@! TF.SameCoordinates,7998D1FF-D2DA-40C6-B84B-B500990ED48C*
G04*
G04*
G04 #@! TF.FilePolarity,Positive*
G04*
G01*
G75*
%ADD15C,0.1200*%
%ADD16C,0.1500*%
%ADD56C,0.5000*%
D15*
X189800Y646700D02*
Y769100D01*
X215200D01*
Y646700D02*
Y769100D01*
X189800Y646700D02*
X215200D01*
X181665Y59998D02*
X184997D01*
X183331D01*
Y51668D01*
X184997Y50002D01*
X186663D01*
X188329Y51668D01*
X178332Y50002D02*
Y59998D01*
X173334D01*
X171668Y58332D01*
Y55000D01*
X173334Y53334D01*
X178332D01*
X161671Y50002D02*
X168335D01*
X161671Y56666D01*
Y58332D01*
X163337Y59998D01*
X166669D01*
X168335Y58332D01*
D16*
X211500Y112500D02*
X246500D01*
X110000Y67500D02*
Y157500D01*
X246500D01*
Y67500D02*
Y157500D01*
X110000Y67500D02*
X246500D01*
X211500D02*
Y157250D01*
X101500Y67500D02*
X110000D01*
X101500D02*
Y87500D01*
X110000D01*
X101500Y157500D02*
X110000D01*
X101500Y137500D02*
Y157500D01*
Y137500D02*
X110000D01*
X168500Y661497D02*
Y654832D01*
X165168Y651500D01*
X161835Y654832D01*
Y661497D01*
X151839Y659831D02*
X153505Y661497D01*
X156837D01*
X158503Y659831D01*
Y653166D01*
X156837Y651500D01*
X153505D01*
X151839Y653166D01*
X141842Y659831D02*
X143508Y661497D01*
X146840D01*
X148506Y659831D01*
Y653166D01*
X146840Y651500D01*
X143508D01*
X141842Y653166D01*
X168500Y676500D02*
Y686497D01*
X163502D01*
X161835Y684831D01*
Y681498D01*
X163502Y679832D01*
X168500D01*
X165168D02*
X161835Y676500D01*
X151839Y684831D02*
X153505Y686497D01*
X156837D01*
X158503Y684831D01*
Y683165D01*
X156837Y681498D01*
X153505D01*
X151839Y679832D01*
Y678166D01*
X153505Y676500D01*
X156837D01*
X158503Y678166D01*
X148506Y686497D02*
X141842D01*
X145174D01*
Y676500D01*
X161835Y712331D02*
X163502Y713997D01*
X166834D01*
X168500Y712331D01*
Y705666D01*
X166834Y704000D01*
X163502D01*
X161835Y705666D01*
X158503Y713997D02*
Y704000D01*
X151839D01*
X148506Y713997D02*
Y704000D01*
Y707332D01*
X141842Y713997D01*
X146840Y708998D01*
X141842Y704000D01*
X168500Y736497D02*
Y726500D01*
X163502D01*
X161835Y728166D01*
Y734831D01*
X163502Y736497D01*
X168500D01*
X158503D02*
X155171D01*
X156837D01*
Y726500D01*
X158503D01*
X155171D01*
X145174Y736497D02*
X148506D01*
X150173Y734831D01*
Y728166D01*
X148506Y726500D01*
X145174D01*
X143508Y728166D01*
Y734831D01*
X145174Y736497D01*
X161835Y759831D02*
X163502Y761497D01*
X166834D01*
X168500Y759831D01*
Y753166D01*
X166834Y751500D01*
X163502D01*
X161835Y753166D01*
Y756498D01*
X165168D01*
X158503Y751500D02*
Y761497D01*
X151839Y751500D01*
Y761497D01*
X148506D02*
Y751500D01*
X143508D01*
X141842Y753166D01*
Y759831D01*
X143508Y761497D01*
X148506D01*
D56*
X105000Y405000D02*
Y421661D01*
Y413331D01*
X154984D01*
X146653Y405000D01*
Y446653D02*
X154984Y454984D01*
Y471645D01*
X146653Y479976D01*
X138322D01*
X129992Y471645D01*
X121661Y479976D01*
X113331D01*
X105000Y471645D01*
Y454984D01*
X113331Y446653D01*
X121661D01*
X129992Y454984D01*
X138322Y446653D01*
X146653D01*
X129992Y454984D02*
Y471645D01*
X154984Y529960D02*
X146653Y513298D01*
X129992Y496637D01*
X113331D01*
X105000Y504968D01*
Y521629D01*
X113331Y529960D01*
X121661D01*
X129992Y521629D01*
Y496637D01*
X154984Y579943D02*
Y546621D01*
X129992D01*
X138322Y563282D01*
Y571613D01*
X129992Y579943D01*
X113331D01*
X105000Y571613D01*
Y554952D01*
X113331Y546621D01*
X146653Y596605D02*
X154984Y604935D01*
Y621597D01*
X146653Y629927D01*
X113331D01*
X105000Y621597D01*
Y604935D01*
X113331Y596605D01*
X146653D01*
X145000Y321661D02*
X111678D01*
X128339Y338323D02*
Y305000D01*
X145000Y780000D02*
X111678D01*
M02*
