G04*
G04 #@! TF.GenerationSoftware,Altium Limited,Altium Designer,26.6.0 (10)*
G04*
G04 Layer_Physical_Order=1*
G04 Layer_Color=255*
G04 Board_Origin=14468504|9645670*
%FSLAX44Y44*%
%MOMM*%
G71*
G04*
G04 #@! TF.SameCoordinates,7998D1FF-D2DA-40C6-B84B-B500990ED48C*
G04*
G04*
G04 #@! TF.FilePolarity,Positive*
G04*
G01*
G75*
%ADD10C,0.2500*%
%ADD14C,0.3000*%
%ADD17R,1.9000X0.9500*%
%ADD18R,6.9000X6.8000*%
%ADD19R,0.9500X0.6000*%
%ADD20R,1.0000X0.8000*%
%ADD21R,0.8000X1.0000*%
%ADD22R,1.5240X3.0480*%
%ADD23R,1.5000X3.8100*%
%ADD24R,1.6000X4.9000*%
%ADD25R,1.6000X0.8000*%
G04:AMPARAMS|DCode=26|XSize=0.85mm|YSize=0.55mm|CornerRadius=0.1375mm|HoleSize=0mm|Usage=FLASHONLY|Rotation=270.000|XOffset=0mm|YOffset=0mm|HoleType=Round|Shape=RoundedRectangle|*
%AMROUNDEDRECTD26*
21,1,0.8500,0.2750,0,0,270.0*
21,1,0.5750,0.5500,0,0,270.0*
1,1,0.2750,-0.1375,-0.2875*
1,1,0.2750,-0.1375,0.2875*
1,1,0.2750,0.1375,0.2875*
1,1,0.2750,0.1375,-0.2875*
%
%ADD26ROUNDEDRECTD26*%
%ADD27R,1.4500X1.0000*%
G04:AMPARAMS|DCode=28|XSize=0.86mm|YSize=1.35mm|CornerRadius=0.2193mm|HoleSize=0mm|Usage=FLASHONLY|Rotation=90.000|XOffset=0mm|YOffset=0mm|HoleType=Round|Shape=RoundedRectangle|*
%AMROUNDEDRECTD28*
21,1,0.8600,0.9114,0,0,90.0*
21,1,0.4214,1.3500,0,0,90.0*
1,1,0.4386,0.4557,0.2107*
1,1,0.4386,0.4557,-0.2107*
1,1,0.4386,-0.4557,-0.2107*
1,1,0.4386,-0.4557,0.2107*
%
%ADD28ROUNDEDRECTD28*%
G04:AMPARAMS|DCode=29|XSize=1.27mm|YSize=0.31mm|CornerRadius=0.0806mm|HoleSize=0mm|Usage=FLASHONLY|Rotation=180.000|XOffset=0mm|YOffset=0mm|HoleType=Round|Shape=RoundedRectangle|*
%AMROUNDEDRECTD29*
21,1,1.2700,0.1488,0,0,180.0*
21,1,1.1088,0.3100,0,0,180.0*
1,1,0.1612,-0.5544,0.0744*
1,1,0.1612,0.5544,0.0744*
1,1,0.1612,0.5544,-0.0744*
1,1,0.1612,-0.5544,-0.0744*
%
%ADD29ROUNDEDRECTD29*%
G04:AMPARAMS|DCode=30|XSize=0.3mm|YSize=1.45mm|CornerRadius=0.045mm|HoleSize=0mm|Usage=FLASHONLY|Rotation=90.000|XOffset=0mm|YOffset=0mm|HoleType=Round|Shape=RoundedRectangle|*
%AMROUNDEDRECTD30*
21,1,0.3000,1.3600,0,0,90.0*
21,1,0.2100,1.4500,0,0,90.0*
1,1,0.0900,0.6800,0.1050*
1,1,0.0900,0.6800,-0.1050*
1,1,0.0900,-0.6800,-0.1050*
1,1,0.0900,-0.6800,0.1050*
%
%ADD30ROUNDEDRECTD30*%
G04:AMPARAMS|DCode=31|XSize=1.8mm|YSize=1.2mm|CornerRadius=0.12mm|HoleSize=0mm|Usage=FLASHONLY|Rotation=270.000|XOffset=0mm|YOffset=0mm|HoleType=Round|Shape=RoundedRectangle|*
%AMROUNDEDRECTD31*
21,1,1.8000,0.9600,0,0,270.0*
21,1,1.5600,1.2000,0,0,270.0*
1,1,0.2400,-0.4800,-0.7800*
1,1,0.2400,-0.4800,0.7800*
1,1,0.2400,0.4800,0.7800*
1,1,0.2400,0.4800,-0.7800*
%
%ADD31ROUNDEDRECTD31*%
G04:AMPARAMS|DCode=32|XSize=1.8mm|YSize=1.5mm|CornerRadius=0.15mm|HoleSize=0mm|Usage=FLASHONLY|Rotation=90.000|XOffset=0mm|YOffset=0mm|HoleType=Round|Shape=RoundedRectangle|*
%AMROUNDEDRECTD32*
21,1,1.8000,1.2000,0,0,90.0*
21,1,1.5000,1.5000,0,0,90.0*
1,1,0.3000,0.6000,0.7500*
1,1,0.3000,0.6000,-0.7500*
1,1,0.3000,-0.6000,-0.7500*
1,1,0.3000,-0.6000,0.7500*
%
%ADD32ROUNDEDRECTD32*%
G04:AMPARAMS|DCode=33|XSize=2.27mm|YSize=1.65mm|CornerRadius=0.2475mm|HoleSize=0mm|Usage=FLASHONLY|Rotation=0.000|XOffset=0mm|YOffset=0mm|HoleType=Round|Shape=RoundedRectangle|*
%AMROUNDEDRECTD33*
21,1,2.2700,1.1550,0,0,0.0*
21,1,1.7750,1.6500,0,0,0.0*
1,1,0.4950,0.8875,-0.5775*
1,1,0.4950,-0.8875,-0.5775*
1,1,0.4950,-0.8875,0.5775*
1,1,0.4950,0.8875,0.5775*
%
%ADD33ROUNDEDRECTD33*%
%ADD34R,1.1500X1.4000*%
%ADD35R,1.0000X1.4500*%
%ADD36R,1.4000X1.1500*%
%ADD37R,1.0000X0.6000*%
G04:AMPARAMS|DCode=38|XSize=0.85mm|YSize=0.55mm|CornerRadius=0.1375mm|HoleSize=0mm|Usage=FLASHONLY|Rotation=0.000|XOffset=0mm|YOffset=0mm|HoleType=Round|Shape=RoundedRectangle|*
%AMROUNDEDRECTD38*
21,1,0.8500,0.2750,0,0,0.0*
21,1,0.5750,0.5500,0,0,0.0*
1,1,0.2750,0.2875,-0.1375*
1,1,0.2750,-0.2875,-0.1375*
1,1,0.2750,-0.2875,0.1375*
1,1,0.2750,0.2875,0.1375*
%
%ADD38ROUNDEDRECTD38*%
%ADD39R,0.6000X0.9500*%
G04:AMPARAMS|DCode=40|XSize=2.27mm|YSize=1.65mm|CornerRadius=0.2475mm|HoleSize=0mm|Usage=FLASHONLY|Rotation=90.000|XOffset=0mm|YOffset=0mm|HoleType=Round|Shape=RoundedRectangle|*
%AMROUNDEDRECTD40*
21,1,2.2700,1.1550,0,0,90.0*
21,1,1.7750,1.6500,0,0,90.0*
1,1,0.4950,0.5775,0.8875*
1,1,0.4950,0.5775,-0.8875*
1,1,0.4950,-0.5775,-0.8875*
1,1,0.4950,-0.5775,0.8875*
%
%ADD40ROUNDEDRECTD40*%
%ADD46O,1.8000X4.6000*%
%ADD47O,1.8000X3.9000*%
%ADD48O,3.9000X1.8000*%
%ADD49C,1.7100*%
%ADD50R,1.7100X1.7100*%
%ADD51O,1.8000X1.0000*%
%ADD53C,4.0000*%
%ADD54C,0.8000*%
%ADD55C,0.8000*%
%ADD56C,0.5000*%
%ADD57C,1.0000*%
%ADD58R,2.5000X1.3080*%
%ADD59R,2.6890X1.3632*%
%ADD60C,0.7500*%
%ADD61C,0.6000*%
G36*
X214809Y995176D02*
X214323Y994975D01*
X210632Y992508D01*
X207492Y989368D01*
X205025Y985677D01*
X203326Y981575D01*
X202460Y977220D01*
Y976270D01*
X225000D01*
Y975000D01*
X226270D01*
Y952460D01*
X227220D01*
X231575Y953326D01*
X235677Y955025D01*
X239368Y957492D01*
X242508Y960632D01*
X244975Y964323D01*
X245176Y964809D01*
X247176Y964411D01*
X247176Y35589D01*
X245176Y35191D01*
X244975Y35677D01*
X242508Y39368D01*
X239368Y42508D01*
X235677Y44975D01*
X231575Y46674D01*
X227220Y47540D01*
X226270D01*
Y25000D01*
X225000D01*
Y23730D01*
X202460D01*
Y22780D01*
X203326Y18425D01*
X205025Y14323D01*
X207492Y10632D01*
X210632Y7492D01*
X214323Y5025D01*
X214809Y4824D01*
X214411Y2824D01*
X35589D01*
X35191Y4824D01*
X35677Y5025D01*
X39368Y7492D01*
X42508Y10632D01*
X44975Y14323D01*
X46674Y18425D01*
X47540Y22780D01*
Y23730D01*
X25000D01*
Y25000D01*
X23730D01*
Y47540D01*
X22780D01*
X18425Y46674D01*
X14323Y44975D01*
X10632Y42508D01*
X7492Y39368D01*
X5025Y35677D01*
X4824Y35191D01*
X2824Y35589D01*
Y964411D01*
X4824Y964809D01*
X5025Y964323D01*
X7492Y960632D01*
X10632Y957492D01*
X14323Y955025D01*
X18425Y953326D01*
X22780Y952460D01*
X23730D01*
Y975000D01*
X25000D01*
Y976270D01*
X47540D01*
Y977220D01*
X46674Y981575D01*
X44975Y985677D01*
X42508Y989368D01*
X39368Y992508D01*
X35677Y994975D01*
X35191Y995176D01*
X35589Y997176D01*
X115000D01*
Y990000D01*
X116000D01*
Y951750D01*
X120524D01*
X122168Y946908D01*
X125099Y940964D01*
X128781Y935454D01*
X133151Y930471D01*
X137637Y926536D01*
X138133Y926101D01*
X139251Y925355D01*
X140377Y924532D01*
X140378Y924532D01*
X140927Y924304D01*
X143661Y923171D01*
X145867Y922881D01*
X146180Y922819D01*
X146174Y922741D01*
X148595Y922503D01*
X152283Y921384D01*
X153698Y920627D01*
X155350Y919672D01*
X156812Y918437D01*
X157915Y916786D01*
X158020Y916260D01*
Y915333D01*
X157773Y912822D01*
X158020Y910311D01*
Y900760D01*
X160490D01*
X160994Y899275D01*
X163752Y893682D01*
X167216Y888497D01*
X171328Y883809D01*
X176016Y879697D01*
X181201Y876233D01*
X186794Y873474D01*
X186890Y873442D01*
X187101Y873231D01*
X187750Y871500D01*
X187750Y871500D01*
X187750D01*
X187750Y871500D01*
Y867324D01*
X187649Y865281D01*
X187649Y865281D01*
X187649Y865280D01*
Y865280D01*
X187649Y865277D01*
X187750Y864595D01*
Y858500D01*
X186268Y857250D01*
X186000D01*
Y850106D01*
X185000Y850000D01*
Y840000D01*
X186000D01*
Y832750D01*
X184390Y831808D01*
X182311D01*
X180540Y832360D01*
X180540Y833808D01*
Y837630D01*
X170000D01*
X159460D01*
Y833269D01*
X159460Y832360D01*
X160500Y830791D01*
X160500Y830360D01*
X160500Y821609D01*
X159460Y820040D01*
X159460Y819131D01*
Y814770D01*
X170000D01*
X180540D01*
X180540Y820040D01*
X182311Y820592D01*
X187750D01*
Y818500D01*
X198750D01*
Y824458D01*
X198858Y825000D01*
Y826000D01*
X198750Y826542D01*
Y831500D01*
X198750D01*
X199000Y832750D01*
X199000Y832750D01*
X199000Y833396D01*
Y840000D01*
X200000D01*
X199000Y841000D01*
Y851479D01*
X199289Y852931D01*
Y864569D01*
X198932Y866364D01*
X199083Y869427D01*
X199083Y869427D01*
X199083Y869439D01*
X199156Y870920D01*
X199172Y871393D01*
X199163D01*
X199163Y871394D01*
Y874707D01*
X198736Y876853D01*
X197521Y878672D01*
X195178Y881015D01*
X195179Y881017D01*
X195184Y881021D01*
X194023Y882170D01*
X193736Y882362D01*
X192203Y883386D01*
X192056Y883449D01*
X192056Y883449D01*
X188442Y884946D01*
X183550Y887944D01*
X179188Y891669D01*
X175463Y896031D01*
X173802Y898741D01*
X175372Y900000D01*
X196604D01*
X198500Y899750D01*
Y888750D01*
X211500D01*
Y890172D01*
X213500D01*
Y888750D01*
X226500D01*
Y899750D01*
X223562D01*
X221980Y900760D01*
Y934240D01*
X207500D01*
Y935000D01*
X175000D01*
Y934240D01*
X158020D01*
Y932749D01*
X156357Y931638D01*
X154273Y932501D01*
X149576Y933629D01*
X147353Y933804D01*
X147000Y933874D01*
X147005Y933940D01*
X145796Y934398D01*
X144214Y935593D01*
X141009Y938329D01*
X136979Y943049D01*
X133736Y948340D01*
X132965Y950201D01*
X134000Y951750D01*
X134000D01*
Y990000D01*
X135000D01*
Y997176D01*
X214411D01*
X214809Y995176D01*
D02*
G37*
%LPC*%
G36*
X223730Y973730D02*
X202460D01*
Y972780D01*
X203326Y968425D01*
X205025Y964323D01*
X207492Y960632D01*
X210632Y957492D01*
X214323Y955025D01*
X218425Y953326D01*
X222780Y952460D01*
X223730D01*
Y973730D01*
D02*
G37*
G36*
X47540D02*
X26270D01*
Y952460D01*
X27220D01*
X31575Y953326D01*
X35677Y955025D01*
X39368Y957492D01*
X42508Y960632D01*
X44975Y964323D01*
X46674Y968425D01*
X47540Y972780D01*
Y973730D01*
D02*
G37*
G36*
X127220Y925040D02*
X126270D01*
Y903770D01*
X147540D01*
Y904720D01*
X146674Y909075D01*
X144975Y913177D01*
X142508Y916868D01*
X139368Y920008D01*
X135677Y922475D01*
X131575Y924174D01*
X127220Y925040D01*
D02*
G37*
G36*
X123730D02*
X122780D01*
X118425Y924174D01*
X114323Y922475D01*
X110632Y920008D01*
X107492Y916868D01*
X105025Y913177D01*
X103326Y909075D01*
X102460Y904720D01*
Y903770D01*
X123730D01*
Y925040D01*
D02*
G37*
G36*
X147540Y901230D02*
X126270D01*
Y879960D01*
X127220D01*
X131575Y880826D01*
X135677Y882525D01*
X139368Y884992D01*
X142508Y888132D01*
X144975Y891823D01*
X146674Y895925D01*
X147540Y900280D01*
Y901230D01*
D02*
G37*
G36*
X123730D02*
X102460D01*
Y900280D01*
X103326Y895925D01*
X105025Y891823D01*
X107492Y888132D01*
X110632Y884992D01*
X114323Y882525D01*
X118425Y880826D01*
X122780Y879960D01*
X123730D01*
Y901230D01*
D02*
G37*
G36*
X180540Y845440D02*
X171270D01*
Y840170D01*
X180540D01*
Y845440D01*
D02*
G37*
G36*
X168730D02*
X159460D01*
Y840170D01*
X168730D01*
Y845440D01*
D02*
G37*
G36*
X203960Y769790D02*
X203770D01*
Y759970D01*
X213590D01*
Y760160D01*
X212834Y762981D01*
X211374Y765509D01*
X209309Y767574D01*
X206781Y769034D01*
X203960Y769790D01*
D02*
G37*
G36*
X201230D02*
X201040D01*
X198219Y769034D01*
X195691Y767574D01*
X193626Y765509D01*
X192166Y762981D01*
X191410Y760160D01*
Y759970D01*
X201230D01*
Y769790D01*
D02*
G37*
G36*
X213590Y757430D02*
X203770D01*
Y747610D01*
X203960D01*
X206781Y748366D01*
X209309Y749826D01*
X211374Y751891D01*
X212834Y754419D01*
X213590Y757240D01*
Y757430D01*
D02*
G37*
G36*
X201230D02*
X191410D01*
Y757240D01*
X192166Y754419D01*
X193626Y751891D01*
X195691Y749826D01*
X198219Y748366D01*
X201040Y747610D01*
X201230D01*
Y757430D01*
D02*
G37*
G36*
X203823Y743350D02*
X201177D01*
X198621Y742665D01*
X196329Y741342D01*
X194458Y739471D01*
X193135Y737179D01*
X192450Y734623D01*
Y731977D01*
X193135Y729421D01*
X194458Y727129D01*
X196329Y725258D01*
X198621Y723935D01*
X201177Y723250D01*
X203823D01*
X206379Y723935D01*
X208671Y725258D01*
X210542Y727129D01*
X211865Y729421D01*
X212550Y731977D01*
Y734623D01*
X211865Y737179D01*
X210542Y739471D01*
X208671Y741342D01*
X206379Y742665D01*
X203823Y743350D01*
D02*
G37*
G36*
Y717950D02*
X201177D01*
X198621Y717265D01*
X196329Y715942D01*
X194458Y714071D01*
X193135Y711779D01*
X192450Y709223D01*
Y706577D01*
X193135Y704021D01*
X194458Y701729D01*
X196329Y699858D01*
X198621Y698535D01*
X201177Y697850D01*
X203823D01*
X206379Y698535D01*
X208671Y699858D01*
X210542Y701729D01*
X211865Y704021D01*
X212550Y706577D01*
Y709223D01*
X211865Y711779D01*
X210542Y714071D01*
X208671Y715942D01*
X206379Y717265D01*
X203823Y717950D01*
D02*
G37*
G36*
X230040Y700790D02*
X223770D01*
Y695520D01*
X230040D01*
Y700790D01*
D02*
G37*
G36*
X221230D02*
X214960D01*
Y695520D01*
X221230D01*
Y700790D01*
D02*
G37*
G36*
X230040Y692980D02*
X214960D01*
Y687819D01*
X214960Y687710D01*
X215229Y687304D01*
X214155Y685304D01*
X212153D01*
X211865Y686379D01*
X210542Y688671D01*
X208671Y690542D01*
X206379Y691865D01*
X203823Y692550D01*
X201177D01*
X198621Y691865D01*
X196329Y690542D01*
X194458Y688671D01*
X193135Y686379D01*
X192450Y683823D01*
Y681177D01*
X193135Y678621D01*
X194458Y676329D01*
X196329Y674458D01*
X198621Y673135D01*
X201177Y672450D01*
X203823D01*
X206379Y673135D01*
X208671Y674458D01*
X210542Y676329D01*
X211865Y678621D01*
X212153Y679696D01*
X216000D01*
Y676396D01*
X216000Y675250D01*
X216000Y675250D01*
X216250Y674500D01*
X216250D01*
Y665500D01*
X228750D01*
Y674500D01*
X228750D01*
X229000Y675250D01*
X229000Y675250D01*
X229000Y676396D01*
Y685710D01*
X229000Y686141D01*
X230040Y687710D01*
X230040Y687819D01*
Y692980D01*
D02*
G37*
G36*
X39500Y844400D02*
X20500D01*
X20000Y830000D01*
X20500Y829500D01*
Y820700D01*
X20500D01*
Y819000D01*
X20500D01*
Y808000D01*
X20500D01*
Y806300D01*
X20500D01*
Y795600D01*
X20500Y795300D01*
Y793600D01*
X20500Y793300D01*
Y782900D01*
X20500Y782600D01*
Y780900D01*
X20500Y780600D01*
Y770200D01*
X20500Y769900D01*
Y768200D01*
X20500Y767900D01*
Y757500D01*
X20500Y757200D01*
Y755500D01*
X20500Y755200D01*
Y744800D01*
X20500Y744500D01*
Y742800D01*
X20500Y742500D01*
Y732100D01*
X20500Y731800D01*
Y730100D01*
X20500Y729800D01*
Y719400D01*
X20500Y719100D01*
Y717400D01*
X20500Y717100D01*
X20500Y707309D01*
X19460Y705740D01*
X19460Y704831D01*
Y700470D01*
X30000D01*
X40540D01*
Y704831D01*
X40540Y705740D01*
X39500Y707309D01*
X39500Y707740D01*
Y717100D01*
X39500Y717400D01*
Y719100D01*
X39500Y719400D01*
Y729800D01*
X39500Y730100D01*
Y731800D01*
X39500Y732100D01*
Y742500D01*
X39500Y742800D01*
Y744500D01*
X39500Y744800D01*
Y755200D01*
X39500Y755500D01*
Y757200D01*
X39500Y757500D01*
Y767900D01*
X39500Y768200D01*
Y769900D01*
X39500Y770200D01*
Y772596D01*
X60939D01*
X77196Y756339D01*
Y682500D01*
X77410Y681427D01*
X78017Y680517D01*
X96495Y662040D01*
X95622Y660084D01*
X94599D01*
X93581Y659662D01*
X65584D01*
X65584Y659662D01*
X64023Y659352D01*
X62700Y658468D01*
X49616Y645384D01*
X48732Y644061D01*
X48422Y642500D01*
X48422Y642500D01*
Y639578D01*
X41250D01*
Y642000D01*
X23750D01*
Y639578D01*
X16578D01*
Y680811D01*
X18189Y682422D01*
X18965D01*
X20500Y681000D01*
Y679300D01*
X20500Y679000D01*
Y668600D01*
X20500Y668300D01*
Y666600D01*
X20500Y666300D01*
Y655600D01*
X39500D01*
Y658296D01*
X51571D01*
X51679Y658035D01*
X52945Y656769D01*
X54599Y656084D01*
X56389D01*
X58043Y656769D01*
X59309Y658035D01*
X59994Y659689D01*
Y661479D01*
X59309Y663133D01*
X58043Y664399D01*
X56389Y665084D01*
X54599D01*
X52945Y664399D01*
X52450Y663904D01*
X39500D01*
Y666300D01*
X39500Y666600D01*
Y668300D01*
X39500Y668600D01*
Y670996D01*
X51488D01*
X51679Y670535D01*
X52945Y669269D01*
X54599Y668584D01*
X56389D01*
X58043Y669269D01*
X59309Y670535D01*
X59994Y672189D01*
Y673979D01*
X59309Y675633D01*
X58043Y676899D01*
X56389Y677584D01*
X54599D01*
X52945Y676899D01*
X52650Y676604D01*
X39500D01*
Y679000D01*
X39500Y679300D01*
Y681000D01*
X39500Y681300D01*
X39500Y691091D01*
X40540Y692660D01*
X40540Y693569D01*
Y697930D01*
X30000D01*
X19460D01*
Y693569D01*
X19460Y692660D01*
X19514Y692578D01*
X18440Y690578D01*
X16500D01*
X14939Y690268D01*
X13616Y689384D01*
X13616Y689384D01*
X9616Y685384D01*
X8732Y684061D01*
X8422Y682500D01*
X8422Y682500D01*
Y636000D01*
X8422Y636000D01*
X8422Y636000D01*
Y332771D01*
X8422Y332771D01*
X8732Y331210D01*
X9616Y329887D01*
X10572Y328931D01*
X11185Y327451D01*
X11719Y326917D01*
X11861Y326599D01*
X11894Y324617D01*
X11780Y324298D01*
X9616Y322134D01*
X8732Y320811D01*
X8422Y319250D01*
X8422Y319250D01*
Y207500D01*
X8422Y207500D01*
X8732Y205939D01*
X9616Y204616D01*
X29973Y184259D01*
X29011Y182433D01*
X28991Y182413D01*
X25470D01*
Y172070D01*
X32813D01*
Y178591D01*
X32833Y178611D01*
X34659Y179573D01*
X48422Y165811D01*
Y135000D01*
Y110000D01*
X48422Y110000D01*
X48732Y108439D01*
X49616Y107116D01*
X58574Y98158D01*
X58105Y95799D01*
X57626Y95601D01*
X56149Y94124D01*
X55350Y92194D01*
Y90106D01*
X56149Y88176D01*
X57626Y86699D01*
X59556Y85900D01*
X61644D01*
X61679Y85914D01*
X63383Y84965D01*
X62232Y83605D01*
X62000D01*
X60032Y83346D01*
X58197Y82586D01*
X56622Y81378D01*
X55414Y79802D01*
X54654Y77968D01*
X54562Y77270D01*
X66000D01*
X77438D01*
X77346Y77968D01*
X76586Y79802D01*
X76510Y79901D01*
X77497Y81901D01*
X81800D01*
X82967Y82134D01*
X83956Y82794D01*
X84616Y83783D01*
X84805Y84730D01*
X75000D01*
Y87270D01*
X84805D01*
X84759Y87500D01*
X84805Y87730D01*
X75000D01*
Y90270D01*
X84805D01*
X84616Y91217D01*
X83956Y92206D01*
X83677Y92392D01*
X83788Y92950D01*
Y95050D01*
X83699Y95500D01*
X83788Y95950D01*
Y98050D01*
X83637Y98811D01*
X83206Y99456D01*
Y100044D01*
X83637Y100689D01*
X83788Y101450D01*
Y103550D01*
X83637Y104311D01*
X83232Y105000D01*
X83637Y105689D01*
X83788Y106450D01*
Y108550D01*
X85599Y109696D01*
X88535D01*
X89608Y109910D01*
X90518Y110517D01*
X91983Y111982D01*
X92590Y112892D01*
X92804Y113965D01*
Y123965D01*
Y182950D01*
X92590Y184023D01*
X91983Y184933D01*
X77954Y198961D01*
Y224405D01*
X80694D01*
X81594Y224584D01*
X82357Y225093D01*
X82866Y225856D01*
X83045Y226756D01*
Y228244D01*
X82866Y229144D01*
X82357Y229907D01*
Y230093D01*
X82866Y230856D01*
X83045Y231756D01*
Y233244D01*
X82866Y234144D01*
X82875Y234189D01*
X83106Y234344D01*
X83846Y235450D01*
X84001Y236230D01*
X65560D01*
X64444Y235304D01*
X62500D01*
X61427Y235090D01*
X60517Y234483D01*
X58017Y231983D01*
X57410Y231073D01*
X57196Y230000D01*
Y221458D01*
X55790Y220040D01*
X55196Y220040D01*
X50520D01*
Y212500D01*
Y204960D01*
X55213D01*
X55790Y204960D01*
X57394Y204004D01*
X57410Y203927D01*
X58017Y203017D01*
X83196Y177839D01*
Y159860D01*
X81800Y158098D01*
X77497D01*
X76510Y160098D01*
X76586Y160197D01*
X77346Y162032D01*
X77438Y162730D01*
X66000D01*
Y165270D01*
X77438D01*
X77346Y165968D01*
X76586Y167803D01*
X76119Y168411D01*
Y169530D01*
X66000D01*
Y170800D01*
X64730D01*
Y182419D01*
X60000D01*
X58424Y182106D01*
X57087Y181213D01*
X56194Y179876D01*
X55881Y178300D01*
Y172715D01*
X53881Y171887D01*
X16578Y209189D01*
Y242551D01*
X18578Y242748D01*
X18732Y241975D01*
X19616Y240652D01*
X22116Y238152D01*
X22196Y238098D01*
Y227500D01*
Y215000D01*
X22410Y213927D01*
X23017Y213017D01*
X25517Y210517D01*
X26427Y209910D01*
X27500Y209696D01*
X30250D01*
Y206000D01*
X40710D01*
X41141Y206000D01*
X42710Y204960D01*
X42819Y204960D01*
X47980D01*
Y212500D01*
Y220040D01*
X42819D01*
X42710Y220040D01*
X41141Y219000D01*
X40710Y219000D01*
X30250D01*
Y218333D01*
X28250Y217334D01*
X27804Y217668D01*
Y222764D01*
X29306Y224405D01*
X40394D01*
X41294Y224584D01*
X42056Y225093D01*
X42566Y225856D01*
X42745Y226756D01*
Y228244D01*
X44419Y229696D01*
X47500D01*
X48573Y229910D01*
X49483Y230517D01*
X54483Y235517D01*
X55090Y236427D01*
X55304Y237500D01*
Y295632D01*
X55090Y296705D01*
X54483Y297614D01*
X39816Y312281D01*
Y313711D01*
X39131Y315365D01*
X38395Y316101D01*
X39145Y318101D01*
X52672D01*
Y314475D01*
X52981Y312924D01*
X53859Y311609D01*
X55174Y310731D01*
X56725Y310422D01*
X68275D01*
X69826Y310731D01*
X71141Y311609D01*
X72019Y312924D01*
X72328Y314475D01*
Y332225D01*
X72019Y333776D01*
X71141Y335091D01*
X69826Y335969D01*
X68275Y336278D01*
X56725D01*
X55174Y335969D01*
X53859Y335091D01*
X52981Y333776D01*
X52672Y332225D01*
Y326257D01*
X46578D01*
Y448311D01*
X77884Y479616D01*
X77884Y479616D01*
X78768Y480939D01*
X79078Y482500D01*
X79078Y482500D01*
Y533311D01*
X89189Y543422D01*
X91978D01*
X93349Y541834D01*
X93233Y541298D01*
X92500Y540304D01*
X91427Y540090D01*
X90517Y539483D01*
X83017Y531983D01*
X82410Y531073D01*
X82196Y530000D01*
Y408364D01*
X82410Y407291D01*
X83017Y406382D01*
X96882Y392517D01*
X95918Y390825D01*
X93371Y388278D01*
X92329Y386920D01*
X91674Y385339D01*
X91451Y383642D01*
Y379578D01*
X89225D01*
X87674Y379269D01*
X86359Y378391D01*
X85481Y377076D01*
X85172Y375525D01*
Y373206D01*
X72328D01*
Y375525D01*
X72019Y377076D01*
X71141Y378391D01*
X69826Y379269D01*
X68275Y379578D01*
X56725D01*
X55174Y379269D01*
X53859Y378391D01*
X52981Y377076D01*
X52672Y375525D01*
Y357775D01*
X52981Y356224D01*
X53859Y354909D01*
X55174Y354031D01*
X56725Y353722D01*
X68275D01*
X69826Y354031D01*
X71141Y354909D01*
X72019Y356224D01*
X72328Y357775D01*
Y360094D01*
X85172D01*
Y357775D01*
X85481Y356224D01*
X86359Y354909D01*
X87674Y354031D01*
X89225Y353722D01*
X92006D01*
X117672Y328056D01*
Y314475D01*
X117981Y312924D01*
X118859Y311609D01*
X120174Y310731D01*
X121725Y310422D01*
X133275D01*
X134826Y310731D01*
X136141Y311609D01*
X137019Y312924D01*
X137328Y314475D01*
Y332225D01*
X137019Y333776D01*
X136141Y335091D01*
X134826Y335969D01*
X133275Y336278D01*
X127994D01*
X104828Y359444D01*
Y375525D01*
X104563Y376858D01*
Y380927D01*
X106580Y382944D01*
X127500D01*
X127926Y383000D01*
X136250D01*
Y383444D01*
X146673D01*
Y371500D01*
X146500D01*
Y367426D01*
X146444Y367000D01*
X146500Y366574D01*
X146500Y363614D01*
X146500Y363100D01*
X144662Y362110D01*
X144636Y362136D01*
X144636Y362136D01*
X141836Y364936D01*
X140478Y365978D01*
X138897Y366633D01*
X137328Y366839D01*
Y375525D01*
X137019Y377076D01*
X136141Y378391D01*
X134826Y379269D01*
X133275Y379578D01*
X121725D01*
X120174Y379269D01*
X118859Y378391D01*
X117981Y377076D01*
X117672Y375525D01*
Y357775D01*
X117981Y356224D01*
X118859Y354909D01*
X120174Y354031D01*
X121725Y353722D01*
X133275D01*
X133385Y353744D01*
X134484D01*
X135364Y352864D01*
X135364Y352864D01*
X144864Y343364D01*
X146222Y342322D01*
X147803Y341667D01*
X149500Y341444D01*
X153000D01*
X154697Y341667D01*
X156278Y342322D01*
X157636Y343364D01*
X157740Y343500D01*
X159500D01*
Y347574D01*
X159556Y348000D01*
X159500Y348426D01*
Y352500D01*
X157740D01*
X157636Y352636D01*
X156278Y353678D01*
X154697Y354333D01*
X153000Y354556D01*
X152216D01*
X147066Y359706D01*
X147796Y361804D01*
X148902Y361952D01*
X149722Y361322D01*
X151303Y360667D01*
X153000Y360444D01*
X154697Y360667D01*
X156278Y361322D01*
X157636Y362364D01*
X157772Y362500D01*
X159500D01*
Y365383D01*
X159562Y365532D01*
X159785Y367229D01*
Y388422D01*
X172996D01*
X173003Y388417D01*
X174125Y388194D01*
X179875D01*
X180196Y388258D01*
X181937Y387159D01*
X182196Y386813D01*
Y378187D01*
X181937Y377841D01*
X180196Y376742D01*
X179875Y376806D01*
X174125D01*
X173003Y376583D01*
X172052Y375948D01*
X171417Y374997D01*
X171194Y373875D01*
Y371125D01*
X171417Y370003D01*
X172052Y369052D01*
X173003Y368417D01*
X174125Y368194D01*
X179875D01*
X180997Y368417D01*
X181948Y369052D01*
X182378Y369696D01*
X183535D01*
X184608Y369910D01*
X185518Y370517D01*
X186983Y371982D01*
X187590Y372892D01*
X187804Y373965D01*
Y374262D01*
X189804Y374459D01*
X189910Y373927D01*
X190517Y373017D01*
X193017Y370517D01*
X193927Y369910D01*
X195000Y369696D01*
X197622D01*
X198052Y369052D01*
X199003Y368417D01*
X200125Y368194D01*
X205875D01*
X206997Y368417D01*
X207948Y369052D01*
X208583Y370003D01*
X208806Y371125D01*
Y373875D01*
X208583Y374997D01*
X208118Y375693D01*
X208116Y375697D01*
X208073Y376593D01*
X208361Y378077D01*
X208698Y378302D01*
X209563Y379598D01*
X209867Y381125D01*
Y381230D01*
X203000D01*
Y383770D01*
X209867D01*
Y383875D01*
X209563Y385402D01*
X208882Y386422D01*
X209196Y387540D01*
X209717Y388422D01*
X213422D01*
Y366689D01*
X208311Y361578D01*
X203750D01*
Y364500D01*
X186250D01*
Y361578D01*
X183500D01*
Y362000D01*
X170500D01*
Y353000D01*
X173422D01*
Y346913D01*
X173000Y345895D01*
Y344105D01*
X173685Y342451D01*
X174951Y341185D01*
X176605Y340500D01*
X178395D01*
X180049Y341185D01*
X181315Y342451D01*
X182000Y344105D01*
Y345895D01*
X181578Y346913D01*
Y353000D01*
X183500D01*
Y353422D01*
X185965D01*
X186237Y351588D01*
X186242Y351503D01*
X186028Y349540D01*
X185210D01*
Y343270D01*
X195000D01*
X204790D01*
Y349540D01*
X203972D01*
X203758Y351503D01*
X203763Y351588D01*
X204035Y353422D01*
X210000D01*
X210000Y353422D01*
X211561Y353732D01*
X212884Y354616D01*
X218922Y360654D01*
X220922Y359826D01*
Y326689D01*
X211616Y317384D01*
X210732Y316061D01*
X210422Y314500D01*
X210422Y314500D01*
Y308750D01*
X208000D01*
Y304078D01*
X104189D01*
X99846Y308422D01*
X100674Y310422D01*
X100775D01*
X102326Y310731D01*
X103641Y311609D01*
X104519Y312924D01*
X104828Y314475D01*
Y332225D01*
X104519Y333776D01*
X103641Y335091D01*
X102326Y335969D01*
X100775Y336278D01*
X89225D01*
X87674Y335969D01*
X86359Y335091D01*
X85481Y333776D01*
X85172Y332225D01*
Y314475D01*
X85481Y312924D01*
X86359Y311609D01*
X87674Y310731D01*
X89225Y310422D01*
X90922D01*
Y307500D01*
X90922Y307500D01*
X91232Y305939D01*
X92116Y304616D01*
X99616Y297116D01*
X100939Y296232D01*
X102500Y295922D01*
X102500Y295922D01*
X208000D01*
Y291250D01*
X208444D01*
Y281250D01*
X204000D01*
Y268750D01*
X204707D01*
X206500Y268250D01*
Y257500D01*
X205000D01*
Y247500D01*
X206500D01*
Y236750D01*
X204956Y235650D01*
X204000D01*
Y223150D01*
X210444D01*
Y188500D01*
X208750D01*
Y187500D01*
X206250D01*
Y188500D01*
X191750D01*
Y186556D01*
X182500D01*
X180803Y186333D01*
X179222Y185678D01*
X177864Y184636D01*
X168714Y175486D01*
X167672Y174128D01*
X167017Y172547D01*
X166794Y170850D01*
Y164828D01*
X164475D01*
X162924Y164519D01*
X161609Y163641D01*
X160731Y162326D01*
X160422Y160775D01*
Y151344D01*
X128134Y119056D01*
X120591D01*
Y126500D01*
X120230Y129241D01*
X119172Y131795D01*
X117489Y133989D01*
X115295Y135672D01*
X112741Y136730D01*
X110000Y137091D01*
X107259Y136730D01*
X104705Y135672D01*
X102511Y133989D01*
X100828Y131795D01*
X99770Y129241D01*
X99409Y126500D01*
Y98500D01*
X99770Y95759D01*
X100828Y93205D01*
X102511Y91011D01*
X104705Y89328D01*
X107259Y88270D01*
X110000Y87909D01*
X112741Y88270D01*
X115295Y89328D01*
X117489Y91011D01*
X119172Y93205D01*
X120230Y95759D01*
X120591Y98500D01*
Y105944D01*
X130850D01*
X132547Y106167D01*
X134128Y106822D01*
X135486Y107864D01*
X172794Y145172D01*
X182225D01*
X183776Y145481D01*
X185091Y146359D01*
X185969Y147674D01*
X186278Y149225D01*
Y160775D01*
X185969Y162326D01*
X185091Y163641D01*
X183776Y164519D01*
X182225Y164828D01*
X179906D01*
Y168134D01*
X185216Y173444D01*
X191750D01*
Y171500D01*
X202500D01*
Y170000D01*
X210094D01*
Y164828D01*
X207775D01*
X206224Y164519D01*
X204909Y163641D01*
X204031Y162326D01*
X203722Y160775D01*
Y149225D01*
X204031Y147674D01*
X204909Y146359D01*
X206224Y145481D01*
X207775Y145172D01*
X225525D01*
X227076Y145481D01*
X228391Y146359D01*
X229269Y147674D01*
X229578Y149225D01*
Y160775D01*
X229269Y162326D01*
X228391Y163641D01*
X227076Y164519D01*
X225525Y164828D01*
X223206D01*
Y171500D01*
X223250D01*
Y179104D01*
X223333Y179303D01*
X223556Y181000D01*
Y194978D01*
X225460Y195210D01*
X225556Y195210D01*
X231730D01*
Y205000D01*
Y214790D01*
X225556D01*
X225460Y214790D01*
X223556Y215022D01*
Y223150D01*
X226000D01*
Y235650D01*
X225044D01*
X223500Y236750D01*
Y251250D01*
X222500D01*
Y253750D01*
X223500D01*
Y268250D01*
X225293Y268750D01*
X226000D01*
Y281250D01*
X221556D01*
Y288792D01*
X222960Y290210D01*
X223556Y290210D01*
X229230D01*
Y300000D01*
Y309790D01*
X222960D01*
Y308847D01*
X221000Y308750D01*
X220960Y308750D01*
X218578D01*
Y312811D01*
X227884Y322116D01*
X228768Y323439D01*
X229078Y325000D01*
X229078Y325000D01*
Y522500D01*
X228768Y524061D01*
X227884Y525384D01*
X227884Y525384D01*
X212884Y540384D01*
X211561Y541268D01*
X210000Y541578D01*
X210000Y541578D01*
X206250D01*
Y542000D01*
X193750D01*
Y535000D01*
X192500D01*
X192780Y534720D01*
Y514119D01*
X191964Y512898D01*
X191678Y511457D01*
Y507243D01*
X191964Y505802D01*
X192780Y504580D01*
X194002Y503764D01*
X195443Y503478D01*
X204557D01*
X205998Y503764D01*
X207220Y504580D01*
X207500Y504861D01*
Y505000D01*
X208036Y505802D01*
X208322Y507243D01*
Y511457D01*
X208036Y512898D01*
X207500Y513700D01*
Y531404D01*
X209500Y532232D01*
X220922Y520811D01*
Y398055D01*
X218922Y396782D01*
X218395Y397000D01*
X216605D01*
X215587Y396578D01*
X207004D01*
X206997Y396583D01*
X205875Y396806D01*
X200125D01*
X199003Y396583D01*
X198052Y395948D01*
X197417Y394997D01*
X197304Y394429D01*
X195304Y394626D01*
Y415000D01*
X195090Y416073D01*
X194483Y416983D01*
X186983Y424483D01*
X186073Y425090D01*
X185000Y425304D01*
X156161D01*
X102804Y478661D01*
Y484778D01*
X104557D01*
X105998Y485064D01*
X107219Y485881D01*
X108036Y487102D01*
X108322Y488543D01*
Y492757D01*
X108036Y494198D01*
X107219Y495420D01*
X107099Y495500D01*
X107500Y497500D01*
X107500Y497637D01*
Y505000D01*
X108036Y505802D01*
X108322Y507243D01*
Y511457D01*
X108036Y512898D01*
X107500Y513700D01*
Y535000D01*
X107500D01*
X106250Y536169D01*
Y541422D01*
X106250Y542000D01*
X107646Y543422D01*
X142354D01*
X143750Y542000D01*
Y535064D01*
X142703D01*
Y514003D01*
X141964Y512898D01*
X141678Y511457D01*
Y507243D01*
X141964Y505802D01*
X142703Y504697D01*
Y502500D01*
X156201D01*
Y503900D01*
X157219Y504580D01*
X158036Y505802D01*
X158322Y507243D01*
Y511457D01*
X158036Y512898D01*
X157219Y514119D01*
X156201Y514800D01*
Y518000D01*
X156250D01*
Y527000D01*
X156201D01*
Y533000D01*
X156250D01*
Y542000D01*
X152793D01*
Y544571D01*
X152482Y546132D01*
X151598Y547455D01*
X151598Y547455D01*
X148669Y550384D01*
X147346Y551268D01*
X145786Y551578D01*
X145785Y551578D01*
X130837D01*
X130044Y553578D01*
X159483Y583017D01*
X160090Y583927D01*
X160304Y585000D01*
Y653681D01*
X160500Y655600D01*
X162304Y655600D01*
X179500D01*
Y666300D01*
X179500Y666600D01*
Y668300D01*
X179500Y668600D01*
Y679000D01*
X179500Y679300D01*
Y681000D01*
X179500Y681300D01*
Y691700D01*
X179500Y692000D01*
Y693700D01*
X179500Y694000D01*
Y704400D01*
X179500Y704700D01*
Y706400D01*
X179500Y706700D01*
Y717100D01*
X179500Y717400D01*
Y719100D01*
X179500Y719400D01*
Y729800D01*
X179500Y730100D01*
Y731800D01*
X179500Y732100D01*
Y742500D01*
X179500Y742800D01*
Y744500D01*
X179500Y744800D01*
Y755200D01*
X179500Y755500D01*
Y757200D01*
X179500Y757500D01*
Y768200D01*
X179500D01*
Y769900D01*
X179500D01*
Y780600D01*
X179500Y780900D01*
Y782600D01*
X179500Y782900D01*
Y793300D01*
X179500Y793600D01*
Y795300D01*
X179500Y795600D01*
X179500Y805391D01*
X180540Y806960D01*
X180540Y807869D01*
Y812230D01*
X170000D01*
X159460D01*
Y807869D01*
X159460Y806960D01*
X160500Y805391D01*
X160500Y804960D01*
Y795600D01*
X160500Y795300D01*
Y793600D01*
X160500Y793300D01*
Y782900D01*
X160500Y782600D01*
Y780900D01*
X160500Y780600D01*
Y778204D01*
X127900D01*
X126827Y777990D01*
X125917Y777383D01*
X108017Y759483D01*
X107798Y759154D01*
X105798Y759760D01*
Y799506D01*
X105584Y800579D01*
X104976Y801489D01*
X78283Y828183D01*
X77373Y828790D01*
X76300Y829004D01*
X39500D01*
Y833400D01*
Y844400D01*
D02*
G37*
G36*
X212550Y667150D02*
X192450D01*
Y647050D01*
X212550D01*
Y652196D01*
X216250D01*
Y650500D01*
X228750D01*
Y659500D01*
X216250D01*
Y657804D01*
X212550D01*
Y667150D01*
D02*
G37*
G36*
X204557Y497583D02*
X201270D01*
Y491920D01*
X209383D01*
Y492757D01*
X209015Y494604D01*
X207969Y496169D01*
X206404Y497215D01*
X204557Y497583D01*
D02*
G37*
G36*
X154557D02*
X151270D01*
Y491920D01*
X159383D01*
Y492757D01*
X159015Y494604D01*
X157969Y496169D01*
X156404Y497215D01*
X154557Y497583D01*
D02*
G37*
G36*
X198730D02*
X195443D01*
X193596Y497215D01*
X192031Y496169D01*
X190985Y494604D01*
X190617Y492757D01*
Y491920D01*
X198730D01*
Y497583D01*
D02*
G37*
G36*
X148730D02*
X145443D01*
X143596Y497215D01*
X142031Y496169D01*
X140985Y494604D01*
X140617Y492757D01*
Y491920D01*
X148730D01*
Y497583D01*
D02*
G37*
G36*
X209383Y489380D02*
X201270D01*
Y483717D01*
X204557D01*
X206404Y484085D01*
X207969Y485131D01*
X209015Y486696D01*
X209383Y488543D01*
Y489380D01*
D02*
G37*
G36*
X198730D02*
X190617D01*
Y488543D01*
X190985Y486696D01*
X192031Y485131D01*
X193596Y484085D01*
X195443Y483717D01*
X198730D01*
Y489380D01*
D02*
G37*
G36*
X159383D02*
X151270D01*
Y483717D01*
X154557D01*
X156404Y484085D01*
X157969Y485131D01*
X159015Y486696D01*
X159383Y488543D01*
Y489380D01*
D02*
G37*
G36*
X148730D02*
X140617D01*
Y488543D01*
X140985Y486696D01*
X142031Y485131D01*
X143596Y484085D01*
X145443Y483717D01*
X148730D01*
Y489380D01*
D02*
G37*
G36*
X204790Y340730D02*
X196270D01*
Y334460D01*
X204790D01*
Y340730D01*
D02*
G37*
G36*
X193730D02*
X185210D01*
Y334460D01*
X193730D01*
Y340730D01*
D02*
G37*
G36*
X238040Y309790D02*
X231770D01*
Y301270D01*
X238040D01*
Y309790D01*
D02*
G37*
G36*
Y298730D02*
X231770D01*
Y290210D01*
X238040D01*
Y298730D01*
D02*
G37*
G36*
X80694Y250595D02*
X69606D01*
X68706Y250416D01*
X67944Y249907D01*
X67434Y249144D01*
X67255Y248244D01*
Y246756D01*
X67434Y245856D01*
X67944Y245093D01*
Y244907D01*
X67434Y244144D01*
X67255Y243244D01*
Y241756D01*
X67434Y240856D01*
X67425Y240811D01*
X67194Y240656D01*
X66454Y239550D01*
X66299Y238770D01*
X84001D01*
X83846Y239550D01*
X83106Y240656D01*
X82875Y240811D01*
X82866Y240856D01*
X83045Y241756D01*
Y243244D01*
X82866Y244144D01*
X82357Y244907D01*
Y245093D01*
X82866Y245856D01*
X83045Y246756D01*
Y248244D01*
X82866Y249144D01*
X82357Y249907D01*
X81594Y250416D01*
X80694Y250595D01*
D02*
G37*
G36*
X234270Y214790D02*
Y206270D01*
X240540D01*
Y214790D01*
X234270D01*
D02*
G37*
G36*
X240540Y203730D02*
X234270D01*
Y195210D01*
X240540D01*
Y203730D01*
D02*
G37*
G36*
X72000Y182419D02*
X67270D01*
Y172070D01*
X76119D01*
Y178300D01*
X75806Y179876D01*
X74913Y181213D01*
X73576Y182106D01*
X72000Y182419D01*
D02*
G37*
G36*
X22930Y182413D02*
X19400D01*
X17941Y182123D01*
X16704Y181296D01*
X15877Y180059D01*
X15587Y178600D01*
Y172070D01*
X22930D01*
Y182413D01*
D02*
G37*
G36*
X33179Y169530D02*
X24200D01*
X14821D01*
X14622Y169378D01*
X13414Y167803D01*
X12654Y165968D01*
X12562Y165270D01*
X24000D01*
X35438D01*
X35346Y165968D01*
X34586Y167803D01*
X33378Y169378D01*
X33179Y169530D01*
D02*
G37*
G36*
X127118Y204000D02*
X122882D01*
X118729Y203174D01*
X114816Y201553D01*
X111295Y199200D01*
X108300Y196205D01*
X105947Y192684D01*
X104326Y188771D01*
X103500Y184618D01*
Y180382D01*
X104326Y176229D01*
X105947Y172316D01*
X108300Y168795D01*
X111295Y165800D01*
X114816Y163447D01*
X118729Y161826D01*
X122882Y161000D01*
X127118D01*
X131271Y161826D01*
X135184Y163447D01*
X138705Y165800D01*
X141700Y168795D01*
X144053Y172316D01*
X145674Y176229D01*
X146500Y180382D01*
Y184618D01*
X145674Y188771D01*
X144053Y192684D01*
X141700Y196205D01*
X138705Y199200D01*
X135184Y201553D01*
X131271Y203174D01*
X127118Y204000D01*
D02*
G37*
G36*
X35438Y162730D02*
X25270D01*
Y156395D01*
X28000D01*
X29968Y156654D01*
X31802Y157414D01*
X33378Y158622D01*
X34586Y160197D01*
X35346Y162032D01*
X35438Y162730D01*
D02*
G37*
G36*
X22730D02*
X12562D01*
X12654Y162032D01*
X13414Y160197D01*
X14622Y158622D01*
X16198Y157414D01*
X18032Y156654D01*
X20000Y156395D01*
X22730D01*
Y162730D01*
D02*
G37*
G36*
X174770Y134472D02*
Y113770D01*
X185140D01*
Y123000D01*
X184743Y126012D01*
X183580Y128820D01*
X181730Y131230D01*
X179320Y133080D01*
X176513Y134243D01*
X174770Y134472D01*
D02*
G37*
G36*
X172230Y134472D02*
X170487Y134243D01*
X167680Y133080D01*
X165270Y131230D01*
X163420Y128820D01*
X162257Y126012D01*
X161861Y123000D01*
Y113770D01*
X172230D01*
Y134472D01*
D02*
G37*
G36*
Y111230D02*
X161861D01*
Y102000D01*
X162257Y98988D01*
X163420Y96180D01*
X165270Y93770D01*
X167680Y91920D01*
X170487Y90757D01*
X172230Y90528D01*
Y111230D01*
D02*
G37*
G36*
X185140D02*
X174770D01*
Y90528D01*
X176513Y90757D01*
X179320Y91920D01*
X181730Y93770D01*
X183580Y96180D01*
X184743Y98988D01*
X185140Y102000D01*
Y111230D01*
D02*
G37*
G36*
X28000Y83605D02*
X25270D01*
Y77270D01*
X35438D01*
X35346Y77968D01*
X34586Y79802D01*
X33378Y81378D01*
X31802Y82586D01*
X29968Y83346D01*
X28000Y83605D01*
D02*
G37*
G36*
X22730D02*
X20000D01*
X18032Y83346D01*
X16198Y82586D01*
X14622Y81378D01*
X13414Y79802D01*
X12654Y77968D01*
X12562Y77270D01*
X22730D01*
Y83605D01*
D02*
G37*
G36*
X35438Y74730D02*
X24000D01*
X12562D01*
X12654Y74032D01*
X13414Y72197D01*
X14622Y70622D01*
X14821Y70470D01*
X24200D01*
X33179D01*
X33378Y70622D01*
X34586Y72197D01*
X35346Y74032D01*
X35438Y74730D01*
D02*
G37*
G36*
X77438Y74730D02*
X66000D01*
X54562D01*
X54654Y74032D01*
X55414Y72197D01*
X55881Y71589D01*
Y70470D01*
X66000D01*
X76119D01*
Y71589D01*
X76586Y72197D01*
X77346Y74032D01*
X77438Y74730D01*
D02*
G37*
G36*
X145900Y79139D02*
X136670D01*
Y68770D01*
X157372D01*
X157143Y70512D01*
X155980Y73320D01*
X154130Y75730D01*
X151720Y77580D01*
X148913Y78743D01*
X145900Y79139D01*
D02*
G37*
G36*
X134130D02*
X124900D01*
X121888Y78743D01*
X119080Y77580D01*
X116670Y75730D01*
X114820Y73320D01*
X113657Y70512D01*
X113428Y68770D01*
X134130D01*
Y79139D01*
D02*
G37*
G36*
X32813Y67930D02*
X25470D01*
Y57587D01*
X29000D01*
X30459Y57877D01*
X31696Y58704D01*
X32523Y59941D01*
X32813Y61400D01*
Y67930D01*
D02*
G37*
G36*
X22930D02*
X15587D01*
Y61400D01*
X15877Y59941D01*
X16704Y58704D01*
X17941Y57877D01*
X19400Y57587D01*
X22930D01*
Y67930D01*
D02*
G37*
G36*
X76119Y67930D02*
X67270D01*
Y57581D01*
X72000D01*
X73576Y57894D01*
X74913Y58787D01*
X75806Y60124D01*
X76119Y61700D01*
Y67930D01*
D02*
G37*
G36*
X64730D02*
X55881D01*
Y61700D01*
X56194Y60124D01*
X57087Y58787D01*
X58424Y57894D01*
X60000Y57581D01*
X64730D01*
Y67930D01*
D02*
G37*
G36*
X157372Y66230D02*
X136670D01*
Y55860D01*
X145900D01*
X148913Y56257D01*
X151720Y57420D01*
X154130Y59270D01*
X155980Y61680D01*
X157143Y64488D01*
X157372Y66230D01*
D02*
G37*
G36*
X134130D02*
X113428D01*
X113657Y64488D01*
X114820Y61680D01*
X116670Y59270D01*
X119080Y57420D01*
X121888Y56257D01*
X124900Y55860D01*
X134130D01*
Y66230D01*
D02*
G37*
G36*
X223730Y47540D02*
X222780D01*
X218425Y46674D01*
X214323Y44975D01*
X210632Y42508D01*
X207492Y39368D01*
X205025Y35677D01*
X203326Y31575D01*
X202460Y27220D01*
Y26270D01*
X223730D01*
Y47540D01*
D02*
G37*
G36*
X27220D02*
X26270D01*
Y26270D01*
X47540D01*
Y27220D01*
X46674Y31575D01*
X44975Y35677D01*
X42508Y39368D01*
X39368Y42508D01*
X35677Y44975D01*
X31575Y46674D01*
X27220Y47540D01*
D02*
G37*
%LPD*%
G36*
X160500Y757500D02*
X160500Y757200D01*
Y755500D01*
X160500Y755200D01*
Y744800D01*
X160500Y744500D01*
Y742800D01*
X160500Y742500D01*
Y732100D01*
X160500Y731800D01*
Y730100D01*
X160500Y729800D01*
Y719400D01*
X160500Y719100D01*
Y717400D01*
X160500Y717100D01*
Y706700D01*
X160500Y706400D01*
Y704700D01*
X160500Y704400D01*
Y694000D01*
X160500Y693700D01*
Y692000D01*
X160500Y691700D01*
Y681300D01*
X160500Y681000D01*
Y679300D01*
X160500Y679000D01*
Y675304D01*
X160000D01*
X158927Y675090D01*
X158017Y674483D01*
X155517Y671983D01*
X154910Y671073D01*
X154696Y670000D01*
Y586161D01*
X137304Y568769D01*
X135304Y569598D01*
Y615500D01*
X151250D01*
Y624500D01*
X126250D01*
Y624500D01*
X101250D01*
Y622727D01*
X99250Y621646D01*
X98395Y622000D01*
X96607D01*
X95040Y623050D01*
Y627181D01*
X95040Y627290D01*
X94000Y628859D01*
X94000Y629290D01*
Y639750D01*
X81000D01*
Y638304D01*
X76806D01*
Y638375D01*
X76583Y639497D01*
X75948Y640448D01*
X74997Y641083D01*
X73875Y641306D01*
X71125D01*
X70003Y641083D01*
X69052Y640448D01*
X68417Y639497D01*
X68194Y638375D01*
Y632625D01*
X68417Y631503D01*
X69052Y630552D01*
X70003Y629917D01*
X71125Y629694D01*
X73875D01*
X74997Y629917D01*
X75948Y630552D01*
X76583Y631503D01*
X76806Y632625D01*
Y632696D01*
X79586D01*
X81000Y631282D01*
X81000Y628859D01*
X79960Y627290D01*
X79960Y627181D01*
Y622020D01*
X87500D01*
Y620750D01*
X88770D01*
Y613343D01*
X89267Y612210D01*
X89074Y612000D01*
X78806D01*
X78750Y612000D01*
X76806Y612136D01*
Y612375D01*
X76583Y613497D01*
X75948Y614448D01*
X74997Y615083D01*
X73875Y615306D01*
X71125D01*
X70003Y615083D01*
X69307Y614618D01*
X69303Y614616D01*
X68407Y614573D01*
X66923Y614861D01*
X66698Y615198D01*
X65402Y616063D01*
X63875Y616367D01*
X63770D01*
Y609500D01*
X61230D01*
Y616367D01*
X61125D01*
X59598Y616063D01*
X58302Y615198D01*
X58077Y614861D01*
X56593Y614573D01*
X55697Y614616D01*
X55693Y614618D01*
X54997Y615083D01*
X53875Y615306D01*
X51125D01*
X50003Y615083D01*
X49052Y614448D01*
X48417Y613497D01*
X48194Y612375D01*
Y606625D01*
X48417Y605503D01*
X48422Y605496D01*
Y597000D01*
X43750D01*
Y584040D01*
X43750Y584000D01*
X43653Y582040D01*
X42710D01*
Y575770D01*
X62290D01*
Y582040D01*
X61347D01*
X61250Y584000D01*
X61250Y584040D01*
Y586422D01*
X67214D01*
X67451Y586185D01*
X69105Y585500D01*
X70895D01*
X72549Y586185D01*
X73815Y587451D01*
X74428Y588931D01*
X75384Y589887D01*
X75710Y590375D01*
X77710Y589768D01*
Y586960D01*
X83730D01*
Y592500D01*
X86270D01*
Y586960D01*
X89960D01*
Y586710D01*
X96230D01*
Y593250D01*
X98770D01*
Y586710D01*
X105040D01*
Y588000D01*
X107891D01*
X109228Y586000D01*
X109153Y585820D01*
Y585618D01*
X108017Y584483D01*
X107410Y583573D01*
X107196Y582500D01*
Y582000D01*
X103750D01*
Y573000D01*
X116250D01*
Y581158D01*
X117468Y582376D01*
X117696Y582927D01*
X119696Y582529D01*
Y568661D01*
X118839Y567804D01*
X62290D01*
Y573230D01*
X53770D01*
Y566960D01*
X54725D01*
X55490Y565112D01*
X25517Y535139D01*
X24910Y534230D01*
X24696Y533157D01*
Y333560D01*
X23685Y332549D01*
X23000Y330895D01*
Y329105D01*
X23351Y328257D01*
X22266Y326257D01*
X20234D01*
X19149Y328257D01*
X19500Y329105D01*
Y330895D01*
X18815Y332549D01*
X17549Y333815D01*
X16993Y334045D01*
X16578Y334460D01*
Y631422D01*
X23750D01*
Y629040D01*
X23750Y629000D01*
X23654Y627040D01*
X22710D01*
Y620770D01*
X42290D01*
Y627040D01*
X41347D01*
X41250Y629000D01*
X41250Y629040D01*
Y631422D01*
X48471D01*
X49052Y630552D01*
X50003Y629917D01*
X51125Y629694D01*
X53875D01*
X54997Y629917D01*
X55948Y630552D01*
X56583Y631503D01*
X56806Y632625D01*
Y638375D01*
X56583Y639497D01*
X56578Y639504D01*
Y640811D01*
X67273Y651506D01*
X93581D01*
X94599Y651084D01*
X96389D01*
X98043Y651769D01*
X99309Y653035D01*
X99994Y654689D01*
Y655713D01*
X101950Y656585D01*
X104696Y653839D01*
Y639500D01*
X101250D01*
Y630500D01*
X126250D01*
Y630500D01*
X151250D01*
Y639500D01*
X147804D01*
Y660000D01*
X147590Y661073D01*
X146983Y661983D01*
X137000Y671965D01*
Y673395D01*
X136315Y675049D01*
X135049Y676315D01*
X133395Y677000D01*
X131605D01*
X129951Y676315D01*
X128685Y675049D01*
X128117Y673677D01*
X126975Y673175D01*
X126000Y672965D01*
X117804Y681161D01*
Y746339D01*
X131361Y759896D01*
X160500D01*
Y757500D01*
D02*
G37*
G36*
X84325Y550979D02*
X84429Y550196D01*
X72116Y537884D01*
X71232Y536561D01*
X70922Y535000D01*
X70922Y535000D01*
Y484189D01*
X39804Y453072D01*
X39021Y453176D01*
X37804Y453772D01*
Y497583D01*
X40753D01*
X40876Y497447D01*
X41639Y495583D01*
X40985Y494604D01*
X40617Y492757D01*
Y491920D01*
X50000D01*
X59383D01*
Y492757D01*
X59015Y494604D01*
X58291Y495688D01*
X58036Y497583D01*
X58036Y497583D01*
X58036Y497583D01*
Y505802D01*
X58322Y507243D01*
Y511457D01*
X58036Y512898D01*
Y531214D01*
X56250Y533000D01*
X56250Y533000D01*
X56250Y533000D01*
Y542000D01*
X56078D01*
X55313Y543848D01*
X63661Y552196D01*
X83729D01*
X84325Y550979D01*
D02*
G37*
G36*
X92901Y495500D02*
X92781Y495420D01*
X91964Y494198D01*
X91678Y492757D01*
Y488543D01*
X91964Y487102D01*
X92781Y485881D01*
X94002Y485064D01*
X95443Y484778D01*
X97196D01*
Y477500D01*
X97410Y476427D01*
X98017Y475517D01*
X153017Y420517D01*
X153927Y419910D01*
X155000Y419696D01*
X183839D01*
X187785Y415750D01*
X186956Y413750D01*
X180500D01*
Y401250D01*
X182196D01*
Y398187D01*
X181937Y397841D01*
X180196Y396742D01*
X179875Y396806D01*
X174125D01*
X173003Y396583D01*
X172996Y396578D01*
X152500D01*
X152388Y396556D01*
X138708D01*
X137290Y397960D01*
X138505Y399460D01*
X139290Y399460D01*
X143730D01*
Y405000D01*
Y410540D01*
X137710Y410540D01*
X137290Y412366D01*
Y413040D01*
X128770D01*
Y405500D01*
X127500D01*
Y404230D01*
X117710D01*
Y398056D01*
X117710Y397960D01*
X117478Y396056D01*
X103864D01*
X102168Y395833D01*
X101693Y395636D01*
X100847Y396483D01*
X100847Y396483D01*
X87804Y409526D01*
Y497500D01*
X92294D01*
X92901Y495500D01*
D02*
G37*
%LPC*%
G36*
X86230Y619480D02*
X79960D01*
Y614210D01*
X86230D01*
Y619480D01*
D02*
G37*
G36*
X42290Y618230D02*
X33770D01*
Y611960D01*
X42290D01*
Y618230D01*
D02*
G37*
G36*
X31230D02*
X22710D01*
Y611960D01*
X31230D01*
Y618230D01*
D02*
G37*
G36*
X51230Y573230D02*
X42710D01*
Y566960D01*
X51230D01*
Y573230D01*
D02*
G37*
G36*
X59383Y489380D02*
X51270D01*
Y483717D01*
X54557D01*
X56404Y484085D01*
X57969Y485131D01*
X59015Y486696D01*
X59383Y488543D01*
Y489380D01*
D02*
G37*
G36*
X48730D02*
X40617D01*
Y488543D01*
X40985Y486696D01*
X42031Y485131D01*
X43596Y484085D01*
X45443Y483717D01*
X48730D01*
Y489380D01*
D02*
G37*
G36*
X175540Y414790D02*
X171270D01*
Y408770D01*
X175540D01*
Y414790D01*
D02*
G37*
G36*
X168730D02*
X164460D01*
Y408770D01*
X168730D01*
Y414790D01*
D02*
G37*
G36*
X126230Y413040D02*
X117710D01*
Y406770D01*
X126230D01*
Y413040D01*
D02*
G37*
G36*
X146270Y410540D02*
Y406270D01*
X152290D01*
Y410540D01*
X146270D01*
D02*
G37*
G36*
X175540Y406230D02*
X171270D01*
Y400210D01*
X175540D01*
Y406230D01*
D02*
G37*
G36*
X168730D02*
X164460D01*
Y400210D01*
X168730D01*
Y406230D01*
D02*
G37*
G36*
X152290Y403730D02*
X146270D01*
Y399460D01*
X152290D01*
Y403730D01*
D02*
G37*
%LPD*%
D10*
X110000Y582500D02*
X112500Y585000D01*
X110000Y577500D02*
Y582500D01*
X120000Y565000D02*
X122500Y567500D01*
Y618250D01*
X59343Y565000D02*
X120000D01*
X120750Y620000D02*
X122500Y618250D01*
X107500Y620000D02*
X120750D01*
X110000Y592500D02*
Y602500D01*
X125000Y560000D02*
X132500Y567500D01*
Y620000D01*
X60000Y560000D02*
X125000D01*
X27500Y533157D02*
X59343Y565000D01*
X35000Y535000D02*
X60000Y560000D01*
X127500Y555000D02*
X157500Y585000D01*
X62500Y555000D02*
X127500D01*
X50000Y542500D02*
X62500Y555000D01*
X97500Y607500D02*
X105000D01*
X110000Y602500D01*
X97500Y607500D02*
Y617500D01*
Y606750D02*
Y607500D01*
X85000D02*
X97500D01*
X25000Y227500D02*
Y241035D01*
Y215000D02*
Y227500D01*
X34850D01*
X26465Y242500D02*
X34850D01*
X25000Y241035D02*
X26465Y242500D01*
X27500Y212500D02*
X35750D01*
X25000Y215000D02*
X27500Y212500D01*
X85000Y607500D02*
X85000Y607500D01*
X85000D02*
Y607500D01*
X157500Y585000D02*
Y670000D01*
X80000Y682500D02*
X107500Y655000D01*
X80000Y682500D02*
Y757500D01*
X107500Y635000D02*
Y655000D01*
X62100Y775400D02*
X80000Y757500D01*
X87500Y683157D02*
Y785000D01*
X71700Y800800D02*
X87500Y785000D01*
X222500Y670000D02*
Y680750D01*
X202500Y682500D02*
X220750D01*
X222500Y680750D01*
X202500Y657100D02*
X204600Y655000D01*
X222500D01*
X102500Y682500D02*
X102994Y682994D01*
Y799506D01*
X76300Y826200D02*
X102994Y799506D01*
X95000Y680000D02*
Y787500D01*
Y680000D02*
X102500Y672500D01*
X70000Y812500D02*
X95000Y787500D01*
X110000Y757500D02*
X127900Y775400D01*
X110000Y677500D02*
X120000Y667500D01*
X110000Y677500D02*
Y757500D01*
X63000Y141100D02*
Y141536D01*
X64464Y143000D01*
X75000D01*
X85000Y408364D02*
X98864Y394500D01*
X98864D01*
X85000Y408364D02*
Y530000D01*
X98864Y394500D02*
X103864Y389500D01*
X85000Y530000D02*
X92500Y537500D01*
X100000D01*
X192500Y375000D02*
Y415000D01*
X185000Y422500D02*
X192500Y415000D01*
X155000Y422500D02*
X185000D01*
X100000Y477500D02*
X155000Y422500D01*
X100000Y477500D02*
Y490650D01*
X52500Y237500D02*
Y295632D01*
X35316Y312816D02*
X52500Y295632D01*
X27500Y312500D02*
X43950Y296050D01*
Y240283D02*
Y296050D01*
X35150Y237800D02*
X41467D01*
X43950Y240283D01*
X34850Y237500D02*
X35150Y237800D01*
X35000Y330000D02*
Y535000D01*
X27500Y330000D02*
Y533157D01*
X47500Y232500D02*
X52500Y237500D01*
X168700Y672500D02*
X170000Y673800D01*
X160000Y672500D02*
X168700D01*
X157500Y670000D02*
X160000Y672500D01*
X50000Y537500D02*
Y542500D01*
Y509350D02*
Y522500D01*
X100000Y509350D02*
Y522500D01*
X150000Y509350D02*
Y522500D01*
X200000Y509350D02*
Y522500D01*
X132500Y620000D02*
X145000D01*
Y635000D02*
Y660000D01*
X132500Y672500D02*
X145000Y660000D01*
X115000Y680000D02*
X132500Y662500D01*
Y635000D02*
Y662500D01*
X120000Y635000D02*
Y667500D01*
X34850Y232500D02*
X47500D01*
X90000Y123965D02*
Y182950D01*
X75000Y122500D02*
X88535D01*
X90000Y123965D01*
Y113965D02*
Y123965D01*
X88535Y112500D02*
X90000Y113965D01*
X75000Y112500D02*
X88535D01*
X75150Y197800D02*
X90000Y182950D01*
X75150Y197800D02*
Y227500D01*
X86000Y130000D02*
Y179000D01*
X60000Y205000D02*
Y230000D01*
Y205000D02*
X86000Y179000D01*
X62500Y232500D02*
X75150D01*
X60000Y230000D02*
X62500Y232500D01*
X83750Y127750D02*
X86000Y130000D01*
X75250Y127750D02*
X83750D01*
X75000Y127500D02*
X75250Y127750D01*
X30000Y826200D02*
X76300D01*
X115000Y680000D02*
Y747500D01*
X130200Y762700D01*
X170000D01*
X127900Y775400D02*
X170000D01*
X30000D02*
X62100D01*
X30000Y800800D02*
X71700D01*
X31000Y812500D02*
X70000D01*
X30000Y661100D02*
X55000D01*
X30000Y673800D02*
X55000D01*
X72500Y635500D02*
X87750D01*
X192500Y375000D02*
X195000Y372500D01*
X203000D01*
X177000D02*
X183535D01*
X185000Y373965D02*
Y407500D01*
X183535Y372500D02*
X185000Y373965D01*
X216000Y180000D02*
X217000Y181000D01*
X65000Y117500D02*
X75000D01*
X65710Y97000D02*
X75000D01*
X65605Y97105D02*
X65710Y97000D01*
X75000Y143000D02*
Y146000D01*
Y94000D02*
Y97000D01*
X65000Y127500D02*
X75000D01*
X62500Y125000D02*
X65000Y127500D01*
X62500Y120000D02*
Y125000D01*
Y120000D02*
X65000Y117500D01*
D14*
X75000Y154000D02*
X78750D01*
D17*
X215000Y275000D02*
D03*
Y229400D02*
D03*
D18*
X152000Y252200D02*
D03*
D19*
X222500Y670000D02*
D03*
Y655000D02*
D03*
X120000Y635000D02*
D03*
Y620000D02*
D03*
X132500Y635000D02*
D03*
Y620000D02*
D03*
X85000Y592500D02*
D03*
Y607500D02*
D03*
X150000Y522500D02*
D03*
Y537500D02*
D03*
X100000Y537500D02*
D03*
Y522500D02*
D03*
X50000Y522500D02*
D03*
Y537500D02*
D03*
X145000Y390000D02*
D03*
Y405000D02*
D03*
Y620000D02*
D03*
Y635000D02*
D03*
X107500Y620000D02*
D03*
Y635000D02*
D03*
X200000Y537500D02*
D03*
Y522500D02*
D03*
X110000Y577500D02*
D03*
Y592500D02*
D03*
D20*
X222500Y680750D02*
D03*
Y694250D02*
D03*
X192500Y851750D02*
D03*
Y838250D02*
D03*
X205000Y894250D02*
D03*
Y880750D02*
D03*
X220000Y894250D02*
D03*
Y880750D02*
D03*
X87500Y634250D02*
D03*
Y620750D02*
D03*
X97500Y606750D02*
D03*
Y593250D02*
D03*
D21*
X193250Y825000D02*
D03*
X206750D02*
D03*
X193250Y865000D02*
D03*
X206750D02*
D03*
X35750Y212500D02*
D03*
X49250D02*
D03*
D22*
X167140Y917500D02*
D03*
X212860D02*
D03*
D23*
X125000Y972300D02*
D03*
D24*
X99600Y969250D02*
D03*
X150400D02*
D03*
D25*
X170000Y826200D02*
D03*
X30000Y838900D02*
D03*
Y826200D02*
D03*
X170000Y673800D02*
D03*
Y686500D02*
D03*
Y699200D02*
D03*
Y711900D02*
D03*
Y724600D02*
D03*
Y737300D02*
D03*
Y762700D02*
D03*
Y775400D02*
D03*
Y788100D02*
D03*
Y800800D02*
D03*
Y661100D02*
D03*
X30000Y813500D02*
D03*
Y800800D02*
D03*
Y788100D02*
D03*
Y775400D02*
D03*
Y762700D02*
D03*
Y750000D02*
D03*
Y724600D02*
D03*
Y711900D02*
D03*
Y686500D02*
D03*
Y673800D02*
D03*
Y661100D02*
D03*
X170000Y750000D02*
D03*
X30000Y737300D02*
D03*
X170000Y813500D02*
D03*
Y838900D02*
D03*
X30000Y699200D02*
D03*
D26*
X72500Y609500D02*
D03*
X52500Y609500D02*
D03*
Y635500D02*
D03*
X72500Y635500D02*
D03*
X62500Y609500D02*
D03*
D27*
X32500Y635500D02*
D03*
Y619500D02*
D03*
X52500Y590500D02*
D03*
Y574500D02*
D03*
X195000Y358000D02*
D03*
Y342000D02*
D03*
X127500Y405500D02*
D03*
Y389500D02*
D03*
D28*
X200000Y509350D02*
D03*
Y490650D02*
D03*
X150000D02*
D03*
Y509350D02*
D03*
X100000Y490650D02*
D03*
Y509350D02*
D03*
X50000Y490650D02*
D03*
Y509350D02*
D03*
D29*
X34850Y227500D02*
D03*
Y232500D02*
D03*
Y237500D02*
D03*
Y242500D02*
D03*
Y247500D02*
D03*
X75150D02*
D03*
Y242500D02*
D03*
Y232500D02*
D03*
Y227500D02*
D03*
Y237500D02*
D03*
D30*
X75000Y143000D02*
D03*
Y137500D02*
D03*
Y127500D02*
D03*
Y112500D02*
D03*
Y102500D02*
D03*
Y97000D02*
D03*
Y94000D02*
D03*
Y107500D02*
D03*
Y117500D02*
D03*
Y122500D02*
D03*
Y132500D02*
D03*
Y146000D02*
D03*
Y151000D02*
D03*
Y86000D02*
D03*
Y89000D02*
D03*
Y154000D02*
D03*
D31*
X24200Y69200D02*
D03*
Y170800D02*
D03*
D32*
X66000D02*
D03*
Y69200D02*
D03*
D33*
X216650Y155000D02*
D03*
X173350D02*
D03*
D34*
X199000Y180000D02*
D03*
X216000D02*
D03*
D35*
X217000Y205000D02*
D03*
X233000D02*
D03*
X214500Y300000D02*
D03*
X230500D02*
D03*
D36*
X215000Y244000D02*
D03*
Y261000D02*
D03*
D37*
X153000Y367000D02*
D03*
Y348000D02*
D03*
X177000Y357500D02*
D03*
D38*
X203000Y392500D02*
D03*
X203000Y372500D02*
D03*
X177000D02*
D03*
X177000Y392500D02*
D03*
X203000Y382500D02*
D03*
D39*
X185000Y407500D02*
D03*
X170000D02*
D03*
D40*
X127500Y366650D02*
D03*
Y323350D02*
D03*
X95000Y366650D02*
D03*
Y323350D02*
D03*
X62500Y366650D02*
D03*
Y323350D02*
D03*
D46*
X110000Y112500D02*
D03*
D47*
X173500D02*
D03*
D48*
X135400Y67500D02*
D03*
D49*
X202500Y733300D02*
D03*
Y707900D02*
D03*
Y682500D02*
D03*
Y758700D02*
D03*
D50*
Y657100D02*
D03*
D51*
X24000Y76000D02*
D03*
X66000D02*
D03*
X24000Y164000D02*
D03*
X66000D02*
D03*
D53*
X225000Y975000D02*
D03*
X25000D02*
D03*
X225000Y25000D02*
D03*
X25000D02*
D03*
X125000Y182500D02*
D03*
Y902500D02*
D03*
D54*
X191212Y877050D02*
D03*
D55*
X164501Y906260D02*
G03*
X190057Y878205I40537J11259D01*
G01*
X193556Y871392D02*
G03*
X193556Y871393I-8000J1D01*
G01*
X163505Y914799D02*
G03*
X163580Y910364I14317J-1977D01*
G01*
X158396Y924403D02*
G03*
X146601Y928345I-13636J-21181D01*
G01*
D02*
G03*
X146581Y928347I-1841J-25123D01*
G01*
X142505Y929836D02*
G03*
X146581Y928347I4681J6488D01*
G01*
X163902Y914816D02*
G03*
X158396Y924403I-12019J-528D01*
G01*
X124838Y957250D02*
G03*
X142505Y929836I44139J9046D01*
G01*
X193250Y865000D02*
X193250Y865001D01*
X193556Y871196D01*
X163580Y910364D02*
X164501Y906260D01*
X191212Y877050D02*
X193556Y874707D01*
Y871393D02*
Y874707D01*
Y871196D02*
Y871392D01*
X190057Y878205D02*
X191212Y877050D01*
X193681Y852931D02*
Y864569D01*
X192500Y851750D02*
X193681Y852931D01*
X192500Y826750D02*
Y838250D01*
Y826750D02*
X193250Y826000D01*
Y825000D02*
Y826000D01*
X170000Y826200D02*
X191950D01*
X124838Y957250D02*
X125000Y972300D01*
D56*
X177500Y357500D02*
X210000D01*
X177500Y345000D02*
Y357500D01*
X110000Y577500D02*
X110000Y577500D01*
X148715Y538000D02*
Y544571D01*
Y538000D02*
X149214Y537500D01*
X150000D01*
X87500Y547500D02*
X145786D01*
X75000Y535000D02*
X87500Y547500D01*
X145786D02*
X148715Y544571D01*
X75000Y482500D02*
Y535000D01*
X80000Y159000D02*
Y160000D01*
X79750Y158750D02*
X80000Y159000D01*
X79750Y155000D02*
Y158750D01*
X78750Y154000D02*
X79750Y155000D01*
X52500Y590500D02*
X69229D01*
X69729Y590000D02*
X70000D01*
Y590271D01*
X69229Y590500D02*
X69729Y590000D01*
X72500Y592771D02*
Y609500D01*
X70000Y590271D02*
X72500Y592771D01*
X12500Y319250D02*
X15429Y322179D01*
X42500D01*
X12500Y207500D02*
X52500Y167500D01*
X12500Y207500D02*
Y319250D01*
Y682500D02*
X16500Y686500D01*
X30000D01*
X12500Y636000D02*
Y682500D01*
X13000Y635500D02*
X32500D01*
X12500Y332771D02*
Y636000D01*
X13000Y635500D01*
X15000Y330000D02*
Y330271D01*
X12500Y332771D02*
X15000Y330271D01*
X22500Y243535D02*
X25000Y241035D01*
X22500Y243535D02*
Y297500D01*
X214500Y300000D02*
Y314500D01*
X225000Y325000D01*
Y522500D01*
X210000Y537500D02*
X225000Y522500D01*
X200000Y537500D02*
X210000D01*
X212500Y917140D02*
X212860Y917500D01*
X212500Y894250D02*
Y917140D01*
Y894250D02*
X220000D01*
X205000D02*
X212500D01*
X203000Y392500D02*
X217500D01*
Y365000D02*
Y392500D01*
X52500Y635500D02*
Y642500D01*
X65584Y655584D02*
X95494D01*
X52500Y642500D02*
X65584Y655584D01*
X52500Y110000D02*
Y135000D01*
X55000D01*
X61100Y141100D01*
X63000D01*
X52500Y135000D02*
Y167500D01*
Y110000D02*
X63600Y98900D01*
X42500Y450000D02*
X75000Y482500D01*
X42500Y322179D02*
Y450000D01*
Y322179D02*
X61329D01*
X30000Y813500D02*
X31000Y812500D01*
X52500Y590500D02*
Y609500D01*
X32500Y635500D02*
X52500D01*
X210000Y357500D02*
X217500Y365000D01*
X152500Y392500D02*
X177000D01*
X102500Y300000D02*
X214500D01*
X95000Y307500D02*
X102500Y300000D01*
X95000Y307500D02*
Y323350D01*
X61329Y322179D02*
X62500Y323350D01*
X63810Y98900D02*
X65605Y97105D01*
X63600Y98900D02*
X63810D01*
D57*
X140000Y357500D02*
X149500Y348000D01*
X137200Y360300D02*
X140000Y357500D01*
X130750Y360300D02*
X137200D01*
X149500Y348000D02*
X153000D01*
X127500Y363550D02*
X130750Y360300D01*
X88350Y366650D02*
X129575Y325425D01*
X98007Y383642D02*
X103864Y389500D01*
X98007Y369657D02*
Y383642D01*
X103864Y389500D02*
X127500D01*
Y390000D02*
X153229D01*
X95000Y366650D02*
X98007Y369657D01*
X217000Y181000D02*
Y227400D01*
X215000Y229400D02*
X217000Y227400D01*
X215000Y229400D02*
Y244000D01*
Y275000D02*
Y299500D01*
Y262500D02*
Y275000D01*
X216650Y155000D02*
Y180000D01*
X153229Y367229D02*
Y390000D01*
X153000Y367000D02*
X153229Y367229D01*
X127500Y363550D02*
Y366650D01*
X62500D02*
X88350D01*
X173350Y155000D02*
Y170850D01*
X182500Y180000D02*
X199000D01*
X173350Y170850D02*
X182500Y180000D01*
X130850Y112500D02*
X173350Y155000D01*
X110000Y112500D02*
X130850D01*
D58*
X170000Y813500D02*
D03*
D59*
X170945Y838624D02*
D03*
D60*
X60600Y91150D02*
D03*
Y148850D02*
D03*
D61*
X113653Y584925D02*
D03*
X165000Y232500D02*
D03*
Y242500D02*
D03*
Y252500D02*
D03*
X155000Y222500D02*
D03*
Y232500D02*
D03*
Y242500D02*
D03*
Y252500D02*
D03*
X145000Y222500D02*
D03*
X145000Y232500D02*
D03*
X145062Y242983D02*
D03*
X145000Y252500D02*
D03*
X165063Y262983D02*
D03*
X155063D02*
D03*
X145062D02*
D03*
X165063Y272983D02*
D03*
X155063D02*
D03*
X145062D02*
D03*
X165000Y282500D02*
D03*
X155000D02*
D03*
X145000D02*
D03*
X135000Y222500D02*
D03*
Y232500D02*
D03*
Y242500D02*
D03*
Y252500D02*
D03*
Y262500D02*
D03*
Y272500D02*
D03*
Y282500D02*
D03*
X125000D02*
D03*
Y272500D02*
D03*
Y262500D02*
D03*
Y252500D02*
D03*
Y242500D02*
D03*
Y232500D02*
D03*
Y222500D02*
D03*
X232500Y930000D02*
D03*
Y180000D02*
D03*
Y130000D02*
D03*
Y80000D02*
D03*
X220000Y855000D02*
D03*
Y805000D02*
D03*
X207500Y780000D02*
D03*
X220000Y755000D02*
D03*
Y705000D02*
D03*
X207500Y630000D02*
D03*
X220000Y605000D02*
D03*
X207500Y580000D02*
D03*
X220000Y555000D02*
D03*
X207500Y430000D02*
D03*
Y330000D02*
D03*
Y130000D02*
D03*
X220000Y105000D02*
D03*
X207500Y80000D02*
D03*
X220000Y55000D02*
D03*
X182500Y980000D02*
D03*
X195000Y955000D02*
D03*
Y805000D02*
D03*
X182500Y630000D02*
D03*
X195000Y605000D02*
D03*
X182500Y580000D02*
D03*
X195000Y555000D02*
D03*
X182500Y530000D02*
D03*
Y480000D02*
D03*
X195000Y455000D02*
D03*
X182500Y430000D02*
D03*
X195000Y255000D02*
D03*
Y205000D02*
D03*
Y155000D02*
D03*
Y105000D02*
D03*
X182500Y80000D02*
D03*
X195000Y55000D02*
D03*
X182500Y30000D02*
D03*
X170000Y955000D02*
D03*
Y855000D02*
D03*
Y605000D02*
D03*
Y555000D02*
D03*
Y505000D02*
D03*
Y455000D02*
D03*
X157500Y430000D02*
D03*
Y330000D02*
D03*
Y180000D02*
D03*
Y80000D02*
D03*
X170000Y55000D02*
D03*
X157500Y30000D02*
D03*
X145000Y855000D02*
D03*
X132500Y830000D02*
D03*
X145000Y805000D02*
D03*
Y755000D02*
D03*
Y605000D02*
D03*
Y205000D02*
D03*
Y155000D02*
D03*
X132500Y130000D02*
D03*
X145000Y105000D02*
D03*
X132500Y30000D02*
D03*
X107500Y930000D02*
D03*
Y880000D02*
D03*
X120000Y855000D02*
D03*
X107500Y830000D02*
D03*
X120000Y805000D02*
D03*
Y505000D02*
D03*
X107500Y480000D02*
D03*
Y430000D02*
D03*
Y280000D02*
D03*
Y230000D02*
D03*
X120000Y155000D02*
D03*
X107500Y80000D02*
D03*
Y30000D02*
D03*
X82500Y980000D02*
D03*
Y930000D02*
D03*
X95000Y905000D02*
D03*
X82500Y880000D02*
D03*
X95000Y855000D02*
D03*
X82500Y830000D02*
D03*
X95000Y455000D02*
D03*
X82500Y380000D02*
D03*
Y280000D02*
D03*
X95000Y255000D02*
D03*
Y205000D02*
D03*
Y105000D02*
D03*
Y55000D02*
D03*
X82500Y30000D02*
D03*
X57500Y980000D02*
D03*
X70000Y955000D02*
D03*
X57500Y930000D02*
D03*
X70000Y905000D02*
D03*
X57500Y880000D02*
D03*
X70000Y855000D02*
D03*
Y755000D02*
D03*
X57500Y730000D02*
D03*
X70000Y705000D02*
D03*
Y455000D02*
D03*
X57500Y430000D02*
D03*
X70000Y405000D02*
D03*
Y305000D02*
D03*
Y255000D02*
D03*
X57500Y30000D02*
D03*
X45000Y955000D02*
D03*
X32500Y930000D02*
D03*
X45000Y905000D02*
D03*
X32500Y880000D02*
D03*
X45000Y855000D02*
D03*
Y755000D02*
D03*
Y705000D02*
D03*
Y655000D02*
D03*
Y605000D02*
D03*
X32500Y580000D02*
D03*
X45000Y155000D02*
D03*
X32500Y130000D02*
D03*
X45000Y105000D02*
D03*
Y55000D02*
D03*
X7500Y930000D02*
D03*
X20000Y905000D02*
D03*
X7500Y880000D02*
D03*
X20000Y855000D02*
D03*
X7500Y830000D02*
D03*
Y780000D02*
D03*
Y730000D02*
D03*
X20000Y605000D02*
D03*
Y555000D02*
D03*
Y505000D02*
D03*
Y455000D02*
D03*
Y405000D02*
D03*
Y355000D02*
D03*
X7500Y180000D02*
D03*
Y130000D02*
D03*
X20000Y105000D02*
D03*
X7500Y80000D02*
D03*
X97500Y582500D02*
D03*
X67500Y577500D02*
D03*
X77500Y645000D02*
D03*
X72500Y622500D02*
D03*
X153931Y823941D02*
D03*
X192404Y811931D02*
D03*
X203103Y814486D02*
D03*
X205569Y836243D02*
D03*
X116138Y944439D02*
D03*
X121349Y934752D02*
D03*
X128213Y926156D02*
D03*
X147249Y916034D02*
D03*
X151451Y905869D02*
D03*
X155168Y895516D02*
D03*
X160900Y886127D02*
D03*
X168152Y877857D02*
D03*
X176909Y871200D02*
D03*
X181181Y861063D02*
D03*
X179431Y850203D02*
D03*
X205007Y844969D02*
D03*
X205829Y855938D02*
D03*
X189119Y892235D02*
D03*
X182684Y901157D02*
D03*
X182643Y934154D02*
D03*
X173884Y940809D02*
D03*
X162884D02*
D03*
X151929Y939819D02*
D03*
X47994Y200584D02*
D03*
Y225584D02*
D03*
X87994Y238084D02*
D03*
X195494Y330584D02*
D03*
X157994Y405584D02*
D03*
X127994Y418084D02*
D03*
X200494Y480584D02*
D03*
X150494D02*
D03*
X50494D02*
D03*
X32994Y608084D02*
D03*
X70000Y590000D02*
D03*
X140000Y357500D02*
D03*
X15000Y330000D02*
D03*
X22500Y297500D02*
D03*
X215494Y218084D02*
D03*
X212994Y899834D02*
D03*
X217500Y392500D02*
D03*
X97500Y617500D02*
D03*
X87994Y683084D02*
D03*
X95494Y655584D02*
D03*
X102500Y682500D02*
D03*
X55494Y660584D02*
D03*
Y673084D02*
D03*
X35316Y312816D02*
D03*
X27500Y312500D02*
D03*
X35000Y330000D02*
D03*
X27500D02*
D03*
X102500Y672500D02*
D03*
X132500D02*
D03*
X177500Y345000D02*
D03*
M02*
