G04*
G04 #@! TF.GenerationSoftware,Altium Limited,Altium Designer,23.0.1 (38)*
G04*
G04 Layer_Color=16711935*
%FSLAX42Y42*%
%MOMM*%
G71*
G04*
G04 #@! TF.SameCoordinates,26549080-C4CF-4FC7-94AC-5244C5C1EA83*
G04*
G04*
G04 #@! TF.FilePolarity,Negative*
G04*
G01*
G75*
%ADD47C,1.79*%
%ADD48R,1.79X1.79*%
%ADD49R,1.91X1.91*%
%ADD50C,1.91*%
%ADD51C,2.40*%
%ADD52O,2.40X2.45*%
%ADD53C,2.00*%
%ADD54R,1.80X1.80*%
%ADD55C,1.80*%
%ADD56R,1.91X1.91*%
%ADD57C,0.89*%
%ADD58R,1.79X1.79*%
%ADD59C,1.60*%
%ADD60R,1.60X1.60*%
G04:AMPARAMS|DCode=61|XSize=1.8mm|YSize=2mm|CornerRadius=0.5mm|HoleSize=0mm|Usage=FLASHONLY|Rotation=180.000|XOffset=0mm|YOffset=0mm|HoleType=Round|Shape=RoundedRectangle|*
%AMROUNDEDRECTD61*
21,1,1.80,1.00,0,0,180.0*
21,1,0.80,2.00,0,0,180.0*
1,1,1.00,-0.40,0.50*
1,1,1.00,0.40,0.50*
1,1,1.00,0.40,-0.50*
1,1,1.00,-0.40,-0.50*
%
%ADD61ROUNDEDRECTD61*%
%ADD62C,3.40*%
D47*
X1475Y4575D02*
D03*
X5175Y800D02*
D03*
D48*
X1221Y4575D02*
D03*
D49*
X500Y4500D02*
D03*
D50*
Y4246D02*
D03*
Y3992D02*
D03*
Y3738D02*
D03*
Y3484D02*
D03*
Y3230D02*
D03*
Y2976D02*
D03*
X3024Y7500D02*
D03*
X2770D02*
D03*
X2516D02*
D03*
X2262D02*
D03*
X2008D02*
D03*
X1754D02*
D03*
X738Y500D02*
D03*
X992D02*
D03*
X1246D02*
D03*
X2488D02*
D03*
X2742D02*
D03*
X2996D02*
D03*
X3250D02*
D03*
X3504D02*
D03*
X3758D02*
D03*
X4012D02*
D03*
X2514Y1400D02*
D03*
X2768D02*
D03*
X3022D02*
D03*
X3276D02*
D03*
X3530D02*
D03*
X3784D02*
D03*
X4038D02*
D03*
X4292D02*
D03*
X4546D02*
D03*
X2260D02*
D03*
X2006D02*
D03*
D51*
X6100Y7150D02*
D03*
D52*
Y6450D02*
D03*
D53*
X6350Y7050D02*
D03*
Y6550D02*
D03*
D54*
X4373Y7250D02*
D03*
Y6500D02*
D03*
X4627Y5750D02*
D03*
D55*
Y7250D02*
D03*
Y6500D02*
D03*
X4373Y5750D02*
D03*
D56*
X1500Y7500D02*
D03*
Y500D02*
D03*
X4266D02*
D03*
X4800Y1400D02*
D03*
D57*
X6125Y3075D02*
D03*
Y3652D02*
D03*
D58*
X5175Y1054D02*
D03*
D59*
X6350Y5500D02*
D03*
Y5300D02*
D03*
D60*
Y5100D02*
D03*
D61*
Y4890D02*
D03*
Y5710D02*
D03*
D62*
X3300Y7425D02*
D03*
X1200D02*
D03*
X3300Y5250D02*
D03*
X1200D02*
D03*
X5500Y3000D02*
D03*
Y8100D02*
D03*
X1100D02*
D03*
Y3000D02*
D03*
X6100Y2250D02*
D03*
X500D02*
D03*
X6100Y8000D02*
D03*
X500D02*
D03*
M02*
