G04*
G04 #@! TF.GenerationSoftware,Altium Limited,Altium Designer,23.0.1 (38)*
G04*
G04 Layer_Color=32896*
%FSLAX42Y42*%
%MOMM*%
G71*
G04*
G04 #@! TF.SameCoordinates,26549080-C4CF-4FC7-94AC-5244C5C1EA83*
G04*
G04*
G04 #@! TF.FilePolarity,Positive*
G04*
G01*
G75*
%ADD10C,0.25*%
%ADD13C,0.20*%
%ADD14C,0.12*%
D10*
X1675Y950D02*
X1825D01*
Y1025D01*
X1800Y1050D01*
X1750D01*
X1725Y1025D01*
Y950D01*
Y1000D02*
X1675Y1050D01*
X1825Y1200D02*
Y1100D01*
X1750D01*
Y1150D01*
Y1100D01*
X1675D01*
X1825Y1400D02*
X1675D01*
Y1475D01*
X1700Y1500D01*
X1725D01*
X1750D01*
X1775Y1475D01*
Y1400D01*
X1675Y1550D02*
Y1600D01*
Y1575D01*
X1825D01*
Y1550D01*
X1675Y1700D02*
Y1750D01*
X1700Y1775D01*
X1750D01*
X1775Y1750D01*
Y1700D01*
X1750Y1675D01*
X1700D01*
X1675Y1700D01*
X1775Y1925D02*
Y1850D01*
X1750Y1825D01*
X1700D01*
X1675Y1850D01*
Y1925D01*
Y1975D02*
X1825D01*
X1725D02*
X1775Y2050D01*
X1725Y1975D02*
X1675Y2050D01*
X5175Y1250D02*
Y1350D01*
X5225Y1300D02*
X5125D01*
D13*
X4245Y770D02*
X4345D01*
Y820D01*
X4328Y837D01*
X4295D01*
X4278Y820D01*
Y770D01*
Y803D02*
X4245Y837D01*
X4345Y937D02*
Y870D01*
X4245D01*
Y937D01*
X4295Y870D02*
Y903D01*
X4328Y1037D02*
X4345Y1020D01*
Y987D01*
X4328Y970D01*
X4312D01*
X4295Y987D01*
Y1020D01*
X4278Y1037D01*
X4262D01*
X4245Y1020D01*
Y987D01*
X4262Y970D01*
X4345Y1137D02*
Y1070D01*
X4245D01*
Y1137D01*
X4295Y1070D02*
Y1103D01*
X4345Y1170D02*
Y1237D01*
Y1203D01*
X4245D01*
X3070Y970D02*
Y1003D01*
Y987D01*
X2970D01*
Y970D01*
Y1003D01*
Y1053D02*
X3070D01*
X2970Y1120D01*
X3070D01*
Y1153D02*
Y1220D01*
Y1187D01*
X2970D01*
X3220Y895D02*
X3320D01*
X3287Y928D01*
X3320Y962D01*
X3220D01*
X3320Y1045D02*
Y1012D01*
X3303Y995D01*
X3237D01*
X3220Y1012D01*
Y1045D01*
X3237Y1062D01*
X3303D01*
X3320Y1045D01*
X3303Y1162D02*
X3320Y1145D01*
Y1112D01*
X3303Y1095D01*
X3287D01*
X3270Y1112D01*
Y1145D01*
X3253Y1162D01*
X3237D01*
X3220Y1145D01*
Y1112D01*
X3237Y1095D01*
X3320Y1195D02*
Y1228D01*
Y1212D01*
X3220D01*
Y1195D01*
Y1228D01*
X3470Y895D02*
X3570D01*
X3537Y928D01*
X3570Y962D01*
X3470D01*
X3570Y995D02*
Y1028D01*
Y1012D01*
X3470D01*
Y995D01*
Y1028D01*
X3553Y1145D02*
X3570Y1128D01*
Y1095D01*
X3553Y1078D01*
X3537D01*
X3520Y1095D01*
Y1128D01*
X3503Y1145D01*
X3487D01*
X3470Y1128D01*
Y1095D01*
X3487Y1078D01*
X3570Y1228D02*
Y1195D01*
X3553Y1178D01*
X3487D01*
X3470Y1195D01*
Y1228D01*
X3487Y1245D01*
X3553D01*
X3570Y1228D01*
X3803Y1037D02*
X3820Y1020D01*
Y987D01*
X3803Y970D01*
X3787D01*
X3770Y987D01*
Y1020D01*
X3753Y1037D01*
X3737D01*
X3720Y1020D01*
Y987D01*
X3737Y970D01*
X3803Y1137D02*
X3820Y1120D01*
Y1087D01*
X3803Y1070D01*
X3737D01*
X3720Y1087D01*
Y1120D01*
X3737Y1137D01*
X3820Y1170D02*
X3720D01*
X3753D01*
X3820Y1237D01*
X3770Y1187D01*
X3720Y1237D01*
X3995Y970D02*
X4095D01*
X3995Y1037D01*
X4095D01*
X4078Y1137D02*
X4095Y1120D01*
Y1087D01*
X4078Y1070D01*
X4062D01*
X4045Y1087D01*
Y1120D01*
X4028Y1137D01*
X4012D01*
X3995Y1120D01*
Y1087D01*
X4012Y1070D01*
X4078Y1237D02*
X4095Y1220D01*
Y1187D01*
X4078Y1170D01*
X4062D01*
X4045Y1187D01*
Y1220D01*
X4028Y1237D01*
X4012D01*
X3995Y1220D01*
Y1187D01*
X4012Y1170D01*
X4595Y870D02*
X4495D01*
Y920D01*
X4512Y937D01*
X4528D01*
X4545Y920D01*
Y870D01*
Y920D01*
X4562Y937D01*
X4578D01*
X4595Y920D01*
Y870D01*
Y970D02*
X4512D01*
X4495Y987D01*
Y1020D01*
X4512Y1037D01*
X4595D01*
X4578Y1137D02*
X4595Y1120D01*
Y1087D01*
X4578Y1070D01*
X4562D01*
X4545Y1087D01*
Y1120D01*
X4528Y1137D01*
X4512D01*
X4495Y1120D01*
Y1087D01*
X4512Y1070D01*
X4595Y1170D02*
X4578D01*
X4545Y1203D01*
X4578Y1237D01*
X4595D01*
X4545Y1203D02*
X4495D01*
X4828Y1037D02*
X4845Y1020D01*
Y987D01*
X4828Y970D01*
X4762D01*
X4745Y987D01*
Y1020D01*
X4762Y1037D01*
X4795D01*
Y1003D01*
X4745Y1070D02*
X4845D01*
X4745Y1137D01*
X4845D01*
Y1170D02*
X4745D01*
Y1220D01*
X4762Y1237D01*
X4828D01*
X4845Y1220D01*
Y1170D01*
X2028Y1037D02*
X2045Y1020D01*
Y987D01*
X2028Y970D01*
X1962D01*
X1945Y987D01*
Y1020D01*
X1962Y1037D01*
X1995D01*
Y1003D01*
X1945Y1070D02*
X2045D01*
X1945Y1137D01*
X2045D01*
Y1170D02*
X1945D01*
Y1220D01*
X1962Y1237D01*
X2028D01*
X2045Y1220D01*
Y1170D01*
X2270Y770D02*
Y837D01*
X2303Y803D02*
X2237D01*
X2320Y870D02*
X2253D01*
X2220Y903D01*
X2253Y937D01*
X2320D01*
Y970D02*
X2220D01*
Y1020D01*
X2237Y1037D01*
X2253D01*
X2270Y1020D01*
Y970D01*
Y1020D01*
X2287Y1037D01*
X2303D01*
X2320Y1020D01*
Y970D01*
X2220Y1070D02*
X2287D01*
X2320Y1103D01*
X2287Y1137D01*
X2220D01*
X2270D01*
Y1070D01*
X2320Y1170D02*
Y1237D01*
Y1203D01*
X2220D01*
X2520Y870D02*
Y937D01*
X2553Y903D02*
X2487D01*
X2553Y970D02*
X2570Y987D01*
Y1020D01*
X2553Y1037D01*
X2537D01*
X2520Y1020D01*
Y1003D01*
Y1020D01*
X2503Y1037D01*
X2487D01*
X2470Y1020D01*
Y987D01*
X2487Y970D01*
X2570Y1070D02*
X2503D01*
X2470Y1103D01*
X2503Y1137D01*
X2570D01*
X2553Y1170D02*
X2570Y1187D01*
Y1220D01*
X2553Y1237D01*
X2537D01*
X2520Y1220D01*
Y1203D01*
Y1220D01*
X2503Y1237D01*
X2487D01*
X2470Y1220D01*
Y1187D01*
X2487Y1170D01*
X2695Y870D02*
X2795D01*
Y920D01*
X2778Y937D01*
X2745D01*
X2728Y920D01*
Y870D01*
Y903D02*
X2695Y937D01*
X2795Y1037D02*
Y970D01*
X2745D01*
Y1003D01*
Y970D01*
X2695D01*
X2795Y1137D02*
Y1070D01*
X2695D01*
Y1137D01*
X2745Y1070D02*
Y1103D01*
X2695Y1170D02*
X2795D01*
X2695Y1237D01*
X2795D01*
D14*
X1890Y1273D02*
X4904D01*
X1890D02*
Y1527D01*
X4904D01*
Y1273D02*
Y1527D01*
X3457Y1864D02*
X3484D01*
X3470D01*
Y1797D01*
X3484Y1784D01*
X3497D01*
X3510Y1797D01*
X3430Y1784D02*
Y1864D01*
X3390D01*
X3377Y1850D01*
Y1824D01*
X3390Y1810D01*
X3430D01*
X3297Y1864D02*
X3324Y1850D01*
X3350Y1824D01*
Y1797D01*
X3337Y1784D01*
X3310D01*
X3297Y1797D01*
Y1810D01*
X3310Y1824D01*
X3350D01*
M02*
