M48
;Layer_Color=9474304
;FILE_FORMAT=4:2
METRIC,LZ
;TYPE=PLATED
T1F00S00C0.30
T2F00S00C0.80
T3F00S00C0.90
T4F00S00C1.00
T6F00S00C1.06
T7F00S00C1.14
T8F00S00C1.40
T9F00S00C2.60
;TYPE=NON_PLATED
T10F00S00C0.75
%
T01
X000551Y000526
Y001526
X00138Y001512
X001303Y00138
X00132Y001825
X001703Y00223
X001878Y00208
X002301Y002026
X002375Y002375
X00265
Y002475
X002417Y002823
Y002973
Y003123
X002301Y003026
X001801
X000801
X000978Y002505
X00115Y002475
X000551Y002526
X002892Y002848
Y002998
X002801Y002026
X002301Y001026
X001801
X002051Y000526
X004551
X005051
X005551
X006051
X006301Y001026
X005801
X006051Y001526
X005551
X005801Y002026
X006301
X006051Y002526
X005551
X005801Y003026
X006301
X005301Y002026
X004801
X004551Y002526
X004217Y002523
X004388Y002774
X004125Y003025
X004117Y003173
X00385Y003038
X00375Y003038
X003638Y002776
X003657Y002618
X003544Y002506
X003301Y002026
X003675Y0032
X0037Y003325
X003643Y003382
X003654Y003461
X003942Y003473
X0042Y003425
X00415Y003575
X004295Y00375
X004358Y003867
X00435Y00405
X004267Y004123
X004178Y00418
X004303Y004505
X004453Y00438
X004553
X004653
X004553Y004255
X004642Y003948
X004917Y003923
X005003Y00423
X005103
X005203
X005103Y004355
X005175Y003775
X005051Y003526
X004717Y003548
X005517
Y003298
X00615Y00325
X0062Y003325
X00615Y003401
X0062Y003475
X005828Y00368
X0058Y004
X005603Y003905
X005767Y004523
X005801Y005026
Y006026
X006301
X005301
X004801
X005051Y006526
X005551
X005801Y007026
X005301
X004801
X004301
X003801
X003301
X003551Y006526
X0039Y0065
X003301Y006026
X003551Y005526
X003301Y005026
X003325Y004188
X003425
X003631Y004256
X003642Y004048
X003724Y004099
X003792Y00403
X004378Y00473
X004301Y005026
X00465Y00485
X005051Y005526
X002801Y005026
X002301
X002551Y004526
X002051
X001801Y004026
X001301
X000801
X0008Y004188
X000801Y005026
X001301
X001551Y005526
X001051
X000551
X000801Y006026
X001301
X001551Y006526
X001051
X000551
X000801Y007026
X001301
X001551Y003526
X001051
X002417Y003523
Y003698
X003117Y003723
X003142Y003998
X003067Y003198
X002867Y003323
X002801Y008026
X002301
X001801
X000801
X000551Y007526
X003551
X004051
X003925Y00725
X003801Y008026
X004301
X004801
X005051Y007526
X005551
X006051
X005801Y008026
X004551Y007526
X003301Y008026
T02
X00635Y0051
Y0053
Y0055
T03
X004627Y00575
X004373Y0065
Y00725
T04
X004373Y00575
X004627Y0065
X00635Y00655
Y00705
X004627Y00725
T06
X005175Y0008
Y001054
X001475Y004575
X001221
T07
X000738Y0005
X000992
X001246
X0015
X002488
X002742
X002996
X003022Y0014
X002768
X002514
X00226
X002006
X0005Y002976
X003276Y0014
X00353
X003784
X004038
X004292
X004546
X0048
X004266Y0005
X004012
X003758
X003504
X00325
X0005Y00323
Y003484
Y003738
Y003992
Y004246
Y0045
X0015Y0075
X001754
X002008
X002262
X002516
X00277
X003024
T08
X0061Y00645
Y00715
T09
X0005Y00225
X0011Y003
X0055
X0061Y00225
X0033Y00525
X0012
Y007425
X0011Y0081
X0005Y008
X0033Y007425
X0055Y0081
X0061Y008
T10
X006125Y003075
Y003652
M30
