G04*
G04 #@! TF.GenerationSoftware,Altium Limited,Altium Designer,23.0.1 (38)*
G04*
G04 Layer_Color=65535*
%FSLAX42Y42*%
%MOMM*%
G71*
G04*
G04 #@! TF.SameCoordinates,26549080-C4CF-4FC7-94AC-5244C5C1EA83*
G04*
G04*
G04 #@! TF.FilePolarity,Positive*
G04*
G01*
G75*
%ADD10C,0.25*%
%ADD11C,0.60*%
%ADD12C,0.25*%
%ADD13C,0.20*%
%ADD14C,0.12*%
D10*
X4366Y7138D02*
G03*
X4630Y7133I134J112D01*
G01*
X4634Y7362D02*
G03*
X4370Y7367I-134J-112D01*
G01*
X4366Y6388D02*
G03*
X4630Y6383I134J112D01*
G01*
X4634Y6612D02*
G03*
X4370Y6617I-134J-112D01*
G01*
X4634Y5862D02*
G03*
X4370Y5867I-134J-112D01*
G01*
X4366Y5638D02*
G03*
X4630Y5633I134J112D01*
G01*
X4339Y7579D02*
Y7450D01*
X4275Y7514D02*
X4404D01*
X4314Y6854D02*
Y6725D01*
X4250Y6789D02*
X4379D01*
X4686Y5396D02*
Y5525D01*
X4750Y5461D02*
X4621D01*
X5175Y1250D02*
Y1350D01*
X5125Y1300D02*
X5225D01*
X2600Y2275D02*
Y2425D01*
X2650Y2375D01*
X2700Y2425D01*
Y2275D01*
X2850Y2425D02*
X2800Y2400D01*
X2750Y2350D01*
Y2300D01*
X2775Y2275D01*
X2825D01*
X2850Y2300D01*
Y2325D01*
X2825Y2350D01*
X2750D01*
X3000Y2425D02*
X2950Y2400D01*
X2900Y2350D01*
Y2300D01*
X2925Y2275D01*
X2975D01*
X3000Y2300D01*
Y2325D01*
X2975Y2350D01*
X2900D01*
X3150Y2425D02*
X3050D01*
Y2350D01*
X3100Y2375D01*
X3125D01*
X3150Y2350D01*
Y2300D01*
X3125Y2275D01*
X3075D01*
X3050Y2300D01*
X3350Y2425D02*
Y2275D01*
X3425D01*
X3450Y2300D01*
Y2325D01*
Y2350D01*
X3425Y2375D01*
X3350D01*
X3525D02*
X3575D01*
X3600Y2350D01*
Y2275D01*
X3525D01*
X3500Y2300D01*
X3525Y2325D01*
X3600D01*
X3650Y2275D02*
X3725D01*
X3750Y2300D01*
X3725Y2325D01*
X3675D01*
X3650Y2350D01*
X3675Y2375D01*
X3750D01*
X3875Y2275D02*
X3825D01*
X3800Y2300D01*
Y2350D01*
X3825Y2375D01*
X3875D01*
X3900Y2350D01*
Y2325D01*
X3800D01*
X4100Y2425D02*
Y2275D01*
X4175D01*
X4200Y2300D01*
Y2325D01*
Y2350D01*
X4175Y2375D01*
X4100D01*
X4275Y2275D02*
X4325D01*
X4350Y2300D01*
Y2350D01*
X4325Y2375D01*
X4275D01*
X4250Y2350D01*
Y2300D01*
X4275Y2275D01*
X4425Y2375D02*
X4475D01*
X4500Y2350D01*
Y2275D01*
X4425D01*
X4400Y2300D01*
X4425Y2325D01*
X4500D01*
X4550Y2375D02*
Y2275D01*
Y2325D01*
X4575Y2350D01*
X4600Y2375D01*
X4625D01*
X4800Y2425D02*
Y2275D01*
X4725D01*
X4700Y2300D01*
Y2350D01*
X4725Y2375D01*
X4800D01*
X2625Y1900D02*
X2575Y1950D01*
Y2000D01*
X2625Y2050D01*
X2800Y2000D02*
X2725D01*
X2700Y1975D01*
Y1925D01*
X2725Y1900D01*
X2800D01*
X2850D02*
X2900Y1950D01*
Y2000D01*
X2850Y2050D01*
X3225Y2025D02*
X3200Y2050D01*
X3150D01*
X3125Y2025D01*
Y1925D01*
X3150Y1900D01*
X3200D01*
X3225Y1925D01*
Y1975D01*
X3175D01*
X3275Y2050D02*
Y1900D01*
X3350D01*
X3375Y1925D01*
Y1950D01*
X3350Y1975D01*
X3275D01*
X3350D01*
X3375Y2000D01*
Y2025D01*
X3350Y2050D01*
X3275D01*
X3425D02*
Y1900D01*
X3525D01*
X3825D02*
X3725D01*
X3825Y2000D01*
Y2025D01*
X3800Y2050D01*
X3750D01*
X3725Y2025D01*
X3875D02*
X3900Y2050D01*
X3950D01*
X3975Y2025D01*
Y1925D01*
X3950Y1900D01*
X3900D01*
X3875Y1925D01*
Y2025D01*
X4125Y1900D02*
X4025D01*
X4125Y2000D01*
Y2025D01*
X4100Y2050D01*
X4050D01*
X4025Y2025D01*
X4275Y2050D02*
X4175D01*
Y1975D01*
X4225Y2000D01*
X4250D01*
X4275Y1975D01*
Y1925D01*
X4250Y1900D01*
X4200D01*
X4175Y1925D01*
D11*
X3745Y3535D02*
G03*
X3745Y3535I-30J0D01*
G01*
X1515Y1750D02*
G03*
X1515Y1750I-30J0D01*
G01*
D12*
X3515Y3670D02*
G03*
X3515Y3670I-12J0D01*
G01*
X1710Y1625D02*
G03*
X1710Y1625I-12J0D01*
G01*
D13*
X5695Y4320D02*
X5775D01*
Y4220D02*
Y4320D01*
X5475D02*
X5555D01*
X5475Y4220D02*
Y4320D01*
X5912Y4195D02*
Y4205D01*
X5838Y4195D02*
Y4205D01*
X5912Y4445D02*
Y4455D01*
X5838Y4445D02*
Y4455D01*
X6250Y6430D02*
X6600D01*
X6625Y6925D02*
X6760D01*
Y6675D02*
Y6925D01*
X6625Y6675D02*
X6760D01*
X6250Y7170D02*
X6600D01*
X6240Y6430D02*
Y7170D01*
X6610Y6430D02*
Y7170D01*
X4445Y5512D02*
X4455D01*
X4445Y5438D02*
X4455D01*
X4095Y6462D02*
X4105D01*
X4095Y6538D02*
X4105D01*
X4095Y7212D02*
X4105D01*
X4095Y7288D02*
X4105D01*
X545Y4662D02*
X555D01*
X545Y4738D02*
X555D01*
X1395Y4812D02*
X1405D01*
X1395Y4738D02*
X1405D01*
X3215Y3091D02*
X3235D01*
X3215Y3009D02*
X3235D01*
X3615Y3015D02*
X4235D01*
X3615Y3635D02*
X4235D01*
Y3015D02*
Y3635D01*
X3615Y3015D02*
Y3635D01*
X4695Y4340D02*
Y4400D01*
X4395Y4340D02*
Y4400D01*
X4695D01*
X4395Y4340D02*
X4695D01*
X4570Y3512D02*
X4580D01*
X4570Y3588D02*
X4580D01*
X4570Y3812D02*
X4580D01*
X4570Y3888D02*
X4580D01*
X4950Y4255D02*
X5250D01*
X4950Y4195D02*
X5250D01*
Y4255D01*
X4950Y4195D02*
Y4255D01*
X5038Y4545D02*
Y4555D01*
X4962Y4545D02*
Y4555D01*
X5388Y4170D02*
Y4180D01*
X5312Y4170D02*
Y4180D01*
X5595Y3938D02*
X5605D01*
X5595Y4012D02*
X5605D01*
X5670Y3512D02*
X5680D01*
X5670Y3588D02*
X5680D01*
X5670Y3262D02*
X5680D01*
X5670Y3338D02*
X5680D01*
X5881Y3813D02*
X5971D01*
X5881Y2914D02*
X5971D01*
X5881D02*
Y3813D01*
X6750Y2914D02*
Y3813D01*
X6171Y2914D02*
X6401D01*
X6171Y3813D02*
X6401D01*
X6581Y2914D02*
X6750D01*
X6581Y3813D02*
X6750D01*
X938Y1820D02*
Y1830D01*
X1012Y1820D02*
Y1830D01*
Y2345D02*
Y2355D01*
X938Y2345D02*
Y2355D01*
X1112Y2295D02*
Y2305D01*
X1188Y2295D02*
Y2305D01*
X1288Y2295D02*
Y2305D01*
X1362Y2295D02*
Y2305D01*
X1512Y2295D02*
Y2305D01*
X1438Y2295D02*
Y2305D01*
X6585Y4760D02*
Y5840D01*
X6110Y5840D02*
X6585Y5840D01*
X6110Y4760D02*
Y5840D01*
Y4760D02*
X6585D01*
X1265Y2150D02*
X1585D01*
X1265Y1650D02*
X1585D01*
X1265D02*
Y2150D01*
X1585Y1650D02*
Y2150D01*
X2475Y3310D02*
X2525D01*
X2475Y3260D02*
Y3310D01*
X4317Y659D02*
X4217D01*
Y709D01*
X4234Y725D01*
X4267D01*
X4284Y709D01*
Y659D01*
Y692D02*
X4317Y725D01*
X4234Y759D02*
X4217Y775D01*
Y809D01*
X4234Y825D01*
X4301D01*
X4317Y809D01*
Y775D01*
X4301Y759D01*
X4234D01*
X4067Y659D02*
X3967D01*
Y709D01*
X3984Y725D01*
X4017D01*
X4034Y709D01*
Y659D01*
Y692D02*
X4067Y725D01*
Y759D02*
Y792D01*
Y775D01*
X3967D01*
X3984Y759D01*
X3817Y659D02*
X3717D01*
Y709D01*
X3734Y725D01*
X3767D01*
X3784Y709D01*
Y659D01*
Y692D02*
X3817Y725D01*
Y825D02*
Y759D01*
X3751Y825D01*
X3734D01*
X3717Y809D01*
Y775D01*
X3734Y759D01*
X3542Y659D02*
X3442D01*
Y709D01*
X3459Y725D01*
X3492D01*
X3509Y709D01*
Y659D01*
Y692D02*
X3542Y725D01*
X3459Y759D02*
X3442Y775D01*
Y809D01*
X3459Y825D01*
X3476D01*
X3492Y809D01*
Y792D01*
Y809D01*
X3509Y825D01*
X3526D01*
X3542Y809D01*
Y775D01*
X3526Y759D01*
X3209Y725D02*
X3192Y709D01*
Y675D01*
X3209Y659D01*
X3276D01*
X3292Y675D01*
Y709D01*
X3276Y725D01*
X3209Y759D02*
X3192Y775D01*
Y809D01*
X3209Y825D01*
X3276D01*
X3292Y809D01*
Y775D01*
X3276Y759D01*
X3209D01*
X2959Y725D02*
X2942Y709D01*
Y675D01*
X2959Y659D01*
X3026D01*
X3042Y675D01*
Y709D01*
X3026Y725D01*
X3042Y759D02*
Y792D01*
Y775D01*
X2942D01*
X2959Y759D01*
X2709Y725D02*
X2692Y709D01*
Y675D01*
X2709Y659D01*
X2776D01*
X2792Y675D01*
Y709D01*
X2776Y725D01*
X2792Y825D02*
Y759D01*
X2726Y825D01*
X2709D01*
X2692Y809D01*
Y775D01*
X2709Y759D01*
X2472Y737D02*
X2455Y720D01*
Y687D01*
X2472Y670D01*
X2538D01*
X2555Y687D01*
Y720D01*
X2538Y737D01*
X2472Y770D02*
X2455Y787D01*
Y820D01*
X2472Y837D01*
X2488D01*
X2505Y820D01*
Y803D01*
Y820D01*
X2522Y837D01*
X2538D01*
X2555Y820D01*
Y787D01*
X2538Y770D01*
X1205Y1095D02*
Y1062D01*
X1222Y1045D01*
X1288D01*
X1305Y1062D01*
Y1095D01*
X1288Y1112D01*
X1222D01*
X1205Y1095D01*
Y1145D02*
X1288D01*
X1305Y1162D01*
Y1195D01*
X1288Y1212D01*
X1205D01*
Y1245D02*
Y1312D01*
Y1278D01*
X1305D01*
X955Y1045D02*
Y1078D01*
Y1062D01*
X1055D01*
Y1045D01*
Y1078D01*
Y1128D02*
X955D01*
X1055Y1195D01*
X955D01*
X1472Y1112D02*
X1455Y1095D01*
Y1062D01*
X1472Y1045D01*
X1538D01*
X1555Y1062D01*
Y1095D01*
X1538Y1112D01*
X1505D01*
Y1078D01*
X1555Y1145D02*
X1455D01*
X1555Y1212D01*
X1455D01*
Y1245D02*
X1555D01*
Y1295D01*
X1538Y1312D01*
X1472D01*
X1455Y1295D01*
Y1245D01*
X680Y1045D02*
X747D01*
X780Y1078D01*
X747Y1112D01*
X680D01*
X697Y1212D02*
X680Y1195D01*
Y1162D01*
X697Y1145D01*
X763D01*
X780Y1162D01*
Y1195D01*
X763Y1212D01*
X697Y1312D02*
X680Y1295D01*
Y1262D01*
X697Y1245D01*
X763D01*
X780Y1262D01*
Y1295D01*
X763Y1312D01*
X680Y2870D02*
X747D01*
X780Y2903D01*
X747Y2937D01*
X680D01*
X697Y3037D02*
X680Y3020D01*
Y2987D01*
X697Y2970D01*
X763D01*
X780Y2987D01*
Y3020D01*
X763Y3037D01*
X697Y3137D02*
X680Y3120D01*
Y3087D01*
X697Y3070D01*
X763D01*
X780Y3087D01*
Y3120D01*
X763Y3137D01*
X1645Y4595D02*
Y4495D01*
X1695D01*
X1712Y4512D01*
Y4528D01*
X1695Y4545D01*
X1645D01*
X1695D01*
X1712Y4562D01*
Y4578D01*
X1695Y4595D01*
X1645D01*
X1795D02*
X1762D01*
X1745Y4578D01*
Y4512D01*
X1762Y4495D01*
X1795D01*
X1812Y4512D01*
Y4578D01*
X1795Y4595D01*
X1895D02*
X1862D01*
X1845Y4578D01*
Y4512D01*
X1862Y4495D01*
X1895D01*
X1912Y4512D01*
Y4578D01*
X1895Y4595D01*
X1945D02*
X2012D01*
X1978D01*
Y4495D01*
X670Y3295D02*
X737D01*
X703D01*
Y3195D01*
X770Y3295D02*
X837Y3195D01*
Y3295D02*
X770Y3195D01*
X870Y3295D02*
Y3195D01*
X920D01*
X937Y3212D01*
Y3278D01*
X920Y3295D01*
X870D01*
X670Y3420D02*
Y3520D01*
X720D01*
X737Y3503D01*
Y3470D01*
X720Y3453D01*
X670D01*
X703D02*
X737Y3420D01*
X770Y3520D02*
X837Y3420D01*
Y3520D02*
X770Y3420D01*
X870Y3520D02*
Y3420D01*
X920D01*
X937Y3437D01*
Y3503D01*
X920Y3520D01*
X870D01*
X737Y3753D02*
X720Y3770D01*
X687D01*
X670Y3753D01*
Y3687D01*
X687Y3670D01*
X720D01*
X737Y3687D01*
Y3720D01*
X703D01*
X770Y3670D02*
Y3770D01*
X837Y3670D01*
Y3770D01*
X870D02*
Y3670D01*
X920D01*
X937Y3687D01*
Y3753D01*
X920Y3770D01*
X870D01*
X737Y4028D02*
X720Y4045D01*
X687D01*
X670Y4028D01*
Y4012D01*
X687Y3995D01*
X720D01*
X737Y3978D01*
Y3962D01*
X720Y3945D01*
X687D01*
X670Y3962D01*
X770Y4045D02*
Y3945D01*
X803Y3978D01*
X837Y3945D01*
Y4045D01*
X870D02*
Y3945D01*
X920D01*
X937Y3962D01*
Y4028D01*
X920Y4045D01*
X870D01*
X970D02*
X1003D01*
X987D01*
Y3945D01*
X970D01*
X1003D01*
X1103Y4045D02*
X1070D01*
X1053Y4028D01*
Y3962D01*
X1070Y3945D01*
X1103D01*
X1120Y3962D01*
Y4028D01*
X1103Y4045D01*
X737Y4278D02*
X720Y4295D01*
X687D01*
X670Y4278D01*
Y4262D01*
X687Y4245D01*
X720D01*
X737Y4228D01*
Y4212D01*
X720Y4195D01*
X687D01*
X670Y4212D01*
X770Y4295D02*
Y4195D01*
X803Y4228D01*
X837Y4195D01*
Y4295D01*
X937Y4278D02*
X920Y4295D01*
X887D01*
X870Y4278D01*
Y4212D01*
X887Y4195D01*
X920D01*
X937Y4212D01*
X970Y4295D02*
Y4195D01*
X1037D01*
X1070Y4295D02*
Y4195D01*
Y4228D01*
X1137Y4295D01*
X1087Y4245D01*
X1137Y4195D01*
X670Y4420D02*
Y4520D01*
X720D01*
X737Y4503D01*
Y4470D01*
X720Y4453D01*
X670D01*
X703D02*
X737Y4420D01*
X837Y4503D02*
X820Y4520D01*
X787D01*
X770Y4503D01*
Y4487D01*
X787Y4470D01*
X820D01*
X837Y4453D01*
Y4437D01*
X820Y4420D01*
X787D01*
X770Y4437D01*
X870Y4520D02*
X937D01*
X903D01*
Y4420D01*
D14*
X1094Y4448D02*
X1602D01*
Y4702D01*
X1094D02*
X1602D01*
X1094Y4448D02*
Y4702D01*
X373Y4604D02*
X627D01*
Y2872D02*
Y4604D01*
X373Y2872D02*
X627D01*
X373D02*
Y4604D01*
X1396Y7373D02*
X3128D01*
Y7627D01*
X1396D02*
X3128D01*
X1396Y7373D02*
Y7627D01*
X2985Y3375D02*
Y3775D01*
X2765D02*
X2985D01*
X2765Y3375D02*
Y3775D01*
Y3375D02*
X2985D01*
X5048Y673D02*
Y1181D01*
Y673D02*
X5302D01*
Y1181D01*
X5048D02*
X5302D01*
X634Y627D02*
X1604D01*
X634Y373D02*
Y627D01*
Y373D02*
X1604D01*
Y627D01*
X2384D02*
X4370D01*
X2384Y373D02*
Y627D01*
Y373D02*
X4370D01*
Y627D01*
X6165Y5980D02*
X6151Y5994D01*
X6125D01*
X6111Y5980D01*
Y5967D01*
X6125Y5954D01*
X6151D01*
X6165Y5940D01*
Y5927D01*
X6151Y5914D01*
X6125D01*
X6111Y5927D01*
X6245Y5914D02*
X6191D01*
X6245Y5967D01*
Y5980D01*
X6231Y5994D01*
X6205D01*
X6191Y5980D01*
X1633Y2265D02*
Y2198D01*
X1647Y2185D01*
X1673D01*
X1687Y2198D01*
Y2265D01*
X1753Y2185D02*
Y2265D01*
X1713Y2225D01*
X1767D01*
X865Y1725D02*
X785D01*
Y1765D01*
X798Y1778D01*
X825D01*
X838Y1765D01*
Y1725D01*
Y1752D02*
X865Y1778D01*
Y1805D02*
Y1832D01*
Y1818D01*
X785D01*
X798Y1805D01*
X852Y1872D02*
X865Y1885D01*
Y1912D01*
X852Y1925D01*
X798D01*
X785Y1912D01*
Y1885D01*
X798Y1872D01*
X812D01*
X825Y1885D01*
Y1925D01*
X1190Y2450D02*
X1110D01*
Y2490D01*
X1123Y2503D01*
X1150D01*
X1163Y2490D01*
Y2450D01*
Y2477D02*
X1190Y2503D01*
Y2530D02*
Y2557D01*
Y2543D01*
X1110D01*
X1123Y2530D01*
Y2597D02*
X1110Y2610D01*
Y2637D01*
X1123Y2650D01*
X1137D01*
X1150Y2637D01*
X1163Y2650D01*
X1177D01*
X1190Y2637D01*
Y2610D01*
X1177Y2597D01*
X1163D01*
X1150Y2610D01*
X1137Y2597D01*
X1123D01*
X1150Y2610D02*
Y2637D01*
X1365Y2450D02*
X1285D01*
Y2490D01*
X1298Y2503D01*
X1325D01*
X1338Y2490D01*
Y2450D01*
Y2477D02*
X1365Y2503D01*
Y2530D02*
Y2557D01*
Y2543D01*
X1285D01*
X1298Y2530D01*
X1285Y2597D02*
Y2650D01*
X1298D01*
X1352Y2597D01*
X1365D01*
X1515Y2450D02*
X1435D01*
Y2490D01*
X1448Y2503D01*
X1475D01*
X1488Y2490D01*
Y2450D01*
Y2477D02*
X1515Y2503D01*
Y2530D02*
Y2557D01*
Y2543D01*
X1435D01*
X1448Y2530D01*
X1435Y2650D02*
X1448Y2623D01*
X1475Y2597D01*
X1502D01*
X1515Y2610D01*
Y2637D01*
X1502Y2650D01*
X1488D01*
X1475Y2637D01*
Y2597D01*
X1015Y2500D02*
X935D01*
Y2540D01*
X948Y2553D01*
X975D01*
X988Y2540D01*
Y2500D01*
Y2527D02*
X1015Y2553D01*
Y2580D02*
Y2607D01*
Y2593D01*
X935D01*
X948Y2580D01*
X935Y2700D02*
Y2647D01*
X975D01*
X962Y2673D01*
Y2687D01*
X975Y2700D01*
X1002D01*
X1015Y2687D01*
Y2660D01*
X1002Y2647D01*
X1072Y315D02*
X1045D01*
X1058D01*
Y248D01*
X1045Y235D01*
X1032D01*
X1018Y248D01*
X1098Y235D02*
Y315D01*
X1138D01*
X1152Y302D01*
Y275D01*
X1138Y262D01*
X1098D01*
X1178Y315D02*
X1232D01*
Y302D01*
X1178Y248D01*
Y235D01*
X1673Y1128D02*
X1660Y1115D01*
Y1088D01*
X1673Y1075D01*
X1727D01*
X1740Y1088D01*
Y1115D01*
X1727Y1128D01*
X1740Y1155D02*
Y1182D01*
Y1168D01*
X1660D01*
X1673Y1155D01*
X1727Y1222D02*
X1740Y1235D01*
Y1262D01*
X1727Y1275D01*
X1673D01*
X1660Y1262D01*
Y1235D01*
X1673Y1222D01*
X1687D01*
X1700Y1235D01*
Y1275D01*
X903Y1552D02*
X890Y1565D01*
X863D01*
X850Y1552D01*
Y1498D01*
X863Y1485D01*
X890D01*
X903Y1498D01*
X930Y1485D02*
X957D01*
X943D01*
Y1565D01*
X930Y1552D01*
X997D02*
X1010Y1565D01*
X1037D01*
X1050Y1552D01*
Y1538D01*
X1037Y1525D01*
X1050Y1512D01*
Y1498D01*
X1037Y1485D01*
X1010D01*
X997Y1498D01*
Y1512D01*
X1010Y1525D01*
X997Y1538D01*
Y1552D01*
X1010Y1525D02*
X1037D01*
X798Y2053D02*
X785Y2040D01*
Y2013D01*
X798Y2000D01*
X852D01*
X865Y2013D01*
Y2040D01*
X852Y2053D01*
X865Y2080D02*
Y2107D01*
Y2093D01*
X785D01*
X798Y2080D01*
X785Y2147D02*
Y2200D01*
X798D01*
X852Y2147D01*
X865D01*
X1256Y1407D02*
X1243Y1420D01*
X1216D01*
X1203Y1407D01*
Y1353D01*
X1216Y1340D01*
X1243D01*
X1256Y1353D01*
X1283Y1340D02*
X1309D01*
X1296D01*
Y1420D01*
X1283Y1407D01*
X1403Y1420D02*
X1376Y1407D01*
X1349Y1380D01*
Y1353D01*
X1363Y1340D01*
X1389D01*
X1403Y1353D01*
Y1367D01*
X1389Y1380D01*
X1349D01*
X6075Y6802D02*
X6062Y6815D01*
X6035D01*
X6022Y6802D01*
Y6788D01*
X6035Y6775D01*
X6062D01*
X6075Y6762D01*
Y6748D01*
X6062Y6735D01*
X6035D01*
X6022Y6748D01*
X6102Y6735D02*
X6128D01*
X6115D01*
Y6815D01*
X6102Y6802D01*
X2364Y3163D02*
Y3150D01*
X2391Y3123D01*
X2417Y3150D01*
Y3163D01*
X2391Y3123D02*
Y3083D01*
X2444D02*
X2471D01*
X2457D01*
Y3163D01*
X2444Y3150D01*
X3360Y340D02*
X3333D01*
X3347D01*
Y273D01*
X3333Y260D01*
X3320D01*
X3307Y273D01*
X3387Y260D02*
Y340D01*
X3427D01*
X3440Y327D01*
Y300D01*
X3427Y287D01*
X3387D01*
X3467Y260D02*
X3493D01*
X3480D01*
Y340D01*
X3467Y327D01*
X3033Y3615D02*
Y3602D01*
X3060Y3575D01*
X3087Y3602D01*
Y3615D01*
X3060Y3575D02*
Y3535D01*
X3167D02*
X3113D01*
X3167Y3588D01*
Y3602D01*
X3153Y3615D01*
X3127D01*
X3113Y3602D01*
X4483Y3340D02*
Y3273D01*
X4497Y3260D01*
X4523D01*
X4537Y3273D01*
Y3340D01*
X4563Y3327D02*
X4577Y3340D01*
X4603D01*
X4617Y3327D01*
Y3313D01*
X4603Y3300D01*
X4590D01*
X4603D01*
X4617Y3287D01*
Y3273D01*
X4603Y3260D01*
X4577D01*
X4563Y3273D01*
X4783Y4265D02*
Y4198D01*
X4797Y4185D01*
X4823D01*
X4837Y4198D01*
Y4265D01*
X4917Y4185D02*
X4863D01*
X4917Y4238D01*
Y4252D01*
X4903Y4265D01*
X4877D01*
X4863Y4252D01*
X4722Y4415D02*
Y4348D01*
X4735Y4335D01*
X4762D01*
X4775Y4348D01*
Y4415D01*
X4802Y4335D02*
X4828D01*
X4815D01*
Y4415D01*
X4802Y4402D01*
X6040Y4100D02*
X5960D01*
Y4140D01*
X5973Y4153D01*
X6000D01*
X6013Y4140D01*
Y4100D01*
Y4127D02*
X6040Y4153D01*
Y4180D02*
Y4207D01*
Y4193D01*
X5960D01*
X5973Y4180D01*
X6040Y4287D02*
X5960D01*
X6000Y4247D01*
Y4300D01*
X5390Y4300D02*
X5310D01*
Y4340D01*
X5323Y4353D01*
X5350D01*
X5363Y4340D01*
Y4300D01*
Y4327D02*
X5390Y4353D01*
Y4380D02*
Y4407D01*
Y4393D01*
X5310D01*
X5323Y4380D01*
Y4447D02*
X5310Y4460D01*
Y4487D01*
X5323Y4500D01*
X5337D01*
X5350Y4487D01*
Y4473D01*
Y4487D01*
X5363Y4500D01*
X5377D01*
X5390Y4487D01*
Y4460D01*
X5377Y4447D01*
X5500Y3810D02*
Y3890D01*
X5540D01*
X5553Y3877D01*
Y3850D01*
X5540Y3837D01*
X5500D01*
X5527D02*
X5553Y3810D01*
X5580D02*
X5607D01*
X5593D01*
Y3890D01*
X5580Y3877D01*
X5700Y3810D02*
X5647D01*
X5700Y3863D01*
Y3877D01*
X5687Y3890D01*
X5660D01*
X5647Y3877D01*
X6040Y4363D02*
X5960D01*
Y4403D01*
X5973Y4417D01*
X6000D01*
X6013Y4403D01*
Y4363D01*
Y4390D02*
X6040Y4417D01*
Y4443D02*
Y4470D01*
Y4457D01*
X5960D01*
X5973Y4443D01*
X6040Y4510D02*
Y4537D01*
Y4523D01*
X5960D01*
X5973Y4510D01*
X5040Y4700D02*
X4960D01*
Y4740D01*
X4973Y4753D01*
X5000D01*
X5013Y4740D01*
Y4700D01*
Y4727D02*
X5040Y4753D01*
Y4780D02*
Y4807D01*
Y4793D01*
X4960D01*
X4973Y4780D01*
Y4847D02*
X4960Y4860D01*
Y4887D01*
X4973Y4900D01*
X5027D01*
X5040Y4887D01*
Y4860D01*
X5027Y4847D01*
X4973D01*
X4383Y5285D02*
Y5365D01*
X4423D01*
X4437Y5352D01*
Y5325D01*
X4423Y5312D01*
X4383D01*
X4410D02*
X4437Y5285D01*
X4463Y5298D02*
X4477Y5285D01*
X4503D01*
X4517Y5298D01*
Y5352D01*
X4503Y5365D01*
X4477D01*
X4463Y5352D01*
Y5338D01*
X4477Y5325D01*
X4517D01*
X4708Y3810D02*
Y3890D01*
X4748D01*
X4762Y3877D01*
Y3850D01*
X4748Y3837D01*
X4708D01*
X4735D02*
X4762Y3810D01*
X4788Y3877D02*
X4802Y3890D01*
X4828D01*
X4842Y3877D01*
Y3863D01*
X4828Y3850D01*
X4842Y3837D01*
Y3823D01*
X4828Y3810D01*
X4802D01*
X4788Y3823D01*
Y3837D01*
X4802Y3850D01*
X4788Y3863D01*
Y3877D01*
X4802Y3850D02*
X4828D01*
X4708Y3510D02*
Y3590D01*
X4748D01*
X4762Y3577D01*
Y3550D01*
X4748Y3537D01*
X4708D01*
X4735D02*
X4762Y3510D01*
X4788Y3590D02*
X4842D01*
Y3577D01*
X4788Y3523D01*
Y3510D01*
X1333Y4860D02*
Y4940D01*
X1373D01*
X1387Y4927D01*
Y4900D01*
X1373Y4887D01*
X1333D01*
X1360D02*
X1387Y4860D01*
X1467Y4940D02*
X1440Y4927D01*
X1413Y4900D01*
Y4873D01*
X1427Y4860D01*
X1453D01*
X1467Y4873D01*
Y4887D01*
X1453Y4900D01*
X1413D01*
X708Y4660D02*
Y4740D01*
X748D01*
X762Y4727D01*
Y4700D01*
X748Y4687D01*
X708D01*
X735D02*
X762Y4660D01*
X842Y4740D02*
X788D01*
Y4700D01*
X815Y4713D01*
X828D01*
X842Y4700D01*
Y4673D01*
X828Y4660D01*
X802D01*
X788Y4673D01*
X4033Y6610D02*
Y6690D01*
X4073D01*
X4087Y6677D01*
Y6650D01*
X4073Y6637D01*
X4033D01*
X4060D02*
X4087Y6610D01*
X4153D02*
Y6690D01*
X4113Y6650D01*
X4167D01*
X5383Y3510D02*
Y3590D01*
X5423D01*
X5437Y3577D01*
Y3550D01*
X5423Y3537D01*
X5383D01*
X5410D02*
X5437Y3510D01*
X5463Y3577D02*
X5477Y3590D01*
X5503D01*
X5517Y3577D01*
Y3563D01*
X5503Y3550D01*
X5490D01*
X5503D01*
X5517Y3537D01*
Y3523D01*
X5503Y3510D01*
X5477D01*
X5463Y3523D01*
X4033Y7360D02*
Y7440D01*
X4073D01*
X4087Y7427D01*
Y7400D01*
X4073Y7387D01*
X4033D01*
X4060D02*
X4087Y7360D01*
X4167D02*
X4113D01*
X4167Y7413D01*
Y7427D01*
X4153Y7440D01*
X4127D01*
X4113Y7427D01*
X5397Y3260D02*
Y3340D01*
X5437D01*
X5450Y3327D01*
Y3300D01*
X5437Y3287D01*
X5397D01*
X5423D02*
X5450Y3260D01*
X5477D02*
X5503D01*
X5490D01*
Y3340D01*
X5477Y3327D01*
X5625Y4498D02*
Y4552D01*
X5612Y4565D01*
X5585D01*
X5572Y4552D01*
Y4498D01*
X5585Y4485D01*
X5612D01*
X5598Y4512D02*
X5625Y4485D01*
X5612D02*
X5625Y4498D01*
X5652Y4485D02*
X5678D01*
X5665D01*
Y4565D01*
X5652Y4552D01*
X2322Y4935D02*
Y5015D01*
X2348Y4988D01*
X2375Y5015D01*
Y4935D01*
X2402D02*
X2428D01*
X2415D01*
Y5015D01*
X2402Y5002D01*
X3172Y2965D02*
Y2885D01*
X3225D01*
X3252D02*
X3278D01*
X3265D01*
Y2965D01*
X3252Y2952D01*
X5122Y640D02*
X5095D01*
X5108D01*
Y573D01*
X5095Y560D01*
X5082D01*
X5068Y573D01*
X5148Y560D02*
Y640D01*
X5188D01*
X5202Y627D01*
Y600D01*
X5188Y587D01*
X5148D01*
X5282Y640D02*
X5228D01*
Y600D01*
X5255Y613D01*
X5268D01*
X5282Y600D01*
Y573D01*
X5268Y560D01*
X5242D01*
X5228Y573D01*
X1322Y4415D02*
X1295D01*
X1308D01*
Y4348D01*
X1295Y4335D01*
X1282D01*
X1268Y4348D01*
X1348Y4335D02*
Y4415D01*
X1388D01*
X1402Y4402D01*
Y4375D01*
X1388Y4362D01*
X1348D01*
X1468Y4335D02*
Y4415D01*
X1428Y4375D01*
X1482D01*
X6222Y2715D02*
X6195D01*
X6208D01*
Y2648D01*
X6195Y2635D01*
X6182D01*
X6168Y2648D01*
X6248Y2635D02*
Y2715D01*
X6288D01*
X6302Y2702D01*
Y2675D01*
X6288Y2662D01*
X6248D01*
X6328Y2702D02*
X6342Y2715D01*
X6368D01*
X6382Y2702D01*
Y2688D01*
X6368Y2675D01*
X6355D01*
X6368D01*
X6382Y2662D01*
Y2648D01*
X6368Y2635D01*
X6342D01*
X6328Y2648D01*
X447Y2815D02*
X420D01*
X433D01*
Y2748D01*
X420Y2735D01*
X407D01*
X393Y2748D01*
X473Y2735D02*
Y2815D01*
X513D01*
X527Y2802D01*
Y2775D01*
X513Y2762D01*
X473D01*
X607Y2735D02*
X553D01*
X607Y2788D01*
Y2802D01*
X593Y2815D01*
X567D01*
X553Y2802D01*
X4783Y5790D02*
Y5710D01*
X4823D01*
X4837Y5723D01*
Y5777D01*
X4823Y5790D01*
X4783D01*
X4863Y5777D02*
X4877Y5790D01*
X4903D01*
X4917Y5777D01*
Y5763D01*
X4903Y5750D01*
X4890D01*
X4903D01*
X4917Y5737D01*
Y5723D01*
X4903Y5710D01*
X4877D01*
X4863Y5723D01*
X4783Y6565D02*
Y6485D01*
X4823D01*
X4837Y6498D01*
Y6552D01*
X4823Y6565D01*
X4783D01*
X4917Y6485D02*
X4863D01*
X4917Y6538D01*
Y6552D01*
X4903Y6565D01*
X4877D01*
X4863Y6552D01*
X4797Y7315D02*
Y7235D01*
X4837D01*
X4850Y7248D01*
Y7302D01*
X4837Y7315D01*
X4797D01*
X4877Y7235D02*
X4903D01*
X4890D01*
Y7315D01*
X4877Y7302D01*
X3373Y3878D02*
X3360Y3865D01*
Y3838D01*
X3373Y3825D01*
X3427D01*
X3440Y3838D01*
Y3865D01*
X3427Y3878D01*
X3440Y3905D02*
Y3932D01*
Y3918D01*
X3360D01*
X3373Y3905D01*
X3360Y4025D02*
Y3972D01*
X3400D01*
X3387Y3998D01*
Y4012D01*
X3400Y4025D01*
X3427D01*
X3440Y4012D01*
Y3985D01*
X3427Y3972D01*
X5053Y3802D02*
X5040Y3815D01*
X5013D01*
X5000Y3802D01*
Y3748D01*
X5013Y3735D01*
X5040D01*
X5053Y3748D01*
X5080Y3735D02*
X5107D01*
X5093D01*
Y3815D01*
X5080Y3802D01*
X5187Y3735D02*
Y3815D01*
X5147Y3775D01*
X5200D01*
X4323Y2628D02*
X4310Y2615D01*
Y2588D01*
X4323Y2575D01*
X4377D01*
X4390Y2588D01*
Y2615D01*
X4377Y2628D01*
X4390Y2655D02*
Y2682D01*
Y2668D01*
X4310D01*
X4323Y2655D01*
Y2722D02*
X4310Y2735D01*
Y2762D01*
X4323Y2775D01*
X4337D01*
X4350Y2762D01*
Y2748D01*
Y2762D01*
X4363Y2775D01*
X4377D01*
X4390Y2762D01*
Y2735D01*
X4377Y2722D01*
X4778Y4077D02*
X4765Y4090D01*
X4738D01*
X4725Y4077D01*
Y4023D01*
X4738Y4010D01*
X4765D01*
X4778Y4023D01*
X4805Y4010D02*
X4832D01*
X4818D01*
Y4090D01*
X4805Y4077D01*
X4925Y4010D02*
X4872D01*
X4925Y4063D01*
Y4077D01*
X4912Y4090D01*
X4885D01*
X4872Y4077D01*
X4273Y4517D02*
X4260Y4503D01*
Y4477D01*
X4273Y4463D01*
X4327D01*
X4340Y4477D01*
Y4503D01*
X4327Y4517D01*
X4340Y4543D02*
Y4570D01*
Y4557D01*
X4260D01*
X4273Y4543D01*
X4340Y4610D02*
Y4637D01*
Y4623D01*
X4260D01*
X4273Y4610D01*
X4528Y4927D02*
X4515Y4940D01*
X4488D01*
X4475Y4927D01*
Y4873D01*
X4488Y4860D01*
X4515D01*
X4528Y4873D01*
X4555Y4860D02*
X4582D01*
X4568D01*
Y4940D01*
X4555Y4927D01*
X4622D02*
X4635Y4940D01*
X4662D01*
X4675Y4927D01*
Y4873D01*
X4662Y4860D01*
X4635D01*
X4622Y4873D01*
Y4927D01*
X3212Y3352D02*
X3198Y3365D01*
X3172D01*
X3158Y3352D01*
Y3298D01*
X3172Y3285D01*
X3198D01*
X3212Y3298D01*
X3238D02*
X3252Y3285D01*
X3278D01*
X3292Y3298D01*
Y3352D01*
X3278Y3365D01*
X3252D01*
X3238Y3352D01*
Y3338D01*
X3252Y3325D01*
X3292D01*
X3262Y3627D02*
X3248Y3640D01*
X3222D01*
X3208Y3627D01*
Y3573D01*
X3222Y3560D01*
X3248D01*
X3262Y3573D01*
X3288Y3627D02*
X3302Y3640D01*
X3328D01*
X3342Y3627D01*
Y3613D01*
X3328Y3600D01*
X3342Y3587D01*
Y3573D01*
X3328Y3560D01*
X3302D01*
X3288Y3573D01*
Y3587D01*
X3302Y3600D01*
X3288Y3613D01*
Y3627D01*
X3302Y3600D02*
X3328D01*
X4762Y3727D02*
X4748Y3740D01*
X4722D01*
X4708Y3727D01*
Y3673D01*
X4722Y3660D01*
X4748D01*
X4762Y3673D01*
X4788Y3740D02*
X4842D01*
Y3727D01*
X4788Y3673D01*
Y3660D01*
X2662Y2727D02*
X2648Y2740D01*
X2622D01*
X2608Y2727D01*
Y2673D01*
X2622Y2660D01*
X2648D01*
X2662Y2673D01*
X2742Y2740D02*
X2715Y2727D01*
X2688Y2700D01*
Y2673D01*
X2702Y2660D01*
X2728D01*
X2742Y2673D01*
Y2687D01*
X2728Y2700D01*
X2688D01*
X2387Y3402D02*
X2373Y3415D01*
X2347D01*
X2333Y3402D01*
Y3348D01*
X2347Y3335D01*
X2373D01*
X2387Y3348D01*
X2467Y3415D02*
X2413D01*
Y3375D01*
X2440Y3388D01*
X2453D01*
X2467Y3375D01*
Y3348D01*
X2453Y3335D01*
X2427D01*
X2413Y3348D01*
X2387Y3552D02*
X2373Y3565D01*
X2347D01*
X2333Y3552D01*
Y3498D01*
X2347Y3485D01*
X2373D01*
X2387Y3498D01*
X2453Y3485D02*
Y3565D01*
X2413Y3525D01*
X2467D01*
X2404Y3725D02*
X2391Y3738D01*
X2364D01*
X2351Y3725D01*
Y3671D01*
X2364Y3658D01*
X2391D01*
X2404Y3671D01*
X2431Y3725D02*
X2444Y3738D01*
X2471D01*
X2484Y3725D01*
Y3711D01*
X2471Y3698D01*
X2457D01*
X2471D01*
X2484Y3685D01*
Y3671D01*
X2471Y3658D01*
X2444D01*
X2431Y3671D01*
X5173Y4812D02*
X5160Y4798D01*
Y4772D01*
X5173Y4758D01*
X5227D01*
X5240Y4772D01*
Y4798D01*
X5227Y4812D01*
X5240Y4892D02*
Y4838D01*
X5187Y4892D01*
X5173D01*
X5160Y4878D01*
Y4852D01*
X5173Y4838D01*
X750Y4852D02*
X737Y4865D01*
X710D01*
X697Y4852D01*
Y4798D01*
X710Y4785D01*
X737D01*
X750Y4798D01*
X777Y4785D02*
X803D01*
X790D01*
Y4865D01*
X777Y4852D01*
M02*
