G04*
G04 #@! TF.GenerationSoftware,Altium Limited,Altium Designer,23.0.1 (38)*
G04*
G04 Layer_Physical_Order=1*
G04 Layer_Color=255*
%FSLAX42Y42*%
%MOMM*%
G71*
G04*
G04 #@! TF.SameCoordinates,26549080-C4CF-4FC7-94AC-5244C5C1EA83*
G04*
G04*
G04 #@! TF.FilePolarity,Positive*
G04*
G01*
G75*
%ADD12C,0.25*%
%ADD15R,1.45X1.00*%
%ADD16R,0.60X1.00*%
%ADD17R,0.95X0.60*%
%ADD18R,0.80X1.00*%
%ADD19R,0.60X0.95*%
%ADD20R,1.00X0.80*%
%ADD21R,1.80X1.00*%
%ADD22R,0.74X1.02*%
%ADD23O,0.30X1.45*%
%ADD24O,1.45X0.30*%
%ADD25R,1.00X1.45*%
G04:AMPARAMS|DCode=26|XSize=1.8mm|YSize=1.5mm|CornerRadius=0.15mm|HoleSize=0mm|Usage=FLASHONLY|Rotation=90.000|XOffset=0mm|YOffset=0mm|HoleType=Round|Shape=RoundedRectangle|*
%AMROUNDEDRECTD26*
21,1,1.80,1.20,0,0,90.0*
21,1,1.50,1.50,0,0,90.0*
1,1,0.30,0.60,0.75*
1,1,0.30,0.60,-0.75*
1,1,0.30,-0.60,-0.75*
1,1,0.30,-0.60,0.75*
%
%ADD26ROUNDEDRECTD26*%
G04:AMPARAMS|DCode=27|XSize=1.8mm|YSize=1.2mm|CornerRadius=0.12mm|HoleSize=0mm|Usage=FLASHONLY|Rotation=270.000|XOffset=0mm|YOffset=0mm|HoleType=Round|Shape=RoundedRectangle|*
%AMROUNDEDRECTD27*
21,1,1.80,0.96,0,0,270.0*
21,1,1.56,1.20,0,0,270.0*
1,1,0.24,-0.48,-0.78*
1,1,0.24,-0.48,0.78*
1,1,0.24,0.48,0.78*
1,1,0.24,0.48,-0.78*
%
%ADD27ROUNDEDRECTD27*%
G04:AMPARAMS|DCode=28|XSize=0.3mm|YSize=1.45mm|CornerRadius=0.05mm|HoleSize=0mm|Usage=FLASHONLY|Rotation=270.000|XOffset=0mm|YOffset=0mm|HoleType=Round|Shape=RoundedRectangle|*
%AMROUNDEDRECTD28*
21,1,0.30,1.36,0,0,270.0*
21,1,0.21,1.45,0,0,270.0*
1,1,0.09,-0.68,-0.11*
1,1,0.09,-0.68,0.11*
1,1,0.09,0.68,0.11*
1,1,0.09,0.68,-0.11*
%
%ADD28ROUNDEDRECTD28*%
%ADD29O,1.45X0.60*%
G04:AMPARAMS|DCode=30|XSize=1.3mm|YSize=1.1mm|CornerRadius=0.11mm|HoleSize=0mm|Usage=FLASHONLY|Rotation=270.000|XOffset=0mm|YOffset=0mm|HoleType=Round|Shape=RoundedRectangle|*
%AMROUNDEDRECTD30*
21,1,1.30,0.88,0,0,270.0*
21,1,1.08,1.10,0,0,270.0*
1,1,0.22,-0.44,-0.54*
1,1,0.22,-0.44,0.54*
1,1,0.22,0.44,0.54*
1,1,0.22,0.44,-0.54*
%
%ADD30ROUNDEDRECTD30*%
%ADD63C,0.50*%
%ADD64C,1.00*%
%ADD65C,1.59*%
%ADD66R,1.59X1.59*%
%ADD67R,1.71X1.71*%
%ADD68C,1.71*%
%ADD69C,2.20*%
%ADD70O,2.20X2.25*%
%ADD71C,1.80*%
%ADD72R,1.60X1.60*%
%ADD73C,1.60*%
%ADD74R,1.71X1.71*%
%ADD75C,0.75*%
%ADD76R,1.59X1.59*%
%ADD77C,1.40*%
%ADD78R,1.40X1.40*%
G04:AMPARAMS|DCode=79|XSize=1.6mm|YSize=1.8mm|CornerRadius=0.4mm|HoleSize=0mm|Usage=FLASHONLY|Rotation=180.000|XOffset=0mm|YOffset=0mm|HoleType=Round|Shape=RoundedRectangle|*
%AMROUNDEDRECTD79*
21,1,1.60,1.00,0,0,180.0*
21,1,0.80,1.80,0,0,180.0*
1,1,0.80,-0.40,0.50*
1,1,0.80,0.40,0.50*
1,1,0.80,0.40,-0.50*
1,1,0.80,-0.40,-0.50*
%
%ADD79ROUNDEDRECTD79*%
%ADD80C,3.20*%
%ADD81C,0.60*%
G36*
X6567Y3990D02*
X6554Y3983D01*
X6552Y3985D01*
X6537Y3988D01*
X6502D01*
Y3872D01*
Y3755D01*
X6537D01*
X6552Y3758D01*
X6554Y3760D01*
X6567Y3753D01*
Y2974D01*
X6554Y2967D01*
X6552Y2969D01*
X6537Y2972D01*
X6502D01*
Y2856D01*
Y2739D01*
X6537D01*
X6552Y2742D01*
X6554Y2744D01*
X6567Y2737D01*
Y33D01*
X33D01*
Y8467D01*
X6567D01*
Y3990D01*
D02*
G37*
%LPC*%
G36*
X5518Y8285D02*
X5513D01*
Y8113D01*
X5685D01*
Y8118D01*
X5678Y8154D01*
X5664Y8188D01*
X5644Y8218D01*
X5618Y8244D01*
X5588Y8264D01*
X5554Y8278D01*
X5518Y8285D01*
D02*
G37*
G36*
X5487D02*
X5482D01*
X5446Y8278D01*
X5412Y8264D01*
X5382Y8244D01*
X5356Y8218D01*
X5336Y8188D01*
X5322Y8154D01*
X5315Y8118D01*
Y8113D01*
X5487D01*
Y8285D01*
D02*
G37*
G36*
X1118D02*
X1113D01*
Y8113D01*
X1285D01*
Y8118D01*
X1278Y8154D01*
X1264Y8188D01*
X1244Y8218D01*
X1218Y8244D01*
X1188Y8264D01*
X1154Y8278D01*
X1118Y8285D01*
D02*
G37*
G36*
X1087D02*
X1082D01*
X1046Y8278D01*
X1012Y8264D01*
X982Y8244D01*
X956Y8218D01*
X936Y8188D01*
X922Y8154D01*
X915Y8118D01*
Y8113D01*
X1087D01*
Y8285D01*
D02*
G37*
G36*
X6118Y8185D02*
X6113D01*
Y8013D01*
X6285D01*
Y8018D01*
X6278Y8054D01*
X6264Y8088D01*
X6244Y8118D01*
X6218Y8144D01*
X6188Y8164D01*
X6154Y8178D01*
X6118Y8185D01*
D02*
G37*
G36*
X6087D02*
X6082D01*
X6046Y8178D01*
X6012Y8164D01*
X5982Y8144D01*
X5956Y8118D01*
X5936Y8088D01*
X5922Y8054D01*
X5915Y8018D01*
Y8013D01*
X6087D01*
Y8185D01*
D02*
G37*
G36*
X518D02*
X513D01*
Y8013D01*
X685D01*
Y8018D01*
X678Y8054D01*
X664Y8088D01*
X644Y8118D01*
X618Y8144D01*
X588Y8164D01*
X554Y8178D01*
X518Y8185D01*
D02*
G37*
G36*
X487D02*
X482D01*
X446Y8178D01*
X412Y8164D01*
X382Y8144D01*
X356Y8118D01*
X336Y8088D01*
X322Y8054D01*
X315Y8018D01*
Y8013D01*
X487D01*
Y8185D01*
D02*
G37*
G36*
X5685Y8087D02*
X5513D01*
Y7915D01*
X5518D01*
X5554Y7922D01*
X5588Y7936D01*
X5618Y7956D01*
X5644Y7982D01*
X5664Y8012D01*
X5678Y8046D01*
X5685Y8082D01*
Y8087D01*
D02*
G37*
G36*
X5487D02*
X5315D01*
Y8082D01*
X5322Y8046D01*
X5336Y8012D01*
X5356Y7982D01*
X5382Y7956D01*
X5412Y7936D01*
X5446Y7922D01*
X5482Y7915D01*
X5487D01*
Y8087D01*
D02*
G37*
G36*
X1285D02*
X1113D01*
Y7915D01*
X1118D01*
X1154Y7922D01*
X1188Y7936D01*
X1218Y7956D01*
X1244Y7982D01*
X1264Y8012D01*
X1278Y8046D01*
X1285Y8082D01*
Y8087D01*
D02*
G37*
G36*
X1087D02*
X915D01*
Y8082D01*
X922Y8046D01*
X936Y8012D01*
X956Y7982D01*
X982Y7956D01*
X1012Y7936D01*
X1046Y7922D01*
X1082Y7915D01*
X1087D01*
Y8087D01*
D02*
G37*
G36*
X6285Y7987D02*
X6113D01*
Y7815D01*
X6118D01*
X6154Y7822D01*
X6188Y7836D01*
X6218Y7856D01*
X6244Y7882D01*
X6264Y7912D01*
X6278Y7946D01*
X6285Y7982D01*
Y7987D01*
D02*
G37*
G36*
X6087D02*
X5915D01*
Y7982D01*
X5922Y7946D01*
X5936Y7912D01*
X5956Y7882D01*
X5982Y7856D01*
X6012Y7836D01*
X6046Y7822D01*
X6082Y7815D01*
X6087D01*
Y7987D01*
D02*
G37*
G36*
X685D02*
X513D01*
Y7815D01*
X518D01*
X554Y7822D01*
X588Y7836D01*
X618Y7856D01*
X644Y7882D01*
X664Y7912D01*
X678Y7946D01*
X685Y7982D01*
Y7987D01*
D02*
G37*
G36*
X487D02*
X315D01*
Y7982D01*
X322Y7946D01*
X336Y7912D01*
X356Y7882D01*
X382Y7856D01*
X412Y7836D01*
X446Y7822D01*
X482Y7815D01*
X487D01*
Y7987D01*
D02*
G37*
G36*
X3287Y7610D02*
X3282D01*
X3246Y7603D01*
X3212Y7589D01*
X3182Y7569D01*
X3156Y7543D01*
X3141Y7521D01*
X3127Y7523D01*
X3122Y7541D01*
X3108Y7565D01*
X3089Y7584D01*
X3065Y7598D01*
X3038Y7606D01*
X3010D01*
X2983Y7598D01*
X2959Y7584D01*
X2940Y7565D01*
X2926Y7541D01*
X2918Y7514D01*
Y7486D01*
X2926Y7459D01*
X2940Y7435D01*
X2959Y7416D01*
X2983Y7402D01*
X2991Y7400D01*
Y5201D01*
X2991Y5198D01*
X2980Y5192D01*
X2803Y5369D01*
Y7400D01*
X2811Y7402D01*
X2835Y7416D01*
X2854Y7435D01*
X2868Y7459D01*
X2875Y7486D01*
Y7514D01*
X2868Y7541D01*
X2854Y7565D01*
X2835Y7584D01*
X2811Y7598D01*
X2784Y7606D01*
X2756D01*
X2729Y7598D01*
X2705Y7584D01*
X2686Y7565D01*
X2672Y7541D01*
X2665Y7514D01*
Y7486D01*
X2672Y7459D01*
X2686Y7435D01*
X2705Y7416D01*
X2729Y7402D01*
X2737Y7400D01*
Y5355D01*
X2739Y5342D01*
X2747Y5332D01*
X3917Y4161D01*
Y4122D01*
X3905Y4117D01*
X2549Y5473D01*
Y7400D01*
X2557Y7402D01*
X2581Y7416D01*
X2600Y7435D01*
X2614Y7459D01*
X2622Y7486D01*
Y7514D01*
X2614Y7541D01*
X2600Y7565D01*
X2581Y7584D01*
X2557Y7598D01*
X2530Y7606D01*
X2502D01*
X2475Y7598D01*
X2451Y7584D01*
X2432Y7565D01*
X2418Y7541D01*
X2410Y7514D01*
Y7486D01*
X2418Y7459D01*
X2432Y7435D01*
X2451Y7416D01*
X2475Y7402D01*
X2483Y7400D01*
Y5459D01*
X2485Y5446D01*
X2493Y5436D01*
X3612Y4316D01*
X3609Y4301D01*
X3602Y4298D01*
X3588Y4284D01*
X3581Y4266D01*
Y4246D01*
X3588Y4227D01*
X3602Y4213D01*
X3621Y4206D01*
X3634D01*
X3696Y4144D01*
X3696Y4141D01*
X3682Y4127D01*
X3674Y4109D01*
Y4103D01*
X3661Y4094D01*
X3652Y4098D01*
X3648D01*
X3626Y4120D01*
X3611Y4130D01*
X3593Y4133D01*
X3458D01*
X3455Y4142D01*
X3454Y4146D01*
X3467Y4159D01*
X3475Y4178D01*
Y4197D01*
X3467Y4216D01*
X3453Y4230D01*
X3435Y4238D01*
X3423D01*
X2295Y5365D01*
Y7400D01*
X2303Y7402D01*
X2327Y7416D01*
X2346Y7435D01*
X2360Y7459D01*
X2367Y7486D01*
Y7514D01*
X2360Y7541D01*
X2346Y7565D01*
X2327Y7584D01*
X2303Y7598D01*
X2276Y7606D01*
X2248D01*
X2221Y7598D01*
X2197Y7584D01*
X2178Y7565D01*
X2164Y7541D01*
X2157Y7514D01*
Y7486D01*
X2164Y7459D01*
X2178Y7435D01*
X2197Y7416D01*
X2221Y7402D01*
X2229Y7400D01*
Y5351D01*
X2231Y5339D01*
X2239Y5328D01*
X3317Y4249D01*
X3312Y4236D01*
X3304Y4233D01*
X3303Y4233D01*
X3289D01*
X2041Y5481D01*
Y7400D01*
X2049Y7402D01*
X2073Y7416D01*
X2092Y7435D01*
X2106Y7459D01*
X2114Y7486D01*
Y7514D01*
X2106Y7541D01*
X2092Y7565D01*
X2073Y7584D01*
X2049Y7598D01*
X2022Y7606D01*
X1994D01*
X1967Y7598D01*
X1943Y7584D01*
X1924Y7565D01*
X1910Y7541D01*
X1902Y7514D01*
Y7486D01*
X1910Y7459D01*
X1924Y7435D01*
X1943Y7416D01*
X1967Y7402D01*
X1975Y7400D01*
Y5467D01*
X1977Y5454D01*
X1985Y5444D01*
X3252Y4177D01*
X3262Y4169D01*
X3275Y4167D01*
X3279D01*
X3283Y4159D01*
X3296Y4146D01*
X3295Y4142D01*
X3292Y4133D01*
X2142D01*
X1831Y4444D01*
Y7410D01*
X1828Y7425D01*
X1838Y7435D01*
X1852Y7459D01*
X1859Y7486D01*
Y7514D01*
X1852Y7541D01*
X1838Y7565D01*
X1819Y7584D01*
X1795Y7598D01*
X1768Y7606D01*
X1740D01*
X1713Y7598D01*
X1689Y7584D01*
X1670Y7565D01*
X1656Y7541D01*
X1649Y7514D01*
Y7486D01*
X1656Y7459D01*
X1670Y7435D01*
X1689Y7416D01*
X1713Y7402D01*
X1739Y7395D01*
X1739Y7394D01*
Y4467D01*
X1505D01*
X1503Y4480D01*
X1513Y4482D01*
X1536Y4495D01*
X1555Y4514D01*
X1568Y4537D01*
X1574Y4562D01*
Y4588D01*
X1568Y4613D01*
X1555Y4636D01*
X1536Y4655D01*
X1513Y4668D01*
X1510Y4669D01*
Y4708D01*
X1525D01*
Y4842D01*
X1425D01*
Y4708D01*
X1444D01*
Y4670D01*
X1437Y4668D01*
X1414Y4655D01*
X1395Y4636D01*
X1382Y4613D01*
X1376Y4588D01*
Y4562D01*
X1382Y4537D01*
X1395Y4514D01*
X1414Y4495D01*
X1437Y4482D01*
X1447Y4480D01*
X1445Y4467D01*
X1330D01*
X1320Y4476D01*
Y4674D01*
X1122D01*
Y4621D01*
X869D01*
X757Y4732D01*
X743Y4742D01*
X725Y4746D01*
X694D01*
X683Y4750D01*
Y4812D01*
X617D01*
Y4825D01*
X605D01*
Y4900D01*
X553D01*
X552Y4900D01*
X542Y4895D01*
X539Y4895D01*
X422D01*
Y4755D01*
X425D01*
Y4633D01*
X442D01*
Y4606D01*
X394D01*
Y4394D01*
X547D01*
X550Y4391D01*
X750Y4191D01*
Y4178D01*
X758Y4159D01*
X772Y4145D01*
X790Y4138D01*
X810D01*
X828Y4145D01*
X842Y4159D01*
X850Y4178D01*
Y4197D01*
X842Y4216D01*
X828Y4230D01*
X810Y4238D01*
X797D01*
X606Y4429D01*
X605Y4430D01*
Y4606D01*
X508D01*
Y4633D01*
X525D01*
Y4746D01*
X534Y4755D01*
X542Y4755D01*
X552Y4750D01*
X553Y4750D01*
X575D01*
Y4633D01*
X675D01*
Y4654D01*
X706D01*
X818Y4543D01*
X832Y4533D01*
X850Y4529D01*
X1122D01*
Y4476D01*
X1175D01*
Y4475D01*
X1179Y4457D01*
X1189Y4443D01*
X1243Y4389D01*
X1257Y4379D01*
X1275Y4375D01*
X1770D01*
X2077Y4068D01*
Y2646D01*
X895D01*
X870Y2670D01*
X600Y2941D01*
X605Y2962D01*
Y2990D01*
X598Y3017D01*
X584Y3041D01*
X565Y3060D01*
X541Y3074D01*
X514Y3082D01*
X486D01*
X459Y3074D01*
X435Y3060D01*
X416Y3041D01*
X402Y3017D01*
X394Y2990D01*
Y2962D01*
X402Y2935D01*
X416Y2911D01*
X435Y2892D01*
X459Y2878D01*
X486Y2870D01*
X514D01*
X535Y2876D01*
X792Y2619D01*
Y1525D01*
Y1021D01*
X706Y934D01*
X696Y920D01*
X692Y902D01*
Y595D01*
X673Y584D01*
X654Y565D01*
X640Y541D01*
X632Y514D01*
Y486D01*
X640Y459D01*
X654Y435D01*
X673Y416D01*
X697Y402D01*
X724Y394D01*
X752D01*
X779Y402D01*
X803Y416D01*
X822Y435D01*
X836Y459D01*
X844Y486D01*
Y514D01*
X836Y541D01*
X822Y565D01*
X803Y584D01*
X784Y595D01*
Y883D01*
X870Y970D01*
X880Y984D01*
X884Y1002D01*
Y1479D01*
X1075D01*
Y1432D01*
X1215D01*
Y1617D01*
X1186D01*
Y1659D01*
X1195D01*
X1215Y1662D01*
X1231Y1673D01*
X1242Y1690D01*
X1246Y1709D01*
X1242Y1729D01*
X1231Y1746D01*
X1215Y1757D01*
X1195Y1760D01*
X1110D01*
X1098Y1758D01*
X1092Y1770D01*
X1108Y1786D01*
X1110Y1786D01*
X1195D01*
X1215Y1789D01*
X1231Y1800D01*
X1233Y1803D01*
X1275D01*
X1278Y1797D01*
X1292Y1783D01*
X1310Y1775D01*
X1330D01*
X1349Y1783D01*
X1363Y1797D01*
X1370Y1815D01*
Y1835D01*
X1363Y1853D01*
X1349Y1867D01*
X1330Y1875D01*
X1310D01*
X1297Y1870D01*
X1233D01*
X1231Y1873D01*
X1215Y1884D01*
X1195Y1887D01*
X1110D01*
X1090Y1884D01*
X1074Y1873D01*
X1063Y1856D01*
X1059Y1836D01*
X1060Y1832D01*
X1028Y1800D01*
X907D01*
Y1700D01*
X1043D01*
Y1728D01*
X1050Y1731D01*
X1052Y1732D01*
X1058Y1727D01*
X1062Y1722D01*
X1059Y1709D01*
X1063Y1690D01*
X1074Y1673D01*
X1090Y1662D01*
X1110Y1659D01*
X1119D01*
Y1617D01*
X1075D01*
Y1571D01*
X884D01*
Y2554D01*
X1292D01*
Y2425D01*
X1257D01*
Y2325D01*
X1393D01*
Y2425D01*
X1358D01*
Y2554D01*
X2468D01*
Y1495D01*
X2449Y1484D01*
X2430Y1465D01*
X2416Y1441D01*
X2408Y1414D01*
Y1386D01*
X2416Y1359D01*
X2430Y1335D01*
X2449Y1316D01*
X2473Y1302D01*
X2500Y1294D01*
X2528D01*
X2555Y1302D01*
X2579Y1316D01*
X2598Y1335D01*
X2612Y1359D01*
X2619Y1386D01*
Y1414D01*
X2612Y1441D01*
X2598Y1465D01*
X2579Y1484D01*
X2560Y1495D01*
Y2554D01*
X2975D01*
X2993Y2558D01*
X3007Y2568D01*
X3184Y2744D01*
X3194Y2759D01*
X3197Y2776D01*
Y2979D01*
X3208D01*
X3208Y3121D01*
X3220Y3125D01*
X3223Y3125D01*
X3233Y3130D01*
X3242Y3121D01*
Y2979D01*
X3342D01*
Y2839D01*
X3011Y2508D01*
X2688D01*
X2678Y2517D01*
X2660Y2525D01*
X2640D01*
X2622Y2517D01*
X2608Y2503D01*
X2600Y2485D01*
Y2465D01*
X2608Y2447D01*
X2622Y2433D01*
X2625Y2431D01*
Y2419D01*
X2622Y2417D01*
X2608Y2403D01*
X2600Y2385D01*
Y2365D01*
X2608Y2347D01*
X2622Y2333D01*
X2640Y2325D01*
X2660D01*
X2678Y2333D01*
X2688Y2342D01*
X3325D01*
X3338Y2344D01*
X3348Y2352D01*
X3484Y2487D01*
X3499Y2484D01*
X3502Y2477D01*
X3516Y2463D01*
X3534Y2456D01*
X3554D01*
X3573Y2463D01*
X3582Y2473D01*
X3633D01*
X3645Y2475D01*
X3656Y2482D01*
X3743Y2569D01*
X3746Y2574D01*
X3823Y2652D01*
X3831Y2662D01*
X3833Y2675D01*
Y2800D01*
X3846Y2810D01*
X3850Y2809D01*
X3854Y2810D01*
X3867Y2800D01*
Y2339D01*
X3037Y1509D01*
X3035Y1506D01*
X3008D01*
X2981Y1498D01*
X2957Y1484D01*
X2938Y1465D01*
X2924Y1441D01*
X2917Y1414D01*
Y1386D01*
X2924Y1359D01*
X2938Y1335D01*
X2957Y1316D01*
X2981Y1302D01*
X3008Y1294D01*
X3036D01*
X3063Y1302D01*
X3087Y1316D01*
X3104Y1333D01*
X3117Y1330D01*
Y1176D01*
X2536Y594D01*
X2529Y598D01*
X2502Y605D01*
X2474D01*
X2447Y598D01*
X2423Y584D01*
X2404Y565D01*
X2390Y541D01*
X2383Y514D01*
Y486D01*
X2390Y459D01*
X2404Y435D01*
X2423Y416D01*
X2447Y402D01*
X2474Y394D01*
X2502D01*
X2529Y402D01*
X2553Y416D01*
X2572Y435D01*
X2586Y459D01*
X2593Y486D01*
Y514D01*
X2586Y541D01*
X2582Y548D01*
X3173Y1139D01*
X3181Y1149D01*
X3183Y1162D01*
Y1326D01*
X3196Y1331D01*
X3211Y1316D01*
X3235Y1302D01*
X3262Y1294D01*
X3290D01*
X3317Y1302D01*
X3341Y1316D01*
X3354Y1329D01*
X3367Y1324D01*
Y1172D01*
X2790Y594D01*
X2783Y598D01*
X2756Y605D01*
X2728D01*
X2701Y598D01*
X2677Y584D01*
X2658Y565D01*
X2644Y541D01*
X2636Y514D01*
Y486D01*
X2644Y459D01*
X2658Y435D01*
X2677Y416D01*
X2701Y402D01*
X2728Y394D01*
X2756D01*
X2783Y402D01*
X2807Y416D01*
X2826Y435D01*
X2840Y459D01*
X2848Y486D01*
Y514D01*
X2840Y541D01*
X2836Y548D01*
X3423Y1135D01*
X3431Y1145D01*
X3433Y1158D01*
Y1332D01*
X3443Y1335D01*
X3446Y1335D01*
X3465Y1316D01*
X3489Y1302D01*
X3516Y1294D01*
X3544D01*
X3571Y1302D01*
X3595Y1316D01*
X3604Y1325D01*
X3617Y1320D01*
Y1139D01*
X3062Y584D01*
X3061Y584D01*
X3037Y598D01*
X3010Y605D01*
X2982D01*
X2955Y598D01*
X2931Y584D01*
X2912Y565D01*
X2898Y541D01*
X2891Y514D01*
Y486D01*
X2898Y459D01*
X2912Y435D01*
X2931Y416D01*
X2955Y402D01*
X2982Y394D01*
X3010D01*
X3037Y402D01*
X3061Y416D01*
X3080Y435D01*
X3094Y459D01*
X3101Y486D01*
Y514D01*
X3098Y526D01*
X3673Y1102D01*
X3681Y1112D01*
X3683Y1125D01*
Y1338D01*
X3696Y1342D01*
X3700Y1335D01*
X3719Y1316D01*
X3743Y1302D01*
X3770Y1294D01*
X3798D01*
X3825Y1302D01*
X3849Y1316D01*
X3868Y1335D01*
X3874Y1345D01*
X3887Y1342D01*
Y1159D01*
X3313Y585D01*
X3291Y598D01*
X3264Y605D01*
X3236D01*
X3209Y598D01*
X3185Y584D01*
X3166Y565D01*
X3152Y541D01*
X3144Y514D01*
Y486D01*
X3152Y459D01*
X3166Y435D01*
X3185Y416D01*
X3209Y402D01*
X3236Y394D01*
X3264D01*
X3291Y402D01*
X3315Y416D01*
X3334Y435D01*
X3348Y459D01*
X3356Y486D01*
Y514D01*
X3351Y529D01*
X3943Y1122D01*
X3951Y1132D01*
X3953Y1145D01*
Y1318D01*
X3966Y1323D01*
X3973Y1316D01*
X3997Y1302D01*
X4024Y1294D01*
X4052D01*
X4079Y1302D01*
X4103Y1316D01*
X4122Y1335D01*
X4136Y1359D01*
X4144Y1386D01*
Y1414D01*
X4136Y1441D01*
X4122Y1465D01*
X4103Y1484D01*
X4079Y1498D01*
X4052Y1506D01*
X4024D01*
X3997Y1498D01*
X3973Y1484D01*
X3966Y1477D01*
X3953Y1482D01*
Y1931D01*
X4123Y2102D01*
X4131Y2112D01*
X4133Y2125D01*
Y2788D01*
X4145Y2797D01*
X4154Y2795D01*
X4155Y2792D01*
Y2686D01*
X4155Y2683D01*
X4150Y2673D01*
X4150Y2672D01*
Y2620D01*
X4225D01*
X4300D01*
Y2672D01*
X4300Y2673D01*
X4295Y2683D01*
X4295Y2686D01*
Y2709D01*
X4346D01*
X4359Y2712D01*
X4370Y2719D01*
X4376Y2725D01*
X4378Y2724D01*
X4397D01*
X4404Y2727D01*
X4417Y2718D01*
Y1496D01*
X4419Y1483D01*
X4427Y1473D01*
X4452Y1448D01*
X4448Y1441D01*
X4440Y1414D01*
Y1386D01*
X4448Y1359D01*
X4462Y1335D01*
X4481Y1316D01*
X4505Y1302D01*
X4532Y1294D01*
X4560D01*
X4587Y1302D01*
X4611Y1316D01*
X4630Y1335D01*
X4644Y1359D01*
X4651Y1386D01*
Y1414D01*
X4644Y1441D01*
X4630Y1465D01*
X4611Y1484D01*
X4587Y1498D01*
X4560Y1506D01*
X4532D01*
X4505Y1498D01*
X4498Y1494D01*
X4483Y1510D01*
Y2800D01*
X4481Y2813D01*
X4473Y2823D01*
X4295Y3002D01*
X4301Y3014D01*
X4405D01*
X4418Y3017D01*
X4748D01*
X4942Y2823D01*
Y1372D01*
X4923Y1353D01*
X4911Y1357D01*
Y1387D01*
X4813D01*
Y1289D01*
X4843D01*
X4847Y1277D01*
X4503Y933D01*
X3904D01*
X3891Y931D01*
X3881Y923D01*
X3552Y594D01*
X3545Y598D01*
X3518Y605D01*
X3490D01*
X3463Y598D01*
X3439Y584D01*
X3420Y565D01*
X3406Y541D01*
X3399Y514D01*
Y486D01*
X3406Y459D01*
X3420Y435D01*
X3439Y416D01*
X3463Y402D01*
X3490Y394D01*
X3518D01*
X3545Y402D01*
X3569Y416D01*
X3588Y435D01*
X3602Y459D01*
X3610Y486D01*
Y514D01*
X3602Y541D01*
X3598Y548D01*
X3918Y867D01*
X4502D01*
X4507Y854D01*
X4486Y833D01*
X4058D01*
X4045Y831D01*
X4035Y823D01*
X3806Y594D01*
X3799Y598D01*
X3772Y605D01*
X3744D01*
X3717Y598D01*
X3693Y584D01*
X3674Y565D01*
X3660Y541D01*
X3653Y514D01*
Y486D01*
X3660Y459D01*
X3674Y435D01*
X3693Y416D01*
X3717Y402D01*
X3744Y394D01*
X3772D01*
X3799Y402D01*
X3823Y416D01*
X3842Y435D01*
X3856Y459D01*
X3863Y486D01*
Y514D01*
X3856Y541D01*
X3852Y548D01*
X4072Y767D01*
X4500D01*
X4503Y767D01*
X4509Y756D01*
X4486Y733D01*
X4212D01*
X4199Y731D01*
X4189Y723D01*
X4060Y594D01*
X4053Y598D01*
X4026Y605D01*
X3998D01*
X3971Y598D01*
X3947Y584D01*
X3928Y565D01*
X3914Y541D01*
X3906Y514D01*
Y486D01*
X3914Y459D01*
X3928Y435D01*
X3947Y416D01*
X3971Y402D01*
X3998Y394D01*
X4026D01*
X4053Y402D01*
X4077Y416D01*
X4096Y435D01*
X4110Y459D01*
X4117Y486D01*
Y514D01*
X4110Y541D01*
X4106Y548D01*
X4149Y590D01*
X4160Y585D01*
Y394D01*
X4372D01*
Y467D01*
X4375D01*
X4388Y469D01*
X4398Y477D01*
X5063Y1141D01*
X5076Y1136D01*
Y955D01*
X5274D01*
Y1153D01*
X5093D01*
X5088Y1166D01*
X5223Y1302D01*
X5231Y1312D01*
X5233Y1325D01*
Y2802D01*
X5231Y2815D01*
X5223Y2826D01*
X4826Y3223D01*
X4815Y3231D01*
X4802Y3233D01*
X4450D01*
X4440Y3246D01*
X4441Y3250D01*
X4438Y3264D01*
X4430Y3275D01*
X4438Y3286D01*
X4441Y3300D01*
X4438Y3314D01*
X4430Y3325D01*
X4438Y3336D01*
X4441Y3350D01*
X4440Y3354D01*
X4450Y3367D01*
X5545D01*
Y3313D01*
X5600D01*
X5655D01*
Y3367D01*
X5700D01*
Y3233D01*
X5800D01*
Y3263D01*
X5813Y3265D01*
X5861Y3218D01*
X5871Y3210D01*
X5884Y3208D01*
X5889Y3202D01*
X5888Y3199D01*
Y3178D01*
X5890Y3168D01*
X5895Y3161D01*
X5890Y3154D01*
X5888Y3144D01*
Y3123D01*
X5889Y3118D01*
X5888Y3114D01*
Y3093D01*
X5890Y3083D01*
X5890Y3083D01*
X5885Y3076D01*
X5883Y3066D01*
X5981D01*
Y3041D01*
X5883D01*
X5883Y3039D01*
X5883Y3036D01*
X5981D01*
Y3024D01*
X5994D01*
Y2983D01*
X6000D01*
X6002Y2970D01*
X5995Y2969D01*
X5982Y2960D01*
X5973Y2946D01*
X5970Y2931D01*
Y2868D01*
X6071D01*
X6172D01*
Y2931D01*
X6169Y2946D01*
X6160Y2960D01*
X6147Y2969D01*
X6131Y2972D01*
X6060D01*
X6058Y2984D01*
X6061Y2985D01*
X6071Y2991D01*
X6077Y3001D01*
X6079Y3013D01*
Y3021D01*
X6092Y3026D01*
X6092Y3026D01*
X6114Y3017D01*
X6136D01*
X6158Y3026D01*
X6174Y3042D01*
X6183Y3064D01*
Y3086D01*
X6174Y3108D01*
X6165Y3116D01*
X6170Y3129D01*
X6250D01*
X6268Y3133D01*
X6282Y3143D01*
X6357Y3218D01*
X6367Y3232D01*
X6371Y3250D01*
Y3514D01*
X6367Y3532D01*
X6357Y3547D01*
X6303Y3601D01*
Y4343D01*
X6299Y4360D01*
X6290Y4375D01*
X6032Y4632D01*
X6018Y4642D01*
X6000Y4646D01*
X5421D01*
Y5002D01*
X5417Y5020D01*
X5407Y5034D01*
X4727Y5715D01*
Y5850D01*
X4527D01*
Y5650D01*
X4662D01*
X5329Y4983D01*
Y4600D01*
Y4546D01*
X5292D01*
Y4565D01*
X5108D01*
Y4425D01*
X5138D01*
X5145Y4415D01*
Y4275D01*
X5245D01*
Y4415D01*
X5252Y4425D01*
X5292D01*
Y4454D01*
X5360D01*
X5378Y4458D01*
X5393Y4468D01*
X5407Y4482D01*
X5417Y4497D01*
X5421Y4515D01*
Y4554D01*
X5712D01*
X5721Y4541D01*
X5719Y4538D01*
X5719Y4538D01*
X5719Y4538D01*
X5717Y4533D01*
Y4528D01*
X5717Y4525D01*
X5717Y4522D01*
Y4513D01*
X5725Y4495D01*
X5739Y4481D01*
X5757Y4473D01*
X5777D01*
X5796Y4481D01*
X5808Y4475D01*
Y4475D01*
X5942D01*
Y4554D01*
X5981D01*
X6211Y4324D01*
Y3615D01*
X6186D01*
X6177Y3628D01*
X6183Y3641D01*
Y3663D01*
X6174Y3685D01*
X6158Y3701D01*
X6136Y3710D01*
X6114D01*
X6092Y3701D01*
X6092Y3701D01*
X6079Y3706D01*
Y3714D01*
X6077Y3726D01*
X6071Y3736D01*
X6061Y3742D01*
X6058Y3743D01*
X6060Y3755D01*
X6131D01*
X6147Y3758D01*
X6160Y3767D01*
X6169Y3781D01*
X6172Y3797D01*
Y3859D01*
X6071D01*
X5970D01*
Y3797D01*
X5973Y3781D01*
X5982Y3767D01*
X5995Y3758D01*
X6002Y3757D01*
X6000Y3744D01*
X5994D01*
Y3703D01*
X5981D01*
Y3691D01*
X5883D01*
X5883Y3688D01*
X5883Y3686D01*
X5981D01*
Y3661D01*
X5883D01*
X5885Y3651D01*
X5890Y3644D01*
X5890Y3644D01*
X5888Y3634D01*
Y3613D01*
X5889Y3608D01*
X5888Y3604D01*
Y3583D01*
X5877Y3572D01*
X5825D01*
X5823Y3573D01*
X5813Y3581D01*
X5800Y3583D01*
Y3617D01*
X5700D01*
Y3483D01*
X5655D01*
Y3537D01*
X5600D01*
X5545D01*
Y3483D01*
X4705D01*
Y3537D01*
X4650D01*
Y3563D01*
X4705D01*
Y3623D01*
X4705Y3623D01*
X4705Y3623D01*
X4703Y3634D01*
Y3770D01*
X4700D01*
X4700Y3783D01*
X4700Y3783D01*
Y3917D01*
X4698D01*
X4689Y3930D01*
X4692Y3938D01*
Y3958D01*
X4687Y3970D01*
X4695Y3983D01*
X4725D01*
Y4167D01*
X4690D01*
X4690Y4180D01*
X4690D01*
Y4320D01*
X4590D01*
Y4180D01*
X4590D01*
X4590Y4167D01*
X4585D01*
Y3983D01*
X4590D01*
X4597Y3970D01*
X4592Y3958D01*
Y3938D01*
X4596Y3929D01*
X4600Y3917D01*
X4600Y3917D01*
X4600Y3917D01*
Y3783D01*
X4600Y3783D01*
X4600Y3770D01*
X4583D01*
Y3686D01*
X4580Y3684D01*
X4567Y3691D01*
Y3770D01*
X4550D01*
X4550Y3783D01*
X4550D01*
Y3917D01*
X4450D01*
Y3783D01*
X4450D01*
X4450Y3770D01*
X4447D01*
Y3733D01*
X4375D01*
X4362Y3731D01*
X4352Y3724D01*
X4351Y3724D01*
X4343Y3733D01*
X4345Y3740D01*
Y3760D01*
X4338Y3779D01*
X4324Y3793D01*
X4305Y3800D01*
X4285D01*
X4267Y3793D01*
X4255Y3781D01*
X4236D01*
Y3805D01*
X4233Y3819D01*
X4225Y3830D01*
X4214Y3838D01*
X4200Y3841D01*
X4196Y3840D01*
X4183Y3850D01*
Y3992D01*
X4264Y4073D01*
X4277D01*
X4295Y4080D01*
X4298Y4078D01*
X4305Y4072D01*
X4300Y4060D01*
Y4040D01*
X4308Y4022D01*
X4321Y4008D01*
Y3901D01*
X4316Y3895D01*
X4308Y3877D01*
Y3857D01*
X4316Y3839D01*
X4330Y3825D01*
X4348Y3817D01*
X4368D01*
X4386Y3825D01*
X4400Y3839D01*
X4408Y3857D01*
Y3877D01*
X4400Y3895D01*
X4387Y3909D01*
Y4016D01*
X4392Y4022D01*
X4400Y4040D01*
Y4060D01*
X4392Y4078D01*
X4378Y4092D01*
X4360Y4100D01*
X4340D01*
X4323Y4093D01*
X4319Y4095D01*
X4313Y4101D01*
X4317Y4113D01*
Y4133D01*
X4310Y4151D01*
X4296Y4165D01*
X4277Y4173D01*
X4257D01*
X4239Y4165D01*
X4225Y4151D01*
X4217Y4133D01*
Y4120D01*
X4145Y4047D01*
X4133Y4052D01*
Y5761D01*
X5289Y6917D01*
X6250D01*
X6263Y6919D01*
X6273Y6927D01*
X6299Y6952D01*
X6308Y6947D01*
X6336Y6940D01*
X6364D01*
X6392Y6947D01*
X6418Y6962D01*
X6438Y6982D01*
X6453Y7008D01*
X6460Y7036D01*
Y7064D01*
X6453Y7092D01*
X6438Y7118D01*
X6418Y7138D01*
X6392Y7153D01*
X6364Y7160D01*
X6336D01*
X6308Y7153D01*
X6282Y7138D01*
X6262Y7118D01*
X6247Y7092D01*
X6240Y7064D01*
Y7036D01*
X6247Y7008D01*
X6252Y6999D01*
X6236Y6983D01*
X5275D01*
X5262Y6981D01*
X5252Y6973D01*
X4739Y6461D01*
X4727Y6467D01*
X4732Y6486D01*
Y6487D01*
X4640D01*
Y6395D01*
X4641D01*
X4660Y6400D01*
X4666Y6388D01*
X4077Y5798D01*
X4069Y5788D01*
X4067Y5775D01*
Y3850D01*
X4054Y3840D01*
X4050Y3841D01*
X4046Y3840D01*
X4033Y3850D01*
Y4225D01*
X4031Y4238D01*
X4023Y4248D01*
X3180Y5092D01*
X3188Y5102D01*
X3212Y5086D01*
X3246Y5072D01*
X3282Y5065D01*
X3287D01*
Y5237D01*
X3115D01*
Y5232D01*
X3122Y5196D01*
X3136Y5162D01*
X3152Y5138D01*
X3142Y5130D01*
X3057Y5215D01*
Y7400D01*
X3065Y7402D01*
X3089Y7416D01*
X3102Y7429D01*
X3115Y7423D01*
Y7407D01*
X3122Y7371D01*
X3136Y7337D01*
X3156Y7307D01*
X3182Y7281D01*
X3212Y7261D01*
X3246Y7247D01*
X3282Y7240D01*
X3287D01*
Y7425D01*
Y7610D01*
D02*
G37*
G36*
X1611Y7611D02*
X1513D01*
Y7513D01*
X1611D01*
Y7611D01*
D02*
G37*
G36*
X1487D02*
X1389D01*
Y7513D01*
X1487D01*
Y7611D01*
D02*
G37*
G36*
X3318Y7610D02*
X3313D01*
Y7438D01*
X3485D01*
Y7443D01*
X3478Y7479D01*
X3464Y7513D01*
X3444Y7543D01*
X3418Y7569D01*
X3388Y7589D01*
X3354Y7603D01*
X3318Y7610D01*
D02*
G37*
G36*
X1187D02*
X1182D01*
X1146Y7603D01*
X1112Y7589D01*
X1082Y7569D01*
X1056Y7543D01*
X1036Y7513D01*
X1022Y7479D01*
X1015Y7443D01*
Y7438D01*
X1187D01*
Y7610D01*
D02*
G37*
G36*
X1611Y7487D02*
X1513D01*
Y7389D01*
X1611D01*
Y7487D01*
D02*
G37*
G36*
X4075Y7318D02*
X3975D01*
Y7284D01*
X3962Y7283D01*
X3953Y7292D01*
X3935Y7300D01*
X3915D01*
X3897Y7292D01*
X3883Y7278D01*
X3875Y7260D01*
Y7240D01*
X3883Y7222D01*
X3897Y7208D01*
X3915Y7200D01*
X3935D01*
X3953Y7208D01*
X3962Y7217D01*
X3975Y7216D01*
Y7182D01*
X4075D01*
Y7318D01*
D02*
G37*
G36*
X4473Y7350D02*
X4273D01*
Y7283D01*
X4225D01*
Y7318D01*
X4125D01*
Y7182D01*
X4225D01*
Y7217D01*
X4273D01*
Y7150D01*
X4473D01*
Y7350D01*
D02*
G37*
G36*
X4641Y7355D02*
X4640D01*
Y7263D01*
X4732D01*
Y7264D01*
X4725Y7291D01*
X4711Y7315D01*
X4692Y7334D01*
X4668Y7348D01*
X4641Y7355D01*
D02*
G37*
G36*
X4614D02*
X4613D01*
X4586Y7348D01*
X4562Y7334D01*
X4543Y7315D01*
X4529Y7291D01*
X4522Y7264D01*
Y7263D01*
X4614D01*
Y7355D01*
D02*
G37*
G36*
X3485Y7412D02*
X3313D01*
Y7240D01*
X3318D01*
X3354Y7247D01*
X3388Y7261D01*
X3418Y7281D01*
X3444Y7307D01*
X3464Y7337D01*
X3478Y7371D01*
X3485Y7407D01*
Y7412D01*
D02*
G37*
G36*
X1218Y7610D02*
X1213D01*
Y7425D01*
Y7240D01*
X1218D01*
X1254Y7247D01*
X1288Y7261D01*
X1318Y7281D01*
X1344Y7307D01*
X1364Y7337D01*
X1378Y7371D01*
X1380Y7380D01*
X1389Y7389D01*
X1395Y7389D01*
X1487D01*
Y7487D01*
X1389D01*
Y7486D01*
X1376Y7484D01*
X1364Y7513D01*
X1344Y7543D01*
X1318Y7569D01*
X1288Y7589D01*
X1254Y7603D01*
X1218Y7610D01*
D02*
G37*
G36*
X1187Y7412D02*
X1015D01*
Y7407D01*
X1022Y7371D01*
X1036Y7337D01*
X1056Y7307D01*
X1082Y7281D01*
X1112Y7261D01*
X1146Y7247D01*
X1182Y7240D01*
X1187D01*
Y7412D01*
D02*
G37*
G36*
X6118Y7285D02*
X6113D01*
Y7163D01*
X6235D01*
Y7168D01*
X6226Y7202D01*
X6208Y7233D01*
X6183Y7258D01*
X6152Y7276D01*
X6118Y7285D01*
D02*
G37*
G36*
X6087D02*
X6082D01*
X6048Y7276D01*
X6017Y7258D01*
X5992Y7233D01*
X5974Y7202D01*
X5965Y7168D01*
Y7163D01*
X6087D01*
Y7285D01*
D02*
G37*
G36*
X4732Y7237D02*
X4640D01*
Y7145D01*
X4641D01*
X4668Y7152D01*
X4692Y7166D01*
X4711Y7185D01*
X4725Y7209D01*
X4732Y7236D01*
Y7237D01*
D02*
G37*
G36*
X4614D02*
X4522D01*
Y7236D01*
X4529Y7209D01*
X4543Y7185D01*
X4562Y7166D01*
X4586Y7152D01*
X4613Y7145D01*
X4614D01*
Y7237D01*
D02*
G37*
G36*
X6235Y7137D02*
X6113D01*
Y7015D01*
X6118D01*
X6152Y7024D01*
X6183Y7042D01*
X6208Y7067D01*
X6226Y7098D01*
X6235Y7132D01*
Y7137D01*
D02*
G37*
G36*
X6087D02*
X5965D01*
Y7132D01*
X5974Y7098D01*
X5992Y7067D01*
X6017Y7042D01*
X6048Y7024D01*
X6082Y7015D01*
X6087D01*
Y7137D01*
D02*
G37*
G36*
X6365Y6665D02*
X6363D01*
Y6563D01*
X6465D01*
Y6565D01*
X6458Y6595D01*
X6442Y6621D01*
X6421Y6642D01*
X6395Y6658D01*
X6365Y6665D01*
D02*
G37*
G36*
X6337D02*
X6335D01*
X6305Y6658D01*
X6279Y6642D01*
X6258Y6621D01*
X6242Y6595D01*
X6235Y6565D01*
Y6563D01*
X6337D01*
Y6665D01*
D02*
G37*
G36*
X4473Y6600D02*
X4273D01*
Y6533D01*
X4225D01*
Y6568D01*
X4125D01*
Y6432D01*
X4225D01*
Y6467D01*
X4273D01*
Y6400D01*
X4473D01*
Y6600D01*
D02*
G37*
G36*
X4075Y6568D02*
X3975D01*
Y6533D01*
X3938D01*
X3928Y6542D01*
X3910Y6550D01*
X3890D01*
X3872Y6542D01*
X3858Y6528D01*
X3850Y6510D01*
Y6490D01*
X3858Y6472D01*
X3872Y6458D01*
X3890Y6450D01*
X3910D01*
X3928Y6458D01*
X3938Y6467D01*
X3975D01*
Y6432D01*
X4075D01*
Y6568D01*
D02*
G37*
G36*
X4641Y6605D02*
X4640D01*
Y6513D01*
X4732D01*
Y6514D01*
X4725Y6541D01*
X4711Y6565D01*
X4692Y6584D01*
X4668Y6598D01*
X4641Y6605D01*
D02*
G37*
G36*
X4614D02*
X4613D01*
X4586Y6598D01*
X4562Y6584D01*
X4543Y6565D01*
X4529Y6541D01*
X4522Y6514D01*
Y6513D01*
X4614D01*
Y6605D01*
D02*
G37*
G36*
X6113Y6587D02*
Y6463D01*
X6235D01*
X6232Y6488D01*
X6218Y6521D01*
X6197Y6549D01*
X6168Y6571D01*
X6135Y6584D01*
X6113Y6587D01*
D02*
G37*
G36*
X6087D02*
X6065Y6584D01*
X6032Y6571D01*
X6003Y6549D01*
X5982Y6521D01*
X5968Y6488D01*
X5965Y6463D01*
X6087D01*
Y6587D01*
D02*
G37*
G36*
X6465Y6537D02*
X6363D01*
Y6435D01*
X6365D01*
X6395Y6442D01*
X6421Y6458D01*
X6442Y6479D01*
X6458Y6505D01*
X6465Y6535D01*
Y6537D01*
D02*
G37*
G36*
X6337D02*
X6235D01*
Y6535D01*
X6242Y6505D01*
X6258Y6479D01*
X6279Y6458D01*
X6305Y6442D01*
X6335Y6435D01*
X6337D01*
Y6537D01*
D02*
G37*
G36*
X4614Y6487D02*
X4522D01*
Y6486D01*
X4529Y6459D01*
X4543Y6435D01*
X4562Y6416D01*
X4586Y6402D01*
X4613Y6395D01*
X4614D01*
Y6487D01*
D02*
G37*
G36*
X6087Y6437D02*
X5965D01*
X5968Y6412D01*
X5982Y6379D01*
X6003Y6351D01*
X6032Y6329D01*
X6065Y6316D01*
X6087Y6313D01*
Y6437D01*
D02*
G37*
G36*
X6235D02*
X6113D01*
Y6313D01*
X6135Y6316D01*
X6168Y6329D01*
X6197Y6351D01*
X6218Y6379D01*
X6232Y6412D01*
X6235Y6437D01*
D02*
G37*
G36*
X6390Y5826D02*
X6363D01*
Y5723D01*
X6456D01*
Y5760D01*
X6454Y5777D01*
X6447Y5793D01*
X6437Y5807D01*
X6423Y5817D01*
X6407Y5824D01*
X6390Y5826D01*
D02*
G37*
G36*
X6337D02*
X6310D01*
X6293Y5824D01*
X6277Y5817D01*
X6263Y5807D01*
X6253Y5793D01*
X6246Y5777D01*
X6244Y5760D01*
Y5723D01*
X6337D01*
Y5826D01*
D02*
G37*
G36*
X6456Y5697D02*
X6350D01*
X6244D01*
Y5660D01*
X6246Y5643D01*
X6253Y5627D01*
X6263Y5613D01*
X6277Y5603D01*
X6293Y5596D01*
X6308Y5594D01*
X6310Y5589D01*
X6311Y5581D01*
X6295Y5572D01*
X6278Y5555D01*
X6266Y5535D01*
X6260Y5512D01*
Y5488D01*
X6266Y5465D01*
X6278Y5445D01*
X6295Y5428D01*
X6315Y5416D01*
X6338Y5410D01*
X6362D01*
X6385Y5416D01*
X6405Y5428D01*
X6422Y5445D01*
X6434Y5465D01*
X6440Y5488D01*
Y5512D01*
X6434Y5535D01*
X6422Y5555D01*
X6405Y5572D01*
X6389Y5581D01*
X6390Y5589D01*
X6392Y5594D01*
X6407Y5596D01*
X6423Y5603D01*
X6437Y5613D01*
X6447Y5627D01*
X6454Y5643D01*
X6456Y5660D01*
Y5697D01*
D02*
G37*
G36*
X4386Y5850D02*
X4360D01*
X4334Y5843D01*
X4312Y5830D01*
X4293Y5811D01*
X4280Y5789D01*
X4273Y5763D01*
Y5737D01*
X4280Y5711D01*
X4293Y5689D01*
X4312Y5670D01*
X4334Y5657D01*
X4340Y5655D01*
Y5542D01*
X4325D01*
Y5408D01*
X4425D01*
Y5542D01*
X4406D01*
Y5655D01*
X4412Y5657D01*
X4434Y5670D01*
X4453Y5689D01*
X4466Y5711D01*
X4473Y5737D01*
Y5763D01*
X4466Y5789D01*
X4453Y5811D01*
X4434Y5830D01*
X4412Y5843D01*
X4386Y5850D01*
D02*
G37*
G36*
X3318Y5435D02*
X3313D01*
Y5263D01*
X3485D01*
Y5268D01*
X3478Y5304D01*
X3464Y5338D01*
X3444Y5368D01*
X3418Y5394D01*
X3388Y5414D01*
X3354Y5428D01*
X3318Y5435D01*
D02*
G37*
G36*
X3287D02*
X3282D01*
X3246Y5428D01*
X3212Y5414D01*
X3182Y5394D01*
X3156Y5368D01*
X3136Y5338D01*
X3122Y5304D01*
X3115Y5268D01*
Y5263D01*
X3287D01*
Y5435D01*
D02*
G37*
G36*
X1218D02*
X1213D01*
Y5263D01*
X1385D01*
Y5268D01*
X1378Y5304D01*
X1364Y5338D01*
X1344Y5368D01*
X1318Y5394D01*
X1288Y5414D01*
X1254Y5428D01*
X1218Y5435D01*
D02*
G37*
G36*
X1187D02*
X1182D01*
X1146Y5428D01*
X1112Y5414D01*
X1082Y5394D01*
X1056Y5368D01*
X1036Y5338D01*
X1022Y5304D01*
X1015Y5268D01*
Y5263D01*
X1187D01*
Y5435D01*
D02*
G37*
G36*
X6362Y5390D02*
X6338D01*
X6315Y5384D01*
X6295Y5372D01*
X6278Y5355D01*
X6266Y5335D01*
X6260Y5312D01*
Y5288D01*
X6266Y5265D01*
X6278Y5245D01*
X6295Y5228D01*
X6315Y5216D01*
X6338Y5210D01*
X6362D01*
X6385Y5216D01*
X6405Y5228D01*
X6422Y5245D01*
X6434Y5265D01*
X6440Y5288D01*
Y5312D01*
X6434Y5335D01*
X6422Y5355D01*
X6405Y5372D01*
X6385Y5384D01*
X6362Y5390D01*
D02*
G37*
G36*
X3485Y5237D02*
X3313D01*
Y5065D01*
X3318D01*
X3354Y5072D01*
X3388Y5086D01*
X3418Y5106D01*
X3444Y5132D01*
X3464Y5162D01*
X3478Y5196D01*
X3485Y5232D01*
Y5237D01*
D02*
G37*
G36*
X1385D02*
X1213D01*
Y5065D01*
X1218D01*
X1254Y5072D01*
X1288Y5086D01*
X1318Y5106D01*
X1344Y5132D01*
X1364Y5162D01*
X1378Y5196D01*
X1385Y5232D01*
Y5237D01*
D02*
G37*
G36*
X1187D02*
X1015D01*
Y5232D01*
X1022Y5196D01*
X1036Y5162D01*
X1056Y5132D01*
X1082Y5106D01*
X1112Y5086D01*
X1146Y5072D01*
X1182Y5065D01*
X1187D01*
Y5237D01*
D02*
G37*
G36*
X6440Y5190D02*
X6260D01*
Y5010D01*
X6275D01*
X6277Y4997D01*
X6277Y4997D01*
X6263Y4987D01*
X6253Y4973D01*
X6246Y4957D01*
X6244Y4940D01*
Y4903D01*
X6350D01*
X6456D01*
Y4940D01*
X6454Y4957D01*
X6447Y4973D01*
X6437Y4987D01*
X6423Y4997D01*
X6423Y4997D01*
X6425Y5010D01*
X6440D01*
Y5190D01*
D02*
G37*
G36*
X630Y4900D02*
Y4838D01*
X683D01*
Y4900D01*
X630D01*
D02*
G37*
G36*
X1380Y4848D02*
X1338D01*
Y4788D01*
X1380D01*
Y4848D01*
D02*
G37*
G36*
X1312D02*
X1270D01*
Y4788D01*
X1312D01*
Y4848D01*
D02*
G37*
G36*
X6456Y4877D02*
X6363D01*
Y4774D01*
X6390D01*
X6407Y4776D01*
X6423Y4783D01*
X6437Y4793D01*
X6447Y4807D01*
X6454Y4823D01*
X6456Y4840D01*
Y4877D01*
D02*
G37*
G36*
X6337D02*
X6244D01*
Y4840D01*
X6246Y4823D01*
X6253Y4807D01*
X6263Y4793D01*
X6277Y4783D01*
X6293Y4776D01*
X6310Y4774D01*
X6337D01*
Y4877D01*
D02*
G37*
G36*
X4570Y4823D02*
X4508D01*
Y4738D01*
X4570D01*
Y4823D01*
D02*
G37*
G36*
X4482D02*
X4420D01*
Y4738D01*
X4482D01*
Y4823D01*
D02*
G37*
G36*
X1380Y4762D02*
X1338D01*
Y4702D01*
X1380D01*
Y4762D01*
D02*
G37*
G36*
X1312D02*
X1270D01*
Y4702D01*
X1312D01*
Y4762D01*
D02*
G37*
G36*
X5298Y4730D02*
X5213D01*
Y4668D01*
X5298D01*
Y4730D01*
D02*
G37*
G36*
X5187D02*
X5102D01*
Y4668D01*
X5187D01*
Y4730D01*
D02*
G37*
G36*
X5073Y4680D02*
X5013D01*
Y4638D01*
X5073D01*
Y4680D01*
D02*
G37*
G36*
X4987D02*
X4927D01*
Y4638D01*
X4987D01*
Y4680D01*
D02*
G37*
G36*
X4660Y4900D02*
X4640D01*
X4622Y4892D01*
X4608Y4878D01*
X4600Y4860D01*
Y4840D01*
X4604Y4830D01*
X4597Y4817D01*
X4585D01*
Y4633D01*
X4570D01*
Y4712D01*
X4495D01*
X4420D01*
Y4627D01*
X4462D01*
X4468Y4614D01*
X4444Y4591D01*
X4437Y4580D01*
X4434Y4567D01*
Y4560D01*
X4400D01*
Y4420D01*
X4490D01*
Y4415D01*
X4532D01*
Y4490D01*
X4558D01*
Y4415D01*
X4600D01*
Y4420D01*
X4690D01*
Y4560D01*
X4686D01*
Y4633D01*
X4725D01*
Y4817D01*
X4698D01*
Y4835D01*
X4700Y4840D01*
Y4860D01*
X4692Y4878D01*
X4678Y4892D01*
X4660Y4900D01*
D02*
G37*
G36*
X5298Y4642D02*
X5213D01*
Y4580D01*
X5298D01*
Y4642D01*
D02*
G37*
G36*
X5187D02*
X5102D01*
Y4580D01*
X5187D01*
Y4642D01*
D02*
G37*
G36*
X5073Y4612D02*
X5013D01*
Y4570D01*
X5073D01*
Y4612D01*
D02*
G37*
G36*
X4987D02*
X4927D01*
Y4570D01*
X4987D01*
Y4612D01*
D02*
G37*
G36*
X4375Y4458D02*
X4313D01*
Y4405D01*
X4375D01*
Y4458D01*
D02*
G37*
G36*
X4287D02*
X4225D01*
Y4405D01*
X4287D01*
Y4458D01*
D02*
G37*
G36*
X5675Y4440D02*
X5575D01*
Y4347D01*
X5511Y4283D01*
X5417D01*
Y4300D01*
X5283D01*
Y4200D01*
X5417D01*
Y4217D01*
X5525D01*
X5538Y4219D01*
X5548Y4227D01*
X5622Y4300D01*
X5637D01*
X5641Y4288D01*
X5554Y4201D01*
X5547D01*
X5544Y4200D01*
X5480D01*
Y4060D01*
X5494D01*
Y4042D01*
X5475D01*
Y3908D01*
X5575D01*
Y4042D01*
X5561D01*
Y4060D01*
X5580D01*
Y4137D01*
X5580Y4137D01*
X5591Y4144D01*
X5787Y4340D01*
X5800Y4338D01*
X5802Y4330D01*
X5802D01*
Y4288D01*
X5948D01*
Y4330D01*
X5942D01*
Y4425D01*
X5808D01*
Y4408D01*
X5775D01*
X5762Y4406D01*
X5752Y4398D01*
X5687Y4334D01*
X5675Y4338D01*
Y4440D01*
D02*
G37*
G36*
X5067Y4525D02*
X4933D01*
Y4425D01*
X4948D01*
X4955Y4415D01*
Y4275D01*
X5055D01*
Y4415D01*
X5062Y4425D01*
X5067D01*
Y4525D01*
D02*
G37*
G36*
X5948Y4262D02*
X5888D01*
Y4220D01*
X5948D01*
Y4262D01*
D02*
G37*
G36*
X5862D02*
X5802D01*
Y4220D01*
X5862D01*
Y4262D01*
D02*
G37*
G36*
X514Y4351D02*
X486D01*
X459Y4344D01*
X435Y4330D01*
X416Y4311D01*
X402Y4287D01*
X394Y4260D01*
Y4232D01*
X402Y4205D01*
X416Y4181D01*
X435Y4162D01*
X459Y4148D01*
X486Y4140D01*
X514D01*
X541Y4148D01*
X565Y4162D01*
X584Y4181D01*
X598Y4205D01*
X605Y4232D01*
Y4260D01*
X598Y4287D01*
X584Y4311D01*
X565Y4330D01*
X541Y4344D01*
X514Y4351D01*
D02*
G37*
G36*
X4375Y4380D02*
X4300D01*
X4225D01*
Y4328D01*
X4225Y4327D01*
X4230Y4317D01*
X4230Y4314D01*
Y4197D01*
X4370D01*
Y4224D01*
X4400D01*
Y4180D01*
X4410D01*
X4420Y4173D01*
X4420Y4167D01*
Y4088D01*
X4495D01*
X4570D01*
Y4173D01*
X4510D01*
X4500Y4180D01*
X4500Y4186D01*
Y4320D01*
X4400D01*
Y4291D01*
X4379D01*
X4370Y4300D01*
X4370Y4317D01*
X4375Y4327D01*
X4375Y4328D01*
Y4380D01*
D02*
G37*
G36*
X4575Y5542D02*
X4475D01*
Y5408D01*
X4575D01*
Y5438D01*
X4588Y5440D01*
X4817Y5211D01*
Y4175D01*
X4819Y4162D01*
X4827Y4152D01*
X4897Y4082D01*
X4907Y4074D01*
X4920Y4072D01*
X4955D01*
Y4036D01*
X4955Y4035D01*
X4954Y4023D01*
X4945D01*
Y3938D01*
X5020D01*
Y3925D01*
X5033D01*
Y3827D01*
X5092D01*
X5095Y3827D01*
X5104Y3818D01*
Y3775D01*
X5107Y3757D01*
X5114Y3740D01*
X5125Y3725D01*
X5140Y3714D01*
X5157Y3707D01*
X5175Y3704D01*
X5193Y3707D01*
X5210Y3714D01*
X5225Y3725D01*
X5236Y3740D01*
X5243Y3757D01*
X5246Y3775D01*
Y3833D01*
X5250D01*
Y4017D01*
X5228D01*
Y4035D01*
X5245D01*
Y4067D01*
X5283D01*
Y4050D01*
X5417D01*
Y4150D01*
X5283D01*
Y4133D01*
X5245D01*
Y4175D01*
X5155D01*
Y4180D01*
X5113D01*
Y4105D01*
X5087D01*
Y4180D01*
X5045D01*
Y4175D01*
X4955D01*
Y4138D01*
X4934D01*
X4883Y4189D01*
Y5225D01*
X4881Y5238D01*
X4873Y5248D01*
X4623Y5498D01*
X4613Y5506D01*
X4600Y5508D01*
X4575D01*
Y5542D01*
D02*
G37*
G36*
X4570Y4062D02*
X4508D01*
Y3977D01*
X4570D01*
Y4062D01*
D02*
G37*
G36*
X4482D02*
X4420D01*
Y3977D01*
X4482D01*
Y4062D01*
D02*
G37*
G36*
X5770Y4200D02*
X5670D01*
Y4061D01*
X5670Y4060D01*
X5669Y4048D01*
X5620D01*
Y3988D01*
X5675D01*
X5730D01*
Y4047D01*
X5730Y4048D01*
X5732Y4060D01*
X5767D01*
Y4038D01*
X5758Y4028D01*
X5750Y4010D01*
Y3990D01*
X5758Y3972D01*
X5772Y3958D01*
X5790Y3950D01*
X5810D01*
X5828Y3958D01*
X5842Y3972D01*
X5850Y3990D01*
Y4010D01*
X5842Y4028D01*
X5833Y4038D01*
Y4075D01*
X5942D01*
Y4175D01*
X5808D01*
Y4158D01*
X5770D01*
Y4200D01*
D02*
G37*
G36*
X5730Y3962D02*
X5688D01*
Y3902D01*
X5730D01*
Y3962D01*
D02*
G37*
G36*
X5662D02*
X5620D01*
Y3902D01*
X5662D01*
Y3962D01*
D02*
G37*
G36*
X514Y4097D02*
X486D01*
X459Y4090D01*
X435Y4076D01*
X416Y4057D01*
X402Y4033D01*
X394Y4006D01*
Y3978D01*
X402Y3951D01*
X416Y3927D01*
X435Y3908D01*
X459Y3894D01*
X486Y3887D01*
X514D01*
X541Y3894D01*
X565Y3908D01*
X584Y3927D01*
X598Y3951D01*
X605Y3978D01*
Y4006D01*
X598Y4033D01*
X584Y4057D01*
X565Y4076D01*
X541Y4090D01*
X514Y4097D01*
D02*
G37*
G36*
X6476Y3988D02*
X6441D01*
X6426Y3985D01*
X6414Y3976D01*
X6406Y3964D01*
X6403Y3949D01*
Y3884D01*
X6476D01*
Y3988D01*
D02*
G37*
G36*
X6131Y3988D02*
X6084D01*
Y3884D01*
X6172D01*
Y3947D01*
X6169Y3962D01*
X6160Y3976D01*
X6147Y3985D01*
X6131Y3988D01*
D02*
G37*
G36*
X6058D02*
X6011D01*
X5995Y3985D01*
X5982Y3976D01*
X5973Y3962D01*
X5970Y3947D01*
Y3884D01*
X6058D01*
Y3988D01*
D02*
G37*
G36*
X5007Y3912D02*
X4945D01*
Y3827D01*
X5007D01*
Y3912D01*
D02*
G37*
G36*
X6476Y3859D02*
X6403D01*
Y3794D01*
X6406Y3779D01*
X6414Y3767D01*
X6426Y3758D01*
X6441Y3755D01*
X6476D01*
Y3859D01*
D02*
G37*
G36*
X515Y3849D02*
X513D01*
Y3751D01*
X611D01*
Y3753D01*
X603Y3781D01*
X589Y3806D01*
X568Y3827D01*
X543Y3841D01*
X515Y3849D01*
D02*
G37*
G36*
X487D02*
X485D01*
X457Y3841D01*
X432Y3827D01*
X411Y3806D01*
X397Y3781D01*
X389Y3753D01*
Y3751D01*
X487D01*
Y3849D01*
D02*
G37*
G36*
X5968Y3744D02*
X5913D01*
X5901Y3742D01*
X5891Y3736D01*
X5885Y3726D01*
X5883Y3716D01*
X5968D01*
Y3744D01*
D02*
G37*
G36*
X611Y3725D02*
X513D01*
Y3627D01*
X515D01*
X543Y3635D01*
X568Y3649D01*
X589Y3670D01*
X603Y3695D01*
X611Y3723D01*
Y3725D01*
D02*
G37*
G36*
X487D02*
X389D01*
Y3723D01*
X397Y3695D01*
X411Y3670D01*
X432Y3649D01*
X457Y3635D01*
X485Y3627D01*
X487D01*
Y3725D01*
D02*
G37*
G36*
X5655Y3623D02*
X5613D01*
Y3563D01*
X5655D01*
Y3623D01*
D02*
G37*
G36*
X5587D02*
X5545D01*
Y3563D01*
X5587D01*
Y3623D01*
D02*
G37*
G36*
X514Y3590D02*
X486D01*
X459Y3582D01*
X435Y3568D01*
X416Y3549D01*
X402Y3525D01*
X394Y3498D01*
Y3470D01*
X402Y3443D01*
X416Y3419D01*
X435Y3400D01*
X459Y3386D01*
X486Y3378D01*
X514D01*
X541Y3386D01*
X565Y3400D01*
X584Y3419D01*
X598Y3443D01*
X605Y3470D01*
Y3498D01*
X598Y3525D01*
X584Y3549D01*
X565Y3568D01*
X541Y3582D01*
X514Y3590D01*
D02*
G37*
G36*
X5655Y3287D02*
X5613D01*
Y3227D01*
X5655D01*
Y3287D01*
D02*
G37*
G36*
X5587D02*
X5545D01*
Y3227D01*
X5587D01*
Y3287D01*
D02*
G37*
G36*
X514Y3335D02*
X486D01*
X459Y3328D01*
X435Y3314D01*
X416Y3295D01*
X402Y3271D01*
X394Y3244D01*
Y3216D01*
X402Y3189D01*
X416Y3165D01*
X435Y3146D01*
X459Y3132D01*
X486Y3125D01*
X514D01*
X541Y3132D01*
X565Y3146D01*
X584Y3165D01*
X598Y3189D01*
X605Y3216D01*
Y3244D01*
X598Y3271D01*
X584Y3295D01*
X565Y3314D01*
X541Y3328D01*
X514Y3335D01*
D02*
G37*
G36*
X5518Y3185D02*
X5513D01*
Y3013D01*
X5685D01*
Y3018D01*
X5678Y3054D01*
X5664Y3088D01*
X5644Y3118D01*
X5618Y3144D01*
X5588Y3164D01*
X5554Y3178D01*
X5518Y3185D01*
D02*
G37*
G36*
X5487D02*
X5482D01*
X5446Y3178D01*
X5412Y3164D01*
X5382Y3144D01*
X5356Y3118D01*
X5336Y3088D01*
X5322Y3054D01*
X5315Y3018D01*
Y3013D01*
X5487D01*
Y3185D01*
D02*
G37*
G36*
X1118D02*
X1113D01*
Y3013D01*
X1285D01*
Y3018D01*
X1278Y3054D01*
X1264Y3088D01*
X1244Y3118D01*
X1218Y3144D01*
X1188Y3164D01*
X1154Y3178D01*
X1118Y3185D01*
D02*
G37*
G36*
X1087D02*
X1082D01*
X1046Y3178D01*
X1012Y3164D01*
X982Y3144D01*
X956Y3118D01*
X936Y3088D01*
X922Y3054D01*
X915Y3018D01*
Y3013D01*
X1087D01*
Y3185D01*
D02*
G37*
G36*
X5968Y3011D02*
X5883D01*
X5885Y3001D01*
X5891Y2991D01*
X5901Y2985D01*
X5913Y2983D01*
X5968D01*
Y3011D01*
D02*
G37*
G36*
X6476Y2972D02*
X6441D01*
X6426Y2969D01*
X6414Y2960D01*
X6406Y2948D01*
X6403Y2933D01*
Y2868D01*
X6476D01*
Y2972D01*
D02*
G37*
G36*
X5685Y2987D02*
X5513D01*
Y2815D01*
X5518D01*
X5554Y2822D01*
X5588Y2836D01*
X5618Y2856D01*
X5644Y2882D01*
X5664Y2912D01*
X5678Y2946D01*
X5685Y2982D01*
Y2987D01*
D02*
G37*
G36*
X5487D02*
X5315D01*
Y2982D01*
X5322Y2946D01*
X5336Y2912D01*
X5356Y2882D01*
X5382Y2856D01*
X5412Y2836D01*
X5446Y2822D01*
X5482Y2815D01*
X5487D01*
Y2987D01*
D02*
G37*
G36*
X1285D02*
X1113D01*
Y2815D01*
X1118D01*
X1154Y2822D01*
X1188Y2836D01*
X1218Y2856D01*
X1244Y2882D01*
X1264Y2912D01*
X1278Y2946D01*
X1285Y2982D01*
Y2987D01*
D02*
G37*
G36*
X1087D02*
X915D01*
Y2982D01*
X922Y2946D01*
X936Y2912D01*
X956Y2882D01*
X982Y2856D01*
X1012Y2836D01*
X1046Y2822D01*
X1082Y2815D01*
X1087D01*
Y2987D01*
D02*
G37*
G36*
X6476Y2843D02*
X6403D01*
Y2777D01*
X6406Y2763D01*
X6414Y2751D01*
X6426Y2742D01*
X6441Y2739D01*
X6476D01*
Y2843D01*
D02*
G37*
G36*
X6172Y2843D02*
X6084D01*
Y2739D01*
X6131D01*
X6147Y2742D01*
X6160Y2751D01*
X6169Y2765D01*
X6172Y2781D01*
Y2843D01*
D02*
G37*
G36*
X6058D02*
X5970D01*
Y2781D01*
X5973Y2765D01*
X5982Y2751D01*
X5995Y2742D01*
X6011Y2739D01*
X6058D01*
Y2843D01*
D02*
G37*
G36*
X4300Y2595D02*
X4238D01*
Y2542D01*
X4300D01*
Y2595D01*
D02*
G37*
G36*
X4212D02*
X4150D01*
Y2542D01*
X4212D01*
Y2595D01*
D02*
G37*
G36*
X1048Y2480D02*
X988D01*
Y2438D01*
X1048D01*
Y2480D01*
D02*
G37*
G36*
X962D02*
X902D01*
Y2438D01*
X962D01*
Y2480D01*
D02*
G37*
G36*
X2385Y2425D02*
X2365D01*
X2347Y2417D01*
X2337Y2408D01*
X1543D01*
Y2425D01*
X1407D01*
Y2325D01*
X1543D01*
Y2342D01*
X2337D01*
X2347Y2333D01*
X2365Y2325D01*
X2385D01*
X2403Y2333D01*
X2417Y2347D01*
X2425Y2365D01*
Y2385D01*
X2417Y2403D01*
X2403Y2417D01*
X2385Y2425D01*
D02*
G37*
G36*
X1223Y2430D02*
X1163D01*
Y2388D01*
X1223D01*
Y2430D01*
D02*
G37*
G36*
X1137D02*
X1077D01*
Y2388D01*
X1137D01*
Y2430D01*
D02*
G37*
G36*
X1048Y2412D02*
X988D01*
Y2370D01*
X1048D01*
Y2412D01*
D02*
G37*
G36*
X962D02*
X902D01*
Y2370D01*
X962D01*
Y2412D01*
D02*
G37*
G36*
X1223Y2362D02*
X1163D01*
Y2320D01*
X1223D01*
Y2362D01*
D02*
G37*
G36*
X1137D02*
X1077D01*
Y2320D01*
X1137D01*
Y2362D01*
D02*
G37*
G36*
X6118Y2435D02*
X6113D01*
Y2263D01*
X6285D01*
Y2268D01*
X6278Y2304D01*
X6264Y2338D01*
X6244Y2368D01*
X6218Y2394D01*
X6188Y2414D01*
X6154Y2428D01*
X6118Y2435D01*
D02*
G37*
G36*
X6087D02*
X6082D01*
X6046Y2428D01*
X6012Y2414D01*
X5982Y2394D01*
X5956Y2368D01*
X5936Y2338D01*
X5922Y2304D01*
X5915Y2268D01*
Y2263D01*
X6087D01*
Y2435D01*
D02*
G37*
G36*
X518D02*
X513D01*
Y2263D01*
X685D01*
Y2268D01*
X678Y2304D01*
X664Y2338D01*
X644Y2368D01*
X618Y2394D01*
X588Y2414D01*
X554Y2428D01*
X518Y2435D01*
D02*
G37*
G36*
X487D02*
X482D01*
X446Y2428D01*
X412Y2414D01*
X382Y2394D01*
X356Y2368D01*
X336Y2338D01*
X322Y2304D01*
X315Y2268D01*
Y2263D01*
X487D01*
Y2435D01*
D02*
G37*
G36*
X1393Y2275D02*
X1257D01*
Y2258D01*
X1218D01*
Y2275D01*
X1082D01*
Y2175D01*
X1119D01*
Y2141D01*
X1110D01*
X1090Y2138D01*
X1074Y2127D01*
X1063Y2110D01*
X1059Y2091D01*
X1063Y2071D01*
X1074Y2054D01*
X1090Y2043D01*
X1110Y2040D01*
X1195D01*
X1215Y2043D01*
X1231Y2054D01*
X1233Y2057D01*
X1296D01*
X1467Y1886D01*
Y1602D01*
X1430D01*
Y1482D01*
X1570D01*
Y1602D01*
X1533D01*
Y1900D01*
X1531Y1913D01*
X1523Y1923D01*
X1333Y2114D01*
X1322Y2121D01*
X1310Y2124D01*
X1233D01*
X1231Y2127D01*
X1215Y2138D01*
X1195Y2141D01*
X1186D01*
Y2175D01*
X1218D01*
Y2192D01*
X1257D01*
Y2175D01*
X1393D01*
Y2275D01*
D02*
G37*
G36*
X1043Y2325D02*
X907D01*
Y2227D01*
X905D01*
Y2108D01*
X1045D01*
Y2227D01*
X1043D01*
Y2325D01*
D02*
G37*
G36*
X1740Y2147D02*
X1710D01*
Y2103D01*
X1794D01*
X1792Y2112D01*
X1780Y2130D01*
X1762Y2143D01*
X1740Y2147D01*
D02*
G37*
G36*
X1685D02*
X1655D01*
X1633Y2143D01*
X1615Y2130D01*
X1603Y2112D01*
X1601Y2103D01*
X1685D01*
Y2147D01*
D02*
G37*
G36*
X6285Y2237D02*
X6113D01*
Y2065D01*
X6118D01*
X6154Y2072D01*
X6188Y2086D01*
X6218Y2106D01*
X6244Y2132D01*
X6264Y2162D01*
X6278Y2196D01*
X6285Y2232D01*
Y2237D01*
D02*
G37*
G36*
X6087D02*
X5915D01*
Y2232D01*
X5922Y2196D01*
X5936Y2162D01*
X5956Y2132D01*
X5982Y2106D01*
X6012Y2086D01*
X6046Y2072D01*
X6082Y2065D01*
X6087D01*
Y2237D01*
D02*
G37*
G36*
X685D02*
X513D01*
Y2065D01*
X518D01*
X554Y2072D01*
X588Y2086D01*
X618Y2106D01*
X644Y2132D01*
X664Y2162D01*
X678Y2196D01*
X685Y2232D01*
Y2237D01*
D02*
G37*
G36*
X487D02*
X315D01*
Y2232D01*
X322Y2196D01*
X336Y2162D01*
X356Y2132D01*
X382Y2106D01*
X412Y2086D01*
X446Y2072D01*
X482Y2065D01*
X487D01*
Y2237D01*
D02*
G37*
G36*
X1794Y2078D02*
X1710D01*
Y2034D01*
X1740D01*
X1762Y2038D01*
X1780Y2051D01*
X1792Y2069D01*
X1794Y2078D01*
D02*
G37*
G36*
X1685D02*
X1601D01*
X1603Y2069D01*
X1615Y2051D01*
X1633Y2038D01*
X1655Y2034D01*
X1685D01*
Y2078D01*
D02*
G37*
G36*
X1543Y2275D02*
X1407D01*
Y2175D01*
X1442D01*
Y2075D01*
X1444Y2062D01*
X1452Y2052D01*
X1563Y1940D01*
X1574Y1933D01*
X1586Y1930D01*
X1617D01*
X1619Y1927D01*
X1635Y1916D01*
X1655Y1913D01*
X1740D01*
X1760Y1916D01*
X1776Y1927D01*
X1787Y1944D01*
X1791Y1964D01*
X1787Y1983D01*
X1776Y2000D01*
X1760Y2011D01*
X1740Y2014D01*
X1655D01*
X1635Y2011D01*
X1619Y2000D01*
X1617Y1997D01*
X1600D01*
X1508Y2089D01*
Y2175D01*
X1543D01*
Y2275D01*
D02*
G37*
G36*
X1045Y2092D02*
X905D01*
Y1973D01*
X942D01*
Y1950D01*
X907D01*
Y1850D01*
X1043D01*
Y1930D01*
X1072D01*
X1074Y1927D01*
X1090Y1916D01*
X1110Y1913D01*
X1195D01*
X1215Y1916D01*
X1231Y1927D01*
X1242Y1944D01*
X1246Y1964D01*
X1242Y1983D01*
X1231Y2000D01*
X1215Y2011D01*
X1195Y2014D01*
X1110D01*
X1090Y2011D01*
X1074Y2000D01*
X1072Y1997D01*
X1045D01*
Y2092D01*
D02*
G37*
G36*
X1740Y1887D02*
X1655D01*
X1635Y1884D01*
X1619Y1873D01*
X1608Y1856D01*
X1604Y1836D01*
X1608Y1817D01*
X1619Y1800D01*
X1635Y1789D01*
X1655Y1786D01*
X1740D01*
X1760Y1789D01*
X1776Y1800D01*
X1778Y1803D01*
X1825D01*
X1842Y1786D01*
Y1743D01*
X1778D01*
X1776Y1746D01*
X1760Y1757D01*
X1740Y1760D01*
X1655D01*
X1635Y1757D01*
X1619Y1746D01*
X1608Y1729D01*
X1604Y1709D01*
X1608Y1690D01*
X1619Y1673D01*
X1635Y1662D01*
X1655Y1659D01*
X1740D01*
X1760Y1662D01*
X1776Y1673D01*
X1778Y1676D01*
X1842D01*
Y1589D01*
X1836Y1583D01*
X1792D01*
Y1600D01*
X1608D01*
Y1460D01*
X1792D01*
Y1517D01*
X1850D01*
X1863Y1519D01*
X1873Y1527D01*
X1898Y1552D01*
X1906Y1562D01*
X1908Y1575D01*
Y1725D01*
Y1800D01*
X1906Y1813D01*
X1898Y1823D01*
X1862Y1860D01*
X1851Y1867D01*
X1839Y1870D01*
X1778D01*
X1776Y1873D01*
X1760Y1884D01*
X1740Y1887D01*
D02*
G37*
G36*
X1380Y1623D02*
X1318D01*
Y1538D01*
X1380D01*
Y1623D01*
D02*
G37*
G36*
X1292D02*
X1230D01*
Y1538D01*
X1292D01*
Y1623D01*
D02*
G37*
G36*
X1380Y1512D02*
X1318D01*
Y1427D01*
X1380D01*
Y1512D01*
D02*
G37*
G36*
X1292D02*
X1230D01*
Y1427D01*
X1292D01*
Y1512D01*
D02*
G37*
G36*
X4911Y1511D02*
X4813D01*
Y1413D01*
X4911D01*
Y1511D01*
D02*
G37*
G36*
X2021D02*
X2019D01*
Y1413D01*
X2117D01*
Y1415D01*
X2109Y1443D01*
X2095Y1468D01*
X2074Y1489D01*
X2049Y1503D01*
X2021Y1511D01*
D02*
G37*
G36*
X1993D02*
X1991D01*
X1963Y1503D01*
X1938Y1489D01*
X1917Y1468D01*
X1903Y1443D01*
X1895Y1415D01*
Y1413D01*
X1993D01*
Y1511D01*
D02*
G37*
G36*
X4787D02*
X4689D01*
Y1413D01*
X4787D01*
Y1511D01*
D02*
G37*
G36*
X4306Y1506D02*
X4278D01*
X4251Y1498D01*
X4227Y1484D01*
X4208Y1465D01*
X4194Y1441D01*
X4187Y1414D01*
Y1386D01*
X4194Y1359D01*
X4208Y1335D01*
X4227Y1316D01*
X4251Y1302D01*
X4278Y1294D01*
X4306D01*
X4333Y1302D01*
X4357Y1316D01*
X4376Y1335D01*
X4390Y1359D01*
X4397Y1386D01*
Y1414D01*
X4390Y1441D01*
X4376Y1465D01*
X4357Y1484D01*
X4333Y1498D01*
X4306Y1506D01*
D02*
G37*
G36*
X2782D02*
X2754D01*
X2727Y1498D01*
X2703Y1484D01*
X2684Y1465D01*
X2670Y1441D01*
X2662Y1414D01*
Y1386D01*
X2670Y1359D01*
X2684Y1335D01*
X2703Y1316D01*
X2727Y1302D01*
X2754Y1294D01*
X2782D01*
X2809Y1302D01*
X2833Y1316D01*
X2852Y1335D01*
X2866Y1359D01*
X2874Y1386D01*
Y1414D01*
X2866Y1441D01*
X2852Y1465D01*
X2833Y1484D01*
X2809Y1498D01*
X2782Y1506D01*
D02*
G37*
G36*
X2274D02*
X2246D01*
X2219Y1498D01*
X2195Y1484D01*
X2176Y1465D01*
X2162Y1441D01*
X2155Y1414D01*
Y1386D01*
X2162Y1359D01*
X2176Y1335D01*
X2195Y1316D01*
X2219Y1302D01*
X2246Y1294D01*
X2274D01*
X2301Y1302D01*
X2325Y1316D01*
X2344Y1335D01*
X2358Y1359D01*
X2366Y1386D01*
Y1414D01*
X2358Y1441D01*
X2344Y1465D01*
X2325Y1484D01*
X2301Y1498D01*
X2274Y1506D01*
D02*
G37*
G36*
X4787Y1387D02*
X4689D01*
Y1289D01*
X4787D01*
Y1387D01*
D02*
G37*
G36*
X2117D02*
X2019D01*
Y1289D01*
X2021D01*
X2049Y1297D01*
X2074Y1311D01*
X2095Y1332D01*
X2109Y1357D01*
X2117Y1385D01*
Y1387D01*
D02*
G37*
G36*
X1993D02*
X1895D01*
Y1385D01*
X1903Y1357D01*
X1917Y1332D01*
X1938Y1311D01*
X1963Y1297D01*
X1991Y1289D01*
X1993D01*
Y1387D01*
D02*
G37*
G36*
X5189Y905D02*
X5188D01*
Y813D01*
X5280D01*
Y814D01*
X5273Y840D01*
X5259Y864D01*
X5239Y884D01*
X5215Y898D01*
X5189Y905D01*
D02*
G37*
G36*
X5162D02*
X5161D01*
X5135Y898D01*
X5111Y884D01*
X5091Y864D01*
X5077Y840D01*
X5070Y814D01*
Y813D01*
X5162D01*
Y905D01*
D02*
G37*
G36*
X5280Y787D02*
X5188D01*
Y695D01*
X5189D01*
X5215Y702D01*
X5239Y716D01*
X5259Y736D01*
X5273Y760D01*
X5280Y786D01*
Y787D01*
D02*
G37*
G36*
X5162D02*
X5070D01*
Y786D01*
X5077Y760D01*
X5091Y736D01*
X5111Y716D01*
X5135Y702D01*
X5161Y695D01*
X5162D01*
Y787D01*
D02*
G37*
G36*
X1611Y611D02*
X1513D01*
Y513D01*
X1611D01*
Y611D01*
D02*
G37*
G36*
X1487D02*
X1389D01*
Y513D01*
X1487D01*
Y611D01*
D02*
G37*
G36*
X1570Y1468D02*
X1430D01*
Y1394D01*
X969Y933D01*
X961Y922D01*
X959Y910D01*
Y600D01*
X951Y598D01*
X927Y584D01*
X908Y565D01*
X894Y541D01*
X886Y514D01*
Y486D01*
X894Y459D01*
X908Y435D01*
X927Y416D01*
X951Y402D01*
X978Y394D01*
X1006D01*
X1033Y402D01*
X1057Y416D01*
X1076Y435D01*
X1090Y459D01*
X1098Y486D01*
Y514D01*
X1090Y541D01*
X1076Y565D01*
X1057Y584D01*
X1033Y598D01*
X1025Y600D01*
Y896D01*
X1477Y1348D01*
X1558D01*
X1565Y1348D01*
X1571Y1335D01*
X1223Y987D01*
X1215Y976D01*
X1213Y964D01*
Y600D01*
X1205Y598D01*
X1181Y584D01*
X1162Y565D01*
X1148Y541D01*
X1140Y514D01*
Y486D01*
X1148Y459D01*
X1162Y435D01*
X1181Y416D01*
X1205Y402D01*
X1232Y394D01*
X1260D01*
X1287Y402D01*
X1311Y416D01*
X1330Y435D01*
X1344Y459D01*
X1352Y486D01*
Y514D01*
X1344Y541D01*
X1330Y565D01*
X1311Y584D01*
X1287Y598D01*
X1279Y600D01*
Y950D01*
X1629Y1300D01*
X1792D01*
Y1440D01*
X1608D01*
Y1372D01*
X1582Y1347D01*
X1570Y1352D01*
X1570Y1359D01*
Y1468D01*
D02*
G37*
G36*
X1611Y487D02*
X1513D01*
Y389D01*
X1611D01*
Y487D01*
D02*
G37*
G36*
X1487D02*
X1389D01*
Y389D01*
X1487D01*
Y487D01*
D02*
G37*
%LPD*%
G36*
X3450Y4005D02*
X3525D01*
Y3980D01*
X3450D01*
Y3927D01*
X3450D01*
X3455Y3917D01*
Y3797D01*
X3595D01*
Y3824D01*
X3607D01*
X3616Y3812D01*
X3614Y3805D01*
Y3690D01*
X3617Y3676D01*
X3625Y3665D01*
X3636Y3657D01*
X3650Y3654D01*
X3664Y3657D01*
X3670Y3662D01*
X3671Y3661D01*
X3684Y3652D01*
X3687Y3651D01*
Y3747D01*
X3713D01*
Y3651D01*
X3716Y3652D01*
X3729Y3661D01*
X3730Y3662D01*
X3736Y3657D01*
X3750Y3654D01*
X3764Y3657D01*
X3775Y3665D01*
X3786Y3657D01*
X3800Y3654D01*
X3814Y3657D01*
X3825Y3665D01*
X3836Y3657D01*
X3850Y3654D01*
X3864Y3657D01*
X3875Y3665D01*
X3886Y3657D01*
X3900Y3654D01*
X3914Y3657D01*
X3925Y3665D01*
X3936Y3657D01*
X3950Y3654D01*
X3964Y3657D01*
X3975Y3665D01*
X3986Y3657D01*
X4000Y3654D01*
X4004Y3655D01*
X4017Y3645D01*
Y3575D01*
X4019Y3562D01*
X4027Y3552D01*
X4150Y3428D01*
Y3415D01*
X4158Y3397D01*
X4159Y3395D01*
X4155Y3383D01*
X3889D01*
X3789Y3483D01*
X3778Y3490D01*
X3766Y3492D01*
X3694D01*
X3683Y3503D01*
X3664Y3511D01*
X3644D01*
X3626Y3503D01*
X3612Y3489D01*
X3604Y3471D01*
Y3468D01*
X3600Y3466D01*
X3592Y3466D01*
X3586Y3476D01*
X3593Y3486D01*
X3596Y3500D01*
X3593Y3514D01*
X3585Y3525D01*
X3593Y3536D01*
X3596Y3550D01*
X3593Y3564D01*
X3585Y3575D01*
X3593Y3586D01*
X3596Y3600D01*
X3593Y3614D01*
X3585Y3625D01*
X3574Y3633D01*
X3560Y3636D01*
X3445D01*
X3432Y3633D01*
X3389D01*
X3380Y3642D01*
X3385Y3655D01*
X3403D01*
Y3795D01*
X3286D01*
X3283Y3795D01*
X3273Y3800D01*
X3272Y3800D01*
X3220D01*
Y3725D01*
Y3650D01*
X3272D01*
X3273Y3650D01*
X3283Y3655D01*
X3286Y3655D01*
X3309D01*
Y3633D01*
X3312Y3620D01*
X3319Y3609D01*
X3352Y3577D01*
X3362Y3569D01*
X3375Y3567D01*
X3400D01*
X3410Y3554D01*
X3409Y3550D01*
X3410Y3546D01*
X3400Y3533D01*
X3214D01*
X3023Y3723D01*
X3013Y3731D01*
X3000Y3733D01*
X2985D01*
Y3770D01*
X2765D01*
Y3770D01*
X2752D01*
Y3770D01*
X2633D01*
X2623Y3775D01*
Y3775D01*
X2570D01*
Y3700D01*
Y3625D01*
X2600D01*
Y3600D01*
X2570D01*
Y3525D01*
X2558D01*
Y3512D01*
X2492D01*
Y3450D01*
X2492D01*
X2498Y3445D01*
Y3305D01*
X2498Y3305D01*
X2498D01*
X2495Y3292D01*
X2494Y3291D01*
X2487Y3281D01*
X2484Y3269D01*
Y3161D01*
X2487Y3149D01*
X2494Y3139D01*
X2504Y3132D01*
X2516Y3129D01*
X2589D01*
X2642Y3077D01*
X2652Y3069D01*
X2662Y3067D01*
X2667Y3061D01*
X2669Y3054D01*
X2667Y3051D01*
X2664Y3039D01*
Y2931D01*
X2667Y2919D01*
X2671Y2913D01*
X2665Y2900D01*
X2643D01*
X2636Y2913D01*
X2638Y2917D01*
X2641Y2931D01*
Y2972D01*
X2560D01*
X2479D01*
Y2931D01*
X2482Y2917D01*
X2490Y2905D01*
X2502Y2897D01*
X2516Y2894D01*
X2542D01*
Y2838D01*
X2608D01*
Y2825D01*
X2620D01*
Y2750D01*
X2672D01*
X2673Y2750D01*
X2683Y2755D01*
X2686Y2755D01*
X2802D01*
Y2895D01*
X2802Y2895D01*
X2802D01*
X2805Y2908D01*
X2806Y2909D01*
X2813Y2919D01*
X2816Y2931D01*
Y3024D01*
X2835Y3043D01*
X2844Y3049D01*
X2896Y3101D01*
X2902Y3110D01*
X2988Y3196D01*
D01*
X3110Y3318D01*
X3384D01*
X3392Y3317D01*
X3400D01*
X3410Y3304D01*
X3409Y3300D01*
X3412Y3286D01*
X3417Y3280D01*
X3416Y3279D01*
X3407Y3266D01*
X3406Y3263D01*
X3503D01*
Y3237D01*
X3398D01*
X3394Y3233D01*
X3353D01*
Y3270D01*
X3236D01*
X3233Y3270D01*
X3223Y3275D01*
X3222Y3275D01*
X3170D01*
Y3200D01*
X3158D01*
Y3187D01*
X3092D01*
Y3133D01*
X3092Y3125D01*
X3094Y3113D01*
Y2979D01*
X3106D01*
Y2796D01*
X3000Y2690D01*
D01*
X2985Y2675D01*
X2956Y2646D01*
X2169D01*
Y4042D01*
X3450D01*
Y4005D01*
D02*
G37*
G36*
X3040Y3405D02*
X2833Y3198D01*
X2823Y3202D01*
X2740D01*
Y3228D01*
X2821D01*
Y3269D01*
X2818Y3283D01*
X2810Y3295D01*
X2798Y3303D01*
X2784Y3306D01*
X2758D01*
Y3370D01*
X2765Y3380D01*
X2985D01*
Y3417D01*
X3035D01*
X3040Y3405D01*
D02*
G37*
G36*
X4195Y3008D02*
X4191Y2994D01*
X4186Y2993D01*
X4180Y2988D01*
X4179Y2989D01*
X4166Y2998D01*
X4163Y2999D01*
Y2902D01*
X4137D01*
Y2999D01*
X4134Y2998D01*
X4121Y2989D01*
X4120Y2988D01*
X4114Y2993D01*
X4100Y2996D01*
X4086Y2993D01*
X4075Y2985D01*
X4064Y2993D01*
X4050Y2996D01*
X4036Y2993D01*
X4025Y2985D01*
X4014Y2993D01*
X4000Y2996D01*
X3986Y2993D01*
X3975Y2985D01*
X3964Y2993D01*
X3950Y2996D01*
X3936Y2993D01*
X3925Y2985D01*
X3914Y2993D01*
X3900Y2996D01*
X3896Y2995D01*
X3895Y2995D01*
X3889Y3006D01*
X3892Y3010D01*
X3900Y3028D01*
Y3048D01*
X3897Y3055D01*
X3906Y3068D01*
X4135D01*
X4195Y3008D01*
D02*
G37*
%LPC*%
G36*
X3195Y3800D02*
X3142D01*
Y3738D01*
X3195D01*
Y3800D01*
D02*
G37*
G36*
X2545Y3775D02*
X2492D01*
Y3713D01*
X2545D01*
Y3775D01*
D02*
G37*
G36*
X3195Y3712D02*
X3142D01*
Y3650D01*
X3195D01*
Y3712D01*
D02*
G37*
G36*
X2545Y3687D02*
X2492D01*
Y3625D01*
X2545D01*
Y3687D01*
D02*
G37*
G36*
X2545Y3600D02*
X2492D01*
Y3538D01*
X2545D01*
Y3600D01*
D02*
G37*
G36*
X3145Y3275D02*
X3092D01*
Y3213D01*
X3145D01*
Y3275D01*
D02*
G37*
G36*
X2604Y3076D02*
X2573D01*
Y2998D01*
X2641D01*
Y3039D01*
X2638Y3053D01*
X2630Y3065D01*
X2618Y3073D01*
X2604Y3076D01*
D02*
G37*
G36*
X2547D02*
X2516D01*
X2502Y3073D01*
X2490Y3065D01*
X2482Y3053D01*
X2479Y3039D01*
Y2998D01*
X2547D01*
Y3076D01*
D02*
G37*
G36*
X2595Y2812D02*
X2542D01*
Y2750D01*
X2595D01*
Y2812D01*
D02*
G37*
%LPD*%
D12*
X1246Y500D02*
Y964D01*
X1677Y1395D01*
X1700Y1555D02*
X1705Y1550D01*
X1850D01*
X4615Y4600D02*
X4640Y4575D01*
X4500Y4600D02*
X4615D01*
X4467Y4567D02*
X4500Y4600D01*
X4450Y4490D02*
X4467Y4508D01*
Y4567D01*
X5981Y3674D02*
Y3703D01*
Y3024D02*
Y3053D01*
Y3103D02*
Y3133D01*
Y3594D02*
Y3624D01*
X1475Y2375D02*
X2375D01*
X2650D02*
X3325D01*
X2650Y2475D02*
X3025D01*
X3375Y2825D01*
X5800Y4000D02*
Y4125D01*
X3022Y1400D02*
Y1440D01*
X3060Y1478D01*
X3900Y2325D02*
Y2902D01*
X3060Y1485D02*
X3900Y2325D01*
X3060Y1478D02*
Y1485D01*
X2488Y500D02*
X3150Y1162D01*
Y1464D01*
X2742Y500D02*
X3400Y1158D01*
Y1625D01*
X3025Y500D02*
X3650Y1125D01*
X2996Y500D02*
X3025D01*
X3650Y1125D02*
Y1775D01*
X3920Y1145D02*
Y1945D01*
X3275Y500D02*
X3920Y1145D01*
X3250Y500D02*
X3275D01*
X4517Y900D02*
X4975Y1358D01*
X3904Y900D02*
X4517D01*
X3504Y500D02*
X3904Y900D01*
X3758Y500D02*
X4058Y800D01*
X4500D02*
X5050Y1350D01*
X4058Y800D02*
X4500D01*
Y700D02*
X5125Y1325D01*
X4212Y700D02*
X4500D01*
X4012Y500D02*
X4212Y700D01*
X4375Y500D02*
X5200Y1325D01*
X4266Y500D02*
X4375D01*
X5200Y1325D02*
Y2802D01*
X1311Y1825D02*
X1320D01*
X1299Y1836D02*
X1311Y1825D01*
X1111Y1836D02*
X1299D01*
X1150Y2375D02*
Y2475D01*
X1325Y2375D02*
Y2600D01*
X990Y1765D02*
X1040D01*
X1111Y1836D01*
X975Y1750D02*
X990Y1765D01*
X1152Y1532D02*
Y1709D01*
X1145Y1525D02*
X1152Y1532D01*
Y2091D02*
Y2223D01*
X1150Y2225D02*
X1152Y2223D01*
X975Y2167D02*
Y2275D01*
Y1966D02*
Y2033D01*
Y1900D02*
Y1966D01*
X978Y1964D01*
X1152D01*
X1150Y2225D02*
X1325D01*
X1500Y1543D02*
Y1900D01*
X1310Y2091D02*
X1500Y1900D01*
X1152Y2091D02*
X1310D01*
X992Y500D02*
Y910D01*
X1490Y1407D02*
X1500D01*
X992Y910D02*
X1490Y1407D01*
X1677Y1395D02*
X1700D01*
X1875Y1725D02*
Y1800D01*
Y1575D02*
Y1725D01*
X1859Y1709D02*
X1875Y1725D01*
X1698Y1709D02*
X1859D01*
X1850Y1550D02*
X1875Y1575D01*
X1698Y1836D02*
X1839D01*
X1875Y1800D01*
X1586Y1964D02*
X1698D01*
X1475Y2075D02*
X1586Y1964D01*
X1475Y2075D02*
Y2225D01*
X3719Y2592D02*
Y2594D01*
X3800Y2675D01*
X3750Y2712D02*
Y2902D01*
X3325Y2375D02*
X3700Y2750D01*
X3633Y2506D02*
X3719Y2592D01*
X3544Y2506D02*
X3633D01*
X3657Y2618D02*
X3750Y2712D01*
X3800Y2675D02*
Y2902D01*
X4641Y3949D02*
Y4249D01*
X4650Y3850D02*
Y3948D01*
X3650Y3843D02*
Y4048D01*
X1477Y4527D02*
Y4748D01*
X5525Y3300D02*
X5600D01*
X5525Y3550D02*
X5600D01*
X4925Y3925D02*
X5020D01*
X4650Y3550D02*
X4725D01*
X3125Y3725D02*
X3208D01*
X4225Y2525D02*
Y2608D01*
X4450Y1496D02*
Y2800D01*
X4378Y2774D02*
X4388D01*
X4450Y1496D02*
X4546Y1400D01*
X4225Y2742D02*
X4346D01*
X4378Y2774D01*
X4149Y3101D02*
X4450Y2800D01*
X4149Y2903D02*
Y2991D01*
X4125Y3016D02*
Y3025D01*
X4149Y2903D02*
X4150Y2902D01*
X4125Y3016D02*
X4149Y2991D01*
X3738Y3175D02*
X4125D01*
X3716Y3092D02*
X3724Y3101D01*
X4149D01*
X3701Y3672D02*
X3898Y3475D01*
X3950D01*
X3700Y3747D02*
X3701Y3747D01*
Y3672D02*
Y3747D01*
X3875Y3350D02*
X4347D01*
X3766Y3459D02*
X3875Y3350D01*
X3656Y3459D02*
X3766D01*
X3825Y3300D02*
X4347D01*
X3738Y3388D02*
X3825Y3300D01*
X3649Y3388D02*
X3738D01*
X3342Y3633D02*
Y3725D01*
X3158Y3992D02*
X3525D01*
X3150Y4000D02*
X3158Y3992D01*
X3075Y3200D02*
X3158D01*
X3075Y3200D02*
X3075Y3200D01*
X2740Y3215D02*
Y3225D01*
X2692Y3272D02*
Y3375D01*
Y3272D02*
X2740Y3225D01*
X2827Y3146D02*
X3081Y3400D01*
X3503D01*
X2873Y3124D02*
Y3127D01*
X2817Y3073D02*
X2821D01*
X2827Y3143D02*
Y3146D01*
X2781Y3100D02*
X2799Y3117D01*
X2740Y2995D02*
X2817Y3073D01*
X2802Y3117D02*
X2827Y3143D01*
X2799Y3117D02*
X2802D01*
X2665Y3100D02*
X2781D01*
X2873Y3127D02*
X3096Y3351D01*
X2821Y3073D02*
X2873Y3124D01*
X3096Y3351D02*
X3390D01*
X3750Y2903D02*
X3750Y2902D01*
X3697Y3138D02*
X3705Y3146D01*
X3709D02*
X3738Y3175D01*
X3750Y3038D02*
X3750Y3038D01*
Y2903D02*
Y3038D01*
X3692Y3092D02*
X3716D01*
X3725Y3250D02*
X4347D01*
X3675Y3200D02*
X3725Y3250D01*
X3638Y3138D02*
X3697D01*
X3705Y3146D02*
X3709D01*
X3700Y2750D02*
Y2902D01*
X3649Y2797D02*
Y2902D01*
X3650Y2902D01*
X3638Y2776D02*
Y2785D01*
X3649Y2797D01*
X3612Y3052D02*
X3653D01*
X3675Y3075D01*
X3503Y3051D02*
X3610D01*
X3612Y3052D01*
X3675Y3075D02*
Y3076D01*
X3375Y2825D02*
Y3075D01*
X3400Y3100D01*
X3503D01*
X6250Y6950D02*
X6350Y7050D01*
X5275Y6950D02*
X6250D01*
X4100Y5775D02*
X5275Y6950D01*
X4100Y3747D02*
Y5775D01*
X4850Y4175D02*
X4920Y4105D01*
X4850Y4175D02*
Y5225D01*
X4920Y4105D02*
X5005D01*
X4525Y5475D02*
X4600D01*
X4850Y5225D01*
X5175Y3920D02*
X5195Y3940D01*
X5981Y3594D02*
X6085D01*
X6096Y3582D02*
X6257D01*
X6085Y3594D02*
X6096Y3582D01*
X6085Y3133D02*
X6126Y3175D01*
X5981Y3133D02*
X6085D01*
X5200Y4495D02*
X5205Y4500D01*
X5195Y4490D02*
X5200Y4495D01*
X5000Y4350D02*
Y4475D01*
Y4350D02*
X5005Y4345D01*
X4373Y5502D02*
Y5750D01*
Y5502D02*
X4375Y5500D01*
X3631Y4256D02*
X3725Y4161D01*
X3724Y4099D02*
X3725Y4098D01*
X3750Y4161D02*
X3855Y4056D01*
X3797Y3809D02*
Y3963D01*
X2516Y5459D02*
X3900Y4075D01*
X3855Y3878D02*
Y4056D01*
X3900Y3747D02*
Y4075D01*
X3725Y4161D02*
X3750D01*
X3725Y3972D02*
Y4098D01*
X2516Y5459D02*
Y7500D01*
X3792Y3968D02*
Y4030D01*
X3275Y4200D02*
X3303D01*
X2008Y5467D02*
X3275Y4200D01*
X3316Y4188D02*
X3325D01*
X3303Y4200D02*
X3316Y4188D01*
X2262Y5351D02*
X3425Y4188D01*
Y4188D02*
Y4188D01*
X2262Y5351D02*
Y7500D01*
X3633Y4048D02*
X3642D01*
X4100Y2125D02*
Y2902D01*
X3920Y1945D02*
X4100Y2125D01*
X4050Y2175D02*
Y2902D01*
X3650Y1775D02*
X4050Y2175D01*
X3400Y1625D02*
X4000Y2225D01*
Y2902D01*
X3150Y1464D02*
X3950Y2264D01*
Y2902D01*
X4150Y3747D02*
Y4006D01*
X4267Y4123D01*
X5750Y4525D02*
X5875D01*
X5775Y4375D02*
X5875D01*
X5567Y4167D02*
X5775Y4375D01*
X5530Y4150D02*
X5547Y4167D01*
X5567D01*
X5530Y4130D02*
Y4150D01*
X4354Y3871D02*
X4358Y3867D01*
X4354Y3871D02*
Y4046D01*
X4350Y4050D02*
X4354Y4046D01*
X5800Y4125D02*
X5875D01*
X5725D02*
X5800D01*
X5525Y3975D02*
X5525Y3975D01*
X5720Y4130D02*
X5725Y4125D01*
X5525Y3975D02*
X5528Y3978D01*
Y4128D02*
X5530Y4130D01*
X5528Y3978D02*
Y4128D01*
X5350Y4250D02*
X5525D01*
X5625Y4350D01*
Y4370D01*
X5195Y4105D02*
X5200Y4100D01*
X5350D01*
X5195Y3940D02*
Y4105D01*
X4640Y4250D02*
X4641Y4249D01*
Y3949D02*
X4642Y3948D01*
X4300Y4258D02*
X4442D01*
X4450Y4250D01*
X3850Y2902D02*
Y3038D01*
X4050Y3575D02*
Y3747D01*
Y3575D02*
X4200Y3425D01*
X4225Y3500D02*
X4347D01*
X4150Y3575D02*
X4225Y3500D01*
X3503Y3150D02*
X3625D01*
X3638Y3138D01*
X3675Y3076D02*
X3692Y3092D01*
X5750Y3550D02*
X5800D01*
X5812Y3538D01*
X5981D01*
X5750Y3300D02*
X5825D01*
X5884Y3241D01*
X5978D02*
X5981Y3238D01*
X5884Y3241D02*
X5978D01*
Y3391D02*
X5981Y3388D01*
X4347Y3400D02*
X5875D01*
X5884Y3391D02*
X5978D01*
X5875Y3400D02*
X5884Y3391D01*
X5898Y3441D02*
X5978D01*
X5981Y3438D01*
X5889Y3450D02*
X5898Y3441D01*
X4347Y3450D02*
X5889D01*
X3650Y3747D02*
Y3843D01*
X3525Y3858D02*
X3635D01*
X3650Y3843D01*
X3792Y3968D02*
X3797Y3963D01*
Y3809D02*
X3800Y3806D01*
Y3747D02*
Y3806D01*
X3725Y3972D02*
X3750Y3947D01*
Y3747D02*
Y3947D01*
X3850Y3747D02*
Y3873D01*
X3855Y3878D01*
X2770Y5355D02*
X3950Y4175D01*
Y3747D02*
Y4175D01*
X2770Y5355D02*
Y7500D01*
X3024Y5201D02*
X4000Y4225D01*
Y3747D02*
Y4225D01*
X2008Y5467D02*
Y7500D01*
X573Y4415D02*
X800Y4188D01*
X573Y4415D02*
Y4427D01*
X500Y4500D02*
X573Y4427D01*
X1477Y4527D02*
X1479Y4525D01*
X1475Y4750D02*
X1477Y4748D01*
X475Y4700D02*
Y4817D01*
X482Y4825D01*
X475Y4525D02*
Y4700D01*
X3024Y5201D02*
Y7500D01*
X3650Y3275D02*
X3700Y3325D01*
X3643Y3382D02*
X3649Y3388D01*
X3654Y3461D02*
X3656Y3459D01*
X3616Y3275D02*
X3650D01*
X3503Y3299D02*
X3591D01*
X3616Y3275D01*
X3503Y3300D02*
X3503Y3299D01*
X4297Y3747D02*
X4300Y3750D01*
X4200Y3747D02*
X4297D01*
X3390Y3351D02*
X3392Y3350D01*
X3503D01*
X2740Y2827D02*
Y2995D01*
X4347Y3250D02*
X4347Y3250D01*
X4802Y3200D02*
X5200Y2802D01*
X5125Y1325D02*
Y2814D01*
X4789Y3150D02*
X5125Y2814D01*
X4775Y3100D02*
X5050Y2825D01*
Y1350D02*
Y2825D01*
X4761Y3050D02*
X4975Y2836D01*
Y1358D02*
Y2836D01*
X2770Y3525D02*
X2798Y3497D01*
Y3488D02*
Y3497D01*
Y3488D02*
X2835Y3450D01*
X2875D01*
X2692Y3525D02*
X2770D01*
X2692Y3700D02*
X2875D01*
X3503Y3050D02*
X3503Y3051D01*
X4347Y3200D02*
X4802D01*
X4347Y3150D02*
X4789D01*
X4347Y3100D02*
X4775D01*
X4347Y3050D02*
X4761D01*
X6006Y3388D02*
X6128D01*
X6133Y3473D02*
X6198D01*
X6101Y3441D02*
X6133Y3473D01*
X6198D02*
X6200Y3475D01*
X6191Y3325D02*
X6200D01*
X6177Y3338D02*
X6191Y3325D01*
X6008Y3441D02*
X6101D01*
X6006Y3338D02*
X6177D01*
X6006Y3438D02*
X6008Y3441D01*
X6112Y3288D02*
X6150Y3250D01*
X6006Y3288D02*
X6112D01*
X2875Y3700D02*
X3000D01*
X3200Y3500D02*
X3503D01*
X3000Y3700D02*
X3200Y3500D01*
X3900Y6500D02*
X4025D01*
X4025Y6500D01*
X3925Y7250D02*
X4025D01*
X4025Y7250D01*
X4200Y2742D02*
Y2902D01*
X4175Y6500D02*
X4373D01*
X4175Y7250D02*
X4373D01*
X3299Y3194D02*
X3304Y3200D01*
X3503D01*
X3299Y3050D02*
Y3194D01*
X2875Y3450D02*
X3503D01*
X4500Y3567D02*
X4550Y3617D01*
X4570D01*
X4500Y3550D02*
Y3567D01*
X4570Y3617D02*
X4642Y3690D01*
Y3700D01*
X4347Y3550D02*
X4500D01*
X4500Y3550D01*
X4375Y3700D02*
X4508D01*
X4347Y3672D02*
X4375Y3700D01*
X4347Y3600D02*
Y3672D01*
X4500Y3708D02*
X4508Y3700D01*
X4500Y3708D02*
Y3850D01*
X3342Y3633D02*
X3375Y3600D01*
X3503D01*
X2740Y2827D02*
X2742Y2825D01*
X2560Y3215D02*
Y3372D01*
X2558Y3375D02*
X2560Y3372D01*
Y3205D02*
Y3215D01*
Y3205D02*
X2665Y3100D01*
D15*
X1700Y1530D02*
D03*
Y1370D02*
D03*
X5200Y4655D02*
D03*
Y4495D02*
D03*
D16*
X5625Y4370D02*
D03*
X5720Y4130D02*
D03*
X5530D02*
D03*
X4640Y4490D02*
D03*
X4545D02*
D03*
X4450D02*
D03*
Y4250D02*
D03*
X4640D02*
D03*
X5005Y4345D02*
D03*
X5195D02*
D03*
Y4105D02*
D03*
X5100D02*
D03*
X5005D02*
D03*
D17*
X5875Y4275D02*
D03*
Y4125D02*
D03*
Y4525D02*
D03*
Y4375D02*
D03*
X5000Y4625D02*
D03*
Y4475D02*
D03*
X5350Y4250D02*
D03*
Y4100D02*
D03*
X975Y1750D02*
D03*
Y1900D02*
D03*
Y2425D02*
D03*
Y2275D02*
D03*
X1150Y2225D02*
D03*
Y2375D02*
D03*
X1325Y2225D02*
D03*
Y2375D02*
D03*
X1475Y2375D02*
D03*
Y2225D02*
D03*
D18*
X3208Y3725D02*
D03*
X3342D02*
D03*
X482Y4825D02*
D03*
X618D02*
D03*
X2692Y3700D02*
D03*
X2558D02*
D03*
X2692Y3525D02*
D03*
X2558D02*
D03*
Y3375D02*
D03*
X2692D02*
D03*
X2608Y2825D02*
D03*
X2742D02*
D03*
X3158Y3200D02*
D03*
X3292D02*
D03*
X4508Y3700D02*
D03*
X4642D02*
D03*
D19*
X4375Y5475D02*
D03*
X4525D02*
D03*
X4175Y6500D02*
D03*
X4025D02*
D03*
X4175Y7250D02*
D03*
X4025D02*
D03*
X625Y4700D02*
D03*
X475D02*
D03*
X1325Y4775D02*
D03*
X1475D02*
D03*
X4650Y3550D02*
D03*
X4500D02*
D03*
X4650Y3850D02*
D03*
X4500D02*
D03*
X5675Y3975D02*
D03*
X5525D02*
D03*
X5750Y3550D02*
D03*
X5600D02*
D03*
X5750Y3300D02*
D03*
X5600D02*
D03*
D20*
X3525Y3992D02*
D03*
Y3858D02*
D03*
X4225Y2608D02*
D03*
Y2742D02*
D03*
X4300Y4392D02*
D03*
Y4258D02*
D03*
X1500Y1543D02*
D03*
Y1407D02*
D03*
X975Y2033D02*
D03*
Y2167D02*
D03*
D21*
X2875Y3700D02*
D03*
Y3450D02*
D03*
D22*
X3151Y3050D02*
D03*
X3299D02*
D03*
D23*
X3650Y3747D02*
D03*
X3700D02*
D03*
X3750D02*
D03*
X3800D02*
D03*
X3850D02*
D03*
X3900D02*
D03*
X3950D02*
D03*
X4000D02*
D03*
X4050D02*
D03*
X4100D02*
D03*
X4150D02*
D03*
X4200D02*
D03*
Y2902D02*
D03*
X4150D02*
D03*
X4100D02*
D03*
X4050D02*
D03*
X4000D02*
D03*
X3950D02*
D03*
X3900D02*
D03*
X3850D02*
D03*
X3800D02*
D03*
X3750D02*
D03*
X3700D02*
D03*
X3650D02*
D03*
D24*
X4347Y3600D02*
D03*
Y3550D02*
D03*
Y3500D02*
D03*
Y3450D02*
D03*
Y3400D02*
D03*
Y3350D02*
D03*
Y3300D02*
D03*
Y3250D02*
D03*
Y3200D02*
D03*
Y3150D02*
D03*
Y3100D02*
D03*
Y3050D02*
D03*
X3503D02*
D03*
Y3100D02*
D03*
Y3150D02*
D03*
Y3200D02*
D03*
Y3250D02*
D03*
Y3300D02*
D03*
Y3350D02*
D03*
Y3400D02*
D03*
Y3450D02*
D03*
Y3500D02*
D03*
Y3550D02*
D03*
Y3600D02*
D03*
D25*
X4655Y4725D02*
D03*
X4495D02*
D03*
X4655Y4075D02*
D03*
X4495D02*
D03*
X5180Y3925D02*
D03*
X5020D02*
D03*
X1305Y1525D02*
D03*
X1145D02*
D03*
D26*
X6071Y3872D02*
D03*
Y2856D02*
D03*
D27*
X6489D02*
D03*
Y3872D02*
D03*
D28*
X5981Y3053D02*
D03*
Y3103D02*
D03*
Y3238D02*
D03*
Y3338D02*
D03*
Y3388D02*
D03*
Y3488D02*
D03*
Y3624D02*
D03*
Y3703D02*
D03*
Y3674D02*
D03*
Y3594D02*
D03*
Y3538D02*
D03*
Y3438D02*
D03*
Y3288D02*
D03*
Y3189D02*
D03*
Y3133D02*
D03*
Y3024D02*
D03*
D29*
X1152Y2091D02*
D03*
Y1964D02*
D03*
Y1836D02*
D03*
Y1709D02*
D03*
X1698Y2091D02*
D03*
Y1964D02*
D03*
Y1836D02*
D03*
Y1709D02*
D03*
D30*
X2560Y3215D02*
D03*
X2740D02*
D03*
X2560Y2985D02*
D03*
X2740D02*
D03*
D63*
X738Y500D02*
Y902D01*
X4640Y4575D02*
Y4660D01*
Y4490D02*
Y4575D01*
X4650Y4850D02*
X4652Y4848D01*
Y4672D02*
Y4848D01*
X2123Y2600D02*
X2514D01*
X2975D01*
X2514Y1400D02*
Y2600D01*
X2123Y4088D02*
X3593D01*
X1325Y2600D02*
X2123D01*
Y4088D01*
X1785Y4425D02*
X2123Y4088D01*
X4640Y4660D02*
X4652Y4672D01*
X1785Y4425D02*
Y7410D01*
X876Y2600D02*
X1325D01*
X838Y1525D02*
Y2638D01*
Y1002D02*
Y1525D01*
X1145D01*
X838Y2638D02*
X876Y2600D01*
X500Y2976D02*
X838Y2638D01*
X738Y902D02*
X838Y1002D01*
X1175Y4575D02*
X1221Y4529D01*
Y4575D01*
Y4475D02*
Y4529D01*
X1781Y4421D02*
X1785Y4425D01*
X1275Y4421D02*
X1781D01*
X1221Y4475D02*
X1275Y4421D01*
X1754Y7500D02*
X1777Y7477D01*
Y7418D02*
Y7477D01*
Y7418D02*
X1785Y7410D01*
X850Y4575D02*
X1175D01*
X725Y4700D02*
X850Y4575D01*
X6250Y3175D02*
X6325Y3250D01*
X6126Y3175D02*
X6250D01*
X6325Y3250D02*
Y3514D01*
X6257Y3582D02*
X6325Y3514D01*
X6257Y3582D02*
Y4343D01*
X6000Y4600D02*
X6257Y4343D01*
X5375Y4600D02*
X6000D01*
X5375D02*
Y5002D01*
Y4515D02*
Y4600D01*
X5205Y4500D02*
X5360D01*
X5375Y4515D01*
X4627Y5750D02*
X5375Y5002D01*
X5195Y4345D02*
Y4490D01*
X625Y4700D02*
X725D01*
X2975Y2600D02*
X3151Y2776D01*
Y3050D01*
X3593Y4088D02*
X3633Y4048D01*
D64*
X5175Y3775D02*
Y3920D01*
D65*
X1475Y4575D02*
D03*
X5175Y800D02*
D03*
D66*
X1221Y4575D02*
D03*
D67*
X500Y4500D02*
D03*
D68*
Y4246D02*
D03*
Y3992D02*
D03*
Y3738D02*
D03*
Y3484D02*
D03*
Y3230D02*
D03*
Y2976D02*
D03*
X3024Y7500D02*
D03*
X2770D02*
D03*
X2516D02*
D03*
X2262D02*
D03*
X2008D02*
D03*
X1754D02*
D03*
X738Y500D02*
D03*
X992D02*
D03*
X1246D02*
D03*
X2488D02*
D03*
X2742D02*
D03*
X2996D02*
D03*
X3250D02*
D03*
X3504D02*
D03*
X3758D02*
D03*
X4012D02*
D03*
X2514Y1400D02*
D03*
X2768D02*
D03*
X3022D02*
D03*
X3276D02*
D03*
X3530D02*
D03*
X3784D02*
D03*
X4038D02*
D03*
X4292D02*
D03*
X4546D02*
D03*
X2260D02*
D03*
X2006D02*
D03*
D69*
X6100Y7150D02*
D03*
D70*
Y6450D02*
D03*
D71*
X6350Y7050D02*
D03*
Y6550D02*
D03*
D72*
X4373Y7250D02*
D03*
Y6500D02*
D03*
X4627Y5750D02*
D03*
D73*
Y7250D02*
D03*
Y6500D02*
D03*
X4373Y5750D02*
D03*
D74*
X1500Y7500D02*
D03*
Y500D02*
D03*
X4266D02*
D03*
X4800Y1400D02*
D03*
D75*
X6125Y3075D02*
D03*
Y3652D02*
D03*
D76*
X5175Y1054D02*
D03*
D77*
X6350Y5500D02*
D03*
Y5300D02*
D03*
D78*
Y5100D02*
D03*
D79*
Y4890D02*
D03*
Y5710D02*
D03*
D80*
X3300Y7425D02*
D03*
X1200D02*
D03*
X3300Y5250D02*
D03*
X1200D02*
D03*
X5500Y3000D02*
D03*
Y8100D02*
D03*
X1100D02*
D03*
Y3000D02*
D03*
X6100Y2250D02*
D03*
X500D02*
D03*
X6100Y8000D02*
D03*
X500D02*
D03*
D81*
X6051Y7526D02*
D03*
X6301Y6026D02*
D03*
Y3026D02*
D03*
X6051Y2526D02*
D03*
X6301Y2026D02*
D03*
X6051Y1526D02*
D03*
X6301Y1026D02*
D03*
X6051Y526D02*
D03*
X5801Y8026D02*
D03*
X5551Y7526D02*
D03*
X5801Y7026D02*
D03*
X5551Y6526D02*
D03*
X5801Y6026D02*
D03*
Y5026D02*
D03*
Y3026D02*
D03*
X5551Y2526D02*
D03*
X5801Y2026D02*
D03*
X5551Y1526D02*
D03*
X5801Y1026D02*
D03*
X5551Y526D02*
D03*
X5051Y7526D02*
D03*
X5301Y7026D02*
D03*
X5051Y6526D02*
D03*
X5301Y6026D02*
D03*
X5051Y5526D02*
D03*
Y3526D02*
D03*
X5301Y2026D02*
D03*
X5051Y526D02*
D03*
X4801Y8026D02*
D03*
X4551Y7526D02*
D03*
X4801Y7026D02*
D03*
Y6026D02*
D03*
X4551Y2526D02*
D03*
X4801Y2026D02*
D03*
X4551Y526D02*
D03*
X4301Y8026D02*
D03*
X4051Y7526D02*
D03*
X4301Y7026D02*
D03*
Y5026D02*
D03*
X3801Y8026D02*
D03*
X3551Y7526D02*
D03*
X3801Y7026D02*
D03*
X3551Y6526D02*
D03*
Y5526D02*
D03*
X3301Y8026D02*
D03*
Y7026D02*
D03*
Y6026D02*
D03*
Y5026D02*
D03*
Y2026D02*
D03*
X2801Y8026D02*
D03*
Y5026D02*
D03*
X2551Y4526D02*
D03*
X2801Y2026D02*
D03*
X2301Y8026D02*
D03*
Y5026D02*
D03*
X2051Y4526D02*
D03*
X2301Y3026D02*
D03*
Y2026D02*
D03*
Y1026D02*
D03*
X2051Y526D02*
D03*
X1801Y8026D02*
D03*
X1551Y6526D02*
D03*
Y5526D02*
D03*
X1801Y4026D02*
D03*
X1551Y3526D02*
D03*
X1801Y3026D02*
D03*
Y1026D02*
D03*
X1301Y7026D02*
D03*
X1051Y6526D02*
D03*
X1301Y6026D02*
D03*
X1051Y5526D02*
D03*
X1301Y5026D02*
D03*
Y4026D02*
D03*
X1051Y3526D02*
D03*
X801Y8026D02*
D03*
X551Y7526D02*
D03*
X801Y7026D02*
D03*
X551Y6526D02*
D03*
X801Y6026D02*
D03*
X551Y5526D02*
D03*
X801Y5026D02*
D03*
Y4026D02*
D03*
Y3026D02*
D03*
X551Y2526D02*
D03*
Y1526D02*
D03*
Y526D02*
D03*
X1380Y1512D02*
D03*
X1303Y1380D02*
D03*
X978Y2505D02*
D03*
X1878Y2080D02*
D03*
X1703Y2230D02*
D03*
X5603Y3905D02*
D03*
X5828Y3680D02*
D03*
X4378Y4730D02*
D03*
X4178Y4180D02*
D03*
X4303Y4505D02*
D03*
X4553Y4255D02*
D03*
X4653Y4380D02*
D03*
X4453D02*
D03*
X4553D02*
D03*
X5103Y4355D02*
D03*
X5203Y4230D02*
D03*
X5103D02*
D03*
X5003D02*
D03*
X4650Y4850D02*
D03*
X2375Y2375D02*
D03*
X2650D02*
D03*
Y2475D02*
D03*
X5800Y4000D02*
D03*
X1320Y1825D02*
D03*
X1150Y2475D02*
D03*
X3544Y2506D02*
D03*
X3657Y2618D02*
D03*
X5517Y3298D02*
D03*
Y3548D02*
D03*
X4917Y3923D02*
D03*
X4717Y3548D02*
D03*
X3117Y3723D02*
D03*
X4217Y2523D02*
D03*
X4388Y2774D02*
D03*
X4125Y3025D02*
D03*
X4117Y3173D02*
D03*
X3942Y3473D02*
D03*
X3142Y3998D02*
D03*
X3067Y3198D02*
D03*
X2892Y2848D02*
D03*
Y2998D02*
D03*
X2417Y3123D02*
D03*
Y2823D02*
D03*
X2867Y3323D02*
D03*
X2417Y2973D02*
D03*
Y3523D02*
D03*
Y3698D02*
D03*
X3750Y3038D02*
D03*
X3675Y3200D02*
D03*
X3638Y2776D02*
D03*
X5175Y3775D02*
D03*
X3792Y4030D02*
D03*
X3631Y4256D02*
D03*
X3724Y4099D02*
D03*
X3325Y4188D02*
D03*
X3425D02*
D03*
X4267Y4123D02*
D03*
X5767Y4523D02*
D03*
X4350Y4050D02*
D03*
X4358Y3867D02*
D03*
X3850Y3038D02*
D03*
X4200Y3425D02*
D03*
X4150Y3575D02*
D03*
X4642Y3948D02*
D03*
X3642Y4048D02*
D03*
X800Y4188D02*
D03*
X3700Y3325D02*
D03*
X3643Y3382D02*
D03*
X3654Y3461D02*
D03*
X4295Y3750D02*
D03*
X6200Y3475D02*
D03*
Y3325D02*
D03*
X6150Y3401D02*
D03*
Y3250D02*
D03*
X3925Y7250D02*
D03*
X3900Y6500D02*
D03*
M02*
