G04*
G04 #@! TF.GenerationSoftware,Altium Limited,Altium Designer,23.0.1 (38)*
G04*
G04 Layer_Color=8421504*
%FSLAX42Y42*%
%MOMM*%
G71*
G04*
G04 #@! TF.SameCoordinates,26549080-C4CF-4FC7-94AC-5244C5C1EA83*
G04*
G04*
G04 #@! TF.FilePolarity,Positive*
G04*
G01*
G75*
%ADD15R,1.45X1.00*%
%ADD16R,0.60X1.00*%
%ADD17R,0.95X0.60*%
%ADD18R,0.80X1.00*%
%ADD19R,0.60X0.95*%
%ADD20R,1.00X0.80*%
%ADD21R,1.80X1.00*%
%ADD22R,0.74X1.02*%
%ADD23O,0.30X1.45*%
%ADD24O,1.45X0.30*%
%ADD25R,1.00X1.45*%
G04:AMPARAMS|DCode=26|XSize=1.8mm|YSize=1.5mm|CornerRadius=0.15mm|HoleSize=0mm|Usage=FLASHONLY|Rotation=90.000|XOffset=0mm|YOffset=0mm|HoleType=Round|Shape=RoundedRectangle|*
%AMROUNDEDRECTD26*
21,1,1.80,1.20,0,0,90.0*
21,1,1.50,1.50,0,0,90.0*
1,1,0.30,0.60,0.75*
1,1,0.30,0.60,-0.75*
1,1,0.30,-0.60,-0.75*
1,1,0.30,-0.60,0.75*
%
%ADD26ROUNDEDRECTD26*%
G04:AMPARAMS|DCode=27|XSize=1.8mm|YSize=1.2mm|CornerRadius=0.12mm|HoleSize=0mm|Usage=FLASHONLY|Rotation=270.000|XOffset=0mm|YOffset=0mm|HoleType=Round|Shape=RoundedRectangle|*
%AMROUNDEDRECTD27*
21,1,1.80,0.96,0,0,270.0*
21,1,1.56,1.20,0,0,270.0*
1,1,0.24,-0.48,-0.78*
1,1,0.24,-0.48,0.78*
1,1,0.24,0.48,0.78*
1,1,0.24,0.48,-0.78*
%
%ADD27ROUNDEDRECTD27*%
G04:AMPARAMS|DCode=28|XSize=0.3mm|YSize=1.45mm|CornerRadius=0.05mm|HoleSize=0mm|Usage=FLASHONLY|Rotation=270.000|XOffset=0mm|YOffset=0mm|HoleType=Round|Shape=RoundedRectangle|*
%AMROUNDEDRECTD28*
21,1,0.30,1.36,0,0,270.0*
21,1,0.21,1.45,0,0,270.0*
1,1,0.09,-0.68,-0.11*
1,1,0.09,-0.68,0.11*
1,1,0.09,0.68,0.11*
1,1,0.09,0.68,-0.11*
%
%ADD28ROUNDEDRECTD28*%
%ADD29O,1.45X0.60*%
G04:AMPARAMS|DCode=30|XSize=1.3mm|YSize=1.1mm|CornerRadius=0.11mm|HoleSize=0mm|Usage=FLASHONLY|Rotation=270.000|XOffset=0mm|YOffset=0mm|HoleType=Round|Shape=RoundedRectangle|*
%AMROUNDEDRECTD30*
21,1,1.30,0.88,0,0,270.0*
21,1,1.08,1.10,0,0,270.0*
1,1,0.22,-0.44,-0.54*
1,1,0.22,-0.44,0.54*
1,1,0.22,0.44,0.54*
1,1,0.22,0.44,-0.54*
%
%ADD30ROUNDEDRECTD30*%
G36*
X5909Y3093D02*
X5908Y3144D01*
X5908Y3144D01*
X5909Y3146D01*
X5911Y3148D01*
X5912Y3149D01*
X5913Y3149D01*
X5913Y3149D01*
X6048Y3149D01*
X6049Y3149D01*
X6051Y3148D01*
X6053Y3146D01*
X6053Y3144D01*
X6053Y3144D01*
Y3144D01*
X6053Y3094D01*
X6053Y3093D01*
X6053Y3091D01*
X6051Y3089D01*
X6049Y3089D01*
X6048Y3089D01*
X6048D01*
X5913Y3089D01*
X5912D01*
X5911Y3089D01*
X5909Y3091D01*
X5909Y3093D01*
X5909Y3093D01*
X5909Y3093D01*
D02*
G37*
G36*
X5909Y3013D02*
X5909Y3063D01*
X5909Y3064D01*
X5909Y3066D01*
X5911Y3068D01*
X5913Y3069D01*
X5913Y3069D01*
X5913Y3069D01*
X6049Y3068D01*
X6049Y3069D01*
X6051Y3068D01*
X6053Y3066D01*
X6054Y3064D01*
X6053Y3063D01*
Y3064D01*
X6053Y3014D01*
X6053Y3013D01*
X6053Y3011D01*
X6051Y3009D01*
X6049Y3009D01*
X6049Y3008D01*
X6049D01*
X5913Y3009D01*
X5913D01*
X5911Y3009D01*
X5909Y3011D01*
X5909Y3013D01*
X5909Y3013D01*
X5909Y3013D01*
D02*
G37*
G36*
X5909Y3663D02*
X5908Y3714D01*
X5908Y3714D01*
X5909Y3716D01*
X5911Y3718D01*
X5912Y3719D01*
X5913Y3719D01*
X5913Y3719D01*
X6048Y3719D01*
X6049Y3719D01*
X6051Y3718D01*
X6053Y3716D01*
X6053Y3714D01*
X6053Y3714D01*
Y3714D01*
X6053Y3664D01*
X6053Y3663D01*
X6053Y3661D01*
X6051Y3659D01*
X6049Y3659D01*
X6048Y3659D01*
X6048D01*
X5913Y3659D01*
X5912D01*
X5911Y3659D01*
X5909Y3661D01*
X5909Y3663D01*
X5909Y3663D01*
X5909Y3663D01*
D02*
G37*
G36*
Y3583D02*
X5908Y3634D01*
X5908Y3634D01*
X5909Y3636D01*
X5911Y3638D01*
X5912Y3639D01*
X5913Y3639D01*
X5913Y3639D01*
X6048Y3639D01*
X6049Y3639D01*
X6051Y3638D01*
X6053Y3636D01*
X6053Y3634D01*
X6053Y3634D01*
Y3634D01*
X6053Y3584D01*
X6053Y3583D01*
X6053Y3581D01*
X6051Y3579D01*
X6049Y3579D01*
X6048Y3579D01*
X6048D01*
X5913Y3579D01*
X5912D01*
X5911Y3579D01*
X5909Y3581D01*
X5909Y3583D01*
X5909Y3583D01*
X5909Y3583D01*
D02*
G37*
D15*
X1700Y1530D02*
D03*
Y1370D02*
D03*
X5200Y4655D02*
D03*
Y4495D02*
D03*
D16*
X5625Y4370D02*
D03*
X5720Y4130D02*
D03*
X5530D02*
D03*
X4640Y4490D02*
D03*
X4545D02*
D03*
X4450D02*
D03*
Y4250D02*
D03*
X4640D02*
D03*
X5005Y4345D02*
D03*
X5195D02*
D03*
Y4105D02*
D03*
X5100D02*
D03*
X5005D02*
D03*
D17*
X5875Y4275D02*
D03*
Y4125D02*
D03*
Y4525D02*
D03*
Y4375D02*
D03*
X5000Y4625D02*
D03*
Y4475D02*
D03*
X5350Y4250D02*
D03*
Y4100D02*
D03*
X975Y1750D02*
D03*
Y1900D02*
D03*
Y2425D02*
D03*
Y2275D02*
D03*
X1150Y2225D02*
D03*
Y2375D02*
D03*
X1325Y2225D02*
D03*
Y2375D02*
D03*
X1475Y2375D02*
D03*
Y2225D02*
D03*
D18*
X3208Y3725D02*
D03*
X3342D02*
D03*
X482Y4825D02*
D03*
X618D02*
D03*
X2692Y3700D02*
D03*
X2558D02*
D03*
X2692Y3525D02*
D03*
X2558D02*
D03*
Y3375D02*
D03*
X2692D02*
D03*
X2608Y2825D02*
D03*
X2742D02*
D03*
X3158Y3200D02*
D03*
X3292D02*
D03*
X4508Y3700D02*
D03*
X4642D02*
D03*
D19*
X4375Y5475D02*
D03*
X4525D02*
D03*
X4175Y6500D02*
D03*
X4025D02*
D03*
X4175Y7250D02*
D03*
X4025D02*
D03*
X625Y4700D02*
D03*
X475D02*
D03*
X1325Y4775D02*
D03*
X1475D02*
D03*
X4650Y3550D02*
D03*
X4500D02*
D03*
X4650Y3850D02*
D03*
X4500D02*
D03*
X5675Y3975D02*
D03*
X5525D02*
D03*
X5750Y3550D02*
D03*
X5600D02*
D03*
X5750Y3300D02*
D03*
X5600D02*
D03*
D20*
X3525Y3992D02*
D03*
Y3858D02*
D03*
X4225Y2608D02*
D03*
Y2742D02*
D03*
X4300Y4392D02*
D03*
Y4258D02*
D03*
X1500Y1543D02*
D03*
Y1407D02*
D03*
X975Y2033D02*
D03*
Y2167D02*
D03*
D21*
X2875Y3700D02*
D03*
Y3450D02*
D03*
D22*
X3151Y3050D02*
D03*
X3299D02*
D03*
D23*
X3650Y3747D02*
D03*
X3700D02*
D03*
X3750D02*
D03*
X3800D02*
D03*
X3850D02*
D03*
X3900D02*
D03*
X3950D02*
D03*
X4000D02*
D03*
X4050D02*
D03*
X4100D02*
D03*
X4150D02*
D03*
X4200D02*
D03*
Y2902D02*
D03*
X4150D02*
D03*
X4100D02*
D03*
X4050D02*
D03*
X4000D02*
D03*
X3950D02*
D03*
X3900D02*
D03*
X3850D02*
D03*
X3800D02*
D03*
X3750D02*
D03*
X3700D02*
D03*
X3650D02*
D03*
D24*
X4347Y3600D02*
D03*
Y3550D02*
D03*
Y3500D02*
D03*
Y3450D02*
D03*
Y3400D02*
D03*
Y3350D02*
D03*
Y3300D02*
D03*
Y3250D02*
D03*
Y3200D02*
D03*
Y3150D02*
D03*
Y3100D02*
D03*
Y3050D02*
D03*
X3503D02*
D03*
Y3100D02*
D03*
Y3150D02*
D03*
Y3200D02*
D03*
Y3250D02*
D03*
Y3300D02*
D03*
Y3350D02*
D03*
Y3400D02*
D03*
Y3450D02*
D03*
Y3500D02*
D03*
Y3550D02*
D03*
Y3600D02*
D03*
D25*
X4655Y4725D02*
D03*
X4495D02*
D03*
X4655Y4075D02*
D03*
X4495D02*
D03*
X5180Y3925D02*
D03*
X5020D02*
D03*
X1305Y1525D02*
D03*
X1145D02*
D03*
D26*
X6071Y3872D02*
D03*
Y2856D02*
D03*
D27*
X6489D02*
D03*
Y3872D02*
D03*
D28*
X5981Y3238D02*
D03*
Y3338D02*
D03*
Y3388D02*
D03*
Y3488D02*
D03*
Y3538D02*
D03*
Y3438D02*
D03*
Y3288D02*
D03*
Y3189D02*
D03*
D29*
X1152Y2091D02*
D03*
Y1964D02*
D03*
Y1836D02*
D03*
Y1709D02*
D03*
X1698Y2091D02*
D03*
Y1964D02*
D03*
Y1836D02*
D03*
Y1709D02*
D03*
D30*
X2560Y3215D02*
D03*
X2740D02*
D03*
X2560Y2985D02*
D03*
X2740D02*
D03*
M02*
