G04*
G04 #@! TF.GenerationSoftware,Altium Limited,Altium Designer,22.2.1 (43)*
G04*
G04 Layer_Physical_Order=2*
G04 Layer_Color=16711680*
%FSLAX42Y42*%
%MOMM*%
G71*
G04*
G04 #@! TF.SameCoordinates,705AE814-5C68-4228-A498-FE5630506DB2*
G04*
G04*
G04 #@! TF.FilePolarity,Positive*
G04*
G01*
G75*
%ADD22C,0.80*%
%ADD24C,1.50*%
%ADD28C,3.25*%
%ADD29R,3.05X3.05*%
%ADD30C,1.50*%
G36*
X10808Y11239D02*
Y5778D01*
X10795Y5766D01*
X3340D01*
X3327Y5778D01*
Y11239D01*
X3340Y11252D01*
X10795D01*
X10808Y11239D01*
D02*
G37*
%LPC*%
G36*
X4407Y10224D02*
X4051D01*
Y9868D01*
X4407D01*
Y10224D01*
D02*
G37*
G36*
X9843Y6920D02*
X9806Y6916D01*
X9770Y6905D01*
X9738Y6888D01*
X9709Y6865D01*
X9685Y6836D01*
X9668Y6803D01*
X9657Y6768D01*
X9654Y6731D01*
X9657Y6694D01*
X9668Y6659D01*
X9685Y6626D01*
X9709Y6597D01*
X9738Y6574D01*
X9770Y6557D01*
X9806Y6546D01*
X9843Y6542D01*
X9879Y6546D01*
X9915Y6557D01*
X9947Y6574D01*
X9976Y6597D01*
X10000Y6626D01*
X10017Y6659D01*
X10028Y6694D01*
X10031Y6731D01*
X10028Y6768D01*
X10017Y6803D01*
X10000Y6836D01*
X9976Y6865D01*
X9947Y6888D01*
X9915Y6905D01*
X9879Y6916D01*
X9843Y6920D01*
D02*
G37*
G36*
X3874D02*
X3837Y6916D01*
X3801Y6905D01*
X3769Y6888D01*
X3740Y6865D01*
X3716Y6836D01*
X3699Y6803D01*
X3688Y6768D01*
X3685Y6731D01*
X3688Y6694D01*
X3699Y6659D01*
X3716Y6626D01*
X3740Y6597D01*
X3769Y6574D01*
X3801Y6557D01*
X3837Y6546D01*
X3874Y6542D01*
X3910Y6546D01*
X3946Y6557D01*
X3978Y6574D01*
X4007Y6597D01*
X4031Y6626D01*
X4048Y6659D01*
X4059Y6694D01*
X4062Y6731D01*
X4059Y6768D01*
X4048Y6803D01*
X4031Y6836D01*
X4007Y6865D01*
X3978Y6888D01*
X3946Y6905D01*
X3910Y6916D01*
X3874Y6920D01*
D02*
G37*
G36*
X4407Y6210D02*
X4051D01*
Y5855D01*
X4407D01*
Y6210D01*
D02*
G37*
%LPD*%
D22*
X8954Y9106D02*
X8966D01*
X8954D02*
Y9474D01*
D24*
X5461Y11163D02*
X5486D01*
X3696Y10833D02*
X3721Y10808D01*
X3696Y10833D02*
Y10884D01*
D28*
X9843Y6731D02*
D03*
X3874D02*
D03*
D29*
X4229Y6033D02*
D03*
X6007Y6045D02*
D03*
Y10033D02*
D03*
X4229Y10046D02*
D03*
D30*
X9423Y11151D02*
D03*
X10604Y9106D02*
D03*
X9207Y11151D02*
D03*
X3721Y10808D02*
D03*
X8509Y10706D02*
D03*
X8954Y9106D02*
D03*
X6261Y6045D02*
D03*
X5486Y11163D02*
D03*
X5778Y10287D02*
D03*
X3569Y8192D02*
D03*
Y6553D02*
D03*
M02*
