G04*
G04 #@! TF.GenerationSoftware,Altium Limited,Altium Designer,22.2.1 (43)*
G04*
G04 Layer_Physical_Order=1*
G04 Layer_Color=255*
%FSLAX42Y42*%
%MOMM*%
G71*
G04*
G04 #@! TF.SameCoordinates,705AE814-5C68-4228-A498-FE5630506DB2*
G04*
G04*
G04 #@! TF.FilePolarity,Positive*
G04*
G01*
G75*
G04:AMPARAMS|DCode=10|XSize=2.54mm|YSize=0.91mm|CornerRadius=0.23mm|HoleSize=0mm|Usage=FLASHONLY|Rotation=90.000|XOffset=0mm|YOffset=0mm|HoleType=Round|Shape=RoundedRectangle|*
%AMROUNDEDRECTD10*
21,1,2.54,0.46,0,0,90.0*
21,1,2.08,0.91,0,0,90.0*
1,1,0.46,0.23,1.04*
1,1,0.46,0.23,-1.04*
1,1,0.46,-0.23,-1.04*
1,1,0.46,-0.23,1.04*
%
%ADD10ROUNDEDRECTD10*%
%ADD11R,1.91X1.91*%
%ADD12C,1.91*%
%ADD13C,1.27*%
G04:AMPARAMS|DCode=14|XSize=1.52mm|YSize=1.52mm|CornerRadius=0.38mm|HoleSize=0mm|Usage=FLASHONLY|Rotation=0.000|XOffset=0mm|YOffset=0mm|HoleType=Round|Shape=RoundedRectangle|*
%AMROUNDEDRECTD14*
21,1,1.52,0.76,0,0,0.0*
21,1,0.76,1.52,0,0,0.0*
1,1,0.76,0.38,-0.38*
1,1,0.76,-0.38,-0.38*
1,1,0.76,-0.38,0.38*
1,1,0.76,0.38,0.38*
%
%ADD14ROUNDEDRECTD14*%
%ADD15C,1.52*%
%ADD16R,1.02X0.64*%
%ADD17R,1.52X0.89*%
%ADD18R,2.54X1.78*%
G04:AMPARAMS|DCode=19|XSize=1.52mm|YSize=3.05mm|CornerRadius=0.38mm|HoleSize=0mm|Usage=FLASHONLY|Rotation=0.000|XOffset=0mm|YOffset=0mm|HoleType=Round|Shape=RoundedRectangle|*
%AMROUNDEDRECTD19*
21,1,1.52,2.29,0,0,0.0*
21,1,0.76,3.05,0,0,0.0*
1,1,0.76,0.38,-1.14*
1,1,0.76,-0.38,-1.14*
1,1,0.76,-0.38,1.14*
1,1,0.76,0.38,1.14*
%
%ADD19ROUNDEDRECTD19*%
%ADD20R,0.89X1.52*%
%ADD21C,0.60*%
%ADD22C,0.80*%
%ADD23C,0.40*%
%ADD24C,1.50*%
%ADD25C,1.78*%
%ADD26C,2.00*%
%ADD27C,0.15*%
%ADD28C,3.25*%
%ADD29R,3.05X3.05*%
%ADD30C,1.50*%
G36*
X9576Y11284D02*
Y10846D01*
X9163D01*
X9157Y10852D01*
Y11017D01*
X9150Y11024D01*
X8909D01*
X8903Y11030D01*
Y11284D01*
X8909Y11290D01*
X9569D01*
X9576Y11284D01*
D02*
G37*
G36*
X6794Y11024D02*
Y10960D01*
X6782Y10947D01*
X6139D01*
X6130Y10944D01*
X6049Y10862D01*
X6045Y10853D01*
X6045Y10630D01*
X6033Y10617D01*
X5740D01*
X5728Y10630D01*
Y10897D01*
X5740Y10909D01*
X5862D01*
X5871Y10913D01*
X5991Y11033D01*
X6000Y11036D01*
X6782D01*
X6794Y11024D01*
D02*
G37*
G36*
X4267Y11227D02*
Y10668D01*
X4254Y10655D01*
X4006D01*
X3997Y10652D01*
X3776Y10430D01*
X3767Y10427D01*
X3353D01*
X3340Y10439D01*
X3340Y11069D01*
X3344Y11078D01*
X3501Y11236D01*
X3510Y11239D01*
X4254D01*
X4267Y11227D01*
D02*
G37*
G36*
X6287Y10757D02*
X6286Y10026D01*
X6283Y10017D01*
X6138Y9872D01*
X6129Y9868D01*
X5847D01*
X5838Y9872D01*
X5731Y9978D01*
X5728Y9987D01*
X5728Y10427D01*
X5740Y10439D01*
X6091D01*
X6100Y10443D01*
X6194Y10537D01*
X6198Y10546D01*
X6198Y10757D01*
X6210Y10770D01*
X6274D01*
X6287Y10757D01*
D02*
G37*
D10*
X10350Y9195D02*
D03*
X9589D02*
D03*
X9081Y10846D02*
D03*
X9207D02*
D03*
X9461Y9195D02*
D03*
X9335D02*
D03*
X9207D02*
D03*
X9081D02*
D03*
X10224D02*
D03*
X10096D02*
D03*
X9969D02*
D03*
X9843D02*
D03*
X9715D02*
D03*
X10478D02*
D03*
X9081Y11151D02*
D03*
D11*
X8255Y10960D02*
D03*
X6731D02*
D03*
D12*
X8255Y10706D02*
D03*
Y10452D02*
D03*
Y10198D02*
D03*
Y9944D02*
D03*
Y9690D02*
D03*
Y9436D02*
D03*
Y9182D02*
D03*
Y8928D02*
D03*
Y8674D02*
D03*
Y8420D02*
D03*
Y8166D02*
D03*
Y7912D02*
D03*
Y7658D02*
D03*
Y7404D02*
D03*
Y7150D02*
D03*
Y6896D02*
D03*
Y6642D02*
D03*
Y6388D02*
D03*
Y6134D02*
D03*
X6731Y10706D02*
D03*
Y10198D02*
D03*
Y10452D02*
D03*
Y9944D02*
D03*
Y9690D02*
D03*
Y8674D02*
D03*
Y8928D02*
D03*
Y8420D02*
D03*
Y8166D02*
D03*
Y7150D02*
D03*
Y6896D02*
D03*
Y6388D02*
D03*
Y6642D02*
D03*
Y6134D02*
D03*
D13*
Y9436D02*
D03*
Y9182D02*
D03*
Y7912D02*
D03*
Y7404D02*
D03*
Y7658D02*
D03*
D14*
X3391Y9969D02*
D03*
Y10478D02*
D03*
Y10224D02*
D03*
Y9715D02*
D03*
Y8192D02*
D03*
Y9207D02*
D03*
Y8446D02*
D03*
Y7683D02*
D03*
Y9461D02*
D03*
Y8700D02*
D03*
Y8954D02*
D03*
Y7938D02*
D03*
Y7429D02*
D03*
Y7175D02*
D03*
D15*
X3619Y6033D02*
D03*
X3874D02*
D03*
D16*
X5474Y10528D02*
D03*
X5748Y10625D02*
D03*
Y10432D02*
D03*
D17*
X6007Y10427D02*
D03*
Y10630D02*
D03*
X5220Y10325D02*
D03*
Y10528D02*
D03*
X6236Y10757D02*
D03*
Y10960D02*
D03*
D18*
X5740Y11163D02*
D03*
Y10858D02*
D03*
X4229Y10706D02*
D03*
Y10401D02*
D03*
D19*
X3391Y6553D02*
D03*
Y6033D02*
D03*
X4699Y11100D02*
D03*
X4229D02*
D03*
D20*
X10554Y8700D02*
D03*
X10350D02*
D03*
D21*
X8420Y5918D02*
X10224Y7722D01*
X8382Y6134D02*
X10096Y7849D01*
X8382Y6388D02*
X9969Y7976D01*
X8395Y6642D02*
X9715Y7963D01*
X3708Y9309D02*
X6553D01*
X3835Y8928D02*
X6731D01*
X3861Y8420D02*
X6731D01*
X3848Y8674D02*
X6731D01*
X3893Y8020D02*
X6591D01*
X3391Y7683D02*
X3874D01*
X3975Y7785D02*
X6591D01*
X3391Y7938D02*
X3810D01*
X3886Y8166D02*
X6731D01*
X3391Y7175D02*
X3962D01*
X4083Y7296D02*
X6591D01*
X3391Y7429D02*
X3912D01*
X4013Y7531D02*
X6591D01*
X8052Y5804D02*
X9881D01*
X10770Y6693D01*
X6858Y7150D02*
X7811Y6198D01*
X3556Y9969D02*
X3950Y9576D01*
X3518Y10224D02*
X4039Y9703D01*
X3556Y9207D02*
X3835Y8928D01*
X3607Y8446D02*
X3886Y8166D01*
X10503Y9474D02*
X10770Y9207D01*
X9843Y9373D02*
X9944Y9474D01*
X6731Y7150D02*
X6858D01*
X8255Y6134D02*
X8382D01*
X8255Y6388D02*
X8382D01*
X8255Y6642D02*
X8395D01*
X8166Y5918D02*
X8420D01*
X3823Y9449D02*
X6401D01*
X3950Y9576D02*
X6337D01*
X4039Y9703D02*
X6261D01*
X3556Y9715D02*
X3823Y9449D01*
X3581Y8700D02*
X3861Y8420D01*
X3569Y8954D02*
X3848Y8674D01*
X3810Y7938D02*
X3893Y8020D01*
X8014Y6071D02*
Y6782D01*
X10770Y6693D02*
Y9207D01*
X10224Y7722D02*
Y9195D01*
X10096Y7849D02*
Y9195D01*
X9969Y7976D02*
Y9195D01*
X10350Y8700D02*
Y9195D01*
X9715Y7963D02*
Y9195D01*
X8014Y6782D02*
X8128Y6896D01*
X7811Y6045D02*
Y6198D01*
X8014Y6071D02*
X8166Y5918D01*
X6261Y9703D02*
X6502Y9944D01*
X9944Y9474D02*
X10503D01*
X9843Y9195D02*
Y9373D01*
X8128Y6896D02*
X8255D01*
X7811Y6045D02*
X8052Y5804D01*
X6502Y9944D02*
X6731D01*
X6401Y9449D02*
X6496Y9544D01*
X6337Y9576D02*
X6439Y9677D01*
X6718D01*
X6731Y9690D01*
X3874Y7683D02*
X3975Y7785D01*
X3962Y7175D02*
X4083Y7296D01*
X3912Y7429D02*
X4013Y7531D01*
X3391Y9969D02*
X3556D01*
X3391Y10224D02*
X3518D01*
X3391Y9207D02*
X3556D01*
X3391Y9461D02*
X3556D01*
X3708Y9309D01*
X3391Y9715D02*
X3556D01*
X3391Y8446D02*
X3607D01*
X3391Y8700D02*
X3581D01*
X3391Y8954D02*
X3569D01*
D22*
X6109Y11214D02*
X8560D01*
X8877Y8877D02*
X9487D01*
X9081Y11151D02*
X9195D01*
X6007Y11112D02*
X6109Y11214D01*
X5220Y10325D02*
X5778D01*
X5220Y10528D02*
X5474D01*
X8763Y8992D02*
Y11011D01*
X10478Y8954D02*
Y9106D01*
Y9195D01*
Y9106D02*
X10604D01*
X9589Y8979D02*
Y9195D01*
X8954Y9106D02*
X9081D01*
Y9195D01*
X6007Y10630D02*
Y11112D01*
X10554Y8700D02*
Y8877D01*
X10478Y8954D02*
X10554Y8877D01*
X9195Y11151D02*
X9207D01*
Y10846D02*
Y11138D01*
X9195Y11151D02*
X9207Y11138D01*
X9487Y8877D02*
X9589Y8979D01*
X8560Y11214D02*
X8763Y11011D01*
Y8992D02*
X8877Y8877D01*
X6236Y10960D02*
X6731D01*
X5778Y10287D02*
Y10325D01*
X5093Y10528D02*
X5220D01*
D23*
X6496Y9544D02*
X8109D01*
X7131Y7296D02*
X8255Y8420D01*
X7112Y7531D02*
X8255Y8674D01*
X7112Y7785D02*
X8255Y8928D01*
X7093Y8020D02*
X8255Y9182D01*
X6553Y9309D02*
X8128D01*
X6591Y8020D02*
X7093D01*
X6591Y7785D02*
X7112D01*
X6591Y7296D02*
X7131D01*
X6591Y7531D02*
X7112D01*
X8128Y9309D02*
X8255Y9436D01*
X8109Y9544D02*
X8255Y9690D01*
D24*
Y10706D02*
X8509D01*
X6007Y6045D02*
X6261D01*
X3874Y6033D02*
X4229D01*
Y10401D02*
X4686D01*
X6261Y6045D02*
X6642D01*
X6731Y6134D01*
Y6388D01*
X4699Y10414D02*
Y11100D01*
X3492Y10579D02*
X3721Y10808D01*
X3391Y6033D02*
X3619D01*
X5486Y11163D02*
X5740D01*
X4890Y10401D02*
X5017Y10528D01*
X4686Y10401D02*
X4890D01*
X5017Y10528D02*
X5093D01*
X4686Y10401D02*
X4699Y10414D01*
X3391Y10579D02*
X3492D01*
X3391Y10478D02*
Y10579D01*
Y8192D02*
X3569D01*
X3391Y6553D02*
X3569D01*
D25*
X4229Y10389D02*
Y10401D01*
D26*
Y10046D02*
Y10389D01*
D27*
X3343Y6826D02*
Y6746D01*
Y6826D02*
X3377D01*
X3388Y6822D01*
X3392Y6819D01*
X3396Y6811D01*
Y6803D01*
X3392Y6796D01*
X3388Y6792D01*
X3377Y6788D01*
X3343D02*
X3377D01*
X3388Y6784D01*
X3392Y6781D01*
X3396Y6773D01*
Y6761D01*
X3392Y6754D01*
X3388Y6750D01*
X3377Y6746D01*
X3343D01*
X3475D02*
X3444Y6826D01*
X3414Y6746D01*
X3425Y6773D02*
X3463D01*
X3520Y6826D02*
Y6746D01*
X3493Y6826D02*
X3547D01*
X3556Y6781D02*
X3625D01*
X4854Y11118D02*
Y11036D01*
X4813Y11077D02*
X4895D01*
X4923Y11113D02*
X4932Y11118D01*
X4946Y11132D01*
Y11036D01*
X4997Y11109D02*
Y11113D01*
X5002Y11122D01*
X5006Y11127D01*
X5016Y11132D01*
X5034D01*
X5043Y11127D01*
X5047Y11122D01*
X5052Y11113D01*
Y11104D01*
X5047Y11095D01*
X5038Y11082D01*
X4993Y11036D01*
X5056D01*
X5078Y11132D02*
X5114Y11036D01*
X5150Y11132D02*
X5114Y11036D01*
X3343Y5848D02*
Y5768D01*
Y5848D02*
X3377D01*
X3388Y5845D01*
X3392Y5841D01*
X3396Y5833D01*
Y5825D01*
X3392Y5818D01*
X3388Y5814D01*
X3377Y5810D01*
X3343D02*
X3377D01*
X3388Y5806D01*
X3392Y5803D01*
X3396Y5795D01*
Y5784D01*
X3392Y5776D01*
X3388Y5772D01*
X3377Y5768D01*
X3343D01*
X3475D02*
X3444Y5848D01*
X3414Y5768D01*
X3425Y5795D02*
X3463D01*
X3520Y5848D02*
Y5768D01*
X3493Y5848D02*
X3547D01*
X3591Y5837D02*
Y5768D01*
X3556Y5803D02*
X3625D01*
D28*
X9843Y6731D02*
D03*
X3874D02*
D03*
D29*
X4229Y6033D02*
D03*
X6007Y6045D02*
D03*
Y10033D02*
D03*
X4229Y10046D02*
D03*
D30*
X9423Y11151D02*
D03*
X10604Y9106D02*
D03*
X9207Y11151D02*
D03*
X3721Y10808D02*
D03*
X8509Y10706D02*
D03*
X8954Y9106D02*
D03*
X6261Y6045D02*
D03*
X5486Y11163D02*
D03*
X5778Y10287D02*
D03*
X3569Y8192D02*
D03*
Y6553D02*
D03*
M02*
