G04*
G04 #@! TF.GenerationSoftware,Altium Limited,Altium Designer,23.0.1 (38)*
G04*
G04 Layer_Color=8421504*
%FSLAX42Y42*%
%MOMM*%
G71*
G04*
G04 #@! TF.SameCoordinates,5FF423B5-1B0A-4D26-B18B-ED7C77A5BF5B*
G04*
G04*
G04 #@! TF.FilePolarity,Positive*
G04*
G01*
G75*
%ADD14R,0.95X0.60*%
%ADD15R,1.60X4.90*%
%ADD16R,1.50X3.81*%
%ADD17R,0.80X1.00*%
%ADD18R,0.74X1.02*%
%ADD19R,1.00X0.80*%
%ADD20R,1.00X1.45*%
%ADD21R,1.45X1.00*%
%ADD22R,0.60X1.00*%
%ADD23R,3.00X1.20*%
D14*
X4175Y3100D02*
D03*
Y2950D02*
D03*
X3250Y2875D02*
D03*
Y2725D02*
D03*
D15*
X746Y5417D02*
D03*
X1254D02*
D03*
X3746D02*
D03*
X4254D02*
D03*
D16*
X1000Y5448D02*
D03*
X4000D02*
D03*
D17*
X4142Y4975D02*
D03*
X4008D02*
D03*
X3833Y3375D02*
D03*
X3967D02*
D03*
X857Y4925D02*
D03*
X993D02*
D03*
D18*
X3849Y4800D02*
D03*
X3701D02*
D03*
X1152D02*
D03*
X1298D02*
D03*
D19*
X3550Y4658D02*
D03*
Y4792D02*
D03*
X1450Y4658D02*
D03*
Y4792D02*
D03*
D20*
X3795Y2775D02*
D03*
X3955D02*
D03*
D21*
X3600Y3205D02*
D03*
Y3045D02*
D03*
D22*
X3780Y2955D02*
D03*
X3875D02*
D03*
X3970D02*
D03*
Y3195D02*
D03*
X3780D02*
D03*
D23*
X1750Y3200D02*
D03*
Y3400D02*
D03*
Y3600D02*
D03*
Y3800D02*
D03*
Y4000D02*
D03*
Y4200D02*
D03*
Y4400D02*
D03*
Y4600D02*
D03*
Y4800D02*
D03*
X3250D02*
D03*
Y4600D02*
D03*
Y4400D02*
D03*
Y4200D02*
D03*
Y4000D02*
D03*
Y3800D02*
D03*
Y3600D02*
D03*
Y3400D02*
D03*
Y3200D02*
D03*
M02*
