M48
;Layer_Color=9474304
;FILE_FORMAT=4:2
METRIC,LZ
;TYPE=PLATED
T1F00S00C0.30
T2F00S00C1.06
T3F00S00C1.14
T4F00S00C2.60
%
T01
X00276Y00034
X004025Y00065
X004525
X004775Y00115
X004275
X003775
X004025Y00165
X004525
X004775Y00215
X004275
X004525Y00265
X004775Y00315
X004525Y00365
X004025
X00388Y00321
X003875Y003075
Y00295
X003775Y00415
X004275
X004775
X003525Y00365
Y00265
X003025
Y00165
Y00065
X003685Y000384
X002025Y00065
X00205Y00125
X00215Y00145
X001525Y00165
X001025
X000525
X000775Y00215
X001275
X001775
X002275
Y00315
Y00415
X001275
X000775
X001025Y00365
X000525
X000775Y00315
X001025Y00265
X001525
X000525
X000775Y00115
X001275
X001025Y00065
X000525
Y00465
X001025
X002025
X002525
X003025
X003275Y00515
X002775
X002275
X001775
X004025Y00465
X004525
X004775Y00515
T02
X00135Y00325
Y003504
T03
X001Y0002
X001254
X001508
X001762
X002016
X00227
X002524
X002778
X003032
X003286
X00354
X003794
T04
X0003Y0003
X0047
X0003Y0054
X0047
M30
