G04*
G04 #@! TF.GenerationSoftware,Altium Limited,Altium Designer,23.0.1 (38)*
G04*
G04 Layer_Physical_Order=2*
G04 Layer_Color=16711680*
%FSLAX42Y42*%
%MOMM*%
G71*
G04*
G04 #@! TF.SameCoordinates,5FF423B5-1B0A-4D26-B18B-ED7C77A5BF5B*
G04*
G04*
G04 #@! TF.FilePolarity,Positive*
G04*
G01*
G75*
%ADD10C,0.25*%
%ADD15R,1.60X4.90*%
%ADD43C,1.71*%
%ADD44R,1.71X1.71*%
%ADD45C,1.59*%
%ADD46R,1.59X1.59*%
%ADD47C,3.00*%
%ADD48C,0.60*%
G36*
X4961Y39D02*
X39D01*
Y5661D01*
X4961D01*
Y39D01*
D02*
G37*
%LPC*%
G36*
X4717Y5575D02*
X4713D01*
Y5413D01*
X4875D01*
Y5417D01*
X4869Y5451D01*
X4855Y5483D01*
X4836Y5512D01*
X4812Y5536D01*
X4783Y5555D01*
X4751Y5569D01*
X4717Y5575D01*
D02*
G37*
G36*
X4687D02*
X4683D01*
X4649Y5569D01*
X4617Y5555D01*
X4588Y5536D01*
X4564Y5512D01*
X4545Y5483D01*
X4531Y5451D01*
X4525Y5417D01*
Y5413D01*
X4687D01*
Y5575D01*
D02*
G37*
G36*
X317D02*
X313D01*
Y5413D01*
X475D01*
Y5417D01*
X469Y5451D01*
X455Y5483D01*
X436Y5512D01*
X412Y5536D01*
X383Y5555D01*
X351Y5569D01*
X317Y5575D01*
D02*
G37*
G36*
X287D02*
X283D01*
X249Y5569D01*
X217Y5555D01*
X188Y5536D01*
X164Y5512D01*
X145Y5483D01*
X131Y5451D01*
X125Y5417D01*
Y5413D01*
X287D01*
Y5575D01*
D02*
G37*
G36*
X4875Y5387D02*
X4713D01*
Y5225D01*
X4717D01*
X4751Y5231D01*
X4783Y5245D01*
X4812Y5264D01*
X4836Y5288D01*
X4855Y5317D01*
X4869Y5349D01*
X4875Y5383D01*
Y5387D01*
D02*
G37*
G36*
X4687D02*
X4525D01*
Y5383D01*
X4531Y5349D01*
X4545Y5317D01*
X4564Y5288D01*
X4588Y5264D01*
X4617Y5245D01*
X4649Y5231D01*
X4683Y5225D01*
X4687D01*
Y5387D01*
D02*
G37*
G36*
X475D02*
X313D01*
Y5225D01*
X317D01*
X351Y5231D01*
X383Y5245D01*
X412Y5264D01*
X436Y5288D01*
X455Y5317D01*
X469Y5349D01*
X475Y5383D01*
Y5387D01*
D02*
G37*
G36*
X287D02*
X125D01*
Y5383D01*
X131Y5349D01*
X145Y5317D01*
X164Y5288D01*
X188Y5264D01*
X217Y5245D01*
X249Y5231D01*
X283Y5225D01*
X287D01*
Y5387D01*
D02*
G37*
G36*
X1455Y3609D02*
X1245D01*
Y3399D01*
X1455D01*
Y3609D01*
D02*
G37*
G36*
X1364Y3355D02*
X1336D01*
X1310Y3348D01*
X1286Y3334D01*
X1266Y3314D01*
X1252Y3290D01*
X1245Y3264D01*
Y3236D01*
X1252Y3210D01*
X1266Y3186D01*
X1286Y3166D01*
X1310Y3152D01*
X1336Y3145D01*
X1364D01*
X1390Y3152D01*
X1414Y3166D01*
X1434Y3186D01*
X1448Y3210D01*
X1455Y3236D01*
Y3264D01*
X1448Y3290D01*
X1434Y3314D01*
X1414Y3334D01*
X1390Y3348D01*
X1364Y3355D01*
D02*
G37*
G36*
X3696Y439D02*
X3674D01*
X3653Y431D01*
X3645Y423D01*
X3216D01*
X3201Y420D01*
X3188Y411D01*
X3078Y301D01*
X3075Y303D01*
X3047Y311D01*
X3017D01*
X2989Y303D01*
X2964Y289D01*
X2943Y268D01*
X2929Y243D01*
X2921Y215D01*
Y185D01*
X2929Y157D01*
X2943Y132D01*
X2964Y111D01*
X2989Y97D01*
X3017Y89D01*
X3047D01*
X3075Y97D01*
X3100Y111D01*
X3121Y132D01*
X3135Y157D01*
X3143Y185D01*
Y215D01*
X3135Y243D01*
X3133Y246D01*
X3232Y345D01*
X3645D01*
X3653Y337D01*
X3674Y328D01*
X3696D01*
X3716Y337D01*
X3732Y352D01*
X3740Y373D01*
Y395D01*
X3732Y415D01*
X3716Y431D01*
X3696Y439D01*
D02*
G37*
G36*
X4717Y475D02*
X4713D01*
Y313D01*
X4875D01*
Y317D01*
X4869Y351D01*
X4855Y383D01*
X4836Y412D01*
X4812Y436D01*
X4783Y455D01*
X4751Y469D01*
X4717Y475D01*
D02*
G37*
G36*
X4687D02*
X4683D01*
X4649Y469D01*
X4617Y455D01*
X4588Y436D01*
X4564Y412D01*
X4545Y383D01*
X4531Y351D01*
X4525Y317D01*
Y313D01*
X4687D01*
Y475D01*
D02*
G37*
G36*
X317D02*
X313D01*
Y313D01*
X475D01*
Y317D01*
X469Y351D01*
X455Y383D01*
X436Y412D01*
X412Y436D01*
X383Y455D01*
X351Y469D01*
X317Y475D01*
D02*
G37*
G36*
X287D02*
X283D01*
X249Y469D01*
X217Y455D01*
X188Y436D01*
X164Y412D01*
X145Y383D01*
X131Y351D01*
X125Y317D01*
Y313D01*
X287D01*
Y475D01*
D02*
G37*
G36*
X2161Y1505D02*
X2139D01*
X2119Y1497D01*
X2103Y1481D01*
X2095Y1461D01*
Y1450D01*
X1481Y835D01*
X1472Y823D01*
X1469Y808D01*
Y304D01*
X1465Y303D01*
X1440Y289D01*
X1419Y268D01*
X1405Y243D01*
X1397Y215D01*
Y185D01*
X1405Y157D01*
X1419Y132D01*
X1440Y111D01*
X1465Y97D01*
X1493Y89D01*
X1523D01*
X1551Y97D01*
X1576Y111D01*
X1597Y132D01*
X1611Y157D01*
X1619Y185D01*
Y215D01*
X1611Y243D01*
X1597Y268D01*
X1576Y289D01*
X1551Y303D01*
X1547Y304D01*
Y792D01*
X1985Y1230D01*
X2000Y1227D01*
X2003Y1219D01*
X2011Y1210D01*
Y1175D01*
X2014Y1160D01*
X2023Y1148D01*
X2762Y408D01*
X2757Y395D01*
X2749D01*
X2729Y387D01*
X2721Y379D01*
X2410D01*
X2395Y376D01*
X2382Y367D01*
X2316Y301D01*
X2313Y303D01*
X2285Y311D01*
X2255D01*
X2227Y303D01*
X2202Y289D01*
X2181Y268D01*
X2167Y243D01*
X2159Y215D01*
Y185D01*
X2167Y157D01*
X2181Y132D01*
X2202Y111D01*
X2227Y97D01*
X2255Y89D01*
X2285D01*
X2313Y97D01*
X2338Y111D01*
X2359Y132D01*
X2373Y157D01*
X2381Y185D01*
Y215D01*
X2373Y243D01*
X2371Y246D01*
X2426Y301D01*
X2453D01*
X2455Y291D01*
X2455Y288D01*
X2435Y268D01*
X2421Y243D01*
X2413Y215D01*
Y185D01*
X2421Y157D01*
X2435Y132D01*
X2456Y111D01*
X2481Y97D01*
X2509Y89D01*
X2539D01*
X2567Y97D01*
X2592Y111D01*
X2613Y132D01*
X2627Y157D01*
X2635Y185D01*
Y215D01*
X2627Y243D01*
X2613Y268D01*
X2593Y288D01*
X2593Y291D01*
X2595Y301D01*
X2706D01*
X2709Y291D01*
X2709Y288D01*
X2689Y268D01*
X2675Y243D01*
X2667Y215D01*
Y185D01*
X2675Y157D01*
X2689Y132D01*
X2710Y111D01*
X2735Y97D01*
X2763Y89D01*
X2793D01*
X2821Y97D01*
X2846Y111D01*
X2867Y132D01*
X2881Y157D01*
X2889Y185D01*
Y215D01*
X2881Y243D01*
X2867Y268D01*
X2862Y272D01*
X2864Y275D01*
X2867Y290D01*
Y397D01*
X2864Y412D01*
X2856Y424D01*
X2089Y1191D01*
Y1210D01*
X2097Y1219D01*
X2105Y1239D01*
Y1261D01*
X2097Y1281D01*
X2081Y1297D01*
X2073Y1300D01*
X2070Y1315D01*
X2150Y1395D01*
X2161D01*
X2181Y1403D01*
X2197Y1419D01*
X2205Y1439D01*
Y1461D01*
X2197Y1481D01*
X2181Y1497D01*
X2161Y1505D01*
D02*
G37*
G36*
X3809Y311D02*
X3807D01*
Y213D01*
X3905D01*
Y215D01*
X3897Y243D01*
X3883Y268D01*
X3862Y289D01*
X3837Y303D01*
X3809Y311D01*
D02*
G37*
G36*
X3781D02*
X3779D01*
X3751Y303D01*
X3726Y289D01*
X3705Y268D01*
X3691Y243D01*
X3683Y215D01*
Y213D01*
X3781D01*
Y311D01*
D02*
G37*
G36*
X1111D02*
X1013D01*
Y213D01*
X1111D01*
Y311D01*
D02*
G37*
G36*
X987D02*
X889D01*
Y213D01*
X987D01*
Y311D01*
D02*
G37*
G36*
X4875Y287D02*
X4713D01*
Y125D01*
X4717D01*
X4751Y131D01*
X4783Y145D01*
X4812Y164D01*
X4836Y188D01*
X4855Y217D01*
X4869Y249D01*
X4875Y283D01*
Y287D01*
D02*
G37*
G36*
X4687D02*
X4525D01*
Y283D01*
X4531Y249D01*
X4545Y217D01*
X4564Y188D01*
X4588Y164D01*
X4617Y145D01*
X4649Y131D01*
X4683Y125D01*
X4687D01*
Y287D01*
D02*
G37*
G36*
X475D02*
X313D01*
Y125D01*
X317D01*
X351Y131D01*
X383Y145D01*
X412Y164D01*
X436Y188D01*
X455Y217D01*
X469Y249D01*
X475Y283D01*
Y287D01*
D02*
G37*
G36*
X287D02*
X125D01*
Y283D01*
X131Y249D01*
X145Y217D01*
X164Y188D01*
X188Y164D01*
X217Y145D01*
X249Y131D01*
X283Y125D01*
X287D01*
Y287D01*
D02*
G37*
G36*
X3905Y187D02*
X3807D01*
Y89D01*
X3809D01*
X3837Y97D01*
X3862Y111D01*
X3883Y132D01*
X3897Y157D01*
X3905Y185D01*
Y187D01*
D02*
G37*
G36*
X3781D02*
X3683D01*
Y185D01*
X3691Y157D01*
X3705Y132D01*
X3726Y111D01*
X3751Y97D01*
X3779Y89D01*
X3781D01*
Y187D01*
D02*
G37*
G36*
X3555Y311D02*
X3525D01*
X3497Y303D01*
X3472Y289D01*
X3451Y268D01*
X3437Y243D01*
X3429Y215D01*
Y185D01*
X3437Y157D01*
X3451Y132D01*
X3472Y111D01*
X3497Y97D01*
X3525Y89D01*
X3555D01*
X3583Y97D01*
X3608Y111D01*
X3629Y132D01*
X3643Y157D01*
X3651Y185D01*
Y215D01*
X3643Y243D01*
X3629Y268D01*
X3608Y289D01*
X3583Y303D01*
X3555Y311D01*
D02*
G37*
G36*
X3301D02*
X3271D01*
X3243Y303D01*
X3218Y289D01*
X3197Y268D01*
X3183Y243D01*
X3175Y215D01*
Y185D01*
X3183Y157D01*
X3197Y132D01*
X3218Y111D01*
X3243Y97D01*
X3271Y89D01*
X3301D01*
X3329Y97D01*
X3354Y111D01*
X3375Y132D01*
X3389Y157D01*
X3397Y185D01*
Y215D01*
X3389Y243D01*
X3375Y268D01*
X3354Y289D01*
X3329Y303D01*
X3301Y311D01*
D02*
G37*
G36*
X2031D02*
X2001D01*
X1973Y303D01*
X1948Y289D01*
X1927Y268D01*
X1913Y243D01*
X1905Y215D01*
Y185D01*
X1913Y157D01*
X1927Y132D01*
X1948Y111D01*
X1973Y97D01*
X2001Y89D01*
X2031D01*
X2059Y97D01*
X2084Y111D01*
X2105Y132D01*
X2119Y157D01*
X2127Y185D01*
Y215D01*
X2119Y243D01*
X2105Y268D01*
X2084Y289D01*
X2059Y303D01*
X2031Y311D01*
D02*
G37*
G36*
X1777D02*
X1747D01*
X1719Y303D01*
X1694Y289D01*
X1673Y268D01*
X1659Y243D01*
X1651Y215D01*
Y185D01*
X1659Y157D01*
X1673Y132D01*
X1694Y111D01*
X1719Y97D01*
X1747Y89D01*
X1777D01*
X1805Y97D01*
X1830Y111D01*
X1851Y132D01*
X1865Y157D01*
X1873Y185D01*
Y215D01*
X1865Y243D01*
X1851Y268D01*
X1830Y289D01*
X1805Y303D01*
X1777Y311D01*
D02*
G37*
G36*
X1269D02*
X1239D01*
X1211Y303D01*
X1186Y289D01*
X1165Y268D01*
X1151Y243D01*
X1143Y215D01*
Y185D01*
X1151Y157D01*
X1165Y132D01*
X1186Y111D01*
X1211Y97D01*
X1239Y89D01*
X1269D01*
X1297Y97D01*
X1322Y111D01*
X1343Y132D01*
X1357Y157D01*
X1365Y185D01*
Y215D01*
X1357Y243D01*
X1343Y268D01*
X1322Y289D01*
X1297Y303D01*
X1269Y311D01*
D02*
G37*
G36*
X1111Y187D02*
X1013D01*
Y89D01*
X1111D01*
Y187D01*
D02*
G37*
G36*
X987D02*
X889D01*
Y89D01*
X987D01*
Y187D01*
D02*
G37*
%LPD*%
D10*
X2150Y1450D02*
X2150D01*
X1508Y808D02*
X2150Y1450D01*
X1508Y200D02*
Y808D01*
X2050Y1175D02*
Y1250D01*
Y1175D02*
X2828Y397D01*
Y290D02*
Y397D01*
X2270Y200D02*
X2410Y340D01*
X2760D01*
X2778Y239D02*
X2828Y290D01*
X2778Y200D02*
Y239D01*
X3216Y384D02*
X3685D01*
X3032Y200D02*
X3216Y384D01*
D15*
X746Y5417D02*
D03*
X1254D02*
D03*
X3746D02*
D03*
X4254D02*
D03*
D43*
X3794Y200D02*
D03*
X3540D02*
D03*
X1254D02*
D03*
X1508D02*
D03*
X1762D02*
D03*
X2016D02*
D03*
X2270D02*
D03*
X2524D02*
D03*
X2778D02*
D03*
X3032D02*
D03*
X3286D02*
D03*
D44*
X1000D02*
D03*
D45*
X1350Y3250D02*
D03*
D46*
Y3504D02*
D03*
D47*
X4700Y300D02*
D03*
Y5400D02*
D03*
X300D02*
D03*
Y300D02*
D03*
D48*
X3875Y2950D02*
D03*
Y3075D02*
D03*
X3880Y3210D02*
D03*
X4775Y5150D02*
D03*
X4525Y4650D02*
D03*
X4775Y4150D02*
D03*
X4525Y3650D02*
D03*
X4775Y3150D02*
D03*
X4525Y2650D02*
D03*
X4775Y2150D02*
D03*
X4525Y1650D02*
D03*
X4775Y1150D02*
D03*
X4525Y650D02*
D03*
X4025Y4650D02*
D03*
X4275Y4150D02*
D03*
X4025Y3650D02*
D03*
X4275Y2150D02*
D03*
X4025Y1650D02*
D03*
X4275Y1150D02*
D03*
X4025Y650D02*
D03*
X3775Y4150D02*
D03*
X3525Y3650D02*
D03*
Y2650D02*
D03*
X3775Y1150D02*
D03*
X3275Y5150D02*
D03*
X3025Y4650D02*
D03*
Y2650D02*
D03*
Y1650D02*
D03*
Y650D02*
D03*
X2775Y5150D02*
D03*
X2525Y4650D02*
D03*
X2275Y5150D02*
D03*
X2025Y4650D02*
D03*
X2275Y4150D02*
D03*
Y3150D02*
D03*
Y2150D02*
D03*
X2025Y650D02*
D03*
X1775Y5150D02*
D03*
X1525Y2650D02*
D03*
X1775Y2150D02*
D03*
X1525Y1650D02*
D03*
X1025Y4650D02*
D03*
X1275Y4150D02*
D03*
X1025Y3650D02*
D03*
Y2650D02*
D03*
X1275Y2150D02*
D03*
X1025Y1650D02*
D03*
X1275Y1150D02*
D03*
X1025Y650D02*
D03*
X525Y4650D02*
D03*
X775Y4150D02*
D03*
X525Y3650D02*
D03*
X775Y3150D02*
D03*
X525Y2650D02*
D03*
X775Y2150D02*
D03*
X525Y1650D02*
D03*
X775Y1150D02*
D03*
X525Y650D02*
D03*
X2150Y1450D02*
D03*
X2050Y1250D02*
D03*
X2760Y340D02*
D03*
X3685Y384D02*
D03*
M02*
