G04*
G04 #@! TF.GenerationSoftware,Altium Limited,Altium Designer,23.0.1 (38)*
G04*
G04 Layer_Color=65535*
%FSLAX42Y42*%
%MOMM*%
G71*
G04*
G04 #@! TF.SameCoordinates,5FF423B5-1B0A-4D26-B18B-ED7C77A5BF5B*
G04*
G04*
G04 #@! TF.FilePolarity,Positive*
G04*
G01*
G75*
%ADD10C,0.25*%
%ADD11C,0.12*%
%ADD12C,0.20*%
%ADD13C,0.25*%
D10*
X3399Y2994D02*
G03*
X3399Y2994I-40J0D01*
G01*
X3225Y5225D02*
Y5375D01*
X3300D01*
X3325Y5350D01*
Y5300D01*
X3300Y5275D01*
X3225D01*
X3275D02*
X3325Y5225D01*
X3475Y5375D02*
X3375D01*
Y5300D01*
X3425D01*
X3375D01*
Y5225D01*
X3625D02*
X3525D01*
X3625Y5325D01*
Y5350D01*
X3600Y5375D01*
X3550D01*
X3525Y5350D01*
X600Y3250D02*
Y3100D01*
X675D01*
X700Y3125D01*
Y3225D01*
X675Y3250D01*
X600D01*
X750D02*
X800D01*
X775D01*
Y3100D01*
X750D01*
X800D01*
X950Y3250D02*
X900D01*
X875Y3225D01*
Y3125D01*
X900Y3100D01*
X950D01*
X975Y3125D01*
Y3225D01*
X950Y3250D01*
X1025D02*
X1125D01*
Y3225D01*
X1025Y3125D01*
Y3100D01*
X600Y3575D02*
Y3425D01*
X675D01*
X700Y3450D01*
Y3550D01*
X675Y3575D01*
X600D01*
X750D02*
X800D01*
X775D01*
Y3425D01*
X750D01*
X800D01*
X950Y3575D02*
X900D01*
X875Y3550D01*
Y3450D01*
X900Y3425D01*
X950D01*
X975Y3450D01*
Y3550D01*
X950Y3575D01*
X1025Y3550D02*
X1050Y3575D01*
X1100D01*
X1125Y3550D01*
Y3525D01*
X1100Y3500D01*
X1125Y3475D01*
Y3450D01*
X1100Y3425D01*
X1050D01*
X1025Y3450D01*
Y3475D01*
X1050Y3500D01*
X1025Y3525D01*
Y3550D01*
X1050Y3500D02*
X1100D01*
X1525Y5225D02*
Y5375D01*
X1600D01*
X1625Y5350D01*
Y5300D01*
X1600Y5275D01*
X1525D01*
X1575D02*
X1625Y5225D01*
X1775Y5375D02*
X1675D01*
Y5300D01*
X1725D01*
X1675D01*
Y5225D01*
X1825D02*
X1875D01*
X1850D01*
Y5375D01*
X1825Y5350D01*
X4750Y1525D02*
X4700Y1475D01*
X4650D01*
X4600Y1525D01*
X4650Y1700D02*
Y1625D01*
X4675Y1600D01*
X4725D01*
X4750Y1625D01*
Y1700D01*
Y1750D02*
X4700Y1800D01*
X4650D01*
X4600Y1750D01*
X4625Y2125D02*
X4600Y2100D01*
Y2050D01*
X4625Y2025D01*
X4725D01*
X4750Y2050D01*
Y2100D01*
X4725Y2125D01*
X4675D01*
Y2075D01*
X4600Y2175D02*
X4750D01*
Y2250D01*
X4725Y2275D01*
X4700D01*
X4675Y2250D01*
Y2175D01*
Y2250D01*
X4650Y2275D01*
X4625D01*
X4600Y2250D01*
Y2175D01*
Y2325D02*
X4750D01*
Y2425D01*
Y2575D02*
Y2475D01*
X4650Y2575D01*
X4625D01*
X4600Y2550D01*
Y2500D01*
X4625Y2475D01*
Y2625D02*
X4600Y2650D01*
Y2700D01*
X4625Y2725D01*
X4725D01*
X4750Y2700D01*
Y2650D01*
X4725Y2625D01*
X4625D01*
X4750Y2875D02*
Y2775D01*
X4650Y2875D01*
X4625D01*
X4600Y2850D01*
Y2800D01*
X4625Y2775D01*
X4600Y3025D02*
Y2925D01*
X4675D01*
X4650Y2975D01*
Y3000D01*
X4675Y3025D01*
X4725D01*
X4750Y3000D01*
Y2950D01*
X4725Y2925D01*
X4300Y475D02*
X4450D01*
Y575D01*
Y625D02*
X4300D01*
Y700D01*
X4325Y725D01*
X4375D01*
X4400Y700D01*
Y625D01*
Y675D02*
X4450Y725D01*
Y775D02*
Y825D01*
Y800D01*
X4300D01*
X4325Y775D01*
X4450Y900D02*
Y950D01*
Y925D01*
X4300D01*
X4325Y900D01*
X4450Y1125D02*
Y1025D01*
X4350Y1125D01*
X4325D01*
X4300Y1100D01*
Y1050D01*
X4325Y1025D01*
X4450Y1175D02*
Y1225D01*
Y1200D01*
X4300D01*
X4325Y1175D01*
X4450Y1300D02*
X4350Y1400D01*
X4300Y1450D02*
X4450D01*
Y1550D01*
Y1600D02*
X4300D01*
Y1675D01*
X4325Y1700D01*
X4375D01*
X4400Y1675D01*
Y1600D01*
Y1650D02*
X4450Y1700D01*
Y1850D02*
Y1750D01*
X4350Y1850D01*
X4325D01*
X4300Y1825D01*
Y1775D01*
X4325Y1750D01*
Y1900D02*
X4300Y1925D01*
Y1975D01*
X4325Y2000D01*
X4425D01*
X4450Y1975D01*
Y1925D01*
X4425Y1900D01*
X4325D01*
X4450Y2150D02*
Y2050D01*
X4350Y2150D01*
X4325D01*
X4300Y2125D01*
Y2075D01*
X4325Y2050D01*
X4450Y2200D02*
Y2250D01*
Y2225D01*
X4300D01*
X4325Y2200D01*
X4450Y2550D02*
Y2500D01*
X4425Y2475D01*
X4375D01*
X4350Y2500D01*
Y2550D01*
X4375Y2575D01*
X4400D01*
Y2475D01*
X4350Y2625D02*
X4450Y2675D01*
X4350Y2725D01*
Y2800D02*
Y2850D01*
X4375Y2875D01*
X4450D01*
Y2800D01*
X4425Y2775D01*
X4400Y2800D01*
Y2875D01*
X4450Y2925D02*
Y2975D01*
Y2950D01*
X4300D01*
Y2925D01*
X4350Y3050D02*
X4425D01*
X4450Y3075D01*
Y3150D01*
X4350D01*
Y3225D02*
Y3274D01*
X4375Y3299D01*
X4450D01*
Y3225D01*
X4425Y3200D01*
X4400Y3225D01*
Y3299D01*
X4325Y3374D02*
X4350D01*
Y3349D01*
Y3399D01*
Y3374D01*
X4425D01*
X4450Y3399D01*
Y3474D02*
Y3524D01*
Y3499D01*
X4350D01*
Y3474D01*
X4450Y3624D02*
Y3674D01*
X4425Y3699D01*
X4375D01*
X4350Y3674D01*
Y3624D01*
X4375Y3599D01*
X4425D01*
X4450Y3624D01*
Y3749D02*
X4350D01*
Y3824D01*
X4375Y3849D01*
X4450D01*
Y4049D02*
X4350D01*
Y4074D01*
X4375Y4099D01*
X4450D01*
X4375D01*
X4350Y4124D01*
X4375Y4149D01*
X4450D01*
Y4224D02*
Y4274D01*
X4425Y4299D01*
X4375D01*
X4350Y4274D01*
Y4224D01*
X4375Y4199D01*
X4425D01*
X4450Y4224D01*
X4300Y4449D02*
X4450D01*
Y4374D01*
X4425Y4349D01*
X4375D01*
X4350Y4374D01*
Y4449D01*
Y4499D02*
X4425D01*
X4450Y4524D01*
Y4599D01*
X4350D01*
X4450Y4649D02*
Y4699D01*
Y4674D01*
X4300D01*
Y4649D01*
X4450Y4849D02*
Y4799D01*
X4425Y4774D01*
X4375D01*
X4350Y4799D01*
Y4849D01*
X4375Y4874D01*
X4400D01*
Y4774D01*
X950Y475D02*
X925Y450D01*
Y400D01*
X950Y375D01*
X1050D01*
X1075Y400D01*
Y450D01*
X1050Y475D01*
X1000D01*
Y425D01*
X1075Y525D02*
X925D01*
X1075Y625D01*
X925D01*
Y675D02*
X1075D01*
Y750D01*
X1050Y775D01*
X950D01*
X925Y750D01*
Y675D01*
X1175Y375D02*
X1325D01*
Y450D01*
X1300Y475D01*
X1275D01*
X1250Y450D01*
Y375D01*
Y450D01*
X1225Y475D01*
X1200D01*
X1175Y450D01*
Y375D01*
Y525D02*
X1300D01*
X1325Y550D01*
Y600D01*
X1300Y625D01*
X1175D01*
X1200Y775D02*
X1175Y750D01*
Y700D01*
X1200Y675D01*
X1225D01*
X1250Y700D01*
Y750D01*
X1275Y775D01*
X1300D01*
X1325Y750D01*
Y700D01*
X1300Y675D01*
X1175Y825D02*
X1200D01*
X1250Y875D01*
X1200Y925D01*
X1175D01*
X1250Y875D02*
X1325D01*
X1575Y375D02*
X1425D01*
Y450D01*
X1450Y475D01*
X1500D01*
X1525Y450D01*
Y375D01*
Y425D02*
X1575Y475D01*
X1425Y625D02*
Y525D01*
X1575D01*
Y625D01*
X1500Y525D02*
Y575D01*
X1450Y775D02*
X1425Y750D01*
Y700D01*
X1450Y675D01*
X1475D01*
X1500Y700D01*
Y750D01*
X1525Y775D01*
X1550D01*
X1575Y750D01*
Y700D01*
X1550Y675D01*
X1425Y925D02*
Y825D01*
X1575D01*
Y925D01*
X1500Y825D02*
Y875D01*
X1425Y975D02*
Y1075D01*
Y1025D01*
X1575D01*
X1825Y375D02*
X1675D01*
X1825Y475D01*
X1675D01*
X1700Y625D02*
X1675Y600D01*
Y550D01*
X1700Y525D01*
X1725D01*
X1750Y550D01*
Y600D01*
X1775Y625D01*
X1800D01*
X1825Y600D01*
Y550D01*
X1800Y525D01*
X1700Y775D02*
X1675Y750D01*
Y700D01*
X1700Y675D01*
X1725D01*
X1750Y700D01*
Y750D01*
X1775Y775D01*
X1800D01*
X1825Y750D01*
Y700D01*
X1800Y675D01*
X1975Y475D02*
X1950Y450D01*
Y400D01*
X1975Y375D01*
X2000D01*
X2025Y400D01*
Y450D01*
X2050Y475D01*
X2075D01*
X2100Y450D01*
Y400D01*
X2075Y375D01*
X1975Y625D02*
X1950Y600D01*
Y550D01*
X1975Y525D01*
X2075D01*
X2100Y550D01*
Y600D01*
X2075Y625D01*
X1950Y675D02*
X2100D01*
X2050D01*
X1950Y775D01*
X2025Y700D01*
X2100Y775D01*
X2350Y375D02*
X2200D01*
X2250Y425D01*
X2200Y475D01*
X2350D01*
X2200Y525D02*
Y575D01*
Y550D01*
X2350D01*
Y525D01*
Y575D01*
X2225Y750D02*
X2200Y725D01*
Y675D01*
X2225Y650D01*
X2250D01*
X2275Y675D01*
Y725D01*
X2300Y750D01*
X2325D01*
X2350Y725D01*
Y675D01*
X2325Y650D01*
X2200Y875D02*
Y825D01*
X2225Y800D01*
X2325D01*
X2350Y825D01*
Y875D01*
X2325Y900D01*
X2225D01*
X2200Y875D01*
X2600Y375D02*
X2450D01*
X2500Y425D01*
X2450Y475D01*
X2600D01*
X2450Y600D02*
Y550D01*
X2475Y525D01*
X2575D01*
X2600Y550D01*
Y600D01*
X2575Y625D01*
X2475D01*
X2450Y600D01*
X2475Y775D02*
X2450Y750D01*
Y700D01*
X2475Y675D01*
X2500D01*
X2525Y700D01*
Y750D01*
X2550Y775D01*
X2575D01*
X2600Y750D01*
Y700D01*
X2575Y675D01*
X2450Y825D02*
Y875D01*
Y850D01*
X2600D01*
Y825D01*
Y875D01*
X2700Y375D02*
Y425D01*
Y400D01*
X2850D01*
Y375D01*
Y425D01*
Y500D02*
X2700D01*
X2850Y600D01*
X2700D01*
Y650D02*
Y750D01*
Y700D01*
X2850D01*
X3100Y375D02*
X2950D01*
Y450D01*
X2975Y475D01*
X3025D01*
X3050Y450D01*
Y375D01*
Y425D02*
X3100Y475D01*
X2950Y625D02*
Y525D01*
X3025D01*
Y575D01*
Y525D01*
X3100D01*
X2950Y775D02*
Y675D01*
X3100D01*
Y775D01*
X3025Y675D02*
Y725D01*
X3100Y825D02*
X2950D01*
X3100Y925D01*
X2950D01*
X3275Y375D02*
Y475D01*
X3225Y425D02*
X3325D01*
X3225Y525D02*
X3200Y550D01*
Y600D01*
X3225Y625D01*
X3250D01*
X3275Y600D01*
Y575D01*
Y600D01*
X3300Y625D01*
X3325D01*
X3350Y600D01*
Y550D01*
X3325Y525D01*
X3200Y675D02*
X3300D01*
X3350Y725D01*
X3300Y775D01*
X3200D01*
X3225Y825D02*
X3200Y850D01*
Y900D01*
X3225Y925D01*
X3250D01*
X3275Y900D01*
Y875D01*
Y900D01*
X3300Y925D01*
X3325D01*
X3350Y900D01*
Y850D01*
X3325Y825D01*
X3525Y375D02*
Y475D01*
X3475Y425D02*
X3575D01*
X3450Y525D02*
X3550D01*
X3600Y575D01*
X3550Y625D01*
X3450D01*
Y675D02*
X3600D01*
Y750D01*
X3575Y775D01*
X3550D01*
X3525Y750D01*
Y675D01*
Y750D01*
X3500Y775D01*
X3475D01*
X3450Y750D01*
Y675D01*
X3600Y825D02*
X3500D01*
X3450Y875D01*
X3500Y925D01*
X3600D01*
X3525D01*
Y825D01*
X3450Y975D02*
Y1075D01*
Y1025D01*
X3600D01*
X3725Y475D02*
X3700Y450D01*
Y400D01*
X3725Y375D01*
X3825D01*
X3850Y400D01*
Y450D01*
X3825Y475D01*
X3775D01*
Y425D01*
X3850Y525D02*
X3700D01*
X3850Y625D01*
X3700D01*
Y675D02*
X3850D01*
Y750D01*
X3825Y775D01*
X3725D01*
X3700Y750D01*
Y675D01*
D11*
X896Y73D02*
Y327D01*
X3910D01*
Y73D02*
Y327D01*
X896Y73D02*
X3910D01*
X1223Y3123D02*
Y3631D01*
Y3123D02*
X1477D01*
Y3631D01*
X1223D02*
X1477D01*
X3692Y5025D02*
Y4925D01*
X3758D01*
X3858D02*
X3792D01*
X3858Y4992D01*
Y5008D01*
X3842Y5025D01*
X3808D01*
X3792Y5008D01*
X4458Y5125D02*
X4425D01*
X4442D01*
Y5042D01*
X4425Y5025D01*
X4408D01*
X4392Y5042D01*
X4492Y5025D02*
Y5125D01*
X4542D01*
X4558Y5108D01*
Y5075D01*
X4542Y5058D01*
X4492D01*
X4642Y5025D02*
Y5125D01*
X4592Y5075D01*
X4658D01*
X4058Y4858D02*
X4042Y4875D01*
X4008D01*
X3992Y4858D01*
Y4792D01*
X4008Y4775D01*
X4042D01*
X4058Y4792D01*
X4092Y4875D02*
X4158D01*
Y4858D01*
X4092Y4792D01*
Y4775D01*
X3533Y4558D02*
X3517Y4575D01*
X3483D01*
X3467Y4558D01*
Y4492D01*
X3483Y4475D01*
X3517D01*
X3533Y4492D01*
X3633Y4575D02*
X3567D01*
Y4525D01*
X3600Y4542D01*
X3617D01*
X3633Y4525D01*
Y4492D01*
X3617Y4475D01*
X3583D01*
X3567Y4492D01*
X4050Y275D02*
X4017D01*
X4033D01*
Y192D01*
X4017Y175D01*
X4000D01*
X3983Y192D01*
X4083Y175D02*
Y275D01*
X4133D01*
X4150Y258D01*
Y225D01*
X4133Y208D01*
X4083D01*
X4183Y175D02*
X4217D01*
X4200D01*
Y275D01*
X4183Y258D01*
X3533Y3425D02*
Y3342D01*
X3550Y3325D01*
X3583D01*
X3600Y3342D01*
Y3425D01*
X3633Y3325D02*
X3667D01*
X3650D01*
Y3425D01*
X3633Y3408D01*
X3367Y2725D02*
Y2825D01*
X3417D01*
X3433Y2808D01*
Y2775D01*
X3417Y2758D01*
X3367D01*
X3400D02*
X3433Y2725D01*
X3533D02*
X3467D01*
X3533Y2792D01*
Y2808D01*
X3517Y2825D01*
X3483D01*
X3467Y2808D01*
X4108Y3175D02*
Y3275D01*
X4158D01*
X4175Y3258D01*
Y3225D01*
X4158Y3208D01*
X4108D01*
X4142D02*
X4175Y3175D01*
X4208D02*
X4242D01*
X4225D01*
Y3275D01*
X4208Y3258D01*
X2433Y2825D02*
Y2925D01*
X2467Y2892D01*
X2500Y2925D01*
Y2825D01*
X2533D02*
X2567D01*
X2550D01*
Y2925D01*
X2533Y2908D01*
X1158Y5000D02*
Y4900D01*
X1225D01*
X1258D02*
X1292D01*
X1275D01*
Y5000D01*
X1258Y4983D01*
X433Y5150D02*
X400D01*
X417D01*
Y5067D01*
X400Y5050D01*
X383D01*
X367Y5067D01*
X467Y5050D02*
Y5150D01*
X517D01*
X533Y5133D01*
Y5100D01*
X517Y5083D01*
X467D01*
X567Y5133D02*
X583Y5150D01*
X617D01*
X633Y5133D01*
Y5117D01*
X617Y5100D01*
X600D01*
X617D01*
X633Y5083D01*
Y5067D01*
X617Y5050D01*
X583D01*
X567Y5067D01*
X1283Y3075D02*
X1250D01*
X1267D01*
Y2992D01*
X1250Y2975D01*
X1233D01*
X1217Y2992D01*
X1317Y2975D02*
Y3075D01*
X1367D01*
X1383Y3058D01*
Y3025D01*
X1367Y3008D01*
X1317D01*
X1483Y2975D02*
X1417D01*
X1483Y3042D01*
Y3058D01*
X1467Y3075D01*
X1433D01*
X1417Y3058D01*
X908Y4808D02*
X892Y4825D01*
X858D01*
X842Y4808D01*
Y4742D01*
X858Y4725D01*
X892D01*
X908Y4742D01*
X1008Y4825D02*
X975Y4808D01*
X942Y4775D01*
Y4742D01*
X958Y4725D01*
X992D01*
X1008Y4742D01*
Y4758D01*
X992Y4775D01*
X942D01*
X1433Y4558D02*
X1417Y4575D01*
X1383D01*
X1367Y4558D01*
Y4492D01*
X1383Y4475D01*
X1417D01*
X1433Y4492D01*
X1517Y4475D02*
Y4575D01*
X1467Y4525D01*
X1533D01*
X3583Y2933D02*
X3567Y2950D01*
X3533D01*
X3517Y2933D01*
Y2867D01*
X3533Y2850D01*
X3567D01*
X3583Y2867D01*
X3617Y2933D02*
X3633Y2950D01*
X3667D01*
X3683Y2933D01*
Y2917D01*
X3667Y2900D01*
X3650D01*
X3667D01*
X3683Y2883D01*
Y2867D01*
X3667Y2850D01*
X3633D01*
X3617Y2867D01*
X3883Y3583D02*
X3867Y3600D01*
X3833D01*
X3817Y3583D01*
Y3517D01*
X3833Y3500D01*
X3867D01*
X3883Y3517D01*
X3983Y3500D02*
X3917D01*
X3983Y3567D01*
Y3583D01*
X3967Y3600D01*
X3933D01*
X3917Y3583D01*
X3900Y2658D02*
X3883Y2675D01*
X3850D01*
X3833Y2658D01*
Y2592D01*
X3850Y2575D01*
X3883D01*
X3900Y2592D01*
X3933Y2575D02*
X3967D01*
X3950D01*
Y2675D01*
X3933Y2658D01*
D12*
X4212Y3020D02*
Y3030D01*
X4138Y3020D02*
Y3030D01*
X650Y5867D02*
X1350D01*
X1114Y5703D02*
X1350D01*
X1245Y6154D02*
X1266Y6192D01*
X1271D02*
X1309Y6213D01*
Y6227D01*
X1272Y6248D02*
X1309Y6227D01*
X1272Y6248D02*
X1309Y6269D01*
Y6283D01*
X1272Y6304D02*
X1309Y6283D01*
X1272Y6304D02*
X1309Y6325D01*
Y6339D01*
X1272Y6360D02*
X1309Y6339D01*
X1272Y6360D02*
X1309Y6381D01*
Y6395D01*
X1272Y6416D02*
X1309Y6395D01*
X1272Y6416D02*
X1309Y6437D01*
Y6451D01*
X1272Y6472D02*
X1309Y6451D01*
X1272Y6472D02*
X1309Y6493D01*
Y6507D01*
X1272Y6528D02*
X1309Y6507D01*
X1272Y6528D02*
X1309Y6549D01*
Y6563D01*
X1272Y6584D02*
X1309Y6563D01*
X734Y6584D02*
X1272D01*
X691Y6563D02*
X734Y6584D01*
X691Y6549D02*
Y6563D01*
Y6549D02*
X728Y6528D01*
X691Y6507D02*
X728Y6528D01*
X691Y6493D02*
Y6507D01*
Y6493D02*
X728Y6472D01*
X691Y6451D02*
X728Y6472D01*
X691Y6437D02*
Y6451D01*
Y6437D02*
X728Y6416D01*
X691Y6395D02*
X728Y6416D01*
X691Y6381D02*
Y6395D01*
Y6381D02*
X728Y6360D01*
X691Y6339D02*
X728Y6360D01*
X691Y6325D02*
Y6339D01*
Y6325D02*
X728Y6304D01*
X691Y6283D02*
X728Y6304D01*
X691Y6269D02*
Y6283D01*
Y6269D02*
X728Y6248D01*
X691Y6227D02*
X728Y6248D01*
X691Y6213D02*
Y6227D01*
Y6213D02*
X728Y6192D01*
X1271D01*
X734D02*
X755Y6154D01*
X755D02*
X1245D01*
Y5867D02*
Y6154D01*
X1266Y6584D02*
Y6656D01*
X734D02*
X1266D01*
X734Y6584D02*
Y6656D01*
X755Y5867D02*
Y6154D01*
X691Y6269D02*
X1309Y6213D01*
X691Y6283D02*
X1309Y6227D01*
X728Y6304D02*
X1272Y6248D01*
X728D02*
X1271Y6192D01*
X691Y6213D02*
X1266Y6192D01*
X691Y6227D02*
X1271Y6192D01*
X691Y6325D02*
X1309Y6269D01*
X691Y6339D02*
X1309Y6283D01*
X728Y6360D02*
X1272Y6304D01*
X691Y6381D02*
X1309Y6325D01*
X691Y6395D02*
X1309Y6339D01*
X728Y6416D02*
X1272Y6360D01*
X691Y6437D02*
X1309Y6381D01*
X691Y6451D02*
X1309Y6395D01*
X728Y6472D02*
X1272Y6416D01*
X691Y6493D02*
X1309Y6437D01*
X691Y6507D02*
X1309Y6451D01*
X728Y6528D02*
X1272Y6472D01*
X691Y6549D02*
X1309Y6493D01*
X691Y6563D02*
X1309Y6507D01*
X734Y6584D02*
X1272Y6528D01*
X734Y6584D02*
X1309Y6549D01*
X734Y6584D02*
X1309Y6563D01*
X1350Y5703D02*
Y5867D01*
X650Y5703D02*
Y5867D01*
Y5703D02*
X886D01*
X3650Y5867D02*
X4350D01*
X4114Y5703D02*
X4350D01*
X4245Y6154D02*
X4266Y6192D01*
X4271D02*
X4309Y6213D01*
Y6227D01*
X4272Y6248D02*
X4309Y6227D01*
X4272Y6248D02*
X4309Y6269D01*
Y6283D01*
X4272Y6304D02*
X4309Y6283D01*
X4272Y6304D02*
X4309Y6325D01*
Y6339D01*
X4272Y6360D02*
X4309Y6339D01*
X4272Y6360D02*
X4309Y6381D01*
Y6395D01*
X4272Y6416D02*
X4309Y6395D01*
X4272Y6416D02*
X4309Y6437D01*
Y6451D01*
X4272Y6472D02*
X4309Y6451D01*
X4272Y6472D02*
X4309Y6493D01*
Y6507D01*
X4272Y6528D02*
X4309Y6507D01*
X4272Y6528D02*
X4309Y6549D01*
Y6563D01*
X4272Y6584D02*
X4309Y6563D01*
X3733Y6584D02*
X4272D01*
X3691Y6563D02*
X3733Y6584D01*
X3691Y6549D02*
Y6563D01*
Y6549D02*
X3728Y6528D01*
X3691Y6507D02*
X3728Y6528D01*
X3691Y6493D02*
Y6507D01*
Y6493D02*
X3728Y6472D01*
X3691Y6451D02*
X3728Y6472D01*
X3691Y6437D02*
Y6451D01*
Y6437D02*
X3728Y6416D01*
X3691Y6395D02*
X3728Y6416D01*
X3691Y6381D02*
Y6395D01*
Y6381D02*
X3728Y6360D01*
X3691Y6339D02*
X3728Y6360D01*
X3691Y6325D02*
Y6339D01*
Y6325D02*
X3728Y6304D01*
X3691Y6283D02*
X3728Y6304D01*
X3691Y6269D02*
Y6283D01*
Y6269D02*
X3728Y6248D01*
X3691Y6227D02*
X3728Y6248D01*
X3691Y6213D02*
Y6227D01*
Y6213D02*
X3728Y6192D01*
X4271D01*
X3733D02*
X3755Y6154D01*
X3755D02*
X4245D01*
Y5867D02*
Y6154D01*
X4267Y6584D02*
Y6656D01*
X3733D02*
X4267D01*
X3733Y6584D02*
Y6656D01*
X3755Y5867D02*
Y6154D01*
X3691Y6269D02*
X4309Y6213D01*
X3691Y6283D02*
X4309Y6227D01*
X3728Y6304D02*
X4272Y6248D01*
X3728D02*
X4271Y6192D01*
X3691Y6213D02*
X4266Y6192D01*
X3691Y6227D02*
X4271Y6192D01*
X3691Y6325D02*
X4309Y6269D01*
X3691Y6339D02*
X4309Y6283D01*
X3728Y6360D02*
X4272Y6304D01*
X3691Y6381D02*
X4309Y6325D01*
X3691Y6395D02*
X4309Y6339D01*
X3728Y6416D02*
X4272Y6360D01*
X3691Y6437D02*
X4309Y6381D01*
X3691Y6451D02*
X4309Y6395D01*
X3728Y6472D02*
X4272Y6416D01*
X3691Y6493D02*
X4309Y6437D01*
X3691Y6507D02*
X4309Y6451D01*
X3728Y6528D02*
X4272Y6472D01*
X3691Y6549D02*
X4309Y6493D01*
X3691Y6563D02*
X4309Y6507D01*
X3733Y6584D02*
X4272Y6528D01*
X3733Y6584D02*
X4309Y6549D01*
X3733Y6584D02*
X4309Y6563D01*
X4350Y5703D02*
Y5867D01*
X3650Y5703D02*
Y5867D01*
Y5703D02*
X3886D01*
X3765Y4759D02*
X3785D01*
X3765Y4841D02*
X3785D01*
X3288Y2795D02*
Y2805D01*
X3212Y2795D02*
Y2805D01*
X3725Y3045D02*
Y3105D01*
X4025Y3045D02*
Y3105D01*
X3725Y3045D02*
X4025D01*
X3725Y3105D02*
X4025D01*
X1215Y4841D02*
X1235D01*
X1215Y4759D02*
X1235D01*
D13*
X1750Y4900D02*
Y5000D01*
X3250Y4900D02*
Y5000D01*
X1750Y3000D02*
Y3100D01*
X3250Y3000D02*
Y3100D01*
X1750Y3000D02*
X3250D01*
X1750Y5000D02*
X3250D01*
M02*
