G04*
G04 #@! TF.GenerationSoftware,Altium Limited,Altium Designer,26.6.0 (10)*
G04*
G04 Layer_Physical_Order=1*
G04 Layer_Color=255*
G04 Board_Origin=25492126|14370078*
%FSLAX42Y42*%
%MOMM*%
G71*
G04*
G04 #@! TF.SameCoordinates,F1AEA7B7-EF65-44AA-83E2-7B156C2E8358*
G04*
G04*
G04 #@! TF.FilePolarity,Positive*
G04*
G01*
G75*
%ADD10C,0.25*%
%ADD17R,1.50X3.81*%
%ADD18R,1.60X4.90*%
G04:AMPARAMS|DCode=19|XSize=0.85mm|YSize=0.55mm|CornerRadius=0.14mm|HoleSize=0mm|Usage=FLASHONLY|Rotation=0.000|XOffset=0mm|YOffset=0mm|HoleType=Round|Shape=RoundedRectangle|*
%AMROUNDEDRECTD19*
21,1,0.85,0.28,0,0,0.0*
21,1,0.58,0.55,0,0,0.0*
1,1,0.28,0.29,-0.14*
1,1,0.28,-0.29,-0.14*
1,1,0.28,-0.29,0.14*
1,1,0.28,0.29,0.14*
%
%ADD19ROUNDEDRECTD19*%
%ADD20R,0.95X0.60*%
%ADD21R,0.60X0.95*%
G04:AMPARAMS|DCode=22|XSize=0.3mm|YSize=1.45mm|CornerRadius=0.05mm|HoleSize=0mm|Usage=FLASHONLY|Rotation=270.000|XOffset=0mm|YOffset=0mm|HoleType=Round|Shape=RoundedRectangle|*
%AMROUNDEDRECTD22*
21,1,0.30,1.36,0,0,270.0*
21,1,0.21,1.45,0,0,270.0*
1,1,0.09,-0.68,-0.11*
1,1,0.09,-0.68,0.11*
1,1,0.09,0.68,0.11*
1,1,0.09,0.68,-0.11*
%
%ADD22ROUNDEDRECTD22*%
G04:AMPARAMS|DCode=23|XSize=1.8mm|YSize=1.2mm|CornerRadius=0.12mm|HoleSize=0mm|Usage=FLASHONLY|Rotation=90.000|XOffset=0mm|YOffset=0mm|HoleType=Round|Shape=RoundedRectangle|*
%AMROUNDEDRECTD23*
21,1,1.80,0.96,0,0,90.0*
21,1,1.56,1.20,0,0,90.0*
1,1,0.24,0.48,0.78*
1,1,0.24,0.48,-0.78*
1,1,0.24,-0.48,-0.78*
1,1,0.24,-0.48,0.78*
%
%ADD23ROUNDEDRECTD23*%
G04:AMPARAMS|DCode=24|XSize=1.8mm|YSize=1.5mm|CornerRadius=0.15mm|HoleSize=0mm|Usage=FLASHONLY|Rotation=270.000|XOffset=0mm|YOffset=0mm|HoleType=Round|Shape=RoundedRectangle|*
%AMROUNDEDRECTD24*
21,1,1.80,1.20,0,0,270.0*
21,1,1.50,1.50,0,0,270.0*
1,1,0.30,-0.60,-0.75*
1,1,0.30,-0.60,0.75*
1,1,0.30,0.60,0.75*
1,1,0.30,0.60,-0.75*
%
%ADD24ROUNDEDRECTD24*%
%ADD25R,1.00X1.45*%
G04:AMPARAMS|DCode=26|XSize=1.27mm|YSize=0.31mm|CornerRadius=0.08mm|HoleSize=0mm|Usage=FLASHONLY|Rotation=180.000|XOffset=0mm|YOffset=0mm|HoleType=Round|Shape=RoundedRectangle|*
%AMROUNDEDRECTD26*
21,1,1.27,0.15,0,0,180.0*
21,1,1.11,0.31,0,0,180.0*
1,1,0.16,-0.55,0.07*
1,1,0.16,0.55,0.07*
1,1,0.16,0.55,-0.07*
1,1,0.16,-0.55,-0.07*
%
%ADD26ROUNDEDRECTD26*%
%ADD27R,0.80X1.00*%
%ADD28R,1.45X1.00*%
G04:AMPARAMS|DCode=29|XSize=0.85mm|YSize=0.55mm|CornerRadius=0.14mm|HoleSize=0mm|Usage=FLASHONLY|Rotation=90.000|XOffset=0mm|YOffset=0mm|HoleType=Round|Shape=RoundedRectangle|*
%AMROUNDEDRECTD29*
21,1,0.85,0.28,0,0,90.0*
21,1,0.58,0.55,0,0,90.0*
1,1,0.28,0.14,0.29*
1,1,0.28,0.14,-0.29*
1,1,0.28,-0.14,-0.29*
1,1,0.28,-0.14,0.29*
%
%ADD29ROUNDEDRECTD29*%
%ADD30R,0.60X1.00*%
G04:AMPARAMS|DCode=31|XSize=2mm|YSize=1mm|CornerRadius=0.25mm|HoleSize=0mm|Usage=FLASHONLY|Rotation=180.000|XOffset=0mm|YOffset=0mm|HoleType=Round|Shape=RoundedRectangle|*
%AMROUNDEDRECTD31*
21,1,2.00,0.50,0,0,180.0*
21,1,1.50,1.00,0,0,180.0*
1,1,0.50,-0.75,0.25*
1,1,0.50,0.75,0.25*
1,1,0.50,0.75,-0.25*
1,1,0.50,-0.75,-0.25*
%
%ADD31ROUNDEDRECTD31*%
%ADD32R,1.00X0.80*%
G04:AMPARAMS|DCode=33|XSize=2.27mm|YSize=1.65mm|CornerRadius=0.25mm|HoleSize=0mm|Usage=FLASHONLY|Rotation=0.000|XOffset=0mm|YOffset=0mm|HoleType=Round|Shape=RoundedRectangle|*
%AMROUNDEDRECTD33*
21,1,2.27,1.16,0,0,0.0*
21,1,1.78,1.65,0,0,0.0*
1,1,0.50,0.89,-0.58*
1,1,0.50,-0.89,-0.58*
1,1,0.50,-0.89,0.58*
1,1,0.50,0.89,0.58*
%
%ADD33ROUNDEDRECTD33*%
%ADD34R,0.66X2.54*%
%ADD35R,3.00X1.20*%
%ADD36R,0.80X1.60*%
%ADD42R,1.71X1.71*%
%ADD43C,1.71*%
%ADD44R,1.45X1.45*%
%ADD45C,1.45*%
%ADD46O,1.80X1.00*%
%ADD48R,1.60X1.60*%
%ADD49C,1.60*%
%ADD51C,3.20*%
%ADD52R,1.71X1.71*%
%ADD53C,4.00*%
%ADD54C,0.80*%
%ADD55C,0.80*%
%ADD56C,0.50*%
%ADD57R,3.00X1.50*%
%ADD58R,2.99X1.26*%
%ADD59R,3.00X1.50*%
%ADD60R,3.00X1.60*%
%ADD61R,4.00X2.25*%
%ADD62R,4.00X4.00*%
%ADD63R,0.75X2.50*%
%ADD64R,1.42X2.50*%
%ADD65C,0.75*%
%ADD66C,2.00*%
%ADD67C,0.60*%
G36*
X2406Y6972D02*
X2410Y6954D01*
X2410Y6952D01*
Y6543D01*
X2436D01*
X2451Y6410D01*
X2451Y6407D01*
X2452Y6389D01*
X2452Y6389D01*
X2451Y6373D01*
X2451Y6372D01*
X2451Y6372D01*
X2451Y6370D01*
X2438Y6314D01*
X2416Y6261D01*
X2386Y6213D01*
X2364Y6186D01*
X2351Y6172D01*
X2351Y6172D01*
X2350Y6172D01*
X2329Y6145D01*
X2316Y6112D01*
X2314Y6097D01*
X2310D01*
Y6050D01*
X2300D01*
Y5911D01*
X2300D01*
X2308Y5901D01*
X2307Y5896D01*
Y5773D01*
X2301Y5755D01*
X2287Y5755D01*
X2249D01*
Y5650D01*
Y5545D01*
X2292D01*
X2301Y5545D01*
X2317Y5555D01*
X2321Y5555D01*
X2409Y5555D01*
X2425Y5545D01*
X2434Y5545D01*
X2477D01*
Y5650D01*
Y5755D01*
X2425Y5755D01*
X2419Y5773D01*
Y5853D01*
X2440D01*
Y5962D01*
X2439D01*
Y5988D01*
X2440D01*
Y6097D01*
X2440Y6097D01*
X2440D01*
X2448Y6114D01*
X2468Y6137D01*
X2503Y6189D01*
X2530Y6245D01*
X2550Y6304D01*
X2561Y6358D01*
X2562Y6364D01*
X2563Y6372D01*
X2563Y6372D01*
X2564Y6380D01*
X2564Y6383D01*
X2564Y6383D01*
X2565Y6391D01*
X2564Y6406D01*
X2563Y6411D01*
X2551Y6528D01*
X2564Y6543D01*
X2590D01*
Y6952D01*
X2594Y6972D01*
X6406Y6972D01*
X6410Y6954D01*
X6410Y6952D01*
Y6543D01*
X6444D01*
Y6030D01*
X6429Y6016D01*
X6325Y6025D01*
Y6015D01*
X6253D01*
Y6006D01*
X5225D01*
X5225Y6006D01*
X5173Y6002D01*
X5123Y5990D01*
X5075Y5970D01*
X5030Y5943D01*
X4991Y5909D01*
X4957Y5870D01*
X4930Y5825D01*
X4910Y5777D01*
X4898Y5727D01*
X4894Y5675D01*
X4894Y5675D01*
Y5575D01*
X4785D01*
Y5425D01*
X5115D01*
Y5575D01*
X5006D01*
Y5675D01*
X5005Y5678D01*
X5009Y5718D01*
X5022Y5759D01*
X5042Y5797D01*
X5070Y5830D01*
X5103Y5858D01*
X5141Y5878D01*
X5182Y5891D01*
X5222Y5895D01*
X5225Y5894D01*
X6253D01*
Y5885D01*
X6325D01*
Y5875D01*
X6450D01*
Y5875D01*
X6460Y5885D01*
X6497D01*
Y5894D01*
X6528D01*
Y5885D01*
X6600D01*
Y5875D01*
X6705D01*
X6717Y5867D01*
X6739Y5863D01*
X7421D01*
X7432Y5843D01*
X7428Y5837D01*
X7424Y5817D01*
Y5805D01*
X7550D01*
X7676D01*
Y5817D01*
X7672Y5837D01*
X7665Y5848D01*
X7654Y5865D01*
X7663Y5878D01*
X7666Y5894D01*
Y5944D01*
X7663Y5960D01*
X7654Y5973D01*
X7665Y5990D01*
X7672Y6001D01*
X7676Y6021D01*
Y6033D01*
X7550D01*
X7424D01*
Y6021D01*
X7428Y6001D01*
X7432Y5995D01*
X7421Y5975D01*
X6772D01*
Y6015D01*
X6725D01*
Y6025D01*
X6600D01*
Y6015D01*
X6556D01*
Y6543D01*
X6590D01*
Y6952D01*
X6594Y6972D01*
X8481Y6972D01*
X8485Y6954D01*
X8485Y6952D01*
Y6543D01*
X8519D01*
Y6340D01*
X8503D01*
Y6331D01*
X8447D01*
Y6340D01*
X8203D01*
Y6280D01*
X8201Y6275D01*
Y5833D01*
X8202Y5830D01*
X8199Y5789D01*
X8189Y5747D01*
X8172Y5707D01*
X8149Y5670D01*
X8121Y5637D01*
X8088Y5608D01*
X8051Y5586D01*
X8011Y5569D01*
X7968Y5559D01*
X7927Y5556D01*
X7925Y5556D01*
X6615D01*
Y5575D01*
X6285D01*
Y5425D01*
X6615D01*
Y5444D01*
X7925D01*
Y5444D01*
X7986Y5449D01*
X8045Y5463D01*
X8101Y5486D01*
X8153Y5518D01*
X8200Y5558D01*
X8239Y5604D01*
X8271Y5656D01*
X8295Y5712D01*
X8309Y5772D01*
X8314Y5833D01*
X8314D01*
Y6200D01*
X8400D01*
Y6210D01*
X8447D01*
Y6219D01*
X8503D01*
Y6210D01*
X8575D01*
Y6200D01*
X8725D01*
Y6210D01*
X8747D01*
Y6219D01*
X9290Y6219D01*
X9291Y6219D01*
X9294Y6218D01*
X9310Y6210D01*
D01*
X9323Y6196D01*
X9332Y6184D01*
X9349Y6154D01*
X9359Y6122D01*
X9362Y6088D01*
X9359Y6053D01*
X9349Y6021D01*
X9340Y6004D01*
X9329Y5988D01*
X9322Y5981D01*
X9283D01*
X9272Y6001D01*
X9272Y6001D01*
X9276Y6021D01*
Y6033D01*
X9150D01*
X9024D01*
Y6021D01*
X9028Y6001D01*
X9035Y5990D01*
X9046Y5973D01*
X9037Y5960D01*
X9034Y5944D01*
Y5894D01*
X9037Y5878D01*
X9046Y5865D01*
X9035Y5848D01*
X9028Y5837D01*
X9024Y5817D01*
Y5805D01*
X9150D01*
X9276D01*
Y5817D01*
X9272Y5837D01*
X9265Y5848D01*
X9264Y5849D01*
X9270Y5864D01*
X9273Y5869D01*
X9346D01*
X9367Y5873D01*
X9385Y5885D01*
X9409Y5909D01*
X9409Y5909D01*
X9409Y5909D01*
X9409Y5909D01*
X9414Y5914D01*
X9416Y5917D01*
X9420Y5921D01*
X9421Y5924D01*
X9442Y5958D01*
X9459Y5999D01*
X9470Y6043D01*
X9473Y6088D01*
X9470Y6132D01*
X9459Y6176D01*
X9442Y6217D01*
X9419Y6255D01*
X9391Y6288D01*
X9390Y6290D01*
X9390Y6290D01*
X9360Y6312D01*
X9326Y6326D01*
X9290Y6331D01*
X9290Y6331D01*
Y6331D01*
X9290Y6331D01*
X8747Y6331D01*
Y6340D01*
X8638D01*
X8631Y6357D01*
Y6543D01*
X8665D01*
Y6952D01*
X8669Y6972D01*
X10272Y6972D01*
Y5800D01*
X10274Y5789D01*
X10280Y5780D01*
X10289Y5774D01*
X10300Y5772D01*
X11472D01*
Y1228D01*
X10300D01*
X10289Y1226D01*
X10280Y1220D01*
X10274Y1211D01*
X10272Y1200D01*
Y28D01*
X1228Y28D01*
Y1200D01*
X1226Y1211D01*
X1220Y1220D01*
X1211Y1226D01*
X1200Y1228D01*
X28D01*
Y5772D01*
X1200D01*
X1211Y5774D01*
X1220Y5780D01*
X1226Y5789D01*
X1228Y5800D01*
Y6972D01*
X2406Y6972D01*
D02*
G37*
%LPC*%
G36*
X3812Y6445D02*
X3688D01*
Y6441D01*
X3562D01*
Y6445D01*
X3438D01*
Y6441D01*
X3375D01*
X3375Y6441D01*
X3359Y6438D01*
X3346Y6429D01*
X3346Y6429D01*
X3225Y6308D01*
X3216Y6295D01*
X3213Y6279D01*
X3213Y6279D01*
Y6093D01*
X3192Y6080D01*
X3174Y6062D01*
X3160Y6039D01*
X3153Y6013D01*
Y5987D01*
X3160Y5961D01*
X3174Y5938D01*
X3192Y5920D01*
X3215Y5906D01*
X3241Y5899D01*
X3267D01*
X3293Y5906D01*
X3316Y5920D01*
X3334Y5938D01*
X3348Y5961D01*
X3354Y5987D01*
Y6013D01*
X3348Y6039D01*
X3334Y6062D01*
X3316Y6080D01*
X3295Y6093D01*
Y6262D01*
X3392Y6359D01*
X3438D01*
Y6355D01*
X3562D01*
Y6359D01*
X3688D01*
Y6355D01*
X3812D01*
Y6445D01*
D02*
G37*
G36*
X5772Y6525D02*
X5763D01*
Y6313D01*
X5975D01*
Y6322D01*
X5967Y6366D01*
X5950Y6407D01*
X5925Y6444D01*
X5894Y6475D01*
X5857Y6500D01*
X5816Y6517D01*
X5772Y6525D01*
D02*
G37*
G36*
X5737D02*
X5728D01*
X5684Y6517D01*
X5643Y6500D01*
X5606Y6475D01*
X5575Y6444D01*
X5550Y6407D01*
X5533Y6366D01*
X5525Y6322D01*
Y6313D01*
X5737D01*
Y6525D01*
D02*
G37*
G36*
X9772D02*
X9763D01*
Y6313D01*
X9975D01*
Y6322D01*
X9967Y6366D01*
X9950Y6407D01*
X9925Y6444D01*
X9894Y6475D01*
X9857Y6500D01*
X9816Y6517D01*
X9772Y6525D01*
D02*
G37*
G36*
X1772D02*
X1763D01*
Y6313D01*
X1975D01*
Y6322D01*
X1967Y6366D01*
X1950Y6407D01*
X1925Y6444D01*
X1894Y6475D01*
X1857Y6500D01*
X1816Y6517D01*
X1772Y6525D01*
D02*
G37*
G36*
X9737D02*
X9728D01*
X9684Y6517D01*
X9643Y6500D01*
X9606Y6475D01*
X9575Y6444D01*
X9550Y6407D01*
X9533Y6366D01*
X9525Y6322D01*
Y6313D01*
X9737D01*
Y6525D01*
D02*
G37*
G36*
X1737D02*
X1728D01*
X1684Y6517D01*
X1643Y6500D01*
X1606Y6475D01*
X1575Y6444D01*
X1550Y6407D01*
X1533Y6366D01*
X1525Y6322D01*
Y6313D01*
X1737D01*
Y6525D01*
D02*
G37*
G36*
X9975Y6287D02*
X9763D01*
Y6075D01*
X9772D01*
X9816Y6083D01*
X9857Y6100D01*
X9894Y6125D01*
X9925Y6156D01*
X9950Y6193D01*
X9967Y6234D01*
X9975Y6278D01*
Y6287D01*
D02*
G37*
G36*
X9737D02*
X9525D01*
Y6278D01*
X9533Y6234D01*
X9550Y6193D01*
X9575Y6156D01*
X9606Y6125D01*
X9643Y6100D01*
X9684Y6083D01*
X9728Y6075D01*
X9737D01*
Y6287D01*
D02*
G37*
G36*
X5975Y6287D02*
X5763D01*
Y6075D01*
X5772D01*
X5816Y6083D01*
X5857Y6100D01*
X5894Y6125D01*
X5925Y6156D01*
X5950Y6193D01*
X5967Y6234D01*
X5975Y6278D01*
Y6287D01*
D02*
G37*
G36*
X5737D02*
X5525D01*
Y6278D01*
X5533Y6234D01*
X5550Y6193D01*
X5575Y6156D01*
X5606Y6125D01*
X5643Y6100D01*
X5684Y6083D01*
X5728Y6075D01*
X5737D01*
Y6287D01*
D02*
G37*
G36*
X1975Y6287D02*
X1763D01*
Y6075D01*
X1772D01*
X1816Y6083D01*
X1857Y6100D01*
X1894Y6125D01*
X1925Y6156D01*
X1950Y6193D01*
X1967Y6234D01*
X1975Y6278D01*
Y6287D01*
D02*
G37*
G36*
X1737D02*
X1525D01*
Y6278D01*
X1533Y6234D01*
X1550Y6193D01*
X1575Y6156D01*
X1606Y6125D01*
X1643Y6100D01*
X1684Y6083D01*
X1728Y6075D01*
X1737D01*
Y6287D01*
D02*
G37*
G36*
X9225Y6122D02*
X9163D01*
Y6059D01*
X9276D01*
Y6071D01*
X9272Y6091D01*
X9261Y6107D01*
X9245Y6118D01*
X9225Y6122D01*
D02*
G37*
G36*
X7625D02*
X7563D01*
Y6059D01*
X7676D01*
Y6071D01*
X7672Y6091D01*
X7661Y6107D01*
X7645Y6118D01*
X7625Y6122D01*
D02*
G37*
G36*
X9137D02*
X9075D01*
X9055Y6118D01*
X9039Y6107D01*
X9028Y6091D01*
X9024Y6071D01*
Y6059D01*
X9137D01*
Y6122D01*
D02*
G37*
G36*
X7537D02*
X7475D01*
X7455Y6118D01*
X7439Y6107D01*
X7428Y6091D01*
X7424Y6071D01*
Y6059D01*
X7537D01*
Y6122D01*
D02*
G37*
G36*
X3111Y6111D02*
X3013D01*
Y6013D01*
X3111D01*
Y6111D01*
D02*
G37*
G36*
X2987D02*
X2889D01*
Y6013D01*
X2987D01*
Y6111D01*
D02*
G37*
G36*
X3812Y6295D02*
X3688D01*
Y6205D01*
X3734D01*
Y6097D01*
X3723Y6094D01*
X3700Y6080D01*
X3682Y6062D01*
X3668Y6039D01*
X3662Y6013D01*
Y5987D01*
X3668Y5961D01*
X3682Y5938D01*
X3700Y5920D01*
X3723Y5906D01*
X3749Y5899D01*
X3775D01*
X3801Y5906D01*
X3824Y5920D01*
X3842Y5938D01*
X3856Y5961D01*
X3862Y5987D01*
Y6013D01*
X3856Y6039D01*
X3842Y6062D01*
X3824Y6080D01*
X3801Y6094D01*
X3790Y6097D01*
Y6205D01*
X3812D01*
Y6295D01*
D02*
G37*
G36*
X3562D02*
X3438D01*
Y6205D01*
X3480D01*
Y6097D01*
X3469Y6094D01*
X3446Y6080D01*
X3428Y6062D01*
X3414Y6039D01*
X3408Y6013D01*
Y5987D01*
X3414Y5961D01*
X3428Y5938D01*
X3446Y5920D01*
X3469Y5906D01*
X3495Y5899D01*
X3521D01*
X3547Y5906D01*
X3570Y5920D01*
X3588Y5938D01*
X3602Y5961D01*
X3608Y5987D01*
Y6013D01*
X3602Y6039D01*
X3588Y6062D01*
X3570Y6080D01*
X3547Y6094D01*
X3536Y6097D01*
Y6205D01*
X3562D01*
Y6295D01*
D02*
G37*
G36*
X3111Y5987D02*
X3013D01*
Y5889D01*
X3111D01*
Y5987D01*
D02*
G37*
G36*
X2987D02*
X2889D01*
Y5889D01*
X2987D01*
Y5987D01*
D02*
G37*
G36*
X2555Y5755D02*
X2546Y5755D01*
X2503D01*
Y5650D01*
Y5545D01*
X2546D01*
X2555Y5545D01*
X2569Y5554D01*
X2579Y5551D01*
X2589Y5541D01*
Y5208D01*
X2591Y5197D01*
X2597Y5188D01*
X2905Y4880D01*
Y4866D01*
X2912Y4850D01*
X2925Y4837D01*
X2938Y4831D01*
X2943Y4820D01*
X2945Y4810D01*
X2597Y4462D01*
X2591Y4453D01*
X2589Y4442D01*
Y4345D01*
X2565D01*
X2562Y4345D01*
X2545D01*
X2542Y4345D01*
X2518D01*
Y4385D01*
X2516Y4396D01*
X2510Y4405D01*
X2499Y4416D01*
X2493Y4431D01*
X2480Y4443D01*
X2463Y4450D01*
X2446D01*
X2429Y4443D01*
X2416Y4431D01*
X2415Y4428D01*
X2394D01*
X2393Y4431D01*
X2380Y4443D01*
X2363Y4450D01*
X2346D01*
X2329Y4443D01*
X2316Y4431D01*
X2315Y4428D01*
X2294D01*
X2293Y4431D01*
X2280Y4443D01*
X2263Y4450D01*
X2246D01*
X2229Y4443D01*
X2216Y4431D01*
X2210Y4414D01*
Y4396D01*
X2210Y4395D01*
X2208Y4386D01*
Y4345D01*
X2181D01*
Y4155D01*
X2288D01*
X2291Y4155D01*
X2308D01*
X2311Y4155D01*
X2415D01*
X2418Y4155D01*
X2435D01*
X2438Y4155D01*
X2542D01*
X2545Y4155D01*
X2562D01*
X2565Y4155D01*
X2669D01*
X2672Y4155D01*
X2689D01*
X2692Y4155D01*
X2796D01*
X2799Y4155D01*
X2816D01*
X2823Y4138D01*
X2763Y4078D01*
X2212D01*
X1695Y4595D01*
X1686Y4601D01*
X1675Y4603D01*
X1526D01*
Y4633D01*
X1800D01*
Y4917D01*
X1668Y4921D01*
Y5153D01*
X1737Y5222D01*
X2250D01*
X2261Y5224D01*
X2270Y5230D01*
X2320Y5280D01*
X2334D01*
X2350Y5287D01*
X2363Y5300D01*
X2370Y5316D01*
Y5334D01*
X2363Y5350D01*
X2350Y5363D01*
X2334Y5370D01*
X2316D01*
X2300Y5363D01*
X2287Y5350D01*
X2280Y5334D01*
Y5320D01*
X2238Y5278D01*
X1725D01*
X1714Y5276D01*
X1705Y5270D01*
X1620Y5185D01*
X1614Y5176D01*
X1612Y5165D01*
Y4937D01*
X1598Y4923D01*
X1525Y4925D01*
Y4917D01*
X1450D01*
Y4803D01*
X1388D01*
Y4820D01*
X1262D01*
Y4730D01*
X1388D01*
Y4747D01*
X1450D01*
Y4633D01*
X1470D01*
Y4590D01*
X1472Y4579D01*
X1478Y4570D01*
X1493Y4555D01*
X1502Y4549D01*
X1513Y4547D01*
X1663D01*
X2157Y4054D01*
X2156Y4045D01*
X2151Y4031D01*
X2141Y4024D01*
X2141Y4024D01*
X1896Y3779D01*
X1887Y3766D01*
X1884Y3750D01*
X1884Y3750D01*
Y3367D01*
X1775Y3258D01*
X1725D01*
Y3317D01*
X1524D01*
Y3266D01*
X1442D01*
X1216Y3492D01*
Y4883D01*
X1217Y4884D01*
X1262D01*
Y4880D01*
X1388D01*
Y4970D01*
X1366D01*
Y5339D01*
X1369Y5342D01*
X1376Y5359D01*
Y5377D01*
X1369Y5393D01*
X1366Y5397D01*
Y5420D01*
X1390D01*
Y5420D01*
X1450D01*
Y5319D01*
X1927D01*
Y5397D01*
X2339D01*
X2350Y5387D01*
X2366Y5380D01*
X2384D01*
X2400Y5387D01*
X2413Y5400D01*
X2420Y5416D01*
Y5434D01*
X2413Y5450D01*
X2400Y5463D01*
X2384Y5470D01*
X2366D01*
X2350Y5463D01*
X2339Y5453D01*
X1927D01*
Y5603D01*
X1795D01*
X1786Y5623D01*
X1788Y5625D01*
X1795Y5641D01*
Y5659D01*
X1788Y5675D01*
X1775Y5688D01*
X1759Y5695D01*
X1741D01*
X1725Y5688D01*
X1712Y5675D01*
X1705Y5659D01*
Y5641D01*
X1712Y5625D01*
X1714Y5623D01*
X1705Y5603D01*
X1450D01*
Y5502D01*
X1404D01*
X1390Y5516D01*
X1390Y5529D01*
X1400Y5545D01*
X1400Y5546D01*
Y5597D01*
X1250D01*
Y5546D01*
X1250Y5545D01*
X1260Y5529D01*
X1260Y5525D01*
Y5420D01*
X1284D01*
Y4970D01*
X1262D01*
Y4966D01*
X1200D01*
X1200Y4966D01*
X1184Y4963D01*
X1171Y4954D01*
X1146Y4929D01*
X1137Y4916D01*
X1134Y4900D01*
X1134Y4900D01*
Y3475D01*
X1134Y3475D01*
X1137Y3459D01*
X1146Y3446D01*
X1396Y3196D01*
X1396Y3196D01*
X1409Y3187D01*
X1425Y3184D01*
X1425Y3184D01*
X1524D01*
Y3117D01*
X1584D01*
Y2750D01*
X1587Y2734D01*
X1596Y2721D01*
X1609Y2712D01*
X1625Y2709D01*
X1626Y2709D01*
X2030Y2305D01*
X2039Y2299D01*
X2050Y2297D01*
X2472D01*
Y2170D01*
X2438D01*
Y2080D01*
X2562D01*
Y2170D01*
X2528D01*
Y2325D01*
Y2438D01*
X2537Y2447D01*
X3525D01*
X3536Y2449D01*
X3545Y2455D01*
X3662Y2572D01*
X3988D01*
X4003Y2557D01*
X4005Y2538D01*
X4005D01*
Y2412D01*
X4022D01*
Y2225D01*
X4024Y2214D01*
X4030Y2205D01*
X4130Y2105D01*
X4139Y2099D01*
X4150Y2097D01*
X4212D01*
Y2080D01*
X4338D01*
Y2170D01*
X4212D01*
Y2153D01*
X4162D01*
X4078Y2237D01*
Y2412D01*
X4095D01*
Y2538D01*
X4078D01*
Y2550D01*
X4076Y2561D01*
X4070Y2570D01*
X4020Y2620D01*
X4011Y2626D01*
X4000Y2628D01*
X3650D01*
X3639Y2626D01*
X3630Y2620D01*
X3513Y2503D01*
X2525D01*
X2514Y2501D01*
X2505Y2495D01*
X2480Y2470D01*
X2474Y2461D01*
X2472Y2450D01*
Y2353D01*
X2062D01*
X1666Y2749D01*
X1666Y2750D01*
Y3117D01*
X1725D01*
Y3176D01*
X1792D01*
X1792Y3176D01*
X1808Y3179D01*
X1821Y3188D01*
X1954Y3321D01*
X1954Y3321D01*
X1963Y3334D01*
X1966Y3350D01*
Y3733D01*
X2187Y3954D01*
X2827D01*
Y3893D01*
X2925D01*
Y3867D01*
X2827D01*
Y3845D01*
X2816Y3840D01*
X2807Y3838D01*
X2796Y3845D01*
X2780Y3848D01*
X2706D01*
X2702Y3851D01*
X2692Y3853D01*
X2681Y3851D01*
X2677Y3848D01*
X2603D01*
X2587Y3845D01*
X2574Y3836D01*
X2565Y3823D01*
X2562Y3808D01*
Y3692D01*
X2565Y3677D01*
X2574Y3664D01*
X2587Y3655D01*
X2603Y3652D01*
X2651D01*
Y3567D01*
X2541Y3457D01*
X2540Y3456D01*
X2520Y3462D01*
Y3510D01*
X2430D01*
Y3380D01*
X2434D01*
Y3286D01*
X2425Y3270D01*
X2335D01*
Y3270D01*
X2319Y3263D01*
X2299Y3283D01*
Y3652D01*
X2347D01*
X2363Y3655D01*
X2376Y3664D01*
X2385Y3677D01*
X2388Y3692D01*
Y3808D01*
X2385Y3823D01*
X2376Y3836D01*
X2363Y3845D01*
X2347Y3848D01*
X2170D01*
X2154Y3845D01*
X2141Y3836D01*
X2132Y3823D01*
X2129Y3808D01*
Y3692D01*
X2132Y3677D01*
X2141Y3664D01*
X2154Y3655D01*
X2170Y3652D01*
X2218D01*
Y3267D01*
X2218Y3267D01*
X2221Y3251D01*
X2230Y3238D01*
X2291Y3176D01*
X2291Y3176D01*
X2304Y3167D01*
X2320Y3164D01*
X2335D01*
Y3140D01*
X2339D01*
Y3120D01*
X2339Y3120D01*
X2342Y3104D01*
X2351Y3091D01*
X2441Y3001D01*
X2454Y2992D01*
X2470Y2989D01*
X3344D01*
X3349Y2969D01*
X3335Y2961D01*
X3316Y2942D01*
X3302Y2918D01*
X3295Y2891D01*
Y2890D01*
X3400D01*
X3505D01*
Y2891D01*
X3498Y2918D01*
X3484Y2942D01*
X3465Y2961D01*
X3451Y2969D01*
X3456Y2989D01*
X4406D01*
X4416Y2985D01*
X4434D01*
X4450Y2992D01*
X4463Y3005D01*
X4470Y3021D01*
Y3039D01*
X4470Y3039D01*
X4483Y3059D01*
X4983D01*
X5996Y2046D01*
X6009Y2037D01*
X6025Y2034D01*
X6025Y2034D01*
X7858D01*
X8483Y1409D01*
Y1288D01*
X8658D01*
Y1462D01*
X8545D01*
X7904Y2104D01*
X7891Y2113D01*
X7875Y2116D01*
X7875Y2116D01*
X6042D01*
X5029Y3129D01*
X5016Y3138D01*
X5000Y3141D01*
X5000Y3141D01*
X2615D01*
Y3270D01*
X2611D01*
Y3412D01*
X2708Y3509D01*
X3140D01*
X3145Y3510D01*
X3150Y3509D01*
X4800D01*
X4804Y3510D01*
X4813D01*
X4830Y3517D01*
X4843Y3530D01*
X4850Y3546D01*
Y3558D01*
X4868Y3567D01*
X6180Y2255D01*
X6189Y2249D01*
X6200Y2247D01*
X8938D01*
X9430Y1755D01*
X9430Y1755D01*
X9480Y1705D01*
X9489Y1699D01*
X9500Y1697D01*
X9825D01*
X9836Y1699D01*
X9845Y1705D01*
X9995Y1855D01*
X10001Y1864D01*
X10003Y1875D01*
Y2150D01*
X10001Y2161D01*
X9995Y2170D01*
X9945Y2220D01*
X9936Y2226D01*
X9925Y2228D01*
X9869D01*
X9852Y2243D01*
Y2257D01*
X9851Y2266D01*
X9846Y2274D01*
Y2276D01*
X9851Y2284D01*
X9852Y2293D01*
Y2307D01*
X9851Y2316D01*
X9846Y2324D01*
X9838Y2329D01*
X9829Y2331D01*
X9718D01*
X9709Y2329D01*
X9701Y2324D01*
X9696Y2316D01*
X9695Y2307D01*
Y2303D01*
X9676Y2290D01*
X9666Y2294D01*
Y2380D01*
X9712D01*
Y2409D01*
X9755D01*
X9755Y2409D01*
X9766Y2407D01*
X9824D01*
X9835Y2409D01*
X9844Y2416D01*
X9851Y2425D01*
X9853Y2436D01*
Y2464D01*
X9851Y2475D01*
X9844Y2484D01*
X9835Y2491D01*
X9824Y2493D01*
X9766D01*
X9755Y2491D01*
X9755Y2491D01*
X9715D01*
X9713Y2509D01*
X9713Y2510D01*
X9715Y2530D01*
X9723D01*
Y2613D01*
X9743Y2619D01*
X9746Y2616D01*
X9755Y2609D01*
X9766Y2607D01*
X9824D01*
X9835Y2609D01*
X9844Y2616D01*
X9851Y2625D01*
X9853Y2636D01*
Y2664D01*
X9851Y2675D01*
X9847Y2681D01*
X9846Y2682D01*
X9849Y2692D01*
X9854Y2702D01*
X9862Y2702D01*
X9887D01*
Y2762D01*
X9845D01*
Y2718D01*
X9845Y2708D01*
X9843Y2705D01*
X9829Y2692D01*
X9828Y2692D01*
X9824Y2693D01*
X9766D01*
X9755Y2691D01*
X9746Y2684D01*
X9743Y2680D01*
X9723Y2680D01*
X9721Y2680D01*
X9638D01*
Y2605D01*
X9625D01*
Y2592D01*
X9527D01*
Y2530D01*
X9537D01*
X9538Y2510D01*
X9538Y2510D01*
Y2380D01*
X9584D01*
Y2250D01*
Y2150D01*
X9584Y2150D01*
X9587Y2134D01*
X9596Y2121D01*
X9646Y2071D01*
X9659Y2062D01*
X9675Y2059D01*
X9691Y2062D01*
X9704Y2071D01*
X9704Y2072D01*
X9707D01*
X9709Y2071D01*
X9718Y2069D01*
X9754D01*
Y2029D01*
X9747Y2022D01*
X9734Y2018D01*
X9723Y2025D01*
X9722Y2025D01*
X9670D01*
Y1950D01*
Y1875D01*
X9722D01*
X9723Y1875D01*
X9739Y1885D01*
X9743Y1885D01*
X9819D01*
X9827Y1867D01*
X9788Y1828D01*
X9562D01*
X8995Y2395D01*
X8986Y2401D01*
X8975Y2403D01*
X6229D01*
X4836Y3796D01*
X4844Y3815D01*
X4937D01*
Y3900D01*
X4950D01*
Y3913D01*
X5125D01*
Y3985D01*
X5125D01*
Y4425D01*
X5115D01*
Y4472D01*
X5813D01*
X6155Y4130D01*
Y4116D01*
X6162Y4100D01*
X6175Y4087D01*
X6191Y4080D01*
X6209D01*
X6225Y4087D01*
X6238Y4100D01*
X6245Y4116D01*
Y4134D01*
X6238Y4150D01*
X6225Y4163D01*
X6223Y4164D01*
Y4186D01*
X6225Y4187D01*
X6238Y4200D01*
X6245Y4216D01*
Y4234D01*
X6238Y4250D01*
X6237Y4252D01*
X6245Y4272D01*
X6275D01*
Y4205D01*
X6275Y4185D01*
X6275Y4180D01*
Y4113D01*
X6625D01*
Y4180D01*
X6625Y4185D01*
X6625Y4205D01*
Y4275D01*
X6615D01*
Y4341D01*
X7071Y4797D01*
X8238D01*
X9007Y4028D01*
X9016Y4022D01*
X9027Y4020D01*
X9034D01*
Y4015D01*
X9037Y3999D01*
X9046Y3986D01*
Y3967D01*
X9037Y3954D01*
X9034Y3938D01*
Y3888D01*
X9037Y3872D01*
X9046Y3859D01*
X9035Y3842D01*
X9028Y3831D01*
X9024Y3811D01*
Y3799D01*
X9150D01*
X9276D01*
Y3811D01*
X9272Y3831D01*
X9265Y3842D01*
X9254Y3859D01*
X9263Y3872D01*
X9266Y3888D01*
Y3938D01*
X9263Y3954D01*
X9254Y3967D01*
Y3986D01*
X9263Y3999D01*
X9266Y4015D01*
Y4065D01*
X9263Y4081D01*
X9254Y4094D01*
Y4113D01*
X9263Y4126D01*
X9266Y4142D01*
Y4192D01*
X9263Y4208D01*
X9254Y4221D01*
Y4240D01*
X9263Y4253D01*
X9266Y4269D01*
Y4319D01*
X9263Y4335D01*
X9254Y4348D01*
Y4367D01*
X9263Y4380D01*
X9266Y4396D01*
Y4446D01*
X9263Y4462D01*
X9254Y4475D01*
Y4494D01*
X9263Y4507D01*
X9266Y4523D01*
Y4573D01*
X9263Y4589D01*
X9254Y4602D01*
X9265Y4619D01*
X9272Y4630D01*
X9276Y4650D01*
Y4662D01*
X9150D01*
Y4675D01*
X9137D01*
Y4751D01*
X9075D01*
X9055Y4747D01*
X9039Y4736D01*
X9028Y4720D01*
X9024Y4700D01*
Y4678D01*
X9005Y4670D01*
X8556Y5120D01*
X8546Y5126D01*
X8536Y5128D01*
X6615D01*
Y5175D01*
X6285D01*
Y5128D01*
X5911D01*
X5900Y5138D01*
X5884Y5145D01*
X5866D01*
X5850Y5138D01*
X5837Y5125D01*
X5830Y5109D01*
Y5091D01*
X5825Y5072D01*
X5810Y5060D01*
X5807Y5058D01*
X5720Y5145D01*
Y5159D01*
X5713Y5175D01*
X5700Y5188D01*
X5684Y5195D01*
X5666D01*
X5650Y5188D01*
X5637Y5175D01*
X5631Y5162D01*
X5620Y5157D01*
X5610Y5155D01*
X5395Y5370D01*
Y5384D01*
X5388Y5400D01*
X5375Y5413D01*
X5359Y5420D01*
X5341D01*
X5325Y5413D01*
X5312Y5400D01*
X5305Y5384D01*
Y5366D01*
X5312Y5350D01*
X5321Y5340D01*
X5318Y5324D01*
X5315Y5320D01*
X5300Y5313D01*
X5287Y5300D01*
X5280Y5284D01*
Y5266D01*
X5282Y5261D01*
X5265Y5249D01*
X5228Y5287D01*
Y5314D01*
X5238Y5325D01*
X5245Y5341D01*
Y5359D01*
X5238Y5375D01*
X5225Y5388D01*
X5209Y5395D01*
X5191D01*
X5175Y5388D01*
X5162Y5375D01*
X5155Y5359D01*
Y5341D01*
X5162Y5325D01*
X5172Y5314D01*
Y5275D01*
X5174Y5264D01*
X5180Y5255D01*
X5687Y4748D01*
X5679Y4728D01*
X5115D01*
Y4825D01*
Y4975D01*
X4765Y4986D01*
X4750Y4998D01*
X4745Y5006D01*
X4631Y5120D01*
X4622Y5126D01*
X4611Y5128D01*
X3937D01*
X3534Y5531D01*
Y5555D01*
X3558D01*
X3561Y5555D01*
X3578D01*
X3581Y5555D01*
X3605D01*
Y5542D01*
X3607Y5531D01*
X3613Y5522D01*
X3955Y5180D01*
X3964Y5174D01*
X3975Y5172D01*
X4480D01*
X4482Y5168D01*
X4495Y5155D01*
X4511Y5149D01*
X4529D01*
X4546Y5155D01*
X4558Y5168D01*
X4565Y5185D01*
Y5202D01*
X4558Y5219D01*
X4546Y5231D01*
X4558Y5243D01*
X4565Y5260D01*
Y5277D01*
X4558Y5294D01*
X4551Y5312D01*
X4559Y5320D01*
X4563Y5325D01*
X4570Y5341D01*
Y5359D01*
X4563Y5375D01*
X4552Y5386D01*
X4550Y5392D01*
X4550Y5410D01*
X4558Y5418D01*
X4565Y5435D01*
Y5452D01*
X4558Y5469D01*
X4546Y5482D01*
X4529Y5489D01*
X4511D01*
X4495Y5482D01*
X4491Y5478D01*
X4112D01*
X4055Y5535D01*
X4063Y5555D01*
X4069D01*
Y5745D01*
X3962D01*
X3959Y5745D01*
Y5745D01*
X3942D01*
Y5745D01*
X3832D01*
Y5745D01*
X3815D01*
Y5745D01*
X3705D01*
Y5745D01*
X3688D01*
Y5745D01*
X3581D01*
X3578Y5745D01*
X3561D01*
X3558Y5745D01*
X3451D01*
Y5745D01*
X3434D01*
Y5745D01*
X3327D01*
X3324Y5745D01*
X3307D01*
X3304Y5745D01*
X3200D01*
X3197Y5745D01*
X3180D01*
X3177Y5745D01*
X3070D01*
Y5745D01*
X3053D01*
Y5745D01*
X2943D01*
Y5745D01*
X2926D01*
Y5745D01*
X2819D01*
X2816Y5745D01*
X2799D01*
X2796Y5745D01*
X2689D01*
Y5745D01*
X2672D01*
Y5745D01*
X2571Y5745D01*
X2555Y5755D01*
D02*
G37*
G36*
X9276Y5779D02*
X9163D01*
Y5716D01*
X9225D01*
X9245Y5720D01*
X9261Y5731D01*
X9272Y5747D01*
X9276Y5767D01*
Y5779D01*
D02*
G37*
G36*
X9137D02*
X9024D01*
Y5767D01*
X9028Y5747D01*
X9039Y5731D01*
X9055Y5720D01*
X9075Y5716D01*
X9137D01*
Y5779D01*
D02*
G37*
G36*
X7676D02*
X7563D01*
Y5716D01*
X7625D01*
X7645Y5720D01*
X7661Y5731D01*
X7672Y5747D01*
X7676Y5767D01*
Y5779D01*
D02*
G37*
G36*
X7537D02*
X7424D01*
Y5767D01*
X7428Y5747D01*
X7439Y5731D01*
X7455Y5720D01*
X7475Y5716D01*
X7537D01*
Y5779D01*
D02*
G37*
G36*
X2223Y5755D02*
X2171D01*
Y5663D01*
X2223D01*
Y5755D01*
D02*
G37*
G36*
X1400Y5675D02*
X1338D01*
Y5623D01*
X1400D01*
Y5675D01*
D02*
G37*
G36*
X1312D02*
X1250D01*
Y5623D01*
X1312D01*
Y5675D01*
D02*
G37*
G36*
X2223Y5637D02*
X2171D01*
Y5545D01*
X2223D01*
Y5637D01*
D02*
G37*
G36*
X6625Y5385D02*
X6463D01*
Y5313D01*
X6625D01*
Y5385D01*
D02*
G37*
G36*
X6437D02*
X6275D01*
Y5313D01*
X6437D01*
Y5385D01*
D02*
G37*
G36*
X5125D02*
X4963D01*
Y5313D01*
X5125D01*
Y5385D01*
D02*
G37*
G36*
X4937D02*
X4775D01*
Y5313D01*
X4937D01*
Y5385D01*
D02*
G37*
G36*
X6625Y5287D02*
X6463D01*
Y5215D01*
X6625D01*
Y5287D01*
D02*
G37*
G36*
X6437D02*
X6275D01*
Y5215D01*
X6437D01*
Y5287D01*
D02*
G37*
G36*
X5125D02*
X4963D01*
Y5215D01*
X5125D01*
Y5287D01*
D02*
G37*
G36*
X4937D02*
X4775D01*
Y5215D01*
X4937D01*
Y5287D01*
D02*
G37*
G36*
X5125Y5185D02*
X4963D01*
Y5113D01*
X5125D01*
Y5185D01*
D02*
G37*
G36*
X4937D02*
X4775D01*
Y5113D01*
X4937D01*
Y5185D01*
D02*
G37*
G36*
X5125Y5087D02*
X4963D01*
Y5015D01*
X5125D01*
Y5087D01*
D02*
G37*
G36*
X4937D02*
X4775D01*
Y5015D01*
X4937D01*
Y5087D01*
D02*
G37*
G36*
X1937Y4927D02*
X1892D01*
Y4788D01*
X1937D01*
Y4927D01*
D02*
G37*
G36*
X1866D02*
X1821D01*
Y4788D01*
X1866D01*
Y4927D01*
D02*
G37*
G36*
X7625Y4751D02*
X7563D01*
Y4688D01*
X7676D01*
Y4700D01*
X7672Y4720D01*
X7661Y4736D01*
X7645Y4747D01*
X7625Y4751D01*
D02*
G37*
G36*
X9225D02*
X9163D01*
Y4688D01*
X9276D01*
Y4700D01*
X9272Y4720D01*
X9261Y4736D01*
X9245Y4747D01*
X9225Y4751D01*
D02*
G37*
G36*
X7537D02*
X7475D01*
X7455Y4747D01*
X7439Y4736D01*
X7428Y4720D01*
X7424Y4700D01*
Y4688D01*
X7537D01*
Y4751D01*
D02*
G37*
G36*
X1937Y4762D02*
X1892D01*
Y4623D01*
X1937D01*
Y4762D01*
D02*
G37*
G36*
X1866D02*
X1821D01*
Y4623D01*
X1866D01*
Y4762D01*
D02*
G37*
G36*
X1640Y4344D02*
X1638D01*
Y4246D01*
X1736D01*
Y4248D01*
X1728Y4276D01*
X1714Y4301D01*
X1693Y4322D01*
X1668Y4336D01*
X1640Y4344D01*
D02*
G37*
G36*
X1612D02*
X1610D01*
X1582Y4336D01*
X1557Y4322D01*
X1536Y4301D01*
X1522Y4276D01*
X1514Y4248D01*
Y4246D01*
X1612D01*
Y4344D01*
D02*
G37*
G36*
X1736Y4220D02*
X1638D01*
Y4122D01*
X1640D01*
X1668Y4130D01*
X1693Y4144D01*
X1714Y4165D01*
X1728Y4190D01*
X1736Y4218D01*
Y4220D01*
D02*
G37*
G36*
X1612D02*
X1514D01*
Y4218D01*
X1522Y4190D01*
X1536Y4165D01*
X1557Y4144D01*
X1582Y4130D01*
X1610Y4122D01*
X1612D01*
Y4220D01*
D02*
G37*
G36*
X7676Y4662D02*
X7550D01*
X7424D01*
Y4650D01*
X7428Y4630D01*
X7435Y4619D01*
X7446Y4602D01*
X7437Y4589D01*
X7434Y4573D01*
Y4523D01*
X7437Y4507D01*
X7446Y4494D01*
Y4475D01*
X7437Y4462D01*
X7435Y4449D01*
X6996D01*
X6985Y4447D01*
X6976Y4441D01*
X6805Y4270D01*
X6791D01*
X6775Y4263D01*
X6762Y4250D01*
X6755Y4234D01*
Y4216D01*
X6762Y4200D01*
X6775Y4187D01*
X6777Y4186D01*
Y4164D01*
X6775Y4163D01*
X6762Y4150D01*
X6755Y4134D01*
Y4116D01*
X6760Y4103D01*
X6755Y4090D01*
X6750Y4083D01*
X6738D01*
Y4017D01*
X6712D01*
Y4083D01*
X6650D01*
Y4025D01*
X6625D01*
Y4087D01*
X6275D01*
Y4015D01*
X6275D01*
Y3950D01*
X6285D01*
Y3825D01*
X6615D01*
Y3859D01*
X6660D01*
Y3828D01*
X6790D01*
Y3842D01*
X6862D01*
Y3830D01*
X6889D01*
Y3690D01*
X6881Y3684D01*
X6874Y3675D01*
X6872Y3664D01*
Y3636D01*
X6874Y3625D01*
X6881Y3616D01*
X6890Y3609D01*
X6901Y3607D01*
X6959D01*
X6970Y3609D01*
X6979Y3616D01*
X6986Y3625D01*
X6988Y3636D01*
Y3664D01*
X6986Y3675D01*
X6979Y3684D01*
X6971Y3690D01*
Y3830D01*
X7038D01*
Y3872D01*
X7242D01*
X7252Y3852D01*
X7250Y3848D01*
X7250Y3847D01*
Y3795D01*
X7400D01*
Y3847D01*
X7400Y3848D01*
X7398Y3852D01*
X7408Y3872D01*
X7433D01*
X7443Y3855D01*
X7435Y3842D01*
X7428Y3831D01*
X7424Y3811D01*
Y3799D01*
X7550D01*
X7676D01*
Y3811D01*
X7672Y3831D01*
X7665Y3842D01*
X7654Y3859D01*
X7663Y3872D01*
X7666Y3888D01*
Y3938D01*
X7663Y3954D01*
X7654Y3967D01*
Y3986D01*
X7663Y3999D01*
X7666Y4015D01*
Y4065D01*
X7663Y4081D01*
X7654Y4094D01*
Y4113D01*
X7663Y4126D01*
X7666Y4142D01*
Y4192D01*
X7663Y4208D01*
X7654Y4221D01*
Y4240D01*
X7663Y4253D01*
X7666Y4269D01*
Y4319D01*
X7663Y4335D01*
X7654Y4348D01*
Y4367D01*
X7663Y4380D01*
X7666Y4396D01*
Y4446D01*
X7663Y4462D01*
X7654Y4475D01*
Y4494D01*
X7663Y4507D01*
X7666Y4523D01*
Y4573D01*
X7663Y4589D01*
X7654Y4602D01*
X7665Y4619D01*
X7672Y4630D01*
X7676Y4650D01*
Y4662D01*
D02*
G37*
G36*
X1638Y4079D02*
X1612D01*
X1586Y4073D01*
X1563Y4059D01*
X1545Y4041D01*
X1531Y4018D01*
X1524Y3992D01*
Y3966D01*
X1531Y3940D01*
X1545Y3917D01*
X1563Y3899D01*
X1586Y3885D01*
X1612Y3878D01*
X1638D01*
X1664Y3885D01*
X1687Y3899D01*
X1705Y3917D01*
X1719Y3940D01*
X1725Y3966D01*
Y3992D01*
X1719Y4018D01*
X1705Y4041D01*
X1687Y4059D01*
X1664Y4073D01*
X1638Y4079D01*
D02*
G37*
G36*
X5125Y3887D02*
X4963D01*
Y3815D01*
X5125D01*
Y3887D01*
D02*
G37*
G36*
X7400Y3770D02*
X7338D01*
Y3717D01*
X7400D01*
Y3770D01*
D02*
G37*
G36*
X7312D02*
X7250D01*
Y3717D01*
X7312D01*
Y3770D01*
D02*
G37*
G36*
X9276Y3773D02*
X9163D01*
Y3710D01*
X9225D01*
X9245Y3714D01*
X9261Y3725D01*
X9272Y3741D01*
X9276Y3761D01*
Y3773D01*
D02*
G37*
G36*
X9137D02*
X9024D01*
Y3761D01*
X9028Y3741D01*
X9039Y3725D01*
X9055Y3714D01*
X9075Y3710D01*
X9137D01*
Y3773D01*
D02*
G37*
G36*
X7676D02*
X7563D01*
Y3710D01*
X7625D01*
X7645Y3714D01*
X7661Y3725D01*
X7672Y3741D01*
X7676Y3761D01*
Y3773D01*
D02*
G37*
G36*
X7537D02*
X7424D01*
Y3761D01*
X7428Y3741D01*
X7439Y3725D01*
X7455Y3714D01*
X7475Y3710D01*
X7537D01*
Y3773D01*
D02*
G37*
G36*
X1638Y3826D02*
X1612D01*
X1586Y3819D01*
X1563Y3805D01*
X1545Y3787D01*
X1531Y3764D01*
X1524Y3738D01*
Y3712D01*
X1531Y3686D01*
X1545Y3663D01*
X1563Y3645D01*
X1586Y3631D01*
X1612Y3624D01*
X1638D01*
X1664Y3631D01*
X1687Y3645D01*
X1705Y3663D01*
X1719Y3686D01*
X1725Y3712D01*
Y3738D01*
X1719Y3764D01*
X1705Y3787D01*
X1687Y3805D01*
X1664Y3819D01*
X1638Y3826D01*
D02*
G37*
G36*
X6282Y3673D02*
X6220D01*
Y3588D01*
X6282D01*
Y3673D01*
D02*
G37*
G36*
X10772Y3725D02*
X10763D01*
Y3513D01*
X10975D01*
Y3522D01*
X10967Y3566D01*
X10950Y3607D01*
X10925Y3644D01*
X10894Y3675D01*
X10857Y3700D01*
X10816Y3717D01*
X10772Y3725D01*
D02*
G37*
G36*
X772D02*
X763D01*
Y3513D01*
X975D01*
Y3522D01*
X967Y3566D01*
X950Y3607D01*
X925Y3644D01*
X894Y3675D01*
X857Y3700D01*
X816Y3717D01*
X772Y3725D01*
D02*
G37*
G36*
X10737D02*
X10728D01*
X10684Y3717D01*
X10643Y3700D01*
X10606Y3675D01*
X10575Y3644D01*
X10550Y3607D01*
X10533Y3566D01*
X10525Y3522D01*
Y3513D01*
X10737D01*
Y3725D01*
D02*
G37*
G36*
X737D02*
X728D01*
X684Y3717D01*
X643Y3700D01*
X606Y3675D01*
X575Y3644D01*
X550Y3607D01*
X533Y3566D01*
X525Y3522D01*
Y3513D01*
X737D01*
Y3725D01*
D02*
G37*
G36*
X6959Y3493D02*
X6901D01*
X6890Y3491D01*
X6881Y3484D01*
X6874Y3475D01*
X6872Y3464D01*
Y3436D01*
X6874Y3425D01*
X6881Y3416D01*
X6890Y3409D01*
X6901Y3407D01*
X6959D01*
X6970Y3409D01*
X6979Y3416D01*
X6986Y3425D01*
X6988Y3436D01*
Y3464D01*
X6986Y3475D01*
X6979Y3484D01*
X6970Y3491D01*
X6959Y3493D01*
D02*
G37*
G36*
X1638Y3572D02*
X1612D01*
X1586Y3565D01*
X1563Y3551D01*
X1545Y3533D01*
X1531Y3510D01*
X1524Y3484D01*
Y3458D01*
X1531Y3432D01*
X1545Y3409D01*
X1563Y3391D01*
X1586Y3377D01*
X1612Y3371D01*
X1638D01*
X1664Y3377D01*
X1687Y3391D01*
X1705Y3409D01*
X1719Y3432D01*
X1725Y3458D01*
Y3484D01*
X1719Y3510D01*
X1705Y3533D01*
X1687Y3551D01*
X1664Y3565D01*
X1638Y3572D01*
D02*
G37*
G36*
X10250Y3528D02*
X7716D01*
X7706Y3526D01*
X7696Y3520D01*
X7444Y3267D01*
X7429D01*
X7413Y3260D01*
X7400Y3248D01*
X7393Y3231D01*
Y3213D01*
X7398Y3203D01*
X7397Y3200D01*
X7399Y3189D01*
X7405Y3180D01*
X7413Y3175D01*
X7414Y3166D01*
X7413Y3153D01*
X7412Y3153D01*
X5936D01*
X5925Y3163D01*
X5909Y3170D01*
X5891D01*
X5875Y3163D01*
X5862Y3150D01*
X5855Y3134D01*
Y3116D01*
X5862Y3100D01*
X5875Y3087D01*
X5877Y3086D01*
Y3064D01*
X5875Y3063D01*
X5862Y3050D01*
X5855Y3034D01*
Y3016D01*
X5862Y3000D01*
X5875Y2987D01*
X5877Y2986D01*
Y2964D01*
X5875Y2963D01*
X5862Y2950D01*
X5855Y2934D01*
Y2916D01*
X5862Y2900D01*
X5875Y2887D01*
X5891Y2880D01*
X5909D01*
X5919Y2884D01*
X8883D01*
X9021Y2746D01*
X9021Y2746D01*
X9034Y2737D01*
X9050Y2734D01*
X9650D01*
X9650Y2734D01*
X9666Y2737D01*
X9679Y2746D01*
X9867Y2934D01*
X10012D01*
Y2838D01*
X10005D01*
Y2712D01*
X10012D01*
Y2689D01*
X10006Y2684D01*
X9999Y2675D01*
X9997Y2664D01*
Y2636D01*
X9999Y2625D01*
X10004Y2618D01*
X10004Y2618D01*
X10004Y2609D01*
X10001Y2594D01*
X9998Y2592D01*
X9989Y2579D01*
X9986Y2564D01*
Y2563D01*
X10055D01*
Y2537D01*
X9986D01*
Y2536D01*
X9989Y2521D01*
X9998Y2508D01*
X10001Y2506D01*
X10004Y2491D01*
X10004Y2482D01*
X10004Y2482D01*
X9999Y2475D01*
X9997Y2464D01*
Y2436D01*
X9999Y2425D01*
X10006Y2416D01*
X10015Y2409D01*
X10026Y2407D01*
X10084D01*
X10095Y2409D01*
X10095Y2409D01*
X10205D01*
Y2362D01*
X10335D01*
Y2362D01*
X10355Y2362D01*
Y2352D01*
X10417D01*
Y2450D01*
Y2548D01*
X10355D01*
Y2538D01*
X10335Y2538D01*
Y2538D01*
X10205D01*
X10197Y2554D01*
Y2609D01*
X10408D01*
X10451Y2566D01*
X10443Y2548D01*
X10443D01*
Y2463D01*
X10505D01*
Y2486D01*
X10524Y2493D01*
X10598Y2420D01*
X10611Y2411D01*
X10625Y2408D01*
X10630Y2403D01*
X10638Y2390D01*
X10637Y2385D01*
Y2365D01*
X10639Y2357D01*
X10643Y2350D01*
X10639Y2343D01*
X10637Y2335D01*
Y2315D01*
X10639Y2307D01*
X10643Y2300D01*
Y2300D01*
X10639Y2293D01*
X10637Y2285D01*
Y2265D01*
X10619Y2253D01*
X10545D01*
Y2259D01*
X10538Y2275D01*
X10525Y2288D01*
X10509Y2295D01*
X10491D01*
X10475Y2288D01*
X10462Y2275D01*
X10455Y2259D01*
Y2241D01*
X10462Y2225D01*
X10466Y2220D01*
X10467Y2217D01*
X10464Y2196D01*
X10461Y2195D01*
X10445Y2178D01*
X10284D01*
X10272Y2187D01*
X10088D01*
X10090Y2180D01*
X10097Y2168D01*
X10099Y2167D01*
X10099Y2166D01*
X10098Y2157D01*
Y2143D01*
X10099Y2134D01*
X10104Y2126D01*
Y2124D01*
X10099Y2116D01*
X10098Y2107D01*
Y2093D01*
X10099Y2084D01*
X10104Y2076D01*
X10112Y2071D01*
X10121Y2069D01*
X10232D01*
X10241Y2071D01*
X10243Y2072D01*
X10464D01*
X10475Y2062D01*
X10491Y2055D01*
X10509D01*
X10525Y2062D01*
X10538Y2075D01*
X10545Y2091D01*
Y2097D01*
X10619D01*
X10637Y2085D01*
Y2065D01*
X10639Y2057D01*
X10643Y2050D01*
Y2050D01*
X10639Y2043D01*
X10637Y2035D01*
Y2015D01*
X10639Y2007D01*
X10643Y2000D01*
Y1995D01*
X10639Y1988D01*
X10637Y1981D01*
Y1959D01*
X10638Y1955D01*
X10637Y1950D01*
Y1930D01*
X10638Y1924D01*
X10635Y1922D01*
X10629Y1912D01*
X10627Y1903D01*
X10725D01*
Y1877D01*
X10627D01*
X10627Y1875D01*
X10627Y1873D01*
X10725D01*
Y1847D01*
X10627D01*
X10629Y1838D01*
X10635Y1828D01*
X10645Y1821D01*
X10657Y1819D01*
X10700D01*
X10710Y1799D01*
X10709Y1798D01*
X10702Y1780D01*
X10701Y1773D01*
X10815D01*
X10929D01*
X10928Y1780D01*
X10921Y1798D01*
X10909Y1814D01*
X10893Y1826D01*
X10875Y1833D01*
X10855Y1836D01*
X10853D01*
X10841Y1850D01*
X10858Y1859D01*
X10859Y1859D01*
X10879D01*
X10899Y1867D01*
X10914Y1882D01*
X10921Y1901D01*
Y1922D01*
X10914Y1941D01*
X10899Y1956D01*
X10881Y1963D01*
X10877Y1972D01*
X10874Y1984D01*
X10970Y2080D01*
X10976Y2089D01*
X10978Y2100D01*
Y2300D01*
X10976Y2311D01*
X10970Y2320D01*
X10874Y2416D01*
X10877Y2428D01*
X10881Y2437D01*
X10899Y2444D01*
X10914Y2459D01*
X10921Y2478D01*
Y2499D01*
X10914Y2518D01*
X10899Y2533D01*
X10879Y2541D01*
X10859D01*
X10858Y2541D01*
X10841Y2550D01*
X10853Y2564D01*
X10855D01*
X10875Y2567D01*
X10893Y2574D01*
X10909Y2586D01*
X10921Y2602D01*
X10928Y2620D01*
X10929Y2627D01*
X10815D01*
X10701D01*
X10702Y2620D01*
X10709Y2602D01*
X10710Y2601D01*
X10700Y2581D01*
X10657D01*
X10645Y2579D01*
X10635Y2572D01*
X10629Y2562D01*
X10627Y2553D01*
X10725D01*
Y2527D01*
X10615D01*
X10615Y2527D01*
X10607Y2526D01*
X10454Y2679D01*
X10441Y2688D01*
X10425Y2691D01*
X10425Y2691D01*
X10095D01*
X10095Y2691D01*
X10093Y2691D01*
Y2712D01*
X10095D01*
Y2838D01*
X10093D01*
Y2934D01*
X10120D01*
X10120Y2934D01*
X10136Y2937D01*
X10149Y2946D01*
X10151Y2948D01*
X10170Y2940D01*
Y2913D01*
X10212D01*
Y2973D01*
X10212D01*
X10206Y2993D01*
X10209Y2996D01*
X10216Y3005D01*
X10218Y3016D01*
Y3074D01*
X10216Y3085D01*
X10209Y3094D01*
X10200Y3101D01*
X10189Y3103D01*
X10161D01*
X10150Y3101D01*
X10141Y3094D01*
X10134Y3085D01*
X10132Y3074D01*
Y3044D01*
X10103Y3016D01*
X10091D01*
X10073Y3020D01*
X10073Y3036D01*
Y3082D01*
X9975D01*
Y3108D01*
X10073D01*
Y3170D01*
X10063D01*
X10062Y3190D01*
X10062Y3190D01*
Y3262D01*
X10064Y3264D01*
X10135D01*
X10141Y3256D01*
X10150Y3249D01*
X10161Y3247D01*
X10189D01*
X10200Y3249D01*
X10207Y3254D01*
X10207Y3254D01*
X10216Y3254D01*
X10231Y3251D01*
X10233Y3248D01*
X10246Y3239D01*
X10261Y3236D01*
X10262D01*
Y3305D01*
Y3374D01*
X10261D01*
X10246Y3371D01*
X10233Y3362D01*
X10231Y3359D01*
X10216Y3356D01*
X10207Y3356D01*
X10207Y3356D01*
X10200Y3361D01*
X10189Y3363D01*
X10161D01*
X10150Y3361D01*
X10141Y3354D01*
X10136Y3348D01*
X10116Y3347D01*
X10106Y3356D01*
X10090Y3363D01*
X10072D01*
X10055Y3356D01*
X10045Y3345D01*
X10040Y3344D01*
X10024Y3354D01*
X10020Y3359D01*
Y3452D01*
X10020Y3462D01*
X10036Y3472D01*
X10238D01*
X10334Y3376D01*
X10334Y3374D01*
X10322Y3362D01*
X10317Y3362D01*
X10304Y3371D01*
X10289Y3374D01*
X10288D01*
Y3305D01*
Y3236D01*
X10289D01*
X10304Y3239D01*
X10317Y3248D01*
X10319Y3251D01*
X10334Y3254D01*
X10343Y3254D01*
X10343Y3254D01*
X10350Y3249D01*
X10361Y3247D01*
X10389D01*
X10400Y3249D01*
X10409Y3256D01*
X10416Y3265D01*
X10418Y3276D01*
Y3334D01*
X10416Y3345D01*
X10409Y3354D01*
X10403Y3359D01*
Y3375D01*
X10401Y3386D01*
X10395Y3395D01*
X10270Y3520D01*
X10261Y3526D01*
X10250Y3528D01*
D02*
G37*
G36*
X6880Y3373D02*
X6838D01*
Y3313D01*
X6880D01*
Y3373D01*
D02*
G37*
G36*
X6812D02*
X6770D01*
Y3313D01*
X6812D01*
Y3373D01*
D02*
G37*
G36*
X10975Y3487D02*
X10763D01*
Y3275D01*
X10772D01*
X10816Y3283D01*
X10857Y3300D01*
X10894Y3325D01*
X10925Y3356D01*
X10950Y3393D01*
X10967Y3434D01*
X10975Y3478D01*
Y3487D01*
D02*
G37*
G36*
X10737D02*
X10525D01*
Y3478D01*
X10533Y3434D01*
X10550Y3393D01*
X10575Y3356D01*
X10606Y3325D01*
X10643Y3300D01*
X10684Y3283D01*
X10728Y3275D01*
X10737D01*
Y3487D01*
D02*
G37*
G36*
X975D02*
X763D01*
Y3275D01*
X772D01*
X816Y3283D01*
X857Y3300D01*
X894Y3325D01*
X925Y3356D01*
X950Y3393D01*
X967Y3434D01*
X975Y3478D01*
Y3487D01*
D02*
G37*
G36*
X737D02*
X525D01*
Y3478D01*
X533Y3434D01*
X550Y3393D01*
X575Y3356D01*
X606Y3325D01*
X643Y3300D01*
X684Y3283D01*
X728Y3275D01*
X737D01*
Y3487D01*
D02*
G37*
G36*
X5259Y3695D02*
X5241D01*
X5225Y3688D01*
X5212Y3675D01*
X5205Y3659D01*
Y3641D01*
X5212Y3625D01*
X5225Y3612D01*
X5241Y3605D01*
X5255D01*
X5430Y3430D01*
X5439Y3424D01*
X5450Y3422D01*
X6616D01*
X6621Y3416D01*
X6630Y3409D01*
X6641Y3407D01*
X6647D01*
Y3362D01*
X6630D01*
Y3238D01*
X6720D01*
Y3362D01*
X6703D01*
Y3408D01*
X6710Y3409D01*
X6719Y3416D01*
X6726Y3425D01*
X6728Y3436D01*
Y3464D01*
X6726Y3475D01*
X6721Y3482D01*
X6721Y3482D01*
X6721Y3491D01*
X6724Y3506D01*
X6727Y3508D01*
X6736Y3521D01*
X6739Y3536D01*
Y3537D01*
X6670D01*
Y3563D01*
X6739D01*
Y3564D01*
X6736Y3579D01*
X6727Y3592D01*
X6724Y3594D01*
X6721Y3609D01*
X6721Y3618D01*
X6721Y3618D01*
X6726Y3625D01*
X6728Y3636D01*
Y3664D01*
X6726Y3675D01*
X6719Y3684D01*
X6710Y3691D01*
X6699Y3693D01*
X6641D01*
X6630Y3691D01*
X6630Y3691D01*
X6557D01*
X6542Y3688D01*
X6529Y3679D01*
X6529Y3679D01*
X6512Y3662D01*
X6390D01*
X6390Y3662D01*
X6370Y3663D01*
Y3673D01*
X6308D01*
Y3575D01*
X6295D01*
Y3562D01*
X6220D01*
Y3478D01*
X5462D01*
X5295Y3645D01*
Y3659D01*
X5288Y3675D01*
X5275Y3688D01*
X5259Y3695D01*
D02*
G37*
G36*
X6880Y3287D02*
X6838D01*
Y3227D01*
X6880D01*
Y3287D01*
D02*
G37*
G36*
X6812D02*
X6770D01*
Y3227D01*
X6812D01*
Y3287D01*
D02*
G37*
G36*
X10280Y2973D02*
X10238D01*
Y2913D01*
X10280D01*
Y2973D01*
D02*
G37*
G36*
X2214Y2982D02*
X2213D01*
Y2890D01*
X2305D01*
Y2891D01*
X2298Y2918D01*
X2284Y2942D01*
X2265Y2961D01*
X2241Y2975D01*
X2214Y2982D01*
D02*
G37*
G36*
X2187D02*
X2186D01*
X2159Y2975D01*
X2135Y2961D01*
X2116Y2942D01*
X2102Y2918D01*
X2095Y2891D01*
Y2890D01*
X2187D01*
Y2982D01*
D02*
G37*
G36*
X10389Y3103D02*
X10361D01*
X10350Y3101D01*
X10341Y3094D01*
X10334Y3085D01*
X10332Y3074D01*
Y3016D01*
X10334Y3005D01*
X10341Y2996D01*
X10347Y2991D01*
Y2962D01*
X10330D01*
Y2838D01*
X10420D01*
Y2962D01*
X10403D01*
Y2991D01*
X10409Y2996D01*
X10416Y3005D01*
X10418Y3016D01*
Y3074D01*
X10416Y3085D01*
X10409Y3094D01*
X10400Y3101D01*
X10389Y3103D01*
D02*
G37*
G36*
X10280Y2887D02*
X10238D01*
Y2827D01*
X10280D01*
Y2887D01*
D02*
G37*
G36*
X10212D02*
X10170D01*
Y2827D01*
X10212D01*
Y2887D01*
D02*
G37*
G36*
X4613Y2972D02*
X4587D01*
X4563Y2966D01*
X4542Y2953D01*
X4524Y2935D01*
X4511Y2914D01*
X4505Y2890D01*
Y2864D01*
X4511Y2840D01*
X4524Y2819D01*
X4542Y2801D01*
X4563Y2788D01*
X4587Y2782D01*
X4613D01*
X4637Y2788D01*
X4658Y2801D01*
X4676Y2819D01*
X4689Y2840D01*
X4691Y2849D01*
X4812D01*
Y2830D01*
X4838D01*
X4847Y2824D01*
X4858Y2822D01*
X4875D01*
X4886Y2824D01*
X4895Y2830D01*
X4938D01*
Y2920D01*
X4812D01*
Y2905D01*
X4691D01*
X4689Y2914D01*
X4676Y2935D01*
X4658Y2953D01*
X4637Y2966D01*
X4613Y2972D01*
D02*
G37*
G36*
X9955Y2848D02*
X9913D01*
Y2788D01*
X9955D01*
Y2848D01*
D02*
G37*
G36*
X9887D02*
X9845D01*
Y2788D01*
X9887D01*
Y2848D01*
D02*
G37*
G36*
X3505Y2864D02*
X3413D01*
Y2772D01*
X3414D01*
X3441Y2779D01*
X3465Y2793D01*
X3484Y2812D01*
X3498Y2836D01*
X3505Y2863D01*
Y2864D01*
D02*
G37*
G36*
X3387D02*
X3295D01*
Y2863D01*
X3302Y2836D01*
X3316Y2812D01*
X3335Y2793D01*
X3359Y2779D01*
X3386Y2772D01*
X3387D01*
Y2864D01*
D02*
G37*
G36*
X2305Y2864D02*
X2213D01*
Y2772D01*
X2214D01*
X2241Y2779D01*
X2265Y2793D01*
X2284Y2812D01*
X2298Y2836D01*
X2305Y2863D01*
Y2864D01*
D02*
G37*
G36*
X2187D02*
X2095D01*
Y2863D01*
X2102Y2836D01*
X2116Y2812D01*
X2135Y2793D01*
X2159Y2779D01*
X2186Y2772D01*
X2187D01*
Y2864D01*
D02*
G37*
G36*
X5084Y2770D02*
X5066D01*
X5050Y2763D01*
X5039Y2753D01*
X4938D01*
Y2770D01*
X4812D01*
Y2680D01*
X4938D01*
Y2697D01*
X5039D01*
X5050Y2687D01*
X5066Y2680D01*
X5084D01*
X5100Y2687D01*
X5113Y2700D01*
X5120Y2716D01*
Y2734D01*
X5113Y2750D01*
X5100Y2763D01*
X5084Y2770D01*
D02*
G37*
G36*
X3113Y2950D02*
X3096D01*
X3079Y2943D01*
X3066Y2931D01*
X3060Y2914D01*
Y2896D01*
X3066Y2880D01*
X3072Y2874D01*
Y2820D01*
X3038D01*
Y2730D01*
X3162D01*
Y2820D01*
X3128D01*
Y2866D01*
X3130Y2867D01*
X3143Y2880D01*
X3150Y2896D01*
Y2914D01*
X3143Y2931D01*
X3130Y2943D01*
X3113Y2950D01*
D02*
G37*
G36*
X2513Y2925D02*
X2496D01*
X2479Y2918D01*
X2466Y2906D01*
X2460Y2889D01*
Y2871D01*
X2466Y2855D01*
X2472Y2849D01*
Y2820D01*
X2438D01*
Y2730D01*
X2562D01*
Y2820D01*
X2528D01*
Y2841D01*
X2530Y2842D01*
X2543Y2855D01*
X2550Y2871D01*
Y2889D01*
X2543Y2906D01*
X2530Y2918D01*
X2513Y2925D01*
D02*
G37*
G36*
X10875Y2824D02*
X10828D01*
Y2721D01*
X10916D01*
Y2783D01*
X10913Y2799D01*
X10904Y2812D01*
X10891Y2821D01*
X10875Y2824D01*
D02*
G37*
G36*
X10802D02*
X10755D01*
X10739Y2821D01*
X10726Y2812D01*
X10717Y2799D01*
X10714Y2783D01*
Y2721D01*
X10802D01*
Y2824D01*
D02*
G37*
G36*
X11281Y2824D02*
X11246D01*
Y2721D01*
X11319D01*
Y2786D01*
X11316Y2801D01*
X11308Y2813D01*
X11296Y2821D01*
X11281Y2824D01*
D02*
G37*
G36*
X11220D02*
X11185D01*
X11170Y2821D01*
X11158Y2813D01*
X11150Y2801D01*
X11147Y2786D01*
Y2721D01*
X11220D01*
Y2824D01*
D02*
G37*
G36*
X9955Y2762D02*
X9913D01*
Y2702D01*
X9955D01*
Y2762D01*
D02*
G37*
G36*
X3495Y2718D02*
X3305D01*
Y2653D01*
X3162D01*
Y2670D01*
X3038D01*
Y2580D01*
X3162D01*
Y2597D01*
X3305D01*
Y2528D01*
X3495D01*
Y2718D01*
D02*
G37*
G36*
X10916Y2695D02*
X10815D01*
X10714D01*
Y2684D01*
X10709Y2678D01*
X10702Y2660D01*
X10701Y2653D01*
X10815D01*
X10929D01*
X10928Y2660D01*
X10921Y2678D01*
X10916Y2684D01*
Y2695D01*
D02*
G37*
G36*
X11327Y2695D02*
X11233D01*
X11143D01*
X11141Y2694D01*
X11129Y2678D01*
X11122Y2660D01*
X11121Y2653D01*
X11235D01*
X11349D01*
X11348Y2660D01*
X11341Y2678D01*
X11329Y2694D01*
X11327Y2695D01*
D02*
G37*
G36*
X9612Y2680D02*
X9527D01*
Y2618D01*
X9612D01*
Y2680D01*
D02*
G37*
G36*
X2295Y2718D02*
X2105D01*
Y2528D01*
X2295D01*
Y2597D01*
X2438D01*
Y2580D01*
X2562D01*
Y2670D01*
X2438D01*
Y2653D01*
X2295D01*
Y2718D01*
D02*
G37*
G36*
X11349Y2627D02*
X11248D01*
Y2564D01*
X11275D01*
X11295Y2567D01*
X11313Y2574D01*
X11329Y2586D01*
X11341Y2602D01*
X11348Y2620D01*
X11349Y2627D01*
D02*
G37*
G36*
X11222D02*
X11121D01*
X11122Y2620D01*
X11129Y2602D01*
X11141Y2586D01*
X11157Y2574D01*
X11175Y2567D01*
X11195Y2564D01*
X11222D01*
Y2627D01*
D02*
G37*
G36*
X4695Y2718D02*
X4505D01*
Y2528D01*
X4695D01*
Y2718D01*
D02*
G37*
G36*
X3945Y2538D02*
X3855D01*
Y2504D01*
X3835Y2504D01*
X3825Y2513D01*
X3809Y2520D01*
X3791D01*
X3775Y2513D01*
X3762Y2500D01*
X3755Y2484D01*
Y2466D01*
X3762Y2450D01*
X3772Y2439D01*
Y1880D01*
X3750Y1858D01*
X3725Y1865D01*
X3695D01*
X3666Y1857D01*
X3639Y1842D01*
X3618Y1821D01*
X3603Y1794D01*
X3595Y1765D01*
Y1735D01*
X3603Y1706D01*
X3618Y1679D01*
X3639Y1658D01*
X3666Y1643D01*
X3695Y1635D01*
X3725D01*
X3754Y1643D01*
X3781Y1658D01*
X3802Y1679D01*
X3817Y1706D01*
X3825Y1735D01*
Y1765D01*
X3817Y1794D01*
X3802Y1821D01*
X3797Y1826D01*
X3820Y1849D01*
X3826Y1858D01*
X3828Y1869D01*
Y2429D01*
X3835Y2436D01*
X3855Y2427D01*
Y2412D01*
X3945D01*
Y2538D01*
D02*
G37*
G36*
X10505Y2437D02*
X10443D01*
Y2352D01*
X10505D01*
Y2437D01*
D02*
G37*
G36*
X3414Y2355D02*
X3413D01*
Y2263D01*
X3505D01*
Y2264D01*
X3498Y2291D01*
X3484Y2315D01*
X3465Y2334D01*
X3441Y2348D01*
X3414Y2355D01*
D02*
G37*
G36*
X3387D02*
X3386D01*
X3359Y2348D01*
X3335Y2334D01*
X3316Y2315D01*
X3302Y2291D01*
X3295Y2264D01*
Y2263D01*
X3387D01*
Y2355D01*
D02*
G37*
G36*
X10232Y2331D02*
X10121D01*
X10112Y2329D01*
X10104Y2324D01*
X10099Y2316D01*
X10098Y2307D01*
Y2293D01*
X10099Y2284D01*
X10104Y2276D01*
Y2274D01*
X10099Y2266D01*
X10098Y2257D01*
Y2243D01*
X10099Y2234D01*
X10099Y2233D01*
X10097Y2232D01*
X10090Y2220D01*
X10088Y2213D01*
X10265D01*
X10263Y2220D01*
X10256Y2232D01*
X10254Y2233D01*
X10254Y2234D01*
X10255Y2243D01*
Y2257D01*
X10254Y2266D01*
X10249Y2274D01*
Y2276D01*
X10254Y2284D01*
X10255Y2293D01*
Y2307D01*
X10254Y2316D01*
X10249Y2324D01*
X10241Y2329D01*
X10232Y2331D01*
D02*
G37*
G36*
X3663Y2345D02*
X3637D01*
X3613Y2339D01*
X3592Y2326D01*
X3574Y2308D01*
X3561Y2287D01*
X3555Y2263D01*
Y2237D01*
X3561Y2213D01*
X3574Y2192D01*
X3592Y2174D01*
X3613Y2161D01*
X3637Y2155D01*
X3663D01*
X3687Y2161D01*
X3708Y2174D01*
X3726Y2192D01*
X3739Y2213D01*
X3745Y2237D01*
Y2263D01*
X3739Y2287D01*
X3726Y2308D01*
X3708Y2326D01*
X3687Y2339D01*
X3663Y2345D01*
D02*
G37*
G36*
X3163D02*
X3137D01*
X3113Y2339D01*
X3092Y2326D01*
X3074Y2308D01*
X3061Y2287D01*
X3055Y2263D01*
Y2237D01*
X3061Y2213D01*
X3074Y2192D01*
X3092Y2174D01*
X3113Y2161D01*
X3137Y2155D01*
X3163D01*
X3187Y2161D01*
X3208Y2174D01*
X3226Y2192D01*
X3239Y2213D01*
X3245Y2237D01*
Y2263D01*
X3239Y2287D01*
X3226Y2308D01*
X3208Y2326D01*
X3187Y2339D01*
X3163Y2345D01*
D02*
G37*
G36*
X3505Y2237D02*
X3413D01*
Y2145D01*
X3414D01*
X3441Y2152D01*
X3465Y2166D01*
X3484Y2185D01*
X3498Y2209D01*
X3505Y2236D01*
Y2237D01*
D02*
G37*
G36*
X3387D02*
X3295D01*
Y2236D01*
X3302Y2209D01*
X3316Y2185D01*
X3335Y2166D01*
X3359Y2152D01*
X3386Y2145D01*
X3387D01*
Y2237D01*
D02*
G37*
G36*
X9645Y2025D02*
X9592D01*
Y1963D01*
X9645D01*
Y2025D01*
D02*
G37*
G36*
Y1937D02*
X9592D01*
Y1875D01*
X9645D01*
Y1937D01*
D02*
G37*
G36*
X11275Y1836D02*
X11248D01*
Y1773D01*
X11349D01*
X11348Y1780D01*
X11341Y1798D01*
X11329Y1814D01*
X11313Y1826D01*
X11295Y1833D01*
X11275Y1836D01*
D02*
G37*
G36*
X11222D02*
X11195D01*
X11175Y1833D01*
X11157Y1826D01*
X11141Y1814D01*
X11129Y1798D01*
X11122Y1780D01*
X11121Y1773D01*
X11222D01*
Y1836D01*
D02*
G37*
G36*
X11349Y1747D02*
X11235D01*
X11121D01*
X11122Y1740D01*
X11129Y1722D01*
X11141Y1706D01*
X11143Y1705D01*
X11233D01*
X11327D01*
X11329Y1706D01*
X11341Y1722D01*
X11348Y1740D01*
X11349Y1747D01*
D02*
G37*
G36*
X10929Y1747D02*
X10815D01*
X10701D01*
X10702Y1740D01*
X10709Y1722D01*
X10714Y1716D01*
Y1705D01*
X10815D01*
Y1692D01*
D01*
Y1705D01*
X10916D01*
Y1716D01*
X10921Y1722D01*
X10928Y1740D01*
X10929Y1747D01*
D02*
G37*
G36*
X4925Y1865D02*
X4895D01*
X4866Y1857D01*
X4839Y1842D01*
X4818Y1821D01*
X4803Y1794D01*
X4795Y1765D01*
Y1735D01*
X4803Y1706D01*
X4818Y1679D01*
X4839Y1658D01*
X4866Y1643D01*
X4895Y1635D01*
X4925D01*
X4954Y1643D01*
X4981Y1658D01*
X5002Y1679D01*
X5017Y1706D01*
X5025Y1735D01*
Y1765D01*
X5017Y1794D01*
X5002Y1821D01*
X4981Y1842D01*
X4954Y1857D01*
X4925Y1865D01*
D02*
G37*
G36*
X4338Y2020D02*
X4212D01*
Y1930D01*
X4257D01*
Y1862D01*
X4241Y1857D01*
X4214Y1842D01*
X4193Y1821D01*
X4178Y1794D01*
X4170Y1765D01*
Y1735D01*
X4178Y1706D01*
X4193Y1679D01*
X4214Y1658D01*
X4241Y1643D01*
X4270Y1635D01*
X4300D01*
X4329Y1643D01*
X4356Y1658D01*
X4377Y1679D01*
X4392Y1706D01*
X4400Y1735D01*
Y1765D01*
X4392Y1794D01*
X4377Y1821D01*
X4356Y1842D01*
X4329Y1857D01*
X4313Y1862D01*
Y1930D01*
X4338D01*
Y2020D01*
D02*
G37*
G36*
X3100Y1865D02*
X3070D01*
X3041Y1857D01*
X3014Y1842D01*
X2993Y1821D01*
X2978Y1794D01*
X2970Y1765D01*
Y1735D01*
X2978Y1706D01*
X2993Y1679D01*
X3014Y1658D01*
X3041Y1643D01*
X3070Y1635D01*
X3100D01*
X3129Y1643D01*
X3156Y1658D01*
X3177Y1679D01*
X3192Y1706D01*
X3200Y1735D01*
Y1765D01*
X3192Y1794D01*
X3177Y1821D01*
X3156Y1842D01*
X3129Y1857D01*
X3100Y1865D01*
D02*
G37*
G36*
X2562Y2020D02*
X2438D01*
Y1930D01*
X2482D01*
Y1862D01*
X2466Y1857D01*
X2439Y1842D01*
X2418Y1821D01*
X2403Y1794D01*
X2395Y1765D01*
Y1735D01*
X2403Y1706D01*
X2418Y1679D01*
X2439Y1658D01*
X2466Y1643D01*
X2495Y1635D01*
X2525D01*
X2554Y1643D01*
X2581Y1658D01*
X2602Y1679D01*
X2617Y1706D01*
X2625Y1735D01*
Y1765D01*
X2617Y1794D01*
X2602Y1821D01*
X2581Y1842D01*
X2554Y1857D01*
X2538Y1862D01*
Y1930D01*
X2562D01*
Y2020D01*
D02*
G37*
G36*
X1900Y1865D02*
X1870D01*
X1841Y1857D01*
X1814Y1842D01*
X1793Y1821D01*
X1778Y1794D01*
X1770Y1765D01*
Y1735D01*
X1778Y1706D01*
X1793Y1679D01*
X1814Y1658D01*
X1841Y1643D01*
X1870Y1635D01*
X1900D01*
X1929Y1643D01*
X1956Y1658D01*
X1977Y1679D01*
X1992Y1706D01*
X2000Y1735D01*
Y1765D01*
X1992Y1794D01*
X1977Y1821D01*
X1956Y1842D01*
X1929Y1857D01*
X1900Y1865D01*
D02*
G37*
G36*
X11319Y1679D02*
X11246D01*
Y1576D01*
X11281D01*
X11296Y1579D01*
X11308Y1587D01*
X11316Y1599D01*
X11319Y1614D01*
Y1679D01*
D02*
G37*
G36*
X11220D02*
X11147D01*
Y1614D01*
X11150Y1599D01*
X11158Y1587D01*
X11170Y1579D01*
X11185Y1576D01*
X11220D01*
Y1679D01*
D02*
G37*
G36*
X10916Y1679D02*
X10828D01*
Y1576D01*
X10875D01*
X10891Y1579D01*
X10904Y1588D01*
X10913Y1601D01*
X10916Y1617D01*
Y1679D01*
D02*
G37*
G36*
X10802D02*
X10714D01*
Y1617D01*
X10717Y1601D01*
X10726Y1588D01*
X10739Y1579D01*
X10755Y1576D01*
X10802D01*
Y1679D01*
D02*
G37*
G36*
X3968Y1685D02*
X3963D01*
Y1513D01*
X4135D01*
Y1518D01*
X4128Y1554D01*
X4114Y1588D01*
X4094Y1618D01*
X4068Y1644D01*
X4038Y1664D01*
X4004Y1678D01*
X3968Y1685D01*
D02*
G37*
G36*
X2868D02*
X2863D01*
Y1513D01*
X3035D01*
Y1518D01*
X3028Y1554D01*
X3014Y1588D01*
X2994Y1618D01*
X2968Y1644D01*
X2938Y1664D01*
X2904Y1678D01*
X2868Y1685D01*
D02*
G37*
G36*
X3937D02*
X3932D01*
X3896Y1678D01*
X3862Y1664D01*
X3832Y1644D01*
X3806Y1618D01*
X3786Y1588D01*
X3772Y1554D01*
X3765Y1518D01*
Y1513D01*
X3937D01*
Y1685D01*
D02*
G37*
G36*
X2837D02*
X2832D01*
X2796Y1678D01*
X2762Y1664D01*
X2732Y1644D01*
X2706Y1618D01*
X2686Y1588D01*
X2672Y1554D01*
X2665Y1518D01*
Y1513D01*
X2837D01*
Y1685D01*
D02*
G37*
G36*
X8838Y1473D02*
X8838D01*
Y1388D01*
X8923D01*
Y1388D01*
X8916Y1413D01*
X8903Y1435D01*
X8885Y1453D01*
X8863Y1466D01*
X8838Y1473D01*
D02*
G37*
G36*
X8812D02*
X8812D01*
X8787Y1466D01*
X8765Y1453D01*
X8747Y1435D01*
X8734Y1413D01*
X8727Y1388D01*
Y1388D01*
X8812D01*
Y1473D01*
D02*
G37*
G36*
X4135Y1487D02*
X3963D01*
Y1315D01*
X3968D01*
X4004Y1322D01*
X4038Y1336D01*
X4068Y1356D01*
X4094Y1382D01*
X4114Y1412D01*
X4128Y1446D01*
X4135Y1482D01*
Y1487D01*
D02*
G37*
G36*
X3937D02*
X3765D01*
Y1482D01*
X3772Y1446D01*
X3786Y1412D01*
X3806Y1382D01*
X3832Y1356D01*
X3862Y1336D01*
X3896Y1322D01*
X3932Y1315D01*
X3937D01*
Y1487D01*
D02*
G37*
G36*
X3035D02*
X2863D01*
Y1315D01*
X2868D01*
X2904Y1322D01*
X2938Y1336D01*
X2968Y1356D01*
X2994Y1382D01*
X3014Y1412D01*
X3028Y1446D01*
X3035Y1482D01*
Y1487D01*
D02*
G37*
G36*
X2837D02*
X2665D01*
Y1482D01*
X2672Y1446D01*
X2686Y1412D01*
X2706Y1382D01*
X2732Y1356D01*
X2762Y1336D01*
X2796Y1322D01*
X2832Y1315D01*
X2837D01*
Y1487D01*
D02*
G37*
G36*
X8923Y1362D02*
X8838D01*
Y1277D01*
X8838D01*
X8863Y1284D01*
X8885Y1297D01*
X8903Y1315D01*
X8916Y1337D01*
X8923Y1362D01*
Y1362D01*
D02*
G37*
G36*
X8812D02*
X8727D01*
Y1362D01*
X8734Y1337D01*
X8747Y1315D01*
X8765Y1297D01*
X8787Y1284D01*
X8812Y1277D01*
X8812D01*
Y1362D01*
D02*
G37*
G36*
X4927Y1375D02*
X4923D01*
Y1263D01*
X5035D01*
Y1267D01*
X5027Y1298D01*
X5010Y1327D01*
X4987Y1350D01*
X4958Y1367D01*
X4927Y1375D01*
D02*
G37*
G36*
X4897D02*
X4893D01*
X4862Y1367D01*
X4833Y1350D01*
X4810Y1327D01*
X4793Y1298D01*
X4785Y1267D01*
Y1263D01*
X4897D01*
Y1375D01*
D02*
G37*
G36*
X4302D02*
X4298D01*
Y1263D01*
X4410D01*
Y1267D01*
X4402Y1298D01*
X4385Y1327D01*
X4362Y1350D01*
X4333Y1367D01*
X4302Y1375D01*
D02*
G37*
G36*
X4272D02*
X4268D01*
X4237Y1367D01*
X4208Y1350D01*
X4185Y1327D01*
X4168Y1298D01*
X4160Y1267D01*
Y1263D01*
X4272D01*
Y1375D01*
D02*
G37*
G36*
X3727D02*
X3723D01*
Y1263D01*
X3835D01*
Y1267D01*
X3827Y1298D01*
X3810Y1327D01*
X3787Y1350D01*
X3758Y1367D01*
X3727Y1375D01*
D02*
G37*
G36*
X3697D02*
X3693D01*
X3662Y1367D01*
X3633Y1350D01*
X3610Y1327D01*
X3593Y1298D01*
X3585Y1267D01*
Y1263D01*
X3697D01*
Y1375D01*
D02*
G37*
G36*
X3102D02*
X3098D01*
Y1263D01*
X3210D01*
Y1267D01*
X3202Y1298D01*
X3185Y1327D01*
X3162Y1350D01*
X3133Y1367D01*
X3102Y1375D01*
D02*
G37*
G36*
X3072D02*
X3068D01*
X3037Y1367D01*
X3008Y1350D01*
X2985Y1327D01*
X2968Y1298D01*
X2960Y1267D01*
Y1263D01*
X3072D01*
Y1375D01*
D02*
G37*
G36*
X2527D02*
X2523D01*
Y1263D01*
X2635D01*
Y1267D01*
X2627Y1298D01*
X2610Y1327D01*
X2587Y1350D01*
X2558Y1367D01*
X2527Y1375D01*
D02*
G37*
G36*
X2497D02*
X2493D01*
X2462Y1367D01*
X2433Y1350D01*
X2410Y1327D01*
X2393Y1298D01*
X2385Y1267D01*
Y1263D01*
X2497D01*
Y1375D01*
D02*
G37*
G36*
X1902D02*
X1898D01*
Y1263D01*
X2010D01*
Y1267D01*
X2002Y1298D01*
X1985Y1327D01*
X1962Y1350D01*
X1933Y1367D01*
X1902Y1375D01*
D02*
G37*
G36*
X1872D02*
X1868D01*
X1837Y1367D01*
X1808Y1350D01*
X1785Y1327D01*
X1768Y1298D01*
X1760Y1267D01*
Y1263D01*
X1872D01*
Y1375D01*
D02*
G37*
G36*
X5035Y1237D02*
X4923D01*
Y1125D01*
X4927D01*
X4958Y1133D01*
X4987Y1150D01*
X5010Y1173D01*
X5027Y1202D01*
X5035Y1233D01*
Y1237D01*
D02*
G37*
G36*
X4897D02*
X4785D01*
Y1233D01*
X4793Y1202D01*
X4810Y1173D01*
X4833Y1150D01*
X4862Y1133D01*
X4893Y1125D01*
X4897D01*
Y1237D01*
D02*
G37*
G36*
X4410D02*
X4298D01*
Y1125D01*
X4302D01*
X4333Y1133D01*
X4362Y1150D01*
X4385Y1173D01*
X4402Y1202D01*
X4410Y1233D01*
Y1237D01*
D02*
G37*
G36*
X4272D02*
X4160D01*
Y1233D01*
X4168Y1202D01*
X4185Y1173D01*
X4208Y1150D01*
X4237Y1133D01*
X4268Y1125D01*
X4272D01*
Y1237D01*
D02*
G37*
G36*
X3835D02*
X3723D01*
Y1125D01*
X3727D01*
X3758Y1133D01*
X3787Y1150D01*
X3810Y1173D01*
X3827Y1202D01*
X3835Y1233D01*
Y1237D01*
D02*
G37*
G36*
X3697D02*
X3585D01*
Y1233D01*
X3593Y1202D01*
X3610Y1173D01*
X3633Y1150D01*
X3662Y1133D01*
X3693Y1125D01*
X3697D01*
Y1237D01*
D02*
G37*
G36*
X3210D02*
X3098D01*
Y1125D01*
X3102D01*
X3133Y1133D01*
X3162Y1150D01*
X3185Y1173D01*
X3202Y1202D01*
X3210Y1233D01*
Y1237D01*
D02*
G37*
G36*
X3072D02*
X2960D01*
Y1233D01*
X2968Y1202D01*
X2985Y1173D01*
X3008Y1150D01*
X3037Y1133D01*
X3068Y1125D01*
X3072D01*
Y1237D01*
D02*
G37*
G36*
X2635D02*
X2523D01*
Y1125D01*
X2527D01*
X2558Y1133D01*
X2587Y1150D01*
X2610Y1173D01*
X2627Y1202D01*
X2635Y1233D01*
Y1237D01*
D02*
G37*
G36*
X2497D02*
X2385D01*
Y1233D01*
X2393Y1202D01*
X2410Y1173D01*
X2433Y1150D01*
X2462Y1133D01*
X2493Y1125D01*
X2497D01*
Y1237D01*
D02*
G37*
G36*
X2010D02*
X1898D01*
Y1125D01*
X1902D01*
X1933Y1133D01*
X1962Y1150D01*
X1985Y1173D01*
X2002Y1202D01*
X2010Y1233D01*
Y1237D01*
D02*
G37*
G36*
X1872D02*
X1760D01*
Y1233D01*
X1768Y1202D01*
X1785Y1173D01*
X1808Y1150D01*
X1837Y1133D01*
X1868Y1125D01*
X1872D01*
Y1237D01*
D02*
G37*
G36*
X3164Y905D02*
X3163D01*
Y813D01*
X3255D01*
Y814D01*
X3248Y841D01*
X3234Y865D01*
X3215Y884D01*
X3191Y898D01*
X3164Y905D01*
D02*
G37*
G36*
X3137D02*
X3136D01*
X3109Y898D01*
X3085Y884D01*
X3066Y865D01*
X3052Y841D01*
X3045Y814D01*
Y813D01*
X3137D01*
Y905D01*
D02*
G37*
G36*
X5772Y925D02*
X5763D01*
Y713D01*
X5975D01*
Y722D01*
X5967Y766D01*
X5950Y807D01*
X5925Y844D01*
X5894Y875D01*
X5857Y900D01*
X5816Y917D01*
X5772Y925D01*
D02*
G37*
G36*
X5737D02*
X5728D01*
X5684Y917D01*
X5643Y900D01*
X5606Y875D01*
X5575Y844D01*
X5550Y807D01*
X5533Y766D01*
X5525Y722D01*
Y713D01*
X5737D01*
Y925D01*
D02*
G37*
G36*
X9772D02*
X9763D01*
Y713D01*
X9975D01*
Y722D01*
X9967Y766D01*
X9950Y807D01*
X9925Y844D01*
X9894Y875D01*
X9857Y900D01*
X9816Y917D01*
X9772Y925D01*
D02*
G37*
G36*
X1772D02*
X1763D01*
Y713D01*
X1975D01*
Y722D01*
X1967Y766D01*
X1950Y807D01*
X1925Y844D01*
X1894Y875D01*
X1857Y900D01*
X1816Y917D01*
X1772Y925D01*
D02*
G37*
G36*
X1737D02*
X1728D01*
X1684Y917D01*
X1643Y900D01*
X1606Y875D01*
X1575Y844D01*
X1550Y807D01*
X1533Y766D01*
X1525Y722D01*
Y713D01*
X1737D01*
Y925D01*
D02*
G37*
G36*
X9737D02*
X9728D01*
X9684Y917D01*
X9643Y900D01*
X9606Y875D01*
X9575Y844D01*
X9550Y807D01*
X9533Y766D01*
X9525Y722D01*
Y713D01*
X9737D01*
Y925D01*
D02*
G37*
G36*
X3663Y895D02*
X3637D01*
X3613Y889D01*
X3592Y876D01*
X3574Y858D01*
X3561Y837D01*
X3555Y813D01*
Y787D01*
X3561Y763D01*
X3574Y742D01*
X3592Y724D01*
X3613Y711D01*
X3637Y705D01*
X3663D01*
X3687Y711D01*
X3708Y724D01*
X3726Y742D01*
X3739Y763D01*
X3745Y787D01*
Y813D01*
X3739Y837D01*
X3726Y858D01*
X3708Y876D01*
X3687Y889D01*
X3663Y895D01*
D02*
G37*
G36*
X3255Y787D02*
X3163D01*
Y695D01*
X3164D01*
X3191Y702D01*
X3215Y716D01*
X3234Y735D01*
X3248Y759D01*
X3255Y786D01*
Y787D01*
D02*
G37*
G36*
X3137D02*
X3045D01*
Y786D01*
X3052Y759D01*
X3066Y735D01*
X3085Y716D01*
X3109Y702D01*
X3136Y695D01*
X3137D01*
Y787D01*
D02*
G37*
G36*
X9975Y687D02*
X9763D01*
Y475D01*
X9772D01*
X9816Y483D01*
X9857Y500D01*
X9894Y525D01*
X9925Y556D01*
X9950Y593D01*
X9967Y634D01*
X9975Y678D01*
Y687D01*
D02*
G37*
G36*
X9737D02*
X9525D01*
Y678D01*
X9533Y634D01*
X9550Y593D01*
X9575Y556D01*
X9606Y525D01*
X9643Y500D01*
X9684Y483D01*
X9728Y475D01*
X9737D01*
Y687D01*
D02*
G37*
G36*
X5975Y687D02*
X5763D01*
Y475D01*
X5772D01*
X5816Y483D01*
X5857Y500D01*
X5894Y525D01*
X5925Y556D01*
X5950Y593D01*
X5967Y634D01*
X5975Y678D01*
Y687D01*
D02*
G37*
G36*
X5737D02*
X5525D01*
Y678D01*
X5533Y634D01*
X5550Y593D01*
X5575Y556D01*
X5606Y525D01*
X5643Y500D01*
X5684Y483D01*
X5728Y475D01*
X5737D01*
Y687D01*
D02*
G37*
G36*
X1975Y687D02*
X1763D01*
Y475D01*
X1772D01*
X1816Y483D01*
X1857Y500D01*
X1894Y525D01*
X1925Y556D01*
X1950Y593D01*
X1967Y634D01*
X1975Y678D01*
Y687D01*
D02*
G37*
G36*
X1737D02*
X1525D01*
Y678D01*
X1533Y634D01*
X1550Y593D01*
X1575Y556D01*
X1606Y525D01*
X1643Y500D01*
X1684Y483D01*
X1728Y475D01*
X1737D01*
Y687D01*
D02*
G37*
%LPD*%
G36*
X3859Y4626D02*
Y4345D01*
X3835D01*
X3832Y4345D01*
X3815D01*
X3812Y4345D01*
X3714Y4345D01*
X3698Y4355D01*
X3689Y4355D01*
X3646D01*
Y4250D01*
Y4145D01*
X3689D01*
X3698Y4145D01*
X3699Y4145D01*
X3719Y4134D01*
Y3947D01*
X3685D01*
Y3941D01*
X3638D01*
Y3970D01*
X3462D01*
X3446Y3978D01*
Y3980D01*
X3443Y3996D01*
X3434Y4009D01*
X3434Y4009D01*
X3419Y4024D01*
X3406Y4033D01*
X3390Y4036D01*
X3390Y4036D01*
X2827D01*
X2819Y4054D01*
X2891Y4126D01*
X2897Y4135D01*
X2899Y4146D01*
Y4155D01*
X2923D01*
X2926Y4155D01*
X2943D01*
X2946Y4155D01*
X3050D01*
X3053Y4155D01*
X3070D01*
X3073Y4155D01*
X3177D01*
X3180Y4155D01*
X3197D01*
X3200Y4155D01*
X3304D01*
X3307Y4155D01*
X3324D01*
X3327Y4155D01*
X3434D01*
Y4155D01*
X3451D01*
Y4155D01*
X3552Y4155D01*
X3568Y4145D01*
X3577Y4145D01*
X3620D01*
Y4250D01*
Y4355D01*
X3577D01*
X3568Y4355D01*
X3554Y4346D01*
X3544Y4349D01*
X3534Y4359D01*
Y4394D01*
X3562Y4422D01*
X3670D01*
X3672Y4418D01*
X3685Y4406D01*
X3701Y4399D01*
X3719D01*
X3736Y4406D01*
X3748Y4418D01*
X3755Y4435D01*
Y4453D01*
X3748Y4469D01*
X3739Y4484D01*
X3752Y4497D01*
X3758Y4513D01*
Y4531D01*
X3752Y4548D01*
X3739Y4560D01*
X3722Y4567D01*
X3704D01*
X3688Y4560D01*
X3681Y4553D01*
X3425D01*
X3414Y4551D01*
X3405Y4545D01*
X3355Y4495D01*
X3349Y4486D01*
X3347Y4475D01*
Y4345D01*
X3327Y4345D01*
X3324Y4345D01*
X3307D01*
X3304Y4345D01*
X3200D01*
X3197Y4345D01*
X3180D01*
X3177Y4345D01*
X3073D01*
X3070Y4345D01*
X3053Y4353D01*
Y4414D01*
X3262Y4622D01*
X3689D01*
X3700Y4612D01*
X3716Y4605D01*
X3734D01*
X3750Y4612D01*
X3763Y4625D01*
X3770Y4641D01*
Y4659D01*
X3763Y4675D01*
X3750Y4688D01*
X3734Y4695D01*
X3716D01*
X3700Y4688D01*
X3689Y4678D01*
X3250D01*
X3245Y4677D01*
X3235Y4695D01*
X3262Y4722D01*
X3763D01*
X3859Y4626D01*
D02*
G37*
G36*
X4568Y4535D02*
Y3879D01*
X4571Y3868D01*
X4577Y3859D01*
X4817Y3619D01*
X4807Y3600D01*
X4796D01*
X4779Y3593D01*
X4777Y3591D01*
X3150D01*
X3145Y3590D01*
X3140Y3591D01*
X3091D01*
Y3645D01*
X3095Y3649D01*
X3111Y3658D01*
X3116Y3657D01*
X3174D01*
X3185Y3659D01*
X3194Y3666D01*
X3201Y3675D01*
X3203Y3686D01*
Y3714D01*
X3201Y3725D01*
X3196Y3732D01*
X3196Y3732D01*
X3196Y3741D01*
X3199Y3756D01*
X3202Y3758D01*
X3211Y3771D01*
X3214Y3786D01*
Y3787D01*
X3145D01*
Y3813D01*
X3214D01*
Y3814D01*
X3211Y3829D01*
X3202Y3842D01*
X3199Y3844D01*
X3196Y3859D01*
X3196Y3868D01*
X3196Y3868D01*
X3201Y3875D01*
X3203Y3886D01*
Y3914D01*
X3201Y3925D01*
X3194Y3934D01*
X3201Y3954D01*
X3349D01*
X3356Y3934D01*
X3349Y3925D01*
X3347Y3914D01*
Y3886D01*
X3349Y3875D01*
X3356Y3866D01*
X3365Y3859D01*
X3376Y3857D01*
X3434D01*
X3442Y3859D01*
X3457Y3854D01*
X3462Y3852D01*
Y3840D01*
X3462Y3840D01*
X3462Y3820D01*
X3452D01*
Y3758D01*
X3434Y3743D01*
X3376D01*
X3365Y3741D01*
X3356Y3734D01*
X3349Y3725D01*
X3347Y3714D01*
Y3686D01*
X3349Y3675D01*
X3356Y3666D01*
X3365Y3659D01*
X3376Y3657D01*
X3434D01*
X3445Y3659D01*
X3454Y3666D01*
X3457Y3670D01*
X3537D01*
Y3745D01*
X3550D01*
Y3758D01*
X3648D01*
Y3820D01*
X3640D01*
X3638Y3840D01*
X3638Y3841D01*
X3640Y3859D01*
X3671D01*
X3685Y3845D01*
Y3839D01*
X3675Y3823D01*
X3675Y3822D01*
Y3770D01*
X3825D01*
Y3822D01*
X3825Y3823D01*
X3815Y3839D01*
X3815Y3843D01*
Y3947D01*
X3801D01*
Y4140D01*
X3815Y4155D01*
X3832D01*
X3835Y4155D01*
X3942D01*
Y4155D01*
X3959D01*
Y4155D01*
X4069D01*
Y4345D01*
X4042D01*
Y4611D01*
X4040Y4622D01*
X4034Y4631D01*
X3863Y4802D01*
X3871Y4822D01*
X4281D01*
X4568Y4535D01*
D02*
G37*
%LPC*%
G36*
X3825Y3745D02*
X3763D01*
Y3692D01*
X3825D01*
Y3745D01*
D02*
G37*
G36*
X3737D02*
X3675D01*
Y3692D01*
X3737D01*
Y3745D01*
D02*
G37*
G36*
X3648Y3732D02*
X3563D01*
Y3670D01*
X3648D01*
Y3732D01*
D02*
G37*
%LPD*%
G36*
X7437Y4253D02*
X7446Y4240D01*
Y4221D01*
X7437Y4208D01*
X7434Y4192D01*
Y4142D01*
X7437Y4126D01*
X7446Y4113D01*
Y4094D01*
X7437Y4081D01*
X7434Y4065D01*
Y4015D01*
X7437Y3999D01*
X7446Y3986D01*
Y3970D01*
X7432Y3954D01*
X7390D01*
Y3972D01*
X7260D01*
Y3954D01*
X7055D01*
X7055Y3954D01*
X7050Y3960D01*
X7048Y3980D01*
X7048D01*
Y4042D01*
X6950D01*
Y4055D01*
X6937D01*
Y4130D01*
X6873D01*
X6865Y4150D01*
X6981Y4266D01*
X7435D01*
X7437Y4253D01*
D02*
G37*
%LPC*%
G36*
X7048Y4130D02*
X6963D01*
Y4068D01*
X7048D01*
Y4130D01*
D02*
G37*
%LPD*%
G36*
X9930Y3462D02*
X9930Y3452D01*
Y3338D01*
X9930Y3338D01*
X9930D01*
X9930Y3338D01*
X9924Y3320D01*
X9888D01*
Y3193D01*
X9876Y3183D01*
X9871Y3180D01*
X9861Y3180D01*
X9813D01*
Y3125D01*
Y3070D01*
X9873Y3070D01*
X9877Y3051D01*
X9877Y3020D01*
X9859Y3016D01*
X9850D01*
X9834Y3013D01*
X9821Y3004D01*
X9821Y3004D01*
X9633Y2816D01*
X9067D01*
X8929Y2954D01*
X8916Y2963D01*
X8900Y2966D01*
X8900Y2966D01*
X5933D01*
X5927Y2986D01*
X5938Y2997D01*
X7450D01*
X7461Y2999D01*
X7470Y3005D01*
X7712Y3247D01*
X9212D01*
Y3230D01*
X9338D01*
Y3305D01*
X9432D01*
X9452Y3284D01*
X9452Y3284D01*
X9494Y3242D01*
X9503Y3236D01*
X9514Y3234D01*
X9597D01*
Y3190D01*
X9580D01*
Y3068D01*
X9580Y3060D01*
X9565Y3048D01*
X9520D01*
Y2988D01*
X9575D01*
X9630D01*
Y3040D01*
X9630Y3048D01*
X9645Y3060D01*
X9670D01*
Y3190D01*
X9653D01*
Y3234D01*
X9738D01*
Y3230D01*
X9862D01*
Y3320D01*
X9862D01*
X9869Y3338D01*
X9870D01*
Y3452D01*
X9870Y3462D01*
X9886Y3472D01*
X9914D01*
X9930Y3462D01*
D02*
G37*
%LPC*%
G36*
X9480Y3190D02*
X9390D01*
Y3153D01*
X9338D01*
Y3170D01*
X9212D01*
Y3080D01*
X9338D01*
Y3097D01*
X9390D01*
Y3060D01*
X9402D01*
Y3038D01*
X9380D01*
Y2912D01*
X9470D01*
Y3038D01*
X9458D01*
Y3060D01*
X9480D01*
Y3190D01*
D02*
G37*
G36*
X9787Y3180D02*
X9727D01*
Y3138D01*
X9787D01*
Y3180D01*
D02*
G37*
G36*
Y3112D02*
X9727D01*
Y3070D01*
X9787D01*
Y3112D01*
D02*
G37*
G36*
X9630Y2962D02*
X9588D01*
Y2902D01*
X9630D01*
Y2962D01*
D02*
G37*
G36*
X9562D02*
X9520D01*
Y2902D01*
X9562D01*
Y2962D01*
D02*
G37*
%LPD*%
D10*
X3925Y5100D02*
X4611D01*
X4725Y4986D01*
Y4850D02*
Y4986D01*
X7050Y5000D02*
X8382D01*
X1751Y5462D02*
X1752Y5461D01*
X4100Y5450D02*
X4500D01*
X4014Y5524D02*
Y5650D01*
X4026Y5524D02*
X4100Y5450D01*
X9087Y4300D02*
X9142D01*
X6025Y4700D02*
X6750D01*
X5350Y5375D02*
X6025Y4700D01*
X3976Y5524D02*
X4014D01*
X9054Y4333D02*
X9087Y4300D01*
X1751Y5462D02*
Y5649D01*
X6750Y4700D02*
X7050Y5000D01*
X3975Y5525D02*
X3976Y5524D01*
X8382Y5000D02*
X9049Y4333D01*
X1750Y5650D02*
X1751Y5649D01*
X9049Y4333D02*
X9054D01*
Y4587D02*
X9093Y4548D01*
X9012Y4624D02*
Y4624D01*
X3379Y5546D02*
Y5650D01*
X8536Y5100D02*
X9012Y4624D01*
X3900Y5025D02*
X4575D01*
X5875Y5100D02*
X8536D01*
X9049Y4587D02*
X9054D01*
X9093Y4548D02*
X9150D01*
X3379Y5546D02*
X3900Y5025D01*
X9012Y4624D02*
X9049Y4587D01*
X2977Y4477D02*
X3250Y4750D01*
X3775D02*
X3887Y4638D01*
Y4250D02*
Y4638D01*
X2974Y4477D02*
X2977D01*
X3250Y4750D02*
X3775D01*
X1675Y4575D02*
X2200Y4050D01*
X2775D02*
X2871Y4146D01*
X1498Y4590D02*
Y4775D01*
X2871Y4146D02*
Y4250D01*
X1498Y4590D02*
X1513Y4575D01*
X1675D01*
X1325Y4775D02*
X1498D01*
X2200Y4050D02*
X2775D01*
X2363Y4250D02*
Y4387D01*
X2350Y4400D02*
X2363Y4387D01*
X3500Y6250D02*
X3508Y6242D01*
Y6000D02*
Y6242D01*
X2617Y4442D02*
X3225Y5050D01*
X2617Y4250D02*
Y4442D01*
X2744Y5206D02*
X3000Y4950D01*
X4285Y1750D02*
Y1965D01*
X2744Y5206D02*
Y5650D01*
X4275Y1975D02*
X4285Y1965D01*
X8961Y4548D02*
Y4548D01*
X6700Y4900D02*
X6850Y5050D01*
X8961Y4548D02*
X9049Y4460D01*
X9093Y4421D02*
X9150D01*
X3633Y5542D02*
Y5650D01*
X5675Y5150D02*
X5925Y4900D01*
X5675Y5150D02*
Y5150D01*
X9049Y4460D02*
X9054D01*
X8459Y5050D02*
X8961Y4548D01*
X6450Y4900D02*
X6700D01*
X3975Y5200D02*
X4525D01*
X9054Y4460D02*
X9093Y4421D01*
X5925Y4900D02*
X6450D01*
X6850Y5050D02*
X8459D01*
X3633Y5542D02*
X3975Y5200D01*
X3710Y1779D02*
X3800Y1869D01*
X3252Y5398D02*
X3600Y5050D01*
X3800Y2475D02*
X3800Y2475D01*
X3800Y2475D02*
X3900D01*
X3252Y5398D02*
Y5650D01*
X3710Y1750D02*
Y1779D01*
X3800Y1869D02*
Y2475D01*
X3525Y2475D02*
X3650Y2600D01*
X2525Y2475D02*
X3525D01*
X4050D02*
Y2550D01*
Y2225D02*
X4150Y2125D01*
X4050Y2225D02*
Y2475D01*
X2500Y2125D02*
Y2325D01*
X1625Y2750D02*
X2050Y2325D01*
X4000Y2600D02*
X4050Y2550D01*
X4150Y2125D02*
X4275D01*
X2500Y2325D02*
Y2450D01*
X1325Y5475D02*
X1339Y5461D01*
X2050Y2325D02*
X2500D01*
Y2450D02*
X2525Y2475D01*
X3650Y2600D02*
X4000D01*
X1617Y3225D02*
X1625Y3217D01*
X2744Y4250D02*
Y4419D01*
X3294Y4969D01*
X3750Y6250D02*
X3762Y6238D01*
Y6000D02*
Y6238D01*
X2490Y4250D02*
Y4385D01*
X2475Y4400D02*
X2490Y4385D01*
X3100Y2775D02*
Y2900D01*
X2500Y1975D02*
X2510Y1965D01*
Y1750D02*
Y1965D01*
X2617Y5208D02*
Y5650D01*
Y5208D02*
X2950Y4875D01*
X2500Y2775D02*
Y2875D01*
X2236Y4386D02*
X2250Y4400D01*
X2236Y4250D02*
Y4386D01*
X2363Y5896D02*
X2375Y5908D01*
X5825Y4500D02*
X6200Y4125D01*
X4950Y4500D02*
X5825D01*
X3506Y5519D02*
Y5650D01*
X6969Y4294D02*
X7550D01*
X6800Y4125D02*
X6969Y4294D01*
X3506Y5519D02*
X3925Y5100D01*
X4725Y4500D02*
X4950D01*
X3034Y4616D02*
X3218Y4800D01*
X3825D01*
X4014Y4611D01*
Y4250D02*
Y4611D01*
X2998Y5470D02*
X3568Y4900D01*
X9900Y1900D02*
Y2125D01*
X9550Y1800D02*
X9800D01*
X9774Y2150D02*
X9875D01*
X4300Y4900D02*
X4650Y4550D01*
X8975Y2375D02*
X9550Y1800D01*
X9800D02*
X9900Y1900D01*
X6218Y2375D02*
X8975D01*
X2998Y5470D02*
Y5650D01*
X9875Y2150D02*
X9900Y2125D01*
X3568Y4900D02*
X4300D01*
X4650Y3943D02*
X6218Y2375D01*
X4650Y3943D02*
Y4550D01*
X5700Y4700D02*
X6168Y4232D01*
X6193D02*
X6200Y4225D01*
X6168Y4232D02*
X6193D01*
X4950Y4700D02*
X5700D01*
X6996Y4421D02*
X7550D01*
X3125Y5400D02*
Y5650D01*
X4325Y4975D02*
X4600Y4700D01*
X3550Y4975D02*
X4325D01*
X6800Y4225D02*
X6996Y4421D01*
X4600Y4700D02*
X4950D01*
X3125Y5400D02*
X3550Y4975D01*
X7475Y3125D02*
X7683Y3333D01*
X9472Y3304D02*
X9514Y3262D01*
X9472Y3304D02*
Y3304D01*
X3375Y4275D02*
X3400Y4250D01*
X3375Y4475D02*
X3425Y4525D01*
X3725D01*
X9625Y3125D02*
Y3262D01*
X9514D02*
X9625D01*
X3379Y4250D02*
X3400D01*
X9625Y3262D02*
X9800D01*
X5900Y3125D02*
X7475D01*
X7683Y3333D02*
X9443D01*
X3375Y4275D02*
Y4475D01*
X9443Y3333D02*
X9472Y3304D01*
X8250Y4825D02*
X9027Y4048D01*
X9142D02*
X9150Y4040D01*
X9027Y4048D02*
X9142D01*
X3882Y5645D02*
X3887Y5650D01*
X2250Y5250D02*
X2325Y5325D01*
X3888Y5511D02*
X3888Y5512D01*
X7059Y4825D02*
X8250D01*
X1625Y4775D02*
X1640Y4790D01*
X5200Y5275D02*
Y5350D01*
X3888Y5489D02*
Y5511D01*
X1640Y5165D02*
X1725Y5250D01*
X1640Y4790D02*
Y5165D01*
X3882Y5518D02*
X3888Y5512D01*
X5200Y5275D02*
X6175Y4300D01*
X6587Y4347D02*
Y4353D01*
X3888Y5489D02*
X4027Y5350D01*
X6587Y4353D02*
X7059Y4825D01*
X1725Y5250D02*
X2250D01*
X3882Y5518D02*
Y5645D01*
X6175Y4300D02*
X6540D01*
X3882Y5505D02*
X3888Y5512D01*
X4027Y5350D02*
X4525D01*
X6540Y4300D02*
X6587Y4347D01*
X5250Y3650D02*
X5450Y3450D01*
X6675D01*
Y3325D02*
Y3450D01*
X3025Y4425D02*
X3250Y4650D01*
X3725D01*
X2998Y4250D02*
X3025Y4277D01*
Y4425D01*
X6675Y3300D02*
Y3325D01*
X9975Y1875D02*
Y2150D01*
X3550Y4850D02*
X4293D01*
X9925Y2200D02*
X9975Y2150D01*
X9825Y1725D02*
X9975Y1875D01*
X4293Y4850D02*
X4596Y4546D01*
X6200Y2275D02*
X8950D01*
X9450Y1775D01*
X9774Y2200D02*
X9925D01*
X9450Y1775D02*
X9500Y1725D01*
X9450Y1775D02*
Y1775D01*
X9500Y1725D02*
X9825D01*
X2871Y5529D02*
X3550Y4850D01*
X4596Y3879D02*
X6200Y2275D01*
X4596Y3879D02*
Y4546D01*
X2871Y5529D02*
Y5650D01*
X6100Y4500D02*
X6638D01*
X7063Y4925D01*
X8775Y4475D02*
Y4475D01*
X1879Y5445D02*
X1899Y5425D01*
X9044Y4206D02*
X9054D01*
X1899Y5425D02*
X2375D01*
X9054Y4206D02*
X9093Y4167D01*
X8775Y4475D02*
X9044Y4206D01*
X7063Y4925D02*
X8325D01*
X1879Y5445D02*
Y5461D01*
X3760Y5540D02*
X4025Y5275D01*
X4525D01*
X8325Y4925D02*
X8775Y4475D01*
X9093Y4167D02*
X9150D01*
X5325Y5275D02*
X6100Y4500D01*
X3760Y5540D02*
Y5650D01*
X7700Y3275D02*
X9279D01*
X3550Y4450D02*
X3704D01*
X5900Y3025D02*
X7450D01*
X3506Y4406D02*
X3550Y4450D01*
X3506Y4250D02*
Y4406D01*
X3704Y4450D02*
X3710Y4444D01*
X7450Y3025D02*
X7700Y3275D01*
X2900Y3725D02*
X2997D01*
X2692Y3750D02*
Y3825D01*
X6725Y4017D02*
X6735D01*
X6772Y4055D01*
X6950D01*
X9825Y3025D02*
X9857Y3058D01*
X9938D01*
X9975Y3095D01*
X10626Y2449D02*
X10756D01*
X2924Y3699D02*
X2940Y3683D01*
X6443Y5950D02*
Y5960D01*
X3140Y3560D02*
X3150Y3550D01*
X4875Y2725D02*
X5075D01*
X9625Y2250D02*
X9774D01*
X9774Y2250D01*
X10950Y2100D02*
Y2300D01*
X10820Y2430D02*
X10950Y2300D01*
X10725Y2430D02*
X10820D01*
X10820Y1970D02*
X10950Y2100D01*
X10725Y1970D02*
X10820D01*
X10725Y1940D02*
Y1970D01*
X10175Y3030D02*
Y3045D01*
X7716Y3500D02*
X10250D01*
X7425Y3200D02*
X7443Y3218D01*
Y3226D02*
X7716Y3500D01*
X7443Y3218D02*
Y3226D01*
X10250Y3500D02*
X10375Y3375D01*
Y3305D02*
Y3375D01*
X9425Y2975D02*
X9430Y2980D01*
Y3120D01*
X9435Y3125D01*
X9435Y3125D02*
X9435Y3125D01*
X9275Y3125D02*
X9435D01*
X9530Y3365D02*
X9615D01*
X9650Y3400D01*
X9825D01*
X9975Y3255D02*
X9997D01*
X10375Y2900D02*
Y3045D01*
X3100Y2625D02*
X3402D01*
X4858Y2850D02*
X4875D01*
X4831Y2877D02*
X4858Y2850D01*
X4600Y2877D02*
X4831D01*
X2202Y2625D02*
X2500D01*
X2200Y2623D02*
X2202Y2625D01*
X3400Y2623D02*
X3402Y2625D01*
X6360Y4100D02*
X6450D01*
X10500Y2250D02*
X10525Y2225D01*
X10725D01*
X10500Y2100D02*
X10525Y2125D01*
X10176Y2100D02*
X10500D01*
X10525Y2125D02*
X10725D01*
X10727Y2177D02*
X10860D01*
X10725Y2275D02*
X10860D01*
Y2177D02*
X10875Y2192D01*
X10860Y2275D02*
X10875Y2260D01*
Y2192D02*
Y2260D01*
X10725Y2275D02*
X10725Y2275D01*
X10725Y2175D02*
X10727Y2177D01*
X10456Y2150D02*
X10481Y2175D01*
X10725D01*
X10176Y2150D02*
X10456D01*
X10053Y2652D02*
X10055Y2650D01*
X10156Y2456D02*
X10162Y2450D01*
X9780Y2100D02*
X9782Y2097D01*
X9675Y2100D02*
X9780D01*
X9782Y1950D02*
Y2097D01*
X6950Y3895D02*
X6968Y3913D01*
X6707Y3900D02*
X6725Y3883D01*
X8556Y6294D02*
X8575Y6312D01*
D17*
Y6748D02*
D03*
X6500D02*
D03*
X2500D02*
D03*
D18*
X8321Y6718D02*
D03*
X8829D02*
D03*
X6246D02*
D03*
X6754D02*
D03*
X2246D02*
D03*
X2754D02*
D03*
D19*
X10055Y2650D02*
D03*
X10055Y2450D02*
D03*
X9795D02*
D03*
X9795Y2650D02*
D03*
X10055Y2550D02*
D03*
X6670Y3650D02*
D03*
X6930Y3450D02*
D03*
X6930Y3650D02*
D03*
X6670Y3550D02*
D03*
X6670Y3450D02*
D03*
X3145Y3700D02*
D03*
X3145Y3900D02*
D03*
X3405Y3700D02*
D03*
X3145Y3800D02*
D03*
X3405Y3900D02*
D03*
D20*
X4275Y2125D02*
D03*
Y1975D02*
D03*
X9800Y3125D02*
D03*
Y3275D02*
D03*
X9275Y3125D02*
D03*
Y3275D02*
D03*
X4875Y2725D02*
D03*
Y2875D02*
D03*
X2500Y1975D02*
D03*
Y2125D02*
D03*
Y2625D02*
D03*
Y2775D02*
D03*
X3100Y2625D02*
D03*
Y2775D02*
D03*
X1325Y4925D02*
D03*
Y4775D02*
D03*
X3750Y6250D02*
D03*
Y6400D02*
D03*
X3500D02*
D03*
Y6250D02*
D03*
D21*
X4050Y2475D02*
D03*
X3900D02*
D03*
X10375Y2900D02*
D03*
X10225D02*
D03*
X10050Y2775D02*
D03*
X9900D02*
D03*
X9825Y3400D02*
D03*
X9975D02*
D03*
X9425Y2975D02*
D03*
X9575D02*
D03*
X6825Y3300D02*
D03*
X6675D02*
D03*
D22*
X10725Y1970D02*
D03*
Y2025D02*
D03*
Y2125D02*
D03*
Y2275D02*
D03*
Y2375D02*
D03*
Y2430D02*
D03*
Y2460D02*
D03*
Y2325D02*
D03*
Y2225D02*
D03*
Y2175D02*
D03*
Y2075D02*
D03*
Y1940D02*
D03*
Y1890D02*
D03*
Y2540D02*
D03*
Y2510D02*
D03*
Y1860D02*
D03*
D23*
X11233Y2708D02*
D03*
Y1692D02*
D03*
D24*
X10815D02*
D03*
Y2708D02*
D03*
D25*
X10270Y2450D02*
D03*
X10430D02*
D03*
X6455Y3575D02*
D03*
X6295D02*
D03*
D26*
X9774Y2100D02*
D03*
Y2250D02*
D03*
Y2300D02*
D03*
X10176D02*
D03*
Y2250D02*
D03*
Y2150D02*
D03*
Y2100D02*
D03*
Y2200D02*
D03*
X9774D02*
D03*
Y2150D02*
D03*
D27*
X9793Y1950D02*
D03*
X9657D02*
D03*
X8393Y6275D02*
D03*
X8257D02*
D03*
X6582Y5950D02*
D03*
X6718D02*
D03*
X6443D02*
D03*
X6308D02*
D03*
X8693Y6275D02*
D03*
X8557D02*
D03*
D28*
X9625Y2445D02*
D03*
Y2605D02*
D03*
X9975Y3255D02*
D03*
Y3095D02*
D03*
X6950Y3895D02*
D03*
Y4055D02*
D03*
X3550Y3745D02*
D03*
Y3905D02*
D03*
X2925Y3720D02*
D03*
Y3880D02*
D03*
D29*
X10175Y3305D02*
D03*
X10375Y3305D02*
D03*
Y3045D02*
D03*
X10175Y3045D02*
D03*
X10275Y3305D02*
D03*
D30*
X9435Y3125D02*
D03*
X9530Y3365D02*
D03*
X9625Y3125D02*
D03*
X2380Y3205D02*
D03*
X2570D02*
D03*
X2475Y3445D02*
D03*
D31*
X9150Y3786D02*
D03*
Y3913D02*
D03*
Y4675D02*
D03*
Y5792D02*
D03*
Y6046D02*
D03*
X7550Y3913D02*
D03*
Y4040D02*
D03*
Y4167D02*
D03*
Y6046D02*
D03*
Y5919D02*
D03*
Y5792D02*
D03*
Y4675D02*
D03*
Y4548D02*
D03*
Y3786D02*
D03*
X9150Y5919D02*
D03*
Y4167D02*
D03*
Y4040D02*
D03*
X7550Y4421D02*
D03*
Y4294D02*
D03*
X9150Y4421D02*
D03*
Y4548D02*
D03*
Y4294D02*
D03*
D32*
X3750Y3758D02*
D03*
Y3892D02*
D03*
X1325Y5610D02*
D03*
Y5475D02*
D03*
X2375Y6042D02*
D03*
Y5908D02*
D03*
X6725Y3883D02*
D03*
Y4017D02*
D03*
X7325Y3783D02*
D03*
Y3917D02*
D03*
D33*
X2692Y3750D02*
D03*
X2258D02*
D03*
D34*
X1752Y4775D02*
D03*
X1625Y5461D02*
D03*
X1879Y4775D02*
D03*
Y5461D02*
D03*
X1625Y4775D02*
D03*
X1498Y5461D02*
D03*
Y4775D02*
D03*
X1752Y5461D02*
D03*
D35*
X4950Y4100D02*
D03*
Y4300D02*
D03*
Y4900D02*
D03*
Y5500D02*
D03*
X6450D02*
D03*
Y3900D02*
D03*
Y4100D02*
D03*
Y5300D02*
D03*
X4950D02*
D03*
Y5100D02*
D03*
Y3900D02*
D03*
X6450Y4500D02*
D03*
Y4300D02*
D03*
X4950Y4700D02*
D03*
Y4500D02*
D03*
X6450Y4900D02*
D03*
Y5100D02*
D03*
Y4700D02*
D03*
D36*
X2490Y5650D02*
D03*
X2363D02*
D03*
X2236Y4250D02*
D03*
X2363D02*
D03*
X2236Y5650D02*
D03*
X3252D02*
D03*
X2998D02*
D03*
X2871D02*
D03*
X2744D02*
D03*
X2617D02*
D03*
X2490Y4250D02*
D03*
X2617D02*
D03*
X2744D02*
D03*
X2871D02*
D03*
X2998D02*
D03*
X3125D02*
D03*
X3379D02*
D03*
X3506D02*
D03*
X3760D02*
D03*
X3887D02*
D03*
X4014D02*
D03*
X3252D02*
D03*
X3887Y5650D02*
D03*
X3125D02*
D03*
X3633D02*
D03*
X3379D02*
D03*
X3760D02*
D03*
X4014D02*
D03*
X3506D02*
D03*
X3633Y4250D02*
D03*
D42*
X3000Y6000D02*
D03*
D43*
X3762D02*
D03*
X3254D02*
D03*
X3508D02*
D03*
X1625Y4233D02*
D03*
Y3725D02*
D03*
Y3471D02*
D03*
Y3979D02*
D03*
D44*
X8571Y1375D02*
D03*
D45*
X8825D02*
D03*
D46*
X11235Y2640D02*
D03*
X10815D02*
D03*
X11235Y1760D02*
D03*
X10815D02*
D03*
D48*
X3400Y2623D02*
D03*
X4600D02*
D03*
X2200D02*
D03*
D49*
X3400Y2877D02*
D03*
X4600D02*
D03*
X3400Y2250D02*
D03*
X3150Y800D02*
D03*
Y2250D02*
D03*
X3650Y800D02*
D03*
Y2250D02*
D03*
X2200Y2877D02*
D03*
D51*
X2850Y1500D02*
D03*
X3950D02*
D03*
D52*
X1625Y3217D02*
D03*
D53*
X9750Y6300D02*
D03*
X1750D02*
D03*
X9750Y700D02*
D03*
X1750D02*
D03*
X10750Y3500D02*
D03*
X750D02*
D03*
X5750Y6300D02*
D03*
Y700D02*
D03*
D54*
X9374Y5954D02*
G03*
X9350Y6250I-187J134D01*
G01*
X9350Y6250D02*
G03*
X9290Y6275I-60J-60D01*
G01*
X2508Y6383D02*
G03*
X2509Y6391I-80J8D01*
G01*
X2507Y6372D02*
G03*
X2508Y6383I-415J54D01*
G01*
X2509Y6391D02*
G03*
X2509Y6392I-80J0D01*
G01*
X2390Y6133D02*
G03*
X2507Y6372I-298J294D01*
G01*
X2509Y6392D02*
G03*
X2508Y6400I-80J-1D01*
G01*
X2390Y6133D02*
G03*
X2375Y6043I57J-56D01*
G01*
X7925Y5500D02*
G03*
X8257Y5833I0J333D01*
G01*
X5225Y5950D02*
G03*
X4950Y5675I0J-275D01*
G01*
X2363Y5650D02*
Y5896D01*
X6739Y5919D02*
X7550D01*
X6718Y5940D02*
X6739Y5919D01*
X6718Y5940D02*
Y5950D01*
X9369Y5948D02*
X9374Y5954D01*
X9346Y5925D02*
X9369Y5948D01*
X9150Y5919D02*
X9210Y5925D01*
X8693Y6275D02*
X9290Y6275D01*
X9210Y5925D02*
X9346D01*
X2489Y6572D02*
X2508Y6400D01*
X2489Y6572D02*
X2500Y6723D01*
X2375Y6043D02*
X2375Y6042D01*
X8393Y6275D02*
X8557D01*
X6450Y5500D02*
X7925D01*
X8257Y5833D02*
Y6275D01*
X4950Y5500D02*
Y5675D01*
X5225Y5950D02*
X6308D01*
X6500D02*
X6582D01*
X6443D02*
X6500D01*
Y6723D01*
X8575Y6312D02*
Y6723D01*
D55*
X9369Y5948D02*
D03*
X2508Y6400D02*
D03*
D56*
X7875Y2075D02*
X8525Y1425D01*
X6025Y2075D02*
X7875D01*
X10047Y3305D02*
X10175D01*
X3500Y6400D02*
X3750D01*
X3375D02*
X3500D01*
X3254Y6279D02*
X3375Y6400D01*
X3254Y6000D02*
Y6279D01*
X1339Y5461D02*
X1498D01*
X2170Y3995D02*
X3390D01*
X1925Y3750D02*
X2170Y3995D01*
X1625Y3217D02*
X1792D01*
X1925Y3350D01*
Y3750D01*
X3390Y3995D02*
X3405Y3980D01*
Y3900D02*
Y3980D01*
X1625Y2750D02*
Y3217D01*
X1425Y3225D02*
X1617D01*
X1175Y3475D02*
X1425Y3225D01*
X1175Y3475D02*
Y4900D01*
X1200Y4925D01*
X1325D01*
Y5475D01*
X3405Y3900D02*
X3733D01*
X3760Y3892D02*
Y4250D01*
X8900Y2925D02*
X9050Y2775D01*
X5900Y2925D02*
X8900D01*
X3142Y3703D02*
X3145Y3700D01*
X3050Y3725D02*
X3075D01*
X3050D02*
X3050D01*
X3075D02*
X3098Y3703D01*
X3000Y3725D02*
X3050D01*
X3098Y3703D02*
X3142D01*
X3050Y3550D02*
Y3700D01*
X3050Y3700D01*
X2692Y3550D02*
X3050D01*
X3140D01*
X2470Y3030D02*
X4425D01*
X2380Y3120D02*
X2470Y3030D01*
X2538Y3100D02*
X5000D01*
X2475Y3163D02*
X2538Y3100D01*
X2475Y3163D02*
Y3445D01*
X2258Y3267D02*
X2320Y3205D01*
X2258Y3267D02*
Y3750D01*
X2320Y3205D02*
X2380D01*
X3050Y3728D02*
Y3885D01*
X3065Y3900D01*
X3134D01*
X10053Y2652D02*
Y2975D01*
X2380Y3120D02*
Y3205D01*
X2570Y3428D02*
X2692Y3550D01*
X2570Y3205D02*
Y3428D01*
X6441Y3534D02*
X6557Y3650D01*
X5000Y3100D02*
X6025Y2075D01*
X3150Y3550D02*
X4800D01*
X10053Y2975D02*
X10120D01*
X10175Y3030D01*
X9650Y2775D02*
X9850Y2975D01*
X10053D01*
X9625Y2250D02*
Y2445D01*
X9050Y2775D02*
X9650D01*
X9997Y3255D02*
X10047Y3305D01*
X9975Y3255D02*
Y3400D01*
X2692Y3550D02*
Y3750D01*
X10425Y2650D02*
X10626Y2449D01*
X10156Y2650D02*
X10425D01*
X10156Y2456D02*
Y2650D01*
X10162Y2450D02*
X10270D01*
X10055D02*
X10162D01*
X10055Y2650D02*
X10156D01*
X9625Y2150D02*
X9675Y2100D01*
X9625Y2150D02*
Y2250D01*
X9645Y2450D02*
X9795D01*
X6968Y3913D02*
X7550D01*
X6557Y3650D02*
X6670D01*
X6930D02*
Y3875D01*
X6725Y3883D02*
X6938D01*
X6450Y3900D02*
X6707D01*
D57*
X9150Y5775D02*
D03*
D58*
X9143Y6064D02*
D03*
D59*
X7550Y5775D02*
D03*
D60*
Y6070D02*
D03*
D61*
X6450Y5288D02*
D03*
D62*
X4950Y5200D02*
D03*
D63*
X2488Y5650D02*
D03*
D64*
X2221D02*
D03*
D65*
X10869Y2489D02*
D03*
Y1911D02*
D03*
D66*
X4285Y1250D02*
D03*
X4910D02*
D03*
Y1750D02*
D03*
X4285D02*
D03*
X3085Y1250D02*
D03*
X3710D02*
D03*
Y1750D02*
D03*
X3085D02*
D03*
X1885Y1250D02*
D03*
X2510D02*
D03*
Y1750D02*
D03*
X1885D02*
D03*
D67*
X11036Y5332D02*
D03*
X11286Y4832D02*
D03*
X11036Y4332D02*
D03*
X11286Y3832D02*
D03*
X11036Y3332D02*
D03*
Y2332D02*
D03*
Y1332D02*
D03*
X10536Y5332D02*
D03*
X10786Y4832D02*
D03*
X10536Y4332D02*
D03*
X10786Y3832D02*
D03*
X10536Y3332D02*
D03*
Y2332D02*
D03*
Y1332D02*
D03*
X10036Y6332D02*
D03*
Y5332D02*
D03*
X10286Y4832D02*
D03*
X10036Y4332D02*
D03*
X10286Y3832D02*
D03*
X10036Y2332D02*
D03*
X10286Y1832D02*
D03*
X10036Y1332D02*
D03*
Y332D02*
D03*
X9786Y5832D02*
D03*
X9536Y5332D02*
D03*
X9786Y4832D02*
D03*
X9536Y4332D02*
D03*
X9786Y3832D02*
D03*
X9536Y2332D02*
D03*
Y1332D02*
D03*
Y332D02*
D03*
X9036Y5332D02*
D03*
X9286Y4832D02*
D03*
Y1832D02*
D03*
X9036Y1332D02*
D03*
X9286Y832D02*
D03*
X9036Y332D02*
D03*
X8786Y5832D02*
D03*
X8536Y5332D02*
D03*
Y4332D02*
D03*
X8786Y3832D02*
D03*
Y2832D02*
D03*
Y832D02*
D03*
X8536Y332D02*
D03*
X8036Y6332D02*
D03*
Y4332D02*
D03*
X8286Y3832D02*
D03*
Y2832D02*
D03*
Y1832D02*
D03*
X8036Y1332D02*
D03*
X8286Y832D02*
D03*
X8036Y332D02*
D03*
X7536Y6332D02*
D03*
X7786Y3832D02*
D03*
Y2832D02*
D03*
Y1832D02*
D03*
X7536Y1332D02*
D03*
X7786Y832D02*
D03*
X7536Y332D02*
D03*
X7036Y6332D02*
D03*
Y3332D02*
D03*
X7286Y2832D02*
D03*
Y1832D02*
D03*
X7036Y1332D02*
D03*
X7286Y832D02*
D03*
X7036Y332D02*
D03*
X6536Y3332D02*
D03*
X6786Y2832D02*
D03*
Y1832D02*
D03*
X6536Y1332D02*
D03*
X6786Y832D02*
D03*
X6536Y332D02*
D03*
X6036Y6332D02*
D03*
Y5332D02*
D03*
Y3332D02*
D03*
X6286Y2832D02*
D03*
X6036Y2332D02*
D03*
X6286Y1832D02*
D03*
X6036Y1332D02*
D03*
X6286Y832D02*
D03*
X6036Y332D02*
D03*
X5536Y5332D02*
D03*
Y4332D02*
D03*
X5786Y3832D02*
D03*
X5536Y3332D02*
D03*
Y2332D02*
D03*
X5786Y1832D02*
D03*
X5536Y1332D02*
D03*
Y332D02*
D03*
X5036Y6332D02*
D03*
X5286Y4832D02*
D03*
Y3832D02*
D03*
X5036Y3332D02*
D03*
Y2332D02*
D03*
X5286Y1832D02*
D03*
Y832D02*
D03*
X5036Y332D02*
D03*
X4536Y6332D02*
D03*
X4786Y5832D02*
D03*
X4536Y3332D02*
D03*
Y2332D02*
D03*
X4786Y1832D02*
D03*
X4536Y1332D02*
D03*
X4786Y832D02*
D03*
X4536Y332D02*
D03*
X4036Y6332D02*
D03*
X4286Y5832D02*
D03*
X4036Y3332D02*
D03*
X4286Y2832D02*
D03*
Y832D02*
D03*
X4036Y332D02*
D03*
X3536Y3332D02*
D03*
Y2332D02*
D03*
Y1332D02*
D03*
X3786Y832D02*
D03*
X3536Y332D02*
D03*
X3036Y6332D02*
D03*
X3286Y5832D02*
D03*
X3036Y2332D02*
D03*
X3286Y1832D02*
D03*
Y832D02*
D03*
X3036Y332D02*
D03*
X2786Y5832D02*
D03*
Y4832D02*
D03*
Y2832D02*
D03*
Y832D02*
D03*
X2536Y332D02*
D03*
X2036Y6332D02*
D03*
Y5332D02*
D03*
X2286Y4832D02*
D03*
X2036Y3332D02*
D03*
X2286Y1832D02*
D03*
X2036Y1332D02*
D03*
X2286Y832D02*
D03*
X2036Y332D02*
D03*
X1786Y2832D02*
D03*
X1536Y2332D02*
D03*
Y1332D02*
D03*
Y332D02*
D03*
X1286Y5832D02*
D03*
X1036Y5332D02*
D03*
Y4332D02*
D03*
X1286Y3832D02*
D03*
X1036Y3332D02*
D03*
X1286Y2832D02*
D03*
X1036Y2332D02*
D03*
X1286Y1832D02*
D03*
X1036Y1332D02*
D03*
X1286Y832D02*
D03*
X536Y5332D02*
D03*
X786Y4832D02*
D03*
X536Y4332D02*
D03*
X786Y3832D02*
D03*
X536Y3332D02*
D03*
X786Y2832D02*
D03*
X536Y2332D02*
D03*
X786Y1832D02*
D03*
X536Y1332D02*
D03*
X8791Y6154D02*
D03*
X8901Y6154D02*
D03*
X9011Y6154D02*
D03*
X9121Y6154D02*
D03*
X9231Y6154D02*
D03*
X9293Y6063D02*
D03*
X8980Y5991D02*
D03*
X8970Y5882D02*
D03*
X9367Y5806D02*
D03*
X9459Y5866D02*
D03*
X9514Y5961D02*
D03*
X9538Y6069D02*
D03*
X9526Y6178D02*
D03*
X9482Y6278D02*
D03*
X9407Y6359D02*
D03*
X9303Y6396D02*
D03*
X9193Y6396D02*
D03*
X9083Y6396D02*
D03*
X8973Y6396D02*
D03*
X8863Y6396D02*
D03*
X8454Y6485D02*
D03*
X8544Y6144D02*
D03*
X8652Y6166D02*
D03*
X8696Y6380D02*
D03*
Y6490D02*
D03*
X8205Y6404D02*
D03*
X8137Y6318D02*
D03*
X8136Y6208D02*
D03*
Y6098D02*
D03*
Y5988D02*
D03*
Y5878D02*
D03*
X8126Y5768D02*
D03*
X8066Y5676D02*
D03*
X7968Y5626D02*
D03*
X7858Y5621D02*
D03*
X7748D02*
D03*
X7638D02*
D03*
X7528D02*
D03*
X7418D02*
D03*
X7308D02*
D03*
X7198D02*
D03*
X7088D02*
D03*
X6978D02*
D03*
X6868D02*
D03*
X6758D02*
D03*
X6648Y5624D02*
D03*
X6540Y5641D02*
D03*
X6430D02*
D03*
X6320D02*
D03*
X6224Y5586D02*
D03*
X6219Y5476D02*
D03*
X6256Y5373D02*
D03*
X6694Y5379D02*
D03*
X6804D02*
D03*
X6914D02*
D03*
X7024D02*
D03*
X7134D02*
D03*
X7244D02*
D03*
X7354D02*
D03*
X7464D02*
D03*
X7574D02*
D03*
X7684D02*
D03*
X7794D02*
D03*
X7904D02*
D03*
X8014Y5388D02*
D03*
X8118Y5422D02*
D03*
X8211Y5481D02*
D03*
X8288Y5560D02*
D03*
X8342Y5655D02*
D03*
X8373Y5761D02*
D03*
X8379Y5871D02*
D03*
Y5981D02*
D03*
Y6091D02*
D03*
X8318Y6403D02*
D03*
X6379Y6477D02*
D03*
Y6367D02*
D03*
Y6257D02*
D03*
Y6147D02*
D03*
X6468Y5819D02*
D03*
X6578D02*
D03*
X6673Y6062D02*
D03*
X6621Y6160D02*
D03*
Y6270D02*
D03*
Y6380D02*
D03*
Y6490D02*
D03*
X6652Y5824D02*
D03*
X6759Y5798D02*
D03*
X6869D02*
D03*
X6979D02*
D03*
X7089D02*
D03*
X7199D02*
D03*
X7309D02*
D03*
X7419D02*
D03*
X7725Y5858D02*
D03*
X7728Y5968D02*
D03*
X7322Y6040D02*
D03*
X7212D02*
D03*
X7102D02*
D03*
X6992D02*
D03*
X6882D02*
D03*
X6778Y6078D02*
D03*
X6227Y6071D02*
D03*
X6117D02*
D03*
X6007D02*
D03*
X5897D02*
D03*
X5567D02*
D03*
X5457D02*
D03*
X5347D02*
D03*
X5237D02*
D03*
X5128Y6059D02*
D03*
X5026Y6017D02*
D03*
X4939Y5950D02*
D03*
X4875Y5861D02*
D03*
X4838Y5757D02*
D03*
X4829Y5648D02*
D03*
X4730Y5599D02*
D03*
X4719Y5490D02*
D03*
X5181Y5513D02*
D03*
X5153Y5620D02*
D03*
X5073Y5696D02*
D03*
X5126Y5792D02*
D03*
X5230Y5829D02*
D03*
X5340D02*
D03*
X5450D02*
D03*
X5560D02*
D03*
X5670D02*
D03*
X5780D02*
D03*
X5890D02*
D03*
X6000D02*
D03*
X6110D02*
D03*
X6220D02*
D03*
X6330Y5819D02*
D03*
X6368Y6078D02*
D03*
X2382Y6437D02*
D03*
X2372Y6328D02*
D03*
X2317Y6233D02*
D03*
X2257Y6140D02*
D03*
X2244Y6031D02*
D03*
X2498Y5970D02*
D03*
X2609Y6272D02*
D03*
X2630Y6380D02*
D03*
X2621Y6490D02*
D03*
X1750Y5650D02*
D03*
X4520Y5444D02*
D03*
X5350Y5375D02*
D03*
X3975Y5525D02*
D03*
X4575Y5025D02*
D03*
X5875Y5100D02*
D03*
X2974Y4477D02*
D03*
X2355Y4405D02*
D03*
X3225Y5050D02*
D03*
X3000Y4950D02*
D03*
X4520Y5194D02*
D03*
X5675Y5150D02*
D03*
X3605Y5055D02*
D03*
X3800Y2475D02*
D03*
X1331Y5368D02*
D03*
X3295Y4969D02*
D03*
X2455Y4405D02*
D03*
X3105Y2905D02*
D03*
X2950Y4875D02*
D03*
X2505Y2880D02*
D03*
X2255Y4405D02*
D03*
X4720Y4494D02*
D03*
X4725Y4850D02*
D03*
X6200Y4125D02*
D03*
X6800D02*
D03*
X3034Y4616D02*
D03*
X6200Y4225D02*
D03*
X6800D02*
D03*
X3713Y4522D02*
D03*
X5900Y3125D02*
D03*
X5200Y5350D02*
D03*
X4525D02*
D03*
X2325Y5325D02*
D03*
X3882Y5505D02*
D03*
X5250Y3650D02*
D03*
X3725Y4650D02*
D03*
X2375Y5425D02*
D03*
X4520Y5269D02*
D03*
X5325Y5275D02*
D03*
X3770Y5519D02*
D03*
X3710Y4444D02*
D03*
X5900Y3025D02*
D03*
Y2925D02*
D03*
X4425Y3030D02*
D03*
X3282Y3786D02*
D03*
X2082Y3611D02*
D03*
X3425Y4075D02*
D03*
X6995Y4192D02*
D03*
X10275Y3135D02*
D03*
X10081Y3318D02*
D03*
X5075Y2725D02*
D03*
X7438Y3222D02*
D03*
X6555Y3630D02*
D03*
X4805Y3555D02*
D03*
X10500Y2250D02*
D03*
X10500Y2100D02*
D03*
M02*
