G04*
G04 #@! TF.GenerationSoftware,Altium Limited,Altium Designer,26.6.0 (10)*
G04*
G04 Layer_Physical_Order=2*
G04 Layer_Color=16711680*
G04 Board_Origin=25492126|14370078*
%FSLAX42Y42*%
%MOMM*%
G71*
G04*
G04 #@! TF.SameCoordinates,F1AEA7B7-EF65-44AA-83E2-7B156C2E8358*
G04*
G04*
G04 #@! TF.FilePolarity,Positive*
G04*
G01*
G75*
%ADD10C,0.25*%
%ADD18R,1.60X4.90*%
%ADD42R,1.71X1.71*%
%ADD43C,1.71*%
%ADD44R,1.45X1.45*%
%ADD45C,1.45*%
%ADD46O,1.80X1.00*%
%ADD48R,1.60X1.60*%
%ADD49C,1.60*%
%ADD51C,3.20*%
%ADD52R,1.71X1.71*%
%ADD53C,4.00*%
%ADD56C,0.50*%
%ADD65C,0.75*%
%ADD66C,2.00*%
%ADD67C,0.60*%
G36*
X2141Y6972D02*
Y6730D01*
X2246D01*
X2351D01*
Y6972D01*
X2649D01*
Y6730D01*
X2754D01*
X2859D01*
Y6972D01*
X6141Y6972D01*
Y6730D01*
X6246D01*
X6351D01*
Y6972D01*
X6649Y6972D01*
Y6730D01*
X6754D01*
X6859D01*
Y6972D01*
X8216Y6972D01*
Y6730D01*
X8321D01*
X8426D01*
Y6972D01*
X8724D01*
Y6730D01*
X8829D01*
X8934D01*
Y6972D01*
X10272Y6972D01*
Y5800D01*
X10274Y5789D01*
X10280Y5780D01*
X10289Y5774D01*
X10300Y5772D01*
X11472D01*
Y1228D01*
X10300D01*
X10289Y1226D01*
X10280Y1220D01*
X10274Y1211D01*
X10272Y1200D01*
Y28D01*
X1228Y28D01*
Y1200D01*
X1226Y1211D01*
X1220Y1220D01*
X1211Y1226D01*
X1200Y1228D01*
X28D01*
Y5772D01*
X1200D01*
X1211Y5774D01*
X1220Y5780D01*
X1226Y5789D01*
X1228Y5800D01*
Y6972D01*
X2141Y6972D01*
D02*
G37*
%LPC*%
G36*
X8934Y6705D02*
X8842D01*
Y6447D01*
X8934D01*
Y6705D01*
D02*
G37*
G36*
X8816D02*
X8724D01*
Y6447D01*
X8816D01*
Y6705D01*
D02*
G37*
G36*
X8426D02*
X8334D01*
Y6447D01*
X8426D01*
Y6705D01*
D02*
G37*
G36*
X8308D02*
X8216D01*
Y6447D01*
X8308D01*
Y6705D01*
D02*
G37*
G36*
X6859D02*
X6767D01*
Y6447D01*
X6859D01*
Y6705D01*
D02*
G37*
G36*
X6741D02*
X6649D01*
Y6447D01*
X6741D01*
Y6705D01*
D02*
G37*
G36*
X6351D02*
X6259D01*
Y6447D01*
X6351D01*
Y6705D01*
D02*
G37*
G36*
X6233D02*
X6141D01*
Y6447D01*
X6233D01*
Y6705D01*
D02*
G37*
G36*
X2859Y6705D02*
X2767D01*
Y6447D01*
X2859D01*
Y6705D01*
D02*
G37*
G36*
X2741D02*
X2649D01*
Y6447D01*
X2741D01*
Y6705D01*
D02*
G37*
G36*
X2351D02*
X2259D01*
Y6447D01*
X2351D01*
Y6705D01*
D02*
G37*
G36*
X2233D02*
X2141D01*
Y6447D01*
X2233D01*
Y6705D01*
D02*
G37*
G36*
X5772Y6525D02*
X5763D01*
Y6313D01*
X5975D01*
Y6322D01*
X5967Y6366D01*
X5950Y6407D01*
X5925Y6444D01*
X5894Y6475D01*
X5857Y6500D01*
X5816Y6517D01*
X5772Y6525D01*
D02*
G37*
G36*
X5737D02*
X5728D01*
X5684Y6517D01*
X5643Y6500D01*
X5606Y6475D01*
X5575Y6444D01*
X5550Y6407D01*
X5533Y6366D01*
X5525Y6322D01*
Y6313D01*
X5737D01*
Y6525D01*
D02*
G37*
G36*
X9772D02*
X9763D01*
Y6313D01*
X9975D01*
Y6322D01*
X9967Y6366D01*
X9950Y6407D01*
X9925Y6444D01*
X9894Y6475D01*
X9857Y6500D01*
X9816Y6517D01*
X9772Y6525D01*
D02*
G37*
G36*
X1772D02*
X1763D01*
Y6313D01*
X1975D01*
Y6322D01*
X1967Y6366D01*
X1950Y6407D01*
X1925Y6444D01*
X1894Y6475D01*
X1857Y6500D01*
X1816Y6517D01*
X1772Y6525D01*
D02*
G37*
G36*
X9737D02*
X9728D01*
X9684Y6517D01*
X9643Y6500D01*
X9606Y6475D01*
X9575Y6444D01*
X9550Y6407D01*
X9533Y6366D01*
X9525Y6322D01*
Y6313D01*
X9737D01*
Y6525D01*
D02*
G37*
G36*
X1737D02*
X1728D01*
X1684Y6517D01*
X1643Y6500D01*
X1606Y6475D01*
X1575Y6444D01*
X1550Y6407D01*
X1533Y6366D01*
X1525Y6322D01*
Y6313D01*
X1737D01*
Y6525D01*
D02*
G37*
G36*
X9975Y6287D02*
X9763D01*
Y6075D01*
X9772D01*
X9816Y6083D01*
X9857Y6100D01*
X9894Y6125D01*
X9925Y6156D01*
X9950Y6193D01*
X9967Y6234D01*
X9975Y6278D01*
Y6287D01*
D02*
G37*
G36*
X9737D02*
X9525D01*
Y6278D01*
X9533Y6234D01*
X9550Y6193D01*
X9575Y6156D01*
X9606Y6125D01*
X9643Y6100D01*
X9684Y6083D01*
X9728Y6075D01*
X9737D01*
Y6287D01*
D02*
G37*
G36*
X5975Y6287D02*
X5763D01*
Y6075D01*
X5772D01*
X5816Y6083D01*
X5857Y6100D01*
X5894Y6125D01*
X5925Y6156D01*
X5950Y6193D01*
X5967Y6234D01*
X5975Y6278D01*
Y6287D01*
D02*
G37*
G36*
X5737D02*
X5525D01*
Y6278D01*
X5533Y6234D01*
X5550Y6193D01*
X5575Y6156D01*
X5606Y6125D01*
X5643Y6100D01*
X5684Y6083D01*
X5728Y6075D01*
X5737D01*
Y6287D01*
D02*
G37*
G36*
X1975Y6287D02*
X1763D01*
Y6075D01*
X1772D01*
X1816Y6083D01*
X1857Y6100D01*
X1894Y6125D01*
X1925Y6156D01*
X1950Y6193D01*
X1967Y6234D01*
X1975Y6278D01*
Y6287D01*
D02*
G37*
G36*
X1737D02*
X1525D01*
Y6278D01*
X1533Y6234D01*
X1550Y6193D01*
X1575Y6156D01*
X1606Y6125D01*
X1643Y6100D01*
X1684Y6083D01*
X1728Y6075D01*
X1737D01*
Y6287D01*
D02*
G37*
G36*
X2987Y6111D02*
X2889D01*
Y6013D01*
X2987D01*
Y6111D01*
D02*
G37*
G36*
X3079Y6216D02*
X3079Y6216D01*
X2519D01*
X2504Y6213D01*
X2490Y6204D01*
X2490Y6204D01*
X2102Y5816D01*
X1475D01*
X1475Y5816D01*
X1459Y5813D01*
X1446Y5804D01*
X1446Y5804D01*
X1302Y5660D01*
X1293Y5647D01*
X1290Y5631D01*
X1290Y5631D01*
Y5387D01*
X1286Y5377D01*
Y5359D01*
X1293Y5342D01*
X1305Y5330D01*
X1322Y5323D01*
X1340D01*
X1356Y5330D01*
X1369Y5342D01*
X1376Y5359D01*
Y5377D01*
X1372Y5387D01*
Y5614D01*
X1492Y5734D01*
X2119D01*
X2119Y5734D01*
X2135Y5737D01*
X2148Y5746D01*
X2536Y6134D01*
X3047D01*
X3050Y6131D01*
X3039Y6111D01*
X3013D01*
Y6013D01*
X3111D01*
Y6059D01*
X3129Y6067D01*
X3160Y6037D01*
X3153Y6013D01*
Y5987D01*
X3160Y5961D01*
X3174Y5938D01*
X3192Y5920D01*
X3215Y5906D01*
X3241Y5899D01*
X3267D01*
X3293Y5906D01*
X3316Y5920D01*
X3334Y5938D01*
X3348Y5961D01*
X3354Y5987D01*
Y6013D01*
X3348Y6039D01*
X3334Y6062D01*
X3316Y6080D01*
X3293Y6094D01*
X3267Y6101D01*
X3241D01*
X3217Y6094D01*
X3108Y6204D01*
X3095Y6213D01*
X3092Y6213D01*
X3079Y6216D01*
D02*
G37*
G36*
X3111Y5987D02*
X3013D01*
Y5889D01*
X3111D01*
Y5987D01*
D02*
G37*
G36*
X2987D02*
X2889D01*
Y5889D01*
X2987D01*
Y5987D01*
D02*
G37*
G36*
X3775Y6101D02*
X3749D01*
X3723Y6094D01*
X3700Y6080D01*
X3682Y6062D01*
X3668Y6039D01*
X3662Y6013D01*
Y5987D01*
X3668Y5961D01*
X3682Y5938D01*
X3700Y5920D01*
X3723Y5906D01*
X3749Y5899D01*
X3775D01*
X3801Y5906D01*
X3819Y5917D01*
X3840Y5895D01*
X3830Y5877D01*
X3825Y5878D01*
X3670D01*
X3596Y5952D01*
X3602Y5961D01*
X3608Y5987D01*
Y6013D01*
X3602Y6039D01*
X3588Y6062D01*
X3570Y6080D01*
X3547Y6094D01*
X3521Y6101D01*
X3495D01*
X3469Y6094D01*
X3446Y6080D01*
X3428Y6062D01*
X3414Y6039D01*
X3408Y6013D01*
Y5987D01*
X3414Y5961D01*
X3428Y5938D01*
X3446Y5920D01*
X3469Y5906D01*
X3495Y5899D01*
X3521D01*
X3547Y5906D01*
X3556Y5912D01*
X3638Y5830D01*
X3647Y5824D01*
X3658Y5822D01*
X3813D01*
X4022Y5613D01*
Y5570D01*
X4002Y5562D01*
X4000Y5563D01*
X3984Y5570D01*
X3970D01*
X3944Y5596D01*
X3935Y5602D01*
X3924Y5604D01*
X1835D01*
X1795Y5645D01*
Y5659D01*
X1788Y5675D01*
X1775Y5688D01*
X1759Y5695D01*
X1741D01*
X1725Y5688D01*
X1712Y5675D01*
X1705Y5659D01*
Y5641D01*
X1712Y5625D01*
X1725Y5612D01*
X1741Y5605D01*
X1755D01*
X1804Y5556D01*
X1813Y5550D01*
X1824Y5548D01*
X3712D01*
X3726Y5528D01*
X3725Y5527D01*
Y5513D01*
X3665Y5453D01*
X2411D01*
X2400Y5463D01*
X2384Y5470D01*
X2366D01*
X2350Y5463D01*
X2337Y5450D01*
X2330Y5434D01*
Y5416D01*
X2337Y5400D01*
X2350Y5387D01*
X2366Y5380D01*
X2384D01*
X2400Y5387D01*
X2411Y5397D01*
X3677D01*
X3687Y5399D01*
X3697Y5405D01*
X3765Y5474D01*
X3779D01*
X3785Y5476D01*
X3796Y5459D01*
X3690Y5353D01*
X2361D01*
X2350Y5363D01*
X2334Y5370D01*
X2316D01*
X2300Y5363D01*
X2287Y5350D01*
X2280Y5334D01*
Y5316D01*
X2287Y5300D01*
X2300Y5287D01*
X2316Y5280D01*
X2334D01*
X2350Y5287D01*
X2361Y5297D01*
X3418D01*
X3420Y5277D01*
X3414Y5276D01*
X3405Y5270D01*
X3230Y5095D01*
X3216D01*
X3200Y5088D01*
X3187Y5075D01*
X3180Y5059D01*
Y5041D01*
X3187Y5025D01*
X3200Y5012D01*
X3216Y5005D01*
X3234D01*
X3244Y5009D01*
X3254Y4997D01*
X3257Y4993D01*
X3250Y4977D01*
Y4960D01*
X3257Y4943D01*
X3270Y4930D01*
X3286Y4924D01*
X3304D01*
X3321Y4930D01*
X3333Y4943D01*
X3340Y4960D01*
Y4974D01*
X3513Y5147D01*
X3950D01*
X3961Y5149D01*
X3970Y5155D01*
X4120Y5305D01*
X4126Y5314D01*
X4128Y5325D01*
Y5675D01*
X4126Y5686D01*
X4120Y5695D01*
X3855Y5960D01*
X3856Y5961D01*
X3862Y5987D01*
Y6013D01*
X3856Y6039D01*
X3842Y6062D01*
X3824Y6080D01*
X3801Y6094D01*
X3775Y6101D01*
D02*
G37*
G36*
X4529Y5489D02*
X4511D01*
X4495Y5482D01*
X4482Y5469D01*
X4475Y5452D01*
Y5435D01*
X4482Y5418D01*
X4493Y5407D01*
X4495Y5402D01*
X4495Y5384D01*
X4487Y5375D01*
X4480Y5359D01*
Y5341D01*
X4487Y5325D01*
X4495Y5307D01*
X4487Y5299D01*
X4482Y5294D01*
X4475Y5277D01*
Y5260D01*
X4482Y5243D01*
X4494Y5231D01*
X4482Y5219D01*
X4475Y5202D01*
Y5185D01*
X4482Y5168D01*
X4495Y5155D01*
X4511Y5149D01*
X4529D01*
X4546Y5155D01*
X4556Y5165D01*
X5611D01*
X5630Y5146D01*
Y5141D01*
X5637Y5125D01*
X5650Y5112D01*
X5666Y5105D01*
X5684D01*
X5700Y5112D01*
X5713Y5125D01*
X5720Y5141D01*
Y5159D01*
X5713Y5175D01*
X5700Y5188D01*
X5684Y5195D01*
X5666D01*
X5662Y5193D01*
X5642Y5213D01*
X5633Y5219D01*
X5622Y5222D01*
X5362D01*
X5355Y5242D01*
X5363Y5250D01*
X5370Y5266D01*
Y5284D01*
X5363Y5300D01*
X5354Y5310D01*
X5357Y5326D01*
X5360Y5330D01*
X5375Y5337D01*
X5388Y5350D01*
X5395Y5366D01*
Y5384D01*
X5388Y5400D01*
X5375Y5413D01*
X5359Y5420D01*
X5341D01*
X5339Y5419D01*
X5330Y5427D01*
X5321Y5433D01*
X5310Y5436D01*
X4654D01*
X4626Y5463D01*
X4617Y5469D01*
X4606Y5472D01*
X4556D01*
X4546Y5482D01*
X4529Y5489D01*
D02*
G37*
G36*
X5884Y5145D02*
X5866D01*
X5850Y5138D01*
X5841Y5129D01*
X5794D01*
X5783Y5127D01*
X5774Y5121D01*
X5706Y5053D01*
X4611D01*
X4600Y5063D01*
X4584Y5070D01*
X4566D01*
X4550Y5063D01*
X4537Y5050D01*
X4530Y5034D01*
Y5016D01*
X4537Y5000D01*
X4550Y4987D01*
X4566Y4980D01*
X4584D01*
X4600Y4987D01*
X4611Y4997D01*
X5718D01*
X5729Y4999D01*
X5738Y5005D01*
X5806Y5073D01*
X5838D01*
X5850Y5062D01*
X5866Y5055D01*
X5884D01*
X5900Y5062D01*
X5913Y5075D01*
X5920Y5091D01*
Y5109D01*
X5913Y5125D01*
X5900Y5138D01*
X5884Y5145D01*
D02*
G37*
G36*
X3613Y5100D02*
X3596D01*
X3579Y5093D01*
X3566Y5081D01*
X3560Y5064D01*
Y5046D01*
X3566Y5030D01*
X3576Y5019D01*
Y4749D01*
X3558Y4742D01*
X3430Y4870D01*
X3421Y4876D01*
X3410Y4878D01*
X3112D01*
X3045Y4945D01*
Y4959D01*
X3038Y4975D01*
X3025Y4988D01*
X3009Y4995D01*
X2991D01*
X2975Y4988D01*
X2962Y4975D01*
X2955Y4959D01*
Y4941D01*
X2955Y4940D01*
X2942Y4920D01*
X2941D01*
X2925Y4913D01*
X2912Y4900D01*
X2905Y4884D01*
Y4866D01*
X2912Y4850D01*
X2925Y4837D01*
X2941Y4830D01*
X2955D01*
X3134Y4651D01*
Y4583D01*
X3114Y4575D01*
X3079Y4610D01*
Y4625D01*
X3072Y4641D01*
X3060Y4654D01*
X3043Y4661D01*
X3025D01*
X3009Y4654D01*
X2996Y4641D01*
X2989Y4625D01*
Y4607D01*
X2996Y4590D01*
X3009Y4578D01*
X3025Y4571D01*
X3040D01*
X3072Y4538D01*
Y4462D01*
X3038Y4428D01*
X3018D01*
X3009Y4448D01*
X3012Y4451D01*
X3019Y4468D01*
Y4486D01*
X3012Y4502D01*
X3000Y4515D01*
X2983Y4522D01*
X2969D01*
X2921Y4570D01*
X2912Y4576D01*
X2901Y4578D01*
X2150D01*
X2139Y4576D01*
X2130Y4570D01*
X1749Y4188D01*
X1731Y4199D01*
X1736Y4218D01*
Y4220D01*
X1638D01*
Y4122D01*
X1640D01*
X1659Y4127D01*
X1670Y4109D01*
X1644Y4084D01*
X1641Y4079D01*
X1638Y4079D01*
X1612D01*
X1586Y4073D01*
X1563Y4059D01*
X1545Y4041D01*
X1531Y4018D01*
X1524Y3992D01*
Y3966D01*
X1531Y3940D01*
X1545Y3917D01*
X1563Y3899D01*
X1586Y3885D01*
X1612Y3878D01*
X1638D01*
X1664Y3885D01*
X1687Y3899D01*
X1705Y3917D01*
X1719Y3940D01*
X1725Y3966D01*
Y3992D01*
X1719Y4018D01*
X1705Y4041D01*
X1693Y4053D01*
X1727Y4087D01*
X1747Y4079D01*
Y3887D01*
X1673Y3813D01*
X1664Y3819D01*
X1638Y3826D01*
X1612D01*
X1586Y3819D01*
X1563Y3805D01*
X1545Y3787D01*
X1531Y3764D01*
X1524Y3738D01*
Y3712D01*
X1531Y3686D01*
X1545Y3663D01*
X1563Y3645D01*
X1586Y3631D01*
X1612Y3624D01*
X1638D01*
X1664Y3631D01*
X1687Y3645D01*
X1705Y3663D01*
X1719Y3686D01*
X1725Y3712D01*
Y3738D01*
X1719Y3764D01*
X1713Y3773D01*
X1777Y3837D01*
X1797Y3829D01*
Y3587D01*
X1734Y3523D01*
X1709Y3527D01*
X1705Y3533D01*
X1687Y3551D01*
X1664Y3565D01*
X1638Y3572D01*
X1612D01*
X1586Y3565D01*
X1563Y3551D01*
X1545Y3533D01*
X1531Y3510D01*
X1524Y3484D01*
Y3458D01*
X1531Y3432D01*
X1545Y3409D01*
X1563Y3391D01*
X1586Y3377D01*
X1612Y3371D01*
X1638D01*
X1664Y3377D01*
X1687Y3391D01*
X1705Y3409D01*
X1719Y3432D01*
X1725Y3456D01*
X1734D01*
X1744Y3458D01*
X1754Y3464D01*
X1845Y3555D01*
X1851Y3564D01*
X1853Y3575D01*
Y4046D01*
X2192Y4385D01*
X2216Y4380D01*
X2216Y4380D01*
X2226Y4369D01*
Y3130D01*
X2229Y3119D01*
X2235Y3110D01*
X2460Y2885D01*
Y2871D01*
X2466Y2855D01*
X2479Y2842D01*
X2496Y2835D01*
X2513D01*
X2530Y2842D01*
X2543Y2855D01*
X2550Y2871D01*
Y2889D01*
X2543Y2906D01*
X2530Y2918D01*
X2513Y2925D01*
X2499D01*
X2283Y3142D01*
Y4369D01*
X2293Y4380D01*
X2294Y4382D01*
X2315D01*
X2316Y4380D01*
X2329Y4367D01*
X2346Y4360D01*
X2363D01*
X2380Y4367D01*
X2393Y4380D01*
X2393Y4380D01*
X2412Y4382D01*
X2426Y4367D01*
Y3555D01*
X2429Y3544D01*
X2435Y3535D01*
X3060Y2910D01*
Y2896D01*
X3066Y2880D01*
X3079Y2867D01*
X3096Y2860D01*
X3113D01*
X3114Y2860D01*
X3134Y2847D01*
Y2344D01*
X3113Y2339D01*
X3092Y2326D01*
X3074Y2308D01*
X3061Y2287D01*
X3055Y2263D01*
Y2237D01*
X3061Y2213D01*
X3066Y2206D01*
X2640Y1780D01*
X2620Y1783D01*
X2617Y1794D01*
X2602Y1821D01*
X2581Y1842D01*
X2554Y1857D01*
X2525Y1865D01*
X2495D01*
X2466Y1857D01*
X2439Y1842D01*
X2418Y1821D01*
X2403Y1794D01*
X2398Y1778D01*
X1997D01*
X1992Y1794D01*
X1977Y1821D01*
X1956Y1842D01*
X1929Y1857D01*
X1900Y1865D01*
X1870D01*
X1841Y1857D01*
X1814Y1842D01*
X1793Y1821D01*
X1778Y1794D01*
X1770Y1765D01*
Y1735D01*
X1778Y1706D01*
X1793Y1679D01*
X1814Y1658D01*
X1841Y1643D01*
X1870Y1635D01*
X1900D01*
X1929Y1643D01*
X1956Y1658D01*
X1977Y1679D01*
X1992Y1706D01*
X1997Y1722D01*
X2398D01*
X2403Y1706D01*
X2418Y1679D01*
X2439Y1658D01*
X2466Y1643D01*
X2495Y1635D01*
X2525D01*
X2554Y1643D01*
X2581Y1658D01*
X2602Y1679D01*
X2617Y1706D01*
X2622Y1722D01*
X2650D01*
X2661Y1724D01*
X2670Y1730D01*
X3106Y2166D01*
X3113Y2161D01*
X3137Y2155D01*
X3163D01*
X3187Y2161D01*
X3208Y2174D01*
X3226Y2192D01*
X3239Y2213D01*
X3245Y2237D01*
Y2263D01*
X3239Y2287D01*
X3226Y2308D01*
X3208Y2326D01*
X3190Y2336D01*
Y4663D01*
X3188Y4674D01*
X3182Y4683D01*
X2997Y4868D01*
X2999Y4886D01*
X3013Y4892D01*
X3018Y4893D01*
X3080Y4830D01*
X3089Y4824D01*
X3100Y4822D01*
X3399D01*
X3536Y4684D01*
Y3904D01*
X3538Y3893D01*
X3544Y3884D01*
X3622Y3806D01*
Y2341D01*
X3613Y2339D01*
X3592Y2326D01*
X3574Y2308D01*
X3561Y2287D01*
X3555Y2263D01*
Y2237D01*
X3561Y2213D01*
X3574Y2192D01*
X3592Y2174D01*
X3613Y2161D01*
X3637Y2155D01*
X3663D01*
X3687Y2161D01*
X3694Y2166D01*
X4127Y1733D01*
X4136Y1727D01*
X4147Y1725D01*
X4173D01*
X4178Y1706D01*
X4193Y1679D01*
X4214Y1658D01*
X4241Y1643D01*
X4270Y1635D01*
X4300D01*
X4329Y1643D01*
X4356Y1658D01*
X4377Y1679D01*
X4392Y1706D01*
X4397Y1722D01*
X4798D01*
X4803Y1706D01*
X4818Y1679D01*
X4839Y1658D01*
X4866Y1643D01*
X4895Y1635D01*
X4925D01*
X4954Y1643D01*
X4981Y1658D01*
X5002Y1679D01*
X5017Y1706D01*
X5025Y1735D01*
Y1765D01*
X5017Y1794D01*
X5002Y1821D01*
X4981Y1842D01*
X4954Y1857D01*
X4925Y1865D01*
X4895D01*
X4866Y1857D01*
X4839Y1842D01*
X4818Y1821D01*
X4803Y1794D01*
X4798Y1778D01*
X4397D01*
X4392Y1794D01*
X4377Y1821D01*
X4356Y1842D01*
X4329Y1857D01*
X4300Y1865D01*
X4270D01*
X4241Y1857D01*
X4214Y1842D01*
X4193Y1821D01*
X4178Y1794D01*
X4176Y1787D01*
X4155Y1784D01*
X3734Y2206D01*
X3739Y2213D01*
X3745Y2237D01*
Y2263D01*
X3739Y2287D01*
X3726Y2308D01*
X3708Y2326D01*
X3687Y2339D01*
X3678Y2341D01*
Y3781D01*
X3697Y3789D01*
X3772Y3713D01*
Y2511D01*
X3762Y2500D01*
X3755Y2484D01*
Y2466D01*
X3762Y2450D01*
X3775Y2437D01*
X3791Y2430D01*
X3809D01*
X3825Y2437D01*
X3838Y2450D01*
X3845Y2466D01*
Y2484D01*
X3838Y2500D01*
X3828Y2511D01*
Y3725D01*
X3826Y3736D01*
X3820Y3745D01*
X3633Y3932D01*
Y5019D01*
X3643Y5030D01*
X3650Y5046D01*
Y5064D01*
X3643Y5081D01*
X3630Y5093D01*
X3613Y5100D01*
D02*
G37*
G36*
X4734Y4895D02*
X4716D01*
X4700Y4888D01*
X4687Y4875D01*
X4680Y4859D01*
Y4841D01*
X4687Y4825D01*
X4695Y4817D01*
Y4531D01*
X4682Y4519D01*
X4675Y4502D01*
Y4485D01*
X4682Y4468D01*
X4695Y4455D01*
X4711Y4449D01*
X4729D01*
X4746Y4455D01*
X4758Y4468D01*
X4765Y4485D01*
Y4502D01*
X4758Y4519D01*
X4751Y4527D01*
Y4812D01*
X4763Y4825D01*
X4770Y4841D01*
Y4859D01*
X4763Y4875D01*
X4750Y4888D01*
X4734Y4895D01*
D02*
G37*
G36*
X6809Y4270D02*
X6791D01*
X6775Y4263D01*
X6764Y4253D01*
X6236D01*
X6225Y4263D01*
X6209Y4270D01*
X6191D01*
X6175Y4263D01*
X6162Y4250D01*
X6155Y4234D01*
Y4216D01*
X6162Y4200D01*
X6175Y4187D01*
X6177Y4186D01*
Y4164D01*
X6175Y4163D01*
X6162Y4150D01*
X6155Y4134D01*
Y4116D01*
X6162Y4100D01*
X6175Y4087D01*
X6191Y4080D01*
X6209D01*
X6225Y4087D01*
X6236Y4097D01*
X6764D01*
X6775Y4087D01*
X6791Y4080D01*
X6809D01*
X6825Y4087D01*
X6838Y4100D01*
X6845Y4116D01*
Y4134D01*
X6838Y4150D01*
X6825Y4163D01*
X6823Y4164D01*
Y4186D01*
X6825Y4187D01*
X6838Y4200D01*
X6845Y4216D01*
Y4234D01*
X6838Y4250D01*
X6825Y4263D01*
X6809Y4270D01*
D02*
G37*
G36*
X1640Y4344D02*
X1638D01*
Y4246D01*
X1736D01*
Y4248D01*
X1728Y4276D01*
X1714Y4301D01*
X1693Y4322D01*
X1668Y4336D01*
X1640Y4344D01*
D02*
G37*
G36*
X1612D02*
X1610D01*
X1582Y4336D01*
X1557Y4322D01*
X1536Y4301D01*
X1522Y4276D01*
X1514Y4248D01*
Y4246D01*
X1612D01*
Y4344D01*
D02*
G37*
G36*
Y4220D02*
X1514D01*
Y4218D01*
X1522Y4190D01*
X1536Y4165D01*
X1557Y4144D01*
X1582Y4130D01*
X1610Y4122D01*
X1612D01*
Y4220D01*
D02*
G37*
G36*
X3734Y4695D02*
X3716D01*
X3700Y4688D01*
X3687Y4675D01*
X3680Y4659D01*
Y4641D01*
X3687Y4625D01*
X3700Y4612D01*
X3716Y4605D01*
X3734D01*
X3750Y4612D01*
X3761Y4622D01*
X4238D01*
X5205Y3655D01*
Y3641D01*
X5212Y3625D01*
X5225Y3612D01*
X5241Y3605D01*
X5259D01*
X5275Y3612D01*
X5288Y3625D01*
X5295Y3641D01*
Y3659D01*
X5288Y3675D01*
X5275Y3688D01*
X5259Y3695D01*
X5245D01*
X4270Y4670D01*
X4261Y4676D01*
X4250Y4678D01*
X3761D01*
X3750Y4688D01*
X3734Y4695D01*
D02*
G37*
G36*
X10772Y3725D02*
X10763D01*
Y3513D01*
X10975D01*
Y3522D01*
X10967Y3566D01*
X10950Y3607D01*
X10925Y3644D01*
X10894Y3675D01*
X10857Y3700D01*
X10816Y3717D01*
X10772Y3725D01*
D02*
G37*
G36*
X772D02*
X763D01*
Y3513D01*
X975D01*
Y3522D01*
X967Y3566D01*
X950Y3607D01*
X925Y3644D01*
X894Y3675D01*
X857Y3700D01*
X816Y3717D01*
X772Y3725D01*
D02*
G37*
G36*
X10737D02*
X10728D01*
X10684Y3717D01*
X10643Y3700D01*
X10606Y3675D01*
X10575Y3644D01*
X10550Y3607D01*
X10533Y3566D01*
X10525Y3522D01*
Y3513D01*
X10737D01*
Y3725D01*
D02*
G37*
G36*
X737D02*
X728D01*
X684Y3717D01*
X643Y3700D01*
X606Y3675D01*
X575Y3644D01*
X550Y3607D01*
X533Y3566D01*
X525Y3522D01*
Y3513D01*
X737D01*
Y3725D01*
D02*
G37*
G36*
X3722Y4567D02*
X3704D01*
X3688Y4560D01*
X3675Y4548D01*
X3668Y4531D01*
Y4513D01*
X3675Y4497D01*
X3685Y4482D01*
X3672Y4469D01*
X3665Y4453D01*
Y4435D01*
X3672Y4418D01*
X3685Y4406D01*
X3690Y4404D01*
X3691Y4398D01*
X3697Y4388D01*
X4925Y3161D01*
X4916Y3141D01*
X4483D01*
X4483Y3141D01*
X4467Y3138D01*
X4454Y3129D01*
X4454Y3129D01*
X4396Y3071D01*
X4387Y3058D01*
X4387Y3055D01*
X4380Y3039D01*
Y3021D01*
X4384Y3011D01*
Y2798D01*
X4384Y2798D01*
X4387Y2782D01*
X4396Y2769D01*
X4505Y2660D01*
Y2528D01*
X4695D01*
Y2718D01*
X4563D01*
X4466Y2815D01*
Y3011D01*
X4470Y3021D01*
Y3030D01*
X4500Y3059D01*
X4908D01*
X5071Y2896D01*
X5071Y2896D01*
X5084Y2887D01*
X5100Y2884D01*
X5881D01*
X5891Y2880D01*
X5909D01*
X5925Y2887D01*
X5938Y2900D01*
X5945Y2916D01*
Y2934D01*
X5938Y2950D01*
X5925Y2963D01*
X5923Y2964D01*
Y2986D01*
X5925Y2987D01*
X5938Y3000D01*
X5945Y3016D01*
Y3034D01*
X5938Y3050D01*
X5925Y3063D01*
X5923Y3064D01*
Y3086D01*
X5925Y3087D01*
X5938Y3100D01*
X5945Y3116D01*
Y3134D01*
X5938Y3150D01*
X5925Y3163D01*
X5909Y3170D01*
X5891D01*
X5875Y3163D01*
X5864Y3153D01*
X5122D01*
X4781Y3495D01*
X4792Y3512D01*
X4796Y3510D01*
X4813D01*
X4830Y3517D01*
X4835Y3522D01*
X6474D01*
X6485Y3524D01*
X6494Y3530D01*
X6549Y3585D01*
X6563D01*
X6580Y3592D01*
X6593Y3605D01*
X6600Y3621D01*
Y3639D01*
X6593Y3656D01*
X6580Y3668D01*
X6563Y3675D01*
X6546D01*
X6529Y3668D01*
X6516Y3656D01*
X6510Y3639D01*
Y3625D01*
X6463Y3578D01*
X4844D01*
X4843Y3581D01*
X4830Y3593D01*
X4813Y3600D01*
X4796D01*
X4779Y3593D01*
X4766Y3581D01*
X4760Y3564D01*
Y3546D01*
X4761Y3543D01*
X4744Y3531D01*
X3758Y4517D01*
Y4531D01*
X3752Y4548D01*
X3739Y4560D01*
X3722Y4567D01*
D02*
G37*
G36*
X10090Y3363D02*
X10072D01*
X10062Y3359D01*
X9993D01*
X9993Y3359D01*
X9977Y3356D01*
X9964Y3347D01*
X9964Y3347D01*
X8546Y1929D01*
X8537Y1916D01*
X8534Y1900D01*
X8534Y1900D01*
Y1462D01*
X8483D01*
Y1288D01*
X8658D01*
Y1462D01*
X8616D01*
Y1883D01*
X10010Y3277D01*
X10062D01*
X10072Y3273D01*
X10090D01*
X10106Y3280D01*
X10119Y3292D01*
X10126Y3309D01*
Y3327D01*
X10119Y3343D01*
X10106Y3356D01*
X10090Y3363D01*
D02*
G37*
G36*
X10975Y3487D02*
X10763D01*
Y3275D01*
X10772D01*
X10816Y3283D01*
X10857Y3300D01*
X10894Y3325D01*
X10925Y3356D01*
X10950Y3393D01*
X10967Y3434D01*
X10975Y3478D01*
Y3487D01*
D02*
G37*
G36*
X10737D02*
X10525D01*
Y3478D01*
X10533Y3434D01*
X10550Y3393D01*
X10575Y3356D01*
X10606Y3325D01*
X10643Y3300D01*
X10684Y3283D01*
X10728Y3275D01*
X10737D01*
Y3487D01*
D02*
G37*
G36*
X975D02*
X763D01*
Y3275D01*
X772D01*
X816Y3283D01*
X857Y3300D01*
X894Y3325D01*
X925Y3356D01*
X950Y3393D01*
X967Y3434D01*
X975Y3478D01*
Y3487D01*
D02*
G37*
G36*
X737D02*
X525D01*
Y3478D01*
X533Y3434D01*
X550Y3393D01*
X575Y3356D01*
X606Y3325D01*
X643Y3300D01*
X684Y3283D01*
X728Y3275D01*
X737D01*
Y3487D01*
D02*
G37*
G36*
X1725Y3317D02*
X1524D01*
Y3117D01*
X1725D01*
Y3317D01*
D02*
G37*
G36*
X3414Y2982D02*
X3413D01*
Y2890D01*
X3505D01*
Y2891D01*
X3498Y2918D01*
X3484Y2942D01*
X3465Y2961D01*
X3441Y2975D01*
X3414Y2982D01*
D02*
G37*
G36*
X3387D02*
X3386D01*
X3359Y2975D01*
X3335Y2961D01*
X3316Y2942D01*
X3302Y2918D01*
X3295Y2891D01*
Y2890D01*
X3387D01*
Y2982D01*
D02*
G37*
G36*
X2214D02*
X2213D01*
Y2890D01*
X2305D01*
Y2891D01*
X2298Y2918D01*
X2284Y2942D01*
X2265Y2961D01*
X2241Y2975D01*
X2214Y2982D01*
D02*
G37*
G36*
X2187D02*
X2186D01*
X2159Y2975D01*
X2135Y2961D01*
X2116Y2942D01*
X2102Y2918D01*
X2095Y2891D01*
Y2890D01*
X2187D01*
Y2982D01*
D02*
G37*
G36*
X4613Y2972D02*
X4587D01*
X4563Y2966D01*
X4542Y2953D01*
X4524Y2935D01*
X4511Y2914D01*
X4505Y2890D01*
Y2864D01*
X4511Y2840D01*
X4524Y2819D01*
X4542Y2801D01*
X4563Y2788D01*
X4587Y2782D01*
X4613D01*
X4637Y2788D01*
X4658Y2801D01*
X4676Y2819D01*
X4689Y2840D01*
X4695Y2864D01*
Y2890D01*
X4689Y2914D01*
X4676Y2935D01*
X4658Y2953D01*
X4637Y2966D01*
X4613Y2972D01*
D02*
G37*
G36*
X3505Y2864D02*
X3413D01*
Y2772D01*
X3414D01*
X3441Y2779D01*
X3465Y2793D01*
X3484Y2812D01*
X3498Y2836D01*
X3505Y2863D01*
Y2864D01*
D02*
G37*
G36*
X3387D02*
X3295D01*
Y2863D01*
X3302Y2836D01*
X3316Y2812D01*
X3335Y2793D01*
X3359Y2779D01*
X3386Y2772D01*
X3387D01*
Y2864D01*
D02*
G37*
G36*
X2305Y2864D02*
X2213D01*
Y2772D01*
X2214D01*
X2241Y2779D01*
X2265Y2793D01*
X2284Y2812D01*
X2298Y2836D01*
X2305Y2863D01*
Y2864D01*
D02*
G37*
G36*
X2187D02*
X2095D01*
Y2863D01*
X2102Y2836D01*
X2116Y2812D01*
X2135Y2793D01*
X2159Y2779D01*
X2186Y2772D01*
X2187D01*
Y2864D01*
D02*
G37*
G36*
X7447Y3267D02*
X7429D01*
X7413Y3260D01*
X7400Y3248D01*
X7393Y3231D01*
Y3213D01*
X7395Y3210D01*
X6936Y2750D01*
X5113D01*
X5113Y2750D01*
X5100Y2763D01*
X5084Y2770D01*
X5066D01*
X5050Y2763D01*
X5037Y2750D01*
X5030Y2734D01*
Y2716D01*
X5037Y2700D01*
X5050Y2687D01*
X5066Y2680D01*
X5084D01*
X5100Y2687D01*
X5108Y2694D01*
X6947D01*
X6958Y2696D01*
X6967Y2702D01*
X7442Y3177D01*
X7447D01*
X7464Y3184D01*
X7477Y3197D01*
X7483Y3213D01*
Y3231D01*
X7477Y3248D01*
X7464Y3260D01*
X7447Y3267D01*
D02*
G37*
G36*
X10855Y2716D02*
X10828D01*
Y2653D01*
X10929D01*
X10928Y2660D01*
X10921Y2678D01*
X10909Y2694D01*
X10893Y2706D01*
X10875Y2713D01*
X10855Y2716D01*
D02*
G37*
G36*
X10802D02*
X10775D01*
X10755Y2713D01*
X10737Y2706D01*
X10721Y2694D01*
X10709Y2678D01*
X10702Y2660D01*
X10701Y2653D01*
X10802D01*
Y2716D01*
D02*
G37*
G36*
X11275D02*
X11248D01*
Y2653D01*
X11349D01*
X11348Y2660D01*
X11341Y2678D01*
X11329Y2694D01*
X11313Y2706D01*
X11295Y2713D01*
X11275Y2716D01*
D02*
G37*
G36*
X11222D02*
X11195D01*
X11175Y2713D01*
X11157Y2706D01*
X11141Y2694D01*
X11129Y2678D01*
X11122Y2660D01*
X11121Y2653D01*
X11222D01*
Y2716D01*
D02*
G37*
G36*
X11349Y2627D02*
X11248D01*
Y2564D01*
X11275D01*
X11295Y2567D01*
X11313Y2574D01*
X11329Y2586D01*
X11341Y2602D01*
X11348Y2620D01*
X11349Y2627D01*
D02*
G37*
G36*
X11222D02*
X11121D01*
X11122Y2620D01*
X11129Y2602D01*
X11141Y2586D01*
X11157Y2574D01*
X11175Y2567D01*
X11195Y2564D01*
X11222D01*
Y2627D01*
D02*
G37*
G36*
X10929Y2627D02*
X10828D01*
Y2564D01*
X10855D01*
X10875Y2567D01*
X10893Y2574D01*
X10909Y2586D01*
X10921Y2602D01*
X10928Y2620D01*
X10929Y2627D01*
D02*
G37*
G36*
X10802D02*
X10701D01*
X10702Y2620D01*
X10709Y2602D01*
X10721Y2586D01*
X10737Y2574D01*
X10755Y2567D01*
X10775Y2564D01*
X10802D01*
Y2627D01*
D02*
G37*
G36*
X3495Y2718D02*
X3305D01*
Y2528D01*
X3495D01*
Y2718D01*
D02*
G37*
G36*
X2295D02*
X2105D01*
Y2528D01*
X2295D01*
Y2718D01*
D02*
G37*
G36*
X10879Y2541D02*
X10859D01*
X10839Y2533D01*
X10824Y2518D01*
X10817Y2499D01*
Y2478D01*
X10824Y2459D01*
X10839Y2444D01*
X10859Y2436D01*
X10879D01*
X10899Y2444D01*
X10914Y2459D01*
X10921Y2478D01*
Y2499D01*
X10914Y2518D01*
X10899Y2533D01*
X10879Y2541D01*
D02*
G37*
G36*
X3414Y2355D02*
X3413D01*
Y2263D01*
X3505D01*
Y2264D01*
X3498Y2291D01*
X3484Y2315D01*
X3465Y2334D01*
X3441Y2348D01*
X3414Y2355D01*
D02*
G37*
G36*
X3387D02*
X3386D01*
X3359Y2348D01*
X3335Y2334D01*
X3316Y2315D01*
X3302Y2291D01*
X3295Y2264D01*
Y2263D01*
X3387D01*
Y2355D01*
D02*
G37*
G36*
X3505Y2237D02*
X3413D01*
Y2145D01*
X3414D01*
X3441Y2152D01*
X3465Y2166D01*
X3484Y2185D01*
X3498Y2209D01*
X3505Y2236D01*
Y2237D01*
D02*
G37*
G36*
X3387D02*
X3295D01*
Y2236D01*
X3302Y2209D01*
X3316Y2185D01*
X3335Y2166D01*
X3359Y2152D01*
X3386Y2145D01*
X3387D01*
Y2237D01*
D02*
G37*
G36*
X10509Y2295D02*
X10491D01*
X10475Y2288D01*
X10462Y2275D01*
X10455Y2259D01*
Y2241D01*
X10462Y2225D01*
X10472Y2214D01*
Y2136D01*
X10462Y2125D01*
X10455Y2109D01*
Y2091D01*
X10462Y2075D01*
X10475Y2062D01*
X10491Y2055D01*
X10509D01*
X10525Y2062D01*
X10538Y2075D01*
X10545Y2091D01*
Y2109D01*
X10538Y2125D01*
X10528Y2136D01*
Y2214D01*
X10538Y2225D01*
X10545Y2241D01*
Y2259D01*
X10538Y2275D01*
X10525Y2288D01*
X10509Y2295D01*
D02*
G37*
G36*
X10879Y1964D02*
X10859D01*
X10839Y1956D01*
X10824Y1941D01*
X10817Y1922D01*
Y1901D01*
X10824Y1882D01*
X10839Y1867D01*
X10859Y1859D01*
X10879D01*
X10899Y1867D01*
X10914Y1882D01*
X10921Y1901D01*
Y1922D01*
X10914Y1941D01*
X10899Y1956D01*
X10879Y1964D01*
D02*
G37*
G36*
X3725Y1865D02*
X3695D01*
X3666Y1857D01*
X3639Y1842D01*
X3618Y1821D01*
X3603Y1794D01*
X3598Y1778D01*
X3197D01*
X3192Y1794D01*
X3177Y1821D01*
X3156Y1842D01*
X3129Y1857D01*
X3100Y1865D01*
X3070D01*
X3041Y1857D01*
X3014Y1842D01*
X2993Y1821D01*
X2978Y1794D01*
X2970Y1765D01*
Y1735D01*
X2978Y1706D01*
X2993Y1679D01*
X3014Y1658D01*
X3041Y1643D01*
X3070Y1635D01*
X3100D01*
X3129Y1643D01*
X3156Y1658D01*
X3177Y1679D01*
X3192Y1706D01*
X3197Y1722D01*
X3369D01*
Y1052D01*
X3372Y1042D01*
X3378Y1033D01*
X3566Y844D01*
X3561Y837D01*
X3555Y813D01*
Y787D01*
X3561Y763D01*
X3574Y742D01*
X3592Y724D01*
X3613Y711D01*
X3637Y705D01*
X3663D01*
X3687Y711D01*
X3708Y724D01*
X3726Y742D01*
X3739Y763D01*
X3745Y787D01*
Y813D01*
X3739Y837D01*
X3726Y858D01*
X3708Y876D01*
X3687Y889D01*
X3663Y895D01*
X3637D01*
X3613Y889D01*
X3606Y884D01*
X3426Y1064D01*
Y1722D01*
X3598D01*
X3603Y1706D01*
X3618Y1679D01*
X3639Y1658D01*
X3666Y1643D01*
X3695Y1635D01*
X3725D01*
X3754Y1643D01*
X3781Y1658D01*
X3802Y1679D01*
X3817Y1706D01*
X3825Y1735D01*
Y1765D01*
X3817Y1794D01*
X3802Y1821D01*
X3781Y1842D01*
X3754Y1857D01*
X3725Y1865D01*
D02*
G37*
G36*
X10855Y1836D02*
X10828D01*
Y1773D01*
X10929D01*
X10928Y1780D01*
X10921Y1798D01*
X10909Y1814D01*
X10893Y1826D01*
X10875Y1833D01*
X10855Y1836D01*
D02*
G37*
G36*
X10802D02*
X10775D01*
X10755Y1833D01*
X10737Y1826D01*
X10721Y1814D01*
X10709Y1798D01*
X10702Y1780D01*
X10701Y1773D01*
X10802D01*
Y1836D01*
D02*
G37*
G36*
X11275D02*
X11248D01*
Y1773D01*
X11349D01*
X11348Y1780D01*
X11341Y1798D01*
X11329Y1814D01*
X11313Y1826D01*
X11295Y1833D01*
X11275Y1836D01*
D02*
G37*
G36*
X11222D02*
X11195D01*
X11175Y1833D01*
X11157Y1826D01*
X11141Y1814D01*
X11129Y1798D01*
X11122Y1780D01*
X11121Y1773D01*
X11222D01*
Y1836D01*
D02*
G37*
G36*
X11349Y1747D02*
X11248D01*
Y1684D01*
X11275D01*
X11295Y1687D01*
X11313Y1694D01*
X11329Y1706D01*
X11341Y1722D01*
X11348Y1740D01*
X11349Y1747D01*
D02*
G37*
G36*
X11222D02*
X11121D01*
X11122Y1740D01*
X11129Y1722D01*
X11141Y1706D01*
X11157Y1694D01*
X11175Y1687D01*
X11195Y1684D01*
X11222D01*
Y1747D01*
D02*
G37*
G36*
X10929Y1747D02*
X10828D01*
Y1684D01*
X10855D01*
X10875Y1687D01*
X10893Y1694D01*
X10909Y1706D01*
X10921Y1722D01*
X10928Y1740D01*
X10929Y1747D01*
D02*
G37*
G36*
X10802D02*
X10701D01*
X10702Y1740D01*
X10709Y1722D01*
X10721Y1706D01*
X10737Y1694D01*
X10755Y1687D01*
X10775Y1684D01*
X10802D01*
Y1747D01*
D02*
G37*
G36*
X3968Y1685D02*
X3963D01*
Y1513D01*
X4135D01*
Y1518D01*
X4128Y1554D01*
X4114Y1588D01*
X4094Y1618D01*
X4068Y1644D01*
X4038Y1664D01*
X4004Y1678D01*
X3968Y1685D01*
D02*
G37*
G36*
X2868D02*
X2863D01*
Y1513D01*
X3035D01*
Y1518D01*
X3028Y1554D01*
X3014Y1588D01*
X2994Y1618D01*
X2968Y1644D01*
X2938Y1664D01*
X2904Y1678D01*
X2868Y1685D01*
D02*
G37*
G36*
X3937D02*
X3932D01*
X3896Y1678D01*
X3862Y1664D01*
X3832Y1644D01*
X3806Y1618D01*
X3786Y1588D01*
X3772Y1554D01*
X3765Y1518D01*
Y1513D01*
X3937D01*
Y1685D01*
D02*
G37*
G36*
X2837D02*
X2832D01*
X2796Y1678D01*
X2762Y1664D01*
X2732Y1644D01*
X2706Y1618D01*
X2686Y1588D01*
X2672Y1554D01*
X2665Y1518D01*
Y1513D01*
X2837D01*
Y1685D01*
D02*
G37*
G36*
X8838Y1473D02*
X8838D01*
Y1388D01*
X8923D01*
Y1388D01*
X8916Y1413D01*
X8903Y1435D01*
X8885Y1453D01*
X8863Y1466D01*
X8838Y1473D01*
D02*
G37*
G36*
X8812D02*
X8812D01*
X8787Y1466D01*
X8765Y1453D01*
X8747Y1435D01*
X8734Y1413D01*
X8727Y1388D01*
Y1388D01*
X8812D01*
Y1473D01*
D02*
G37*
G36*
X4135Y1487D02*
X3963D01*
Y1315D01*
X3968D01*
X4004Y1322D01*
X4038Y1336D01*
X4068Y1356D01*
X4094Y1382D01*
X4114Y1412D01*
X4128Y1446D01*
X4135Y1482D01*
Y1487D01*
D02*
G37*
G36*
X3937D02*
X3765D01*
Y1482D01*
X3772Y1446D01*
X3786Y1412D01*
X3806Y1382D01*
X3832Y1356D01*
X3862Y1336D01*
X3896Y1322D01*
X3932Y1315D01*
X3937D01*
Y1487D01*
D02*
G37*
G36*
X3035D02*
X2863D01*
Y1315D01*
X2868D01*
X2904Y1322D01*
X2938Y1336D01*
X2968Y1356D01*
X2994Y1382D01*
X3014Y1412D01*
X3028Y1446D01*
X3035Y1482D01*
Y1487D01*
D02*
G37*
G36*
X2837D02*
X2665D01*
Y1482D01*
X2672Y1446D01*
X2686Y1412D01*
X2706Y1382D01*
X2732Y1356D01*
X2762Y1336D01*
X2796Y1322D01*
X2832Y1315D01*
X2837D01*
Y1487D01*
D02*
G37*
G36*
X8923Y1362D02*
X8838D01*
Y1277D01*
X8838D01*
X8863Y1284D01*
X8885Y1297D01*
X8903Y1315D01*
X8916Y1337D01*
X8923Y1362D01*
Y1362D01*
D02*
G37*
G36*
X8812D02*
X8727D01*
Y1362D01*
X8734Y1337D01*
X8747Y1315D01*
X8765Y1297D01*
X8787Y1284D01*
X8812Y1277D01*
X8812D01*
Y1362D01*
D02*
G37*
G36*
X4927Y1375D02*
X4923D01*
Y1263D01*
X5035D01*
Y1267D01*
X5027Y1298D01*
X5010Y1327D01*
X4987Y1350D01*
X4958Y1367D01*
X4927Y1375D01*
D02*
G37*
G36*
X4897D02*
X4893D01*
X4862Y1367D01*
X4833Y1350D01*
X4810Y1327D01*
X4793Y1298D01*
X4785Y1267D01*
Y1263D01*
X4897D01*
Y1375D01*
D02*
G37*
G36*
X4302D02*
X4298D01*
Y1263D01*
X4410D01*
Y1267D01*
X4402Y1298D01*
X4385Y1327D01*
X4362Y1350D01*
X4333Y1367D01*
X4302Y1375D01*
D02*
G37*
G36*
X4272D02*
X4268D01*
X4237Y1367D01*
X4208Y1350D01*
X4185Y1327D01*
X4168Y1298D01*
X4160Y1267D01*
Y1263D01*
X4272D01*
Y1375D01*
D02*
G37*
G36*
X3727D02*
X3723D01*
Y1263D01*
X3835D01*
Y1267D01*
X3827Y1298D01*
X3810Y1327D01*
X3787Y1350D01*
X3758Y1367D01*
X3727Y1375D01*
D02*
G37*
G36*
X3697D02*
X3693D01*
X3662Y1367D01*
X3633Y1350D01*
X3610Y1327D01*
X3593Y1298D01*
X3585Y1267D01*
Y1263D01*
X3697D01*
Y1375D01*
D02*
G37*
G36*
X3102D02*
X3098D01*
Y1263D01*
X3210D01*
Y1267D01*
X3202Y1298D01*
X3185Y1327D01*
X3162Y1350D01*
X3133Y1367D01*
X3102Y1375D01*
D02*
G37*
G36*
X3072D02*
X3068D01*
X3037Y1367D01*
X3008Y1350D01*
X2985Y1327D01*
X2968Y1298D01*
X2960Y1267D01*
Y1263D01*
X3072D01*
Y1375D01*
D02*
G37*
G36*
X2527D02*
X2523D01*
Y1263D01*
X2635D01*
Y1267D01*
X2627Y1298D01*
X2610Y1327D01*
X2587Y1350D01*
X2558Y1367D01*
X2527Y1375D01*
D02*
G37*
G36*
X2497D02*
X2493D01*
X2462Y1367D01*
X2433Y1350D01*
X2410Y1327D01*
X2393Y1298D01*
X2385Y1267D01*
Y1263D01*
X2497D01*
Y1375D01*
D02*
G37*
G36*
X1902D02*
X1898D01*
Y1263D01*
X2010D01*
Y1267D01*
X2002Y1298D01*
X1985Y1327D01*
X1962Y1350D01*
X1933Y1367D01*
X1902Y1375D01*
D02*
G37*
G36*
X1872D02*
X1868D01*
X1837Y1367D01*
X1808Y1350D01*
X1785Y1327D01*
X1768Y1298D01*
X1760Y1267D01*
Y1263D01*
X1872D01*
Y1375D01*
D02*
G37*
G36*
X5035Y1237D02*
X4923D01*
Y1125D01*
X4927D01*
X4958Y1133D01*
X4987Y1150D01*
X5010Y1173D01*
X5027Y1202D01*
X5035Y1233D01*
Y1237D01*
D02*
G37*
G36*
X4897D02*
X4785D01*
Y1233D01*
X4793Y1202D01*
X4810Y1173D01*
X4833Y1150D01*
X4862Y1133D01*
X4893Y1125D01*
X4897D01*
Y1237D01*
D02*
G37*
G36*
X4410D02*
X4298D01*
Y1125D01*
X4302D01*
X4333Y1133D01*
X4362Y1150D01*
X4385Y1173D01*
X4402Y1202D01*
X4410Y1233D01*
Y1237D01*
D02*
G37*
G36*
X4272D02*
X4160D01*
Y1233D01*
X4168Y1202D01*
X4185Y1173D01*
X4208Y1150D01*
X4237Y1133D01*
X4268Y1125D01*
X4272D01*
Y1237D01*
D02*
G37*
G36*
X3835D02*
X3723D01*
Y1125D01*
X3727D01*
X3758Y1133D01*
X3787Y1150D01*
X3810Y1173D01*
X3827Y1202D01*
X3835Y1233D01*
Y1237D01*
D02*
G37*
G36*
X3697D02*
X3585D01*
Y1233D01*
X3593Y1202D01*
X3610Y1173D01*
X3633Y1150D01*
X3662Y1133D01*
X3693Y1125D01*
X3697D01*
Y1237D01*
D02*
G37*
G36*
X3210D02*
X3098D01*
Y1125D01*
X3102D01*
X3133Y1133D01*
X3162Y1150D01*
X3185Y1173D01*
X3202Y1202D01*
X3210Y1233D01*
Y1237D01*
D02*
G37*
G36*
X3072D02*
X2960D01*
Y1233D01*
X2968Y1202D01*
X2985Y1173D01*
X3008Y1150D01*
X3037Y1133D01*
X3068Y1125D01*
X3072D01*
Y1237D01*
D02*
G37*
G36*
X2635D02*
X2523D01*
Y1125D01*
X2527D01*
X2558Y1133D01*
X2587Y1150D01*
X2610Y1173D01*
X2627Y1202D01*
X2635Y1233D01*
Y1237D01*
D02*
G37*
G36*
X2497D02*
X2385D01*
Y1233D01*
X2393Y1202D01*
X2410Y1173D01*
X2433Y1150D01*
X2462Y1133D01*
X2493Y1125D01*
X2497D01*
Y1237D01*
D02*
G37*
G36*
X2010D02*
X1898D01*
Y1125D01*
X1902D01*
X1933Y1133D01*
X1962Y1150D01*
X1985Y1173D01*
X2002Y1202D01*
X2010Y1233D01*
Y1237D01*
D02*
G37*
G36*
X1872D02*
X1760D01*
Y1233D01*
X1768Y1202D01*
X1785Y1173D01*
X1808Y1150D01*
X1837Y1133D01*
X1868Y1125D01*
X1872D01*
Y1237D01*
D02*
G37*
G36*
X3164Y905D02*
X3163D01*
Y813D01*
X3255D01*
Y814D01*
X3248Y841D01*
X3234Y865D01*
X3215Y884D01*
X3191Y898D01*
X3164Y905D01*
D02*
G37*
G36*
X3137D02*
X3136D01*
X3109Y898D01*
X3085Y884D01*
X3066Y865D01*
X3052Y841D01*
X3045Y814D01*
Y813D01*
X3137D01*
Y905D01*
D02*
G37*
G36*
X5772Y925D02*
X5763D01*
Y713D01*
X5975D01*
Y722D01*
X5967Y766D01*
X5950Y807D01*
X5925Y844D01*
X5894Y875D01*
X5857Y900D01*
X5816Y917D01*
X5772Y925D01*
D02*
G37*
G36*
X5737D02*
X5728D01*
X5684Y917D01*
X5643Y900D01*
X5606Y875D01*
X5575Y844D01*
X5550Y807D01*
X5533Y766D01*
X5525Y722D01*
Y713D01*
X5737D01*
Y925D01*
D02*
G37*
G36*
X9772D02*
X9763D01*
Y713D01*
X9975D01*
Y722D01*
X9967Y766D01*
X9950Y807D01*
X9925Y844D01*
X9894Y875D01*
X9857Y900D01*
X9816Y917D01*
X9772Y925D01*
D02*
G37*
G36*
X1772D02*
X1763D01*
Y713D01*
X1975D01*
Y722D01*
X1967Y766D01*
X1950Y807D01*
X1925Y844D01*
X1894Y875D01*
X1857Y900D01*
X1816Y917D01*
X1772Y925D01*
D02*
G37*
G36*
X1737D02*
X1728D01*
X1684Y917D01*
X1643Y900D01*
X1606Y875D01*
X1575Y844D01*
X1550Y807D01*
X1533Y766D01*
X1525Y722D01*
Y713D01*
X1737D01*
Y925D01*
D02*
G37*
G36*
X9737D02*
X9728D01*
X9684Y917D01*
X9643Y900D01*
X9606Y875D01*
X9575Y844D01*
X9550Y807D01*
X9533Y766D01*
X9525Y722D01*
Y713D01*
X9737D01*
Y925D01*
D02*
G37*
G36*
X3255Y787D02*
X3163D01*
Y695D01*
X3164D01*
X3191Y702D01*
X3215Y716D01*
X3234Y735D01*
X3248Y759D01*
X3255Y786D01*
Y787D01*
D02*
G37*
G36*
X3137D02*
X3045D01*
Y786D01*
X3052Y759D01*
X3066Y735D01*
X3085Y716D01*
X3109Y702D01*
X3136Y695D01*
X3137D01*
Y787D01*
D02*
G37*
G36*
X9975Y687D02*
X9763D01*
Y475D01*
X9772D01*
X9816Y483D01*
X9857Y500D01*
X9894Y525D01*
X9925Y556D01*
X9950Y593D01*
X9967Y634D01*
X9975Y678D01*
Y687D01*
D02*
G37*
G36*
X9737D02*
X9525D01*
Y678D01*
X9533Y634D01*
X9550Y593D01*
X9575Y556D01*
X9606Y525D01*
X9643Y500D01*
X9684Y483D01*
X9728Y475D01*
X9737D01*
Y687D01*
D02*
G37*
G36*
X5975Y687D02*
X5763D01*
Y475D01*
X5772D01*
X5816Y483D01*
X5857Y500D01*
X5894Y525D01*
X5925Y556D01*
X5950Y593D01*
X5967Y634D01*
X5975Y678D01*
Y687D01*
D02*
G37*
G36*
X5737D02*
X5525D01*
Y678D01*
X5533Y634D01*
X5550Y593D01*
X5575Y556D01*
X5606Y525D01*
X5643Y500D01*
X5684Y483D01*
X5728Y475D01*
X5737D01*
Y687D01*
D02*
G37*
G36*
X1975Y687D02*
X1763D01*
Y475D01*
X1772D01*
X1816Y483D01*
X1857Y500D01*
X1894Y525D01*
X1925Y556D01*
X1950Y593D01*
X1967Y634D01*
X1975Y678D01*
Y687D01*
D02*
G37*
G36*
X1737D02*
X1525D01*
Y678D01*
X1533Y634D01*
X1550Y593D01*
X1575Y556D01*
X1606Y525D01*
X1643Y500D01*
X1684Y483D01*
X1728Y475D01*
X1737D01*
Y687D01*
D02*
G37*
%LPD*%
D10*
X4606Y5444D02*
X4642Y5408D01*
X5310D01*
X5343Y5375D01*
X4520Y5444D02*
X4606D01*
X5343Y5375D02*
X5350D01*
X3924Y5576D02*
X3975Y5525D01*
X1824Y5576D02*
X3924D01*
X1750Y5650D02*
X1824Y5576D01*
X4575Y5025D02*
X5718D01*
X5794Y5101D01*
X5874D02*
X5875Y5100D01*
X5794Y5101D02*
X5874D01*
X1664Y4064D02*
X2150Y4550D01*
X2901D02*
X2974Y4477D01*
X1625Y4018D02*
X1664Y4057D01*
Y4064D01*
X1625Y3979D02*
Y4018D01*
X2150Y4550D02*
X2901D01*
X1625Y3471D02*
X1638Y3484D01*
X1825Y4057D02*
X2231Y4463D01*
X1734Y3484D02*
X1825Y3575D01*
X2301Y4458D02*
X2355Y4405D01*
X2231Y4463D02*
X2278D01*
X1638Y3484D02*
X1734D01*
X2278Y4463D02*
X2283Y4458D01*
X1825Y3575D02*
Y4057D01*
X2283Y4458D02*
X2301D01*
X3658Y5850D02*
X3825D01*
X4050Y5625D01*
Y5400D02*
Y5625D01*
X3508Y6000D02*
X3658Y5850D01*
X3900Y5250D02*
X4050Y5400D01*
X3425Y5250D02*
X3900D01*
X3225Y5050D02*
X3425Y5250D01*
X3564Y3904D02*
Y4696D01*
X4147Y1753D02*
X4282D01*
X3100Y4850D02*
X3410D01*
X3650Y2250D02*
Y3818D01*
X3564Y3904D02*
X3650Y3818D01*
X4285Y1750D02*
X4910D01*
X3000Y4950D02*
X3100Y4850D01*
X3650Y2250D02*
X4147Y1753D01*
X3410Y4850D02*
X3564Y4696D01*
X4282Y1753D02*
X4285Y1750D01*
X4520Y5194D02*
X5622D01*
X5666Y5150D02*
X5675D01*
X5622Y5194D02*
X5666Y5150D01*
X3397Y1750D02*
X3710D01*
X3397Y1052D02*
Y1750D01*
X3800Y2475D02*
Y3725D01*
X3085Y1750D02*
X3397D01*
X3605Y3920D02*
X3800Y3725D01*
X3397Y1052D02*
X3650Y800D01*
X3605Y3920D02*
Y5055D01*
X4100Y5325D02*
Y5675D01*
X3774Y6001D02*
X4100Y5675D01*
X3950Y5175D02*
X4100Y5325D01*
X3502Y5175D02*
X3950D01*
X3295Y4969D02*
X3502Y5175D01*
X2455Y3555D02*
Y4405D01*
Y3555D02*
X3105Y2905D01*
X3162Y2262D02*
Y4663D01*
X2510Y1750D02*
X2650D01*
X1885D02*
X2510D01*
X3150Y2250D02*
X3162Y2262D01*
X2950Y4875D02*
X3162Y4663D01*
X2650Y1750D02*
X3150Y2250D01*
X2255Y3130D02*
Y4405D01*
Y3130D02*
X2505Y2880D01*
X4723Y4848D02*
X4725Y4850D01*
X4723Y4496D02*
Y4848D01*
X6200Y4125D02*
X6800D01*
X4720Y4494D02*
X4723Y4496D01*
X2925Y4400D02*
X3050D01*
X1775Y4100D02*
X2175Y4500D01*
X2298D02*
X2825D01*
X1775Y3875D02*
Y4100D01*
X2211Y4500D02*
X2214Y4503D01*
X2295D02*
X2298Y4500D01*
X2214Y4503D02*
X2295D01*
X3100Y4450D02*
Y4550D01*
X3050Y4400D02*
X3100Y4450D01*
X2825Y4500D02*
X2925Y4400D01*
X3034Y4616D02*
X3100Y4550D01*
X3034Y4616D02*
X3034D01*
X1625Y3725D02*
X1775Y3875D01*
X2175Y4500D02*
X2211D01*
X6200Y4225D02*
X6800D01*
X3713Y4522D02*
X5111Y3125D01*
X5900D01*
X3702Y5325D02*
X3882Y5505D01*
X2325Y5325D02*
X3702D01*
X4525Y5350D02*
X5200D01*
X4250Y4650D02*
X5250Y3650D01*
X3725Y4650D02*
X4250D01*
X2375Y5425D02*
X3677D01*
X3770Y5519D01*
X4524Y5272D02*
X5322D01*
X5325Y5275D01*
X4520Y5269D02*
X4524Y5272D01*
X5100Y3025D02*
X5900D01*
X3717Y4408D02*
X5100Y3025D01*
X3710Y4444D02*
X3717Y4437D01*
Y4408D02*
Y4437D01*
X4425Y3030D02*
Y3042D01*
X5075Y2725D02*
X5078Y2722D01*
X6947D01*
X7425Y3200D01*
X6474Y3550D02*
X6555Y3630D01*
X4810Y3550D02*
X6474D01*
X4805Y3555D02*
X4810Y3550D01*
X10500Y2250D02*
X10500Y2250D01*
X10500Y2100D02*
Y2250D01*
D18*
X8321Y6718D02*
D03*
X8829D02*
D03*
X6246D02*
D03*
X6754D02*
D03*
X2246D02*
D03*
X2754D02*
D03*
D42*
X3000Y6000D02*
D03*
D43*
X3762D02*
D03*
X3254D02*
D03*
X3508D02*
D03*
X1625Y4233D02*
D03*
Y3725D02*
D03*
Y3471D02*
D03*
Y3979D02*
D03*
D44*
X8571Y1375D02*
D03*
D45*
X8825D02*
D03*
D46*
X11235Y2640D02*
D03*
X10815D02*
D03*
X11235Y1760D02*
D03*
X10815D02*
D03*
D48*
X3400Y2623D02*
D03*
X4600D02*
D03*
X2200D02*
D03*
D49*
X3400Y2877D02*
D03*
X4600D02*
D03*
X3400Y2250D02*
D03*
X3150Y800D02*
D03*
Y2250D02*
D03*
X3650Y800D02*
D03*
Y2250D02*
D03*
X2200Y2877D02*
D03*
D51*
X2850Y1500D02*
D03*
X3950D02*
D03*
D52*
X1625Y3217D02*
D03*
D53*
X9750Y6300D02*
D03*
X1750D02*
D03*
X9750Y700D02*
D03*
X1750D02*
D03*
X10750Y3500D02*
D03*
X750D02*
D03*
X5750Y6300D02*
D03*
Y700D02*
D03*
D56*
X8575Y1449D02*
Y1900D01*
X9993Y3318D01*
X2519Y6175D02*
X3079D01*
X3254Y6000D01*
X2119Y5775D02*
X2519Y6175D01*
X1331Y5368D02*
Y5631D01*
X1475Y5775D01*
X2119D01*
X5100Y2925D02*
X5900D01*
X4925Y3100D02*
X5100Y2925D01*
X4425Y2798D02*
Y3030D01*
X4483Y3100D02*
X4925D01*
X4425Y3042D02*
X4483Y3100D01*
X9993Y3318D02*
X10081D01*
X4425Y2798D02*
X4600Y2623D01*
D65*
X10869Y2489D02*
D03*
Y1911D02*
D03*
D66*
X4285Y1250D02*
D03*
X4910D02*
D03*
Y1750D02*
D03*
X4285D02*
D03*
X3085Y1250D02*
D03*
X3710D02*
D03*
Y1750D02*
D03*
X3085D02*
D03*
X1885Y1250D02*
D03*
X2510D02*
D03*
Y1750D02*
D03*
X1885D02*
D03*
D67*
X11036Y5332D02*
D03*
X11286Y4832D02*
D03*
X11036Y4332D02*
D03*
X11286Y3832D02*
D03*
X11036Y3332D02*
D03*
Y2332D02*
D03*
Y1332D02*
D03*
X10536Y5332D02*
D03*
X10786Y4832D02*
D03*
X10536Y4332D02*
D03*
X10786Y3832D02*
D03*
X10536Y3332D02*
D03*
Y2332D02*
D03*
Y1332D02*
D03*
X10036Y6332D02*
D03*
Y5332D02*
D03*
X10286Y4832D02*
D03*
X10036Y4332D02*
D03*
X10286Y3832D02*
D03*
X10036Y2332D02*
D03*
X10286Y1832D02*
D03*
X10036Y1332D02*
D03*
Y332D02*
D03*
X9786Y5832D02*
D03*
X9536Y5332D02*
D03*
X9786Y4832D02*
D03*
X9536Y4332D02*
D03*
X9786Y3832D02*
D03*
X9536Y2332D02*
D03*
Y1332D02*
D03*
Y332D02*
D03*
X9036Y5332D02*
D03*
X9286Y4832D02*
D03*
Y1832D02*
D03*
X9036Y1332D02*
D03*
X9286Y832D02*
D03*
X9036Y332D02*
D03*
X8786Y5832D02*
D03*
X8536Y5332D02*
D03*
Y4332D02*
D03*
X8786Y3832D02*
D03*
Y2832D02*
D03*
Y832D02*
D03*
X8536Y332D02*
D03*
X8036Y6332D02*
D03*
Y4332D02*
D03*
X8286Y3832D02*
D03*
Y2832D02*
D03*
Y1832D02*
D03*
X8036Y1332D02*
D03*
X8286Y832D02*
D03*
X8036Y332D02*
D03*
X7536Y6332D02*
D03*
X7786Y3832D02*
D03*
Y2832D02*
D03*
Y1832D02*
D03*
X7536Y1332D02*
D03*
X7786Y832D02*
D03*
X7536Y332D02*
D03*
X7036Y6332D02*
D03*
Y3332D02*
D03*
X7286Y2832D02*
D03*
Y1832D02*
D03*
X7036Y1332D02*
D03*
X7286Y832D02*
D03*
X7036Y332D02*
D03*
X6536Y3332D02*
D03*
X6786Y2832D02*
D03*
Y1832D02*
D03*
X6536Y1332D02*
D03*
X6786Y832D02*
D03*
X6536Y332D02*
D03*
X6036Y6332D02*
D03*
Y5332D02*
D03*
Y3332D02*
D03*
X6286Y2832D02*
D03*
X6036Y2332D02*
D03*
X6286Y1832D02*
D03*
X6036Y1332D02*
D03*
X6286Y832D02*
D03*
X6036Y332D02*
D03*
X5536Y5332D02*
D03*
Y4332D02*
D03*
X5786Y3832D02*
D03*
X5536Y3332D02*
D03*
Y2332D02*
D03*
X5786Y1832D02*
D03*
X5536Y1332D02*
D03*
Y332D02*
D03*
X5036Y6332D02*
D03*
X5286Y4832D02*
D03*
Y3832D02*
D03*
X5036Y3332D02*
D03*
Y2332D02*
D03*
X5286Y1832D02*
D03*
Y832D02*
D03*
X5036Y332D02*
D03*
X4536Y6332D02*
D03*
X4786Y5832D02*
D03*
X4536Y3332D02*
D03*
Y2332D02*
D03*
X4786Y1832D02*
D03*
X4536Y1332D02*
D03*
X4786Y832D02*
D03*
X4536Y332D02*
D03*
X4036Y6332D02*
D03*
X4286Y5832D02*
D03*
X4036Y3332D02*
D03*
X4286Y2832D02*
D03*
Y832D02*
D03*
X4036Y332D02*
D03*
X3536Y3332D02*
D03*
Y2332D02*
D03*
Y1332D02*
D03*
X3786Y832D02*
D03*
X3536Y332D02*
D03*
X3036Y6332D02*
D03*
X3286Y5832D02*
D03*
X3036Y2332D02*
D03*
X3286Y1832D02*
D03*
Y832D02*
D03*
X3036Y332D02*
D03*
X2786Y5832D02*
D03*
Y4832D02*
D03*
Y2832D02*
D03*
Y832D02*
D03*
X2536Y332D02*
D03*
X2036Y6332D02*
D03*
Y5332D02*
D03*
X2286Y4832D02*
D03*
X2036Y3332D02*
D03*
X2286Y1832D02*
D03*
X2036Y1332D02*
D03*
X2286Y832D02*
D03*
X2036Y332D02*
D03*
X1786Y2832D02*
D03*
X1536Y2332D02*
D03*
Y1332D02*
D03*
Y332D02*
D03*
X1286Y5832D02*
D03*
X1036Y5332D02*
D03*
Y4332D02*
D03*
X1286Y3832D02*
D03*
X1036Y3332D02*
D03*
X1286Y2832D02*
D03*
X1036Y2332D02*
D03*
X1286Y1832D02*
D03*
X1036Y1332D02*
D03*
X1286Y832D02*
D03*
X536Y5332D02*
D03*
X786Y4832D02*
D03*
X536Y4332D02*
D03*
X786Y3832D02*
D03*
X536Y3332D02*
D03*
X786Y2832D02*
D03*
X536Y2332D02*
D03*
X786Y1832D02*
D03*
X536Y1332D02*
D03*
X8791Y6154D02*
D03*
X8901Y6154D02*
D03*
X9011Y6154D02*
D03*
X9121Y6154D02*
D03*
X9231Y6154D02*
D03*
X9293Y6063D02*
D03*
X8980Y5991D02*
D03*
X8970Y5882D02*
D03*
X9367Y5806D02*
D03*
X9459Y5866D02*
D03*
X9514Y5961D02*
D03*
X9538Y6069D02*
D03*
X9526Y6178D02*
D03*
X9482Y6278D02*
D03*
X9407Y6359D02*
D03*
X9303Y6396D02*
D03*
X9193Y6396D02*
D03*
X9083Y6396D02*
D03*
X8973Y6396D02*
D03*
X8863Y6396D02*
D03*
X8454Y6485D02*
D03*
X8544Y6144D02*
D03*
X8652Y6166D02*
D03*
X8696Y6380D02*
D03*
Y6490D02*
D03*
X8205Y6404D02*
D03*
X8137Y6318D02*
D03*
X8136Y6208D02*
D03*
Y6098D02*
D03*
Y5988D02*
D03*
Y5878D02*
D03*
X8126Y5768D02*
D03*
X8066Y5676D02*
D03*
X7968Y5626D02*
D03*
X7858Y5621D02*
D03*
X7748D02*
D03*
X7638D02*
D03*
X7528D02*
D03*
X7418D02*
D03*
X7308D02*
D03*
X7198D02*
D03*
X7088D02*
D03*
X6978D02*
D03*
X6868D02*
D03*
X6758D02*
D03*
X6648Y5624D02*
D03*
X6540Y5641D02*
D03*
X6430D02*
D03*
X6320D02*
D03*
X6224Y5586D02*
D03*
X6219Y5476D02*
D03*
X6256Y5373D02*
D03*
X6694Y5379D02*
D03*
X6804D02*
D03*
X6914D02*
D03*
X7024D02*
D03*
X7134D02*
D03*
X7244D02*
D03*
X7354D02*
D03*
X7464D02*
D03*
X7574D02*
D03*
X7684D02*
D03*
X7794D02*
D03*
X7904D02*
D03*
X8014Y5388D02*
D03*
X8118Y5422D02*
D03*
X8211Y5481D02*
D03*
X8288Y5560D02*
D03*
X8342Y5655D02*
D03*
X8373Y5761D02*
D03*
X8379Y5871D02*
D03*
Y5981D02*
D03*
Y6091D02*
D03*
X8318Y6403D02*
D03*
X6379Y6477D02*
D03*
Y6367D02*
D03*
Y6257D02*
D03*
Y6147D02*
D03*
X6468Y5819D02*
D03*
X6578D02*
D03*
X6673Y6062D02*
D03*
X6621Y6160D02*
D03*
Y6270D02*
D03*
Y6380D02*
D03*
Y6490D02*
D03*
X6652Y5824D02*
D03*
X6759Y5798D02*
D03*
X6869D02*
D03*
X6979D02*
D03*
X7089D02*
D03*
X7199D02*
D03*
X7309D02*
D03*
X7419D02*
D03*
X7725Y5858D02*
D03*
X7728Y5968D02*
D03*
X7322Y6040D02*
D03*
X7212D02*
D03*
X7102D02*
D03*
X6992D02*
D03*
X6882D02*
D03*
X6778Y6078D02*
D03*
X6227Y6071D02*
D03*
X6117D02*
D03*
X6007D02*
D03*
X5897D02*
D03*
X5567D02*
D03*
X5457D02*
D03*
X5347D02*
D03*
X5237D02*
D03*
X5128Y6059D02*
D03*
X5026Y6017D02*
D03*
X4939Y5950D02*
D03*
X4875Y5861D02*
D03*
X4838Y5757D02*
D03*
X4829Y5648D02*
D03*
X4730Y5599D02*
D03*
X4719Y5490D02*
D03*
X5181Y5513D02*
D03*
X5153Y5620D02*
D03*
X5073Y5696D02*
D03*
X5126Y5792D02*
D03*
X5230Y5829D02*
D03*
X5340D02*
D03*
X5450D02*
D03*
X5560D02*
D03*
X5670D02*
D03*
X5780D02*
D03*
X5890D02*
D03*
X6000D02*
D03*
X6110D02*
D03*
X6220D02*
D03*
X6330Y5819D02*
D03*
X6368Y6078D02*
D03*
X2382Y6437D02*
D03*
X2372Y6328D02*
D03*
X2317Y6233D02*
D03*
X2257Y6140D02*
D03*
X2244Y6031D02*
D03*
X2498Y5970D02*
D03*
X2609Y6272D02*
D03*
X2630Y6380D02*
D03*
X2621Y6490D02*
D03*
X1750Y5650D02*
D03*
X4520Y5444D02*
D03*
X5350Y5375D02*
D03*
X3975Y5525D02*
D03*
X4575Y5025D02*
D03*
X5875Y5100D02*
D03*
X2974Y4477D02*
D03*
X2355Y4405D02*
D03*
X3225Y5050D02*
D03*
X3000Y4950D02*
D03*
X4520Y5194D02*
D03*
X5675Y5150D02*
D03*
X3605Y5055D02*
D03*
X3800Y2475D02*
D03*
X1331Y5368D02*
D03*
X3295Y4969D02*
D03*
X2455Y4405D02*
D03*
X3105Y2905D02*
D03*
X2950Y4875D02*
D03*
X2505Y2880D02*
D03*
X2255Y4405D02*
D03*
X4720Y4494D02*
D03*
X4725Y4850D02*
D03*
X6200Y4125D02*
D03*
X6800D02*
D03*
X3034Y4616D02*
D03*
X6200Y4225D02*
D03*
X6800D02*
D03*
X3713Y4522D02*
D03*
X5900Y3125D02*
D03*
X5200Y5350D02*
D03*
X4525D02*
D03*
X2325Y5325D02*
D03*
X3882Y5505D02*
D03*
X5250Y3650D02*
D03*
X3725Y4650D02*
D03*
X2375Y5425D02*
D03*
X4520Y5269D02*
D03*
X5325Y5275D02*
D03*
X3770Y5519D02*
D03*
X3710Y4444D02*
D03*
X5900Y3025D02*
D03*
Y2925D02*
D03*
X4425Y3030D02*
D03*
X3282Y3786D02*
D03*
X2082Y3611D02*
D03*
X3425Y4075D02*
D03*
X6995Y4192D02*
D03*
X10275Y3135D02*
D03*
X10081Y3318D02*
D03*
X5075Y2725D02*
D03*
X7438Y3222D02*
D03*
X6555Y3630D02*
D03*
X4805Y3555D02*
D03*
X10500Y2250D02*
D03*
X10500Y2100D02*
D03*
M02*
