M48
;Layer_Color=9474304
;FILE_FORMAT=4:2
METRIC,LZ
;TYPE=PLATED
T01F00S00C0.30
T03F00S00C0.90
T04F00S00C1.00
T05F00S00C1.14
T06F00S00C1.20
T08F00S00C2.50
;TYPE=NON_PLATED
T09F00S00C0.75
%
T01
X009536Y000332
X010036
Y001332
X010536
X011036
Y002332
X010536
X0105Y00225
X0105Y0021
X010286Y001832
X010036Y002332
X009536
Y001332
X010081Y003318
X010275Y003135
X010536Y003332
X011036
X011286Y003832
X010786
X010286
X009786
X008786
X008286
X007786
X007438Y003222
X007036Y003332
X006536
X006555Y00363
X0068Y004125
Y004225
X006995Y004192
X0062Y004225
Y004125
X005786Y003832
X006036Y003332
X0059Y003125
Y003025
Y002925
X006286Y002832
X006786
X007286
X007786
X008286
X008786
X009286Y001832
X009036Y001332
X009286Y000832
X008786
X008286
X007786
X007286
X006786
X006286
X006536Y001332
X007036
X007536
X008036
X008286Y001832
X007786
X007286
X006786
X006286
X005786
X006036Y002332
X005536
Y003332
Y001332
X006036
Y000332
X006536
X007036
X007536
X008036
X008536
X009036
X005536
X005036
X004536
X004036
X003536
X003036
X002536
X002036
X001536
Y001332
X002036
X002286Y001832
X003286
X003536Y002332
X0038Y002475
X004286Y002832
X004425Y00303
X004536Y003332
X004805Y003555
X005036Y003332
X00525Y00365
X005286Y003832
X005075Y002725
X005036Y002332
X004536
X004786Y001832
X005286
Y000832
X004786
X004286
X003786
X003286
X002786
X002286
X003536Y001332
X004536
X004036Y003332
X003536
X003282Y003786
X003425Y004075
X003105Y002905
X002786Y002832
X002505Y00288
X001786Y002832
X002036Y003332
X002082Y003611
X001536Y002332
X003036
X001036
X000536
X000786Y002832
X001286
X001036Y003332
X000536
X000786Y003832
X001286
Y001832
X000786
X001036Y001332
X000536
X001286Y000832
X001036Y004332
X000536
X000786Y004832
X001036Y005332
X001331Y005368
X001286Y005832
X000536Y005332
X002036
X002325Y005325
X002375Y005425
X002498Y00597
X002244Y006031
X002257Y00614
X002317Y006233
X002372Y006328
X002382Y006437
X002621Y00649
X00263Y00638
X002609Y006272
X003036Y006332
X003286Y005832
X002786
Y004832
X00295Y004875
X003Y00495
X003295Y004969
X003225Y00505
X003605Y005055
X003725Y00465
X003713Y004522
X00371Y004444
X002974Y004477
X003034Y004616
X002455Y004405
X002355
X002255
X002286Y004832
X00175Y00565
X002036Y006332
X004036
X004536
X005036
X005026Y006017
X005128Y006059
X005237Y006071
X005347
X00534Y005829
X00523
X005126Y005792
X005073Y005696
X005153Y00562
X005181Y005513
X0052Y00535
X00535Y005375
X005325Y005275
X005286Y004832
X004725Y00485
X004575Y005025
X00452Y005194
Y005269
X004525Y00535
X00452Y005444
X004719Y00549
X00473Y005599
X004829Y005648
X004838Y005757
X004786Y005832
X004875Y005861
X004939Y00595
X004286Y005832
X003975Y005525
X003882Y005505
X00377Y005519
X00472Y004494
X005536Y004332
X005675Y00515
X005875Y0051
X006036Y005332
X006256Y005373
X006219Y005476
X006224Y005586
X00632Y005641
X00643
X00654
X006648Y005624
X006758Y005621
X006868
X006978
X007088
X007198
X007308
X007418
X007528
X007638
X007748
X007858
X007968Y005626
X008066Y005676
X008126Y005768
X008136Y005878
Y005988
Y006098
Y006208
X008137Y006318
X008036Y006332
X008205Y006404
X008318Y006403
X008454Y006485
X008696Y00649
Y00638
X008863Y006396
X008973Y006396
X009083Y006396
X009193Y006396
X009303Y006396
X009231Y006154
X009121Y006154
X009011Y006154
X008901Y006154
X008791Y006154
X008652Y006166
X008544Y006144
X008379Y006091
Y005981
Y005871
X008373Y005761
X008342Y005655
X008288Y00556
X008211Y005481
X008118Y005422
X008014Y005388
X007904Y005379
X007794
X007684
X007574
X007464
X007354
X007244
X007134
X007024
X006914
X006804
X006694
X006759Y005798
X006869
X006979
X007089
X007199
X007309
X007419
X007322Y00604
X007212
X007102
X006992
X006882
X006778Y006078
X006673Y006062
X006621Y00616
Y00627
Y00638
Y00649
X006379Y006477
Y006367
Y006257
Y006147
X006368Y006078
X006227Y006071
X006117
X006007
X005897
X00589Y005829
X00578
X00567
X00556
X00545
X005457Y006071
X005567
X006Y005829
X00611
X00622
X00633Y005819
X006468
X006578
X006652Y005824
X007036Y006332
X007536
X007728Y005968
X007725Y005858
X008786Y005832
X00897Y005882
X00898Y005991
X009293Y006063
X009367Y005806
X009036Y005332
X008536
Y004332
X008036
X009286Y004832
X005536Y005332
X006036Y006332
X009407Y006359
X009482Y006278
X009526Y006178
X009538Y006069
X009514Y005961
X009459Y005866
X009786Y005832
X010036Y006332
Y005332
X010536
X011036
X011286Y004832
X010786
X010286
X009786
X010036Y004332
X010536
X011036
X009536
Y005332
T03
X0022Y002623
X0034
X0046
T04
X008571Y001375
X008825
X0046Y002877
X0034
Y00225
X00315
X00365
Y0008
X00315
X0022Y002877
T05
X001625Y003217
Y003471
Y003725
Y003979
Y004233
X003Y006
X003254
X003508
X003762
T06
X001885Y00125
Y00175
X00251
Y00125
X003085
Y00175
X00371
Y00125
X004285
Y00175
X00491
Y00125
T08
X00975Y0007
X01075Y0035
X00575Y0007
X00175
X00075Y0035
X00175Y0063
X00575
X00975
T09
X010869Y001911
Y002489
M30
