G04*
G04 #@! TF.GenerationSoftware,Altium Limited,Altium Designer,26.6.0 (10)*
G04*
G04 Layer_Color=8388736*
G04 Board_Origin=25492126|14370078*
%FSLAX42Y42*%
%MOMM*%
G71*
G04*
G04 #@! TF.SameCoordinates,F1AEA7B7-EF65-44AA-83E2-7B156C2E8358*
G04*
G04*
G04 #@! TF.FilePolarity,Negative*
G04*
G01*
G75*
%ADD17R,1.50X3.81*%
%ADD18R,1.60X4.90*%
%ADD20R,0.95X0.60*%
%ADD21R,0.60X0.95*%
%ADD25R,1.00X1.45*%
G04:AMPARAMS|DCode=26|XSize=1.27mm|YSize=0.31mm|CornerRadius=0.08mm|HoleSize=0mm|Usage=FLASHONLY|Rotation=180.000|XOffset=0mm|YOffset=0mm|HoleType=Round|Shape=RoundedRectangle|*
%AMROUNDEDRECTD26*
21,1,1.27,0.15,0,0,180.0*
21,1,1.11,0.31,0,0,180.0*
1,1,0.16,-0.55,0.07*
1,1,0.16,0.55,0.07*
1,1,0.16,0.55,-0.07*
1,1,0.16,-0.55,-0.07*
%
%ADD26ROUNDEDRECTD26*%
%ADD27R,0.80X1.00*%
%ADD28R,1.45X1.00*%
%ADD30R,0.60X1.00*%
G04:AMPARAMS|DCode=31|XSize=2mm|YSize=1mm|CornerRadius=0.25mm|HoleSize=0mm|Usage=FLASHONLY|Rotation=180.000|XOffset=0mm|YOffset=0mm|HoleType=Round|Shape=RoundedRectangle|*
%AMROUNDEDRECTD31*
21,1,2.00,0.50,0,0,180.0*
21,1,1.50,1.00,0,0,180.0*
1,1,0.50,-0.75,0.25*
1,1,0.50,0.75,0.25*
1,1,0.50,0.75,-0.25*
1,1,0.50,-0.75,-0.25*
%
%ADD31ROUNDEDRECTD31*%
%ADD32R,1.00X0.80*%
G04:AMPARAMS|DCode=33|XSize=2.27mm|YSize=1.65mm|CornerRadius=0.25mm|HoleSize=0mm|Usage=FLASHONLY|Rotation=0.000|XOffset=0mm|YOffset=0mm|HoleType=Round|Shape=RoundedRectangle|*
%AMROUNDEDRECTD33*
21,1,2.27,1.16,0,0,0.0*
21,1,1.78,1.65,0,0,0.0*
1,1,0.50,0.89,-0.58*
1,1,0.50,-0.89,-0.58*
1,1,0.50,-0.89,0.58*
1,1,0.50,0.89,0.58*
%
%ADD33ROUNDEDRECTD33*%
%ADD34R,0.66X2.54*%
%ADD35R,3.00X1.20*%
%ADD36R,0.80X1.60*%
G04:AMPARAMS|DCode=37|XSize=0.97mm|YSize=0.67mm|CornerRadius=0.2mm|HoleSize=0mm|Usage=FLASHONLY|Rotation=0.000|XOffset=0mm|YOffset=0mm|HoleType=Round|Shape=RoundedRectangle|*
%AMROUNDEDRECTD37*
21,1,0.97,0.28,0,0,0.0*
21,1,0.58,0.67,0,0,0.0*
1,1,0.40,0.29,-0.14*
1,1,0.40,-0.29,-0.14*
1,1,0.40,-0.29,0.14*
1,1,0.40,0.29,0.14*
%
%ADD37ROUNDEDRECTD37*%
G04:AMPARAMS|DCode=38|XSize=0.44mm|YSize=1.59mm|CornerRadius=0.12mm|HoleSize=0mm|Usage=FLASHONLY|Rotation=270.000|XOffset=0mm|YOffset=0mm|HoleType=Round|Shape=RoundedRectangle|*
%AMROUNDEDRECTD38*
21,1,0.44,1.36,0,0,270.0*
21,1,0.21,1.59,0,0,270.0*
1,1,0.23,-0.68,-0.11*
1,1,0.23,-0.68,0.11*
1,1,0.23,0.68,0.11*
1,1,0.23,0.68,-0.11*
%
%ADD38ROUNDEDRECTD38*%
G04:AMPARAMS|DCode=39|XSize=1.94mm|YSize=1.34mm|CornerRadius=0.19mm|HoleSize=0mm|Usage=FLASHONLY|Rotation=90.000|XOffset=0mm|YOffset=0mm|HoleType=Round|Shape=RoundedRectangle|*
%AMROUNDEDRECTD39*
21,1,1.94,0.96,0,0,90.0*
21,1,1.56,1.34,0,0,90.0*
1,1,0.38,0.48,0.78*
1,1,0.38,0.48,-0.78*
1,1,0.38,-0.48,-0.78*
1,1,0.38,-0.48,0.78*
%
%ADD39ROUNDEDRECTD39*%
G04:AMPARAMS|DCode=40|XSize=1.94mm|YSize=1.64mm|CornerRadius=0.22mm|HoleSize=0mm|Usage=FLASHONLY|Rotation=270.000|XOffset=0mm|YOffset=0mm|HoleType=Round|Shape=RoundedRectangle|*
%AMROUNDEDRECTD40*
21,1,1.94,1.20,0,0,270.0*
21,1,1.50,1.64,0,0,270.0*
1,1,0.44,-0.60,-0.75*
1,1,0.44,-0.60,0.75*
1,1,0.44,0.60,0.75*
1,1,0.44,0.60,-0.75*
%
%ADD40ROUNDEDRECTD40*%
G04:AMPARAMS|DCode=41|XSize=0.97mm|YSize=0.67mm|CornerRadius=0.2mm|HoleSize=0mm|Usage=FLASHONLY|Rotation=90.000|XOffset=0mm|YOffset=0mm|HoleType=Round|Shape=RoundedRectangle|*
%AMROUNDEDRECTD41*
21,1,0.97,0.28,0,0,90.0*
21,1,0.58,0.67,0,0,90.0*
1,1,0.40,0.14,0.29*
1,1,0.40,0.14,-0.29*
1,1,0.40,-0.14,-0.29*
1,1,0.40,-0.14,0.29*
%
%ADD41ROUNDEDRECTD41*%
%ADD42R,1.71X1.71*%
%ADD43C,1.71*%
%ADD44R,1.45X1.45*%
%ADD45C,1.45*%
%ADD46O,1.80X1.00*%
%ADD47C,0.89*%
%ADD48R,1.60X1.60*%
%ADD49C,1.60*%
%ADD50C,2.10*%
%ADD51C,3.20*%
%ADD52R,1.71X1.71*%
%ADD53C,4.00*%
D17*
X8575Y6748D02*
D03*
X6500D02*
D03*
X2500D02*
D03*
D18*
X8321Y6718D02*
D03*
X8829D02*
D03*
X6246D02*
D03*
X6754D02*
D03*
X2246D02*
D03*
X2754D02*
D03*
D20*
X4275Y2125D02*
D03*
Y1975D02*
D03*
X9800Y3125D02*
D03*
Y3275D02*
D03*
X9275Y3125D02*
D03*
Y3275D02*
D03*
X4875Y2725D02*
D03*
Y2875D02*
D03*
X2500Y1975D02*
D03*
Y2125D02*
D03*
Y2625D02*
D03*
Y2775D02*
D03*
X3100Y2625D02*
D03*
Y2775D02*
D03*
X1325Y4925D02*
D03*
Y4775D02*
D03*
X3750Y6250D02*
D03*
Y6400D02*
D03*
X3500D02*
D03*
Y6250D02*
D03*
D21*
X4050Y2475D02*
D03*
X3900D02*
D03*
X10375Y2900D02*
D03*
X10225D02*
D03*
X10050Y2775D02*
D03*
X9900D02*
D03*
X9825Y3400D02*
D03*
X9975D02*
D03*
X9425Y2975D02*
D03*
X9575D02*
D03*
X6825Y3300D02*
D03*
X6675D02*
D03*
D25*
X10270Y2450D02*
D03*
X10430D02*
D03*
X6455Y3575D02*
D03*
X6295D02*
D03*
D26*
X9774Y2100D02*
D03*
Y2250D02*
D03*
Y2300D02*
D03*
X10176D02*
D03*
Y2250D02*
D03*
Y2150D02*
D03*
Y2100D02*
D03*
Y2200D02*
D03*
X9774D02*
D03*
Y2150D02*
D03*
D27*
X9793Y1950D02*
D03*
X9657D02*
D03*
X8393Y6275D02*
D03*
X8257D02*
D03*
X6582Y5950D02*
D03*
X6718D02*
D03*
X6443D02*
D03*
X6308D02*
D03*
X8693Y6275D02*
D03*
X8557D02*
D03*
D28*
X9625Y2445D02*
D03*
Y2605D02*
D03*
X9975Y3255D02*
D03*
Y3095D02*
D03*
X6950Y3895D02*
D03*
Y4055D02*
D03*
X3550Y3745D02*
D03*
Y3905D02*
D03*
X2925Y3720D02*
D03*
Y3880D02*
D03*
D30*
X9435Y3125D02*
D03*
X9530Y3365D02*
D03*
X9625Y3125D02*
D03*
X2380Y3205D02*
D03*
X2570D02*
D03*
X2475Y3445D02*
D03*
D31*
X9150Y3786D02*
D03*
Y3913D02*
D03*
Y4675D02*
D03*
Y5792D02*
D03*
Y6046D02*
D03*
X7550Y3913D02*
D03*
Y4040D02*
D03*
Y4167D02*
D03*
Y6046D02*
D03*
Y5919D02*
D03*
Y5792D02*
D03*
Y4675D02*
D03*
Y4548D02*
D03*
Y3786D02*
D03*
X9150Y5919D02*
D03*
Y4167D02*
D03*
Y4040D02*
D03*
X7550Y4421D02*
D03*
Y4294D02*
D03*
X9150Y4421D02*
D03*
Y4548D02*
D03*
Y4294D02*
D03*
D32*
X3750Y3758D02*
D03*
Y3892D02*
D03*
X1325Y5610D02*
D03*
Y5475D02*
D03*
X2375Y6042D02*
D03*
Y5908D02*
D03*
X6725Y3883D02*
D03*
Y4017D02*
D03*
X7325Y3783D02*
D03*
Y3917D02*
D03*
D33*
X2692Y3750D02*
D03*
X2258D02*
D03*
D34*
X1752Y4775D02*
D03*
X1625Y5461D02*
D03*
X1879Y4775D02*
D03*
Y5461D02*
D03*
X1625Y4775D02*
D03*
X1498Y5461D02*
D03*
Y4775D02*
D03*
X1752Y5461D02*
D03*
D35*
X4950Y4100D02*
D03*
Y4300D02*
D03*
Y4900D02*
D03*
Y5500D02*
D03*
X6450D02*
D03*
Y3900D02*
D03*
Y4100D02*
D03*
Y5300D02*
D03*
X4950D02*
D03*
Y5100D02*
D03*
Y3900D02*
D03*
X6450Y4500D02*
D03*
Y4300D02*
D03*
X4950Y4700D02*
D03*
Y4500D02*
D03*
X6450Y4900D02*
D03*
Y5100D02*
D03*
Y4700D02*
D03*
D36*
X2490Y5650D02*
D03*
X2363D02*
D03*
X2236Y4250D02*
D03*
X2363D02*
D03*
X2236Y5650D02*
D03*
X3252D02*
D03*
X2998D02*
D03*
X2871D02*
D03*
X2744D02*
D03*
X2617D02*
D03*
X2490Y4250D02*
D03*
X2617D02*
D03*
X2744D02*
D03*
X2871D02*
D03*
X2998D02*
D03*
X3125D02*
D03*
X3379D02*
D03*
X3506D02*
D03*
X3760D02*
D03*
X3887D02*
D03*
X4014D02*
D03*
X3252D02*
D03*
X3887Y5650D02*
D03*
X3125D02*
D03*
X3633D02*
D03*
X3379D02*
D03*
X3760D02*
D03*
X4014D02*
D03*
X3506D02*
D03*
X3633Y4250D02*
D03*
D37*
X10055Y2650D02*
D03*
X10055Y2450D02*
D03*
X9795D02*
D03*
X9795Y2650D02*
D03*
X10055Y2550D02*
D03*
X6670Y3650D02*
D03*
X6930Y3450D02*
D03*
X6930Y3650D02*
D03*
X6670Y3550D02*
D03*
X6670Y3450D02*
D03*
X3145Y3700D02*
D03*
X3145Y3900D02*
D03*
X3405Y3700D02*
D03*
X3145Y3800D02*
D03*
X3405Y3900D02*
D03*
D38*
X10725Y1970D02*
D03*
Y2025D02*
D03*
Y2125D02*
D03*
Y2275D02*
D03*
Y2375D02*
D03*
Y2430D02*
D03*
Y2460D02*
D03*
Y2325D02*
D03*
Y2225D02*
D03*
Y2175D02*
D03*
Y2075D02*
D03*
Y1940D02*
D03*
Y1890D02*
D03*
Y2540D02*
D03*
Y2510D02*
D03*
Y1860D02*
D03*
D39*
X11233Y2708D02*
D03*
Y1692D02*
D03*
D40*
X10815D02*
D03*
Y2708D02*
D03*
D41*
X10175Y3305D02*
D03*
X10375Y3305D02*
D03*
Y3045D02*
D03*
X10175Y3045D02*
D03*
X10275Y3305D02*
D03*
D42*
X3000Y6000D02*
D03*
D43*
X3762D02*
D03*
X3254D02*
D03*
X3508D02*
D03*
X1625Y4233D02*
D03*
Y3725D02*
D03*
Y3471D02*
D03*
Y3979D02*
D03*
D44*
X8571Y1375D02*
D03*
D45*
X8825D02*
D03*
D46*
X11235Y2640D02*
D03*
X10815D02*
D03*
X11235Y1760D02*
D03*
X10815D02*
D03*
D47*
X10869Y2489D02*
D03*
Y1911D02*
D03*
D48*
X3400Y2623D02*
D03*
X4600D02*
D03*
X2200D02*
D03*
D49*
X3400Y2877D02*
D03*
X4600D02*
D03*
X3400Y2250D02*
D03*
X3150Y800D02*
D03*
Y2250D02*
D03*
X3650Y800D02*
D03*
Y2250D02*
D03*
X2200Y2877D02*
D03*
D50*
X4285Y1250D02*
D03*
X4910D02*
D03*
Y1750D02*
D03*
X4285D02*
D03*
X3085Y1250D02*
D03*
X3710D02*
D03*
Y1750D02*
D03*
X3085D02*
D03*
X1885Y1250D02*
D03*
X2510D02*
D03*
Y1750D02*
D03*
X1885D02*
D03*
D51*
X2850Y1500D02*
D03*
X3950D02*
D03*
D52*
X1625Y3217D02*
D03*
D53*
X9750Y6300D02*
D03*
X1750D02*
D03*
X9750Y700D02*
D03*
X1750D02*
D03*
X10750Y3500D02*
D03*
X750D02*
D03*
X5750Y6300D02*
D03*
Y700D02*
D03*
M02*
