M48
;Layer_Color=9474304
;FILE_FORMAT=4:2
METRIC,LZ
;TYPE=PLATED
T1F00S00C0.50
%
T01
X00035Y00023
X00065
X00095
X00125
X00155
X00185
X00215
X00245
X00275
X00305
X00335
X00365
X00395
X00425
X00065Y00053
X00455Y00023
X00485
X00515
X00545
X00575
X00605
X00545Y00053
Y00143
Y00173
X00575
X00605
X00515
X00485
X00455
X00425
X00395
X00365
X00335
X00305
X00275
X00245
X00215
X00185
X00155
X00125
X00095
X00065
Y00143
X00035Y00173
M30
