G04*
G04 #@! TF.GenerationSoftware,Altium Limited,Altium Designer,23.0.1 (38)*
G04*
G04 Layer_Physical_Order=1*
G04 Layer_Color=255*
%FSLAX42Y42*%
%MOMM*%
G71*
G04*
G04 #@! TF.SameCoordinates,E53F6042-A66D-4D92-81F6-FC70AAD72E81*
G04*
G04*
G04 #@! TF.FilePolarity,Positive*
G04*
G01*
G75*
%ADD11C,0.25*%
%ADD14R,0.95X0.60*%
%ADD15R,0.80X1.60*%
%ADD16R,4.90X1.60*%
%ADD17R,3.81X1.50*%
%ADD18R,0.80X1.00*%
%ADD19R,1.00X0.80*%
%ADD20R,0.74X1.02*%
%ADD35C,0.50*%
%ADD36C,0.80*%
%ADD37R,1.60X1.60*%
%ADD38C,1.60*%
%ADD39R,1.50X1.50*%
%ADD40C,1.50*%
%ADD41C,1.71*%
%ADD42R,1.71X1.71*%
%ADD43C,2.00*%
%ADD44C,0.60*%
G36*
X5549Y3366D02*
X5520Y3347D01*
X5499Y3340D01*
X5480Y3347D01*
X5454Y3351D01*
X5428Y3347D01*
X5404Y3337D01*
X5383Y3321D01*
X5367Y3300D01*
X5357Y3276D01*
X5353Y3253D01*
X5353Y3250D01*
X5350Y3248D01*
X5300Y3274D01*
Y3350D01*
X5100D01*
Y3204D01*
X4984Y3088D01*
X4915D01*
X4869Y3112D01*
X4885Y3158D01*
X4885D01*
Y3258D01*
X4885Y3267D01*
Y3308D01*
X4885Y3317D01*
Y3417D01*
X4603D01*
Y3413D01*
X4548D01*
X4546Y3414D01*
X4525Y3419D01*
X4504Y3414D01*
X4502Y3413D01*
X4459D01*
X4324Y3549D01*
X4307Y3560D01*
X4288Y3563D01*
X3760D01*
X3670Y3654D01*
X3699Y3696D01*
X3717Y3688D01*
X3750Y3684D01*
X3783Y3688D01*
X3813Y3701D01*
X3839Y3721D01*
X3859Y3747D01*
X3872Y3777D01*
X3876Y3810D01*
X3872Y3843D01*
X3869Y3850D01*
X3896Y3898D01*
X3900Y3900D01*
X3975D01*
Y3885D01*
X4030D01*
Y3975D01*
Y4065D01*
X3975D01*
Y4050D01*
X3855D01*
Y4013D01*
X3838D01*
X3823Y4010D01*
X3810Y4002D01*
X3756Y3948D01*
X3748Y3936D01*
X3717Y3932D01*
X3687Y3919D01*
X3673Y3909D01*
X3635Y3880D01*
X3490D01*
Y3862D01*
X3432D01*
X3432Y3866D01*
X3421Y3893D01*
X3403Y3916D01*
X3380Y3934D01*
X3353Y3945D01*
X3324Y3949D01*
X3295Y3945D01*
X3268Y3934D01*
X3245Y3916D01*
X3227Y3893D01*
X3224Y3884D01*
X3170D01*
X3167Y3893D01*
X3149Y3916D01*
X3126Y3934D01*
X3099Y3945D01*
X3070Y3949D01*
X3041Y3945D01*
X3014Y3934D01*
X2991Y3916D01*
X2973Y3893D01*
X2970Y3884D01*
X2916D01*
X2913Y3893D01*
X2895Y3916D01*
X2872Y3934D01*
X2845Y3945D01*
X2816Y3949D01*
X2787Y3945D01*
X2760Y3934D01*
X2737Y3916D01*
X2726Y3901D01*
X2691Y3899D01*
X2670Y3903D01*
X2652Y3927D01*
X2625Y3947D01*
X2595Y3960D01*
X2587Y3961D01*
Y3838D01*
X2537D01*
Y3961D01*
X2529Y3960D01*
X2499Y3947D01*
X2472Y3927D01*
X2454Y3903D01*
X2433Y3899D01*
X2398Y3901D01*
X2387Y3916D01*
X2364Y3934D01*
X2337Y3945D01*
X2308Y3949D01*
X2279Y3945D01*
X2252Y3934D01*
X2229Y3916D01*
X2211Y3893D01*
X2208Y3884D01*
X2154D01*
X2151Y3893D01*
X2133Y3916D01*
X2110Y3934D01*
X2083Y3945D01*
X2054Y3949D01*
X2025Y3945D01*
X1998Y3934D01*
X1975Y3916D01*
X1960Y3897D01*
X1955Y3897D01*
X1910Y3929D01*
Y3948D01*
X1690D01*
Y3727D01*
X1838D01*
X1926Y3639D01*
X1943Y3628D01*
X1962Y3624D01*
X3490D01*
Y3620D01*
X3560D01*
X3703Y3476D01*
X3720Y3465D01*
X3739Y3462D01*
X4266D01*
X4401Y3326D01*
X4418Y3315D01*
X4438Y3312D01*
X4502D01*
X4504Y3311D01*
X4525Y3306D01*
X4546Y3311D01*
X4593Y3296D01*
X4603Y3267D01*
X4603Y3258D01*
Y3158D01*
X4603D01*
X4619Y3112D01*
X4573Y3088D01*
X4411D01*
X4382Y3138D01*
X4386Y3148D01*
X4388Y3160D01*
X4250D01*
X4112D01*
X4114Y3148D01*
X4118Y3138D01*
X4089Y3088D01*
X3896D01*
X3886Y3097D01*
X3866Y3138D01*
X3872Y3152D01*
X3876Y3185D01*
X3872Y3218D01*
X3859Y3248D01*
X3839Y3274D01*
X3813Y3294D01*
X3783Y3307D01*
X3750Y3311D01*
X3717Y3307D01*
X3687Y3294D01*
X3661Y3274D01*
X3641Y3248D01*
X3628Y3218D01*
X3624Y3185D01*
X3628Y3152D01*
X3634Y3138D01*
X3614Y3097D01*
X3604Y3088D01*
X1725D01*
X1710Y3085D01*
X1698Y3077D01*
X1344Y2723D01*
X1336Y2711D01*
X1333Y2696D01*
Y2655D01*
X1070D01*
Y2670D01*
X1015D01*
Y2550D01*
Y2430D01*
X1070D01*
X1079Y2384D01*
Y2370D01*
X1082Y2356D01*
X1090Y2343D01*
X1310Y2123D01*
X1323Y2115D01*
X1338Y2112D01*
X1480D01*
X1499Y2066D01*
X713Y1280D01*
X705Y1267D01*
X703Y1255D01*
X671D01*
Y1045D01*
X1001D01*
X1535Y510D01*
X1548Y502D01*
X1562Y499D01*
X2075D01*
X2090Y502D01*
X2102Y510D01*
X2142Y550D01*
X2150Y563D01*
X2153Y578D01*
Y584D01*
X2160Y585D01*
X2186Y596D01*
X2208Y613D01*
X2225Y635D01*
X2235Y660D01*
X2282Y649D01*
Y582D01*
X2492D01*
Y637D01*
X3625D01*
X3645Y640D01*
X3661Y651D01*
X3761Y751D01*
X3772Y768D01*
X3776Y788D01*
Y879D01*
X3804Y897D01*
X3826Y906D01*
X3846Y898D01*
X3873Y894D01*
X3900Y898D01*
X3926Y908D01*
X3948Y925D01*
X3965Y947D01*
X3975Y973D01*
X4022Y961D01*
Y895D01*
X4232D01*
Y909D01*
X4265Y945D01*
X4410D01*
Y1010D01*
X4460Y1030D01*
X4562Y928D01*
X4579Y917D01*
X4599Y913D01*
X5113D01*
X5129Y893D01*
X5150Y877D01*
X5174Y867D01*
X5200Y863D01*
X5226Y867D01*
X5250Y877D01*
X5271Y893D01*
X5287Y914D01*
X5293Y927D01*
X5325Y931D01*
X5327Y931D01*
X5345Y927D01*
X5354Y906D01*
X5372Y882D01*
X5396Y864D01*
X5424Y852D01*
X5429Y851D01*
Y964D01*
X5479D01*
Y851D01*
X5484Y852D01*
X5499Y858D01*
X5536Y841D01*
X5549Y829D01*
Y51D01*
X50D01*
Y2414D01*
X258D01*
Y2533D01*
X283D01*
Y2558D01*
X568D01*
Y2653D01*
X549D01*
X515Y2703D01*
X517Y2709D01*
X631D01*
X656Y2670D01*
Y2575D01*
X736D01*
Y2550D01*
X761D01*
Y2430D01*
X816D01*
Y2445D01*
X910D01*
Y2430D01*
X965D01*
Y2550D01*
Y2670D01*
X929D01*
Y2773D01*
X927Y2788D01*
Y2855D01*
X938D01*
Y2975D01*
X952D01*
Y3030D01*
X863D01*
Y3055D01*
X838D01*
Y3135D01*
X725D01*
Y3055D01*
X675D01*
Y3135D01*
X610D01*
Y3135D01*
X568Y3153D01*
Y3161D01*
X308D01*
Y3042D01*
X258D01*
Y3161D01*
X50D01*
Y4150D01*
X5549D01*
Y3366D01*
D02*
G37*
G36*
X4169Y2552D02*
X4177Y2512D01*
X4161Y2499D01*
X4141Y2473D01*
X4128Y2443D01*
X4124Y2410D01*
X4128Y2377D01*
X4133Y2366D01*
X4110Y2323D01*
X4102Y2316D01*
X3914D01*
X3883Y2366D01*
X3886Y2373D01*
X3888Y2385D01*
X3750D01*
Y2435D01*
X3888D01*
X3886Y2447D01*
X3872Y2481D01*
X3850Y2510D01*
X3847Y2512D01*
X3864Y2562D01*
X4164D01*
X4169Y2552D01*
D02*
G37*
G36*
X3419D02*
X3427Y2512D01*
X3411Y2499D01*
X3391Y2473D01*
X3378Y2443D01*
X3374Y2410D01*
X3378Y2377D01*
X3383Y2366D01*
X3360Y2323D01*
X3352Y2316D01*
X3164D01*
X3133Y2366D01*
X3136Y2373D01*
X3138Y2385D01*
X3000D01*
Y2435D01*
X3138D01*
X3136Y2447D01*
X3122Y2481D01*
X3100Y2510D01*
X3097Y2512D01*
X3114Y2562D01*
X3414D01*
X3419Y2552D01*
D02*
G37*
G36*
X3360Y1872D02*
X3383Y1829D01*
X3378Y1818D01*
X3374Y1785D01*
X3378Y1752D01*
X3388Y1728D01*
X3337Y1676D01*
X3156D01*
X3142Y1692D01*
X3127Y1726D01*
X3136Y1748D01*
X3138Y1760D01*
X3000D01*
Y1810D01*
X3138D01*
X3136Y1822D01*
X3133Y1829D01*
X3164Y1879D01*
X3352D01*
X3360Y1872D01*
D02*
G37*
G36*
X4371Y1665D02*
X4374Y1663D01*
Y1303D01*
X4373Y1302D01*
X4361Y1284D01*
X4356Y1262D01*
X4358Y1255D01*
X4335Y1216D01*
X4325Y1205D01*
X4265D01*
Y1201D01*
X3673D01*
Y1205D01*
X3528D01*
Y1115D01*
X3482Y1105D01*
X3478Y1105D01*
X3272D01*
Y1039D01*
X3225Y1027D01*
X3215Y1053D01*
X3198Y1075D01*
X3176Y1092D01*
X3150Y1102D01*
X3123Y1106D01*
X3096Y1102D01*
X3070Y1092D01*
X3048Y1075D01*
X3031Y1053D01*
X3021Y1027D01*
X3017Y1000D01*
X3021Y973D01*
X3031Y947D01*
X3048Y925D01*
X3070Y908D01*
X3096Y898D01*
X3123Y894D01*
X3150Y898D01*
X3176Y908D01*
X3198Y925D01*
X3215Y947D01*
X3225Y973D01*
X3272Y961D01*
Y895D01*
X3482D01*
Y935D01*
X3528Y945D01*
Y945D01*
X3624D01*
X3673Y945D01*
X3674Y896D01*
Y809D01*
X3604Y738D01*
X2492D01*
Y793D01*
X2392D01*
X2388Y799D01*
X2410Y842D01*
X2415Y848D01*
X2468D01*
Y937D01*
X2493D01*
Y962D01*
X2573D01*
Y998D01*
X2579Y1045D01*
X2579Y1045D01*
X2579D01*
Y1255D01*
X2579D01*
X2568Y1301D01*
X2564Y1321D01*
X2552Y1340D01*
X2534Y1352D01*
X2512Y1356D01*
X2491Y1352D01*
X2481Y1345D01*
X2471Y1340D01*
X2428Y1342D01*
X2422Y1346D01*
X2409Y1354D01*
X2388Y1359D01*
X2366Y1354D01*
X2348Y1342D01*
X2336Y1324D01*
X2332Y1302D01*
X2301Y1259D01*
X2294Y1255D01*
X2213D01*
Y1270D01*
X2158D01*
Y1150D01*
X2108D01*
Y1270D01*
X2053D01*
X2044Y1316D01*
Y1490D01*
X2078Y1524D01*
X4028D01*
X4042Y1527D01*
X4055Y1535D01*
X4193Y1673D01*
X4217Y1663D01*
X4250Y1659D01*
X4283Y1663D01*
X4313Y1676D01*
X4324Y1684D01*
X4371Y1665D01*
D02*
G37*
G36*
X4110Y1872D02*
X4133Y1829D01*
X4128Y1818D01*
X4124Y1785D01*
X4128Y1752D01*
X4138Y1728D01*
X4012Y1601D01*
X3796D01*
X3787Y1649D01*
X3821Y1663D01*
X3850Y1685D01*
X3872Y1714D01*
X3886Y1748D01*
X3888Y1760D01*
X3750D01*
Y1810D01*
X3888D01*
X3886Y1822D01*
X3883Y1829D01*
X3914Y1879D01*
X4102D01*
X4110Y1872D01*
D02*
G37*
G36*
X1965Y1027D02*
Y962D01*
X2045D01*
Y937D01*
X2070D01*
Y848D01*
X2125D01*
Y862D01*
X2189D01*
X2196Y848D01*
X2201Y820D01*
X2163Y789D01*
X2160Y790D01*
X2133Y793D01*
X2106Y790D01*
X2080Y779D01*
X2058Y762D01*
X2041Y740D01*
X2031Y715D01*
X1981D01*
X1971Y740D01*
X1954Y762D01*
X1932Y779D01*
X1917Y785D01*
Y809D01*
X1914Y823D01*
X1906Y836D01*
X1865Y877D01*
X1852Y885D01*
X1838Y888D01*
X1516D01*
X1409Y995D01*
Y1045D01*
X1922D01*
X1965Y1027D01*
D02*
G37*
%LPC*%
G36*
X4135Y4065D02*
X4080D01*
Y4000D01*
X4135D01*
Y4065D01*
D02*
G37*
G36*
X4275Y3948D02*
Y3835D01*
X4388D01*
X4386Y3847D01*
X4372Y3881D01*
X4350Y3910D01*
X4321Y3932D01*
X4287Y3946D01*
X4275Y3948D01*
D02*
G37*
G36*
X4152Y3950D02*
X4080D01*
Y3880D01*
X4093Y3867D01*
X4112Y3835D01*
X4225D01*
Y3948D01*
X4213Y3946D01*
X4185Y3935D01*
X4164Y3943D01*
X4152Y3950D01*
D02*
G37*
G36*
X4225Y3785D02*
X4112D01*
X4114Y3773D01*
X4128Y3739D01*
X4150Y3710D01*
X4179Y3688D01*
X4213Y3674D01*
X4225Y3672D01*
Y3785D01*
D02*
G37*
G36*
X4388D02*
X4275D01*
Y3672D01*
X4287Y3674D01*
X4321Y3688D01*
X4350Y3710D01*
X4372Y3739D01*
X4386Y3773D01*
X4388Y3785D01*
D02*
G37*
G36*
X1854Y3408D02*
X1759D01*
Y3392D01*
X1716Y3375D01*
X1709Y3374D01*
X1686Y3392D01*
X1656Y3404D01*
X1650Y3405D01*
Y3287D01*
Y3170D01*
X1656Y3171D01*
X1686Y3183D01*
X1709Y3201D01*
X1716Y3200D01*
X1759Y3183D01*
Y3167D01*
X1854D01*
Y3287D01*
Y3408D01*
D02*
G37*
G36*
X1999D02*
X1904D01*
Y3312D01*
X1999D01*
Y3408D01*
D02*
G37*
G36*
X1600Y3405D02*
X1594Y3404D01*
X1564Y3392D01*
X1539Y3373D01*
X1520Y3348D01*
X1508Y3319D01*
X1507Y3312D01*
X1600D01*
Y3405D01*
D02*
G37*
G36*
X4275Y3323D02*
Y3210D01*
X4388D01*
X4386Y3222D01*
X4372Y3256D01*
X4350Y3285D01*
X4321Y3307D01*
X4287Y3321D01*
X4275Y3323D01*
D02*
G37*
G36*
X4225D02*
X4213Y3321D01*
X4179Y3307D01*
X4150Y3285D01*
X4128Y3256D01*
X4114Y3222D01*
X4112Y3210D01*
X4225D01*
Y3323D01*
D02*
G37*
G36*
X1600Y3262D02*
X1507D01*
X1508Y3256D01*
X1520Y3227D01*
X1539Y3202D01*
X1564Y3183D01*
X1594Y3171D01*
X1600Y3170D01*
Y3262D01*
D02*
G37*
G36*
X1999D02*
X1904D01*
Y3167D01*
X1999D01*
Y3262D01*
D02*
G37*
G36*
X952Y3135D02*
X888D01*
Y3080D01*
X952D01*
Y3135D01*
D02*
G37*
G36*
X711Y2525D02*
X656D01*
Y2430D01*
X711D01*
Y2525D01*
D02*
G37*
G36*
X568Y2508D02*
X308D01*
Y2414D01*
X568D01*
Y2508D01*
D02*
G37*
G36*
X4850Y805D02*
Y712D01*
X4943D01*
X4942Y719D01*
X4930Y748D01*
X4911Y773D01*
X4886Y792D01*
X4856Y804D01*
X4850Y805D01*
D02*
G37*
G36*
X4546Y807D02*
X4451D01*
Y712D01*
X4546D01*
Y807D01*
D02*
G37*
G36*
X4943Y662D02*
X4850D01*
Y570D01*
X4856Y571D01*
X4886Y583D01*
X4911Y602D01*
X4930Y627D01*
X4942Y656D01*
X4943Y662D01*
D02*
G37*
G36*
X4691Y807D02*
X4596D01*
Y688D01*
Y568D01*
X4691D01*
Y583D01*
X4734Y600D01*
X4741Y601D01*
X4764Y583D01*
X4794Y571D01*
X4800Y570D01*
Y688D01*
Y805D01*
X4794Y804D01*
X4764Y792D01*
X4741Y774D01*
X4734Y775D01*
X4691Y792D01*
Y807D01*
D02*
G37*
G36*
X4546Y662D02*
X4451D01*
Y568D01*
X4546D01*
Y662D01*
D02*
G37*
G36*
X2573Y912D02*
X2518D01*
Y848D01*
X2573D01*
Y912D01*
D02*
G37*
G36*
X2020Y912D02*
X1965D01*
Y848D01*
X2020D01*
Y912D01*
D02*
G37*
%LPD*%
D11*
X4497Y2277D02*
X4662Y2112D01*
X2692Y2277D02*
X4497D01*
X4470Y2233D02*
X4644Y2067D01*
X2711Y2233D02*
X4470D01*
X2738Y2188D02*
X4452D01*
X4622Y2025D01*
X2062Y1562D02*
X4028D01*
X2006Y1506D02*
X2062Y1562D01*
X2006Y1150D02*
Y1506D01*
X4028Y1562D02*
X4250Y1785D01*
X1950Y1638D02*
X3353D01*
X1879Y1566D02*
X1950Y1638D01*
X1879Y1150D02*
Y1566D01*
X3353Y1638D02*
X3500Y1785D01*
X1850Y1825D02*
X2825D01*
X1765Y1740D02*
X1850Y1825D01*
X1765Y1163D02*
Y1740D01*
X2825Y1825D02*
X2917Y1918D01*
X1725Y1875D02*
X2800D01*
X1625Y1775D02*
X1725Y1875D01*
X1625Y1150D02*
Y1775D01*
X2800Y1875D02*
X2888Y1963D01*
X1662Y1925D02*
X2775D01*
X1498Y1150D02*
Y1760D01*
X1662Y1925D01*
X2775D02*
X2858Y2008D01*
X1244Y1594D02*
X1638Y1988D01*
X1244Y1150D02*
Y1594D01*
X1638Y1988D02*
X2762D01*
X2827Y2052D01*
X1117Y1150D02*
Y1555D01*
X1600Y2038D02*
X2738D01*
X1117Y1555D02*
X1600Y2038D01*
X740Y1154D02*
Y1253D01*
X1575Y2088D02*
X2712D01*
X740Y1253D02*
X1575Y2088D01*
X736Y1150D02*
X740Y1154D01*
X863Y1150D02*
Y1287D01*
Y1150D02*
X863Y1150D01*
X2738Y2038D02*
X2798Y2098D01*
X2712Y2088D02*
X2767Y2142D01*
X1762Y2988D02*
X5012D01*
X1498Y2723D02*
X1762Y2988D01*
X5012D02*
X5150Y3125D01*
X4812Y3112D02*
Y3212D01*
X1371Y2696D02*
X1725Y3050D01*
X4675Y3112D02*
Y3212D01*
X5000Y3050D02*
X5200Y3250D01*
X1725Y3050D02*
X5000D01*
X2212Y2938D02*
X5112D01*
X5171Y2996D01*
X5200D01*
X5150Y3125D02*
X5329D01*
X2934Y2712D02*
X4925D01*
X5176Y2512D02*
X5200Y2488D01*
X4925Y2712D02*
X5126Y2512D01*
X5176D01*
X4837Y2662D02*
X5149Y2350D01*
X5346Y2888D02*
X5454Y2996D01*
X2288Y2888D02*
X5346D01*
X2133Y2733D02*
X2288Y2888D01*
X2514Y2550D02*
Y2676D01*
X2924Y2775D02*
X4988D01*
X5117Y2825D02*
X5200Y2742D01*
X5138Y2625D02*
X5338D01*
X2567Y2438D02*
X2924Y2775D01*
X2461Y2438D02*
X2567D01*
X2662Y2825D02*
X5117D01*
X2514Y2676D02*
X2662Y2825D01*
X4988Y2775D02*
X5138Y2625D01*
X2006Y2731D02*
X2212Y2938D01*
X2586Y2392D02*
X2934Y2712D01*
X2635Y2348D02*
X2950Y2662D01*
X4837D01*
X2654Y2302D02*
X2951Y2600D01*
X4834D02*
X5200Y2234D01*
X2951Y2600D02*
X4834D01*
X2700Y2150D02*
X2738Y2188D01*
X1338Y2150D02*
X2700D01*
X1117Y2370D02*
X1338Y2150D01*
X1373Y2213D02*
X2691D01*
X1244Y2341D02*
X1373Y2213D01*
X1244Y2341D02*
Y2550D01*
X2691Y2213D02*
X2711Y2233D01*
X1611Y2399D02*
Y2536D01*
X1626Y2384D02*
X1752Y2258D01*
X2672D01*
X1611Y2399D02*
X1626Y2384D01*
X2767Y2142D02*
X4433D01*
X4856Y1719D01*
X2672Y2258D02*
X2692Y2277D01*
X1950Y2348D02*
X2635D01*
X1765Y2358D02*
X1820Y2302D01*
X1894Y2404D02*
X1950Y2348D01*
X1820Y2302D02*
X2654D01*
X2798Y2098D02*
X4404D01*
X2827Y2052D02*
X4385D01*
X2858Y2008D02*
X4356D01*
X2888Y1963D02*
X4337D01*
X2917Y1918D02*
X4305D01*
X5149Y2350D02*
X5316D01*
X2260Y2427D02*
Y2550D01*
Y2427D02*
X2295Y2392D01*
X2586D01*
X1879Y2419D02*
X1894Y2404D01*
X1879Y2419D02*
Y2550D01*
X4404Y2098D02*
X4914Y1588D01*
X4385Y2052D02*
X4965Y1472D01*
X4305Y1918D02*
X4344Y1879D01*
X4337Y1963D02*
X4488Y1812D01*
X4356Y2008D02*
X5014Y1350D01*
X4644Y2067D02*
X4731Y1980D01*
X5200D01*
X4798Y1850D02*
X5324D01*
X5454Y1980D01*
X4622Y2025D02*
X4798Y1850D01*
X1117Y2370D02*
Y2550D01*
X2374Y2517D02*
X2374Y2502D01*
X2415Y2470D02*
X2461Y2438D01*
X2374Y2502D02*
X2388Y2487D01*
X2374Y2517D02*
X2387Y2550D01*
X2388Y2487D02*
X2415Y2470D01*
X1750Y2373D02*
X1765Y2358D01*
X1750Y2373D02*
Y2548D01*
X4856Y1719D02*
X5193D01*
X4662Y2112D02*
X5333D01*
X2006Y2550D02*
Y2731D01*
X2133Y2550D02*
Y2733D01*
X1752Y1150D02*
X1765Y1163D01*
X5014Y1350D02*
X5332D01*
X4344Y1879D02*
X4412Y1810D01*
X4914Y1588D02*
X5315D01*
X4965Y1472D02*
X5200D01*
X4344Y1879D02*
X4344Y1879D01*
Y1879D02*
Y1879D01*
X4488Y1362D02*
Y1812D01*
X5315Y1588D02*
X5454Y1726D01*
X4412Y1262D02*
Y1810D01*
X252Y2788D02*
X264Y2775D01*
X700Y2789D02*
X714Y2775D01*
X861Y2918D02*
X862Y2920D01*
X861Y2775D02*
X863Y2773D01*
X4412Y1262D02*
X4600Y1075D01*
X5311D01*
X4488Y1362D02*
X4632Y1218D01*
X5200D01*
X5311Y1075D02*
X5454Y1218D01*
X4127Y1000D02*
X4338D01*
X4338Y1000D01*
X3600Y1000D02*
X3600Y1000D01*
X3377Y1000D02*
X3600D01*
X3783Y3921D02*
X3838Y3975D01*
X3783Y3843D02*
Y3921D01*
X3750Y3810D02*
X3783Y3843D01*
X3838Y3975D02*
X3920D01*
X3338Y3824D02*
X3736D01*
X3324Y3838D02*
X3338Y3824D01*
X3736D02*
X3750Y3810D01*
X5193Y1719D02*
X5200Y1726D01*
X5333Y2112D02*
X5454Y2234D01*
X1750Y2548D02*
X1752Y2550D01*
X1611Y2536D02*
X1625Y2550D01*
X5332Y1350D02*
X5454Y1472D01*
X5316Y2350D02*
X5454Y2488D01*
X5338Y2625D02*
X5454Y2742D01*
Y2742D01*
X5329Y3125D02*
X5454Y3250D01*
X1498Y2550D02*
Y2723D01*
X1371Y2550D02*
Y2696D01*
X2388Y1151D02*
Y1302D01*
X2512Y1152D02*
X2514Y1150D01*
X2512Y1152D02*
Y1300D01*
X2387Y1150D02*
X2388Y1151D01*
X1879Y688D02*
Y809D01*
X1838Y850D02*
X1879Y809D01*
X1371Y979D02*
X1500Y850D01*
X1838D01*
X1371Y979D02*
Y1150D01*
X2075Y538D02*
X2115Y578D01*
Y669D02*
X2133Y688D01*
X2115Y578D02*
Y669D01*
X1562Y538D02*
X2075D01*
X990Y1110D02*
X1562Y538D01*
X990Y1110D02*
Y1150D01*
D14*
X3600Y1150D02*
D03*
Y1000D02*
D03*
X4812Y3212D02*
D03*
Y3362D02*
D03*
X4675Y3212D02*
D03*
Y3362D02*
D03*
X3562Y3825D02*
D03*
Y3675D02*
D03*
X4338Y1000D02*
D03*
Y1150D02*
D03*
D15*
X990Y2550D02*
D03*
X863D02*
D03*
X736Y1150D02*
D03*
X863D02*
D03*
X736Y2550D02*
D03*
X2387D02*
D03*
X2260D02*
D03*
X2133D02*
D03*
X2006D02*
D03*
X1879D02*
D03*
X1752D02*
D03*
X1498D02*
D03*
X1371D02*
D03*
X1244D02*
D03*
X1117D02*
D03*
X2514D02*
D03*
X990Y1150D02*
D03*
X1117D02*
D03*
X1244D02*
D03*
X1371D02*
D03*
X1498D02*
D03*
X1625D02*
D03*
X1879D02*
D03*
X2006D02*
D03*
X2133D02*
D03*
X2260D02*
D03*
X2387D02*
D03*
X2514D02*
D03*
X1625Y2550D02*
D03*
X1752Y1150D02*
D03*
D16*
X283Y2533D02*
D03*
Y3042D02*
D03*
D17*
X252Y2788D02*
D03*
D18*
X2492Y938D02*
D03*
X2358D02*
D03*
X2045D02*
D03*
X2180D02*
D03*
X3920Y3975D02*
D03*
X4055D02*
D03*
D19*
X862Y3055D02*
D03*
Y2920D02*
D03*
X700Y3055D02*
D03*
Y2920D02*
D03*
D20*
X714Y2775D02*
D03*
X861D02*
D03*
D35*
X2060Y985D02*
X2118Y1043D01*
Y1135D02*
X2133Y1150D01*
X2118Y1043D02*
Y1135D01*
X2045Y938D02*
X2060Y952D01*
Y985D01*
X3585Y3667D02*
X3739Y3512D01*
X4288D01*
X4438Y3362D01*
X1962Y3675D02*
X3580D01*
X3585Y3667D02*
Y3670D01*
X3580Y3675D02*
X3585Y3670D01*
X4525Y3362D02*
X4675D01*
X4438D02*
X4525D01*
X4338Y1150D02*
X4342Y1146D01*
X4337Y1150D02*
X4338Y1150D01*
X3600Y1150D02*
X3725D01*
X4337D01*
X3625Y688D02*
X3725Y788D01*
Y1150D01*
X4342Y1146D02*
X4417D01*
X4599Y964D02*
X5200D01*
X4417Y1146D02*
X4599Y964D01*
X4675Y3362D02*
X4812D01*
X2387Y688D02*
X3625D01*
X1800Y3838D02*
X1962Y3675D01*
X2260Y827D02*
Y938D01*
X2317Y757D02*
Y770D01*
Y757D02*
X2387Y688D01*
X2260Y827D02*
X2317Y770D01*
X2260Y938D02*
Y1150D01*
Y938D02*
X2358D01*
X2180D02*
X2260D01*
D36*
X264Y2775D02*
X714D01*
X700Y2789D02*
Y2920D01*
X861Y2775D02*
Y2918D01*
X863Y2550D02*
Y2773D01*
D37*
X4571Y688D02*
D03*
X3377Y1000D02*
D03*
X4127D02*
D03*
X1879Y3288D02*
D03*
X2387Y688D02*
D03*
D38*
X4825Y688D02*
D03*
X3123Y1000D02*
D03*
X3873D02*
D03*
X1625Y3288D02*
D03*
X2133Y688D02*
D03*
X1625D02*
D03*
X1879D02*
D03*
D39*
X5200Y3250D02*
D03*
D40*
X5454D02*
D03*
X5200Y2996D02*
D03*
X5454D02*
D03*
X5200Y2742D02*
D03*
X5454D02*
D03*
X5200Y2488D02*
D03*
X5454D02*
D03*
X5200Y2234D02*
D03*
X5454D02*
D03*
X5200Y1980D02*
D03*
X5454D02*
D03*
X5200Y1726D02*
D03*
X5454D02*
D03*
X5200Y1472D02*
D03*
X5454D02*
D03*
X5200Y1218D02*
D03*
X5454D02*
D03*
X5200Y964D02*
D03*
X5454D02*
D03*
D41*
X3324Y3838D02*
D03*
X3070D02*
D03*
X2816D02*
D03*
X2562D02*
D03*
X2308D02*
D03*
X2054D02*
D03*
D42*
X1800D02*
D03*
D43*
X4250Y3185D02*
D03*
Y3810D02*
D03*
X3750Y3185D02*
D03*
Y3810D02*
D03*
X4250Y1785D02*
D03*
Y2410D02*
D03*
X3750Y1785D02*
D03*
Y2410D02*
D03*
X3500Y1785D02*
D03*
Y2410D02*
D03*
X3000Y1785D02*
D03*
Y2410D02*
D03*
D44*
X4012Y2425D02*
D03*
X3300D02*
D03*
X5400Y4063D02*
D03*
Y3563D02*
D03*
Y563D02*
D03*
X5150Y4063D02*
D03*
X5275Y3813D02*
D03*
X5150Y3563D02*
D03*
X5275Y813D02*
D03*
X5150Y563D02*
D03*
X4900Y4063D02*
D03*
X5025Y3813D02*
D03*
X4900Y3563D02*
D03*
X5025Y3313D02*
D03*
Y813D02*
D03*
X4650Y4063D02*
D03*
X4775Y3813D02*
D03*
X4650Y3563D02*
D03*
X4400Y4063D02*
D03*
X4525Y3813D02*
D03*
X4400Y3563D02*
D03*
Y563D02*
D03*
X4150Y1563D02*
D03*
X4275Y813D02*
D03*
X4150Y563D02*
D03*
X4025Y3813D02*
D03*
Y3313D02*
D03*
Y1813D02*
D03*
Y813D02*
D03*
X3900Y563D02*
D03*
X3650Y4063D02*
D03*
Y563D02*
D03*
X3400Y4063D02*
D03*
Y3563D02*
D03*
X3525Y3313D02*
D03*
Y813D02*
D03*
X3400Y563D02*
D03*
X3150Y4063D02*
D03*
Y3563D02*
D03*
X3275Y3313D02*
D03*
Y1813D02*
D03*
Y1313D02*
D03*
Y813D02*
D03*
X3150Y563D02*
D03*
X2900Y4063D02*
D03*
Y3563D02*
D03*
X3025Y3313D02*
D03*
Y1313D02*
D03*
X2900Y1063D02*
D03*
X3025Y813D02*
D03*
X2900Y563D02*
D03*
X2650Y4063D02*
D03*
X2775Y3313D02*
D03*
Y1313D02*
D03*
X2650Y1063D02*
D03*
X2775Y813D02*
D03*
X2650Y563D02*
D03*
X2400Y4063D02*
D03*
Y3563D02*
D03*
X2525Y813D02*
D03*
X2150Y4063D02*
D03*
X1900D02*
D03*
Y3563D02*
D03*
X2025Y813D02*
D03*
X1650Y4063D02*
D03*
Y3563D02*
D03*
X1400Y4063D02*
D03*
X1525Y3813D02*
D03*
X1400Y3563D02*
D03*
Y3063D02*
D03*
Y2063D02*
D03*
Y563D02*
D03*
X1150Y4063D02*
D03*
Y3563D02*
D03*
Y3063D02*
D03*
Y2063D02*
D03*
Y563D02*
D03*
X900Y4063D02*
D03*
X1025Y3813D02*
D03*
X900Y3563D02*
D03*
X1025Y3313D02*
D03*
Y2813D02*
D03*
Y2313D02*
D03*
X900Y2063D02*
D03*
X1025Y1813D02*
D03*
X900Y1563D02*
D03*
X1025Y813D02*
D03*
X900Y563D02*
D03*
X650Y4063D02*
D03*
X775Y3813D02*
D03*
X650Y3563D02*
D03*
X775Y3313D02*
D03*
Y2313D02*
D03*
X650Y2063D02*
D03*
X775Y1813D02*
D03*
X650Y1563D02*
D03*
X775Y813D02*
D03*
X650Y563D02*
D03*
X400Y4063D02*
D03*
X525Y3813D02*
D03*
X400Y3563D02*
D03*
X525Y3313D02*
D03*
Y2313D02*
D03*
X400Y2063D02*
D03*
X525Y1813D02*
D03*
X400Y1563D02*
D03*
X525Y1313D02*
D03*
X400Y1063D02*
D03*
X525Y813D02*
D03*
X400Y563D02*
D03*
X863Y1287D02*
D03*
X4812Y3112D02*
D03*
X4675D02*
D03*
X4525Y3362D02*
D03*
X4412Y1262D02*
D03*
X4488Y1362D02*
D03*
X2388Y1302D02*
D03*
X2512Y1300D02*
D03*
M02*
