M48
;Layer_Color=9474304
;FILE_FORMAT=4:2
METRIC,LZ
;TYPE=PLATED
T1F00S00C0.30
T2F00S00C0.90
T3F00S00C1.00
T4F00S00C1.14
T5F00S00C1.20
%
T01
X0004Y000563
X00065
X0009
X00115
X0014
X001025Y000813
X000775
X000525
X0004Y001063
X000525Y001313
X000863Y001287
X0009Y001563
X00065
X0004
X000525Y001813
X000775
X001025
X00115Y002063
X0014
X0009
X00065
X0004
X000525Y002313
X000775
X001025
X002025Y000813
X002525
X002775
X003025
X003275
X003525
X00365Y000563
X0039
X00415
X0044
X004275Y000813
X004025
X004412Y001262
X004488Y001362
X00415Y001563
X004025Y001813
X004012Y002425
X0033
X003275Y001813
Y001313
X003025
X002775
X002512Y0013
X002388Y001302
X00265Y001063
X0029
Y000563
X00315
X0034
X00265
X00515
X0054
X005275Y000813
X005025
Y003313
X00515Y003563
X0054
X005275Y003813
X005025
X004775
X004525
X00465Y004063
X0049
X00515
X0054
X0049Y003563
X00465
X0044
X004525Y003362
X004675Y003112
X004812
X004025Y003313
Y003813
X0044Y004063
X00365
X0034
X00315
X0029
X00265
X0024
X00215
X0024Y003563
X0029
X00315
X0034
X003525Y003313
X003275
X003025
X002775
X0019Y003563
X00165
X0014
X00115
X0009
X00065
X0004
X000525Y003813
X000775
X001025
X00115Y004063
X0014
X00165
X0019
X001525Y003813
X0014Y003063
X00115
X001025Y003313
X000775
X000525
X00065Y004063
X0009
X0004
X001025Y002813
T02
X002387Y000688
X003377Y001
X004127
X004571Y000688
X0052Y000964
Y001218
Y001472
Y001726
Y00198
Y002234
Y002488
X005454
Y002234
Y00198
Y001726
Y001472
Y001218
Y000964
Y002742
Y002996
Y00325
X0052
Y002996
Y002742
X001879Y003288
T03
X001625Y000688
X001879
X002133
X003123Y001
X003873
X004825Y000688
X001625Y003288
T04
X002308Y003838
X002562
X002816
X00307
X003324
X002054
X0018
T05
X003Y001785
X0035
X00375
X00425
Y00241
X00375
X0035
X003
X00375Y003185
X00425
Y00381
X00375
M30
