G04*
G04 #@! TF.GenerationSoftware,Altium Limited,Altium Designer,23.0.1 (38)*
G04*
G04 Layer_Color=8388736*
%FSLAX42Y42*%
%MOMM*%
G71*
G04*
G04 #@! TF.SameCoordinates,E53F6042-A66D-4D92-81F6-FC70AAD72E81*
G04*
G04*
G04 #@! TF.FilePolarity,Negative*
G04*
G01*
G75*
%ADD21R,1.15X0.80*%
%ADD22R,1.00X1.80*%
%ADD23R,5.10X1.80*%
%ADD24R,4.01X1.70*%
%ADD25R,1.00X1.20*%
%ADD26R,1.20X1.00*%
%ADD27R,0.94X1.22*%
%ADD28R,1.80X1.80*%
%ADD29C,1.80*%
%ADD30R,1.70X1.70*%
%ADD31C,1.70*%
%ADD32C,1.91*%
%ADD33R,1.91X1.91*%
%ADD34C,2.10*%
D21*
X3600Y1150D02*
D03*
Y1000D02*
D03*
X4812Y3212D02*
D03*
Y3362D02*
D03*
X4675Y3212D02*
D03*
Y3362D02*
D03*
X3562Y3825D02*
D03*
Y3675D02*
D03*
X4338Y1000D02*
D03*
Y1150D02*
D03*
D22*
X990Y2550D02*
D03*
X863D02*
D03*
X736Y1150D02*
D03*
X863D02*
D03*
X736Y2550D02*
D03*
X2387D02*
D03*
X2260D02*
D03*
X2133D02*
D03*
X2006D02*
D03*
X1879D02*
D03*
X1752D02*
D03*
X1498D02*
D03*
X1371D02*
D03*
X1244D02*
D03*
X1117D02*
D03*
X2514D02*
D03*
X990Y1150D02*
D03*
X1117D02*
D03*
X1244D02*
D03*
X1371D02*
D03*
X1498D02*
D03*
X1625D02*
D03*
X1879D02*
D03*
X2006D02*
D03*
X2133D02*
D03*
X2260D02*
D03*
X2387D02*
D03*
X2514D02*
D03*
X1625Y2550D02*
D03*
X1752Y1150D02*
D03*
D23*
X283Y2533D02*
D03*
Y3042D02*
D03*
D24*
X252Y2788D02*
D03*
D25*
X2492Y938D02*
D03*
X2358D02*
D03*
X2045D02*
D03*
X2180D02*
D03*
X3920Y3975D02*
D03*
X4055D02*
D03*
D26*
X862Y3055D02*
D03*
Y2920D02*
D03*
X700Y3055D02*
D03*
Y2920D02*
D03*
D27*
X714Y2775D02*
D03*
X861D02*
D03*
D28*
X4571Y688D02*
D03*
X3377Y1000D02*
D03*
X4127D02*
D03*
X1879Y3288D02*
D03*
X2387Y688D02*
D03*
D29*
X4825Y688D02*
D03*
X3123Y1000D02*
D03*
X3873D02*
D03*
X1625Y3288D02*
D03*
X2133Y688D02*
D03*
X1625D02*
D03*
X1879D02*
D03*
D30*
X5200Y3250D02*
D03*
D31*
X5454D02*
D03*
X5200Y2996D02*
D03*
X5454D02*
D03*
X5200Y2742D02*
D03*
X5454D02*
D03*
X5200Y2488D02*
D03*
X5454D02*
D03*
X5200Y2234D02*
D03*
X5454D02*
D03*
X5200Y1980D02*
D03*
X5454D02*
D03*
X5200Y1726D02*
D03*
X5454D02*
D03*
X5200Y1472D02*
D03*
X5454D02*
D03*
X5200Y1218D02*
D03*
X5454D02*
D03*
X5200Y964D02*
D03*
X5454D02*
D03*
D32*
X3324Y3838D02*
D03*
X3070D02*
D03*
X2816D02*
D03*
X2562D02*
D03*
X2308D02*
D03*
X2054D02*
D03*
D33*
X1800D02*
D03*
D34*
X4250Y3185D02*
D03*
Y3810D02*
D03*
X3750Y3185D02*
D03*
Y3810D02*
D03*
X4250Y1785D02*
D03*
Y2410D02*
D03*
X3750Y1785D02*
D03*
Y2410D02*
D03*
X3500Y1785D02*
D03*
Y2410D02*
D03*
X3000Y1785D02*
D03*
Y2410D02*
D03*
M02*
