G04*
G04 #@! TF.GenerationSoftware,Altium Limited,Altium Designer,23.0.1 (38)*
G04*
G04 Layer_Physical_Order=2*
G04 Layer_Color=16711680*
%FSLAX42Y42*%
%MOMM*%
G71*
G04*
G04 #@! TF.SameCoordinates,E53F6042-A66D-4D92-81F6-FC70AAD72E81*
G04*
G04*
G04 #@! TF.FilePolarity,Positive*
G04*
G01*
G75*
%ADD11C,0.25*%
%ADD16R,4.90X1.60*%
%ADD35C,0.50*%
%ADD37R,1.60X1.60*%
%ADD38C,1.60*%
%ADD39R,1.50X1.50*%
%ADD40C,1.50*%
%ADD41C,1.71*%
%ADD42R,1.71X1.71*%
%ADD43C,2.00*%
%ADD44C,0.60*%
G36*
X5549Y3340D02*
X5540Y3333D01*
X5519Y3326D01*
X5504Y3337D01*
X5480Y3347D01*
X5454Y3351D01*
X5428Y3347D01*
X5404Y3337D01*
X5383Y3321D01*
X5367Y3300D01*
X5357Y3276D01*
X5353Y3250D01*
X5357Y3224D01*
X5367Y3200D01*
X5383Y3179D01*
X5404Y3163D01*
X5428Y3153D01*
X5454Y3149D01*
X5480Y3153D01*
X5504Y3163D01*
X5519Y3174D01*
X5540Y3167D01*
X5549Y3160D01*
Y3086D01*
X5540Y3079D01*
X5519Y3072D01*
X5504Y3083D01*
X5480Y3093D01*
X5454Y3097D01*
X5428Y3093D01*
X5416Y3088D01*
X5365Y3140D01*
X5352Y3148D01*
X5338Y3151D01*
X5300D01*
Y3350D01*
X5100D01*
Y3151D01*
X4853D01*
X4852Y3152D01*
X4834Y3164D01*
X4812Y3169D01*
X4791Y3164D01*
X4773Y3152D01*
X4761Y3134D01*
X4759Y3126D01*
X4728D01*
X4727Y3134D01*
X4715Y3152D01*
X4696Y3164D01*
X4675Y3169D01*
X4654Y3164D01*
X4635Y3152D01*
X4623Y3134D01*
X4619Y3112D01*
X4623Y3091D01*
X4635Y3073D01*
X4654Y3061D01*
X4675Y3056D01*
X4677Y3057D01*
X4764Y2969D01*
X4777Y2961D01*
X4792Y2958D01*
X5108D01*
X5113Y2946D01*
X5129Y2925D01*
X5150Y2909D01*
X5174Y2899D01*
X5200Y2895D01*
X5226Y2899D01*
X5250Y2909D01*
X5271Y2925D01*
X5287Y2946D01*
X5297Y2970D01*
X5301Y2996D01*
X5297Y3022D01*
X5292Y3035D01*
X5310Y3063D01*
X5331Y3065D01*
X5362Y3034D01*
X5357Y3022D01*
X5353Y2996D01*
X5357Y2970D01*
X5367Y2946D01*
X5383Y2925D01*
X5404Y2909D01*
X5428Y2899D01*
X5454Y2895D01*
X5480Y2899D01*
X5504Y2909D01*
X5519Y2920D01*
X5540Y2913D01*
X5549Y2906D01*
Y2832D01*
X5540Y2825D01*
X5519Y2818D01*
X5504Y2829D01*
X5480Y2839D01*
X5454Y2843D01*
X5428Y2839D01*
X5404Y2829D01*
X5383Y2813D01*
X5367Y2792D01*
X5357Y2768D01*
X5353Y2742D01*
X5357Y2716D01*
X5367Y2692D01*
X5383Y2671D01*
X5404Y2655D01*
X5428Y2645D01*
X5454Y2641D01*
X5480Y2645D01*
X5504Y2655D01*
X5519Y2666D01*
X5540Y2659D01*
X5549Y2652D01*
Y2578D01*
X5540Y2571D01*
X5519Y2564D01*
X5504Y2575D01*
X5480Y2585D01*
X5454Y2589D01*
X5428Y2585D01*
X5404Y2575D01*
X5383Y2559D01*
X5367Y2538D01*
X5357Y2514D01*
X5353Y2488D01*
X5357Y2462D01*
X5367Y2438D01*
X5383Y2417D01*
X5404Y2401D01*
X5428Y2391D01*
X5454Y2387D01*
X5480Y2391D01*
X5504Y2401D01*
X5519Y2412D01*
X5540Y2405D01*
X5549Y2398D01*
Y2324D01*
X5540Y2317D01*
X5519Y2310D01*
X5504Y2321D01*
X5480Y2331D01*
X5454Y2335D01*
X5428Y2331D01*
X5404Y2321D01*
X5383Y2305D01*
X5367Y2284D01*
X5357Y2260D01*
X5353Y2234D01*
X5357Y2208D01*
X5367Y2184D01*
X5383Y2163D01*
X5404Y2147D01*
X5428Y2137D01*
X5454Y2133D01*
X5480Y2137D01*
X5504Y2147D01*
X5519Y2158D01*
X5540Y2151D01*
X5549Y2144D01*
Y2070D01*
X5540Y2063D01*
X5519Y2056D01*
X5504Y2067D01*
X5480Y2077D01*
X5454Y2081D01*
X5428Y2077D01*
X5404Y2067D01*
X5383Y2051D01*
X5367Y2030D01*
X5357Y2006D01*
X5353Y1980D01*
X5357Y1954D01*
X5367Y1930D01*
X5383Y1909D01*
X5404Y1893D01*
X5428Y1883D01*
X5454Y1879D01*
X5480Y1883D01*
X5504Y1893D01*
X5519Y1904D01*
X5540Y1897D01*
X5549Y1890D01*
Y1816D01*
X5540Y1809D01*
X5519Y1802D01*
X5504Y1813D01*
X5480Y1823D01*
X5454Y1827D01*
X5428Y1823D01*
X5404Y1813D01*
X5383Y1797D01*
X5367Y1776D01*
X5357Y1752D01*
X5353Y1726D01*
X5357Y1700D01*
X5367Y1676D01*
X5383Y1655D01*
X5404Y1639D01*
X5428Y1629D01*
X5454Y1625D01*
X5480Y1629D01*
X5504Y1639D01*
X5519Y1650D01*
X5540Y1643D01*
X5549Y1636D01*
Y1562D01*
X5540Y1555D01*
X5519Y1548D01*
X5504Y1559D01*
X5480Y1569D01*
X5454Y1573D01*
X5428Y1569D01*
X5404Y1559D01*
X5383Y1543D01*
X5367Y1522D01*
X5357Y1498D01*
X5353Y1472D01*
X5357Y1446D01*
X5367Y1422D01*
X5383Y1401D01*
X5404Y1385D01*
X5428Y1375D01*
X5454Y1371D01*
X5480Y1375D01*
X5504Y1385D01*
X5519Y1396D01*
X5540Y1389D01*
X5549Y1382D01*
Y1308D01*
X5540Y1301D01*
X5519Y1294D01*
X5504Y1305D01*
X5480Y1315D01*
X5454Y1319D01*
X5428Y1315D01*
X5404Y1305D01*
X5383Y1289D01*
X5367Y1268D01*
X5357Y1244D01*
X5353Y1218D01*
X5357Y1192D01*
X5367Y1168D01*
X5383Y1147D01*
X5404Y1131D01*
X5428Y1121D01*
X5454Y1117D01*
X5480Y1121D01*
X5504Y1131D01*
X5519Y1142D01*
X5540Y1135D01*
X5549Y1128D01*
Y1074D01*
X5519Y1059D01*
X5512Y1064D01*
X5484Y1076D01*
X5479Y1077D01*
Y964D01*
Y851D01*
X5484Y852D01*
X5512Y864D01*
X5519Y869D01*
X5549Y854D01*
Y51D01*
X51D01*
Y2414D01*
X258D01*
Y2533D01*
Y2653D01*
X51D01*
Y2922D01*
X258D01*
Y3042D01*
Y3161D01*
X51D01*
Y4149D01*
X5549D01*
Y3340D01*
D02*
G37*
%LPC*%
G36*
X4275Y3948D02*
Y3835D01*
X4388D01*
X4386Y3847D01*
X4372Y3881D01*
X4350Y3910D01*
X4321Y3932D01*
X4287Y3946D01*
X4275Y3948D01*
D02*
G37*
G36*
X4225Y3948D02*
X4213Y3946D01*
X4179Y3932D01*
X4150Y3910D01*
X4128Y3881D01*
X4114Y3847D01*
X4112Y3835D01*
X4225D01*
Y3948D01*
D02*
G37*
G36*
Y3785D02*
X4112D01*
X4114Y3773D01*
X4128Y3739D01*
X4150Y3710D01*
X4179Y3688D01*
X4213Y3674D01*
X4225Y3672D01*
Y3785D01*
D02*
G37*
G36*
X4388D02*
X4275D01*
Y3672D01*
X4287Y3674D01*
X4321Y3688D01*
X4350Y3710D01*
X4372Y3739D01*
X4386Y3773D01*
X4388Y3785D01*
D02*
G37*
G36*
X1854Y3408D02*
X1759D01*
Y3357D01*
X1732Y3349D01*
X1729Y3349D01*
X1711Y3373D01*
X1686Y3392D01*
X1656Y3404D01*
X1650Y3405D01*
Y3287D01*
Y3170D01*
X1656Y3171D01*
X1686Y3183D01*
X1711Y3202D01*
X1729Y3226D01*
X1732Y3226D01*
X1759Y3218D01*
Y3167D01*
X1854D01*
Y3287D01*
Y3408D01*
D02*
G37*
G36*
X1600Y3405D02*
X1594Y3404D01*
X1564Y3392D01*
X1539Y3373D01*
X1520Y3348D01*
X1508Y3319D01*
X1507Y3312D01*
X1600D01*
Y3405D01*
D02*
G37*
G36*
X4275Y3323D02*
Y3210D01*
X4388D01*
X4386Y3222D01*
X4372Y3256D01*
X4350Y3285D01*
X4321Y3307D01*
X4287Y3321D01*
X4275Y3323D01*
D02*
G37*
G36*
X4225D02*
X4213Y3321D01*
X4179Y3307D01*
X4150Y3285D01*
X4128Y3256D01*
X4114Y3222D01*
X4112Y3210D01*
X4225D01*
Y3323D01*
D02*
G37*
G36*
X1600Y3262D02*
X1507D01*
X1508Y3256D01*
X1520Y3227D01*
X1539Y3202D01*
X1564Y3183D01*
X1594Y3171D01*
X1600Y3170D01*
Y3262D01*
D02*
G37*
G36*
X568Y3161D02*
X308D01*
Y3067D01*
X568D01*
Y3161D01*
D02*
G37*
G36*
X3183Y4017D02*
X1429D01*
X1415Y4015D01*
X1402Y4006D01*
X1260Y3865D01*
X1252Y3852D01*
X1249Y3838D01*
Y1728D01*
X864Y1343D01*
X863Y1343D01*
X841Y1339D01*
X823Y1327D01*
X811Y1309D01*
X807Y1287D01*
X811Y1266D01*
X823Y1247D01*
X841Y1235D01*
X863Y1231D01*
X884Y1235D01*
X903Y1247D01*
X915Y1266D01*
X919Y1287D01*
X919Y1289D01*
X1315Y1685D01*
X1323Y1698D01*
X1326Y1712D01*
Y3822D01*
X1445Y3941D01*
X1690D01*
Y3727D01*
X1910D01*
Y3941D01*
X1958D01*
X1966Y3930D01*
X1971Y3911D01*
X1957Y3893D01*
X1946Y3866D01*
X1943Y3838D01*
X1946Y3809D01*
X1957Y3782D01*
X1975Y3759D01*
X1998Y3741D01*
X2016Y3734D01*
Y3431D01*
X1999Y3408D01*
X1986Y3408D01*
X1904D01*
Y3287D01*
Y3167D01*
X1986D01*
X1999Y3167D01*
X2016Y3144D01*
Y909D01*
X2019Y894D01*
X2027Y881D01*
X2095Y814D01*
Y785D01*
X2080Y779D01*
X2058Y762D01*
X2041Y740D01*
X2031Y715D01*
X2027Y688D01*
X2031Y660D01*
X2041Y635D01*
X2058Y613D01*
X2067Y606D01*
X2057Y576D01*
X1975D01*
X1954Y597D01*
X1954Y613D01*
X1971Y635D01*
X1981Y660D01*
X1985Y688D01*
X1981Y715D01*
X1971Y740D01*
X1954Y762D01*
X1932Y779D01*
X1906Y790D01*
X1879Y793D01*
X1852Y790D01*
X1826Y779D01*
X1804Y762D01*
X1787Y740D01*
X1777Y715D01*
X1775Y705D01*
X1775Y700D01*
X1744D01*
X1744Y705D01*
X1742Y719D01*
X1730Y748D01*
X1711Y773D01*
X1686Y792D01*
X1656Y804D01*
X1650Y805D01*
Y688D01*
Y570D01*
X1656Y571D01*
X1686Y583D01*
X1711Y602D01*
X1730Y627D01*
X1742Y656D01*
X1744Y670D01*
X1744Y675D01*
X1775D01*
X1775Y670D01*
X1777Y660D01*
X1787Y635D01*
X1804Y613D01*
X1826Y596D01*
X1852Y585D01*
X1859Y584D01*
Y578D01*
X1862Y563D01*
X1870Y550D01*
X1910Y510D01*
X1923Y502D01*
X1938Y499D01*
X2187D01*
X2202Y502D01*
X2214Y510D01*
X2277Y573D01*
X2283Y582D01*
X2492D01*
Y793D01*
X2290D01*
X2289Y822D01*
X2335Y868D01*
X2343Y881D01*
X2346Y895D01*
Y1228D01*
X2351Y1234D01*
X2376Y1249D01*
X2388Y1246D01*
X2409Y1251D01*
X2428Y1263D01*
X2433Y1271D01*
X2438Y1272D01*
X2466Y1271D01*
X2466Y1271D01*
X2473Y1260D01*
X2491Y1248D01*
X2512Y1244D01*
X2534Y1248D01*
X2552Y1260D01*
X2564Y1279D01*
X2569Y1300D01*
X2564Y1321D01*
X2552Y1340D01*
X2534Y1352D01*
X2512Y1356D01*
X2501Y1382D01*
Y3214D01*
X3024Y3737D01*
X3041Y3730D01*
X3070Y3726D01*
X3099Y3730D01*
X3126Y3741D01*
X3149Y3759D01*
X3167Y3782D01*
X3178Y3809D01*
X3181Y3838D01*
X3178Y3866D01*
X3170Y3886D01*
X3177Y3909D01*
X3183Y3920D01*
X3186Y3921D01*
X3188Y3920D01*
X3224Y3885D01*
X3216Y3866D01*
X3213Y3838D01*
X3216Y3809D01*
X3227Y3782D01*
X3245Y3759D01*
X3268Y3741D01*
X3295Y3730D01*
X3324Y3726D01*
X3353Y3730D01*
X3380Y3741D01*
X3403Y3759D01*
X3421Y3782D01*
X3422Y3786D01*
X3627D01*
X3628Y3777D01*
X3641Y3747D01*
X3661Y3721D01*
X3687Y3701D01*
X3712Y3691D01*
Y3304D01*
X3687Y3294D01*
X3661Y3274D01*
X3641Y3248D01*
X3628Y3218D01*
X3624Y3185D01*
X3628Y3152D01*
X3641Y3122D01*
X3661Y3096D01*
X3687Y3076D01*
X3717Y3063D01*
X3750Y3059D01*
X3783Y3063D01*
X3813Y3076D01*
X3839Y3096D01*
X3859Y3122D01*
X3872Y3152D01*
X3876Y3185D01*
X3872Y3218D01*
X3859Y3248D01*
X3839Y3274D01*
X3813Y3294D01*
X3788Y3304D01*
Y3691D01*
X3813Y3701D01*
X3839Y3721D01*
X3859Y3747D01*
X3872Y3777D01*
X3876Y3810D01*
X3872Y3843D01*
X3859Y3873D01*
X3839Y3899D01*
X3813Y3919D01*
X3783Y3932D01*
X3750Y3936D01*
X3717Y3932D01*
X3687Y3919D01*
X3661Y3899D01*
X3641Y3873D01*
X3636Y3862D01*
X3432D01*
X3432Y3866D01*
X3421Y3893D01*
X3403Y3916D01*
X3380Y3934D01*
X3353Y3945D01*
X3324Y3949D01*
X3295Y3945D01*
X3278Y3938D01*
X3210Y4006D01*
X3198Y4015D01*
X3183Y4017D01*
D02*
G37*
G36*
X4225Y3160D02*
X4112D01*
X4114Y3148D01*
X4128Y3114D01*
X4150Y3085D01*
X4179Y3063D01*
X4213Y3049D01*
X4225Y3047D01*
Y3160D01*
D02*
G37*
G36*
X4388D02*
X4275D01*
Y3047D01*
X4287Y3049D01*
X4321Y3063D01*
X4350Y3085D01*
X4372Y3114D01*
X4386Y3148D01*
X4388Y3160D01*
D02*
G37*
G36*
X568Y3017D02*
X308D01*
Y2922D01*
X568D01*
Y3017D01*
D02*
G37*
G36*
X5200Y2843D02*
X5174Y2839D01*
X5150Y2829D01*
X5129Y2813D01*
X5113Y2792D01*
X5103Y2768D01*
X5099Y2742D01*
X5103Y2716D01*
X5113Y2692D01*
X5129Y2671D01*
X5150Y2655D01*
X5174Y2645D01*
X5200Y2641D01*
X5226Y2645D01*
X5250Y2655D01*
X5271Y2671D01*
X5287Y2692D01*
X5297Y2716D01*
X5301Y2742D01*
X5297Y2768D01*
X5287Y2792D01*
X5271Y2813D01*
X5250Y2829D01*
X5226Y2839D01*
X5200Y2843D01*
D02*
G37*
G36*
X568Y2653D02*
X308D01*
Y2558D01*
X568D01*
Y2653D01*
D02*
G37*
G36*
X3725Y2548D02*
X3713Y2546D01*
X3679Y2532D01*
X3650Y2510D01*
X3634Y2488D01*
X3607Y2486D01*
X3598Y2487D01*
X3589Y2499D01*
X3563Y2519D01*
X3533Y2532D01*
X3500Y2536D01*
X3467Y2532D01*
X3437Y2519D01*
X3411Y2499D01*
X3391Y2473D01*
X3378Y2443D01*
X3374Y2410D01*
X3378Y2377D01*
X3391Y2347D01*
X3411Y2321D01*
X3437Y2301D01*
X3462Y2291D01*
Y1904D01*
X3437Y1894D01*
X3411Y1874D01*
X3391Y1848D01*
X3378Y1818D01*
X3374Y1785D01*
X3378Y1752D01*
X3391Y1722D01*
X3411Y1696D01*
X3437Y1676D01*
X3467Y1663D01*
X3500Y1659D01*
X3533Y1663D01*
X3563Y1676D01*
X3589Y1696D01*
X3598Y1708D01*
X3607Y1709D01*
X3634Y1707D01*
X3650Y1685D01*
X3679Y1663D01*
X3713Y1649D01*
X3725Y1647D01*
Y1785D01*
Y1923D01*
X3713Y1921D01*
X3679Y1907D01*
X3650Y1885D01*
X3634Y1863D01*
X3607Y1861D01*
X3598Y1862D01*
X3589Y1874D01*
X3563Y1894D01*
X3538Y1904D01*
Y2291D01*
X3563Y2301D01*
X3589Y2321D01*
X3598Y2333D01*
X3607Y2334D01*
X3634Y2332D01*
X3650Y2310D01*
X3679Y2288D01*
X3713Y2274D01*
X3725Y2272D01*
Y2410D01*
Y2548D01*
D02*
G37*
G36*
X3775Y2548D02*
Y2435D01*
X3888D01*
X3886Y2447D01*
X3872Y2481D01*
X3850Y2510D01*
X3821Y2532D01*
X3787Y2546D01*
X3775Y2548D01*
D02*
G37*
G36*
X3025Y2548D02*
Y2435D01*
X3138D01*
X3136Y2447D01*
X3122Y2481D01*
X3100Y2510D01*
X3071Y2532D01*
X3037Y2546D01*
X3025Y2548D01*
D02*
G37*
G36*
X2975Y2548D02*
X2963Y2546D01*
X2929Y2532D01*
X2900Y2510D01*
X2878Y2481D01*
X2864Y2447D01*
X2862Y2435D01*
X2975D01*
Y2548D01*
D02*
G37*
G36*
X568Y2508D02*
X308D01*
Y2414D01*
X568D01*
Y2508D01*
D02*
G37*
G36*
X5200Y2589D02*
X5174Y2585D01*
X5150Y2575D01*
X5129Y2559D01*
X5113Y2538D01*
X5103Y2514D01*
X5099Y2488D01*
X5103Y2462D01*
X5113Y2438D01*
X5129Y2417D01*
X5150Y2401D01*
X5174Y2391D01*
X5200Y2387D01*
X5226Y2391D01*
X5250Y2401D01*
X5271Y2417D01*
X5287Y2438D01*
X5297Y2462D01*
X5301Y2488D01*
X5297Y2514D01*
X5287Y2538D01*
X5271Y2559D01*
X5250Y2575D01*
X5226Y2585D01*
X5200Y2589D01*
D02*
G37*
G36*
X3138Y2385D02*
X3025D01*
Y2272D01*
X3037Y2274D01*
X3071Y2288D01*
X3100Y2310D01*
X3122Y2339D01*
X3136Y2373D01*
X3138Y2385D01*
D02*
G37*
G36*
X3888Y2385D02*
X3775D01*
Y2272D01*
X3787Y2274D01*
X3821Y2288D01*
X3850Y2310D01*
X3872Y2339D01*
X3886Y2373D01*
X3888Y2385D01*
D02*
G37*
G36*
X2975Y2385D02*
X2862D01*
X2864Y2373D01*
X2878Y2339D01*
X2900Y2310D01*
X2929Y2288D01*
X2963Y2274D01*
X2975Y2272D01*
Y2385D01*
D02*
G37*
G36*
X5200Y2335D02*
X5174Y2331D01*
X5150Y2321D01*
X5129Y2305D01*
X5113Y2284D01*
X5103Y2260D01*
X5099Y2234D01*
X5103Y2208D01*
X5113Y2184D01*
X5129Y2163D01*
X5150Y2147D01*
X5174Y2137D01*
X5200Y2133D01*
X5226Y2137D01*
X5250Y2147D01*
X5271Y2163D01*
X5287Y2184D01*
X5297Y2208D01*
X5301Y2234D01*
X5297Y2260D01*
X5287Y2284D01*
X5271Y2305D01*
X5250Y2321D01*
X5226Y2331D01*
X5200Y2335D01*
D02*
G37*
G36*
Y2081D02*
X5174Y2077D01*
X5150Y2067D01*
X5129Y2051D01*
X5113Y2030D01*
X5103Y2006D01*
X5099Y1980D01*
X5103Y1954D01*
X5113Y1930D01*
X5129Y1909D01*
X5150Y1893D01*
X5174Y1883D01*
X5200Y1879D01*
X5226Y1883D01*
X5250Y1893D01*
X5271Y1909D01*
X5287Y1930D01*
X5297Y1954D01*
X5301Y1980D01*
X5297Y2006D01*
X5287Y2030D01*
X5271Y2051D01*
X5250Y2067D01*
X5226Y2077D01*
X5200Y2081D01*
D02*
G37*
G36*
X3775Y1923D02*
Y1810D01*
X3888D01*
X3886Y1822D01*
X3872Y1856D01*
X3850Y1885D01*
X3821Y1907D01*
X3787Y1921D01*
X3775Y1923D01*
D02*
G37*
G36*
X3025D02*
Y1810D01*
X3138D01*
X3136Y1822D01*
X3122Y1856D01*
X3100Y1885D01*
X3071Y1907D01*
X3037Y1921D01*
X3025Y1923D01*
D02*
G37*
G36*
X2975Y1923D02*
X2963Y1921D01*
X2929Y1907D01*
X2900Y1885D01*
X2878Y1856D01*
X2864Y1822D01*
X2862Y1810D01*
X2975D01*
Y1923D01*
D02*
G37*
G36*
X4250Y2536D02*
X4217Y2532D01*
X4187Y2519D01*
X4161Y2499D01*
X4141Y2473D01*
X4128Y2443D01*
X4124Y2410D01*
X4128Y2377D01*
X4141Y2347D01*
X4161Y2321D01*
X4187Y2301D01*
X4212Y2291D01*
Y1904D01*
X4187Y1894D01*
X4161Y1874D01*
X4141Y1848D01*
X4128Y1818D01*
X4124Y1785D01*
X4128Y1752D01*
X4141Y1722D01*
X4161Y1696D01*
X4187Y1676D01*
X4217Y1663D01*
X4250Y1659D01*
X4283Y1663D01*
X4313Y1676D01*
X4339Y1696D01*
X4359Y1722D01*
X4372Y1752D01*
X4376Y1785D01*
X4372Y1818D01*
X4359Y1848D01*
X4339Y1874D01*
X4313Y1894D01*
X4288Y1904D01*
Y2291D01*
X4313Y2301D01*
X4339Y2321D01*
X4359Y2347D01*
X4372Y2377D01*
X4376Y2410D01*
X4372Y2443D01*
X4359Y2473D01*
X4339Y2499D01*
X4313Y2519D01*
X4283Y2532D01*
X4250Y2536D01*
D02*
G37*
G36*
X3138Y1760D02*
X3025D01*
Y1647D01*
X3037Y1649D01*
X3071Y1663D01*
X3100Y1685D01*
X3122Y1714D01*
X3136Y1748D01*
X3138Y1760D01*
D02*
G37*
G36*
X3888Y1760D02*
X3775D01*
Y1647D01*
X3787Y1649D01*
X3821Y1663D01*
X3850Y1685D01*
X3872Y1714D01*
X3886Y1748D01*
X3888Y1760D01*
D02*
G37*
G36*
X2975Y1760D02*
X2862D01*
X2864Y1748D01*
X2878Y1714D01*
X2900Y1685D01*
X2929Y1663D01*
X2963Y1649D01*
X2975Y1647D01*
Y1760D01*
D02*
G37*
G36*
X5200Y1827D02*
X5174Y1823D01*
X5150Y1813D01*
X5129Y1797D01*
X5113Y1776D01*
X5103Y1752D01*
X5099Y1726D01*
X5103Y1700D01*
X5113Y1676D01*
X5129Y1655D01*
X5150Y1639D01*
X5174Y1629D01*
X5200Y1625D01*
X5226Y1629D01*
X5250Y1639D01*
X5271Y1655D01*
X5287Y1676D01*
X5297Y1700D01*
X5301Y1726D01*
X5297Y1752D01*
X5287Y1776D01*
X5271Y1797D01*
X5250Y1813D01*
X5226Y1823D01*
X5200Y1827D01*
D02*
G37*
G36*
Y1573D02*
X5174Y1569D01*
X5150Y1559D01*
X5129Y1543D01*
X5113Y1522D01*
X5103Y1498D01*
X5099Y1472D01*
X5103Y1446D01*
X5113Y1422D01*
X5129Y1401D01*
X5150Y1385D01*
X5174Y1375D01*
X5200Y1371D01*
X5226Y1375D01*
X5250Y1385D01*
X5271Y1401D01*
X5287Y1422D01*
X5297Y1446D01*
X5301Y1472D01*
X5297Y1498D01*
X5287Y1522D01*
X5271Y1543D01*
X5250Y1559D01*
X5226Y1569D01*
X5200Y1573D01*
D02*
G37*
G36*
X4488Y1419D02*
X4466Y1414D01*
X4448Y1402D01*
X4447Y1401D01*
X3485D01*
X3471Y1398D01*
X3458Y1390D01*
X3165Y1096D01*
X3150Y1102D01*
X3123Y1106D01*
X3096Y1102D01*
X3070Y1092D01*
X3048Y1075D01*
X3031Y1053D01*
X3021Y1027D01*
X3017Y1000D01*
X3021Y973D01*
X3031Y947D01*
X3048Y925D01*
X3070Y908D01*
X3096Y898D01*
X3123Y894D01*
X3150Y898D01*
X3176Y908D01*
X3198Y925D01*
X3215Y947D01*
X3225Y973D01*
X3229Y1000D01*
X3225Y1027D01*
X3219Y1042D01*
X3244Y1067D01*
X3272Y1056D01*
Y895D01*
X3482D01*
Y1105D01*
X3321D01*
X3310Y1133D01*
X3501Y1324D01*
X4111D01*
X4112Y1320D01*
X4116Y1294D01*
X4108Y1290D01*
X3915Y1096D01*
X3900Y1102D01*
X3873Y1106D01*
X3846Y1102D01*
X3820Y1092D01*
X3798Y1075D01*
X3781Y1053D01*
X3771Y1027D01*
X3767Y1000D01*
X3771Y973D01*
X3781Y947D01*
X3798Y925D01*
X3820Y908D01*
X3846Y898D01*
X3873Y894D01*
X3900Y898D01*
X3926Y908D01*
X3948Y925D01*
X3965Y947D01*
X3975Y973D01*
X3979Y1000D01*
X3975Y1027D01*
X3969Y1042D01*
X3994Y1067D01*
X4022Y1056D01*
Y895D01*
X4232D01*
Y1105D01*
X4071D01*
X4060Y1133D01*
X4151Y1224D01*
X4372D01*
X4373Y1223D01*
X4391Y1211D01*
X4412Y1206D01*
X4434Y1211D01*
X4452Y1223D01*
X4464Y1241D01*
X4469Y1262D01*
X4465Y1280D01*
X4474Y1294D01*
X4485Y1307D01*
X4488Y1306D01*
X4509Y1311D01*
X4527Y1323D01*
X4539Y1341D01*
X4544Y1362D01*
X4539Y1384D01*
X4527Y1402D01*
X4509Y1414D01*
X4488Y1419D01*
D02*
G37*
G36*
X4525Y3419D02*
X4504Y3414D01*
X4485Y3402D01*
X4473Y3384D01*
X4469Y3362D01*
X4473Y3341D01*
X4474Y3340D01*
Y1639D01*
X4478Y1619D01*
X4489Y1603D01*
X5102Y989D01*
X5099Y964D01*
X5103Y938D01*
X5113Y914D01*
X5129Y893D01*
X5150Y877D01*
X5174Y867D01*
X5200Y863D01*
X5226Y867D01*
X5250Y877D01*
X5271Y893D01*
X5287Y914D01*
X5297Y938D01*
X5301Y964D01*
X5297Y990D01*
X5287Y1014D01*
X5271Y1035D01*
X5250Y1051D01*
X5226Y1061D01*
X5200Y1065D01*
X5175Y1062D01*
X5122Y1114D01*
X5142Y1136D01*
X5150Y1131D01*
X5174Y1121D01*
X5200Y1117D01*
X5226Y1121D01*
X5250Y1131D01*
X5271Y1147D01*
X5287Y1168D01*
X5297Y1192D01*
X5301Y1218D01*
X5297Y1244D01*
X5287Y1268D01*
X5271Y1289D01*
X5250Y1305D01*
X5226Y1315D01*
X5200Y1319D01*
X5174Y1315D01*
X5150Y1305D01*
X5129Y1289D01*
X5113Y1268D01*
X5103Y1244D01*
X5099Y1218D01*
X5103Y1192D01*
X5113Y1168D01*
X5118Y1160D01*
X5096Y1140D01*
X4576Y1660D01*
Y3340D01*
X4577Y3341D01*
X4581Y3362D01*
X4577Y3384D01*
X4565Y3402D01*
X4546Y3414D01*
X4525Y3419D01*
D02*
G37*
G36*
X5429Y1077D02*
X5424Y1076D01*
X5396Y1064D01*
X5372Y1046D01*
X5354Y1022D01*
X5342Y994D01*
X5341Y989D01*
X5429D01*
Y1077D01*
D02*
G37*
G36*
Y939D02*
X5341D01*
X5342Y934D01*
X5354Y906D01*
X5372Y882D01*
X5396Y864D01*
X5424Y852D01*
X5429Y851D01*
Y939D01*
D02*
G37*
G36*
X1600Y805D02*
X1594Y804D01*
X1564Y792D01*
X1539Y773D01*
X1520Y748D01*
X1508Y719D01*
X1507Y713D01*
X1600D01*
Y805D01*
D02*
G37*
G36*
X4850Y805D02*
Y712D01*
X4943D01*
X4942Y719D01*
X4930Y748D01*
X4911Y773D01*
X4886Y792D01*
X4856Y804D01*
X4850Y805D01*
D02*
G37*
G36*
X4546Y807D02*
X4451D01*
Y712D01*
X4546D01*
Y807D01*
D02*
G37*
G36*
X4943Y662D02*
X4850D01*
Y570D01*
X4856Y571D01*
X4886Y583D01*
X4911Y602D01*
X4930Y627D01*
X4942Y656D01*
X4943Y662D01*
D02*
G37*
G36*
X4691Y807D02*
X4596D01*
Y688D01*
Y568D01*
X4691D01*
Y618D01*
X4718Y626D01*
X4721Y626D01*
X4739Y602D01*
X4764Y583D01*
X4794Y571D01*
X4800Y570D01*
Y688D01*
Y805D01*
X4794Y804D01*
X4764Y792D01*
X4739Y773D01*
X4721Y749D01*
X4718Y749D01*
X4691Y757D01*
Y807D01*
D02*
G37*
G36*
X1600Y663D02*
X1507D01*
X1508Y656D01*
X1520Y627D01*
X1539Y602D01*
X1564Y583D01*
X1594Y571D01*
X1600Y570D01*
Y663D01*
D02*
G37*
G36*
X4546Y662D02*
X4451D01*
Y568D01*
X4546D01*
Y662D01*
D02*
G37*
%LPD*%
G36*
X2587Y3714D02*
X2595Y3715D01*
X2625Y3728D01*
X2652Y3748D01*
X2672Y3774D01*
X2681Y3797D01*
X2708Y3799D01*
X2713Y3798D01*
X2719Y3782D01*
X2737Y3759D01*
X2760Y3741D01*
X2778Y3734D01*
Y3682D01*
X2376Y3280D01*
X2346Y3293D01*
Y3734D01*
X2364Y3741D01*
X2387Y3759D01*
X2405Y3782D01*
X2411Y3798D01*
X2416Y3799D01*
X2443Y3797D01*
X2452Y3774D01*
X2472Y3748D01*
X2499Y3728D01*
X2529Y3715D01*
X2537Y3714D01*
Y3838D01*
X2587D01*
Y3714D01*
D02*
G37*
D11*
X863Y1288D02*
X1288Y1712D01*
X863Y1287D02*
Y1288D01*
X4812Y3112D02*
X5338D01*
X4675D02*
X4792Y2996D01*
X5338Y3112D02*
X5454Y2996D01*
X3873Y1000D02*
X4135Y1262D01*
X4412D01*
X3123Y1000D02*
X3485Y1362D01*
X4488D01*
X5454Y1216D02*
Y1218D01*
X4792Y2996D02*
X5200D01*
X3750Y3185D02*
Y3810D01*
X3338Y3824D02*
X3736D01*
X3324Y3838D02*
X3338Y3824D01*
X3736D02*
X3750Y3810D01*
X4250Y1785D02*
Y2410D01*
X3500Y1785D02*
Y2410D01*
X1288Y1712D02*
Y3838D01*
X1429Y3979D01*
X3183D01*
X3324Y3838D01*
Y3838D02*
Y3838D01*
X2388Y1303D02*
X2388Y1302D01*
X2388Y1303D02*
Y3238D01*
X2462Y1350D02*
X2512Y1300D01*
X2462Y1350D02*
Y3230D01*
X2250Y601D02*
Y838D01*
X2308Y895D01*
Y3838D01*
X2187Y538D02*
X2250Y601D01*
X2133Y688D02*
Y830D01*
X2054Y909D02*
X2133Y830D01*
X1879Y688D02*
X1898Y669D01*
Y578D02*
Y669D01*
Y578D02*
X1938Y538D01*
X2187D01*
X2462Y3230D02*
X3070Y3838D01*
X2388Y3238D02*
X2816Y3666D01*
Y3838D01*
X2054Y909D02*
Y3838D01*
D16*
X283Y2533D02*
D03*
Y3042D02*
D03*
D35*
X4525Y1639D02*
X5200Y964D01*
X4525Y1639D02*
Y3362D01*
D37*
X4571Y688D02*
D03*
X3377Y1000D02*
D03*
X4127D02*
D03*
X1879Y3288D02*
D03*
X2387Y688D02*
D03*
D38*
X4825Y688D02*
D03*
X3123Y1000D02*
D03*
X3873D02*
D03*
X1625Y3288D02*
D03*
X2133Y688D02*
D03*
X1625D02*
D03*
X1879D02*
D03*
D39*
X5200Y3250D02*
D03*
D40*
X5454D02*
D03*
X5200Y2996D02*
D03*
X5454D02*
D03*
X5200Y2742D02*
D03*
X5454D02*
D03*
X5200Y2488D02*
D03*
X5454D02*
D03*
X5200Y2234D02*
D03*
X5454D02*
D03*
X5200Y1980D02*
D03*
X5454D02*
D03*
X5200Y1726D02*
D03*
X5454D02*
D03*
X5200Y1472D02*
D03*
X5454D02*
D03*
X5200Y1218D02*
D03*
X5454D02*
D03*
X5200Y964D02*
D03*
X5454D02*
D03*
D41*
X3324Y3838D02*
D03*
X3070D02*
D03*
X2816D02*
D03*
X2562D02*
D03*
X2308D02*
D03*
X2054D02*
D03*
D42*
X1800D02*
D03*
D43*
X4250Y3185D02*
D03*
Y3810D02*
D03*
X3750Y3185D02*
D03*
Y3810D02*
D03*
X4250Y1785D02*
D03*
Y2410D02*
D03*
X3750Y1785D02*
D03*
Y2410D02*
D03*
X3500Y1785D02*
D03*
Y2410D02*
D03*
X3000Y1785D02*
D03*
Y2410D02*
D03*
D44*
X4012Y2425D02*
D03*
X3300D02*
D03*
X5400Y4063D02*
D03*
Y3563D02*
D03*
Y563D02*
D03*
X5150Y4063D02*
D03*
X5275Y3813D02*
D03*
X5150Y3563D02*
D03*
X5275Y813D02*
D03*
X5150Y563D02*
D03*
X4900Y4063D02*
D03*
X5025Y3813D02*
D03*
X4900Y3563D02*
D03*
X5025Y3313D02*
D03*
Y813D02*
D03*
X4650Y4063D02*
D03*
X4775Y3813D02*
D03*
X4650Y3563D02*
D03*
X4400Y4063D02*
D03*
X4525Y3813D02*
D03*
X4400Y3563D02*
D03*
Y563D02*
D03*
X4150Y1563D02*
D03*
X4275Y813D02*
D03*
X4150Y563D02*
D03*
X4025Y3813D02*
D03*
Y3313D02*
D03*
Y1813D02*
D03*
Y813D02*
D03*
X3900Y563D02*
D03*
X3650Y4063D02*
D03*
Y563D02*
D03*
X3400Y4063D02*
D03*
Y3563D02*
D03*
X3525Y3313D02*
D03*
Y813D02*
D03*
X3400Y563D02*
D03*
X3150Y4063D02*
D03*
Y3563D02*
D03*
X3275Y3313D02*
D03*
Y1813D02*
D03*
Y1313D02*
D03*
Y813D02*
D03*
X3150Y563D02*
D03*
X2900Y4063D02*
D03*
Y3563D02*
D03*
X3025Y3313D02*
D03*
Y1313D02*
D03*
X2900Y1063D02*
D03*
X3025Y813D02*
D03*
X2900Y563D02*
D03*
X2650Y4063D02*
D03*
X2775Y3313D02*
D03*
Y1313D02*
D03*
X2650Y1063D02*
D03*
X2775Y813D02*
D03*
X2650Y563D02*
D03*
X2400Y4063D02*
D03*
Y3563D02*
D03*
X2525Y813D02*
D03*
X2150Y4063D02*
D03*
X1900D02*
D03*
Y3563D02*
D03*
X2025Y813D02*
D03*
X1650Y4063D02*
D03*
Y3563D02*
D03*
X1400Y4063D02*
D03*
X1525Y3813D02*
D03*
X1400Y3563D02*
D03*
Y3063D02*
D03*
Y2063D02*
D03*
Y563D02*
D03*
X1150Y4063D02*
D03*
Y3563D02*
D03*
Y3063D02*
D03*
Y2063D02*
D03*
Y563D02*
D03*
X900Y4063D02*
D03*
X1025Y3813D02*
D03*
X900Y3563D02*
D03*
X1025Y3313D02*
D03*
Y2813D02*
D03*
Y2313D02*
D03*
X900Y2063D02*
D03*
X1025Y1813D02*
D03*
X900Y1563D02*
D03*
X1025Y813D02*
D03*
X900Y563D02*
D03*
X650Y4063D02*
D03*
X775Y3813D02*
D03*
X650Y3563D02*
D03*
X775Y3313D02*
D03*
Y2313D02*
D03*
X650Y2063D02*
D03*
X775Y1813D02*
D03*
X650Y1563D02*
D03*
X775Y813D02*
D03*
X650Y563D02*
D03*
X400Y4063D02*
D03*
X525Y3813D02*
D03*
X400Y3563D02*
D03*
X525Y3313D02*
D03*
Y2313D02*
D03*
X400Y2063D02*
D03*
X525Y1813D02*
D03*
X400Y1563D02*
D03*
X525Y1313D02*
D03*
X400Y1063D02*
D03*
X525Y813D02*
D03*
X400Y563D02*
D03*
X863Y1287D02*
D03*
X4812Y3112D02*
D03*
X4675D02*
D03*
X4525Y3362D02*
D03*
X4412Y1262D02*
D03*
X4488Y1362D02*
D03*
X2388Y1302D02*
D03*
X2512Y1300D02*
D03*
M02*
