G04*
G04 #@! TF.GenerationSoftware,Altium Limited,Altium Designer,22.2.1 (43)*
G04*
G04 Layer_Physical_Order=1*
G04 Layer_Color=255*
%FSLAX42Y42*%
%MOMM*%
G71*
G04*
G04 #@! TF.SameCoordinates,ED7DE01D-59AF-45F5-819A-77A444153E5B*
G04*
G04*
G04 #@! TF.FilePolarity,Positive*
G04*
G01*
G75*
G04:AMPARAMS|DCode=10|XSize=2.54mm|YSize=0.91mm|CornerRadius=0.23mm|HoleSize=0mm|Usage=FLASHONLY|Rotation=0.000|XOffset=0mm|YOffset=0mm|HoleType=Round|Shape=RoundedRectangle|*
%AMROUNDEDRECTD10*
21,1,2.54,0.46,0,0,0.0*
21,1,2.08,0.91,0,0,0.0*
1,1,0.46,1.04,-0.23*
1,1,0.46,-1.04,-0.23*
1,1,0.46,-1.04,0.23*
1,1,0.46,1.04,0.23*
%
%ADD10ROUNDEDRECTD10*%
G04:AMPARAMS|DCode=11|XSize=1.52mm|YSize=5.08mm|CornerRadius=0.38mm|HoleSize=0mm|Usage=FLASHONLY|Rotation=0.000|XOffset=0mm|YOffset=0mm|HoleType=Round|Shape=RoundedRectangle|*
%AMROUNDEDRECTD11*
21,1,1.52,4.32,0,0,0.0*
21,1,0.76,5.08,0,0,0.0*
1,1,0.76,0.38,-2.16*
1,1,0.76,-0.38,-2.16*
1,1,0.76,-0.38,2.16*
1,1,0.76,0.38,2.16*
%
%ADD11ROUNDEDRECTD11*%
%ADD12R,1.52X5.08*%
%ADD13R,1.35X0.30*%
%ADD14R,0.30X1.35*%
%ADD15R,1.27X1.14*%
%ADD16R,0.89X1.52*%
%ADD17R,1.52X0.89*%
%ADD18R,1.14X0.97*%
%ADD19R,0.64X1.02*%
G04:AMPARAMS|DCode=20|XSize=1.52mm|YSize=3.05mm|CornerRadius=0.38mm|HoleSize=0mm|Usage=FLASHONLY|Rotation=270.000|XOffset=0mm|YOffset=0mm|HoleType=Round|Shape=RoundedRectangle|*
%AMROUNDEDRECTD20*
21,1,1.52,2.29,0,0,270.0*
21,1,0.76,3.05,0,0,270.0*
1,1,0.76,-1.14,-0.38*
1,1,0.76,-1.14,0.38*
1,1,0.76,1.14,0.38*
1,1,0.76,1.14,-0.38*
%
%ADD20ROUNDEDRECTD20*%
G04:AMPARAMS|DCode=21|XSize=1.52mm|YSize=2.54mm|CornerRadius=0.38mm|HoleSize=0mm|Usage=FLASHONLY|Rotation=270.000|XOffset=0mm|YOffset=0mm|HoleType=Round|Shape=RoundedRectangle|*
%AMROUNDEDRECTD21*
21,1,1.52,1.78,0,0,270.0*
21,1,0.76,2.54,0,0,270.0*
1,1,0.76,-0.89,-0.38*
1,1,0.76,-0.89,0.38*
1,1,0.76,0.89,0.38*
1,1,0.76,0.89,-0.38*
%
%ADD21ROUNDEDRECTD21*%
%ADD22R,1.14X1.14*%
%ADD23C,0.00*%
%ADD24R,1.27X1.02*%
G04:AMPARAMS|DCode=25|XSize=1.52mm|YSize=1.52mm|CornerRadius=0.38mm|HoleSize=0mm|Usage=FLASHONLY|Rotation=0.000|XOffset=0mm|YOffset=0mm|HoleType=Round|Shape=RoundedRectangle|*
%AMROUNDEDRECTD25*
21,1,1.52,0.76,0,0,0.0*
21,1,0.76,1.52,0,0,0.0*
1,1,0.76,0.38,-0.38*
1,1,0.76,-0.38,-0.38*
1,1,0.76,-0.38,0.38*
1,1,0.76,0.38,0.38*
%
%ADD25ROUNDEDRECTD25*%
G04:AMPARAMS|DCode=26|XSize=1.52mm|YSize=3.05mm|CornerRadius=0.38mm|HoleSize=0mm|Usage=FLASHONLY|Rotation=180.000|XOffset=0mm|YOffset=0mm|HoleType=Round|Shape=RoundedRectangle|*
%AMROUNDEDRECTD26*
21,1,1.52,2.29,0,0,180.0*
21,1,0.76,3.05,0,0,180.0*
1,1,0.76,-0.38,1.14*
1,1,0.76,0.38,1.14*
1,1,0.76,0.38,-1.14*
1,1,0.76,-0.38,-1.14*
%
%ADD26ROUNDEDRECTD26*%
G04:AMPARAMS|DCode=27|XSize=1.27mm|YSize=2.03mm|CornerRadius=0.32mm|HoleSize=0mm|Usage=FLASHONLY|Rotation=270.000|XOffset=0mm|YOffset=0mm|HoleType=Round|Shape=RoundedRectangle|*
%AMROUNDEDRECTD27*
21,1,1.27,1.40,0,0,270.0*
21,1,0.64,2.03,0,0,270.0*
1,1,0.64,-0.70,-0.32*
1,1,0.64,-0.70,0.32*
1,1,0.64,0.70,0.32*
1,1,0.64,0.70,-0.32*
%
%ADD27ROUNDEDRECTD27*%
%ADD28R,0.97X1.14*%
%ADD29C,0.40*%
%ADD30C,0.30*%
%ADD31C,0.80*%
%ADD32C,0.60*%
%ADD33C,0.25*%
%ADD34C,0.64*%
%ADD35C,1.00*%
%ADD36C,1.02*%
%ADD37C,1.50*%
%ADD38C,0.89*%
%ADD39C,0.97*%
%ADD40C,1.50*%
G36*
X8268Y10668D02*
X8192Y10630D01*
Y10706D01*
X8268Y10668D01*
D02*
G37*
G36*
X6223Y10643D02*
Y10592D01*
X5893D01*
X5791Y10490D01*
X5499D01*
X5461Y10528D01*
Y10617D01*
Y10668D01*
X5499Y10706D01*
X6160D01*
X6223Y10643D01*
D02*
G37*
G36*
X5334Y10211D02*
X5296Y10287D01*
X5372D01*
X5334Y10211D01*
D02*
G37*
G36*
X5347Y10109D02*
X5310Y10073D01*
X5308Y10072D01*
X5298Y10066D01*
X5278Y10046D01*
X5156D01*
Y9550D01*
X4737D01*
X4571Y9384D01*
X4559Y9389D01*
Y9525D01*
X4674D01*
X4775Y9627D01*
Y10084D01*
X5271D01*
X5321Y10135D01*
X5347D01*
Y10109D01*
D02*
G37*
G36*
X3988Y9601D02*
Y9589D01*
Y9563D01*
X4102Y9449D01*
X4534D01*
Y9157D01*
X4521Y9144D01*
X4039D01*
X3912Y9271D01*
Y9652D01*
X3937D01*
X3988Y9601D01*
D02*
G37*
G36*
X3734Y9093D02*
X3823Y9004D01*
Y8928D01*
X3645D01*
X3531Y9042D01*
X3200D01*
Y9246D01*
X3277Y9322D01*
X3734D01*
Y9093D01*
D02*
G37*
G36*
X5728Y8598D02*
X5690Y8674D01*
X5766D01*
X5728Y8598D01*
D02*
G37*
G36*
X8255Y8560D02*
X8179Y8598D01*
X8255Y8636D01*
Y8560D01*
D02*
G37*
G36*
X5632Y8710D02*
Y8519D01*
X5518D01*
Y8616D01*
X5560D01*
Y8710D01*
X5518D01*
Y8806D01*
X5632D01*
Y8710D01*
D02*
G37*
G36*
X5112D02*
Y8519D01*
X4997D01*
Y8616D01*
X5039D01*
Y8710D01*
X4997D01*
Y8806D01*
X5112D01*
Y8710D01*
D02*
G37*
G36*
X4693D02*
Y8519D01*
X4578D01*
Y8616D01*
X4620D01*
Y8710D01*
X4578D01*
Y8806D01*
X4693D01*
Y8710D01*
D02*
G37*
D10*
X6972Y9055D02*
D03*
Y9817D02*
D03*
Y9690D02*
D03*
Y9563D02*
D03*
Y9436D02*
D03*
Y9309D02*
D03*
Y10452D02*
D03*
Y10325D02*
D03*
Y10198D02*
D03*
Y10071D02*
D03*
X8623Y10325D02*
D03*
Y10452D02*
D03*
X6972Y9944D02*
D03*
Y9182D02*
D03*
D11*
X6388Y8877D02*
D03*
X6642D02*
D03*
X6134D02*
D03*
D12*
X5880D02*
D03*
D13*
X5426Y9744D02*
D03*
X4565D02*
D03*
X5426Y9694D02*
D03*
Y9594D02*
D03*
Y9544D02*
D03*
Y9644D02*
D03*
X4565D02*
D03*
Y9694D02*
D03*
Y9544D02*
D03*
Y9594D02*
D03*
X5426Y9994D02*
D03*
Y9794D02*
D03*
Y10094D02*
D03*
Y9844D02*
D03*
Y9894D02*
D03*
Y9944D02*
D03*
Y10044D02*
D03*
X4565Y9794D02*
D03*
Y9894D02*
D03*
Y9944D02*
D03*
Y9994D02*
D03*
Y10094D02*
D03*
Y9844D02*
D03*
Y10044D02*
D03*
D14*
X5021Y9389D02*
D03*
Y10249D02*
D03*
X5121Y9389D02*
D03*
X5071D02*
D03*
X5271D02*
D03*
X5221D02*
D03*
X5171D02*
D03*
X4821D02*
D03*
X4971D02*
D03*
X4871D02*
D03*
X4771D02*
D03*
X4721D02*
D03*
X4921D02*
D03*
X5071Y10249D02*
D03*
X5121D02*
D03*
X5171D02*
D03*
X5271D02*
D03*
X5221D02*
D03*
X4721D02*
D03*
X4771D02*
D03*
X4821D02*
D03*
X4921D02*
D03*
X4971D02*
D03*
X4871D02*
D03*
D15*
X8471Y10795D02*
D03*
X8230D02*
D03*
X8217Y8471D02*
D03*
X8458D02*
D03*
D16*
X7925D02*
D03*
X7722D02*
D03*
X5258Y10579D02*
D03*
X5461D02*
D03*
X5347Y9157D02*
D03*
X5550D02*
D03*
X7722Y10795D02*
D03*
X7925D02*
D03*
X3721Y9385D02*
D03*
X3924D02*
D03*
X5347Y8903D02*
D03*
X5550D02*
D03*
X6350Y9969D02*
D03*
X6553D02*
D03*
X6655Y10655D02*
D03*
X6452D02*
D03*
X5118Y10579D02*
D03*
X4915D02*
D03*
X3277Y9804D02*
D03*
X3480D02*
D03*
X4051Y8712D02*
D03*
X4254D02*
D03*
D17*
X4737Y10681D02*
D03*
Y10478D02*
D03*
X3721Y10287D02*
D03*
Y10084D02*
D03*
X5715Y10287D02*
D03*
Y10490D02*
D03*
X4788Y8903D02*
D03*
Y9106D02*
D03*
X5042D02*
D03*
Y8903D02*
D03*
X3416Y10528D02*
D03*
Y10732D02*
D03*
X3213Y10528D02*
D03*
Y10732D02*
D03*
X2515Y10478D02*
D03*
Y10681D02*
D03*
X4191Y9639D02*
D03*
Y9436D02*
D03*
X3505Y10287D02*
D03*
Y10084D02*
D03*
X3429Y8852D02*
D03*
Y9055D02*
D03*
D18*
X3619Y10630D02*
D03*
X3848Y10535D02*
D03*
Y10725D02*
D03*
X2756Y10630D02*
D03*
X2984Y10535D02*
D03*
Y10725D02*
D03*
X3048Y10185D02*
D03*
X3277Y10090D02*
D03*
Y10281D02*
D03*
X2997Y8941D02*
D03*
X3226Y8846D02*
D03*
Y9036D02*
D03*
D19*
X3823Y9906D02*
D03*
X3919Y9632D02*
D03*
X3726D02*
D03*
D20*
X6109Y10401D02*
D03*
X3721Y8738D02*
D03*
X4407Y9195D02*
D03*
X2108Y10516D02*
D03*
Y9131D02*
D03*
Y9487D02*
D03*
X3442Y9512D02*
D03*
X4140Y10478D02*
D03*
X2515Y9779D02*
D03*
D21*
X6134Y10630D02*
D03*
X3747Y8966D02*
D03*
X4381D02*
D03*
X2134Y10795D02*
D03*
X3416Y9284D02*
D03*
X4166Y10706D02*
D03*
X2515Y10020D02*
D03*
Y10249D02*
D03*
D22*
X4381Y8661D02*
D03*
X5321D02*
D03*
X4801D02*
D03*
D23*
X4652D02*
D03*
X5592D02*
D03*
X5071D02*
D03*
D24*
X2108Y9919D02*
D03*
Y10249D02*
D03*
D25*
X2858Y9258D02*
D03*
Y9512D02*
D03*
D26*
X2578Y8407D02*
D03*
Y9258D02*
D03*
D27*
X4140Y9881D02*
D03*
Y10236D02*
D03*
D28*
X6553Y10185D02*
D03*
X6648Y10414D02*
D03*
X6458D02*
D03*
D29*
X6134Y8395D02*
X6210Y8471D01*
X7722D01*
X3454Y8395D02*
X6134D01*
X8415Y8389D02*
Y8434D01*
X8452Y8471D01*
X3327Y8318D02*
X8344D01*
X8452Y8471D02*
X8458D01*
X8344Y8318D02*
X8415Y8389D01*
X4966Y8458D02*
X6007D01*
X6134Y8585D01*
X2845Y8801D02*
X3327Y8318D01*
X2997Y8852D02*
X3454Y8395D01*
X2108Y8801D02*
X2845D01*
X5347Y9188D02*
Y9373D01*
X5601Y9538D02*
X5765D01*
X5981Y9322D02*
X6236D01*
X5765Y9538D02*
X5981Y9322D01*
X6388Y8877D02*
Y9169D01*
X6236Y9322D02*
X6388Y9169D01*
X4902Y10808D02*
X6604D01*
X4699Y10884D02*
X6909D01*
X3429Y10503D02*
X3848D01*
X6058Y9436D02*
X6668D01*
X6096Y9563D02*
X6972D01*
X6147Y9690D02*
X6972D01*
X6198Y9817D02*
X6972D01*
X6071Y9944D02*
X6198Y9817D01*
X4585Y10312D02*
Y10770D01*
X6794Y9309D02*
X6972D01*
X4585Y10770D02*
X4699Y10884D01*
X4420Y10147D02*
X4585Y10312D01*
X5918Y9741D02*
X6096Y9563D01*
X5994Y9843D02*
X6147Y9690D01*
X4142Y9844D02*
X4432D01*
X7277Y9538D02*
Y10516D01*
X6909Y10884D02*
X7277Y10516D01*
X6655Y10655D02*
Y10757D01*
X4775Y10681D02*
X4902Y10808D01*
X4737Y10681D02*
X4775D01*
X4305Y10706D02*
X4394Y10617D01*
X7175Y9436D02*
X7277Y9538D01*
X6972Y9436D02*
X7175D01*
X6604Y10808D02*
X6655Y10757D01*
X6668Y9436D02*
X6794Y9309D01*
X6134Y8585D02*
Y8877D01*
X5575Y9944D02*
X6071D01*
X5855Y9639D02*
X6058Y9436D01*
X5575Y9639D02*
X5855D01*
X5575Y9741D02*
X5918D01*
X5575Y9843D02*
X5994D01*
X5093Y9563D02*
X5220D01*
X5296Y9487D01*
Y9385D02*
Y9487D01*
X4204Y10706D02*
X4305D01*
X4166D02*
X4204D01*
X4242Y10262D02*
X4394Y10414D01*
Y10617D01*
X4216Y10236D02*
X4242Y10262D01*
X4216Y10198D02*
Y10236D01*
X4140D02*
X4178Y10198D01*
X4216D01*
X3848Y10503D02*
Y10535D01*
X4420Y10084D02*
Y10147D01*
X3416Y10516D02*
Y10528D01*
Y10516D02*
X3429Y10503D01*
X3213Y10528D02*
X3226D01*
X3264Y10566D01*
Y10579D01*
X3315Y10630D01*
X3619D01*
X2997Y8852D02*
Y8941D01*
D30*
X4915Y8509D02*
X4966Y8458D01*
X5347Y9157D02*
Y9188D01*
X4389Y9594D02*
X4565D01*
X4318Y9639D02*
X4343D01*
X4389Y9594D01*
X4432Y9844D02*
X4565D01*
X5426Y9544D02*
X5594D01*
X5448Y10592D02*
X5461Y10579D01*
X5221Y10249D02*
Y10380D01*
X5238Y10397D02*
X5343D01*
X5221Y10380D02*
X5238Y10397D01*
X5343D02*
X5359Y10414D01*
X5296Y9919D02*
X5321Y9894D01*
X5426D01*
X5055Y10732D02*
X5436D01*
X5321Y10109D02*
X5347Y10135D01*
X5245Y10109D02*
X5321D01*
X5319Y10044D02*
X5426D01*
X5296Y10020D02*
X5319Y10044D01*
X5426D02*
X6348D01*
X5273Y10094D02*
X5400D01*
X4460Y10044D02*
X4565D01*
Y9544D02*
X5226D01*
X4423Y9744D02*
X4565D01*
Y9519D02*
Y9544D01*
Y9518D02*
Y9519D01*
X4559Y9525D02*
X4565Y9519D01*
X5283Y9030D02*
X5550D01*
X5436Y10732D02*
X5486Y10681D01*
X5093Y9563D02*
Y10071D01*
X5017Y10490D02*
Y10693D01*
X5296Y9919D02*
Y10020D01*
X4801Y9119D02*
Y9169D01*
X5171Y9044D02*
Y9389D01*
X5021Y9127D02*
Y9389D01*
X5221Y9092D02*
Y9389D01*
X6348Y10044D02*
X6350Y10046D01*
X6375Y8890D02*
X6388Y8877D01*
X6375Y8890D02*
Y8966D01*
X5372Y10135D02*
X5397Y10109D01*
Y10096D02*
Y10109D01*
X5400Y10094D02*
X5426D01*
X5397Y10096D02*
X5400Y10094D01*
X5575Y9944D02*
X5575Y9944D01*
X5426Y9944D02*
X5575D01*
X5571Y9644D02*
X5575Y9639D01*
X5426Y9644D02*
X5571D01*
X5572Y9744D02*
X5575Y9741D01*
X5426Y9744D02*
X5572D01*
X5574Y9844D02*
X5575Y9843D01*
X5426Y9844D02*
X5574D01*
X5575Y8687D02*
X5592Y8670D01*
Y8661D02*
Y8670D01*
X5550Y8903D02*
Y8928D01*
X5017Y10693D02*
X5055Y10732D01*
X5093Y10071D02*
X5207D01*
X4877D02*
X5093D01*
Y10096D01*
X5232D02*
X5245Y10109D01*
X5207Y10071D02*
X5232Y10096D01*
X5093D02*
X5232D01*
X5271D01*
X4871Y10077D02*
Y10249D01*
Y10077D02*
X4877Y10071D01*
X4871Y10535D02*
X4915Y10579D01*
X4864Y10528D02*
X4871Y10535D01*
Y10249D02*
Y10331D01*
X4864Y10338D02*
Y10528D01*
Y10338D02*
X4871Y10331D01*
X5118Y10490D02*
Y10579D01*
X4971Y10343D02*
X5118Y10490D01*
X4721Y10249D02*
Y10461D01*
X4737Y10478D01*
X4915Y10541D02*
Y10579D01*
X4909Y10535D02*
X4915Y10541D01*
X4871Y10535D02*
X4909D01*
X4921Y10394D02*
X5017Y10490D01*
X4921Y10249D02*
Y10394D01*
X4902Y10096D02*
X5093D01*
X4971Y10249D02*
Y10343D01*
X5271Y10096D02*
X5273Y10094D01*
X5093Y9550D02*
Y9563D01*
X4801Y9169D02*
X4921Y9289D01*
Y9389D01*
X5220Y9550D02*
X5226Y9544D01*
X5271Y9500D01*
X5093Y9550D02*
X5220D01*
X5271Y9389D02*
Y9500D01*
X4915Y8509D02*
Y8954D01*
X4788Y9106D02*
X4801Y9119D01*
X4915Y8954D02*
X4966Y9004D01*
X5131D01*
X5171Y9044D01*
X5029Y9093D02*
Y9119D01*
Y9093D02*
X5042Y9106D01*
X5021Y9127D02*
X5029Y9119D01*
X5221Y9092D02*
X5283Y9030D01*
X4420Y10084D02*
X4460Y10044D01*
X4140Y9881D02*
X4142Y9879D01*
Y9844D02*
Y9879D01*
X4318Y9639D02*
X4423Y9744D01*
D31*
X5296Y9385D02*
X5347D01*
X5740D01*
X5613Y10579D02*
X5702Y10668D01*
X6972Y10452D02*
Y10630D01*
X5461Y10579D02*
X5613D01*
X6553Y9944D02*
X6972D01*
X6782Y9055D02*
X6972D01*
X3721Y9703D02*
X3785Y9766D01*
X3988D01*
X3747Y8712D02*
X4051D01*
X5321Y8661D02*
X5347Y8687D01*
Y8903D01*
X2997Y10732D02*
X3213D01*
X2870Y10350D02*
X3124D01*
X2984Y10535D02*
X3207D01*
X6553Y9944D02*
Y9969D01*
X6452Y10655D02*
X6458Y10649D01*
Y10414D02*
Y10649D01*
X6648D02*
X6655Y10655D01*
X6648Y10414D02*
Y10649D01*
X5880Y8877D02*
Y9246D01*
X5550Y9042D02*
Y9157D01*
X3397D02*
X3619D01*
X3372Y9182D02*
X3397Y9157D01*
X3226Y9036D02*
X3372Y9182D01*
X3721Y8966D02*
Y9385D01*
X2756Y10465D02*
Y10630D01*
X6655Y9055D02*
X6782D01*
X6629Y8890D02*
X6642Y8877D01*
X6629Y8890D02*
Y8966D01*
Y9030D01*
X6655Y9055D01*
X5740Y9385D02*
X5880Y9246D01*
X5550Y8992D02*
Y9030D01*
Y9042D01*
Y8903D02*
X5575D01*
X5550Y8992D02*
X5575Y9017D01*
X5550Y8928D02*
Y8992D01*
Y9042D02*
X5651D01*
Y9030D02*
Y9042D01*
X5118Y10579D02*
X5258D01*
X4652Y8661D02*
X4801D01*
X4648D02*
X4652D01*
X4788Y8674D02*
X4801Y8661D01*
X4788Y8674D02*
Y8903D01*
X5071Y8589D02*
Y8661D01*
X5055Y8572D02*
X5071Y8589D01*
X5042Y8585D02*
X5055Y8572D01*
X5042Y8585D02*
Y8903D01*
X4191Y9639D02*
X4318D01*
X4115D02*
X4191D01*
X3988Y9766D02*
X4115Y9639D01*
X4318D02*
X4331D01*
X4254Y8700D02*
Y8712D01*
Y8700D02*
X4280Y8674D01*
X4381D01*
Y8661D02*
Y8674D01*
X3213Y10732D02*
X3416D01*
X3124Y10350D02*
X3194Y10281D01*
X3277D01*
X3207Y10535D02*
X3213Y10528D01*
X3505Y10084D02*
X3721D01*
X3289D02*
X3505D01*
X3277Y10090D02*
Y10096D01*
X3289Y10084D01*
Y10287D02*
X3505D01*
X3721D01*
X3277Y10274D02*
Y10281D01*
Y10274D02*
X3289Y10287D01*
X3111Y9804D02*
X3277D01*
X3726Y9390D02*
Y9619D01*
Y9632D01*
X3721Y9614D02*
Y9703D01*
Y9385D02*
X3726Y9390D01*
X3429Y9055D02*
X3581D01*
X3594Y9042D01*
Y9030D02*
Y9042D01*
X3588Y9036D02*
X3594Y9030D01*
X3226Y9036D02*
X3588D01*
X3734Y8954D02*
X3747Y8966D01*
X3721D02*
X3734Y8954D01*
X3721Y8738D02*
X3747Y8712D01*
X3429Y8738D02*
Y8852D01*
X2984Y10719D02*
Y10725D01*
Y10719D02*
X2997Y10732D01*
X2756Y10465D02*
X2870Y10350D01*
D32*
X7722Y10771D02*
Y10795D01*
X7632Y10756D02*
X7707D01*
X7480Y10604D02*
X7632Y10756D01*
X7707D02*
X7722Y10771D01*
X8623Y10325D02*
X8687D01*
X3823Y9906D02*
X3886D01*
X3569Y10858D02*
X4331D01*
X4559Y9296D02*
Y9525D01*
X4470Y9207D02*
X4559Y9296D01*
X3886Y9906D02*
X4051Y10071D01*
X4483Y10363D02*
Y10706D01*
X8471Y10795D02*
X8649D01*
X4331Y10858D02*
X4483Y10706D01*
X4051Y10071D02*
X4242D01*
X4331Y10160D01*
Y10211D01*
X4483Y10363D01*
X4407Y9195D02*
X4420Y9207D01*
X4470D01*
X3442Y10732D02*
X3569Y10858D01*
X3416Y10732D02*
X3442D01*
D33*
X5594Y9544D02*
X5601Y9538D01*
D34*
X8649Y10311D02*
X8663Y10325D01*
X8687D01*
X8649Y10211D02*
Y10311D01*
X3251Y10074D02*
X3258Y10080D01*
X3214Y10071D02*
X3217Y10074D01*
X2870Y9779D02*
X3162Y10071D01*
X3258Y10080D02*
Y10090D01*
X3217Y10074D02*
X3251D01*
X3162Y10071D02*
X3214D01*
X3810Y9906D02*
X3823D01*
X3721Y9614D02*
X3726Y9619D01*
X2553Y9779D02*
X2870D01*
D35*
X6121Y10414D02*
X6458D01*
X3670Y9906D02*
X3810D01*
X2223Y9131D02*
X2362Y8992D01*
X3848Y10725D02*
X4058D01*
X5372Y10135D02*
X5524Y10287D01*
X3848Y10535D02*
X3867D01*
X6033Y10401D02*
X6109D01*
X6121Y10414D01*
X5071Y8661D02*
X5321D01*
X2134Y10795D02*
X2362D01*
X2134Y10249D02*
X2350Y10033D01*
X2756Y10185D02*
X3048D01*
X4115Y10706D02*
X4128D01*
X4166D01*
X4096Y10725D02*
X4115Y10706D01*
X3569Y9804D02*
X3670Y9906D01*
X2400Y10795D02*
X2502Y10693D01*
X2108Y9652D02*
Y9919D01*
Y9131D02*
X2223D01*
X7938Y10795D02*
X8230D01*
X7938Y8471D02*
X8217D01*
X6350Y10046D02*
Y10122D01*
Y9969D02*
Y10046D01*
X6553Y9969D02*
Y10185D01*
X5715Y10287D02*
X5918D01*
X5524D02*
X5715D01*
X5918D02*
X6033Y10401D01*
X5575Y8687D02*
Y8903D01*
Y8661D02*
Y8687D01*
Y8572D02*
Y8661D01*
X5579Y8649D01*
Y8576D02*
Y8649D01*
X5575Y8572D02*
X5579Y8576D01*
X5575Y8903D02*
Y9017D01*
X5588Y9030D02*
X5651D01*
X5575Y9017D02*
X5588Y9030D01*
X5055Y8661D02*
X5071D01*
X4058Y10725D02*
X4096D01*
X3962Y10478D02*
X4102D01*
X4140D01*
X3905Y10535D02*
X3962Y10478D01*
X3867Y10535D02*
X3905D01*
X3258Y10090D02*
X3277D01*
X3480Y9804D02*
X3569D01*
X3442Y9512D02*
X3480Y9550D01*
Y9804D01*
X3429Y8738D02*
X3721D01*
X3238Y8839D02*
X3340Y8738D01*
X3429D01*
X2362Y10795D02*
X2400D01*
X2350Y10033D02*
X2451D01*
X2464Y10020D01*
X2515D01*
X2692Y10249D02*
X2756Y10185D01*
X2565Y10249D02*
X2692D01*
X2553Y10262D02*
X2565Y10249D01*
X2527Y10236D02*
X2553Y10262D01*
X2515Y10249D02*
Y10427D01*
Y10249D02*
X2527Y10236D01*
X2540Y9766D02*
X2553Y9779D01*
X2527Y9766D02*
X2540D01*
X2515Y9779D02*
X2527Y9766D01*
X2362Y8992D02*
X2413Y8941D01*
X2997D01*
X2108Y10249D02*
X2134D01*
X2108D02*
Y10516D01*
Y9487D02*
Y9652D01*
D36*
X2858Y9512D02*
X3442D01*
X2578Y8407D02*
Y8661D01*
Y8407D02*
X2756D01*
X2578Y9258D02*
X2858D01*
D37*
X3721Y8966D02*
X3747D01*
X4381D01*
X3569Y9093D02*
X3696Y8966D01*
X3721D01*
D38*
X2502Y10681D02*
X2515D01*
X2502D02*
Y10693D01*
X2515Y10681D01*
X7925Y10795D02*
X7938D01*
X7925Y8471D02*
X7938D01*
X2515Y10427D02*
Y10478D01*
D39*
X3232Y8839D02*
X3238D01*
X3226Y8846D02*
X3232Y8839D01*
D40*
X7480Y10604D02*
D03*
X5702Y10668D02*
D03*
X6972Y10630D02*
D03*
X8649Y10211D02*
D03*
X5359Y10414D02*
D03*
X6782Y9055D02*
D03*
X2362Y10795D02*
D03*
X3111Y9804D02*
D03*
X2362Y8992D02*
D03*
X3619Y9157D02*
D03*
X2756Y8407D02*
D03*
X8649Y10795D02*
D03*
X6350Y10122D02*
D03*
X5651Y9030D02*
D03*
X2578Y8661D02*
D03*
X2108Y9652D02*
D03*
Y8801D02*
D03*
M02*
