G04*
G04 #@! TF.GenerationSoftware,Altium Limited,Altium Designer,22.2.1 (43)*
G04*
G04 Layer_Physical_Order=2*
G04 Layer_Color=16711680*
%FSLAX42Y42*%
%MOMM*%
G71*
G04*
G04 #@! TF.SameCoordinates,E165340A-5E95-4BEA-86E5-A6FFA1C50491*
G04*
G04*
G04 #@! TF.FilePolarity,Positive*
G04*
G01*
G75*
%ADD32C,1.00*%
%ADD33C,1.50*%
%ADD34C,0.80*%
%ADD36C,0.60*%
%ADD40C,1.25*%
G36*
X8725Y8268D02*
X2527D01*
Y10897D01*
X8725D01*
Y8268D01*
D02*
G37*
%LPC*%
G36*
X7353Y10884D02*
X7330Y10881D01*
X7309Y10872D01*
X7291Y10858D01*
X7277Y10839D01*
X7268Y10818D01*
X7265Y10795D01*
X7266Y10787D01*
X6936Y10458D01*
X5338D01*
X5333Y10464D01*
X5315Y10478D01*
X5293Y10487D01*
X5271Y10490D01*
X5248Y10487D01*
X5226Y10478D01*
X5208Y10464D01*
X5194Y10446D01*
X5185Y10424D01*
X5182Y10401D01*
X5185Y10378D01*
X5194Y10357D01*
X5208Y10339D01*
X5226Y10325D01*
X5248Y10316D01*
X5271Y10313D01*
X5293Y10316D01*
X5315Y10325D01*
X5333Y10339D01*
X5338Y10345D01*
X6960D01*
X6960Y10345D01*
X6981Y10349D01*
X7000Y10361D01*
X7346Y10707D01*
X7353Y10706D01*
X7376Y10709D01*
X7398Y10718D01*
X7416Y10732D01*
X7430Y10751D01*
X7439Y10772D01*
X7442Y10795D01*
X7439Y10818D01*
X7430Y10839D01*
X7416Y10858D01*
X7398Y10872D01*
X7376Y10881D01*
X7353Y10884D01*
D02*
G37*
%LPD*%
D32*
X2362Y8992D02*
Y10795D01*
D33*
X2718Y8407D02*
X2731D01*
X2718D02*
Y8572D01*
D34*
X8357Y10198D02*
X8623D01*
X2108Y8801D02*
Y9652D01*
X3594Y9157D02*
X3619D01*
X3569Y9182D02*
X3594Y9157D01*
X8623Y10198D02*
Y10224D01*
X6769Y9055D02*
X6782D01*
D36*
X5271Y10401D02*
X6960D01*
X7353Y10795D01*
D40*
X6909Y10592D02*
D03*
X6782Y9055D02*
D03*
X5271Y10401D02*
D03*
X2362Y10795D02*
D03*
Y8992D02*
D03*
X5702Y10668D02*
D03*
X3619Y9157D02*
D03*
X2731Y8407D02*
D03*
X8623Y10224D02*
D03*
X7353Y10795D02*
D03*
X6350Y10122D02*
D03*
X5651Y9030D02*
D03*
X3137Y9741D02*
D03*
X2578Y8636D02*
D03*
X2108Y9652D02*
D03*
Y8801D02*
D03*
M02*
