M48
;Layer_Color=9474304
;FILE_FORMAT=4:2
METRIC,LZ
;TYPE=PLATED
T1F00S00C0.30
T2F00S00C0.90
T3F00S00C1.00
T4F00S00C1.06
T5F00S00C1.14
T6F00S00C1.40
T7F00S00C1.80
T8F00S00C3.20
;TYPE=NON_PLATED
T9F00S00C0.65
%
T01
X000674Y000518
X000924
X001174
X008924
X008799Y000768
X008549
X008674Y001018
X008924
X008799Y001268
X008549
X008674Y001518
X008924
X008799Y001768
X008549
X008299
X008424Y002018
X008674
X008924
X008799Y002268
X008549
X008299
X008424Y002518
X008674
X008924
X008799Y002768
X008924Y003018
X008674
X008799Y003268
X008549
X008924Y003518
X008799Y003768
X008924Y004018
X008674
X008403Y003981
X0084Y004075
X008386Y0039
X0081Y003975
Y004075
X007674Y004018
X007799Y004268
X007549
X007674Y004518
X007424
X007174
X006995Y004526
X007049Y004268
X0067Y004238
X006675Y004112
Y003862
Y00375
Y003625
Y0035
X006799Y003268
X006924Y003018
X007174
X00715Y00315
X007424Y003018
X007674
X007549Y003268
Y002768
X007674Y002518
X007424
X007174
X007225Y002375
X007299Y002268
X007549
X007674Y002018
X007924
X007799Y001768
X007549
X007299
X007049
X006799
Y002268
X006924Y002518
X006799Y002768
X007075Y0028
X007174Y002018
X007424
X008424Y001518
X008174Y003518
X0085Y004225
X008799Y004268
X008924Y004518
X006634Y004453
X00665Y00465
X00725Y00375
X0064Y003275
X006299Y003268
X006158Y003199
X006075Y003197
X00599Y0032
X00612Y003076
X006475Y003175
X006299Y002768
X006424Y002518
X006174
X00577Y002551
X00567Y002626
X005549Y002768
X005299
X005049
X005174Y003018
X004924
X004674
X004725Y00315
X004549Y003268
X004674Y003518
X004424
X00425Y003662
X003924Y003518
X003674
X003625Y003775
X003617Y003983
X003549Y003268
X003799
X004049
X003924Y003018
X003674
X003424
X003174
X002924
X002674
X002799Y002768
X003049
X003299
X003549
X003799
X004112Y002738
X003924Y002518
X003674
X003424
X003174
X002924
X002674
Y002018
X002924
X003174
X003424
X003674
X003924
X004174
X004424
X004575Y0021
Y00235
X004549Y001768
X004299
X004049
X003799
X003549
X003299
X003049
X002799
X003049Y003268
X003299
X005049
X004775Y003725
Y00385
X0047Y003925
X004795Y004595
X005575Y00465
Y004125
X005174Y002518
X002424
X002549Y002768
X002424Y003018
X00225Y00295
X002049Y003268
X001799
X001674Y003518
X001625Y003775
X001799Y003768
X002049
X002174Y004018
X002049Y004268
X002174Y004518
X002438Y0043
X0025Y004225
X002375Y0042
X002562Y004075
X001625Y003975
Y004375
X001174Y004518
X000924
X000674
Y004018
X000424
X00095Y004175
X001174Y004018
X000924Y003518
X000674
X000549Y003268
X000674Y003018
X000924
X001174
X001424
X001549Y002768
X001799
Y002268
X002049
X002299
X002424Y002018
X002174
X001924
X001674
X001424
X001174
X000924
X000674
X000424
X000549Y002268
X000799
X001049
X001549
Y001768
X001799
X002049
X002299
X002549
X001299
X001049
X001174Y001518
X000924
X000674
X000424
X000799Y001268
X001049
Y000768
X000799
X000549
X000674Y001018
X000424Y002518
X000549Y002768
X000799
X001049
X001299
Y003268
X001049
X000424Y003018
Y005018
X000674
X000924
X001171Y005094
X001169Y005204
X001202Y005309
X001262Y005401
X001324Y005492
X001424Y005518
X001529Y005557
X001639
X001749
X001859
X001969
X002079
X002299
X002368Y005642
X002367Y005325
X002257
X002147Y005293
X002037
X001927
X001817
X001707
X001597
X001581Y005185
X001574Y005075
X001674Y005018
X001924
X002174
X002424
X002476Y005333
X002567Y005372
X002549Y005268
X002049Y005768
X001799
X001549
X001299
X001049
X000799
X000924Y006018
X001174
X001424
X001674
X001924
X001174Y005518
X000924
X000674
X000424
X000799Y005268
X001049
Y004768
X000799
X002049
X000674Y006018
X002924
X003174
X003424
X003674
X003924
X004049Y005768
X004058Y005532
X004168
X004284Y005529
X004376Y005631
X004639Y005575
X004924Y005518
X005174
X005424
X005674
X005924
X006049Y005768
X005799
X005549
X005299
X005049
X005174Y006018
X005424
X005674
X005924
X00636Y005631
X006345Y00537
X006455Y00537
X006549Y005268
X006299
X006049
X005799
X005575Y005275
Y005025
Y0049
Y004775
X004775
X004674Y005018
X004424
X004174
X003924
X003918Y005268
X003808
X003698
X003631Y005181
X003623Y005012
X003174Y005018
X00322Y005138
X003219Y005207
X003255Y005311
X003333Y005388
X003411Y005466
X003509Y005515
X003618Y005532
X003728
X003948
X004028Y005268
X004138
X004248Y005268
X004341
X004451Y005268
X004561Y005271
X004799Y005268
X004924Y006018
X003799Y005768
X003549
X003299
X003049
X003174Y005518
X002924
X002632Y005577
Y005687
X002621Y005467
X006623Y005689
X007049Y005768
X007299
X007549
X007799
X008049
X008299
X008424Y006018
X008174
X007924
X007674
X007424
X007174
X006924
X007174Y005518
X007424
X007674
X007549Y005268
X007299
X007174Y005018
X007275Y004775
X007475Y00485
X007799Y004768
X008025Y005067
Y005175
X00813
X008025Y005283
X007918Y005175
X00835Y00495
X008666Y004953
Y004753
X008924Y005018
X008799Y005268
X008549
X008674Y005518
X008924
Y006018
X008424Y005518
X00665Y004892
Y004775
T02
X0085Y003002
T03
X0085Y002748
X000775Y002495
Y003255
X00025Y00375
Y00425
Y00175
Y00125
Y00475
Y00525
T04
X007821Y002275
X008075
T05
X002754Y0035
X003008
X003262
X003516
X004875Y0022
X005129
X005383
X005637
X005891
X006145
X006399
X0025Y0035
X002246
X001992
T06
X0005Y00115
Y00185
Y00365
Y00435
Y00465
Y00535
T07
X00815Y001025
X00095
T08
X0004Y0004
X0086
X0004Y0058
X0086
T09
X008394Y003712
Y004288
M30
