G04*
G04 #@! TF.GenerationSoftware,Altium Limited,Altium Designer,23.0.1 (38)*
G04*
G04 Layer_Physical_Order=2*
G04 Layer_Color=16711680*
%FSLAX44Y44*%
%MOMM*%
G71*
G04*
G04 #@! TF.SameCoordinates,02ADDA5B-483B-4F26-8753-4FD2AA90EFCE*
G04*
G04*
G04 #@! TF.FilePolarity,Positive*
G04*
G01*
G75*
%ADD13C,0.2500*%
%ADD17R,1.6000X4.9000*%
%ADD66C,1.0000*%
%ADD68C,0.6000*%
%ADD70R,1.6000X1.6000*%
%ADD71C,1.6000*%
G04:AMPARAMS|DCode=72|XSize=2mm|YSize=2mm|CornerRadius=0.5mm|HoleSize=0mm|Usage=FLASHONLY|Rotation=90.000|XOffset=0mm|YOffset=0mm|HoleType=Round|Shape=RoundedRectangle|*
%AMROUNDEDRECTD72*
21,1,2.0000,1.0000,0,0,90.0*
21,1,1.0000,2.0000,0,0,90.0*
1,1,1.0000,0.5000,0.5000*
1,1,1.0000,0.5000,-0.5000*
1,1,1.0000,-0.5000,-0.5000*
1,1,1.0000,-0.5000,0.5000*
%
%ADD72ROUNDEDRECTD72*%
%ADD73C,2.0000*%
%ADD74C,4.0000*%
%ADD75R,1.7100X1.7100*%
%ADD76C,1.7100*%
%ADD77C,0.6500*%
%ADD78C,1.5900*%
%ADD79R,1.5900X1.5900*%
%ADD80C,1.8000*%
%ADD81O,2.2000X2.2500*%
%ADD82C,2.2000*%
%ADD83C,0.6000*%
G36*
X896941Y160000D02*
X896941Y3059D01*
X835000D01*
Y87433D01*
X837155Y90658D01*
X839039Y95208D01*
X840000Y100038D01*
Y104962D01*
X839039Y109792D01*
X837155Y114342D01*
X835000Y117567D01*
Y160000D01*
X127500D01*
Y3059D01*
X3059D01*
Y162500D01*
X3059Y616941D01*
X414060D01*
Y593020D01*
X424600D01*
X435140D01*
Y616941D01*
X464860D01*
Y593020D01*
X475400D01*
X485940D01*
Y616941D01*
X896941D01*
X896941Y160000D01*
D02*
G37*
%LPC*%
G36*
X862220Y602540D02*
X861270D01*
Y581270D01*
X882540D01*
Y582220D01*
X881674Y586575D01*
X879975Y590677D01*
X877508Y594368D01*
X874368Y597508D01*
X870677Y599975D01*
X866575Y601674D01*
X862220Y602540D01*
D02*
G37*
G36*
X858730D02*
X857780D01*
X853425Y601674D01*
X849323Y599975D01*
X845632Y597508D01*
X842492Y594368D01*
X840025Y590677D01*
X838326Y586575D01*
X837460Y582220D01*
Y581270D01*
X858730D01*
Y602540D01*
D02*
G37*
G36*
X42220D02*
X41270D01*
Y581270D01*
X62540D01*
Y582220D01*
X61674Y586575D01*
X59975Y590677D01*
X57508Y594368D01*
X54368Y597508D01*
X50677Y599975D01*
X46575Y601674D01*
X42220Y602540D01*
D02*
G37*
G36*
X38730D02*
X37780D01*
X33425Y601674D01*
X29323Y599975D01*
X25632Y597508D01*
X22492Y594368D01*
X20025Y590677D01*
X18326Y586575D01*
X17460Y582220D01*
Y581270D01*
X38730D01*
Y602540D01*
D02*
G37*
G36*
X485940Y590480D02*
X476670D01*
Y564710D01*
X485940D01*
Y590480D01*
D02*
G37*
G36*
X474130D02*
X464860D01*
Y564710D01*
X474130D01*
Y590480D01*
D02*
G37*
G36*
X435140D02*
X425870D01*
Y564710D01*
X435140D01*
Y590480D01*
D02*
G37*
G36*
X423330D02*
X414060D01*
Y564710D01*
X423330D01*
Y590480D01*
D02*
G37*
G36*
X882540Y578730D02*
X861270D01*
Y557460D01*
X862220D01*
X866575Y558326D01*
X870677Y560025D01*
X874368Y562492D01*
X877508Y565632D01*
X879975Y569323D01*
X881674Y573425D01*
X882540Y577780D01*
Y578730D01*
D02*
G37*
G36*
X858730D02*
X837460D01*
Y577780D01*
X838326Y573425D01*
X840025Y569323D01*
X842492Y565632D01*
X845632Y562492D01*
X849323Y560025D01*
X853425Y558326D01*
X857780Y557460D01*
X858730D01*
Y578730D01*
D02*
G37*
G36*
X62540D02*
X41270D01*
Y557460D01*
X42220D01*
X46575Y558326D01*
X50677Y560025D01*
X54368Y562492D01*
X57508Y565632D01*
X59975Y569323D01*
X61674Y573425D01*
X62540Y577780D01*
Y578730D01*
D02*
G37*
G36*
X38730D02*
X17460D01*
Y577780D01*
X18326Y573425D01*
X20025Y569323D01*
X22492Y565632D01*
X25632Y562492D01*
X29323Y560025D01*
X33425Y558326D01*
X37780Y557460D01*
X38730D01*
Y578730D01*
D02*
G37*
G36*
X26519Y536540D02*
X26270D01*
Y526270D01*
X36540D01*
Y526519D01*
X35754Y529454D01*
X34234Y532086D01*
X32086Y534234D01*
X29454Y535754D01*
X26519Y536540D01*
D02*
G37*
G36*
X23730D02*
X23481D01*
X20546Y535754D01*
X17914Y534234D01*
X15766Y532086D01*
X14246Y529454D01*
X13460Y526519D01*
Y526270D01*
X23730D01*
Y536540D01*
D02*
G37*
G36*
X50000Y548362D02*
X46606Y547915D01*
X43444Y546605D01*
X40728Y544522D01*
X38644Y541806D01*
X37335Y538644D01*
X36888Y535250D01*
Y534750D01*
X37335Y531356D01*
X38644Y528194D01*
X40728Y525478D01*
X43444Y523395D01*
X46606Y522085D01*
X50000Y521638D01*
X53394Y522085D01*
X56556Y523395D01*
X59272Y525478D01*
X61356Y528194D01*
X62665Y531356D01*
X63112Y534750D01*
Y535250D01*
X62665Y538644D01*
X61356Y541806D01*
X59272Y544522D01*
X56556Y546605D01*
X53394Y547915D01*
X50000Y548362D01*
D02*
G37*
G36*
X36540Y523730D02*
X26270D01*
Y513460D01*
X26519D01*
X29454Y514246D01*
X32086Y515766D01*
X34234Y517914D01*
X35754Y520546D01*
X36540Y523481D01*
Y523730D01*
D02*
G37*
G36*
X23730D02*
X13460D01*
Y523481D01*
X14246Y520546D01*
X15766Y517914D01*
X17914Y515766D01*
X20546Y514246D01*
X23481Y513460D01*
X23730D01*
Y523730D01*
D02*
G37*
G36*
X51712Y478000D02*
X48288D01*
X44982Y477114D01*
X42018Y475402D01*
X39597Y472982D01*
X37886Y470018D01*
X37000Y466711D01*
Y463288D01*
X37886Y459982D01*
X39597Y457018D01*
X42018Y454597D01*
X44982Y452886D01*
X48288Y452000D01*
X51712D01*
X55018Y452886D01*
X57982Y454597D01*
X60403Y457018D01*
X62114Y459982D01*
X63000Y463288D01*
Y466711D01*
X62114Y470018D01*
X60403Y472982D01*
X57982Y475402D01*
X55018Y477114D01*
X51712Y478000D01*
D02*
G37*
G36*
X835000Y500098D02*
X834508Y500000D01*
X834005D01*
X833542Y499808D01*
X833049Y499710D01*
X832632Y499431D01*
X832168Y499239D01*
X831813Y498884D01*
X831395Y498605D01*
X831116Y498187D01*
X830761Y497832D01*
X830569Y497368D01*
X830290Y496951D01*
X830192Y496458D01*
X830000Y495995D01*
Y495493D01*
X829902Y495000D01*
X830000Y494507D01*
Y494005D01*
X830192Y493542D01*
X830290Y493049D01*
X830569Y492632D01*
X830761Y492168D01*
X831116Y491813D01*
X831395Y491395D01*
X844902Y477888D01*
Y432432D01*
X844663Y432294D01*
X843632Y432043D01*
X842374Y433301D01*
X840444Y434100D01*
X838356D01*
X836426Y433301D01*
X834949Y431824D01*
X834150Y429894D01*
Y427806D01*
X834949Y425876D01*
X836426Y424399D01*
X838356Y423600D01*
X840444D01*
X842374Y424399D01*
X843632Y425657D01*
X844663Y425406D01*
X844902Y425268D01*
Y422500D01*
X845000Y422007D01*
Y421506D01*
X845192Y421042D01*
X845290Y420549D01*
X845569Y420132D01*
X845761Y419668D01*
X846116Y419313D01*
X846395Y418895D01*
X846813Y418616D01*
X847168Y418261D01*
X847632Y418069D01*
X848049Y417790D01*
X848542Y417692D01*
X849005Y417500D01*
X849508D01*
X850000Y417402D01*
X850492Y417500D01*
X850995D01*
X851458Y417692D01*
X851951Y417790D01*
X852368Y418069D01*
X852832Y418261D01*
X853187Y418616D01*
X853605Y418895D01*
X853884Y419313D01*
X854239Y419668D01*
X854431Y420132D01*
X854710Y420549D01*
X854808Y421042D01*
X855000Y421506D01*
Y422007D01*
X855098Y422500D01*
Y480000D01*
X854710Y481951D01*
X853605Y483605D01*
X838605Y498605D01*
X838187Y498884D01*
X837832Y499239D01*
X837368Y499431D01*
X836951Y499710D01*
X836458Y499808D01*
X835995Y500000D01*
X835492D01*
X835000Y500098D01*
D02*
G37*
G36*
X26519Y436540D02*
X26270D01*
Y426270D01*
X36540D01*
Y426519D01*
X35754Y429454D01*
X34234Y432086D01*
X32086Y434234D01*
X29454Y435754D01*
X26519Y436540D01*
D02*
G37*
G36*
X23730D02*
X23481D01*
X20546Y435754D01*
X17914Y434234D01*
X15766Y432086D01*
X14246Y429454D01*
X13460Y426519D01*
Y426270D01*
X23730D01*
Y436540D01*
D02*
G37*
G36*
X50000Y448362D02*
X46606Y447915D01*
X43444Y446605D01*
X40728Y444522D01*
X38644Y441806D01*
X37335Y438644D01*
X36888Y435250D01*
Y434750D01*
X37335Y431356D01*
X38644Y428194D01*
X40728Y425478D01*
X43444Y423395D01*
X46606Y422085D01*
X50000Y421638D01*
X53394Y422085D01*
X56556Y423395D01*
X59272Y425478D01*
X61356Y428194D01*
X62665Y431356D01*
X63112Y434750D01*
Y435250D01*
X62665Y438644D01*
X61356Y441806D01*
X59272Y444522D01*
X56556Y446605D01*
X53394Y447915D01*
X50000Y448362D01*
D02*
G37*
G36*
X36540Y423730D02*
X26270D01*
Y413460D01*
X26519D01*
X29454Y414246D01*
X32086Y415766D01*
X34234Y417914D01*
X35754Y420546D01*
X36540Y423481D01*
Y423730D01*
D02*
G37*
G36*
X23730D02*
X13460D01*
Y423481D01*
X14246Y420546D01*
X15766Y417914D01*
X17914Y415766D01*
X20546Y414246D01*
X23481Y413460D01*
X23730D01*
Y423730D01*
D02*
G37*
G36*
X840995Y412500D02*
X839005D01*
X837168Y411739D01*
X835761Y410332D01*
X835000Y408495D01*
Y406505D01*
X835761Y404668D01*
X836838Y403591D01*
Y401713D01*
X836065Y400940D01*
X835766Y400217D01*
X834267Y399919D01*
X824343Y409843D01*
X823268Y410561D01*
X822000Y410814D01*
X813757D01*
X812832Y411739D01*
X810995Y412500D01*
X809005D01*
X807168Y411739D01*
X805761Y410332D01*
X805000Y408495D01*
Y406505D01*
X805761Y404668D01*
X807168Y403261D01*
X807472Y403135D01*
Y401865D01*
X807168Y401739D01*
X805761Y400332D01*
X805000Y398495D01*
Y396506D01*
X805761Y394668D01*
X807168Y393261D01*
X809005Y392500D01*
X810995D01*
X812832Y393261D01*
X814239Y394668D01*
X815000Y396506D01*
Y398495D01*
X814239Y400332D01*
X812832Y401739D01*
X812528Y401865D01*
Y403135D01*
X812832Y403261D01*
X813757Y404186D01*
X820628D01*
X833673Y391141D01*
X833598Y390960D01*
Y388971D01*
X834360Y387133D01*
X835766Y385727D01*
X837604Y384965D01*
X839593D01*
X841431Y385727D01*
X842837Y387133D01*
X843598Y388971D01*
Y390960D01*
X842837Y392798D01*
X843349Y394082D01*
X844543Y395276D01*
X845304Y397113D01*
Y399103D01*
X844543Y400940D01*
X843466Y402018D01*
Y403895D01*
X844239Y404668D01*
X845000Y406505D01*
Y408495D01*
X844239Y410332D01*
X842832Y411739D01*
X840995Y412500D01*
D02*
G37*
G36*
X840444Y376400D02*
X838356D01*
X836426Y375601D01*
X834949Y374124D01*
X834150Y372194D01*
Y370106D01*
X834949Y368176D01*
X836426Y366699D01*
X838356Y365900D01*
X840444D01*
X842374Y366699D01*
X843851Y368176D01*
X844650Y370106D01*
Y372194D01*
X843851Y374124D01*
X842374Y375601D01*
X840444Y376400D01*
D02*
G37*
G36*
X51712Y378000D02*
X48288D01*
X44982Y377114D01*
X42018Y375402D01*
X39597Y372982D01*
X37886Y370018D01*
X37000Y366711D01*
Y363288D01*
X37886Y359982D01*
X39597Y357018D01*
X42018Y354597D01*
X44982Y352886D01*
X48288Y352000D01*
X51712D01*
X55018Y352886D01*
X57982Y354597D01*
X60403Y357018D01*
X62114Y359982D01*
X63000Y363288D01*
Y366711D01*
X62114Y370018D01*
X60403Y372982D01*
X57982Y375402D01*
X55018Y377114D01*
X51712Y378000D01*
D02*
G37*
G36*
X210290Y361090D02*
X200470D01*
Y351270D01*
X210290D01*
Y361090D01*
D02*
G37*
G36*
X197930D02*
X188110D01*
Y351270D01*
X197930D01*
Y361090D01*
D02*
G37*
G36*
X327589Y360550D02*
X324811D01*
X322128Y359831D01*
X319722Y358442D01*
X317758Y356478D01*
X316369Y354072D01*
X315650Y351389D01*
Y348611D01*
X316369Y345928D01*
X317758Y343522D01*
X319722Y341558D01*
X322128Y340169D01*
X324811Y339450D01*
X327589D01*
X330272Y340169D01*
X332678Y341558D01*
X334642Y343522D01*
X336031Y345928D01*
X336750Y348611D01*
Y351389D01*
X336031Y354072D01*
X334642Y356478D01*
X332678Y358442D01*
X330272Y359831D01*
X327589Y360550D01*
D02*
G37*
G36*
X302189D02*
X299411D01*
X296728Y359831D01*
X294322Y358442D01*
X292358Y356478D01*
X290969Y354072D01*
X290250Y351389D01*
Y348611D01*
X290969Y345928D01*
X292358Y343522D01*
X294322Y341558D01*
X296728Y340169D01*
X299411Y339450D01*
X302189D01*
X304872Y340169D01*
X307278Y341558D01*
X309242Y343522D01*
X310631Y345928D01*
X311350Y348611D01*
Y351389D01*
X310631Y354072D01*
X309242Y356478D01*
X307278Y358442D01*
X304872Y359831D01*
X302189Y360550D01*
D02*
G37*
G36*
X276789D02*
X274011D01*
X271328Y359831D01*
X268922Y358442D01*
X266958Y356478D01*
X265569Y354072D01*
X264850Y351389D01*
Y348611D01*
X265569Y345928D01*
X266958Y343522D01*
X268922Y341558D01*
X271328Y340169D01*
X274011Y339450D01*
X276789D01*
X279472Y340169D01*
X281878Y341558D01*
X283842Y343522D01*
X285231Y345928D01*
X285950Y348611D01*
Y351389D01*
X285231Y354072D01*
X283842Y356478D01*
X281878Y358442D01*
X279472Y359831D01*
X276789Y360550D01*
D02*
G37*
G36*
X251389D02*
X248611D01*
X245928Y359831D01*
X243522Y358442D01*
X241558Y356478D01*
X240169Y354072D01*
X239450Y351389D01*
Y348611D01*
X240169Y345928D01*
X241558Y343522D01*
X243522Y341558D01*
X245928Y340169D01*
X248611Y339450D01*
X251389D01*
X254072Y340169D01*
X256478Y341558D01*
X258442Y343522D01*
X259831Y345928D01*
X260550Y348611D01*
Y351389D01*
X259831Y354072D01*
X258442Y356478D01*
X256478Y358442D01*
X254072Y359831D01*
X251389Y360550D01*
D02*
G37*
G36*
X210290Y348730D02*
X200470D01*
Y338910D01*
X210290D01*
Y348730D01*
D02*
G37*
G36*
X197930D02*
X188110D01*
Y338910D01*
X197930D01*
Y348730D01*
D02*
G37*
G36*
X79080Y337500D02*
X75920D01*
X72868Y336682D01*
X70132Y335102D01*
X67898Y332868D01*
X66318Y330132D01*
X65500Y327080D01*
Y323920D01*
X66318Y320868D01*
X67898Y318132D01*
X70132Y315898D01*
X72868Y314318D01*
X75920Y313500D01*
X79080D01*
X82132Y314318D01*
X84868Y315898D01*
X87102Y318132D01*
X88682Y320868D01*
X89500Y323920D01*
Y327080D01*
X88682Y330132D01*
X87102Y332868D01*
X84868Y335102D01*
X82132Y336682D01*
X79080Y337500D01*
D02*
G37*
G36*
X860000Y310200D02*
X840000D01*
Y290200D01*
X860000D01*
Y310200D01*
D02*
G37*
G36*
X225989Y360550D02*
X223211D01*
X220528Y359831D01*
X218122Y358442D01*
X216158Y356478D01*
X214769Y354072D01*
X214050Y351389D01*
Y348611D01*
X214769Y345928D01*
X216158Y343522D01*
X218122Y341558D01*
X219702Y340646D01*
Y295200D01*
X220090Y293249D01*
X220677Y292370D01*
X220761Y292168D01*
X220916Y292013D01*
X221195Y291595D01*
X221395Y291395D01*
X221813Y291116D01*
X222168Y290761D01*
X222632Y290569D01*
X223049Y290290D01*
X223542Y290192D01*
X224005Y290000D01*
X224508D01*
X225000Y289902D01*
X225492Y290000D01*
X225995D01*
X226458Y290192D01*
X226951Y290290D01*
X227369Y290569D01*
X227832Y290761D01*
X228187Y291116D01*
X228605Y291395D01*
X228884Y291813D01*
X229239Y292168D01*
X229431Y292631D01*
X229710Y293049D01*
X229808Y293542D01*
X230000Y294005D01*
Y294508D01*
X230098Y295000D01*
X230000Y295492D01*
Y295995D01*
X229898Y296241D01*
Y340877D01*
X231078Y341558D01*
X233042Y343522D01*
X234431Y345928D01*
X235150Y348611D01*
Y351389D01*
X234431Y354072D01*
X233042Y356478D01*
X231078Y358442D01*
X228672Y359831D01*
X225989Y360550D01*
D02*
G37*
G36*
X558495Y532500D02*
X556505D01*
X554668Y531739D01*
X553261Y530332D01*
X552500Y528495D01*
Y526505D01*
X553261Y524668D01*
X554186Y523743D01*
Y513873D01*
X538628Y498314D01*
X192500D01*
X191232Y498061D01*
X190157Y497343D01*
X113628Y420814D01*
X98757D01*
X97832Y421739D01*
X95995Y422500D01*
X94005D01*
X92168Y421739D01*
X90761Y420332D01*
X90000Y418495D01*
Y416505D01*
X90761Y414668D01*
X92168Y413261D01*
X94005Y412500D01*
X95995D01*
X97832Y413261D01*
X98757Y414186D01*
X115000D01*
X116268Y414439D01*
X117343Y415157D01*
X140513Y438327D01*
X141686Y437841D01*
Y405000D01*
X141939Y403732D01*
X142657Y402657D01*
X159186Y386127D01*
Y381257D01*
X158261Y380332D01*
X157500Y378495D01*
Y376505D01*
X158261Y374668D01*
X159668Y373261D01*
X161505Y372500D01*
X163495D01*
X165332Y373261D01*
X166739Y374668D01*
X167500Y376505D01*
Y378495D01*
X166739Y380332D01*
X165814Y381257D01*
Y387500D01*
X165561Y388768D01*
X164843Y389843D01*
X163360Y391327D01*
X163839Y392643D01*
X165332Y393261D01*
X166739Y394668D01*
X167500Y396505D01*
Y398495D01*
X166739Y400332D01*
X165332Y401739D01*
X163495Y402500D01*
X162186D01*
X155814Y408872D01*
Y439763D01*
X197736Y481686D01*
X220804D01*
X220902Y481428D01*
X221015Y480416D01*
X220157Y479843D01*
X181127Y440814D01*
X166257D01*
X165332Y441739D01*
X163495Y442500D01*
X161505D01*
X159668Y441739D01*
X158261Y440332D01*
X157500Y438495D01*
Y436506D01*
X158261Y434668D01*
X159668Y433261D01*
X161505Y432500D01*
X163495D01*
X165332Y433261D01*
X166257Y434186D01*
X182500D01*
X183768Y434439D01*
X184843Y435157D01*
X223873Y474186D01*
X255804D01*
X255902Y473928D01*
X256015Y472916D01*
X255157Y472343D01*
X224407Y441593D01*
X223689Y440518D01*
X223436Y439250D01*
Y414386D01*
X223689Y413118D01*
X224407Y412043D01*
X246293Y390157D01*
X247368Y389439D01*
X248636Y389186D01*
X346128D01*
X357500Y377814D01*
Y376505D01*
X358261Y374668D01*
X359668Y373261D01*
X361505Y372500D01*
X363495D01*
X365332Y373261D01*
X366739Y374668D01*
X367500Y376505D01*
Y378495D01*
X366739Y380332D01*
X365332Y381739D01*
X363495Y382500D01*
X362186D01*
X351673Y393013D01*
X352159Y394186D01*
X358525D01*
X358706Y394222D01*
X358907Y394022D01*
X360745Y393261D01*
X362734D01*
X364571Y394022D01*
X365978Y395429D01*
X366739Y397266D01*
Y399051D01*
X367298Y399454D01*
X367912Y399673D01*
X388099Y379487D01*
X387613Y378314D01*
X376600D01*
X375332Y378061D01*
X374257Y377343D01*
X356352Y359438D01*
X355672Y359831D01*
X352989Y360550D01*
X350211D01*
X347528Y359831D01*
X345122Y358442D01*
X343158Y356478D01*
X341769Y354072D01*
X341050Y351389D01*
Y348611D01*
X341769Y345928D01*
X343158Y343522D01*
X345122Y341558D01*
X347528Y340169D01*
X350211Y339450D01*
X352989D01*
X355672Y340169D01*
X358078Y341558D01*
X360042Y343522D01*
X361431Y345928D01*
X362150Y348611D01*
Y351389D01*
X361431Y354072D01*
X361038Y354752D01*
X377973Y371686D01*
X421740D01*
X422067Y370772D01*
X422095Y370416D01*
X421813Y370134D01*
X421395Y369855D01*
X421116Y369437D01*
X420761Y369082D01*
X420569Y368618D01*
X420290Y368201D01*
X420192Y367708D01*
X420000Y367245D01*
Y366743D01*
X419902Y366250D01*
Y289612D01*
X407645Y277355D01*
X407366Y276937D01*
X407011Y276582D01*
X406819Y276118D01*
X406540Y275701D01*
X406442Y275208D01*
X406250Y274745D01*
Y274242D01*
X406152Y273750D01*
X406250Y273258D01*
Y272755D01*
X406442Y272292D01*
X406483Y272084D01*
X405978Y271162D01*
X405671Y270814D01*
X221373D01*
X83314Y408872D01*
Y467500D01*
X83061Y468768D01*
X82343Y469843D01*
X62093Y490093D01*
X61018Y490811D01*
X59750Y491064D01*
X28210D01*
X26942Y490811D01*
X25867Y490093D01*
X24403Y488629D01*
X23684Y487554D01*
X23432Y486286D01*
Y485968D01*
X20754Y485250D01*
X18246Y483802D01*
X16198Y481754D01*
X14750Y479246D01*
X14000Y476448D01*
Y473552D01*
X14750Y470754D01*
X16198Y468246D01*
X18246Y466198D01*
X20754Y464750D01*
X23552Y464000D01*
X26448D01*
X29246Y464750D01*
X31754Y466198D01*
X33802Y468246D01*
X35250Y470754D01*
X36000Y473552D01*
Y476448D01*
X35250Y479246D01*
X33802Y481754D01*
X32390Y483166D01*
X32916Y484436D01*
X58377D01*
X76686Y466128D01*
Y407500D01*
X76939Y406232D01*
X77657Y405157D01*
X135880Y346933D01*
X135255Y345763D01*
X135000Y345814D01*
X41373D01*
X28314Y358872D01*
Y364500D01*
X29246Y364750D01*
X31754Y366198D01*
X33802Y368246D01*
X35250Y370754D01*
X36000Y373552D01*
Y376448D01*
X35250Y379246D01*
X33802Y381754D01*
X31754Y383802D01*
X29246Y385250D01*
X26448Y386000D01*
X23552D01*
X20754Y385250D01*
X18246Y383802D01*
X16198Y381754D01*
X14750Y379246D01*
X14000Y376448D01*
Y373552D01*
X14750Y370754D01*
X16198Y368246D01*
X18246Y366198D01*
X20754Y364750D01*
X21686Y364500D01*
Y357500D01*
X21939Y356232D01*
X22657Y355157D01*
X37657Y340157D01*
X38732Y339439D01*
X40000Y339186D01*
X133628D01*
X212657Y260157D01*
X213732Y259439D01*
X215000Y259186D01*
X557500D01*
X558768Y259439D01*
X559843Y260157D01*
X560813Y261127D01*
X562311Y260829D01*
X562741Y259792D01*
X564147Y258386D01*
X565985Y257625D01*
X567974D01*
X569812Y258386D01*
X571218Y259792D01*
X571980Y261630D01*
Y262938D01*
X611666Y302625D01*
X612974D01*
X614812Y303386D01*
X614868Y303442D01*
X616041Y302956D01*
Y298873D01*
X577293Y260125D01*
X575985D01*
X574147Y259364D01*
X572741Y257957D01*
X571980Y256119D01*
Y254130D01*
X572741Y252292D01*
X574147Y250886D01*
X575985Y250125D01*
X577974D01*
X579812Y250886D01*
X581218Y252292D01*
X581980Y254130D01*
Y255439D01*
X621698Y295157D01*
X622416Y296232D01*
X622668Y297500D01*
Y315381D01*
X622416Y316649D01*
X621698Y317724D01*
X620712Y318711D01*
X620790Y318899D01*
Y320888D01*
X620028Y322726D01*
X618622Y324132D01*
X616784Y324894D01*
X614795D01*
X612957Y324132D01*
X611563Y322738D01*
X610367Y323935D01*
X608529Y324696D01*
X606540D01*
X604702Y323935D01*
X604224Y323457D01*
X602502Y323531D01*
X601813Y324221D01*
X599976Y324982D01*
X597986D01*
X596149Y324221D01*
X594742Y322814D01*
X593981Y320976D01*
Y318987D01*
X594742Y317150D01*
X595667Y316224D01*
Y312854D01*
X553627Y270814D01*
X417183D01*
X416697Y271987D01*
X428605Y283895D01*
X429710Y285549D01*
X430098Y287500D01*
Y366250D01*
X430000Y366743D01*
Y367245D01*
X429808Y367708D01*
X429710Y368201D01*
X429431Y368618D01*
X429239Y369082D01*
X428884Y369437D01*
X428605Y369855D01*
X428187Y370134D01*
X427905Y370416D01*
X427933Y370772D01*
X428260Y371686D01*
X463628D01*
X481407Y353907D01*
X482482Y353189D01*
X483750Y352936D01*
X661930D01*
X662778Y351666D01*
X662500Y350994D01*
Y349005D01*
X663261Y347168D01*
X663442Y346987D01*
X662956Y345814D01*
X500000D01*
X498732Y345561D01*
X497657Y344843D01*
X472814Y320000D01*
X471506D01*
X469668Y319239D01*
X468261Y317832D01*
X467500Y315995D01*
Y314005D01*
X468261Y312168D01*
X469668Y310761D01*
X471506Y310000D01*
X473495D01*
X475332Y310761D01*
X476739Y312168D01*
X477500Y314005D01*
Y315314D01*
X501373Y339186D01*
X677500D01*
X678768Y339439D01*
X679843Y340157D01*
X686843Y347157D01*
X687561Y348232D01*
X687814Y349500D01*
Y398000D01*
X687561Y399268D01*
X686843Y400343D01*
X674270Y412916D01*
X674611Y414016D01*
X674740Y414186D01*
X683627D01*
X704186Y393627D01*
Y283757D01*
X703261Y282832D01*
X702500Y280995D01*
Y279005D01*
X703261Y277168D01*
X704668Y275761D01*
X706505Y275000D01*
X708495D01*
X710332Y275761D01*
X711739Y277168D01*
X712500Y279005D01*
Y280995D01*
X711739Y282832D01*
X710814Y283757D01*
Y310456D01*
X711987Y310942D01*
X712168Y310761D01*
X714005Y310000D01*
X715995D01*
X717832Y310761D01*
X719170Y312099D01*
X719512Y312072D01*
X720440Y311748D01*
Y245424D01*
X717508Y242493D01*
X716385Y241030D01*
X715680Y239327D01*
X715440Y237500D01*
X715680Y235673D01*
X716385Y233970D01*
X717508Y232508D01*
X718970Y231385D01*
X720673Y230680D01*
X722500Y230440D01*
X724327Y230680D01*
X726030Y231385D01*
X727492Y232508D01*
X732492Y237508D01*
X733615Y238970D01*
X734320Y240673D01*
X734560Y242500D01*
Y372500D01*
X734320Y374327D01*
X733615Y376030D01*
X732492Y377492D01*
X729992Y379992D01*
X728530Y381115D01*
X726827Y381820D01*
X725000Y382060D01*
X723173Y381820D01*
X721470Y381115D01*
X720008Y379992D01*
X719584Y379440D01*
X718314Y379871D01*
Y437104D01*
X718061Y438372D01*
X717343Y439448D01*
X704480Y452311D01*
Y453619D01*
X703718Y455457D01*
X702312Y456864D01*
X700474Y457625D01*
X698485D01*
X696647Y456864D01*
X695241Y455457D01*
X694480Y453619D01*
Y451630D01*
X695241Y449793D01*
X696647Y448386D01*
X698485Y447625D01*
X699793D01*
X711686Y435732D01*
Y396697D01*
X711428Y396598D01*
X710416Y396485D01*
X709843Y397343D01*
X687343Y419843D01*
X686268Y420561D01*
X685000Y420814D01*
X675612D01*
X674763Y422084D01*
X675041Y422755D01*
Y424745D01*
X674763Y425416D01*
X675612Y426686D01*
X677899D01*
X679168Y426939D01*
X680243Y427657D01*
X684343Y431757D01*
X685061Y432832D01*
X685314Y434100D01*
Y473000D01*
X685294Y473099D01*
X686338Y474185D01*
X686373Y474186D01*
X723743D01*
X724668Y473261D01*
X726505Y472500D01*
X728495D01*
X730332Y473261D01*
X731739Y474668D01*
X732500Y476505D01*
Y478495D01*
X731739Y480332D01*
X731558Y480513D01*
X732044Y481686D01*
X743743D01*
X744668Y480761D01*
X746505Y480000D01*
X748495D01*
X750332Y480761D01*
X751739Y482168D01*
X752500Y484005D01*
Y485995D01*
X751739Y487832D01*
X750332Y489239D01*
X748495Y490000D01*
X746505D01*
X744668Y489239D01*
X743743Y488314D01*
X688873D01*
X672343Y504843D01*
X671268Y505561D01*
X670000Y505814D01*
X561257D01*
X560332Y506739D01*
X558839Y507357D01*
X558360Y508673D01*
X559843Y510157D01*
X560561Y511232D01*
X560814Y512500D01*
Y523743D01*
X561739Y524668D01*
X562500Y526505D01*
Y528495D01*
X561739Y530332D01*
X560332Y531739D01*
X558495Y532500D01*
D02*
G37*
G36*
X851317Y284800D02*
X848683D01*
X846140Y284118D01*
X843860Y282802D01*
X841998Y280940D01*
X840682Y278660D01*
X840000Y276117D01*
Y273484D01*
X840682Y270940D01*
X841998Y268660D01*
X843860Y266798D01*
X846140Y265481D01*
X848683Y264800D01*
X851317D01*
X853860Y265481D01*
X856140Y266798D01*
X858002Y268660D01*
X859318Y270940D01*
X860000Y273484D01*
Y276117D01*
X859318Y278660D01*
X858002Y280940D01*
X856140Y282802D01*
X853860Y284118D01*
X851317Y284800D01*
D02*
G37*
G36*
X82500Y261560D02*
X72500D01*
X70673Y261320D01*
X68970Y260614D01*
X67508Y259492D01*
X66385Y258030D01*
X65680Y256327D01*
X65440Y254500D01*
Y244500D01*
X65680Y242673D01*
X66385Y240970D01*
X67508Y239508D01*
X68970Y238386D01*
X70673Y237680D01*
X72500Y237440D01*
X82500D01*
X84327Y237680D01*
X86030Y238386D01*
X87493Y239508D01*
X88615Y240970D01*
X89320Y242673D01*
X89560Y244500D01*
Y254500D01*
X89320Y256327D01*
X88615Y258030D01*
X87493Y259492D01*
X86030Y260614D01*
X84327Y261320D01*
X82500Y261560D01*
D02*
G37*
G36*
X783481Y237990D02*
X783370D01*
Y228770D01*
X792590D01*
Y228881D01*
X791875Y231549D01*
X790494Y233941D01*
X788541Y235894D01*
X786149Y237275D01*
X783481Y237990D01*
D02*
G37*
G36*
X780830D02*
X780719D01*
X778051Y237275D01*
X775659Y235894D01*
X773706Y233941D01*
X772325Y231549D01*
X771610Y228881D01*
Y228770D01*
X780830D01*
Y237990D01*
D02*
G37*
G36*
X565160Y231090D02*
X564970D01*
Y221270D01*
X574790D01*
Y221460D01*
X574034Y224281D01*
X572574Y226809D01*
X570509Y228874D01*
X567981Y230334D01*
X565160Y231090D01*
D02*
G37*
G36*
X562430D02*
X562240D01*
X559419Y230334D01*
X556891Y228874D01*
X554826Y226809D01*
X553366Y224281D01*
X552610Y221460D01*
Y221270D01*
X562430D01*
Y231090D01*
D02*
G37*
G36*
X817450Y237450D02*
X797550D01*
Y217550D01*
X817450D01*
Y237450D01*
D02*
G37*
G36*
X792590Y226230D02*
X783370D01*
Y217010D01*
X783481D01*
X786149Y217725D01*
X788541Y219106D01*
X790494Y221059D01*
X791875Y223451D01*
X792590Y226119D01*
Y226230D01*
D02*
G37*
G36*
X780830D02*
X771610D01*
Y226119D01*
X772325Y223451D01*
X773706Y221059D01*
X775659Y219106D01*
X778051Y217725D01*
X780719Y217010D01*
X780830D01*
Y226230D01*
D02*
G37*
G36*
X640995Y332500D02*
X639005D01*
X637168Y331739D01*
X635761Y330332D01*
X635000Y328495D01*
Y326505D01*
X635761Y324668D01*
X637168Y323261D01*
X639005Y322500D01*
X640995D01*
X642832Y323261D01*
X643757Y324186D01*
X648144D01*
X648416Y323770D01*
X647727Y322500D01*
X646505D01*
X644668Y321739D01*
X643261Y320332D01*
X642500Y318495D01*
Y316505D01*
X643261Y314668D01*
X644186Y313743D01*
Y311373D01*
X581128Y248314D01*
X145000D01*
X143732Y248061D01*
X142657Y247343D01*
X56641Y161327D01*
D01*
X30082Y134768D01*
X29246Y135250D01*
X26448Y136000D01*
X23552D01*
X20754Y135250D01*
X18246Y133802D01*
X16198Y131754D01*
X14750Y129246D01*
X14000Y126448D01*
Y123552D01*
X14750Y120754D01*
X16198Y118246D01*
X18246Y116198D01*
X20754Y114750D01*
X23552Y114000D01*
X26448D01*
X29246Y114750D01*
X31754Y116198D01*
X33802Y118246D01*
X35250Y120754D01*
X36000Y123552D01*
Y126448D01*
X35250Y129246D01*
X34768Y130082D01*
X67186Y162500D01*
D01*
X146373Y241686D01*
X582500D01*
X583768Y241939D01*
X584843Y242657D01*
X649843Y307657D01*
X650416Y308515D01*
X651428Y308402D01*
X651686Y308304D01*
Y236473D01*
X645764Y230550D01*
X629350D01*
Y209450D01*
X650450D01*
Y225864D01*
X657343Y232757D01*
X658061Y233832D01*
X658314Y235100D01*
Y322500D01*
X658061Y323768D01*
X657343Y324843D01*
X652343Y329843D01*
X651268Y330561D01*
X650000Y330814D01*
X643757D01*
X642832Y331739D01*
X640995Y332500D01*
D02*
G37*
G36*
X615889Y230550D02*
X613111D01*
X610428Y229831D01*
X608022Y228442D01*
X606058Y226478D01*
X604669Y224072D01*
X603950Y221389D01*
Y218611D01*
X604669Y215928D01*
X606058Y213522D01*
X608022Y211558D01*
X610428Y210169D01*
X613111Y209450D01*
X615889D01*
X618572Y210169D01*
X620978Y211558D01*
X622942Y213522D01*
X624331Y215928D01*
X625050Y218611D01*
Y221389D01*
X624331Y224072D01*
X622942Y226478D01*
X620978Y228442D01*
X618572Y229831D01*
X615889Y230550D01*
D02*
G37*
G36*
X590489D02*
X587711D01*
X585028Y229831D01*
X582622Y228442D01*
X580658Y226478D01*
X579269Y224072D01*
X578550Y221389D01*
Y218611D01*
X579269Y215928D01*
X580658Y213522D01*
X582622Y211558D01*
X585028Y210169D01*
X587711Y209450D01*
X590489D01*
X593172Y210169D01*
X595578Y211558D01*
X597542Y213522D01*
X598931Y215928D01*
X599650Y218611D01*
Y221389D01*
X598931Y224072D01*
X597542Y226478D01*
X595578Y228442D01*
X593172Y229831D01*
X590489Y230550D01*
D02*
G37*
G36*
X539689D02*
X536911D01*
X534228Y229831D01*
X531822Y228442D01*
X529858Y226478D01*
X528469Y224072D01*
X527750Y221389D01*
Y218611D01*
X528469Y215928D01*
X529858Y213522D01*
X531822Y211558D01*
X534228Y210169D01*
X536911Y209450D01*
X539689D01*
X542372Y210169D01*
X544778Y211558D01*
X546742Y213522D01*
X548131Y215928D01*
X548850Y218611D01*
Y221389D01*
X548131Y224072D01*
X546742Y226478D01*
X544778Y228442D01*
X542372Y229831D01*
X539689Y230550D01*
D02*
G37*
G36*
X514289D02*
X511511D01*
X508828Y229831D01*
X506422Y228442D01*
X504458Y226478D01*
X503069Y224072D01*
X502350Y221389D01*
Y218611D01*
X503069Y215928D01*
X504458Y213522D01*
X506422Y211558D01*
X508828Y210169D01*
X511511Y209450D01*
X514289D01*
X516972Y210169D01*
X519378Y211558D01*
X521342Y213522D01*
X522731Y215928D01*
X523450Y218611D01*
Y221389D01*
X522731Y224072D01*
X521342Y226478D01*
X519378Y228442D01*
X516972Y229831D01*
X514289Y230550D01*
D02*
G37*
G36*
X488889D02*
X486111D01*
X483428Y229831D01*
X481022Y228442D01*
X479058Y226478D01*
X477669Y224072D01*
X476950Y221389D01*
Y218611D01*
X477669Y215928D01*
X479058Y213522D01*
X481022Y211558D01*
X483428Y210169D01*
X486111Y209450D01*
X488889D01*
X491572Y210169D01*
X493978Y211558D01*
X495942Y213522D01*
X497331Y215928D01*
X498050Y218611D01*
Y221389D01*
X497331Y224072D01*
X495942Y226478D01*
X493978Y228442D01*
X491572Y229831D01*
X488889Y230550D01*
D02*
G37*
G36*
X574790Y218730D02*
X564970D01*
Y208910D01*
X565160D01*
X567981Y209666D01*
X570509Y211126D01*
X572574Y213191D01*
X574034Y215719D01*
X574790Y218540D01*
Y218730D01*
D02*
G37*
G36*
X562430D02*
X552610D01*
Y218540D01*
X553366Y215719D01*
X554826Y213191D01*
X556891Y211126D01*
X559419Y209666D01*
X562240Y208910D01*
X562430D01*
Y218730D01*
D02*
G37*
G36*
X457500Y240098D02*
X457007Y240000D01*
X456505D01*
X456042Y239808D01*
X455549Y239710D01*
X455132Y239431D01*
X454668Y239239D01*
X454313Y238884D01*
X453895Y238605D01*
X453616Y238187D01*
X453261Y237832D01*
X453069Y237368D01*
X452790Y236951D01*
X452692Y236458D01*
X452500Y235995D01*
Y235492D01*
X452402Y235000D01*
Y210000D01*
X452500Y209508D01*
Y209005D01*
X452692Y208542D01*
X452790Y208049D01*
X453069Y207632D01*
X453261Y207168D01*
X453616Y206813D01*
X453895Y206395D01*
X454313Y206116D01*
X454668Y205761D01*
X455132Y205569D01*
X455549Y205290D01*
X456041Y205192D01*
X456505Y205000D01*
X457008D01*
X457500Y204902D01*
X457992Y205000D01*
X458495D01*
X458959Y205192D01*
X459451Y205290D01*
X459868Y205569D01*
X460332Y205761D01*
X460687Y206116D01*
X461105Y206395D01*
X461384Y206813D01*
X461739Y207168D01*
X461931Y207632D01*
X462210Y208049D01*
X462308Y208542D01*
X462500Y209005D01*
Y209508D01*
X462598Y210000D01*
Y235000D01*
X462500Y235492D01*
Y235995D01*
X462308Y236458D01*
X462210Y236951D01*
X461931Y237368D01*
X461739Y237832D01*
X461384Y238187D01*
X461105Y238605D01*
X460687Y238884D01*
X460332Y239239D01*
X459868Y239431D01*
X459451Y239710D01*
X458958Y239808D01*
X458495Y240000D01*
X457993D01*
X457500Y240098D01*
D02*
G37*
G36*
X26519Y186540D02*
X26270D01*
Y176270D01*
X36540D01*
Y176519D01*
X35754Y179454D01*
X34234Y182086D01*
X32086Y184234D01*
X29454Y185754D01*
X26519Y186540D01*
D02*
G37*
G36*
X23730D02*
X23481D01*
X20546Y185754D01*
X17914Y184234D01*
X15766Y182086D01*
X14246Y179454D01*
X13460Y176519D01*
Y176270D01*
X23730D01*
Y186540D01*
D02*
G37*
G36*
X50000Y198362D02*
X46606Y197915D01*
X43444Y196605D01*
X40728Y194522D01*
X38644Y191806D01*
X37335Y188644D01*
X36888Y185250D01*
Y184750D01*
X37335Y181356D01*
X38644Y178194D01*
X40728Y175478D01*
X43444Y173395D01*
X46606Y172085D01*
X50000Y171638D01*
X53394Y172085D01*
X56556Y173395D01*
X59272Y175478D01*
X61356Y178194D01*
X62665Y181356D01*
X63112Y184750D01*
Y185250D01*
X62665Y188644D01*
X61356Y191806D01*
X59272Y194522D01*
X56556Y196605D01*
X53394Y197915D01*
X50000Y198362D01*
D02*
G37*
G36*
X36540Y173730D02*
X26270D01*
Y163460D01*
X26519D01*
X29454Y164247D01*
X32086Y165766D01*
X34234Y167914D01*
X35754Y170546D01*
X36540Y173481D01*
Y173730D01*
D02*
G37*
G36*
X23730D02*
X13460D01*
Y173481D01*
X14246Y170546D01*
X15766Y167914D01*
X17914Y165766D01*
X20546Y164247D01*
X23481Y163460D01*
X23730D01*
Y173730D01*
D02*
G37*
G36*
X97220Y125040D02*
X96270D01*
Y103770D01*
X117540D01*
Y104720D01*
X116674Y109075D01*
X114975Y113177D01*
X112508Y116868D01*
X109368Y120008D01*
X105677Y122475D01*
X101575Y124174D01*
X97220Y125040D01*
D02*
G37*
G36*
X93730D02*
X92780D01*
X88425Y124174D01*
X84323Y122475D01*
X80632Y120008D01*
X77492Y116868D01*
X75025Y113177D01*
X73326Y109075D01*
X72460Y104720D01*
Y103770D01*
X93730D01*
Y125040D01*
D02*
G37*
G36*
X51712Y128000D02*
X48288D01*
X44982Y127114D01*
X42018Y125402D01*
X39597Y122982D01*
X37886Y120018D01*
X37000Y116712D01*
Y113288D01*
X37886Y109982D01*
X39597Y107018D01*
X42018Y104597D01*
X44982Y102886D01*
X48288Y102000D01*
X51712D01*
X55018Y102886D01*
X57982Y104597D01*
X60403Y107018D01*
X62114Y109982D01*
X63000Y113288D01*
Y116712D01*
X62114Y120018D01*
X60403Y122982D01*
X57982Y125402D01*
X55018Y127114D01*
X51712Y128000D01*
D02*
G37*
G36*
X117540Y101230D02*
X96270D01*
Y79960D01*
X97220D01*
X101575Y80826D01*
X105677Y82525D01*
X109368Y84992D01*
X112508Y88132D01*
X114975Y91823D01*
X116674Y95925D01*
X117540Y100280D01*
Y101230D01*
D02*
G37*
G36*
X93730D02*
X72460D01*
Y100280D01*
X73326Y95925D01*
X75025Y91823D01*
X77492Y88132D01*
X80632Y84992D01*
X84323Y82525D01*
X88425Y80826D01*
X92780Y79960D01*
X93730D01*
Y101230D01*
D02*
G37*
G36*
X862220Y62540D02*
X861270D01*
Y41270D01*
X882540D01*
Y42220D01*
X881674Y46575D01*
X879975Y50677D01*
X877508Y54368D01*
X874368Y57508D01*
X870677Y59975D01*
X866575Y61674D01*
X862220Y62540D01*
D02*
G37*
G36*
X858730D02*
X857780D01*
X853425Y61674D01*
X849323Y59975D01*
X845632Y57508D01*
X842492Y54368D01*
X840025Y50677D01*
X838326Y46575D01*
X837460Y42220D01*
Y41270D01*
X858730D01*
Y62540D01*
D02*
G37*
G36*
X42220D02*
X41270D01*
Y41270D01*
X62540D01*
Y42220D01*
X61674Y46575D01*
X59975Y50677D01*
X57508Y54368D01*
X54368Y57508D01*
X50677Y59975D01*
X46575Y61674D01*
X42220Y62540D01*
D02*
G37*
G36*
X38730D02*
X37780D01*
X33425Y61674D01*
X29323Y59975D01*
X25632Y57508D01*
X22492Y54368D01*
X20025Y50677D01*
X18326Y46575D01*
X17460Y42220D01*
Y41270D01*
X38730D01*
Y62540D01*
D02*
G37*
G36*
X882540Y38730D02*
X861270D01*
Y17460D01*
X862220D01*
X866575Y18326D01*
X870677Y20025D01*
X874368Y22492D01*
X877508Y25632D01*
X879975Y29323D01*
X881674Y33425D01*
X882540Y37780D01*
Y38730D01*
D02*
G37*
G36*
X858730D02*
X837460D01*
Y37780D01*
X838326Y33425D01*
X840025Y29323D01*
X842492Y25632D01*
X845632Y22492D01*
X849323Y20025D01*
X853425Y18326D01*
X857780Y17460D01*
X858730D01*
Y38730D01*
D02*
G37*
G36*
X62540D02*
X41270D01*
Y17460D01*
X42220D01*
X46575Y18326D01*
X50677Y20025D01*
X54368Y22492D01*
X57508Y25632D01*
X59975Y29323D01*
X61674Y33425D01*
X62540Y37780D01*
Y38730D01*
D02*
G37*
G36*
X38730D02*
X17460D01*
Y37780D01*
X18326Y33425D01*
X20025Y29323D01*
X22492Y25632D01*
X25632Y22492D01*
X29323Y20025D01*
X33425Y18326D01*
X37780Y17460D01*
X38730D01*
Y38730D01*
D02*
G37*
%LPD*%
D13*
X540000Y495000D02*
X557500Y512500D01*
X192500Y495000D02*
X540000D01*
X557500Y512500D02*
Y527500D01*
Y502500D02*
X670000D01*
X687500Y485000D01*
X661830Y489330D02*
X664920D01*
X557500Y465000D02*
X588000Y495500D01*
X668339D02*
X686339Y477500D01*
X588000Y495500D02*
X668339D01*
X664920Y489330D02*
X665000Y489250D01*
X196364Y485000D02*
X550000D01*
X557500Y477500D01*
X485203Y445000D02*
X500203Y430000D01*
X240000Y445000D02*
X485203D01*
X231250Y436250D02*
X240000Y445000D01*
X237500Y432589D02*
X242411Y437500D01*
X486339D02*
X498839Y425000D01*
X242411Y437500D02*
X486339D01*
X257316Y415184D02*
X257405D01*
X237500Y420000D02*
Y432589D01*
X382500Y430000D02*
X420000Y392500D01*
X250000Y422500D02*
X257316Y415184D01*
X243750Y430000D02*
X382500D01*
X231250Y416250D02*
X250000Y397500D01*
X226750Y414386D02*
X248636Y392500D01*
X231250Y416250D02*
Y436250D01*
X257405Y415184D02*
X263578Y409011D01*
X226750Y414386D02*
Y439250D01*
X257500Y470000D01*
X655000Y465000D02*
X664091Y455909D01*
X655000Y482500D02*
X661830Y489330D01*
X655000Y465000D02*
Y482500D01*
X420000Y392500D02*
X470000D01*
X673536D01*
X680000Y357500D02*
Y382500D01*
X675000Y387500D02*
X680000Y382500D01*
X673536Y392500D02*
X675000Y391035D01*
Y387500D02*
Y391035D01*
X673750Y358750D02*
Y380000D01*
X667500Y386250D02*
X673750Y380000D01*
X347500Y392500D02*
X362500Y377500D01*
X248636Y392500D02*
X347500D01*
X358525Y397500D02*
X358616Y397591D01*
X361069D02*
X361739Y398261D01*
X358616Y397591D02*
X361069D01*
X250000Y397500D02*
X358525D01*
X162500Y377500D02*
Y387500D01*
X145000Y405000D02*
Y440000D01*
Y405000D02*
X162500Y387500D01*
X145000Y440000D02*
X195000Y490000D01*
X500203Y430000D02*
X677899D01*
X557500Y412500D02*
X562500Y417500D01*
X685000D02*
X707500Y395000D01*
X498839Y425000D02*
X666827D01*
X667407Y424420D02*
X669372D01*
X684500Y349500D02*
Y398000D01*
X562500Y417500D02*
X685000D01*
X667500Y411250D02*
X667898Y410852D01*
X669372Y424420D02*
X670041Y423750D01*
X677899Y430000D02*
X682000Y434100D01*
X666827Y425000D02*
X667407Y424420D01*
X667898Y410852D02*
X671648D01*
X684500Y398000D01*
X677500Y435965D02*
Y457500D01*
X670000Y465000D02*
X677500Y457500D01*
X665000Y465000D02*
X670000D01*
X665000Y477500D02*
X677500D01*
X682000Y434100D02*
Y473000D01*
X677500Y477500D02*
X682000Y473000D01*
X500000Y342500D02*
X677500D01*
X472500Y315000D02*
X500000Y342500D01*
X677500D02*
X684500Y349500D01*
X351600Y350000D02*
X376600Y375000D01*
X465000D02*
X483750Y356250D01*
X376600Y375000D02*
X465000D01*
X470000Y380000D02*
X477500Y372500D01*
X487500Y362500D01*
X367761Y404511D02*
X392272Y380000D01*
X470000D01*
X369625Y409011D02*
X393636Y385000D01*
X477500D01*
X477880Y470000D02*
X508880Y439000D01*
X257500Y470000D02*
X477880D01*
X481023Y456477D02*
X503000Y434500D01*
X479521Y458574D02*
Y459521D01*
Y458574D02*
X481023Y457072D01*
Y456477D02*
Y457072D01*
X503000Y434500D02*
X676036D01*
X222500Y477500D02*
X477500D01*
X508880Y439000D02*
X669000D01*
X477500Y477500D02*
X509750Y445250D01*
X663411D01*
X557500Y262500D02*
X607534Y312534D01*
Y319696D01*
X619355Y297500D02*
Y315381D01*
X615790Y318946D02*
X619355Y315381D01*
X615790Y318946D02*
Y319894D01*
X257197Y407500D02*
X260186Y404511D01*
X367761D01*
X256250Y407500D02*
X257197D01*
X263578Y409011D02*
X369625D01*
X707500Y280000D02*
Y395000D01*
X715000Y315000D02*
Y437104D01*
X699480Y452625D02*
X715000Y437104D01*
X650000Y327500D02*
X655000Y322500D01*
X639900Y220000D02*
X655000Y235100D01*
Y322500D01*
X647500Y310000D02*
Y317500D01*
X640000Y327500D02*
X650000D01*
X582500Y245000D02*
X647500Y310000D01*
X145000Y245000D02*
X582500D01*
X576980Y255125D02*
X619355Y297500D01*
X566980Y262625D02*
X611855Y307500D01*
X215000Y262500D02*
X557500D01*
X25000Y125000D02*
X145000Y245000D01*
X135000Y342500D02*
X215000Y262500D01*
X220000Y267500D02*
X555000D01*
X80000Y407500D02*
X220000Y267500D01*
X555000D02*
X598981Y311481D01*
Y319982D01*
X686339Y477500D02*
X727500D01*
X687500Y485000D02*
X747500D01*
X664091Y455909D02*
X667727D01*
X332500Y490000D02*
X557500D01*
X557500Y490000D01*
X483750Y356250D02*
X671250D01*
X673750Y358750D01*
X477500Y385000D02*
X487500Y375000D01*
X667500D01*
X487500Y362500D02*
X667500D01*
X672500Y442500D02*
Y451136D01*
X667727Y455909D02*
X672500Y451136D01*
X669000Y439000D02*
X672500Y442500D01*
X676036Y434500D02*
X677500Y435965D01*
X162500Y437500D02*
X182500D01*
X222500Y477500D01*
X115000Y417500D02*
X192500Y495000D01*
X152500Y441136D02*
X196364Y485000D01*
X195000Y490000D02*
X332500D01*
X332500Y490000D01*
X152500Y407500D02*
Y441136D01*
X95000Y417500D02*
X115000D01*
X152500Y407500D02*
X162500Y397500D01*
X59750Y487750D02*
X80000Y467500D01*
X28210Y487750D02*
X59750D01*
X80000Y407500D02*
Y467500D01*
X667500Y350000D02*
X672500D01*
X667500Y350000D02*
X667500Y350000D01*
X672500D02*
X680000Y357500D01*
X40000Y342500D02*
X135000D01*
X25000Y475000D02*
X26746Y476746D01*
Y486286D01*
X28210Y487750D01*
X25000Y357500D02*
X40000Y342500D01*
X25000Y357500D02*
Y375000D01*
X822000Y407500D02*
X838598Y390902D01*
Y389965D02*
Y390902D01*
X840152Y398260D02*
X840304Y398108D01*
X840000Y407500D02*
X840152Y407348D01*
Y398260D02*
Y407348D01*
X810000Y407500D02*
X822000D01*
D17*
X424600Y591750D02*
D03*
X475400D02*
D03*
X624600D02*
D03*
X675400D02*
D03*
X224600D02*
D03*
X275400D02*
D03*
D66*
X722500Y237500D02*
X727500Y242500D01*
Y372500D01*
X725000Y375000D02*
X727500Y372500D01*
D68*
X457500Y210000D02*
Y235000D01*
X411250Y273750D02*
X425000Y287500D01*
Y366250D01*
X224800Y295200D02*
Y349800D01*
X224600Y350000D02*
X224800Y349800D01*
Y295200D02*
X225000Y295000D01*
X835000Y495000D02*
X850000Y480000D01*
Y422500D02*
Y480000D01*
D70*
Y300200D02*
D03*
D71*
Y274800D02*
D03*
D72*
X77500Y249500D02*
D03*
D73*
Y325500D02*
D03*
D74*
X815000Y102500D02*
D03*
X95000D02*
D03*
X860000Y580000D02*
D03*
Y40000D02*
D03*
X40000D02*
D03*
Y580000D02*
D03*
D75*
X199200Y350000D02*
D03*
X639900Y220000D02*
D03*
D76*
X224600Y350000D02*
D03*
X250000D02*
D03*
X275400D02*
D03*
X300800D02*
D03*
X326200D02*
D03*
X351600D02*
D03*
X614500Y220000D02*
D03*
X589100D02*
D03*
X563700D02*
D03*
X538300D02*
D03*
X512900D02*
D03*
X487500D02*
D03*
D77*
X839400Y428850D02*
D03*
Y371150D02*
D03*
D78*
X782100Y227500D02*
D03*
D79*
X807500D02*
D03*
D80*
X25000Y425000D02*
D03*
Y375000D02*
D03*
Y475000D02*
D03*
Y525000D02*
D03*
Y125000D02*
D03*
Y175000D02*
D03*
D81*
X50000Y435000D02*
D03*
Y535000D02*
D03*
Y185000D02*
D03*
D82*
Y365000D02*
D03*
Y465000D02*
D03*
Y115000D02*
D03*
D83*
X665000Y489250D02*
D03*
X243750Y430000D02*
D03*
X250000Y422500D02*
D03*
X237500Y420000D02*
D03*
X667500Y386250D02*
D03*
Y411250D02*
D03*
X670041Y423750D02*
D03*
X892367Y601814D02*
D03*
Y551814D02*
D03*
Y501814D02*
D03*
Y451814D02*
D03*
Y401814D02*
D03*
Y351814D02*
D03*
Y301814D02*
D03*
Y251814D02*
D03*
Y201814D02*
D03*
Y151814D02*
D03*
Y101814D02*
D03*
Y51814D02*
D03*
X867367Y551814D02*
D03*
X879867Y526814D02*
D03*
Y426814D02*
D03*
X867367Y401814D02*
D03*
X879867Y376814D02*
D03*
Y326814D02*
D03*
X867367Y301814D02*
D03*
X879867Y276814D02*
D03*
X867367Y251814D02*
D03*
X879867Y226814D02*
D03*
X867367Y201814D02*
D03*
X879867Y176814D02*
D03*
X867367Y151814D02*
D03*
X879867Y126814D02*
D03*
X867367Y101814D02*
D03*
X879867Y76814D02*
D03*
X842367Y601814D02*
D03*
Y551814D02*
D03*
X854867Y526814D02*
D03*
Y326814D02*
D03*
X842367Y251814D02*
D03*
X854867Y226814D02*
D03*
X842367Y201814D02*
D03*
X854867Y176814D02*
D03*
X842367Y151814D02*
D03*
X854867Y126814D02*
D03*
Y76814D02*
D03*
X817367Y601814D02*
D03*
X829867Y576814D02*
D03*
X817367Y351814D02*
D03*
X829867Y226814D02*
D03*
Y176814D02*
D03*
X792367Y601814D02*
D03*
X804867Y576814D02*
D03*
X792367Y201814D02*
D03*
X767367Y601814D02*
D03*
X779867Y576814D02*
D03*
X767367Y551814D02*
D03*
X779867Y476814D02*
D03*
X767367Y451814D02*
D03*
X779867Y426814D02*
D03*
X767367Y401814D02*
D03*
Y301814D02*
D03*
Y251814D02*
D03*
Y201814D02*
D03*
X779867Y176814D02*
D03*
X742367Y601814D02*
D03*
X754867Y576814D02*
D03*
X742367Y551814D02*
D03*
X754867Y526814D02*
D03*
X742367Y451814D02*
D03*
X754867Y426814D02*
D03*
Y326814D02*
D03*
X742367Y301814D02*
D03*
X754867Y276814D02*
D03*
X742367Y251814D02*
D03*
X754867Y226814D02*
D03*
X742367Y201814D02*
D03*
X754867Y176814D02*
D03*
X717367Y601814D02*
D03*
X729867Y576814D02*
D03*
X717367Y551814D02*
D03*
X729867Y526814D02*
D03*
X717367Y501814D02*
D03*
Y451814D02*
D03*
Y301814D02*
D03*
Y251814D02*
D03*
X729867Y226814D02*
D03*
X717367Y201814D02*
D03*
X729867Y176814D02*
D03*
X692367Y601814D02*
D03*
X704867Y576814D02*
D03*
Y426814D02*
D03*
X692367Y301814D02*
D03*
Y251814D02*
D03*
X704867Y176814D02*
D03*
X679867Y326814D02*
D03*
Y276814D02*
D03*
Y226814D02*
D03*
Y176814D02*
D03*
X654867Y526814D02*
D03*
X642367Y251814D02*
D03*
X629867Y526814D02*
D03*
Y326814D02*
D03*
Y276814D02*
D03*
X617367Y251814D02*
D03*
X592367Y601814D02*
D03*
X604867Y576814D02*
D03*
X592367Y551814D02*
D03*
X604867Y526814D02*
D03*
X567367Y601814D02*
D03*
X579867Y576814D02*
D03*
X567367Y551814D02*
D03*
X579867Y526814D02*
D03*
X542367Y601814D02*
D03*
X554867Y576814D02*
D03*
X542367Y551814D02*
D03*
X554867Y276814D02*
D03*
X517367Y601814D02*
D03*
X529867Y576814D02*
D03*
X517367Y551814D02*
D03*
Y301814D02*
D03*
X529867Y276814D02*
D03*
X517367Y251814D02*
D03*
X492367Y601814D02*
D03*
X504867Y576814D02*
D03*
X492367Y551814D02*
D03*
X504867Y326814D02*
D03*
X492367Y301814D02*
D03*
X504867Y276814D02*
D03*
X479867Y526814D02*
D03*
X467367Y501814D02*
D03*
Y351814D02*
D03*
Y301814D02*
D03*
X442367Y501814D02*
D03*
Y351814D02*
D03*
X454867Y326814D02*
D03*
X442367Y201814D02*
D03*
X454867Y176814D02*
D03*
X417367Y501814D02*
D03*
Y201814D02*
D03*
X429867Y176814D02*
D03*
X392367Y601814D02*
D03*
X404867Y576814D02*
D03*
X392367Y501814D02*
D03*
Y351814D02*
D03*
X404867Y326814D02*
D03*
X392367Y301814D02*
D03*
Y251814D02*
D03*
Y201814D02*
D03*
X404867Y176814D02*
D03*
X367367Y601814D02*
D03*
X379867Y576814D02*
D03*
X367367Y351814D02*
D03*
X379867Y326814D02*
D03*
X367367Y301814D02*
D03*
X379867Y276814D02*
D03*
X367367Y251814D02*
D03*
Y201814D02*
D03*
X379867Y176814D02*
D03*
X342367Y601814D02*
D03*
X354867Y576814D02*
D03*
Y326814D02*
D03*
X342367Y301814D02*
D03*
X354867Y276814D02*
D03*
X342367Y251814D02*
D03*
Y201814D02*
D03*
X354867Y176814D02*
D03*
X317367Y601814D02*
D03*
X329867Y576814D02*
D03*
X317367Y551814D02*
D03*
Y501814D02*
D03*
X329867Y326814D02*
D03*
X317367Y301814D02*
D03*
X329867Y276814D02*
D03*
X317367Y251814D02*
D03*
Y201814D02*
D03*
X329867Y176814D02*
D03*
X292367Y601814D02*
D03*
X304867Y576814D02*
D03*
X292367Y551814D02*
D03*
X304867Y326814D02*
D03*
X292367Y301814D02*
D03*
X304867Y276814D02*
D03*
X292367Y251814D02*
D03*
Y201814D02*
D03*
X304867Y176814D02*
D03*
X267367Y301814D02*
D03*
X279867Y276814D02*
D03*
X267367Y251814D02*
D03*
Y201814D02*
D03*
X279867Y176814D02*
D03*
X254867Y526814D02*
D03*
X242367Y501814D02*
D03*
Y301814D02*
D03*
X254867Y276814D02*
D03*
X242367Y251814D02*
D03*
Y201814D02*
D03*
X254867Y176814D02*
D03*
X217367Y501814D02*
D03*
Y451814D02*
D03*
Y401814D02*
D03*
X229867Y226814D02*
D03*
X217367Y201814D02*
D03*
X229867Y176814D02*
D03*
X192367Y601814D02*
D03*
X204867Y576814D02*
D03*
X192367Y501814D02*
D03*
X204867Y476814D02*
D03*
Y426814D02*
D03*
Y376814D02*
D03*
Y326814D02*
D03*
Y226814D02*
D03*
X192367Y201814D02*
D03*
X204867Y176814D02*
D03*
X167367Y601814D02*
D03*
X179867Y576814D02*
D03*
X167367Y501814D02*
D03*
X179867Y376814D02*
D03*
X167367Y351814D02*
D03*
X179867Y326814D02*
D03*
Y276814D02*
D03*
Y226814D02*
D03*
X167367Y201814D02*
D03*
X179867Y176814D02*
D03*
X142367Y601814D02*
D03*
X154867Y576814D02*
D03*
X142367Y551814D02*
D03*
Y301814D02*
D03*
X154867Y276814D02*
D03*
Y226814D02*
D03*
X142367Y201814D02*
D03*
X154867Y176814D02*
D03*
X117367Y601814D02*
D03*
X129867Y576814D02*
D03*
X117367Y551814D02*
D03*
Y451814D02*
D03*
Y401814D02*
D03*
X129867Y326814D02*
D03*
X117367Y301814D02*
D03*
X129867Y276814D02*
D03*
X117367Y201814D02*
D03*
X129867Y176814D02*
D03*
X117367Y151814D02*
D03*
Y51814D02*
D03*
X92367Y601814D02*
D03*
X104867Y576814D02*
D03*
X92367Y551814D02*
D03*
X104867Y526814D02*
D03*
X92367Y501814D02*
D03*
X104867Y476814D02*
D03*
X92367Y451814D02*
D03*
Y351814D02*
D03*
X104867Y326814D02*
D03*
X92367Y301814D02*
D03*
X104867Y276814D02*
D03*
Y226814D02*
D03*
X92367Y201814D02*
D03*
X104867Y176814D02*
D03*
X92367Y151814D02*
D03*
X104867Y126814D02*
D03*
Y76814D02*
D03*
X92367Y51814D02*
D03*
X67367Y601814D02*
D03*
X79867Y576814D02*
D03*
X67367Y551814D02*
D03*
X79867Y526814D02*
D03*
X67367Y501814D02*
D03*
X79867Y476814D02*
D03*
X67367Y451814D02*
D03*
Y401814D02*
D03*
Y351814D02*
D03*
Y301814D02*
D03*
X79867Y276814D02*
D03*
Y226814D02*
D03*
X67367Y201814D02*
D03*
Y151814D02*
D03*
X79867Y126814D02*
D03*
X67367Y101814D02*
D03*
X79867Y76814D02*
D03*
X67367Y51814D02*
D03*
X42367Y551814D02*
D03*
Y501814D02*
D03*
Y401814D02*
D03*
X54867Y326814D02*
D03*
X42367Y301814D02*
D03*
X54867Y276814D02*
D03*
X42367Y251814D02*
D03*
X54867Y226814D02*
D03*
X42367Y201814D02*
D03*
Y151814D02*
D03*
X54867Y76814D02*
D03*
X607534Y319696D02*
D03*
X615790Y319894D02*
D03*
X256250Y407500D02*
D03*
X479521Y459521D02*
D03*
X707500Y280000D02*
D03*
X715000Y315000D02*
D03*
X699480Y452625D02*
D03*
X647500Y317500D02*
D03*
X640000Y327500D02*
D03*
X611980Y307625D02*
D03*
X576980Y255125D02*
D03*
X566980Y262625D02*
D03*
X457500Y235000D02*
D03*
X411250Y273750D02*
D03*
X598981Y319982D02*
D03*
X457500Y210000D02*
D03*
X727500Y477500D02*
D03*
X747500Y485000D02*
D03*
X665000Y477500D02*
D03*
Y465000D02*
D03*
X557500Y465000D02*
D03*
Y412500D02*
D03*
Y527500D02*
D03*
Y502500D02*
D03*
Y490000D02*
D03*
Y477500D02*
D03*
X425000Y366250D02*
D03*
X472500Y315000D02*
D03*
X470000Y392500D02*
D03*
X477500Y385000D02*
D03*
Y372500D02*
D03*
X663411Y445250D02*
D03*
X477500Y477500D02*
D03*
X362264Y501250D02*
D03*
X162500Y437500D02*
D03*
X225708Y532500D02*
D03*
X236708D02*
D03*
X247584Y533250D02*
D03*
X322040Y513750D02*
D03*
X362500Y377500D02*
D03*
X667500Y375000D02*
D03*
Y350000D02*
D03*
Y362500D02*
D03*
X437583Y563075D02*
D03*
X434093Y526831D02*
D03*
X445093Y526833D02*
D03*
X456090Y527107D02*
D03*
X463917Y557537D02*
D03*
X416780Y553167D02*
D03*
X405780D02*
D03*
X394780D02*
D03*
X372780D02*
D03*
X361780D02*
D03*
X350901Y551537D02*
D03*
X341085Y546573D02*
D03*
X333319Y538783D02*
D03*
X325452Y531094D02*
D03*
X321931Y520673D02*
D03*
X363069Y518102D02*
D03*
X369760Y526833D02*
D03*
X380760D02*
D03*
X391760D02*
D03*
X402760D02*
D03*
X413760D02*
D03*
X424760Y526831D02*
D03*
X428438Y552894D02*
D03*
X236833Y564178D02*
D03*
X229865Y555667D02*
D03*
X207865D02*
D03*
X196865D02*
D03*
X185865D02*
D03*
X174865D02*
D03*
X163865D02*
D03*
X152865D02*
D03*
X132380Y549157D02*
D03*
X126151Y540091D02*
D03*
X120157Y530868D02*
D03*
X116931Y520351D02*
D03*
X117082Y509352D02*
D03*
X157407Y507476D02*
D03*
X158069Y518456D02*
D03*
X159708Y529333D02*
D03*
X170708D02*
D03*
X181708D02*
D03*
X192708D02*
D03*
X203708D02*
D03*
X214708D02*
D03*
X256683Y537158D02*
D03*
X262106Y546729D02*
D03*
X263167Y557677D02*
D03*
Y568677D02*
D03*
X635956Y563069D02*
D03*
X634512Y537028D02*
D03*
X645512Y536954D02*
D03*
X662297Y568910D02*
D03*
X802500Y517500D02*
D03*
Y506750D02*
D03*
Y528250D02*
D03*
X791750Y517500D02*
D03*
X813000D02*
D03*
X725000Y375000D02*
D03*
X866575Y475334D02*
D03*
Y495334D02*
D03*
X225000Y295000D02*
D03*
X722500Y237500D02*
D03*
X361739Y398261D02*
D03*
X95000Y417500D02*
D03*
X162500Y377500D02*
D03*
Y397500D02*
D03*
X850000Y422500D02*
D03*
X835000Y495000D02*
D03*
X838598Y389965D02*
D03*
X840304Y398108D02*
D03*
X840000Y407500D02*
D03*
X810000Y397500D02*
D03*
Y407500D02*
D03*
M02*
