G04*
G04 #@! TF.GenerationSoftware,Altium Limited,Altium Designer,23.0.1 (38)*
G04*
G04 Layer_Color=8421504*
%FSLAX44Y44*%
%MOMM*%
G71*
G04*
G04 #@! TF.SameCoordinates,02ADDA5B-483B-4F26-8753-4FD2AA90EFCE*
G04*
G04*
G04 #@! TF.FilePolarity,Positive*
G04*
G01*
G75*
%ADD15R,0.8000X1.0000*%
%ADD16R,1.6000X0.8000*%
%ADD17R,1.6000X4.9000*%
%ADD18R,1.5000X3.8100*%
%ADD19R,0.9500X0.6000*%
%ADD20R,0.6000X1.0000*%
%ADD21R,1.0000X0.8000*%
%ADD22R,0.6000X0.9500*%
G04:AMPARAMS|DCode=23|XSize=1.66mm|YSize=1.42mm|CornerRadius=0.2485mm|HoleSize=0mm|Usage=FLASHONLY|Rotation=270.000|XOffset=0mm|YOffset=0mm|HoleType=Round|Shape=RoundedRectangle|*
%AMROUNDEDRECTD23*
21,1,1.6600,0.9230,0,0,270.0*
21,1,1.1630,1.4200,0,0,270.0*
1,1,0.4970,-0.4615,-0.5815*
1,1,0.4970,-0.4615,0.5815*
1,1,0.4970,0.4615,0.5815*
1,1,0.4970,0.4615,-0.5815*
%
%ADD23ROUNDEDRECTD23*%
%ADD24R,1.0000X0.6000*%
G04:AMPARAMS|DCode=25|XSize=1.66mm|YSize=1.42mm|CornerRadius=0.2485mm|HoleSize=0mm|Usage=FLASHONLY|Rotation=0.000|XOffset=0mm|YOffset=0mm|HoleType=Round|Shape=RoundedRectangle|*
%AMROUNDEDRECTD25*
21,1,1.6600,0.9230,0,0,0.0*
21,1,1.1630,1.4200,0,0,0.0*
1,1,0.4970,0.5815,-0.4615*
1,1,0.4970,-0.5815,-0.4615*
1,1,0.4970,-0.5815,0.4615*
1,1,0.4970,0.5815,0.4615*
%
%ADD25ROUNDEDRECTD25*%
%ADD26R,2.5000X1.4000*%
G04:AMPARAMS|DCode=27|XSize=0.3mm|YSize=1.45mm|CornerRadius=0.045mm|HoleSize=0mm|Usage=FLASHONLY|Rotation=270.000|XOffset=0mm|YOffset=0mm|HoleType=Round|Shape=RoundedRectangle|*
%AMROUNDEDRECTD27*
21,1,0.3000,1.3600,0,0,270.0*
21,1,0.2100,1.4500,0,0,270.0*
1,1,0.0900,-0.6800,-0.1050*
1,1,0.0900,-0.6800,0.1050*
1,1,0.0900,0.6800,0.1050*
1,1,0.0900,0.6800,-0.1050*
%
%ADD27ROUNDEDRECTD27*%
G04:AMPARAMS|DCode=28|XSize=1.8mm|YSize=1.2mm|CornerRadius=0.12mm|HoleSize=0mm|Usage=FLASHONLY|Rotation=90.000|XOffset=0mm|YOffset=0mm|HoleType=Round|Shape=RoundedRectangle|*
%AMROUNDEDRECTD28*
21,1,1.8000,0.9600,0,0,90.0*
21,1,1.5600,1.2000,0,0,90.0*
1,1,0.2400,0.4800,0.7800*
1,1,0.2400,0.4800,-0.7800*
1,1,0.2400,-0.4800,-0.7800*
1,1,0.2400,-0.4800,0.7800*
%
%ADD28ROUNDEDRECTD28*%
G04:AMPARAMS|DCode=29|XSize=1.8mm|YSize=1.5mm|CornerRadius=0.15mm|HoleSize=0mm|Usage=FLASHONLY|Rotation=270.000|XOffset=0mm|YOffset=0mm|HoleType=Round|Shape=RoundedRectangle|*
%AMROUNDEDRECTD29*
21,1,1.8000,1.2000,0,0,270.0*
21,1,1.5000,1.5000,0,0,270.0*
1,1,0.3000,-0.6000,-0.7500*
1,1,0.3000,-0.6000,0.7500*
1,1,0.3000,0.6000,0.7500*
1,1,0.3000,0.6000,-0.7500*
%
%ADD29ROUNDEDRECTD29*%
G04:AMPARAMS|DCode=30|XSize=0.25mm|YSize=1.2mm|CornerRadius=0.025mm|HoleSize=0mm|Usage=FLASHONLY|Rotation=90.000|XOffset=0mm|YOffset=0mm|HoleType=Round|Shape=RoundedRectangle|*
%AMROUNDEDRECTD30*
21,1,0.2500,1.1500,0,0,90.0*
21,1,0.2000,1.2000,0,0,90.0*
1,1,0.0500,0.5750,0.1000*
1,1,0.0500,0.5750,-0.1000*
1,1,0.0500,-0.5750,-0.1000*
1,1,0.0500,-0.5750,0.1000*
%
%ADD30ROUNDEDRECTD30*%
G04:AMPARAMS|DCode=31|XSize=0.25mm|YSize=1.2mm|CornerRadius=0.025mm|HoleSize=0mm|Usage=FLASHONLY|Rotation=180.000|XOffset=0mm|YOffset=0mm|HoleType=Round|Shape=RoundedRectangle|*
%AMROUNDEDRECTD31*
21,1,0.2500,1.1500,0,0,180.0*
21,1,0.2000,1.2000,0,0,180.0*
1,1,0.0500,-0.1000,0.5750*
1,1,0.0500,0.1000,0.5750*
1,1,0.0500,0.1000,-0.5750*
1,1,0.0500,-0.1000,-0.5750*
%
%ADD31ROUNDEDRECTD31*%
%ADD32R,0.7400X1.0200*%
G36*
X817750Y373000D02*
X817750Y378000D01*
X817750Y378100D01*
X817826Y378283D01*
X817966Y378424D01*
X818150Y378500D01*
X818249Y378501D01*
X818249Y378501D01*
X831750Y378500D01*
X831849Y378500D01*
X832033Y378424D01*
X832174Y378284D01*
X832250Y378100D01*
X832250Y378000D01*
X832250Y378000D01*
X832249Y373000D01*
X832249Y372901D01*
X832173Y372717D01*
X832033Y372577D01*
X831849Y372500D01*
X831750Y372500D01*
X831750D01*
X818249Y372501D01*
X818150D01*
X817967Y372577D01*
X817826Y372717D01*
X817750Y372901D01*
X817750Y373000D01*
X817750Y373000D01*
D02*
G37*
G36*
X817750Y364999D02*
X817750Y370000D01*
X817750Y370099D01*
X817826Y370283D01*
X817967Y370424D01*
X818150Y370500D01*
X818250Y370500D01*
X818250Y370500D01*
X831750Y370500D01*
X831850Y370500D01*
X832033Y370424D01*
X832174Y370283D01*
X832250Y370099D01*
X832250Y370000D01*
X832250Y370000D01*
X832250Y365000D01*
X832250Y364901D01*
X832174Y364717D01*
X832033Y364576D01*
X831850Y364500D01*
X831750Y364500D01*
X831750D01*
X818250Y364500D01*
X818150D01*
X817967Y364576D01*
X817827Y364717D01*
X817751Y364900D01*
X817751Y364999D01*
X817750Y364999D01*
D02*
G37*
G36*
X817750Y422000D02*
X817750Y427000D01*
X817750Y427100D01*
X817826Y427283D01*
X817966Y427424D01*
X818150Y427500D01*
X818249Y427500D01*
X818249Y427501D01*
X831750Y427500D01*
X831849Y427500D01*
X832033Y427424D01*
X832174Y427284D01*
X832250Y427100D01*
X832250Y427000D01*
X832250Y427000D01*
X832249Y422001D01*
X832249Y421901D01*
X832173Y421717D01*
X832033Y421577D01*
X831849Y421501D01*
X831750Y421500D01*
X831750D01*
X818249Y421501D01*
X818150D01*
X817967Y421577D01*
X817826Y421717D01*
X817750Y421900D01*
X817750Y422000D01*
X817750Y422000D01*
D02*
G37*
G36*
Y430000D02*
X817750Y435000D01*
X817750Y435100D01*
X817826Y435283D01*
X817966Y435424D01*
X818150Y435500D01*
X818249Y435500D01*
X818249Y435501D01*
X831750Y435500D01*
X831849Y435500D01*
X832033Y435424D01*
X832174Y435284D01*
X832250Y435100D01*
X832250Y435000D01*
X832250Y435000D01*
X832249Y430000D01*
X832249Y429901D01*
X832173Y429717D01*
X832033Y429577D01*
X831849Y429501D01*
X831750Y429500D01*
X831750D01*
X818249Y429501D01*
X818150D01*
X817967Y429577D01*
X817826Y429717D01*
X817750Y429901D01*
X817750Y430000D01*
X817750Y430000D01*
D02*
G37*
G36*
X790750Y510000D02*
X790750Y509154D01*
X791397Y507592D01*
X792592Y506397D01*
X794155Y505750D01*
X795845Y505750D01*
X797407Y506397D01*
X798603Y507592D01*
X799250Y509154D01*
X799250Y510000D01*
X799250Y510845D01*
X798603Y512407D01*
X797407Y513603D01*
X795845Y514250D01*
X794155Y514250D01*
X792593Y513603D01*
X791397Y512407D01*
X790750Y510845D01*
X790750Y510000D01*
X790750Y510000D01*
D02*
G37*
G36*
Y525000D02*
X790750Y524155D01*
X791397Y522592D01*
X792592Y521397D01*
X794155Y520750D01*
X795845Y520750D01*
X797407Y521397D01*
X798603Y522592D01*
X799250Y524155D01*
X799250Y525000D01*
X799250Y525845D01*
X798603Y527407D01*
X797407Y528603D01*
X795845Y529250D01*
X794155Y529250D01*
X792593Y528603D01*
X791397Y527407D01*
X790750Y525845D01*
X790750Y525000D01*
X790750Y525000D01*
D02*
G37*
G36*
X805750Y510000D02*
X805750Y509154D01*
X806397Y507592D01*
X807592Y506397D01*
X809155Y505750D01*
X810845Y505750D01*
X812407Y506397D01*
X813603Y507592D01*
X814250Y509154D01*
X814250Y510000D01*
X814250Y510845D01*
X813603Y512407D01*
X812407Y513603D01*
X810845Y514250D01*
X809155Y514250D01*
X807593Y513603D01*
X806397Y512407D01*
X805750Y510845D01*
X805750Y510000D01*
X805750Y510000D01*
D02*
G37*
G36*
Y525000D02*
X805750Y524155D01*
X806397Y522592D01*
X807592Y521397D01*
X809155Y520750D01*
X810845Y520750D01*
X812407Y521397D01*
X813603Y522592D01*
X814250Y524155D01*
X814250Y525000D01*
X814250Y525845D01*
X813603Y527407D01*
X812407Y528603D01*
X810845Y529250D01*
X809155Y529250D01*
X807593Y528603D01*
X806397Y527407D01*
X805750Y525845D01*
X805750Y525000D01*
X805750Y525000D01*
D02*
G37*
D15*
X574250Y312500D02*
D03*
X560750D02*
D03*
X574250Y325000D02*
D03*
X560750D02*
D03*
X771750Y415000D02*
D03*
X758250D02*
D03*
X435750Y305000D02*
D03*
X449250D02*
D03*
X473250Y272500D02*
D03*
X486750D02*
D03*
X856750Y480000D02*
D03*
X843250D02*
D03*
Y495000D02*
D03*
X856750D02*
D03*
X716750Y515000D02*
D03*
X703250D02*
D03*
X625750Y552500D02*
D03*
X639250D02*
D03*
X450750Y540000D02*
D03*
X464250D02*
D03*
D16*
X682500Y502500D02*
D03*
Y515200D02*
D03*
X542500Y527900D02*
D03*
Y515200D02*
D03*
X682500Y527900D02*
D03*
Y362800D02*
D03*
Y375500D02*
D03*
Y388200D02*
D03*
Y400900D02*
D03*
Y413600D02*
D03*
Y426300D02*
D03*
Y451700D02*
D03*
Y464400D02*
D03*
Y477100D02*
D03*
Y489800D02*
D03*
Y350100D02*
D03*
X542500Y502500D02*
D03*
Y489800D02*
D03*
Y477100D02*
D03*
Y464400D02*
D03*
Y451700D02*
D03*
Y439000D02*
D03*
Y413600D02*
D03*
Y400900D02*
D03*
Y388200D02*
D03*
Y375500D02*
D03*
Y362800D02*
D03*
Y350100D02*
D03*
X682500Y439000D02*
D03*
X542500Y426300D02*
D03*
D17*
X424600Y591750D02*
D03*
X475400D02*
D03*
X624600D02*
D03*
X675400D02*
D03*
X224600D02*
D03*
X275400D02*
D03*
D18*
X450000Y594800D02*
D03*
X650000D02*
D03*
X250000D02*
D03*
D19*
X802500Y312500D02*
D03*
Y327500D02*
D03*
X767500Y290000D02*
D03*
Y275000D02*
D03*
X797500Y457500D02*
D03*
Y472500D02*
D03*
X760000Y510000D02*
D03*
Y495000D02*
D03*
X747500Y510000D02*
D03*
Y495000D02*
D03*
X75000Y377500D02*
D03*
Y362500D02*
D03*
X810000Y457500D02*
D03*
Y472500D02*
D03*
D20*
X782500Y362000D02*
D03*
X792000Y338000D02*
D03*
X773000D02*
D03*
X803000Y299500D02*
D03*
X822000D02*
D03*
Y275500D02*
D03*
X812500D02*
D03*
X803000D02*
D03*
X758000Y399500D02*
D03*
X777000D02*
D03*
Y375500D02*
D03*
X767500D02*
D03*
X758000D02*
D03*
D21*
X792500Y375750D02*
D03*
Y389250D02*
D03*
X757500Y348250D02*
D03*
Y361750D02*
D03*
X422500Y273250D02*
D03*
Y286750D02*
D03*
X385000Y540750D02*
D03*
Y554250D02*
D03*
X320000Y408250D02*
D03*
Y421750D02*
D03*
Y461750D02*
D03*
Y448250D02*
D03*
D22*
X837500Y320000D02*
D03*
X822500D02*
D03*
X742500Y315000D02*
D03*
X727500D02*
D03*
X742500Y265000D02*
D03*
X727500D02*
D03*
X552500Y240000D02*
D03*
X537500D02*
D03*
X842500Y507500D02*
D03*
X857500D02*
D03*
X102500Y417500D02*
D03*
X117500D02*
D03*
X102500Y432500D02*
D03*
X117500D02*
D03*
X527500Y240000D02*
D03*
X512500D02*
D03*
D23*
X737500Y349250D02*
D03*
Y375750D02*
D03*
Y423250D02*
D03*
Y396750D02*
D03*
D24*
X752000Y290000D02*
D03*
X728000Y280500D02*
D03*
Y299500D02*
D03*
X435500Y273000D02*
D03*
Y292000D02*
D03*
X459500D02*
D03*
Y282500D02*
D03*
Y273000D02*
D03*
X90500Y377500D02*
D03*
X114500Y387000D02*
D03*
Y368000D02*
D03*
D25*
X485750Y255000D02*
D03*
X459250D02*
D03*
X411750D02*
D03*
X438250D02*
D03*
D26*
X502500Y397500D02*
D03*
X342500Y377500D02*
D03*
Y397500D02*
D03*
Y417500D02*
D03*
Y437500D02*
D03*
Y457500D02*
D03*
Y477500D02*
D03*
Y497500D02*
D03*
Y517500D02*
D03*
X502500D02*
D03*
Y497500D02*
D03*
Y477500D02*
D03*
Y457500D02*
D03*
Y437500D02*
D03*
Y417500D02*
D03*
Y377500D02*
D03*
X297500Y397500D02*
D03*
X137500Y377500D02*
D03*
Y397500D02*
D03*
Y417500D02*
D03*
Y437500D02*
D03*
Y457500D02*
D03*
Y477500D02*
D03*
Y497500D02*
D03*
Y517500D02*
D03*
X297500D02*
D03*
Y497500D02*
D03*
Y477500D02*
D03*
Y457500D02*
D03*
Y437500D02*
D03*
Y417500D02*
D03*
Y377500D02*
D03*
D27*
X825000Y382500D02*
D03*
Y392500D02*
D03*
Y407500D02*
D03*
Y417500D02*
D03*
Y412500D02*
D03*
Y402500D02*
D03*
Y397500D02*
D03*
Y387500D02*
D03*
D28*
X875800Y450800D02*
D03*
Y349200D02*
D03*
D29*
X834000D02*
D03*
Y450800D02*
D03*
D30*
X827500Y502500D02*
D03*
Y507500D02*
D03*
Y512500D02*
D03*
X777500Y502500D02*
D03*
Y507500D02*
D03*
Y512500D02*
D03*
X827500Y522500D02*
D03*
Y527500D02*
D03*
Y532500D02*
D03*
X777500Y522500D02*
D03*
Y527500D02*
D03*
Y532500D02*
D03*
X827500Y517500D02*
D03*
X777500D02*
D03*
D31*
X817500Y492500D02*
D03*
X812500D02*
D03*
X807500D02*
D03*
X797500D02*
D03*
X792500D02*
D03*
X787500D02*
D03*
X817500Y542500D02*
D03*
X812500D02*
D03*
X807500D02*
D03*
X797500D02*
D03*
X792500D02*
D03*
X787500D02*
D03*
X802500Y492500D02*
D03*
Y542500D02*
D03*
D32*
X664850Y552500D02*
D03*
X650150D02*
D03*
X422650Y540000D02*
D03*
X437350D02*
D03*
M02*
