G04*
G04 #@! TF.GenerationSoftware,Altium Limited,Altium Designer,23.0.1 (38)*
G04*
G04 Layer_Color=16711935*
%FSLAX44Y44*%
%MOMM*%
G71*
G04*
G04 #@! TF.SameCoordinates,02ADDA5B-483B-4F26-8753-4FD2AA90EFCE*
G04*
G04*
G04 #@! TF.FilePolarity,Negative*
G04*
G01*
G75*
%ADD35R,1.8032X5.1032*%
%ADD52R,1.8032X1.8032*%
%ADD53C,1.8032*%
G04:AMPARAMS|DCode=54|XSize=2.2032mm|YSize=2.2032mm|CornerRadius=0.6016mm|HoleSize=0mm|Usage=FLASHONLY|Rotation=90.000|XOffset=0mm|YOffset=0mm|HoleType=Round|Shape=RoundedRectangle|*
%AMROUNDEDRECTD54*
21,1,2.2032,1.0000,0,0,90.0*
21,1,1.0000,2.2032,0,0,90.0*
1,1,1.2032,0.5000,0.5000*
1,1,1.2032,0.5000,-0.5000*
1,1,1.2032,-0.5000,-0.5000*
1,1,1.2032,-0.5000,0.5000*
%
%ADD54ROUNDEDRECTD54*%
%ADD55C,2.2032*%
%ADD56C,4.2032*%
%ADD57R,1.9132X1.9132*%
%ADD58C,1.9132*%
%ADD59C,0.7900*%
%ADD60C,1.7932*%
%ADD61R,1.7932X1.7932*%
%ADD62C,2.0032*%
%ADD63O,2.4032X2.4532*%
%ADD64C,2.4032*%
%ADD65C,0.8032*%
D35*
X424600Y591750D02*
D03*
X475400D02*
D03*
X624600D02*
D03*
X675400D02*
D03*
X224600D02*
D03*
X275400D02*
D03*
D52*
X850000Y300200D02*
D03*
D53*
Y274800D02*
D03*
D54*
X77500Y249500D02*
D03*
D55*
Y325500D02*
D03*
D56*
X815000Y102500D02*
D03*
X95000D02*
D03*
X860000Y580000D02*
D03*
Y40000D02*
D03*
X40000D02*
D03*
Y580000D02*
D03*
D57*
X199200Y350000D02*
D03*
X639900Y220000D02*
D03*
D58*
X224600Y350000D02*
D03*
X250000D02*
D03*
X275400D02*
D03*
X300800D02*
D03*
X326200D02*
D03*
X351600D02*
D03*
X614500Y220000D02*
D03*
X589100D02*
D03*
X563700D02*
D03*
X538300D02*
D03*
X512900D02*
D03*
X487500D02*
D03*
D59*
X839400Y428850D02*
D03*
Y371150D02*
D03*
D60*
X782100Y227500D02*
D03*
D61*
X807500D02*
D03*
D62*
X25000Y425000D02*
D03*
Y375000D02*
D03*
Y475000D02*
D03*
Y525000D02*
D03*
Y125000D02*
D03*
Y175000D02*
D03*
D63*
X50000Y435000D02*
D03*
Y535000D02*
D03*
Y185000D02*
D03*
D64*
Y365000D02*
D03*
Y465000D02*
D03*
Y115000D02*
D03*
D65*
X802500Y517500D02*
D03*
Y506750D02*
D03*
Y528250D02*
D03*
X791750Y517500D02*
D03*
X813000D02*
D03*
M02*
