G04*
G04 #@! TF.GenerationSoftware,Altium Limited,Altium Designer,23.0.1 (38)*
G04*
G04 Layer_Physical_Order=1*
G04 Layer_Color=255*
%FSLAX44Y44*%
%MOMM*%
G71*
G04*
G04 #@! TF.SameCoordinates,02ADDA5B-483B-4F26-8753-4FD2AA90EFCE*
G04*
G04*
G04 #@! TF.FilePolarity,Positive*
G04*
G01*
G75*
%ADD13C,0.2500*%
%ADD14C,0.8000*%
%ADD15R,0.8000X1.0000*%
%ADD16R,1.6000X0.8000*%
%ADD17R,1.6000X4.9000*%
%ADD18R,1.5000X3.8100*%
%ADD19R,0.9500X0.6000*%
%ADD20R,0.6000X1.0000*%
%ADD21R,1.0000X0.8000*%
%ADD22R,0.6000X0.9500*%
G04:AMPARAMS|DCode=23|XSize=1.66mm|YSize=1.42mm|CornerRadius=0.2485mm|HoleSize=0mm|Usage=FLASHONLY|Rotation=270.000|XOffset=0mm|YOffset=0mm|HoleType=Round|Shape=RoundedRectangle|*
%AMROUNDEDRECTD23*
21,1,1.6600,0.9230,0,0,270.0*
21,1,1.1630,1.4200,0,0,270.0*
1,1,0.4970,-0.4615,-0.5815*
1,1,0.4970,-0.4615,0.5815*
1,1,0.4970,0.4615,0.5815*
1,1,0.4970,0.4615,-0.5815*
%
%ADD23ROUNDEDRECTD23*%
%ADD24R,1.0000X0.6000*%
G04:AMPARAMS|DCode=25|XSize=1.66mm|YSize=1.42mm|CornerRadius=0.2485mm|HoleSize=0mm|Usage=FLASHONLY|Rotation=0.000|XOffset=0mm|YOffset=0mm|HoleType=Round|Shape=RoundedRectangle|*
%AMROUNDEDRECTD25*
21,1,1.6600,0.9230,0,0,0.0*
21,1,1.1630,1.4200,0,0,0.0*
1,1,0.4970,0.5815,-0.4615*
1,1,0.4970,-0.5815,-0.4615*
1,1,0.4970,-0.5815,0.4615*
1,1,0.4970,0.5815,0.4615*
%
%ADD25ROUNDEDRECTD25*%
%ADD26R,2.5000X1.4000*%
G04:AMPARAMS|DCode=27|XSize=0.3mm|YSize=1.45mm|CornerRadius=0.045mm|HoleSize=0mm|Usage=FLASHONLY|Rotation=270.000|XOffset=0mm|YOffset=0mm|HoleType=Round|Shape=RoundedRectangle|*
%AMROUNDEDRECTD27*
21,1,0.3000,1.3600,0,0,270.0*
21,1,0.2100,1.4500,0,0,270.0*
1,1,0.0900,-0.6800,-0.1050*
1,1,0.0900,-0.6800,0.1050*
1,1,0.0900,0.6800,0.1050*
1,1,0.0900,0.6800,-0.1050*
%
%ADD27ROUNDEDRECTD27*%
G04:AMPARAMS|DCode=28|XSize=1.8mm|YSize=1.2mm|CornerRadius=0.12mm|HoleSize=0mm|Usage=FLASHONLY|Rotation=90.000|XOffset=0mm|YOffset=0mm|HoleType=Round|Shape=RoundedRectangle|*
%AMROUNDEDRECTD28*
21,1,1.8000,0.9600,0,0,90.0*
21,1,1.5600,1.2000,0,0,90.0*
1,1,0.2400,0.4800,0.7800*
1,1,0.2400,0.4800,-0.7800*
1,1,0.2400,-0.4800,-0.7800*
1,1,0.2400,-0.4800,0.7800*
%
%ADD28ROUNDEDRECTD28*%
G04:AMPARAMS|DCode=29|XSize=1.8mm|YSize=1.5mm|CornerRadius=0.15mm|HoleSize=0mm|Usage=FLASHONLY|Rotation=270.000|XOffset=0mm|YOffset=0mm|HoleType=Round|Shape=RoundedRectangle|*
%AMROUNDEDRECTD29*
21,1,1.8000,1.2000,0,0,270.0*
21,1,1.5000,1.5000,0,0,270.0*
1,1,0.3000,-0.6000,-0.7500*
1,1,0.3000,-0.6000,0.7500*
1,1,0.3000,0.6000,0.7500*
1,1,0.3000,0.6000,-0.7500*
%
%ADD29ROUNDEDRECTD29*%
G04:AMPARAMS|DCode=30|XSize=0.25mm|YSize=1.2mm|CornerRadius=0.025mm|HoleSize=0mm|Usage=FLASHONLY|Rotation=90.000|XOffset=0mm|YOffset=0mm|HoleType=Round|Shape=RoundedRectangle|*
%AMROUNDEDRECTD30*
21,1,0.2500,1.1500,0,0,90.0*
21,1,0.2000,1.2000,0,0,90.0*
1,1,0.0500,0.5750,0.1000*
1,1,0.0500,0.5750,-0.1000*
1,1,0.0500,-0.5750,-0.1000*
1,1,0.0500,-0.5750,0.1000*
%
%ADD30ROUNDEDRECTD30*%
G04:AMPARAMS|DCode=31|XSize=0.25mm|YSize=1.2mm|CornerRadius=0.025mm|HoleSize=0mm|Usage=FLASHONLY|Rotation=180.000|XOffset=0mm|YOffset=0mm|HoleType=Round|Shape=RoundedRectangle|*
%AMROUNDEDRECTD31*
21,1,0.2500,1.1500,0,0,180.0*
21,1,0.2000,1.2000,0,0,180.0*
1,1,0.0500,-0.1000,0.5750*
1,1,0.0500,0.1000,0.5750*
1,1,0.0500,0.1000,-0.5750*
1,1,0.0500,-0.1000,-0.5750*
%
%ADD31ROUNDEDRECTD31*%
%ADD32R,0.7400X1.0200*%
%ADD66C,1.0000*%
G04:AMPARAMS|DCode=67|XSize=3.2mm|YSize=3.2mm|CornerRadius=0.08mm|HoleSize=0mm|Usage=FLASHONLY|Rotation=180.000|XOffset=0mm|YOffset=0mm|HoleType=Round|Shape=RoundedRectangle|*
%AMROUNDEDRECTD67*
21,1,3.2000,3.0400,0,0,180.0*
21,1,3.0400,3.2000,0,0,180.0*
1,1,0.1600,-1.5200,1.5200*
1,1,0.1600,1.5200,1.5200*
1,1,0.1600,1.5200,-1.5200*
1,1,0.1600,-1.5200,-1.5200*
%
%ADD67ROUNDEDRECTD67*%
%ADD68C,0.6000*%
%ADD69C,0.4000*%
%ADD70R,1.6000X1.6000*%
%ADD71C,1.6000*%
G04:AMPARAMS|DCode=72|XSize=2mm|YSize=2mm|CornerRadius=0.5mm|HoleSize=0mm|Usage=FLASHONLY|Rotation=90.000|XOffset=0mm|YOffset=0mm|HoleType=Round|Shape=RoundedRectangle|*
%AMROUNDEDRECTD72*
21,1,2.0000,1.0000,0,0,90.0*
21,1,1.0000,2.0000,0,0,90.0*
1,1,1.0000,0.5000,0.5000*
1,1,1.0000,0.5000,-0.5000*
1,1,1.0000,-0.5000,-0.5000*
1,1,1.0000,-0.5000,0.5000*
%
%ADD72ROUNDEDRECTD72*%
%ADD73C,2.0000*%
%ADD74C,4.0000*%
%ADD75R,1.7100X1.7100*%
%ADD76C,1.7100*%
%ADD77C,0.6500*%
%ADD78C,1.5900*%
%ADD79R,1.5900X1.5900*%
%ADD80C,1.8000*%
%ADD81O,2.2000X2.2500*%
%ADD82C,2.2000*%
%ADD83C,0.6000*%
G36*
X896941Y160000D02*
X896941Y3059D01*
X835000D01*
Y87433D01*
X837155Y90658D01*
X839039Y95208D01*
X840000Y100038D01*
Y104962D01*
X839039Y109792D01*
X837155Y114342D01*
X835000Y117567D01*
Y160000D01*
X821240D01*
Y220820D01*
X821000Y222647D01*
X820294Y224350D01*
X819173Y225812D01*
X817710Y226935D01*
X817450Y227042D01*
Y237450D01*
X814560D01*
Y246690D01*
X816250D01*
X818077Y246930D01*
X819780Y247635D01*
X821243Y248757D01*
X826992Y254508D01*
X828114Y255970D01*
X828820Y257673D01*
X829060Y259500D01*
X828820Y261327D01*
X828114Y263030D01*
X827098Y264355D01*
Y275500D01*
X827000Y275993D01*
Y282500D01*
X819103D01*
X818817Y282916D01*
X819485Y284186D01*
X842851D01*
X843889Y283025D01*
X843860Y282802D01*
X841998Y280940D01*
X840682Y278660D01*
X840000Y276117D01*
Y273484D01*
X840682Y270940D01*
X841998Y268660D01*
X843860Y266798D01*
X846140Y265481D01*
X848683Y264800D01*
X851317D01*
X853860Y265481D01*
X856140Y266798D01*
X858002Y268660D01*
X859318Y270940D01*
X860000Y273484D01*
Y276117D01*
X859318Y278660D01*
X858002Y280940D01*
X856140Y282802D01*
X853860Y284118D01*
X851317Y284800D01*
X851285D01*
X851100Y285729D01*
X850382Y286804D01*
X848256Y288930D01*
X848782Y290200D01*
X860000D01*
Y310200D01*
X852828D01*
Y312985D01*
X852576Y314254D01*
X851858Y315329D01*
X845129Y322058D01*
X844054Y322776D01*
X842785Y323028D01*
X842500D01*
Y326750D01*
X832500D01*
Y313250D01*
X842500D01*
Y313654D01*
X843673Y314140D01*
X846201Y311613D01*
Y310200D01*
X840000D01*
Y290814D01*
X805000D01*
X803732Y290561D01*
X802657Y289843D01*
X800657Y287843D01*
X799939Y286768D01*
X799686Y285500D01*
Y282500D01*
X798000D01*
Y268500D01*
X806960D01*
Y267960D01*
X811230D01*
Y275500D01*
X813770D01*
Y267960D01*
X816902D01*
Y264387D01*
X813326Y260810D01*
X799174D01*
X794560Y265424D01*
Y275000D01*
Y307306D01*
X795750Y307500D01*
X795830Y307500D01*
X797348D01*
X798000Y306500D01*
Y292500D01*
X808000D01*
Y306500D01*
X808652Y307500D01*
X809250D01*
Y317500D01*
X795750D01*
Y310694D01*
X794480Y310611D01*
X794320Y311827D01*
X793615Y313530D01*
X792492Y314992D01*
X778098Y329387D01*
Y338000D01*
X778000Y338493D01*
Y345000D01*
X768000D01*
Y338493D01*
X767902Y338000D01*
Y329355D01*
X766886Y328030D01*
X766180Y326327D01*
X765940Y324500D01*
X766180Y322673D01*
X766886Y320970D01*
X768008Y319508D01*
X780440Y307076D01*
Y280098D01*
X767500D01*
X767008Y280000D01*
X760750D01*
Y270000D01*
X767008D01*
X767500Y269902D01*
X780440D01*
Y262500D01*
X780680Y260673D01*
X781385Y258970D01*
X782508Y257508D01*
X791456Y248560D01*
X792918Y247438D01*
X794621Y246732D01*
X796448Y246492D01*
X798275Y246732D01*
X798311Y246747D01*
X798750Y246690D01*
X800440D01*
Y237450D01*
X797550D01*
Y217550D01*
X807120D01*
Y160000D01*
X127500D01*
Y3059D01*
X3059D01*
Y160000D01*
X3059Y616941D01*
X240068D01*
X240500Y615850D01*
X240500Y615671D01*
Y573750D01*
X242940D01*
Y554216D01*
X242932Y554215D01*
X242940Y554176D01*
Y553324D01*
X242699Y552114D01*
X241772Y550728D01*
X240386Y549801D01*
X239215Y549568D01*
X239215Y549568D01*
Y549568D01*
X239208Y549560D01*
X152556D01*
X152433Y549544D01*
X149479Y549835D01*
X145743Y549467D01*
X142151Y548377D01*
X138840Y546608D01*
X135939Y544226D01*
X133557Y541324D01*
X131788Y538014D01*
X131048Y535577D01*
X130698Y534421D01*
X130693Y534371D01*
X130765Y534357D01*
X130587Y533007D01*
X130613Y532812D01*
X130440Y531497D01*
Y527500D01*
X122000D01*
Y507500D01*
X153000D01*
Y527500D01*
X144560D01*
Y530421D01*
X144641Y531635D01*
X144641Y531635D01*
X144835Y532609D01*
X145925Y534240D01*
X147556Y535330D01*
X149479Y535712D01*
X150256Y535558D01*
X150275Y535677D01*
X151377Y535532D01*
X151615Y535564D01*
X152556Y535440D01*
X240000D01*
X240774Y535542D01*
X242341Y535696D01*
X245794Y536743D01*
X248977Y538444D01*
X251766Y540734D01*
X254056Y543523D01*
X255757Y546706D01*
X256804Y550159D01*
X256959Y551727D01*
X257060Y552500D01*
Y552760D01*
X257158Y553750D01*
X257060Y554740D01*
Y573750D01*
X259500D01*
Y615671D01*
X259500Y615850D01*
X259932Y616941D01*
X414060D01*
Y593020D01*
X424600D01*
X435140D01*
Y616941D01*
X440068D01*
X440500Y615850D01*
X440500Y615671D01*
Y573750D01*
X443690D01*
Y548105D01*
X443050Y547100D01*
X435000D01*
Y547500D01*
X425000D01*
Y547100D01*
X416950D01*
Y547060D01*
X385750D01*
X385000Y546962D01*
X384250Y547060D01*
X360931D01*
X360081Y547060D01*
X359682Y547008D01*
X359682Y547008D01*
X359445Y546977D01*
X356846Y546772D01*
X352510Y545731D01*
X348391Y544025D01*
X344590Y541696D01*
X341200Y538800D01*
X338304Y535410D01*
X335975Y531609D01*
X334273Y527500D01*
X327000D01*
Y507500D01*
X358000D01*
Y527500D01*
X351575D01*
X351014Y528639D01*
X351164Y528836D01*
X354130Y531111D01*
X357584Y532542D01*
X360483Y532924D01*
X360483Y532924D01*
Y532924D01*
X360498Y532940D01*
X384250D01*
X385000Y533038D01*
X385750Y532940D01*
X416950D01*
Y532900D01*
X428350D01*
Y535000D01*
X431650D01*
Y532900D01*
X443050D01*
Y532940D01*
X450750D01*
X451209Y533000D01*
X456750D01*
Y536321D01*
X456865Y536470D01*
X457570Y538173D01*
X457810Y540000D01*
Y573750D01*
X459500D01*
Y615671D01*
X459500Y615850D01*
X459932Y616941D01*
X464860D01*
Y593020D01*
X475400D01*
X485940D01*
Y616941D01*
X640068D01*
X640500Y615850D01*
X640500Y615671D01*
Y573750D01*
X643732D01*
Y559500D01*
X633250D01*
Y553091D01*
X633133Y552500D01*
X633250Y551909D01*
Y545500D01*
X644450D01*
Y545400D01*
X655000D01*
Y542500D01*
X660000D01*
Y545400D01*
X670550D01*
Y546382D01*
X688281D01*
X688438Y546414D01*
X692499D01*
X697132Y541780D01*
Y538999D01*
X697132Y538999D01*
Y521118D01*
X693500D01*
Y522200D01*
X671500D01*
Y508200D01*
X693500D01*
Y508882D01*
X697250D01*
Y508000D01*
X708940D01*
X709164Y508000D01*
X710210Y507460D01*
X710296Y507460D01*
X715480D01*
Y515000D01*
Y522540D01*
X710638D01*
X710210Y522540D01*
X709368Y523461D01*
Y538999D01*
X709368Y538999D01*
Y544314D01*
X708902Y546655D01*
X707576Y548639D01*
X699358Y556857D01*
X697374Y558183D01*
X695033Y558649D01*
X688312D01*
X688156Y558618D01*
X670550D01*
Y559600D01*
X659150D01*
Y557500D01*
X655967D01*
Y573750D01*
X659500D01*
Y615671D01*
X659500Y615850D01*
X659932Y616941D01*
X896941D01*
X896941Y160000D01*
D02*
G37*
%LPC*%
G36*
X862220Y602540D02*
X861270D01*
Y581270D01*
X882540D01*
Y582220D01*
X881674Y586575D01*
X879975Y590677D01*
X877508Y594368D01*
X874368Y597508D01*
X870677Y599975D01*
X866575Y601674D01*
X862220Y602540D01*
D02*
G37*
G36*
X858730D02*
X857780D01*
X853425Y601674D01*
X849323Y599975D01*
X845632Y597508D01*
X842492Y594368D01*
X840025Y590677D01*
X838326Y586575D01*
X837460Y582220D01*
Y581270D01*
X858730D01*
Y602540D01*
D02*
G37*
G36*
X42220D02*
X41270D01*
Y581270D01*
X62540D01*
Y582220D01*
X61674Y586575D01*
X59975Y590677D01*
X57508Y594368D01*
X54368Y597508D01*
X50677Y599975D01*
X46575Y601674D01*
X42220Y602540D01*
D02*
G37*
G36*
X38730D02*
X37780D01*
X33425Y601674D01*
X29323Y599975D01*
X25632Y597508D01*
X22492Y594368D01*
X20025Y590677D01*
X18326Y586575D01*
X17460Y582220D01*
Y581270D01*
X38730D01*
Y602540D01*
D02*
G37*
G36*
X485940Y590480D02*
X476670D01*
Y564710D01*
X485940D01*
Y590480D01*
D02*
G37*
G36*
X474130D02*
X464860D01*
Y564710D01*
X474130D01*
Y590480D01*
D02*
G37*
G36*
X435140D02*
X425870D01*
Y564710D01*
X435140D01*
Y590480D01*
D02*
G37*
G36*
X423330D02*
X414060D01*
Y564710D01*
X423330D01*
Y590480D01*
D02*
G37*
G36*
X882540Y578730D02*
X861270D01*
Y557460D01*
X862220D01*
X866575Y558326D01*
X870677Y560025D01*
X874368Y562492D01*
X877508Y565632D01*
X879975Y569323D01*
X881674Y573425D01*
X882540Y577780D01*
Y578730D01*
D02*
G37*
G36*
X858730D02*
X837460D01*
Y577780D01*
X838326Y573425D01*
X840025Y569323D01*
X842492Y565632D01*
X845632Y562492D01*
X849323Y560025D01*
X853425Y558326D01*
X857780Y557460D01*
X858730D01*
Y578730D01*
D02*
G37*
G36*
X62540D02*
X41270D01*
Y557460D01*
X42220D01*
X46575Y558326D01*
X50677Y560025D01*
X54368Y562492D01*
X57508Y565632D01*
X59975Y569323D01*
X61674Y573425D01*
X62540Y577780D01*
Y578730D01*
D02*
G37*
G36*
X38730D02*
X17460D01*
Y577780D01*
X18326Y573425D01*
X20025Y569323D01*
X22492Y565632D01*
X25632Y562492D01*
X29323Y560025D01*
X33425Y558326D01*
X37780Y557460D01*
X38730D01*
Y578730D01*
D02*
G37*
G36*
X818500Y550544D02*
X816500D01*
X815622Y550369D01*
X815000Y549954D01*
X814378Y550369D01*
X813500Y550544D01*
X811500D01*
X810622Y550369D01*
X810000Y549954D01*
X809378Y550369D01*
X808500Y550544D01*
X806500D01*
X805622Y550369D01*
X805000Y549954D01*
X804378Y550369D01*
X803500Y550544D01*
X801500D01*
X800622Y550369D01*
X800000Y549954D01*
X799378Y550369D01*
X798500Y550544D01*
X796500D01*
X795622Y550369D01*
X795000Y549954D01*
X794378Y550369D01*
X793500Y550544D01*
X791500D01*
X790622Y550369D01*
X790000Y549954D01*
X789378Y550369D01*
X788500Y550544D01*
X786500D01*
X785622Y550369D01*
X784878Y549872D01*
X784380Y549128D01*
X784206Y548250D01*
Y536899D01*
X784064Y536609D01*
X783391Y535936D01*
X783101Y535794D01*
X771750D01*
X770872Y535619D01*
X770128Y535122D01*
X769631Y534378D01*
X769456Y533500D01*
Y531500D01*
X769631Y530622D01*
X770046Y530000D01*
X769631Y529378D01*
X769456Y528500D01*
Y526500D01*
X769631Y525622D01*
X770046Y525000D01*
X769631Y524378D01*
X769456Y523500D01*
Y521500D01*
X768893Y520814D01*
X748988D01*
X747720Y520561D01*
X746645Y519843D01*
X745157Y518355D01*
X744439Y517280D01*
X744186Y516012D01*
Y515000D01*
X740750D01*
Y505000D01*
X766750D01*
Y506686D01*
X767500D01*
X768186Y506823D01*
X768519Y506738D01*
X769308Y506266D01*
X769566Y505945D01*
X769631Y505622D01*
X770046Y505000D01*
X769631Y504378D01*
X769456Y503500D01*
Y501500D01*
X769631Y500622D01*
X770128Y499878D01*
X770872Y499381D01*
X771750Y499206D01*
X783101D01*
X783391Y499064D01*
X784064Y498391D01*
X784206Y498101D01*
Y486750D01*
X784380Y485872D01*
X784878Y485128D01*
X785622Y484631D01*
X786500Y484456D01*
X788500D01*
X789378Y484631D01*
X790000Y485046D01*
X790622Y484631D01*
X791500Y484456D01*
X793500D01*
X794378Y484631D01*
X795321Y483942D01*
X795482Y482668D01*
X795157Y482343D01*
X794439Y481268D01*
X794186Y480000D01*
Y477500D01*
X790750D01*
Y467500D01*
X816750D01*
Y476071D01*
X817500Y476686D01*
X837250D01*
Y473000D01*
X839186D01*
Y467500D01*
X839439Y466232D01*
X840157Y465157D01*
X842657Y462657D01*
X843732Y461939D01*
X845000Y461686D01*
X867747D01*
X868365Y460416D01*
X867986Y459849D01*
X867737Y458600D01*
Y443000D01*
X867986Y441751D01*
X868693Y440693D01*
X869751Y439986D01*
X871000Y439737D01*
X880600D01*
X881849Y439986D01*
X882907Y440693D01*
X883614Y441751D01*
X883863Y443000D01*
Y458600D01*
X883614Y459849D01*
X882907Y460907D01*
X881849Y461614D01*
X880600Y461863D01*
X873345D01*
X872819Y463133D01*
X877343Y467657D01*
X878061Y468732D01*
X878314Y470000D01*
Y500000D01*
X878061Y501268D01*
X877343Y502343D01*
X869843Y509843D01*
X868768Y510561D01*
X867500Y510814D01*
X862500D01*
Y514250D01*
X852500D01*
Y502540D01*
X850210D01*
Y502540D01*
X849250Y502000D01*
X847500D01*
Y514250D01*
X837500D01*
Y510814D01*
X836107D01*
X835544Y511500D01*
Y513500D01*
X835369Y514378D01*
X834954Y515000D01*
X835369Y515622D01*
X835544Y516500D01*
Y518500D01*
X835369Y519378D01*
X834954Y520000D01*
X835369Y520622D01*
X835544Y521500D01*
Y523500D01*
X835369Y524378D01*
X834954Y525000D01*
X835369Y525622D01*
X835544Y526500D01*
Y528500D01*
X835369Y529378D01*
X834954Y530000D01*
X835369Y530622D01*
X835544Y531500D01*
Y533500D01*
X835369Y534378D01*
X834872Y535122D01*
X834128Y535619D01*
X833250Y535794D01*
X821899D01*
X821609Y535936D01*
X820936Y536609D01*
X820794Y536899D01*
Y548250D01*
X820619Y549128D01*
X820122Y549872D01*
X819378Y550369D01*
X818500Y550544D01*
D02*
G37*
G36*
X26519Y536540D02*
X26270D01*
Y526270D01*
X36540D01*
Y526519D01*
X35754Y529454D01*
X34234Y532086D01*
X32086Y534234D01*
X29454Y535754D01*
X26519Y536540D01*
D02*
G37*
G36*
X23730D02*
X23481D01*
X20546Y535754D01*
X17914Y534234D01*
X15766Y532086D01*
X14246Y529454D01*
X13460Y526519D01*
Y526270D01*
X23730D01*
Y536540D01*
D02*
G37*
G36*
X50000Y548362D02*
X46606Y547915D01*
X43444Y546605D01*
X40728Y544522D01*
X38644Y541806D01*
X37335Y538644D01*
X36888Y535250D01*
Y534750D01*
X37335Y531356D01*
X38644Y528194D01*
X40728Y525478D01*
X43444Y523395D01*
X46606Y522085D01*
X50000Y521638D01*
X53394Y522085D01*
X56556Y523395D01*
X59272Y525478D01*
X61356Y528194D01*
X62665Y531356D01*
X63112Y534750D01*
Y535250D01*
X62665Y538644D01*
X61356Y541806D01*
X59272Y544522D01*
X56556Y546605D01*
X53394Y547915D01*
X50000Y548362D01*
D02*
G37*
G36*
X718020Y522540D02*
Y516270D01*
X723290D01*
Y522540D01*
X718020D01*
D02*
G37*
G36*
X36540Y523730D02*
X26270D01*
Y513460D01*
X26519D01*
X29454Y514246D01*
X32086Y515766D01*
X34234Y517914D01*
X35754Y520546D01*
X36540Y523481D01*
Y523730D01*
D02*
G37*
G36*
X23730D02*
X13460D01*
Y523481D01*
X14246Y520546D01*
X15766Y517914D01*
X17914Y515766D01*
X20546Y514246D01*
X23481Y513460D01*
X23730D01*
Y523730D01*
D02*
G37*
G36*
X723290Y513730D02*
X718020D01*
Y507460D01*
X723290D01*
Y513730D01*
D02*
G37*
G36*
X766750Y500000D02*
X740750D01*
Y490000D01*
X744120D01*
X744159Y488730D01*
X743261Y487832D01*
X742500Y485995D01*
Y484005D01*
X743261Y482168D01*
X743442Y481987D01*
X742956Y480814D01*
X731257D01*
X730332Y481739D01*
X728495Y482500D01*
X726505D01*
X724668Y481739D01*
X723261Y480332D01*
X722500Y478495D01*
Y476505D01*
X723261Y474668D01*
X724668Y473261D01*
X726505Y472500D01*
X728495D01*
X730332Y473261D01*
X731257Y474186D01*
X750000D01*
X751268Y474439D01*
X752343Y475157D01*
X762343Y485157D01*
X763061Y486232D01*
X763314Y487500D01*
Y490000D01*
X766750D01*
Y500000D01*
D02*
G37*
G36*
X518000Y507500D02*
X487000D01*
Y488770D01*
X487000Y487500D01*
X487000Y486230D01*
Y480814D01*
X481258D01*
X480332Y481739D01*
X478495Y482500D01*
X476505D01*
X474668Y481739D01*
X473261Y480332D01*
X472500Y478495D01*
Y476505D01*
X473261Y474668D01*
X474668Y473261D01*
X476505Y472500D01*
X478495D01*
X480332Y473261D01*
X481257Y474186D01*
X487000D01*
X487000Y467500D01*
X487000Y466230D01*
Y460814D01*
X484397D01*
X483760Y462353D01*
X482353Y463760D01*
X480515Y464521D01*
X478526D01*
X476688Y463760D01*
X475282Y462353D01*
X474521Y460515D01*
Y458526D01*
X475282Y456688D01*
X476688Y455282D01*
X478526Y454521D01*
X480515D01*
X480875Y454670D01*
X481221Y454439D01*
X482489Y454186D01*
X487000D01*
X487000Y447500D01*
X487000Y446230D01*
Y440714D01*
X486232Y440561D01*
X485157Y439843D01*
X467657Y422343D01*
X466939Y421268D01*
X466686Y420000D01*
Y396257D01*
X465761Y395332D01*
X465000Y393495D01*
Y391505D01*
X465761Y389668D01*
X467168Y388261D01*
X469005Y387500D01*
X470995D01*
X471905Y387877D01*
X472877Y386905D01*
X472500Y385995D01*
Y384005D01*
X473261Y382168D01*
X474668Y380761D01*
X476505Y380000D01*
X478495D01*
X478534Y380016D01*
X479254Y378940D01*
X477814Y377500D01*
X476505D01*
X474668Y376739D01*
X473261Y375332D01*
X472500Y373495D01*
Y371505D01*
X473261Y369668D01*
X474668Y368261D01*
X476505Y367500D01*
X478495D01*
X480332Y368261D01*
X481739Y369668D01*
X482500Y371505D01*
Y372814D01*
X487053Y377367D01*
X487771Y378442D01*
X488023Y379710D01*
Y387500D01*
X518000D01*
Y406230D01*
X518000Y407500D01*
X518000D01*
Y407500D01*
X518000D01*
Y426230D01*
X518000Y427500D01*
X518000D01*
Y427500D01*
X518000D01*
Y446230D01*
X518000Y447500D01*
X518000Y448770D01*
Y466230D01*
X518000Y467500D01*
X518000Y468770D01*
Y486230D01*
X518000Y487500D01*
X518000Y488770D01*
Y507500D01*
D02*
G37*
G36*
X26448Y486000D02*
X23552D01*
X20754Y485250D01*
X18246Y483802D01*
X16198Y481754D01*
X14750Y479246D01*
X14000Y476448D01*
Y473552D01*
X14750Y470754D01*
X16198Y468246D01*
X18246Y466198D01*
X20754Y464750D01*
X23552Y464000D01*
X26448D01*
X29246Y464750D01*
X31754Y466198D01*
X33802Y468246D01*
X35250Y470754D01*
X36000Y473552D01*
Y476448D01*
X35250Y479246D01*
X33802Y481754D01*
X31754Y483802D01*
X29246Y485250D01*
X26448Y486000D01*
D02*
G37*
G36*
X51712Y478000D02*
X48288D01*
X44982Y477114D01*
X42018Y475402D01*
X39597Y472982D01*
X37886Y470018D01*
X37000Y466711D01*
Y463288D01*
X37886Y459982D01*
X39597Y457018D01*
X42018Y454597D01*
X44982Y452886D01*
X48288Y452000D01*
X51712D01*
X55018Y452886D01*
X57982Y454597D01*
X60403Y457018D01*
X62114Y459982D01*
X63000Y463288D01*
Y466711D01*
X62114Y470018D01*
X60403Y472982D01*
X57982Y475402D01*
X55018Y477114D01*
X51712Y478000D01*
D02*
G37*
G36*
X840000Y461869D02*
X828000D01*
X826634Y461597D01*
X825477Y460823D01*
X824703Y459666D01*
X824431Y458300D01*
Y443300D01*
X824703Y441934D01*
X825477Y440777D01*
X826634Y440003D01*
X828000Y439731D01*
X840000D01*
X841366Y440003D01*
X842523Y440777D01*
X843297Y441934D01*
X843569Y443300D01*
Y458300D01*
X843297Y459666D01*
X842523Y460823D01*
X841366Y461597D01*
X840000Y461869D01*
D02*
G37*
G36*
X823730Y438098D02*
X818200D01*
X817033Y437867D01*
X816044Y437206D01*
X815384Y436217D01*
X815195Y435270D01*
X823730D01*
Y438098D01*
D02*
G37*
G36*
X108040Y439790D02*
X103770D01*
Y433770D01*
X108040D01*
Y439790D01*
D02*
G37*
G36*
X101230D02*
X96960D01*
Y433770D01*
X101230D01*
Y439790D01*
D02*
G37*
G36*
X26519Y436540D02*
X26270D01*
Y426270D01*
X36540D01*
Y426519D01*
X35754Y429454D01*
X34234Y432086D01*
X32086Y434234D01*
X29454Y435754D01*
X26519Y436540D01*
D02*
G37*
G36*
X23730D02*
X23481D01*
X20546Y435754D01*
X17914Y434234D01*
X15766Y432086D01*
X14246Y429454D01*
X13460Y426519D01*
Y426270D01*
X23730D01*
Y436540D01*
D02*
G37*
G36*
X742115Y434188D02*
X738770D01*
Y424520D01*
X747238D01*
Y429065D01*
X746849Y431026D01*
X745738Y432688D01*
X744076Y433798D01*
X742115Y434188D01*
D02*
G37*
G36*
X736230D02*
X732885D01*
X730924Y433798D01*
X729262Y432688D01*
X728152Y431026D01*
X727762Y429065D01*
Y424520D01*
X736230D01*
Y434188D01*
D02*
G37*
G36*
X108040Y431230D02*
X102500D01*
X96960D01*
Y425296D01*
X96960Y425210D01*
X97500Y424164D01*
X97500Y423940D01*
Y423019D01*
X96444Y422314D01*
X95995Y422500D01*
X94005D01*
X92168Y421739D01*
X90761Y420332D01*
X90000Y418495D01*
Y416505D01*
X90761Y414668D01*
X92168Y413261D01*
X94005Y412500D01*
X95995D01*
X96444Y412686D01*
X97500Y411981D01*
Y410750D01*
X107500D01*
Y423940D01*
X107500Y424164D01*
X108040Y425210D01*
X108040Y425296D01*
Y431230D01*
D02*
G37*
G36*
X50000Y448362D02*
X46606Y447915D01*
X43444Y446605D01*
X40728Y444522D01*
X38644Y441806D01*
X37335Y438644D01*
X36888Y435250D01*
Y434750D01*
X37335Y431356D01*
X38644Y428194D01*
X40728Y425478D01*
X43444Y423395D01*
X46606Y422085D01*
X50000Y421638D01*
X53394Y422085D01*
X56556Y423395D01*
X59272Y425478D01*
X61356Y428194D01*
X62665Y431356D01*
X63112Y434750D01*
Y435250D01*
X62665Y438644D01*
X61356Y441806D01*
X59272Y444522D01*
X56556Y446605D01*
X53394Y447915D01*
X50000Y448362D01*
D02*
G37*
G36*
X773020Y422540D02*
Y416270D01*
X778290D01*
Y422540D01*
X773020D01*
D02*
G37*
G36*
X36540Y423730D02*
X26270D01*
Y413460D01*
X26519D01*
X29454Y414246D01*
X32086Y415766D01*
X34234Y417914D01*
X35754Y420546D01*
X36540Y423481D01*
Y423730D01*
D02*
G37*
G36*
X23730D02*
X13460D01*
Y423481D01*
X14246Y420546D01*
X15766Y417914D01*
X17914Y415766D01*
X20546Y414246D01*
X23481Y413460D01*
X23730D01*
Y423730D01*
D02*
G37*
G36*
X747238Y421980D02*
X738770D01*
Y412312D01*
X742115D01*
X744076Y412702D01*
X745738Y413812D01*
X746849Y415474D01*
X747238Y417435D01*
Y421980D01*
D02*
G37*
G36*
X736230D02*
X727762D01*
Y417435D01*
X728152Y415474D01*
X729262Y413812D01*
X730924Y412702D01*
X732885Y412312D01*
X736230D01*
Y421980D01*
D02*
G37*
G36*
X113230Y392540D02*
X106960D01*
Y388270D01*
X113230D01*
Y392540D01*
D02*
G37*
G36*
Y385730D02*
X106960D01*
Y381460D01*
X113230D01*
Y385730D01*
D02*
G37*
G36*
X97500Y382500D02*
X83500D01*
Y380814D01*
X81750D01*
Y382500D01*
X68250D01*
Y372500D01*
X81750D01*
Y374186D01*
X83500D01*
Y372500D01*
X97500D01*
Y382500D01*
D02*
G37*
G36*
X26448Y386000D02*
X23552D01*
X20754Y385250D01*
X18246Y383802D01*
X16198Y381754D01*
X14750Y379246D01*
X14000Y376448D01*
Y373552D01*
X14750Y370754D01*
X16198Y368246D01*
X18246Y366198D01*
X20754Y364750D01*
X23552Y364000D01*
X26448D01*
X29246Y364750D01*
X31754Y366198D01*
X33802Y368246D01*
X35250Y370754D01*
X36000Y373552D01*
Y376448D01*
X35250Y379246D01*
X33802Y381754D01*
X31754Y383802D01*
X29246Y385250D01*
X26448Y386000D01*
D02*
G37*
G36*
X553500Y534900D02*
X531500D01*
Y520900D01*
Y508200D01*
Y495500D01*
Y482800D01*
Y470100D01*
Y457400D01*
Y444700D01*
Y430814D01*
X530000D01*
X528732Y430561D01*
X527657Y429843D01*
X525157Y427343D01*
X524439Y426268D01*
X524186Y425000D01*
Y373873D01*
X513628Y363314D01*
X430579D01*
X430272Y363662D01*
X429767Y364584D01*
X429808Y364792D01*
X430000Y365255D01*
Y365757D01*
X430098Y366250D01*
Y397500D01*
X429710Y399451D01*
X428605Y401105D01*
X388605Y441105D01*
X386951Y442210D01*
X385000Y442598D01*
X358898D01*
X358000Y443496D01*
X358000Y447500D01*
X358000Y448770D01*
Y466230D01*
X358000Y467500D01*
X358000D01*
Y467500D01*
X358000D01*
Y487500D01*
X327000D01*
Y468546D01*
X327000Y468290D01*
X326597Y468290D01*
X321270D01*
Y461750D01*
X318730D01*
Y468290D01*
X313000D01*
Y486230D01*
X313000Y487500D01*
X313000D01*
Y487500D01*
X313000D01*
Y506230D01*
X313000Y507500D01*
X313000D01*
Y507500D01*
X313000D01*
Y527500D01*
X282000D01*
Y520814D01*
X280000D01*
X278732Y520561D01*
X277657Y519843D01*
X235157Y477343D01*
X234439Y476268D01*
X234186Y475000D01*
Y423757D01*
X233261Y422832D01*
X232500Y420995D01*
Y419005D01*
X233261Y417168D01*
X234668Y415761D01*
X236505Y415000D01*
X238495D01*
X239166Y415278D01*
X240436Y414430D01*
Y375286D01*
X240689Y374018D01*
X241407Y372943D01*
X246686Y367663D01*
Y360034D01*
X245928Y359831D01*
X243522Y358442D01*
X242084Y357004D01*
X240814Y357530D01*
Y362500D01*
X240561Y363768D01*
X239843Y364843D01*
X167500Y437186D01*
Y438495D01*
X166739Y440332D01*
X165332Y441739D01*
X163495Y442500D01*
X161505D01*
X159668Y441739D01*
X158743Y440814D01*
X153000D01*
Y447500D01*
X122000D01*
Y439250D01*
X112500D01*
Y425750D01*
X114186D01*
Y424250D01*
X112500D01*
Y410750D01*
X121102D01*
X122000Y409852D01*
X122000Y407500D01*
X122000Y406230D01*
Y392540D01*
X115770D01*
Y387000D01*
Y381460D01*
X122000D01*
Y374063D01*
X121500Y373000D01*
X120730Y373000D01*
X107500D01*
Y363000D01*
X111686D01*
Y355000D01*
X111939Y353732D01*
X112657Y352657D01*
X152657Y312657D01*
X153732Y311939D01*
X155000Y311686D01*
X429750D01*
Y298000D01*
X429098Y297000D01*
X428500D01*
Y293290D01*
X423770D01*
Y286750D01*
X422500D01*
Y285480D01*
X414960D01*
Y280296D01*
X414960Y280210D01*
X415008Y280118D01*
X414234Y278848D01*
X411250D01*
X410757Y278750D01*
X410255D01*
X409792Y278558D01*
X409299Y278460D01*
X408882Y278181D01*
X408418Y277989D01*
X408063Y277634D01*
X407645Y277355D01*
X407366Y276937D01*
X407011Y276582D01*
X406819Y276118D01*
X406540Y275701D01*
X406442Y275208D01*
X406250Y274745D01*
Y274242D01*
X406152Y273750D01*
X406250Y273258D01*
Y272755D01*
X406442Y272292D01*
X406540Y271799D01*
X406819Y271382D01*
X407011Y270918D01*
X407366Y270563D01*
X407645Y270145D01*
X408063Y269866D01*
X408418Y269511D01*
X408882Y269319D01*
X409299Y269040D01*
X409792Y268942D01*
X410255Y268750D01*
X410757D01*
X411250Y268652D01*
X415500D01*
Y267250D01*
X429500D01*
Y267902D01*
X433152D01*
Y264188D01*
X432435D01*
X430685Y263840D01*
X429202Y262848D01*
X428210Y261365D01*
X427862Y259615D01*
Y250385D01*
X428210Y248635D01*
X429202Y247152D01*
X430685Y246160D01*
X432435Y245812D01*
X444065D01*
X445815Y246160D01*
X447299Y247152D01*
X448044Y248268D01*
X448200Y248317D01*
X449300D01*
X449456Y248268D01*
X450201Y247152D01*
X451685Y246160D01*
X453435Y245812D01*
X454152D01*
Y238862D01*
X453895Y238605D01*
X453616Y238187D01*
X453261Y237832D01*
X453069Y237368D01*
X452790Y236951D01*
X452692Y236458D01*
X452500Y235995D01*
Y235492D01*
X452402Y235000D01*
X452500Y234508D01*
Y234006D01*
X452692Y233542D01*
X452790Y233049D01*
X453069Y232632D01*
X453261Y232168D01*
X453616Y231813D01*
X453895Y231395D01*
X454313Y231116D01*
X454668Y230761D01*
X455132Y230569D01*
X455549Y230290D01*
X456042Y230192D01*
X456505Y230000D01*
X457007D01*
X457500Y229902D01*
X457993Y230000D01*
X458495D01*
X458958Y230192D01*
X459451Y230290D01*
X459868Y230569D01*
X460332Y230761D01*
X460687Y231116D01*
X461105Y231395D01*
X462855Y233145D01*
X463960Y234799D01*
X464348Y236750D01*
Y245812D01*
X465065D01*
X466815Y246160D01*
X468298Y247152D01*
X469290Y248635D01*
X469638Y250385D01*
Y259615D01*
X469290Y261365D01*
X468298Y262848D01*
X466815Y263840D01*
X465065Y264188D01*
X464348D01*
Y267902D01*
X467250D01*
Y265500D01*
X477586D01*
X477770Y264954D01*
X477797Y264230D01*
X476312Y263238D01*
X475201Y261576D01*
X474812Y259615D01*
Y256270D01*
X496688D01*
Y259615D01*
X496298Y261576D01*
X495188Y263238D01*
X494044Y264002D01*
X493448Y264760D01*
X493290Y265592D01*
Y271230D01*
X486750D01*
Y272500D01*
X485480D01*
Y280040D01*
X480296D01*
X480210Y280040D01*
X479164Y279500D01*
X478940Y279500D01*
X475814D01*
Y287500D01*
X475561Y288768D01*
X474843Y289843D01*
X469843Y294843D01*
X468768Y295561D01*
X467500Y295814D01*
X466500D01*
Y297000D01*
X456869D01*
X455790Y297460D01*
X455790Y298270D01*
Y303730D01*
X450520D01*
Y297460D01*
X451421D01*
X452500Y297000D01*
X452500Y296190D01*
Y288040D01*
X451960D01*
Y283770D01*
X459500D01*
Y281230D01*
X451960D01*
Y276960D01*
X452500D01*
Y268000D01*
X454152D01*
Y264188D01*
X453435D01*
X451685Y263840D01*
X450201Y262848D01*
X449456Y261732D01*
X449300Y261683D01*
X448200D01*
X448044Y261732D01*
X447299Y262848D01*
X445815Y263840D01*
X444065Y264188D01*
X443348D01*
Y271270D01*
X442960Y273221D01*
X442500Y273909D01*
Y278000D01*
X437012D01*
X436520Y278098D01*
X430398D01*
X429869Y278627D01*
X429605Y279368D01*
X430040Y280210D01*
X430040Y280296D01*
Y287000D01*
X442500D01*
Y296277D01*
X442639Y297059D01*
X443579Y297460D01*
X447980D01*
Y305000D01*
X449250D01*
Y306270D01*
X455790D01*
Y311686D01*
X468743D01*
X469668Y310761D01*
X471506Y310000D01*
X473495D01*
X475332Y310761D01*
X476739Y312168D01*
X477500Y314005D01*
Y315995D01*
X476739Y317832D01*
X475332Y319239D01*
X473495Y320000D01*
X471506D01*
X469668Y319239D01*
X468743Y318314D01*
X156373D01*
X118314Y356372D01*
Y363000D01*
X121500D01*
Y366437D01*
X122000Y367500D01*
X122770Y367500D01*
X153000D01*
Y374186D01*
X158743D01*
X159668Y373261D01*
X161505Y372500D01*
X163495D01*
X165332Y373261D01*
X166739Y374668D01*
X167500Y376505D01*
Y378495D01*
X166739Y380332D01*
X165332Y381739D01*
X163495Y382500D01*
X161505D01*
X159668Y381739D01*
X158743Y380814D01*
X153000D01*
Y386230D01*
X153000Y387500D01*
X153000D01*
Y387500D01*
X153000D01*
Y394186D01*
X158743D01*
X159668Y393261D01*
X161505Y392500D01*
X163495D01*
X165332Y393261D01*
X166739Y394668D01*
X167500Y396505D01*
Y398495D01*
X166739Y400332D01*
X165332Y401739D01*
X163495Y402500D01*
X161505D01*
X159668Y401739D01*
X158743Y400814D01*
X153000D01*
X153000Y407500D01*
X153000Y408770D01*
Y426230D01*
X153000Y427500D01*
X153000D01*
Y427500D01*
X153000D01*
Y434186D01*
X158743D01*
X159668Y433261D01*
X161505Y432500D01*
X162814D01*
X234186Y361127D01*
Y356785D01*
X234163Y356778D01*
X232916Y356604D01*
X231078Y358442D01*
X228672Y359831D01*
X225989Y360550D01*
X223211D01*
X220528Y359831D01*
X218122Y358442D01*
X216158Y356478D01*
X214769Y354072D01*
X214050Y351389D01*
Y348611D01*
X214769Y345928D01*
X216158Y343522D01*
X218122Y341558D01*
X220528Y340169D01*
X223211Y339450D01*
X225989D01*
X228672Y340169D01*
X231078Y341558D01*
X232916Y343396D01*
X234163Y343222D01*
X234186Y343216D01*
Y337500D01*
X234439Y336232D01*
X235157Y335157D01*
X240287Y330027D01*
X241362Y329308D01*
X242630Y329056D01*
X289870D01*
X291138Y329308D01*
X292213Y330027D01*
X300350Y338163D01*
X301068Y339238D01*
X301110Y339450D01*
X302189D01*
X304872Y340169D01*
X307278Y341558D01*
X309242Y343522D01*
X310631Y345928D01*
X311350Y348611D01*
Y351389D01*
X310631Y354072D01*
X309242Y356478D01*
X307278Y358442D01*
X304872Y359831D01*
X302189Y360550D01*
X299411D01*
X296728Y359831D01*
X294322Y358442D01*
X292358Y356478D01*
X290969Y354072D01*
X290250Y351389D01*
Y348611D01*
X290969Y345928D01*
X292358Y343522D01*
X294322Y341558D01*
X294328Y341514D01*
X288497Y335683D01*
X244003D01*
X240814Y338872D01*
Y342470D01*
X242084Y342996D01*
X243522Y341558D01*
X245928Y340169D01*
X248611Y339450D01*
X251389D01*
X254072Y340169D01*
X256478Y341558D01*
X258442Y343522D01*
X259831Y345928D01*
X260550Y348611D01*
Y351389D01*
X259831Y354072D01*
X258442Y356478D01*
X256478Y358442D01*
X254072Y359831D01*
X253314Y360034D01*
Y365741D01*
X254487Y366227D01*
X265962Y354752D01*
X265569Y354072D01*
X264850Y351389D01*
Y348611D01*
X265569Y345928D01*
X266958Y343522D01*
X268922Y341558D01*
X271328Y340169D01*
X274011Y339450D01*
X276789D01*
X279472Y340169D01*
X281878Y341558D01*
X283842Y343522D01*
X285231Y345928D01*
X285950Y348611D01*
Y351389D01*
X285231Y354072D01*
X283842Y356478D01*
X281878Y358442D01*
X279472Y359831D01*
X276789Y360550D01*
X274011D01*
X271328Y359831D01*
X270648Y359438D01*
X253314Y376773D01*
Y401930D01*
X254584Y402778D01*
X255255Y402500D01*
X257245D01*
X259082Y403261D01*
X260489Y404668D01*
X261250Y406505D01*
Y408495D01*
X260489Y410332D01*
X259564Y411257D01*
Y429877D01*
X280827Y451140D01*
X282000Y450654D01*
Y447500D01*
X311730D01*
X313000Y447500D01*
X313000Y446230D01*
Y442250D01*
X314902D01*
Y437500D01*
Y427750D01*
X313000D01*
X313000Y427500D01*
X282000D01*
Y408770D01*
X282000Y407500D01*
X282000D01*
Y407500D01*
X282000D01*
Y388770D01*
X282000Y387500D01*
X282000Y386230D01*
Y367500D01*
X313000D01*
Y386230D01*
X313000Y387500D01*
X313000Y388770D01*
Y401710D01*
X318730D01*
Y408250D01*
X321270D01*
Y401710D01*
X327000D01*
Y388770D01*
X327000Y387500D01*
X327000Y386230D01*
Y367500D01*
X358000D01*
Y373133D01*
X359270Y373659D01*
X359668Y373261D01*
X361505Y372500D01*
X363495D01*
X365332Y373261D01*
X366739Y374668D01*
X367500Y376505D01*
Y378495D01*
X366739Y380332D01*
X365332Y381739D01*
X363495Y382500D01*
X361505D01*
X359668Y381739D01*
X359270Y381341D01*
X358000Y381867D01*
X358000Y387500D01*
X358000Y388770D01*
Y393270D01*
X359270Y393872D01*
X360745Y393261D01*
X362734D01*
X364571Y394022D01*
X365978Y395429D01*
X366739Y397266D01*
Y399255D01*
X365978Y401093D01*
X364571Y402500D01*
X362734Y403261D01*
X360745D01*
X359270Y402650D01*
X358000Y403252D01*
Y406230D01*
X358000Y407500D01*
X358000D01*
Y407500D01*
X358000D01*
Y426230D01*
X358000Y427500D01*
X358000D01*
Y427500D01*
X358000D01*
Y432402D01*
X382888D01*
X419902Y395388D01*
Y366250D01*
X420000Y365757D01*
Y365255D01*
X420192Y364792D01*
X420233Y364584D01*
X419728Y363662D01*
X419421Y363314D01*
X363873D01*
X362343Y364843D01*
X361268Y365561D01*
X360000Y365814D01*
X338700D01*
X337432Y365561D01*
X336357Y364843D01*
X330952Y359438D01*
X330272Y359831D01*
X327589Y360550D01*
X324811D01*
X322128Y359831D01*
X319722Y358442D01*
X317758Y356478D01*
X316369Y354072D01*
X315650Y351389D01*
Y348611D01*
X316369Y345928D01*
X317758Y343522D01*
X319722Y341558D01*
X322128Y340169D01*
X324811Y339450D01*
X327589D01*
X330272Y340169D01*
X332678Y341558D01*
X334642Y343522D01*
X336031Y345928D01*
X336750Y348611D01*
Y351389D01*
X336031Y354072D01*
X335638Y354752D01*
X340073Y359186D01*
X344070D01*
X344596Y357916D01*
X343158Y356478D01*
X341769Y354072D01*
X341050Y351389D01*
Y348611D01*
X341769Y345928D01*
X343158Y343522D01*
X345122Y341558D01*
X347528Y340169D01*
X350211Y339450D01*
X352989D01*
X355672Y340169D01*
X358078Y341558D01*
X360042Y343522D01*
X361431Y345928D01*
X362150Y348611D01*
Y351389D01*
X361431Y354072D01*
X360298Y356036D01*
X361196Y356904D01*
X361244Y356936D01*
X362500Y356686D01*
X515000D01*
X516268Y356939D01*
X517343Y357657D01*
X529843Y370157D01*
X530230Y370736D01*
X531500Y370351D01*
Y365615D01*
X531232Y365561D01*
X530157Y364843D01*
X525157Y359843D01*
X524439Y358768D01*
X524186Y357500D01*
Y317500D01*
X524439Y316232D01*
X525157Y315157D01*
X579408Y260905D01*
X578689Y259829D01*
X577974Y260125D01*
X575985D01*
X574147Y259364D01*
X573097Y258314D01*
X571536D01*
X571010Y259584D01*
X571218Y259792D01*
X571980Y261630D01*
Y263619D01*
X571218Y265457D01*
X569812Y266864D01*
X567974Y267625D01*
X565985D01*
X564147Y266864D01*
X563097Y265814D01*
X544404D01*
X543136Y265561D01*
X542061Y264843D01*
X526385Y249168D01*
X525667Y248093D01*
X525415Y246825D01*
Y246750D01*
X522500D01*
Y233250D01*
X531230D01*
X532500Y233250D01*
Y233250D01*
X532500D01*
Y233250D01*
X534586D01*
Y229927D01*
X534228Y229831D01*
X531822Y228442D01*
X529858Y226478D01*
X528469Y224072D01*
X527750Y221389D01*
Y218611D01*
X528469Y215928D01*
X529858Y213522D01*
X531822Y211558D01*
X534228Y210169D01*
X536911Y209450D01*
X539689D01*
X542372Y210169D01*
X544778Y211558D01*
X546742Y213522D01*
X548131Y215928D01*
X548850Y218611D01*
Y221389D01*
X548131Y224072D01*
X546742Y226478D01*
X544778Y228442D01*
X542372Y229831D01*
X541214Y230141D01*
Y233250D01*
X542500D01*
Y246750D01*
X534999D01*
X534513Y247923D01*
X545776Y259186D01*
X553304D01*
X553402Y258928D01*
X553515Y257916D01*
X552657Y257343D01*
X550157Y254843D01*
X549439Y253768D01*
X549186Y252500D01*
Y246750D01*
X547500D01*
Y233250D01*
X557500D01*
Y246750D01*
X555814D01*
Y251127D01*
X556373Y251686D01*
X573347D01*
X574147Y250886D01*
X575985Y250125D01*
X577974D01*
X579812Y250886D01*
X581218Y252292D01*
X581980Y254130D01*
Y256119D01*
X581684Y256834D01*
X582760Y257554D01*
X585786Y254527D01*
Y230034D01*
X585028Y229831D01*
X582622Y228442D01*
X580658Y226478D01*
X579269Y224072D01*
X578550Y221389D01*
Y218611D01*
X579269Y215928D01*
X580658Y213522D01*
X582622Y211558D01*
X585028Y210169D01*
X587711Y209450D01*
X590489D01*
X593172Y210169D01*
X595578Y211558D01*
X597542Y213522D01*
X598931Y215928D01*
X599650Y218611D01*
Y221389D01*
X598931Y224072D01*
X597542Y226478D01*
X595578Y228442D01*
X593172Y229831D01*
X592414Y230034D01*
Y255900D01*
X592363Y256155D01*
X593533Y256780D01*
X611186Y239128D01*
Y230034D01*
X610428Y229831D01*
X608022Y228442D01*
X606058Y226478D01*
X604669Y224072D01*
X603950Y221389D01*
Y218611D01*
X604669Y215928D01*
X606058Y213522D01*
X608022Y211558D01*
X610428Y210169D01*
X613111Y209450D01*
X615889D01*
X618572Y210169D01*
X620978Y211558D01*
X622942Y213522D01*
X624331Y215928D01*
X625050Y218611D01*
Y221389D01*
X624331Y224072D01*
X622942Y226478D01*
X620978Y228442D01*
X618572Y229831D01*
X617814Y230034D01*
Y240500D01*
X617561Y241768D01*
X616843Y242843D01*
X571054Y288632D01*
X571580Y289902D01*
X659902D01*
Y212112D01*
X647888Y200098D01*
X502112D01*
X492628Y209582D01*
X492719Y210831D01*
X493978Y211558D01*
X495942Y213522D01*
X497331Y215928D01*
X498050Y218611D01*
Y221389D01*
X497331Y224072D01*
X495942Y226478D01*
X493978Y228442D01*
X491572Y229831D01*
X488889Y230550D01*
X486111D01*
X483428Y229831D01*
X481022Y228442D01*
X479058Y226478D01*
X478261Y225098D01*
X258076D01*
X230098Y253076D01*
Y295000D01*
X230000Y295492D01*
Y295995D01*
X229808Y296458D01*
X229710Y296951D01*
X229431Y297368D01*
X229239Y297832D01*
X228884Y298187D01*
X228605Y298605D01*
X228187Y298884D01*
X227832Y299239D01*
X227368Y299431D01*
X226951Y299710D01*
X226458Y299808D01*
X225995Y300000D01*
X225492D01*
X225000Y300098D01*
X224508Y300000D01*
X224005D01*
X223542Y299808D01*
X223049Y299710D01*
X222632Y299431D01*
X222168Y299239D01*
X221813Y298884D01*
X221395Y298605D01*
X221116Y298187D01*
X220761Y297832D01*
X220569Y297368D01*
X220290Y296951D01*
X220192Y296458D01*
X220000Y295995D01*
Y295492D01*
X219902Y295000D01*
Y254598D01*
X89548D01*
X89320Y256327D01*
X88615Y258030D01*
X87493Y259492D01*
X86030Y260614D01*
X84327Y261320D01*
X82500Y261560D01*
X72500D01*
X70673Y261320D01*
X68970Y260614D01*
X67508Y259492D01*
X66385Y258030D01*
X65680Y256327D01*
X65440Y254500D01*
Y244500D01*
X65680Y242673D01*
X66385Y240970D01*
X67508Y239508D01*
X68970Y238386D01*
X70673Y237680D01*
X72500Y237440D01*
X82500D01*
X84327Y237680D01*
X86030Y238386D01*
X87493Y239508D01*
X88615Y240970D01*
X89320Y242673D01*
X89548Y244402D01*
X223535D01*
X224217Y244538D01*
X252360Y216395D01*
X254014Y215290D01*
X255965Y214902D01*
X453535D01*
X453561Y214868D01*
X453936Y213632D01*
X453895Y213605D01*
X453616Y213187D01*
X453261Y212832D01*
X453069Y212368D01*
X452790Y211951D01*
X452692Y211458D01*
X452500Y210994D01*
Y210492D01*
X452402Y210000D01*
X452500Y209508D01*
Y209005D01*
X452692Y208542D01*
X452790Y208049D01*
X453069Y207632D01*
X453261Y207168D01*
X453616Y206813D01*
X453895Y206395D01*
X481395Y178895D01*
X483049Y177790D01*
X485000Y177402D01*
X667500D01*
X669451Y177790D01*
X671105Y178895D01*
X726105Y233895D01*
X726384Y234313D01*
X726739Y234668D01*
X726931Y235132D01*
X727210Y235549D01*
X727308Y236042D01*
X727500Y236505D01*
Y237008D01*
X727598Y237500D01*
X727500Y237992D01*
Y238495D01*
X727308Y238959D01*
X727210Y239451D01*
X726931Y239868D01*
X726739Y240332D01*
X726384Y240688D01*
X726105Y241105D01*
X725687Y241384D01*
X725332Y241739D01*
X724868Y241931D01*
X724451Y242210D01*
X723959Y242308D01*
X723495Y242500D01*
X722992D01*
X722500Y242598D01*
X722008Y242500D01*
X721505D01*
X721041Y242308D01*
X720549Y242210D01*
X720132Y241931D01*
X719668Y241739D01*
X719313Y241384D01*
X718895Y241105D01*
X665388Y187598D01*
X487112D01*
X461105Y213605D01*
X461064Y213632D01*
X461439Y214868D01*
X461465Y214902D01*
X478261D01*
X479058Y213522D01*
X481022Y211558D01*
X482402Y210761D01*
Y207500D01*
X482790Y205549D01*
X483895Y203895D01*
X496395Y191395D01*
X498049Y190290D01*
X500000Y189902D01*
X650000D01*
X651951Y190290D01*
X653605Y191395D01*
X668605Y206395D01*
X669710Y208049D01*
X670098Y210000D01*
Y290388D01*
X671105Y291395D01*
X671105Y291395D01*
X718605Y338895D01*
X719710Y340549D01*
X720098Y342500D01*
Y371035D01*
X720132Y371061D01*
X721368Y371436D01*
X721395Y371395D01*
X721813Y371116D01*
X722168Y370761D01*
X722632Y370569D01*
X723049Y370290D01*
X723542Y370192D01*
X724005Y370000D01*
X724508D01*
X725000Y369902D01*
X728319D01*
X728660Y368185D01*
X729651Y366702D01*
X731135Y365710D01*
X732885Y365362D01*
X742115D01*
X743865Y365710D01*
X745349Y366702D01*
X746340Y368185D01*
X746688Y369935D01*
Y370652D01*
X752902D01*
Y367750D01*
X750500D01*
Y356060D01*
X750500Y355836D01*
X749960Y354790D01*
X749960Y354704D01*
Y349520D01*
X765040D01*
Y354704D01*
X765040Y354790D01*
X764500Y355836D01*
X764500Y356060D01*
Y358436D01*
X777500D01*
Y355000D01*
X786492D01*
X786902Y354500D01*
Y338000D01*
X787000Y337508D01*
Y331000D01*
X795210D01*
Y328770D01*
X809790D01*
Y332402D01*
X815388D01*
X817402Y330388D01*
Y315000D01*
Y306500D01*
X817000D01*
Y301992D01*
X816902Y301500D01*
Y299500D01*
X817000Y299007D01*
Y292500D01*
X827000D01*
Y299007D01*
X827098Y299500D01*
Y299882D01*
X827210Y300049D01*
X827598Y302000D01*
Y315000D01*
Y332500D01*
X827210Y334451D01*
X826105Y336105D01*
X821105Y341105D01*
X819451Y342210D01*
X817500Y342598D01*
X797098D01*
Y352388D01*
X813881Y369172D01*
X815151Y368646D01*
Y367950D01*
X815241Y367500D01*
X815195Y367270D01*
X825000D01*
Y366000D01*
X826270D01*
Y361901D01*
X831800D01*
X832967Y362133D01*
X833956Y362794D01*
X834616Y363783D01*
X834849Y364950D01*
Y366481D01*
X836119Y367007D01*
X836426Y366699D01*
X838356Y365900D01*
X840444D01*
X842374Y366699D01*
X843851Y368176D01*
X844650Y370106D01*
Y372194D01*
X844261Y373132D01*
X845110Y374402D01*
X848485D01*
X850436Y374790D01*
X852090Y375895D01*
X855605Y379410D01*
X856710Y381064D01*
X857098Y383015D01*
Y419564D01*
X856710Y421515D01*
X855605Y423168D01*
X854803Y423970D01*
X854239Y425332D01*
X852832Y426739D01*
X850995Y427500D01*
X849005D01*
X847168Y426739D01*
X846294Y425865D01*
X844967Y425953D01*
X844307Y426978D01*
X844650Y427806D01*
Y429894D01*
X843851Y431824D01*
X842374Y433301D01*
X840444Y434100D01*
X838356D01*
X836426Y433301D01*
X836119Y432993D01*
X834849Y433519D01*
Y435050D01*
X834616Y436217D01*
X833956Y437206D01*
X832967Y437867D01*
X831800Y438098D01*
X826270D01*
Y434000D01*
X825000D01*
Y432730D01*
X815195D01*
X815241Y432500D01*
X815195Y432270D01*
X825000D01*
Y429730D01*
X815195D01*
X815384Y428783D01*
X815898Y428014D01*
X815892Y428006D01*
X815702Y427050D01*
Y424950D01*
X815791Y424500D01*
X815702Y424050D01*
Y421950D01*
X815892Y420994D01*
X816389Y420250D01*
X815892Y419506D01*
X815702Y418550D01*
Y416450D01*
X815892Y415494D01*
X816222Y415000D01*
X815892Y414506D01*
X815702Y413550D01*
Y411450D01*
X815835Y410782D01*
X815790Y410542D01*
X815633Y410284D01*
X814559Y410231D01*
X814373Y410290D01*
X814157Y410414D01*
X813314Y411257D01*
Y452500D01*
X816750D01*
Y462500D01*
X790750D01*
Y452500D01*
X794186D01*
Y405000D01*
X794439Y403732D01*
X795157Y402657D01*
X802657Y395157D01*
X803732Y394439D01*
X805000Y394186D01*
X806243D01*
X807168Y393261D01*
X809005Y392500D01*
X810995D01*
X812832Y393261D01*
X813757Y394186D01*
X815180D01*
X815702Y393550D01*
Y391450D01*
X815892Y390494D01*
X816222Y390000D01*
X815892Y389506D01*
X815702Y388550D01*
Y386450D01*
X815892Y385494D01*
X816222Y385000D01*
X815892Y384506D01*
X815702Y383550D01*
Y381450D01*
X815892Y380494D01*
X816389Y379750D01*
X815892Y379006D01*
X815820Y378646D01*
X814626Y378053D01*
X814433Y378053D01*
X813451Y378710D01*
X811500Y379098D01*
X809549Y378710D01*
X807895Y377605D01*
X801213Y370923D01*
X800040Y371409D01*
Y374480D01*
X784960D01*
Y374022D01*
X783690Y373496D01*
X783073Y374113D01*
X782000Y374830D01*
Y382500D01*
X773040D01*
Y383040D01*
X768770D01*
Y375500D01*
X766230D01*
Y383040D01*
X761960D01*
Y382500D01*
X753000D01*
Y380848D01*
X746688D01*
Y381565D01*
X746340Y383315D01*
X745349Y384799D01*
X744232Y385544D01*
X744183Y385700D01*
Y386800D01*
X744232Y386956D01*
X745349Y387701D01*
X746340Y389185D01*
X746688Y390935D01*
Y394402D01*
X753000D01*
Y392500D01*
X763000D01*
Y399007D01*
X763098Y399500D01*
Y407102D01*
X763627Y407631D01*
X764368Y407895D01*
X765210Y407460D01*
X765296Y407460D01*
X771252D01*
X772000Y406500D01*
X772000Y406190D01*
Y392500D01*
X782000D01*
Y396186D01*
X784695D01*
X785500Y395250D01*
Y383560D01*
X785500Y383336D01*
X784960Y382290D01*
X784960Y382204D01*
Y377020D01*
X800040D01*
Y382204D01*
X800040Y382290D01*
X799500Y383336D01*
X799500Y383560D01*
Y395250D01*
X795814D01*
Y397500D01*
X795561Y398768D01*
X794843Y399843D01*
X792843Y401843D01*
X791768Y402561D01*
X790500Y402814D01*
X782000D01*
Y406500D01*
X779038D01*
X778290Y407460D01*
X778290Y407770D01*
Y413730D01*
X771750D01*
Y415000D01*
X770480D01*
Y422540D01*
X765296D01*
X765210Y422540D01*
X764164Y422000D01*
X763940Y422000D01*
X752250D01*
Y408000D01*
X752902D01*
Y404598D01*
X746151D01*
X745349Y405798D01*
X743865Y406790D01*
X742115Y407138D01*
X732885D01*
X731135Y406790D01*
X729651Y405798D01*
X728660Y404315D01*
X728312Y402565D01*
Y400013D01*
X724915D01*
X722964Y399625D01*
X721310Y398520D01*
X711395Y388605D01*
X710290Y386951D01*
X709902Y385000D01*
Y344612D01*
X665388Y300098D01*
X572112D01*
X567598Y304612D01*
Y316236D01*
X567710Y317460D01*
X568868Y317460D01*
X572980D01*
Y325000D01*
Y332540D01*
X567710Y332540D01*
X567598Y333764D01*
Y372500D01*
X567210Y374451D01*
X566105Y376105D01*
X563605Y378605D01*
X561951Y379710D01*
X560000Y380098D01*
X553500D01*
Y382500D01*
X532084D01*
X531500Y382500D01*
X530814Y383486D01*
Y392914D01*
X531500Y393900D01*
X553500D01*
Y407770D01*
X554770Y408219D01*
X556505Y407500D01*
X558495D01*
X560332Y408261D01*
X561739Y409668D01*
X562500Y411505D01*
Y413495D01*
X561739Y415332D01*
X560332Y416739D01*
X558495Y417500D01*
X556505D01*
X555090Y416914D01*
X553500D01*
Y432000D01*
Y435686D01*
X559627D01*
X601686Y393627D01*
Y327373D01*
X599295Y324982D01*
X597986D01*
X596149Y324221D01*
X594742Y322814D01*
X593981Y320976D01*
Y318987D01*
X594742Y317150D01*
X596149Y315743D01*
X597986Y314982D01*
X599976D01*
X601813Y315743D01*
X602292Y316221D01*
X604013Y316147D01*
X604702Y315457D01*
X606540Y314696D01*
X608529D01*
X610367Y315457D01*
X611761Y316852D01*
X612957Y315655D01*
X613574Y315399D01*
X613822Y314153D01*
X612293Y312625D01*
X610985D01*
X609147Y311864D01*
X607741Y310457D01*
X606980Y308619D01*
Y306630D01*
X607741Y304792D01*
X609147Y303386D01*
X610985Y302625D01*
X612974D01*
X614812Y303386D01*
X616218Y304792D01*
X616980Y306630D01*
Y307939D01*
X619010Y309969D01*
X619039Y309975D01*
X620114Y310693D01*
X624843Y315422D01*
X625561Y316497D01*
X625814Y317765D01*
Y437500D01*
X625561Y438768D01*
X624843Y439843D01*
X562500Y502186D01*
Y503495D01*
X562484Y503534D01*
X563560Y504254D01*
X636686Y431128D01*
Y331257D01*
X635761Y330332D01*
X635000Y328495D01*
Y326505D01*
X635761Y324668D01*
X637168Y323261D01*
X639005Y322500D01*
X640995D01*
X642832Y323261D01*
X643013Y323442D01*
X644186Y322956D01*
Y321257D01*
X643261Y320332D01*
X642500Y318495D01*
Y316505D01*
X643261Y314668D01*
X644668Y313261D01*
X646505Y312500D01*
X648495D01*
X650332Y313261D01*
X651739Y314668D01*
X652500Y316505D01*
Y318495D01*
X651739Y320332D01*
X650814Y321257D01*
Y378628D01*
X669773Y397586D01*
X671500D01*
Y391117D01*
X670758Y390718D01*
X670230Y390531D01*
X668495Y391250D01*
X666505D01*
X664668Y390489D01*
X663261Y389082D01*
X662500Y387245D01*
Y385255D01*
X663261Y383418D01*
X664668Y382011D01*
X666505Y381250D01*
Y380000D01*
X664668Y379239D01*
X663261Y377832D01*
X662500Y375994D01*
Y374005D01*
X663261Y372168D01*
X664668Y370761D01*
X666505Y370000D01*
X668495D01*
X670230Y370719D01*
X671500Y370270D01*
Y367367D01*
X670758Y366968D01*
X670230Y366781D01*
X668495Y367500D01*
X666505D01*
X664668Y366739D01*
X663261Y365332D01*
X662500Y363494D01*
Y361505D01*
X663261Y359668D01*
X664668Y358261D01*
X666505Y357500D01*
X668495D01*
X670230Y358219D01*
X671500Y357770D01*
Y354867D01*
X670758Y354468D01*
X670230Y354281D01*
X668495Y355000D01*
X666505D01*
X664668Y354239D01*
X663261Y352832D01*
X662500Y350994D01*
Y349005D01*
X663261Y347168D01*
X664668Y345761D01*
X666505Y345000D01*
X668495D01*
X670230Y345719D01*
X670758Y345532D01*
X671500Y345133D01*
Y343100D01*
X693500D01*
Y355800D01*
Y368500D01*
Y381200D01*
Y393900D01*
Y406600D01*
Y419300D01*
Y432000D01*
Y444700D01*
Y448386D01*
X696647D01*
X696647Y448386D01*
X698485Y447625D01*
X700474D01*
X702312Y448386D01*
X703718Y449793D01*
X704480Y451630D01*
Y453619D01*
X703718Y455457D01*
X702312Y456864D01*
X700474Y457625D01*
X698485D01*
X696647Y456864D01*
X695241Y455457D01*
X695057Y455014D01*
X693500D01*
Y470100D01*
Y482800D01*
Y496800D01*
X671500D01*
Y492564D01*
X668757D01*
X667832Y493489D01*
X665995Y494250D01*
X664006D01*
X662168Y493489D01*
X660761Y492082D01*
X660000Y490245D01*
Y488255D01*
X660761Y486418D01*
X662168Y485011D01*
X664006Y484250D01*
X665995D01*
X667832Y485011D01*
X668757Y485936D01*
X671500D01*
Y480414D01*
X669157D01*
X667832Y481739D01*
X665995Y482500D01*
X664006D01*
X662168Y481739D01*
X660761Y480332D01*
X660000Y478494D01*
Y476505D01*
X660761Y474668D01*
X662168Y473261D01*
X664006Y472500D01*
X665995D01*
X667832Y473261D01*
X668357Y473786D01*
X671500D01*
Y467714D01*
X669288D01*
X669239Y467832D01*
X667832Y469239D01*
X665995Y470000D01*
X664006D01*
X662168Y469239D01*
X660761Y467832D01*
X660000Y465994D01*
Y464005D01*
X660761Y462168D01*
X662168Y460761D01*
X664006Y460000D01*
X665995D01*
X667832Y460761D01*
X668158Y461086D01*
X671500D01*
Y457400D01*
Y444064D01*
X669830D01*
X668411Y445482D01*
Y446245D01*
X667650Y448082D01*
X666244Y449489D01*
X664406Y450250D01*
X662417D01*
X660579Y449489D01*
X659172Y448082D01*
X658411Y446245D01*
Y444255D01*
X659172Y442418D01*
X660579Y441011D01*
X662417Y440250D01*
X664271D01*
X666114Y438407D01*
X667189Y437689D01*
X668457Y437436D01*
X671500D01*
Y429060D01*
X671036Y428750D01*
X669047D01*
X667209Y427989D01*
X665803Y426582D01*
X665041Y424745D01*
Y422755D01*
X665803Y420918D01*
X667209Y419511D01*
X669047Y418750D01*
X671036D01*
X671500Y418440D01*
Y416117D01*
X670758Y415718D01*
X670230Y415531D01*
X668495Y416250D01*
X666505D01*
X664668Y415489D01*
X663261Y414082D01*
X662500Y412245D01*
Y410255D01*
X663261Y408418D01*
X664668Y407011D01*
X666505Y406250D01*
X668495D01*
X670230Y406969D01*
X670980Y406751D01*
X671500Y406383D01*
Y404214D01*
X668400D01*
X667132Y403961D01*
X666057Y403243D01*
X645157Y382343D01*
X644584Y381485D01*
X643572Y381598D01*
X643314Y381696D01*
Y432500D01*
X643061Y433768D01*
X642343Y434843D01*
X559843Y517343D01*
X558768Y518061D01*
X557500Y518314D01*
X553500D01*
Y522633D01*
X554242Y523032D01*
X554770Y523219D01*
X556505Y522500D01*
X558495D01*
X560332Y523261D01*
X561739Y524668D01*
X562500Y526505D01*
Y528495D01*
X561739Y530332D01*
X560332Y531739D01*
X558495Y532500D01*
X556505D01*
X554770Y531781D01*
X554242Y531968D01*
X553500Y532367D01*
Y534900D01*
D02*
G37*
G36*
X823730Y364730D02*
X815195D01*
X815384Y363783D01*
X816044Y362794D01*
X817033Y362133D01*
X818200Y361901D01*
X823730D01*
Y364730D01*
D02*
G37*
G36*
X51712Y378000D02*
X48288D01*
X44982Y377114D01*
X42018Y375402D01*
X39597Y372982D01*
X37886Y370018D01*
X37000Y366711D01*
Y363288D01*
X37886Y359982D01*
X39597Y357018D01*
X42018Y354597D01*
X44982Y352886D01*
X48288Y352000D01*
X51712D01*
X55018Y352886D01*
X57982Y354597D01*
X60403Y357018D01*
X62114Y359982D01*
X63000Y363288D01*
Y366711D01*
X62114Y370018D01*
X60403Y372982D01*
X57982Y375402D01*
X55018Y377114D01*
X51712Y378000D01*
D02*
G37*
G36*
X210290Y361090D02*
X200470D01*
Y351270D01*
X210290D01*
Y361090D01*
D02*
G37*
G36*
X197930D02*
X188110D01*
Y351270D01*
X197930D01*
Y361090D01*
D02*
G37*
G36*
X742115Y360188D02*
X738770D01*
Y350520D01*
X747238D01*
Y355065D01*
X746849Y357026D01*
X745738Y358688D01*
X744076Y359798D01*
X742115Y360188D01*
D02*
G37*
G36*
X736230D02*
X732885D01*
X730924Y359798D01*
X729262Y358688D01*
X728152Y357026D01*
X727762Y355065D01*
Y350520D01*
X736230D01*
Y360188D01*
D02*
G37*
G36*
X765040Y346980D02*
X758770D01*
Y341710D01*
X765040D01*
Y346980D01*
D02*
G37*
G36*
X756230D02*
X749960D01*
Y341710D01*
X756230D01*
Y346980D01*
D02*
G37*
G36*
X210290Y348730D02*
X200470D01*
Y338910D01*
X210290D01*
Y348730D01*
D02*
G37*
G36*
X197930D02*
X188110D01*
Y338910D01*
X197930D01*
Y348730D01*
D02*
G37*
G36*
X747238Y347980D02*
X738770D01*
Y338312D01*
X742115D01*
X744076Y338702D01*
X745738Y339812D01*
X746849Y341474D01*
X747238Y343435D01*
Y347980D01*
D02*
G37*
G36*
X736230D02*
X727762D01*
Y343435D01*
X728152Y341474D01*
X729262Y339812D01*
X730924Y338702D01*
X732885Y338312D01*
X736230D01*
Y347980D01*
D02*
G37*
G36*
X880600Y360263D02*
X871000D01*
X869751Y360014D01*
X868693Y359307D01*
X867986Y358248D01*
X867737Y357000D01*
Y341400D01*
X867986Y340151D01*
X868693Y339093D01*
X869751Y338386D01*
X871000Y338137D01*
X880600D01*
X881849Y338386D01*
X882907Y339093D01*
X883614Y340151D01*
X883863Y341400D01*
Y357000D01*
X883614Y358248D01*
X882907Y359307D01*
X881849Y360014D01*
X880600Y360263D01*
D02*
G37*
G36*
X840000Y360269D02*
X828000D01*
X826634Y359997D01*
X825477Y359223D01*
X824703Y358066D01*
X824431Y356700D01*
Y341700D01*
X824703Y340334D01*
X825477Y339177D01*
X826634Y338403D01*
X828000Y338131D01*
X840000D01*
X841366Y338403D01*
X842523Y339177D01*
X843297Y340334D01*
X843569Y341700D01*
Y356700D01*
X843297Y358066D01*
X842523Y359223D01*
X841366Y359997D01*
X840000Y360269D01*
D02*
G37*
G36*
X575520Y332540D02*
Y326270D01*
X580790D01*
Y332540D01*
X575520D01*
D02*
G37*
G36*
X809790Y326230D02*
X803770D01*
Y321960D01*
X809790D01*
Y326230D01*
D02*
G37*
G36*
X801230D02*
X795210D01*
Y321960D01*
X801230D01*
Y326230D01*
D02*
G37*
G36*
X732500Y321750D02*
X722500D01*
Y318314D01*
X718757D01*
X717832Y319239D01*
X715995Y320000D01*
X714005D01*
X712168Y319239D01*
X710761Y317832D01*
X710000Y315995D01*
Y314005D01*
X710761Y312168D01*
X712168Y310761D01*
X714005Y310000D01*
X715995D01*
X717832Y310761D01*
X718757Y311686D01*
X722500D01*
Y308250D01*
X724186D01*
Y304500D01*
X721000D01*
Y294500D01*
X735000D01*
Y304500D01*
X730814D01*
Y308250D01*
X732500D01*
Y321750D01*
D02*
G37*
G36*
X580790Y323730D02*
X575520D01*
Y317460D01*
X580790D01*
Y323730D01*
D02*
G37*
G36*
X748040Y322290D02*
X743770D01*
Y316270D01*
X748040D01*
Y322290D01*
D02*
G37*
G36*
X741230D02*
X736960D01*
Y316270D01*
X741230D01*
Y322290D01*
D02*
G37*
G36*
X81750Y367500D02*
X68250D01*
Y357500D01*
X71686D01*
Y336000D01*
X70132Y335102D01*
X67898Y332868D01*
X66318Y330132D01*
X65500Y327080D01*
Y323920D01*
X66318Y320868D01*
X67898Y318132D01*
X70132Y315898D01*
X72868Y314318D01*
X75920Y313500D01*
X79080D01*
X82132Y314318D01*
X84868Y315898D01*
X87102Y318132D01*
X88682Y320868D01*
X89500Y323920D01*
Y327080D01*
X88682Y330132D01*
X87102Y332868D01*
X84868Y335102D01*
X82132Y336682D01*
X79080Y337500D01*
X78314D01*
Y357500D01*
X81750D01*
Y367500D01*
D02*
G37*
G36*
X748040Y313730D02*
X743770D01*
Y307710D01*
X748040D01*
Y313730D01*
D02*
G37*
G36*
X741230D02*
X736960D01*
Y307710D01*
X741230D01*
Y313730D01*
D02*
G37*
G36*
X421230Y293290D02*
X414960D01*
Y288020D01*
X421230D01*
Y293290D01*
D02*
G37*
G36*
X759000Y295000D02*
X745000D01*
Y285000D01*
X759000D01*
Y286686D01*
X760750D01*
Y285000D01*
X774250D01*
Y295000D01*
X760750D01*
Y293314D01*
X759000D01*
Y295000D01*
D02*
G37*
G36*
X735000Y285500D02*
X721000D01*
Y283564D01*
X711007D01*
X710332Y284239D01*
X708495Y285000D01*
X706505D01*
X704668Y284239D01*
X703261Y282832D01*
X702500Y280995D01*
Y279005D01*
X703261Y277168D01*
X704668Y275761D01*
X706505Y275000D01*
X708495D01*
X710332Y275761D01*
X711507Y276936D01*
X721000D01*
Y275500D01*
X724186D01*
Y271750D01*
X722500D01*
Y258250D01*
X732500D01*
Y271750D01*
X730814D01*
Y275500D01*
X735000D01*
Y285500D01*
D02*
G37*
G36*
X488020Y280040D02*
Y273770D01*
X493290D01*
Y280040D01*
X488020D01*
D02*
G37*
G36*
X748040Y272290D02*
X743770D01*
Y266270D01*
X748040D01*
Y272290D01*
D02*
G37*
G36*
X741230D02*
X736960D01*
Y266270D01*
X741230D01*
Y272290D01*
D02*
G37*
G36*
X748040Y263730D02*
X743770D01*
Y257710D01*
X748040D01*
Y263730D01*
D02*
G37*
G36*
X741230D02*
X736960D01*
Y257710D01*
X741230D01*
Y263730D01*
D02*
G37*
G36*
X417565Y264738D02*
X413020D01*
Y256270D01*
X422688D01*
Y259615D01*
X422298Y261576D01*
X421188Y263238D01*
X419526Y264348D01*
X417565Y264738D01*
D02*
G37*
G36*
X410480D02*
X405935D01*
X403974Y264348D01*
X402312Y263238D01*
X401202Y261576D01*
X400812Y259615D01*
Y256270D01*
X410480D01*
Y264738D01*
D02*
G37*
G36*
X496688Y253730D02*
X487020D01*
Y245262D01*
X491565D01*
X493526Y245652D01*
X495188Y246762D01*
X496298Y248424D01*
X496688Y250385D01*
Y253730D01*
D02*
G37*
G36*
X484480D02*
X474812D01*
Y250385D01*
X475201Y248424D01*
X476312Y246762D01*
X477974Y245652D01*
X479935Y245262D01*
X484480D01*
Y253730D01*
D02*
G37*
G36*
X422688Y253730D02*
X413020D01*
Y245262D01*
X417565D01*
X419526Y245652D01*
X421188Y246762D01*
X422298Y248424D01*
X422688Y250385D01*
Y253730D01*
D02*
G37*
G36*
X410480D02*
X400812D01*
Y250385D01*
X401202Y248424D01*
X402312Y246762D01*
X403974Y245652D01*
X405935Y245262D01*
X410480D01*
Y253730D01*
D02*
G37*
G36*
X783481Y237990D02*
X783370D01*
Y228770D01*
X792590D01*
Y228881D01*
X791875Y231549D01*
X790494Y233941D01*
X788541Y235894D01*
X786149Y237275D01*
X783481Y237990D01*
D02*
G37*
G36*
X780830D02*
X780719D01*
X778051Y237275D01*
X775659Y235894D01*
X773706Y233941D01*
X772325Y231549D01*
X771610Y228881D01*
Y228770D01*
X780830D01*
Y237990D01*
D02*
G37*
G36*
X565160Y231090D02*
X564970D01*
Y221270D01*
X574790D01*
Y221460D01*
X574034Y224281D01*
X572574Y226809D01*
X570509Y228874D01*
X567981Y230334D01*
X565160Y231090D01*
D02*
G37*
G36*
X562430D02*
X562240D01*
X559419Y230334D01*
X556891Y228874D01*
X554826Y226809D01*
X553366Y224281D01*
X552610Y221460D01*
Y221270D01*
X562430D01*
Y231090D01*
D02*
G37*
G36*
X792590Y226230D02*
X783370D01*
Y217010D01*
X783481D01*
X786149Y217725D01*
X788541Y219106D01*
X790494Y221059D01*
X791875Y223451D01*
X792590Y226119D01*
Y226230D01*
D02*
G37*
G36*
X780830D02*
X771610D01*
Y226119D01*
X772325Y223451D01*
X773706Y221059D01*
X775659Y219106D01*
X778051Y217725D01*
X780719Y217010D01*
X780830D01*
Y226230D01*
D02*
G37*
G36*
X650450Y230550D02*
X629350D01*
Y209450D01*
X650450D01*
Y230550D01*
D02*
G37*
G36*
X517500Y246750D02*
X507500D01*
Y233250D01*
X509386D01*
Y229981D01*
X508828Y229831D01*
X506422Y228442D01*
X504458Y226478D01*
X503069Y224072D01*
X502350Y221389D01*
Y218611D01*
X503069Y215928D01*
X504458Y213522D01*
X506422Y211558D01*
X508828Y210169D01*
X511511Y209450D01*
X514289D01*
X516972Y210169D01*
X519378Y211558D01*
X521342Y213522D01*
X522731Y215928D01*
X523450Y218611D01*
Y221389D01*
X522731Y224072D01*
X521342Y226478D01*
X519378Y228442D01*
X516972Y229831D01*
X516014Y230088D01*
Y233250D01*
X517500D01*
Y246750D01*
D02*
G37*
G36*
X574790Y218730D02*
X564970D01*
Y208910D01*
X565160D01*
X567981Y209666D01*
X570509Y211126D01*
X572574Y213191D01*
X574034Y215719D01*
X574790Y218540D01*
Y218730D01*
D02*
G37*
G36*
X562430D02*
X552610D01*
Y218540D01*
X553366Y215719D01*
X554826Y213191D01*
X556891Y211126D01*
X559419Y209666D01*
X562240Y208910D01*
X562430D01*
Y218730D01*
D02*
G37*
G36*
X26519Y186540D02*
X26270D01*
Y176270D01*
X36540D01*
Y176519D01*
X35754Y179454D01*
X34234Y182086D01*
X32086Y184234D01*
X29454Y185754D01*
X26519Y186540D01*
D02*
G37*
G36*
X23730D02*
X23481D01*
X20546Y185754D01*
X17914Y184234D01*
X15766Y182086D01*
X14246Y179454D01*
X13460Y176519D01*
Y176270D01*
X23730D01*
Y186540D01*
D02*
G37*
G36*
X50000Y198362D02*
X46606Y197915D01*
X43444Y196605D01*
X40728Y194522D01*
X38644Y191806D01*
X37335Y188644D01*
X36888Y185250D01*
Y184750D01*
X37335Y181356D01*
X38644Y178194D01*
X40728Y175478D01*
X43444Y173395D01*
X46606Y172085D01*
X50000Y171638D01*
X53394Y172085D01*
X56556Y173395D01*
X59272Y175478D01*
X61356Y178194D01*
X62665Y181356D01*
X63112Y184750D01*
Y185250D01*
X62665Y188644D01*
X61356Y191806D01*
X59272Y194522D01*
X56556Y196605D01*
X53394Y197915D01*
X50000Y198362D01*
D02*
G37*
G36*
X36540Y173730D02*
X26270D01*
Y163460D01*
X26519D01*
X29454Y164247D01*
X32086Y165766D01*
X34234Y167914D01*
X35754Y170546D01*
X36540Y173481D01*
Y173730D01*
D02*
G37*
G36*
X23730D02*
X13460D01*
Y173481D01*
X14246Y170546D01*
X15766Y167914D01*
X17914Y165766D01*
X20546Y164247D01*
X23481Y163460D01*
X23730D01*
Y173730D01*
D02*
G37*
G36*
X26448Y136000D02*
X23552D01*
X20754Y135250D01*
X18246Y133802D01*
X16198Y131754D01*
X14750Y129246D01*
X14000Y126448D01*
Y123552D01*
X14750Y120754D01*
X16198Y118246D01*
X18246Y116198D01*
X20754Y114750D01*
X23552Y114000D01*
X26448D01*
X29246Y114750D01*
X31754Y116198D01*
X33802Y118246D01*
X35250Y120754D01*
X36000Y123552D01*
Y126448D01*
X35250Y129246D01*
X33802Y131754D01*
X31754Y133802D01*
X29246Y135250D01*
X26448Y136000D01*
D02*
G37*
G36*
X97220Y125040D02*
X96270D01*
Y103770D01*
X117540D01*
Y104720D01*
X116674Y109075D01*
X114975Y113177D01*
X112508Y116868D01*
X109368Y120008D01*
X105677Y122475D01*
X101575Y124174D01*
X97220Y125040D01*
D02*
G37*
G36*
X93730D02*
X92780D01*
X88425Y124174D01*
X84323Y122475D01*
X80632Y120008D01*
X77492Y116868D01*
X75025Y113177D01*
X73326Y109075D01*
X72460Y104720D01*
Y103770D01*
X93730D01*
Y125040D01*
D02*
G37*
G36*
X51712Y128000D02*
X48288D01*
X44982Y127114D01*
X42018Y125402D01*
X39597Y122982D01*
X37886Y120018D01*
X37000Y116712D01*
Y113288D01*
X37886Y109982D01*
X39597Y107018D01*
X42018Y104597D01*
X44982Y102886D01*
X48288Y102000D01*
X51712D01*
X55018Y102886D01*
X57982Y104597D01*
X60403Y107018D01*
X62114Y109982D01*
X63000Y113288D01*
Y116712D01*
X62114Y120018D01*
X60403Y122982D01*
X57982Y125402D01*
X55018Y127114D01*
X51712Y128000D01*
D02*
G37*
G36*
X117540Y101230D02*
X96270D01*
Y79960D01*
X97220D01*
X101575Y80826D01*
X105677Y82525D01*
X109368Y84992D01*
X112508Y88132D01*
X114975Y91823D01*
X116674Y95925D01*
X117540Y100280D01*
Y101230D01*
D02*
G37*
G36*
X93730D02*
X72460D01*
Y100280D01*
X73326Y95925D01*
X75025Y91823D01*
X77492Y88132D01*
X80632Y84992D01*
X84323Y82525D01*
X88425Y80826D01*
X92780Y79960D01*
X93730D01*
Y101230D01*
D02*
G37*
G36*
X862220Y62540D02*
X861270D01*
Y41270D01*
X882540D01*
Y42220D01*
X881674Y46575D01*
X879975Y50677D01*
X877508Y54368D01*
X874368Y57508D01*
X870677Y59975D01*
X866575Y61674D01*
X862220Y62540D01*
D02*
G37*
G36*
X858730D02*
X857780D01*
X853425Y61674D01*
X849323Y59975D01*
X845632Y57508D01*
X842492Y54368D01*
X840025Y50677D01*
X838326Y46575D01*
X837460Y42220D01*
Y41270D01*
X858730D01*
Y62540D01*
D02*
G37*
G36*
X42220D02*
X41270D01*
Y41270D01*
X62540D01*
Y42220D01*
X61674Y46575D01*
X59975Y50677D01*
X57508Y54368D01*
X54368Y57508D01*
X50677Y59975D01*
X46575Y61674D01*
X42220Y62540D01*
D02*
G37*
G36*
X38730D02*
X37780D01*
X33425Y61674D01*
X29323Y59975D01*
X25632Y57508D01*
X22492Y54368D01*
X20025Y50677D01*
X18326Y46575D01*
X17460Y42220D01*
Y41270D01*
X38730D01*
Y62540D01*
D02*
G37*
G36*
X882540Y38730D02*
X861270D01*
Y17460D01*
X862220D01*
X866575Y18326D01*
X870677Y20025D01*
X874368Y22492D01*
X877508Y25632D01*
X879975Y29323D01*
X881674Y33425D01*
X882540Y37780D01*
Y38730D01*
D02*
G37*
G36*
X858730D02*
X837460D01*
Y37780D01*
X838326Y33425D01*
X840025Y29323D01*
X842492Y25632D01*
X845632Y22492D01*
X849323Y20025D01*
X853425Y18326D01*
X857780Y17460D01*
X858730D01*
Y38730D01*
D02*
G37*
G36*
X62540D02*
X41270D01*
Y17460D01*
X42220D01*
X46575Y18326D01*
X50677Y20025D01*
X54368Y22492D01*
X57508Y25632D01*
X59975Y29323D01*
X61674Y33425D01*
X62540Y37780D01*
Y38730D01*
D02*
G37*
G36*
X38730D02*
X17460D01*
Y37780D01*
X18326Y33425D01*
X20025Y29323D01*
X22492Y25632D01*
X25632Y22492D01*
X29323Y20025D01*
X33425Y18326D01*
X37780Y17460D01*
X38730D01*
Y38730D01*
D02*
G37*
%LPD*%
G36*
X871686Y498627D02*
Y471372D01*
X868627Y468314D01*
X846373D01*
X845814Y468872D01*
Y473000D01*
X849250D01*
X850210Y472460D01*
Y472460D01*
X855480D01*
Y480000D01*
X856750D01*
Y481270D01*
X863290D01*
Y487460D01*
Y493730D01*
X856750D01*
Y496270D01*
X863290D01*
Y502540D01*
X862500D01*
Y504186D01*
X866127D01*
X871686Y498627D01*
D02*
G37*
%LPC*%
G36*
X863290Y478730D02*
X858020D01*
Y472460D01*
X863290D01*
Y478730D01*
D02*
G37*
%LPD*%
D13*
X665000Y489250D02*
X681950D01*
X682500Y489800D01*
X256250Y431250D02*
X282500Y457500D01*
X243750Y431250D02*
Y458750D01*
Y375286D02*
Y430000D01*
Y431250D02*
X245000Y430000D01*
X256250Y407500D02*
Y431250D01*
X250000Y375400D02*
Y422500D01*
X237500Y420000D02*
Y475000D01*
X667500Y386250D02*
X680550D01*
X682500Y388200D01*
X667500Y411250D02*
X680150D01*
X679862Y423750D02*
X679906Y423706D01*
X670041Y423750D02*
X679862D01*
X680150Y411250D02*
X682500Y413600D01*
X679906Y423706D02*
X682500Y426300D01*
X612500Y325454D02*
Y397500D01*
X557500Y452500D02*
X612500Y397500D01*
X607534Y320488D02*
X612500Y325454D01*
X615790Y320841D02*
X617500Y322551D01*
X556900Y464400D02*
X617500Y403800D01*
X615790Y319894D02*
Y320841D01*
X617500Y322551D02*
Y403800D01*
X839125Y319839D02*
X839250Y319715D01*
X839125Y319839D02*
Y320000D01*
X842785Y319715D02*
X849514Y312985D01*
X839250Y319715D02*
X842785D01*
X849514Y300647D02*
Y312985D01*
Y300647D02*
X849962Y300200D01*
X607534Y319696D02*
Y320488D01*
X561000Y439000D02*
X605000Y395000D01*
X598981Y319982D02*
X605000Y326001D01*
Y395000D01*
X617771Y313036D02*
X622500Y317765D01*
Y437500D01*
X611980Y307625D02*
X617391Y313036D01*
X617771D01*
X280000Y517500D02*
X297500D01*
X237500Y475000D02*
X280000Y517500D01*
X282500Y497500D02*
X297500D01*
X243750Y458750D02*
X282500Y497500D01*
X250000Y422500D02*
Y445000D01*
X282500Y477500D01*
X297500D01*
X282500Y457500D02*
X297500D01*
X250000Y375400D02*
X275400Y350000D01*
X250000D02*
Y369036D01*
X243750Y375286D02*
X250000Y369036D01*
X480468Y459521D02*
X482489Y457500D01*
X502500D01*
X479521Y459521D02*
X480468D01*
X162500Y437500D02*
X237500Y362500D01*
Y337500D02*
X242630Y332370D01*
X237500Y337500D02*
Y362500D01*
X715000Y315000D02*
X727500D01*
X727500Y315000D01*
Y280000D02*
X727750Y280250D01*
X707500Y280000D02*
X707750Y280250D01*
X727750D02*
X728000Y280500D01*
X707750Y280250D02*
X727750D01*
X699200Y451700D02*
X700000Y452500D01*
X682500Y451700D02*
X699200D01*
X528729Y241229D02*
Y246825D01*
X527500Y240000D02*
X528729Y241229D01*
Y246825D02*
X544404Y262500D01*
X567500D01*
X647500Y317500D02*
Y380000D01*
X668400Y400900D01*
X640000Y327500D02*
Y432500D01*
X557500Y515000D02*
X640000Y432500D01*
X557500Y502500D02*
X622500Y437500D01*
X555000Y255000D02*
X577500D01*
X527500Y317500D02*
X589100Y255900D01*
X527500Y317500D02*
Y357500D01*
X589100Y220000D02*
Y255900D01*
X552500Y240000D02*
Y252500D01*
X555000Y255000D01*
X668400Y400900D02*
X682500D01*
X542500Y439000D02*
X561000D01*
X727500Y477500D02*
X750000D01*
X760000Y487500D01*
X747500Y485000D02*
Y495000D01*
X760000Y487500D02*
Y495000D01*
X665400Y477100D02*
X682500D01*
X665000Y477500D02*
X665400Y477100D01*
X665000Y465000D02*
X665600Y464400D01*
X682500D01*
X542500D02*
X556900D01*
X543300Y452500D02*
X557500D01*
X542500Y451700D02*
X543300Y452500D01*
X542500Y312500D02*
Y350100D01*
Y312500D02*
X614500Y240500D01*
Y220000D02*
Y240500D01*
X542500Y375000D02*
Y375500D01*
Y375000D02*
X542500Y375000D01*
X527500Y357500D02*
X532500Y362500D01*
X542200D02*
X542500Y362800D01*
X532500Y362500D02*
X542200D01*
X556400Y413600D02*
X557500Y412500D01*
X542500Y413600D02*
X556400D01*
X542900Y527500D02*
X557500D01*
X542500Y527900D02*
X542900Y527500D01*
X542500Y515200D02*
X542700Y515000D01*
X557500D01*
X542500Y502500D02*
X557500D01*
X542700Y490000D02*
X557500D01*
X542900Y477500D02*
X557500D01*
X470000Y420000D02*
X487500Y437500D01*
X502500D01*
X470000Y392500D02*
Y420000D01*
X478170Y385670D02*
Y408170D01*
X487500Y417500D02*
X502500D01*
X478170Y408170D02*
X487500Y417500D01*
X484710Y379710D02*
Y394710D01*
X487500Y397500D02*
X502500D01*
X484710Y394710D02*
X487500Y397500D01*
X242630Y332370D02*
X289870D01*
X298006Y340506D02*
Y347206D01*
X300800Y350000D01*
X289870Y332370D02*
X298006Y340506D01*
X515000Y360000D02*
X527500Y372500D01*
X362500Y360000D02*
X515000D01*
X527500Y372500D02*
Y425000D01*
X360000Y362500D02*
X362500Y360000D01*
X472500Y273000D02*
Y287500D01*
Y272500D02*
Y273000D01*
X467500Y292500D02*
X472500Y287500D01*
X459500Y292000D02*
X460000Y292500D01*
X467500D01*
X477500Y385000D02*
X478170Y385670D01*
X477500Y372500D02*
X484710Y379710D01*
X663957Y445250D02*
X668457Y440750D01*
X663411Y445250D02*
X663957D01*
X668457Y440750D02*
X680750D01*
X682500Y439000D01*
X477500Y477500D02*
X502500D01*
X477500Y477500D02*
X477500Y477500D01*
X137500Y437500D02*
X162500D01*
X342500Y377500D02*
X342500Y377500D01*
X362500D01*
X668000Y375500D02*
X682500D01*
X667500Y375000D02*
X668000Y375500D01*
X542500Y477100D02*
X542900Y477500D01*
X542500Y489800D02*
X542700Y490000D01*
X527500Y425000D02*
X530000Y427500D01*
X541300D02*
X542500Y426300D01*
X530000Y427500D02*
X541300D01*
X326200Y350000D02*
X338700Y362500D01*
X360000D01*
X667600Y350100D02*
X682500D01*
X667500Y350000D02*
X667600Y350100D01*
X667500Y362500D02*
X667800Y362800D01*
X682500D01*
Y515200D02*
X682700Y515000D01*
X814180Y103320D02*
X815000Y102500D01*
X726000Y280500D02*
X728000D01*
X833417Y425500D02*
X836637Y422280D01*
X827500Y425500D02*
X833417D01*
X836389Y422031D02*
X837751Y420670D01*
X849330D01*
X825000Y423000D02*
X827500Y425500D01*
X825250Y425750D02*
X827500D01*
X831750Y374250D02*
X834531Y377031D01*
X825031D02*
X834531D01*
X825250Y374250D02*
X831750D01*
X850000Y421564D02*
Y422500D01*
X847650Y422350D02*
X849330Y420670D01*
X836708Y422350D02*
X847650D01*
X787500Y275000D02*
X787500Y275000D01*
X796448Y253552D02*
X798552D01*
X798750Y253750D01*
X797500Y492500D02*
Y512500D01*
X802500Y517500D01*
X825000Y426000D02*
X825250Y425750D01*
X825000Y374000D02*
X825250Y374250D01*
X845000Y465000D02*
X870000D01*
X842500Y467500D02*
Y479250D01*
Y467500D02*
X845000Y465000D01*
X842500Y479250D02*
X843250Y480000D01*
X870000Y465000D02*
X875000Y470000D01*
Y500000D01*
X867500Y507500D02*
X875000Y500000D01*
X857500Y507500D02*
X867500D01*
X736750Y375000D02*
X737500Y375750D01*
X117500Y417500D02*
Y432500D01*
X512700Y220200D02*
Y239800D01*
Y220200D02*
X512900Y220000D01*
X512500Y240000D02*
X512700Y239800D01*
X537900Y220400D02*
Y239600D01*
X537500Y240000D02*
X537900Y239600D01*
Y220400D02*
X538300Y220000D01*
X343261Y398261D02*
X361739D01*
X342500Y397500D02*
X343261Y398261D01*
X155000Y315000D02*
X472500D01*
X115000Y355000D02*
X155000Y315000D01*
X472750Y273000D02*
X473250Y272500D01*
X459250Y272750D02*
X459500Y273000D01*
X435500Y292000D02*
Y304750D01*
X435750Y305000D01*
X848039Y276761D02*
X850000Y274800D01*
X848039Y276761D02*
Y284461D01*
X845000Y287500D02*
X848039Y284461D01*
X805000Y287500D02*
X845000D01*
X803000Y285500D02*
X805000Y287500D01*
X803000Y275500D02*
Y285500D01*
X802500Y312500D02*
X803000Y312000D01*
Y299500D02*
Y312000D01*
X792000Y338000D02*
X792500Y337500D01*
X807500Y227500D02*
X814180Y220820D01*
X114500Y368000D02*
X115000Y367500D01*
Y355000D02*
Y367500D01*
X75000Y328000D02*
Y362500D01*
Y328000D02*
X77500Y325500D01*
X90500Y377500D02*
X90500Y377500D01*
X75000Y377500D02*
X90500D01*
X767500Y290000D02*
X767500Y290000D01*
X752000Y290000D02*
X767500D01*
X727500Y265000D02*
Y280000D01*
Y300000D02*
X728000Y299500D01*
X727500Y300000D02*
Y315000D01*
X811500Y374000D02*
X825000D01*
X757500Y361750D02*
X758000Y362250D01*
X757750Y375750D02*
X758000Y375500D01*
X792500Y389250D02*
Y397500D01*
X790500Y399500D02*
X792500Y397500D01*
X777000Y399500D02*
X790500D01*
X778730Y371770D02*
X780730D01*
X782500Y370000D01*
X777000Y373500D02*
Y375500D01*
Y373500D02*
X778730Y371770D01*
X782500Y362000D02*
Y370000D01*
X782250Y361750D02*
X782500Y362000D01*
X757500Y361750D02*
X782250D01*
X117500Y417500D02*
X137500D01*
X95000D02*
X102500D01*
X767500Y510000D02*
X770000Y512500D01*
X760000Y510000D02*
X767500D01*
X777500Y512500D02*
X777500Y512500D01*
X770000Y512500D02*
X777500D01*
X747500Y510000D02*
Y516012D01*
X748988Y517500D02*
X777500D01*
X747500Y516012D02*
X748988Y517500D01*
X137500Y397500D02*
X162500D01*
X162500Y377500D02*
X162500Y377500D01*
X137500Y377500D02*
X162500D01*
X797500Y405000D02*
X805000Y397500D01*
X835000Y495000D02*
X843250D01*
X828512D02*
X835000D01*
X835512Y392500D02*
X838047Y389965D01*
X825000Y392500D02*
X835512D01*
X838047Y389965D02*
X838598D01*
X839926Y397730D02*
X840304Y398108D01*
X825230Y397730D02*
X839926D01*
X825000Y397500D02*
X825230Y397730D01*
X825000Y377000D02*
X825031Y377031D01*
X840000Y407500D02*
X840000Y407500D01*
X825000Y407500D02*
X840000D01*
X825000Y397500D02*
X825000Y397500D01*
X810000Y397500D02*
X825000D01*
X810000Y397500D02*
X810000Y397500D01*
X815000Y402500D02*
X825000D01*
X810000Y407500D02*
X815000Y402500D01*
X810000Y407500D02*
Y457500D01*
X805000Y397500D02*
X810000D01*
X797500Y405000D02*
Y457500D01*
X827500Y507500D02*
X842500D01*
X827500Y493988D02*
X828512Y495000D01*
X826012Y492500D02*
X827500Y493988D01*
X817500Y492500D02*
X826012D01*
X827500Y493988D02*
Y502500D01*
X817500Y480000D02*
X843250D01*
X812520Y484980D02*
X817500Y480000D01*
X812500Y492500D02*
X812520Y492480D01*
Y484980D02*
Y492480D01*
X807500Y482500D02*
Y492500D01*
Y482500D02*
X810000Y480000D01*
Y472500D02*
Y480000D01*
X797500Y472500D02*
Y480000D01*
X802480Y484980D01*
Y492480D02*
X802500Y492500D01*
X802480Y484980D02*
Y492480D01*
D14*
X151377Y542593D02*
G03*
X152556Y542500I1214J7907D01*
G01*
X137647Y533007D02*
G03*
X137500Y531498I7853J-1529D01*
G01*
X649850Y552800D02*
Y594650D01*
X639250Y552500D02*
X650150D01*
X688281D02*
X688312Y552531D01*
X695033D01*
X703250Y544314D01*
Y538999D02*
Y544314D01*
X667500Y552500D02*
X688281D01*
X703250Y515000D02*
Y538999D01*
X682700Y515000D02*
X703250D01*
X137500Y531497D02*
Y531498D01*
D15*
X574250Y312500D02*
D03*
X560750D02*
D03*
X574250Y325000D02*
D03*
X560750D02*
D03*
X771750Y415000D02*
D03*
X758250D02*
D03*
X435750Y305000D02*
D03*
X449250D02*
D03*
X473250Y272500D02*
D03*
X486750D02*
D03*
X856750Y480000D02*
D03*
X843250D02*
D03*
Y495000D02*
D03*
X856750D02*
D03*
X716750Y515000D02*
D03*
X703250D02*
D03*
X625750Y552500D02*
D03*
X639250D02*
D03*
X450750Y540000D02*
D03*
X464250D02*
D03*
D16*
X682500Y502500D02*
D03*
Y515200D02*
D03*
X542500Y527900D02*
D03*
Y515200D02*
D03*
X682500Y527900D02*
D03*
Y362800D02*
D03*
Y375500D02*
D03*
Y388200D02*
D03*
Y400900D02*
D03*
Y413600D02*
D03*
Y426300D02*
D03*
Y451700D02*
D03*
Y464400D02*
D03*
Y477100D02*
D03*
Y489800D02*
D03*
Y350100D02*
D03*
X542500Y502500D02*
D03*
Y489800D02*
D03*
Y477100D02*
D03*
Y464400D02*
D03*
Y451700D02*
D03*
Y439000D02*
D03*
Y413600D02*
D03*
Y400900D02*
D03*
Y388200D02*
D03*
Y375500D02*
D03*
Y362800D02*
D03*
Y350100D02*
D03*
X682500Y439000D02*
D03*
X542500Y426300D02*
D03*
D17*
X424600Y591750D02*
D03*
X475400D02*
D03*
X624600D02*
D03*
X675400D02*
D03*
X224600D02*
D03*
X275400D02*
D03*
D18*
X450000Y594800D02*
D03*
X650000D02*
D03*
X250000D02*
D03*
D19*
X802500Y312500D02*
D03*
Y327500D02*
D03*
X767500Y290000D02*
D03*
Y275000D02*
D03*
X797500Y457500D02*
D03*
Y472500D02*
D03*
X760000Y510000D02*
D03*
Y495000D02*
D03*
X747500Y510000D02*
D03*
Y495000D02*
D03*
X75000Y377500D02*
D03*
Y362500D02*
D03*
X810000Y457500D02*
D03*
Y472500D02*
D03*
D20*
X782500Y362000D02*
D03*
X792000Y338000D02*
D03*
X773000D02*
D03*
X803000Y299500D02*
D03*
X822000D02*
D03*
Y275500D02*
D03*
X812500D02*
D03*
X803000D02*
D03*
X758000Y399500D02*
D03*
X777000D02*
D03*
Y375500D02*
D03*
X767500D02*
D03*
X758000D02*
D03*
D21*
X792500Y375750D02*
D03*
Y389250D02*
D03*
X757500Y348250D02*
D03*
Y361750D02*
D03*
X422500Y273250D02*
D03*
Y286750D02*
D03*
X385000Y540750D02*
D03*
Y554250D02*
D03*
X320000Y408250D02*
D03*
Y421750D02*
D03*
Y461750D02*
D03*
Y448250D02*
D03*
D22*
X837500Y320000D02*
D03*
X822500D02*
D03*
X742500Y315000D02*
D03*
X727500D02*
D03*
X742500Y265000D02*
D03*
X727500D02*
D03*
X552500Y240000D02*
D03*
X537500D02*
D03*
X842500Y507500D02*
D03*
X857500D02*
D03*
X102500Y417500D02*
D03*
X117500D02*
D03*
X102500Y432500D02*
D03*
X117500D02*
D03*
X527500Y240000D02*
D03*
X512500D02*
D03*
D23*
X737500Y349250D02*
D03*
Y375750D02*
D03*
Y423250D02*
D03*
Y396750D02*
D03*
D24*
X752000Y290000D02*
D03*
X728000Y280500D02*
D03*
Y299500D02*
D03*
X435500Y273000D02*
D03*
Y292000D02*
D03*
X459500D02*
D03*
Y282500D02*
D03*
Y273000D02*
D03*
X90500Y377500D02*
D03*
X114500Y387000D02*
D03*
Y368000D02*
D03*
D25*
X485750Y255000D02*
D03*
X459250D02*
D03*
X411750D02*
D03*
X438250D02*
D03*
D26*
X502500Y397500D02*
D03*
X342500Y377500D02*
D03*
Y397500D02*
D03*
Y417500D02*
D03*
Y437500D02*
D03*
Y457500D02*
D03*
Y477500D02*
D03*
Y497500D02*
D03*
Y517500D02*
D03*
X502500D02*
D03*
Y497500D02*
D03*
Y477500D02*
D03*
Y457500D02*
D03*
Y437500D02*
D03*
Y417500D02*
D03*
Y377500D02*
D03*
X297500Y397500D02*
D03*
X137500Y377500D02*
D03*
Y397500D02*
D03*
Y417500D02*
D03*
Y437500D02*
D03*
Y457500D02*
D03*
Y477500D02*
D03*
Y497500D02*
D03*
Y517500D02*
D03*
X297500D02*
D03*
Y497500D02*
D03*
Y477500D02*
D03*
Y457500D02*
D03*
Y437500D02*
D03*
Y417500D02*
D03*
Y377500D02*
D03*
D27*
X825000Y366000D02*
D03*
Y377000D02*
D03*
Y382500D02*
D03*
Y392500D02*
D03*
Y407500D02*
D03*
Y417500D02*
D03*
Y423000D02*
D03*
Y431000D02*
D03*
Y434000D02*
D03*
Y426000D02*
D03*
Y412500D02*
D03*
Y402500D02*
D03*
Y397500D02*
D03*
Y387500D02*
D03*
Y374000D02*
D03*
Y369000D02*
D03*
D28*
X875800Y450800D02*
D03*
Y349200D02*
D03*
D29*
X834000D02*
D03*
Y450800D02*
D03*
D30*
X827500Y502500D02*
D03*
Y507500D02*
D03*
Y512500D02*
D03*
X777500Y502500D02*
D03*
Y507500D02*
D03*
Y512500D02*
D03*
X827500Y522500D02*
D03*
Y527500D02*
D03*
Y532500D02*
D03*
X777500Y522500D02*
D03*
Y527500D02*
D03*
Y532500D02*
D03*
X827500Y517500D02*
D03*
X777500D02*
D03*
D31*
X817500Y492500D02*
D03*
X812500D02*
D03*
X807500D02*
D03*
X797500D02*
D03*
X792500D02*
D03*
X787500D02*
D03*
X817500Y542500D02*
D03*
X812500D02*
D03*
X807500D02*
D03*
X797500D02*
D03*
X792500D02*
D03*
X787500D02*
D03*
X802500Y492500D02*
D03*
Y542500D02*
D03*
D32*
X664850Y552500D02*
D03*
X650150D02*
D03*
X422650Y540000D02*
D03*
X437350D02*
D03*
D66*
X360081D02*
G03*
X340000Y517500I1210J-21290D01*
G01*
X240000Y542500D02*
G03*
X250000Y555000I-1250J11250D01*
G01*
X151377Y542593D02*
G03*
X137647Y533007I-1898J-11907D01*
G01*
X440000Y540000D02*
X450750D01*
X450000Y594800D02*
X450750Y594050D01*
Y540000D02*
Y594050D01*
X360081Y540000D02*
X384250D01*
X360081D02*
X360081D01*
X385750D02*
X420000D01*
X152556Y542500D02*
X240000D01*
X137500Y517500D02*
Y531497D01*
X250000Y552500D02*
Y594800D01*
X816250Y253750D02*
X822000Y259500D01*
X807500Y253750D02*
X816250D01*
X798750D02*
X807500D01*
Y227500D02*
Y253750D01*
X787500Y275000D02*
Y310000D01*
Y262500D02*
Y275000D01*
Y262500D02*
X796448Y253552D01*
X773000Y324500D02*
X787500Y310000D01*
X814180Y103320D02*
Y220820D01*
D67*
X802500Y517500D02*
D03*
D68*
X650000Y195000D02*
X665000Y210000D01*
Y292500D02*
X667500Y295000D01*
X665000Y210000D02*
Y292500D01*
Y295000D02*
X667500D01*
X570000D02*
X665000D01*
X667500D02*
X715000Y342500D01*
X562500Y302500D02*
X570000Y295000D01*
X562500Y312500D02*
Y327500D01*
Y372500D01*
Y302500D02*
Y312500D01*
X715000Y342500D02*
Y385000D01*
X737500Y396750D02*
X740250Y399500D01*
X735665Y394915D02*
X737500Y396750D01*
X459250Y236750D02*
Y255000D01*
X457500Y235000D02*
X459250Y236750D01*
Y255000D02*
Y272750D01*
X422000Y273750D02*
X422750Y273000D01*
X411250Y273750D02*
X422000D01*
X225000Y250965D02*
X255965Y220000D01*
X487500D01*
X457500Y210000D02*
X485000Y182500D01*
X560000Y375000D02*
X562500Y372500D01*
X542500Y375000D02*
X560000D01*
X425000Y366250D02*
Y397500D01*
X472500Y273000D02*
X472750D01*
X459500D02*
X472500D01*
X715000Y385000D02*
X724915Y394915D01*
X725000Y375000D02*
X736750D01*
X724915Y394915D02*
X735665D01*
X485000Y182500D02*
X667500D01*
X722500Y237500D01*
X447500Y282500D02*
X459500D01*
X320000Y422750D02*
Y422750D01*
X297500Y417500D02*
X300750Y420750D01*
X318000D02*
X320000Y422750D01*
X300750Y420750D02*
X318000D01*
X837000Y379500D02*
X848485D01*
X852000Y383015D02*
Y419564D01*
X848485Y379500D02*
X852000Y383015D01*
X850000Y421564D02*
X852000Y419564D01*
X822500Y315000D02*
Y332500D01*
Y302000D02*
Y315000D01*
X822000Y299500D02*
Y301500D01*
X822500Y302000D01*
X822000Y259500D02*
Y275500D01*
X767500Y275000D02*
X787500D01*
X223535Y249500D02*
X225000Y250965D01*
X77500Y249500D02*
X223535D01*
X225000Y250965D02*
Y295000D01*
X500000Y195000D02*
X650000D01*
X487500Y207500D02*
Y220000D01*
Y207500D02*
X500000Y195000D01*
X385000Y437500D02*
X425000Y397500D01*
X342500Y437500D02*
X385000D01*
X435500Y273000D02*
X436520D01*
X438250Y271270D01*
Y255000D02*
Y271270D01*
X422750Y273000D02*
X435500D01*
X792500Y337500D02*
X817500D01*
X822500Y332500D01*
X773000Y324500D02*
Y338000D01*
X792000D02*
Y354500D01*
X811500Y374000D01*
X758000Y362250D02*
Y375500D01*
X737500Y375750D02*
X757750D01*
X740250Y399500D02*
X758000D01*
Y414750D01*
X758250Y415000D01*
X320000Y423230D02*
Y437500D01*
Y448250D01*
Y437500D02*
X342500D01*
D69*
X834531Y377031D02*
X837000Y379500D01*
D70*
X850000Y300200D02*
D03*
D71*
Y274800D02*
D03*
D72*
X77500Y249500D02*
D03*
D73*
Y325500D02*
D03*
D74*
X815000Y102500D02*
D03*
X95000D02*
D03*
X860000Y580000D02*
D03*
Y40000D02*
D03*
X40000D02*
D03*
Y580000D02*
D03*
D75*
X199200Y350000D02*
D03*
X639900Y220000D02*
D03*
D76*
X224600Y350000D02*
D03*
X250000D02*
D03*
X275400D02*
D03*
X300800D02*
D03*
X326200D02*
D03*
X351600D02*
D03*
X614500Y220000D02*
D03*
X589100D02*
D03*
X563700D02*
D03*
X538300D02*
D03*
X512900D02*
D03*
X487500D02*
D03*
D77*
X839400Y428850D02*
D03*
Y371150D02*
D03*
D78*
X782100Y227500D02*
D03*
D79*
X807500D02*
D03*
D80*
X25000Y425000D02*
D03*
Y375000D02*
D03*
Y475000D02*
D03*
Y525000D02*
D03*
Y125000D02*
D03*
Y175000D02*
D03*
D81*
X50000Y435000D02*
D03*
Y535000D02*
D03*
Y185000D02*
D03*
D82*
Y365000D02*
D03*
Y465000D02*
D03*
Y115000D02*
D03*
D83*
X665000Y489250D02*
D03*
X243750Y430000D02*
D03*
X250000Y422500D02*
D03*
X237500Y420000D02*
D03*
X667500Y386250D02*
D03*
Y411250D02*
D03*
X670041Y423750D02*
D03*
X892367Y601814D02*
D03*
Y551814D02*
D03*
Y501814D02*
D03*
Y451814D02*
D03*
Y401814D02*
D03*
Y351814D02*
D03*
Y301814D02*
D03*
Y251814D02*
D03*
Y201814D02*
D03*
Y151814D02*
D03*
Y101814D02*
D03*
Y51814D02*
D03*
X867367Y551814D02*
D03*
X879867Y526814D02*
D03*
Y426814D02*
D03*
X867367Y401814D02*
D03*
X879867Y376814D02*
D03*
Y326814D02*
D03*
X867367Y301814D02*
D03*
X879867Y276814D02*
D03*
X867367Y251814D02*
D03*
X879867Y226814D02*
D03*
X867367Y201814D02*
D03*
X879867Y176814D02*
D03*
X867367Y151814D02*
D03*
X879867Y126814D02*
D03*
X867367Y101814D02*
D03*
X879867Y76814D02*
D03*
X842367Y601814D02*
D03*
Y551814D02*
D03*
X854867Y526814D02*
D03*
Y326814D02*
D03*
X842367Y251814D02*
D03*
X854867Y226814D02*
D03*
X842367Y201814D02*
D03*
X854867Y176814D02*
D03*
X842367Y151814D02*
D03*
X854867Y126814D02*
D03*
Y76814D02*
D03*
X817367Y601814D02*
D03*
X829867Y576814D02*
D03*
X817367Y351814D02*
D03*
X829867Y226814D02*
D03*
Y176814D02*
D03*
X792367Y601814D02*
D03*
X804867Y576814D02*
D03*
X792367Y201814D02*
D03*
X767367Y601814D02*
D03*
X779867Y576814D02*
D03*
X767367Y551814D02*
D03*
X779867Y476814D02*
D03*
X767367Y451814D02*
D03*
X779867Y426814D02*
D03*
X767367Y401814D02*
D03*
Y301814D02*
D03*
Y251814D02*
D03*
Y201814D02*
D03*
X779867Y176814D02*
D03*
X742367Y601814D02*
D03*
X754867Y576814D02*
D03*
X742367Y551814D02*
D03*
X754867Y526814D02*
D03*
X742367Y451814D02*
D03*
X754867Y426814D02*
D03*
Y326814D02*
D03*
X742367Y301814D02*
D03*
X754867Y276814D02*
D03*
X742367Y251814D02*
D03*
X754867Y226814D02*
D03*
X742367Y201814D02*
D03*
X754867Y176814D02*
D03*
X717367Y601814D02*
D03*
X729867Y576814D02*
D03*
X717367Y551814D02*
D03*
X729867Y526814D02*
D03*
X717367Y501814D02*
D03*
Y451814D02*
D03*
Y301814D02*
D03*
Y251814D02*
D03*
X729867Y226814D02*
D03*
X717367Y201814D02*
D03*
X729867Y176814D02*
D03*
X692367Y601814D02*
D03*
X704867Y576814D02*
D03*
Y426814D02*
D03*
X692367Y301814D02*
D03*
Y251814D02*
D03*
X704867Y176814D02*
D03*
X679867Y326814D02*
D03*
Y276814D02*
D03*
Y226814D02*
D03*
Y176814D02*
D03*
X654867Y526814D02*
D03*
X642367Y251814D02*
D03*
X629867Y526814D02*
D03*
Y326814D02*
D03*
Y276814D02*
D03*
X617367Y251814D02*
D03*
X592367Y601814D02*
D03*
X604867Y576814D02*
D03*
X592367Y551814D02*
D03*
X604867Y526814D02*
D03*
X567367Y601814D02*
D03*
X579867Y576814D02*
D03*
X567367Y551814D02*
D03*
X579867Y526814D02*
D03*
X542367Y601814D02*
D03*
X554867Y576814D02*
D03*
X542367Y551814D02*
D03*
X554867Y276814D02*
D03*
X517367Y601814D02*
D03*
X529867Y576814D02*
D03*
X517367Y551814D02*
D03*
Y301814D02*
D03*
X529867Y276814D02*
D03*
X517367Y251814D02*
D03*
X492367Y601814D02*
D03*
X504867Y576814D02*
D03*
X492367Y551814D02*
D03*
X504867Y326814D02*
D03*
X492367Y301814D02*
D03*
X504867Y276814D02*
D03*
X479867Y526814D02*
D03*
X467367Y501814D02*
D03*
Y351814D02*
D03*
Y301814D02*
D03*
X442367Y501814D02*
D03*
Y351814D02*
D03*
X454867Y326814D02*
D03*
X442367Y201814D02*
D03*
X454867Y176814D02*
D03*
X417367Y501814D02*
D03*
Y201814D02*
D03*
X429867Y176814D02*
D03*
X392367Y601814D02*
D03*
X404867Y576814D02*
D03*
X392367Y501814D02*
D03*
Y351814D02*
D03*
X404867Y326814D02*
D03*
X392367Y301814D02*
D03*
Y251814D02*
D03*
Y201814D02*
D03*
X404867Y176814D02*
D03*
X367367Y601814D02*
D03*
X379867Y576814D02*
D03*
X367367Y351814D02*
D03*
X379867Y326814D02*
D03*
X367367Y301814D02*
D03*
X379867Y276814D02*
D03*
X367367Y251814D02*
D03*
Y201814D02*
D03*
X379867Y176814D02*
D03*
X342367Y601814D02*
D03*
X354867Y576814D02*
D03*
Y326814D02*
D03*
X342367Y301814D02*
D03*
X354867Y276814D02*
D03*
X342367Y251814D02*
D03*
Y201814D02*
D03*
X354867Y176814D02*
D03*
X317367Y601814D02*
D03*
X329867Y576814D02*
D03*
X317367Y551814D02*
D03*
Y501814D02*
D03*
X329867Y326814D02*
D03*
X317367Y301814D02*
D03*
X329867Y276814D02*
D03*
X317367Y251814D02*
D03*
Y201814D02*
D03*
X329867Y176814D02*
D03*
X292367Y601814D02*
D03*
X304867Y576814D02*
D03*
X292367Y551814D02*
D03*
X304867Y326814D02*
D03*
X292367Y301814D02*
D03*
X304867Y276814D02*
D03*
X292367Y251814D02*
D03*
Y201814D02*
D03*
X304867Y176814D02*
D03*
X267367Y301814D02*
D03*
X279867Y276814D02*
D03*
X267367Y251814D02*
D03*
Y201814D02*
D03*
X279867Y176814D02*
D03*
X254867Y526814D02*
D03*
X242367Y501814D02*
D03*
Y301814D02*
D03*
X254867Y276814D02*
D03*
X242367Y251814D02*
D03*
Y201814D02*
D03*
X254867Y176814D02*
D03*
X217367Y501814D02*
D03*
Y451814D02*
D03*
Y401814D02*
D03*
X229867Y226814D02*
D03*
X217367Y201814D02*
D03*
X229867Y176814D02*
D03*
X192367Y601814D02*
D03*
X204867Y576814D02*
D03*
X192367Y501814D02*
D03*
X204867Y476814D02*
D03*
Y426814D02*
D03*
Y376814D02*
D03*
Y326814D02*
D03*
Y226814D02*
D03*
X192367Y201814D02*
D03*
X204867Y176814D02*
D03*
X167367Y601814D02*
D03*
X179867Y576814D02*
D03*
X167367Y501814D02*
D03*
X179867Y376814D02*
D03*
X167367Y351814D02*
D03*
X179867Y326814D02*
D03*
Y276814D02*
D03*
Y226814D02*
D03*
X167367Y201814D02*
D03*
X179867Y176814D02*
D03*
X142367Y601814D02*
D03*
X154867Y576814D02*
D03*
X142367Y551814D02*
D03*
Y301814D02*
D03*
X154867Y276814D02*
D03*
Y226814D02*
D03*
X142367Y201814D02*
D03*
X154867Y176814D02*
D03*
X117367Y601814D02*
D03*
X129867Y576814D02*
D03*
X117367Y551814D02*
D03*
Y451814D02*
D03*
Y401814D02*
D03*
X129867Y326814D02*
D03*
X117367Y301814D02*
D03*
X129867Y276814D02*
D03*
X117367Y201814D02*
D03*
X129867Y176814D02*
D03*
X117367Y151814D02*
D03*
Y51814D02*
D03*
X92367Y601814D02*
D03*
X104867Y576814D02*
D03*
X92367Y551814D02*
D03*
X104867Y526814D02*
D03*
X92367Y501814D02*
D03*
X104867Y476814D02*
D03*
X92367Y451814D02*
D03*
Y351814D02*
D03*
X104867Y326814D02*
D03*
X92367Y301814D02*
D03*
X104867Y276814D02*
D03*
Y226814D02*
D03*
X92367Y201814D02*
D03*
X104867Y176814D02*
D03*
X92367Y151814D02*
D03*
X104867Y126814D02*
D03*
Y76814D02*
D03*
X92367Y51814D02*
D03*
X67367Y601814D02*
D03*
X79867Y576814D02*
D03*
X67367Y551814D02*
D03*
X79867Y526814D02*
D03*
X67367Y501814D02*
D03*
X79867Y476814D02*
D03*
X67367Y451814D02*
D03*
Y401814D02*
D03*
Y351814D02*
D03*
Y301814D02*
D03*
X79867Y276814D02*
D03*
Y226814D02*
D03*
X67367Y201814D02*
D03*
Y151814D02*
D03*
X79867Y126814D02*
D03*
X67367Y101814D02*
D03*
X79867Y76814D02*
D03*
X67367Y51814D02*
D03*
X42367Y551814D02*
D03*
Y501814D02*
D03*
Y401814D02*
D03*
X54867Y326814D02*
D03*
X42367Y301814D02*
D03*
X54867Y276814D02*
D03*
X42367Y251814D02*
D03*
X54867Y226814D02*
D03*
X42367Y201814D02*
D03*
Y151814D02*
D03*
X54867Y76814D02*
D03*
X607534Y319696D02*
D03*
X615790Y319894D02*
D03*
X256250Y407500D02*
D03*
X479521Y459521D02*
D03*
X707500Y280000D02*
D03*
X715000Y315000D02*
D03*
X699480Y452625D02*
D03*
X647500Y317500D02*
D03*
X640000Y327500D02*
D03*
X611980Y307625D02*
D03*
X576980Y255125D02*
D03*
X566980Y262625D02*
D03*
X457500Y235000D02*
D03*
X411250Y273750D02*
D03*
X598981Y319982D02*
D03*
X457500Y210000D02*
D03*
X727500Y477500D02*
D03*
X747500Y485000D02*
D03*
X665000Y477500D02*
D03*
Y465000D02*
D03*
X557500Y465000D02*
D03*
Y412500D02*
D03*
Y527500D02*
D03*
Y502500D02*
D03*
Y490000D02*
D03*
Y477500D02*
D03*
X425000Y366250D02*
D03*
X472500Y315000D02*
D03*
X470000Y392500D02*
D03*
X477500Y385000D02*
D03*
Y372500D02*
D03*
X663411Y445250D02*
D03*
X477500Y477500D02*
D03*
X362264Y501250D02*
D03*
X162500Y437500D02*
D03*
X225708Y532500D02*
D03*
X236708D02*
D03*
X247584Y533250D02*
D03*
X322040Y513750D02*
D03*
X362500Y377500D02*
D03*
X667500Y375000D02*
D03*
Y350000D02*
D03*
Y362500D02*
D03*
X437583Y563075D02*
D03*
X434093Y526831D02*
D03*
X445093Y526833D02*
D03*
X456090Y527107D02*
D03*
X463917Y557537D02*
D03*
X416780Y553167D02*
D03*
X405780D02*
D03*
X394780D02*
D03*
X372780D02*
D03*
X361780D02*
D03*
X350901Y551537D02*
D03*
X341085Y546573D02*
D03*
X333319Y538783D02*
D03*
X325452Y531094D02*
D03*
X321931Y520673D02*
D03*
X363069Y518102D02*
D03*
X369760Y526833D02*
D03*
X380760D02*
D03*
X391760D02*
D03*
X402760D02*
D03*
X413760D02*
D03*
X424760Y526831D02*
D03*
X428438Y552894D02*
D03*
X236833Y564178D02*
D03*
X229865Y555667D02*
D03*
X207865D02*
D03*
X196865D02*
D03*
X185865D02*
D03*
X174865D02*
D03*
X163865D02*
D03*
X152865D02*
D03*
X132380Y549157D02*
D03*
X126151Y540091D02*
D03*
X120157Y530868D02*
D03*
X116931Y520351D02*
D03*
X117082Y509352D02*
D03*
X157407Y507476D02*
D03*
X158069Y518456D02*
D03*
X159708Y529333D02*
D03*
X170708D02*
D03*
X181708D02*
D03*
X192708D02*
D03*
X203708D02*
D03*
X214708D02*
D03*
X256683Y537158D02*
D03*
X262106Y546729D02*
D03*
X263167Y557677D02*
D03*
Y568677D02*
D03*
X635956Y563069D02*
D03*
X634512Y537028D02*
D03*
X645512Y536954D02*
D03*
X662297Y568910D02*
D03*
X802500Y517500D02*
D03*
Y506750D02*
D03*
Y528250D02*
D03*
X791750Y517500D02*
D03*
X813000D02*
D03*
X725000Y375000D02*
D03*
X866575Y475334D02*
D03*
Y495334D02*
D03*
X225000Y295000D02*
D03*
X722500Y237500D02*
D03*
X361739Y398261D02*
D03*
X95000Y417500D02*
D03*
X162500Y377500D02*
D03*
Y397500D02*
D03*
X850000Y422500D02*
D03*
X835000Y495000D02*
D03*
X838598Y389965D02*
D03*
X840304Y398108D02*
D03*
X840000Y407500D02*
D03*
X810000Y397500D02*
D03*
Y407500D02*
D03*
M02*
