G04*
G04 #@! TF.GenerationSoftware,Altium Limited,Altium Designer,23.0.1 (38)*
G04*
G04 Layer_Color=16711935*
%FSLAX42Y42*%
%MOMM*%
G71*
G04*
G04 #@! TF.SameCoordinates,B15292C3-EAD5-4A71-986A-2A6C0C3FE727*
G04*
G04*
G04 #@! TF.FilePolarity,Negative*
G04*
G01*
G75*
%ADD33R,1.80X5.10*%
%ADD50C,1.80*%
%ADD51R,1.80X1.80*%
%ADD52R,1.70X1.70*%
%ADD53C,1.70*%
%ADD54C,4.20*%
%ADD55R,1.91X1.91*%
%ADD56C,1.91*%
%ADD57C,0.79*%
%ADD58C,2.20*%
G04:AMPARAMS|DCode=59|XSize=2.2mm|YSize=2.2mm|CornerRadius=0.6mm|HoleSize=0mm|Usage=FLASHONLY|Rotation=270.000|XOffset=0mm|YOffset=0mm|HoleType=Round|Shape=RoundedRectangle|*
%AMROUNDEDRECTD59*
21,1,2.20,1.00,0,0,270.0*
21,1,1.00,2.20,0,0,270.0*
1,1,1.20,-0.50,-0.50*
1,1,1.20,-0.50,0.50*
1,1,1.20,0.50,0.50*
1,1,1.20,0.50,-0.50*
%
%ADD59ROUNDEDRECTD59*%
%ADD60C,1.79*%
%ADD61R,1.79X1.79*%
%ADD62C,2.00*%
%ADD63O,2.40X2.45*%
%ADD64C,2.40*%
%ADD65C,0.80*%
D33*
X2254Y5917D02*
D03*
X1746D02*
D03*
X4246D02*
D03*
X4754D02*
D03*
X6746D02*
D03*
X7254D02*
D03*
D50*
X8525Y2748D02*
D03*
D51*
Y3002D02*
D03*
D52*
X1200Y3850D02*
D03*
D53*
X946Y5882D02*
D03*
X1200D02*
D03*
X946Y5628D02*
D03*
X1200D02*
D03*
X946Y5374D02*
D03*
X1200D02*
D03*
X946Y5120D02*
D03*
X1200D02*
D03*
X946Y4866D02*
D03*
X1200D02*
D03*
X946Y4612D02*
D03*
X1200D02*
D03*
X946Y4358D02*
D03*
X1200D02*
D03*
X946Y4104D02*
D03*
X1200D02*
D03*
X946Y3850D02*
D03*
D54*
X8150Y1025D02*
D03*
X950D02*
D03*
X8600Y5800D02*
D03*
Y400D02*
D03*
X400D02*
D03*
Y5800D02*
D03*
D55*
X1992Y3500D02*
D03*
X6399Y2200D02*
D03*
D56*
X2246Y3500D02*
D03*
X2500D02*
D03*
X2754D02*
D03*
X3008D02*
D03*
X3262D02*
D03*
X3516D02*
D03*
X6145Y2200D02*
D03*
X5891D02*
D03*
X5637D02*
D03*
X5383D02*
D03*
X5129D02*
D03*
X4875D02*
D03*
D57*
X8394Y4288D02*
D03*
Y3712D02*
D03*
D58*
X775Y2420D02*
D03*
D59*
Y3180D02*
D03*
D60*
X7821Y2275D02*
D03*
X5900Y2475D02*
D03*
D61*
X8075Y2275D02*
D03*
X6154Y2475D02*
D03*
D62*
X250Y4250D02*
D03*
Y3750D02*
D03*
Y4750D02*
D03*
Y5250D02*
D03*
Y1250D02*
D03*
Y1750D02*
D03*
D63*
X500Y4350D02*
D03*
Y5350D02*
D03*
Y1850D02*
D03*
D64*
Y3650D02*
D03*
Y4650D02*
D03*
Y1150D02*
D03*
D65*
X6894Y5663D02*
D03*
X6924Y5557D02*
D03*
X6982Y5463D02*
D03*
X7039Y5369D02*
D03*
X7056Y5261D02*
D03*
X6766Y5136D02*
D03*
X6767Y5026D02*
D03*
X6858Y4964D02*
D03*
X6968Y4964D02*
D03*
X7078Y4955D02*
D03*
X7177Y5001D02*
D03*
X7255Y5080D02*
D03*
X7306Y5177D02*
D03*
X7326Y5285D02*
D03*
X7315Y5395D02*
D03*
X7271Y5495D02*
D03*
X7213Y5589D02*
D03*
X4368Y5639D02*
D03*
X4263Y5607D02*
D03*
X4153D02*
D03*
X4044Y5616D02*
D03*
X3934D02*
D03*
X3824D02*
D03*
X3726Y5565D02*
D03*
X3719Y5455D02*
D03*
X4191Y5343D02*
D03*
X4301D02*
D03*
X4411Y5350D02*
D03*
X4512Y5395D02*
D03*
X4588Y5474D02*
D03*
X4627Y5577D02*
D03*
X1868Y5642D02*
D03*
X1887Y5534D02*
D03*
X1945Y5440D02*
D03*
X2032Y5374D02*
D03*
X2138Y5345D02*
D03*
X2675Y5387D02*
D03*
X2681Y5497D02*
D03*
X2646Y5601D02*
D03*
X2537Y5616D02*
D03*
X2427D02*
D03*
X2317D02*
D03*
X2207Y5607D02*
D03*
X8025Y5175D02*
D03*
Y5067D02*
D03*
Y5283D02*
D03*
X7918Y5175D02*
D03*
X8130D02*
D03*
M02*
