G04*
G04 #@! TF.GenerationSoftware,Altium Limited,Altium Designer,23.0.1 (38)*
G04*
G04 Layer_Physical_Order=1*
G04 Layer_Color=255*
%FSLAX42Y42*%
%MOMM*%
G71*
G04*
G04 #@! TF.SameCoordinates,B15292C3-EAD5-4A71-986A-2A6C0C3FE727*
G04*
G04*
G04 #@! TF.FilePolarity,Positive*
G04*
G01*
G75*
%ADD10C,0.25*%
%ADD12C,0.25*%
%ADD14C,0.80*%
%ADD15R,3.00X1.20*%
%ADD16R,1.60X4.90*%
%ADD17R,1.50X3.81*%
%ADD18R,0.95X0.60*%
%ADD19R,0.60X1.00*%
%ADD20R,1.00X0.80*%
%ADD21R,0.60X0.95*%
G04:AMPARAMS|DCode=22|XSize=1.66mm|YSize=1.42mm|CornerRadius=0.25mm|HoleSize=0mm|Usage=FLASHONLY|Rotation=270.000|XOffset=0mm|YOffset=0mm|HoleType=Round|Shape=RoundedRectangle|*
%AMROUNDEDRECTD22*
21,1,1.66,0.92,0,0,270.0*
21,1,1.16,1.42,0,0,270.0*
1,1,0.50,-0.46,-0.58*
1,1,0.50,-0.46,0.58*
1,1,0.50,0.46,0.58*
1,1,0.50,0.46,-0.58*
%
%ADD22ROUNDEDRECTD22*%
%ADD23R,0.80X1.00*%
%ADD24R,1.00X0.60*%
%ADD25R,1.60X0.80*%
%ADD26R,0.80X1.60*%
G04:AMPARAMS|DCode=27|XSize=0.3mm|YSize=1.45mm|CornerRadius=0.05mm|HoleSize=0mm|Usage=FLASHONLY|Rotation=270.000|XOffset=0mm|YOffset=0mm|HoleType=Round|Shape=RoundedRectangle|*
%AMROUNDEDRECTD27*
21,1,0.30,1.36,0,0,270.0*
21,1,0.21,1.45,0,0,270.0*
1,1,0.09,-0.68,-0.11*
1,1,0.09,-0.68,0.11*
1,1,0.09,0.68,0.11*
1,1,0.09,0.68,-0.11*
%
%ADD27ROUNDEDRECTD27*%
G04:AMPARAMS|DCode=28|XSize=1.8mm|YSize=1.2mm|CornerRadius=0.12mm|HoleSize=0mm|Usage=FLASHONLY|Rotation=90.000|XOffset=0mm|YOffset=0mm|HoleType=Round|Shape=RoundedRectangle|*
%AMROUNDEDRECTD28*
21,1,1.80,0.96,0,0,90.0*
21,1,1.56,1.20,0,0,90.0*
1,1,0.24,0.48,0.78*
1,1,0.24,0.48,-0.78*
1,1,0.24,-0.48,-0.78*
1,1,0.24,-0.48,0.78*
%
%ADD28ROUNDEDRECTD28*%
G04:AMPARAMS|DCode=29|XSize=1.8mm|YSize=1.5mm|CornerRadius=0.15mm|HoleSize=0mm|Usage=FLASHONLY|Rotation=270.000|XOffset=0mm|YOffset=0mm|HoleType=Round|Shape=RoundedRectangle|*
%AMROUNDEDRECTD29*
21,1,1.80,1.20,0,0,270.0*
21,1,1.50,1.50,0,0,270.0*
1,1,0.30,-0.60,-0.75*
1,1,0.30,-0.60,0.75*
1,1,0.30,0.60,0.75*
1,1,0.30,0.60,-0.75*
%
%ADD29ROUNDEDRECTD29*%
G04:AMPARAMS|DCode=30|XSize=0.25mm|YSize=1.2mm|CornerRadius=0.03mm|HoleSize=0mm|Usage=FLASHONLY|Rotation=90.000|XOffset=0mm|YOffset=0mm|HoleType=Round|Shape=RoundedRectangle|*
%AMROUNDEDRECTD30*
21,1,0.25,1.15,0,0,90.0*
21,1,0.20,1.20,0,0,90.0*
1,1,0.05,0.58,0.10*
1,1,0.05,0.58,-0.10*
1,1,0.05,-0.58,-0.10*
1,1,0.05,-0.58,0.10*
%
%ADD30ROUNDEDRECTD30*%
G04:AMPARAMS|DCode=31|XSize=0.25mm|YSize=1.2mm|CornerRadius=0.03mm|HoleSize=0mm|Usage=FLASHONLY|Rotation=180.000|XOffset=0mm|YOffset=0mm|HoleType=Round|Shape=RoundedRectangle|*
%AMROUNDEDRECTD31*
21,1,0.25,1.15,0,0,180.0*
21,1,0.20,1.20,0,0,180.0*
1,1,0.05,-0.10,0.58*
1,1,0.05,0.10,0.58*
1,1,0.05,0.10,-0.58*
1,1,0.05,-0.10,-0.58*
%
%ADD31ROUNDEDRECTD31*%
%ADD66C,1.00*%
G04:AMPARAMS|DCode=67|XSize=3.2mm|YSize=3.2mm|CornerRadius=0.08mm|HoleSize=0mm|Usage=FLASHONLY|Rotation=180.000|XOffset=0mm|YOffset=0mm|HoleType=Round|Shape=RoundedRectangle|*
%AMROUNDEDRECTD67*
21,1,3.20,3.04,0,0,180.0*
21,1,3.04,3.20,0,0,180.0*
1,1,0.16,-1.52,1.52*
1,1,0.16,1.52,1.52*
1,1,0.16,1.52,-1.52*
1,1,0.16,-1.52,-1.52*
%
%ADD67ROUNDEDRECTD67*%
%ADD68C,0.60*%
%ADD69C,0.40*%
%ADD70C,1.60*%
%ADD71R,1.60X1.60*%
%ADD72R,1.50X1.50*%
%ADD73C,1.50*%
%ADD74C,4.00*%
%ADD75R,1.71X1.71*%
%ADD76C,1.71*%
%ADD77C,0.65*%
%ADD78C,2.00*%
G04:AMPARAMS|DCode=79|XSize=2mm|YSize=2mm|CornerRadius=0.5mm|HoleSize=0mm|Usage=FLASHONLY|Rotation=270.000|XOffset=0mm|YOffset=0mm|HoleType=Round|Shape=RoundedRectangle|*
%AMROUNDEDRECTD79*
21,1,2.00,1.00,0,0,270.0*
21,1,1.00,2.00,0,0,270.0*
1,1,1.00,-0.50,-0.50*
1,1,1.00,-0.50,0.50*
1,1,1.00,0.50,0.50*
1,1,1.00,0.50,-0.50*
%
%ADD79ROUNDEDRECTD79*%
%ADD80C,1.59*%
%ADD81R,1.59X1.59*%
%ADD82C,1.80*%
%ADD83O,2.20X2.25*%
%ADD84C,2.20*%
%ADD85C,0.60*%
G36*
X8969Y1600D02*
X8969Y31D01*
X8350D01*
Y874D01*
X8372Y907D01*
X8390Y952D01*
X8400Y1000D01*
Y1050D01*
X8390Y1098D01*
X8372Y1143D01*
X8350Y1176D01*
Y1600D01*
X8212D01*
Y2208D01*
X8210Y2226D01*
X8203Y2244D01*
X8192Y2258D01*
X8177Y2269D01*
X8175Y2270D01*
Y2375D01*
X8146D01*
Y2467D01*
X8162D01*
X8181Y2469D01*
X8198Y2476D01*
X8212Y2488D01*
X8270Y2545D01*
X8281Y2560D01*
X8288Y2577D01*
X8291Y2595D01*
X8288Y2613D01*
X8281Y2630D01*
X8271Y2644D01*
Y2755D01*
X8270Y2760D01*
Y2825D01*
X8191D01*
X8188Y2829D01*
X8195Y2842D01*
X8436D01*
X8447Y2831D01*
Y2812D01*
X8445Y2809D01*
X8432Y2787D01*
X8425Y2761D01*
Y2735D01*
X8432Y2709D01*
X8445Y2687D01*
X8464Y2668D01*
X8486Y2655D01*
X8512Y2648D01*
X8538D01*
X8564Y2655D01*
X8586Y2668D01*
X8605Y2687D01*
X8618Y2709D01*
X8625Y2735D01*
Y2761D01*
X8618Y2787D01*
X8605Y2809D01*
X8586Y2828D01*
X8564Y2841D01*
X8538Y2848D01*
X8513D01*
X8511Y2857D01*
X8504Y2868D01*
X8483Y2889D01*
X8488Y2902D01*
X8625D01*
Y3102D01*
X8447D01*
X8426Y3123D01*
Y3133D01*
X8425Y3136D01*
Y3217D01*
X8325D01*
Y3083D01*
X8373D01*
X8424Y3031D01*
X8425Y3031D01*
Y2908D01*
X8050D01*
X8037Y2906D01*
X8027Y2898D01*
X8007Y2878D01*
X7999Y2868D01*
X7997Y2855D01*
Y2825D01*
X7980D01*
Y2685D01*
X8070D01*
Y2680D01*
X8112D01*
Y2755D01*
X8138D01*
Y2680D01*
X8169D01*
Y2644D01*
X8133Y2608D01*
X7992D01*
X7946Y2654D01*
Y2750D01*
Y3073D01*
X7957Y3075D01*
X7958Y3075D01*
X7973D01*
X7980Y3065D01*
Y2925D01*
X8080D01*
Y3065D01*
X8087Y3075D01*
X8093D01*
Y3175D01*
X7957D01*
Y3107D01*
X7945Y3106D01*
X7943Y3118D01*
X7936Y3135D01*
X7925Y3150D01*
X7781Y3294D01*
Y3380D01*
X7780Y3385D01*
Y3450D01*
X7680D01*
Y3385D01*
X7679Y3380D01*
Y3294D01*
X7669Y3280D01*
X7662Y3263D01*
X7659Y3245D01*
X7662Y3227D01*
X7669Y3210D01*
X7680Y3195D01*
X7804Y3071D01*
Y2801D01*
X7675D01*
X7670Y2800D01*
X7607D01*
Y2700D01*
X7670D01*
X7675Y2699D01*
X7804D01*
Y2625D01*
X7807Y2607D01*
X7814Y2590D01*
X7825Y2575D01*
X7915Y2486D01*
X7929Y2474D01*
X7946Y2467D01*
X7964Y2465D01*
X7983Y2467D01*
X7983Y2467D01*
X7988Y2467D01*
X8004D01*
Y2375D01*
X7975D01*
Y2175D01*
X8071D01*
Y1600D01*
X1275D01*
Y31D01*
X31D01*
Y1600D01*
X31Y6163D01*
X1894D01*
X1905Y6158D01*
X1905Y6150D01*
Y5738D01*
X1929D01*
Y5625D01*
X1930Y5618D01*
X1933Y5592D01*
X1946Y5548D01*
X1968Y5507D01*
X1997Y5472D01*
X2032Y5443D01*
X2073Y5421D01*
X2117Y5408D01*
X2143Y5405D01*
X2150Y5404D01*
X2152D01*
X2162Y5403D01*
X2173Y5404D01*
X2270D01*
Y5385D01*
X2630D01*
Y5565D01*
X2270D01*
Y5546D01*
X2182D01*
X2170Y5546D01*
X2170Y5546D01*
X2157Y5546D01*
X2139Y5548D01*
X2116Y5557D01*
X2097Y5572D01*
X2082Y5591D01*
X2073Y5614D01*
X2071Y5630D01*
X2071Y5630D01*
X2071D01*
X2071Y5631D01*
Y5738D01*
X2095D01*
Y6150D01*
X2095Y6158D01*
X2106Y6163D01*
X4394D01*
X4405Y6158D01*
X4405Y6150D01*
Y5738D01*
X4429D01*
Y5625D01*
X4429Y5625D01*
X4427Y5604D01*
X4419Y5585D01*
X4406Y5569D01*
X4390Y5556D01*
X4371Y5548D01*
X4362Y5547D01*
X4350Y5546D01*
X4338Y5546D01*
X4130D01*
Y5565D01*
X3770D01*
Y5385D01*
X4130D01*
Y5404D01*
X4343D01*
X4352Y5403D01*
X4370Y5406D01*
X4371Y5406D01*
X4393Y5408D01*
X4435Y5421D01*
X4473Y5441D01*
X4506Y5469D01*
X4534Y5502D01*
X4554Y5540D01*
X4567Y5582D01*
X4571Y5625D01*
X4571D01*
Y5738D01*
X4595D01*
Y6150D01*
X4595Y6158D01*
X4606Y6163D01*
X6894D01*
X6905Y6158D01*
X6905Y6150D01*
Y5738D01*
X6940D01*
X6956Y5664D01*
X6956Y5659D01*
X6956Y5658D01*
X6957Y5657D01*
X6957Y5656D01*
X6957Y5656D01*
X6961Y5637D01*
X6966Y5618D01*
X6969Y5605D01*
X6969Y5605D01*
X6969Y5605D01*
X6970Y5603D01*
X6973Y5596D01*
X6974Y5594D01*
X6976Y5588D01*
X6977Y5587D01*
X6977Y5587D01*
X7018Y5521D01*
X7115Y5363D01*
X7121Y5343D01*
X7125Y5302D01*
X7123Y5281D01*
X7123Y5281D01*
X7121Y5265D01*
X7112Y5234D01*
X7096Y5205D01*
X7075Y5179D01*
X7050Y5159D01*
X7039Y5153D01*
X7035Y5155D01*
Y5155D01*
X6815D01*
Y5015D01*
X7035D01*
X7035Y5015D01*
X7048Y5016D01*
X7063Y5014D01*
X7082Y5017D01*
X7095Y5022D01*
X7095Y5022D01*
X7097Y5023D01*
X7106Y5028D01*
X7139Y5048D01*
X7175Y5079D01*
X7207Y5116D01*
X7232Y5158D01*
X7251Y5202D01*
X7262Y5249D01*
X7263Y5254D01*
X7263Y5267D01*
X7264Y5274D01*
X7264Y5275D01*
X7264Y5280D01*
X7266Y5302D01*
X7262Y5357D01*
X7251Y5401D01*
X7249Y5410D01*
X7248Y5413D01*
X7247Y5413D01*
X7242Y5426D01*
X7238Y5431D01*
X7235Y5437D01*
X7138Y5595D01*
X7138Y5595D01*
X7103Y5652D01*
X7095Y5689D01*
X7095D01*
X7092Y5702D01*
X7086Y5728D01*
X7094Y5738D01*
X7095D01*
Y6150D01*
X7095Y6158D01*
X7106Y6163D01*
X8969D01*
X8969Y1600D01*
D02*
G37*
%LPC*%
G36*
X8622Y6025D02*
X8613D01*
Y5813D01*
X8825D01*
Y5822D01*
X8817Y5866D01*
X8800Y5907D01*
X8775Y5944D01*
X8744Y5975D01*
X8707Y6000D01*
X8666Y6017D01*
X8622Y6025D01*
D02*
G37*
G36*
X8587D02*
X8578D01*
X8534Y6017D01*
X8493Y6000D01*
X8456Y5975D01*
X8425Y5944D01*
X8400Y5907D01*
X8383Y5866D01*
X8375Y5822D01*
Y5813D01*
X8587D01*
Y6025D01*
D02*
G37*
G36*
X422D02*
X413D01*
Y5813D01*
X625D01*
Y5822D01*
X617Y5866D01*
X600Y5907D01*
X575Y5944D01*
X544Y5975D01*
X507Y6000D01*
X466Y6017D01*
X422Y6025D01*
D02*
G37*
G36*
X387D02*
X378D01*
X334Y6017D01*
X293Y6000D01*
X256Y5975D01*
X225Y5944D01*
X200Y5907D01*
X183Y5866D01*
X175Y5822D01*
Y5813D01*
X387D01*
Y6025D01*
D02*
G37*
G36*
X1213Y5977D02*
X1187D01*
X1163Y5971D01*
X1142Y5958D01*
X1124Y5940D01*
X1111Y5919D01*
X1105Y5895D01*
Y5869D01*
X1111Y5845D01*
X1124Y5824D01*
X1142Y5806D01*
X1163Y5793D01*
X1187Y5787D01*
X1213D01*
X1237Y5793D01*
X1258Y5806D01*
X1276Y5824D01*
X1289Y5845D01*
X1295Y5869D01*
Y5895D01*
X1289Y5919D01*
X1276Y5940D01*
X1258Y5958D01*
X1237Y5971D01*
X1213Y5977D01*
D02*
G37*
G36*
X959D02*
X933D01*
X909Y5971D01*
X888Y5958D01*
X870Y5940D01*
X857Y5919D01*
X851Y5895D01*
Y5869D01*
X857Y5845D01*
X870Y5824D01*
X888Y5806D01*
X909Y5793D01*
X933Y5787D01*
X959D01*
X983Y5793D01*
X1004Y5806D01*
X1022Y5824D01*
X1035Y5845D01*
X1041Y5869D01*
Y5895D01*
X1035Y5919D01*
X1022Y5940D01*
X1004Y5958D01*
X983Y5971D01*
X959Y5977D01*
D02*
G37*
G36*
X8825Y5787D02*
X8613D01*
Y5575D01*
X8622D01*
X8666Y5583D01*
X8707Y5600D01*
X8744Y5625D01*
X8775Y5656D01*
X8800Y5693D01*
X8817Y5734D01*
X8825Y5778D01*
Y5787D01*
D02*
G37*
G36*
X8587D02*
X8375D01*
Y5778D01*
X8383Y5734D01*
X8400Y5693D01*
X8425Y5656D01*
X8456Y5625D01*
X8493Y5600D01*
X8534Y5583D01*
X8578Y5575D01*
X8587D01*
Y5787D01*
D02*
G37*
G36*
X625D02*
X413D01*
Y5575D01*
X422D01*
X466Y5583D01*
X507Y5600D01*
X544Y5625D01*
X575Y5656D01*
X600Y5693D01*
X617Y5734D01*
X625Y5778D01*
Y5787D01*
D02*
G37*
G36*
X387D02*
X175D01*
Y5778D01*
X183Y5734D01*
X200Y5693D01*
X225Y5656D01*
X256Y5625D01*
X293Y5600D01*
X334Y5583D01*
X378Y5575D01*
X387D01*
Y5787D01*
D02*
G37*
G36*
X1213Y5723D02*
X1187D01*
X1163Y5717D01*
X1142Y5704D01*
X1124Y5686D01*
X1111Y5665D01*
X1105Y5641D01*
Y5615D01*
X1111Y5591D01*
X1124Y5570D01*
X1142Y5552D01*
X1163Y5539D01*
X1187Y5533D01*
X1213D01*
X1237Y5539D01*
X1258Y5552D01*
X1276Y5570D01*
X1289Y5591D01*
X1295Y5615D01*
Y5641D01*
X1289Y5665D01*
X1276Y5686D01*
X1258Y5704D01*
X1237Y5717D01*
X1213Y5723D01*
D02*
G37*
G36*
X959D02*
X933D01*
X909Y5717D01*
X888Y5704D01*
X870Y5686D01*
X857Y5665D01*
X851Y5641D01*
Y5615D01*
X857Y5591D01*
X870Y5570D01*
X888Y5552D01*
X909Y5539D01*
X933Y5533D01*
X959D01*
X983Y5539D01*
X1004Y5552D01*
X1022Y5570D01*
X1035Y5591D01*
X1041Y5615D01*
Y5641D01*
X1035Y5665D01*
X1022Y5686D01*
X1004Y5704D01*
X983Y5717D01*
X959Y5723D01*
D02*
G37*
G36*
X8185Y5505D02*
X8165D01*
X8156Y5504D01*
X8150Y5500D01*
X8144Y5504D01*
X8135Y5505D01*
X8115D01*
X8106Y5504D01*
X8100Y5500D01*
X8094Y5504D01*
X8085Y5505D01*
X8065D01*
X8056Y5504D01*
X8050Y5500D01*
X8044Y5504D01*
X8035Y5505D01*
X8015D01*
X8006Y5504D01*
X8000Y5500D01*
X7994Y5504D01*
X7985Y5505D01*
X7965D01*
X7956Y5504D01*
X7950Y5500D01*
X7944Y5504D01*
X7935Y5505D01*
X7915D01*
X7906Y5504D01*
X7900Y5500D01*
X7894Y5504D01*
X7885Y5505D01*
X7865D01*
X7856Y5504D01*
X7849Y5499D01*
X7844Y5491D01*
X7842Y5483D01*
Y5369D01*
X7841Y5366D01*
X7834Y5359D01*
X7831Y5358D01*
X7718D01*
X7709Y5356D01*
X7701Y5351D01*
X7696Y5344D01*
X7695Y5335D01*
Y5315D01*
X7696Y5306D01*
X7700Y5300D01*
X7696Y5294D01*
X7695Y5285D01*
Y5265D01*
X7696Y5256D01*
X7700Y5250D01*
X7696Y5244D01*
X7695Y5235D01*
Y5215D01*
X7689Y5208D01*
X7490D01*
X7477Y5206D01*
X7466Y5198D01*
X7452Y5184D01*
X7444Y5173D01*
X7442Y5160D01*
Y5150D01*
X7407D01*
Y5050D01*
X7668D01*
Y5067D01*
X7675D01*
X7682Y5068D01*
X7685Y5067D01*
X7693Y5063D01*
X7696Y5059D01*
X7696Y5056D01*
X7700Y5050D01*
X7696Y5044D01*
X7695Y5035D01*
Y5015D01*
X7696Y5006D01*
X7701Y4999D01*
X7709Y4994D01*
X7718Y4992D01*
X7831D01*
X7834Y4991D01*
X7841Y4984D01*
X7842Y4981D01*
Y4867D01*
X7844Y4859D01*
X7849Y4851D01*
X7856Y4846D01*
X7865Y4845D01*
X7885D01*
X7894Y4846D01*
X7900Y4850D01*
X7906Y4846D01*
X7915Y4845D01*
X7935D01*
X7944Y4846D01*
X7953Y4839D01*
X7955Y4827D01*
X7952Y4823D01*
X7944Y4813D01*
X7942Y4800D01*
Y4775D01*
X7907D01*
Y4675D01*
X8168D01*
Y4761D01*
X8175Y4767D01*
X8372D01*
Y4730D01*
X8392D01*
Y4675D01*
X8394Y4662D01*
X8402Y4652D01*
X8427Y4627D01*
X8437Y4619D01*
X8450Y4617D01*
X8677D01*
X8684Y4604D01*
X8680Y4598D01*
X8677Y4586D01*
Y4430D01*
X8680Y4418D01*
X8687Y4407D01*
X8698Y4400D01*
X8710Y4397D01*
X8806D01*
X8818Y4400D01*
X8829Y4407D01*
X8836Y4418D01*
X8839Y4430D01*
Y4586D01*
X8836Y4598D01*
X8829Y4609D01*
X8818Y4616D01*
X8806Y4619D01*
X8733D01*
X8728Y4631D01*
X8773Y4677D01*
X8781Y4687D01*
X8783Y4700D01*
Y5000D01*
X8781Y5013D01*
X8773Y5023D01*
X8698Y5098D01*
X8688Y5106D01*
X8675Y5108D01*
X8625D01*
Y5142D01*
X8525D01*
Y5025D01*
X8502D01*
Y5025D01*
X8492Y5020D01*
X8475D01*
Y5142D01*
X8375D01*
Y5108D01*
X8361D01*
X8355Y5115D01*
Y5135D01*
X8354Y5144D01*
X8350Y5150D01*
X8354Y5156D01*
X8355Y5165D01*
Y5185D01*
X8354Y5194D01*
X8350Y5200D01*
X8354Y5206D01*
X8355Y5215D01*
Y5235D01*
X8354Y5244D01*
X8350Y5250D01*
X8354Y5256D01*
X8355Y5265D01*
Y5285D01*
X8354Y5294D01*
X8350Y5300D01*
X8354Y5306D01*
X8355Y5315D01*
Y5335D01*
X8354Y5344D01*
X8349Y5351D01*
X8341Y5356D01*
X8332Y5358D01*
X8219D01*
X8216Y5359D01*
X8209Y5366D01*
X8208Y5369D01*
Y5483D01*
X8206Y5491D01*
X8201Y5499D01*
X8194Y5504D01*
X8185Y5505D01*
D02*
G37*
G36*
X1213Y5469D02*
X1187D01*
X1163Y5463D01*
X1142Y5450D01*
X1124Y5432D01*
X1111Y5411D01*
X1105Y5387D01*
Y5361D01*
X1111Y5337D01*
X1124Y5316D01*
X1142Y5298D01*
X1163Y5285D01*
X1187Y5279D01*
X1213D01*
X1237Y5285D01*
X1258Y5298D01*
X1276Y5316D01*
X1289Y5337D01*
X1295Y5361D01*
Y5387D01*
X1289Y5411D01*
X1276Y5432D01*
X1258Y5450D01*
X1237Y5463D01*
X1213Y5469D01*
D02*
G37*
G36*
X959D02*
X933D01*
X909Y5463D01*
X888Y5450D01*
X870Y5432D01*
X857Y5411D01*
X851Y5387D01*
Y5361D01*
X857Y5337D01*
X870Y5316D01*
X888Y5298D01*
X909Y5285D01*
X933Y5279D01*
X959D01*
X983Y5285D01*
X1004Y5298D01*
X1022Y5316D01*
X1035Y5337D01*
X1041Y5361D01*
Y5387D01*
X1035Y5411D01*
X1022Y5432D01*
X1004Y5450D01*
X983Y5463D01*
X959Y5469D01*
D02*
G37*
G36*
X265Y5365D02*
X263D01*
Y5263D01*
X365D01*
Y5265D01*
X358Y5295D01*
X342Y5321D01*
X321Y5342D01*
X295Y5358D01*
X265Y5365D01*
D02*
G37*
G36*
X237D02*
X235D01*
X205Y5358D01*
X179Y5342D01*
X158Y5321D01*
X142Y5295D01*
X135Y5265D01*
Y5263D01*
X237D01*
Y5365D01*
D02*
G37*
G36*
X500Y5484D02*
X466Y5479D01*
X434Y5466D01*
X407Y5445D01*
X386Y5418D01*
X373Y5386D01*
X369Y5353D01*
Y5347D01*
X373Y5314D01*
X386Y5282D01*
X407Y5255D01*
X434Y5234D01*
X466Y5221D01*
X500Y5216D01*
X534Y5221D01*
X566Y5234D01*
X593Y5255D01*
X614Y5282D01*
X627Y5314D01*
X631Y5347D01*
Y5353D01*
X627Y5386D01*
X614Y5418D01*
X593Y5445D01*
X566Y5466D01*
X534Y5479D01*
X500Y5484D01*
D02*
G37*
G36*
X365Y5237D02*
X263D01*
Y5135D01*
X265D01*
X295Y5142D01*
X321Y5158D01*
X342Y5179D01*
X358Y5205D01*
X365Y5235D01*
Y5237D01*
D02*
G37*
G36*
X237D02*
X135D01*
Y5235D01*
X142Y5205D01*
X158Y5179D01*
X179Y5158D01*
X205Y5142D01*
X235Y5135D01*
X237D01*
Y5237D01*
D02*
G37*
G36*
X1213Y5215D02*
X1187D01*
X1163Y5209D01*
X1142Y5196D01*
X1124Y5178D01*
X1111Y5157D01*
X1105Y5133D01*
Y5107D01*
X1111Y5083D01*
X1124Y5062D01*
X1142Y5044D01*
X1163Y5031D01*
X1187Y5025D01*
X1213D01*
X1237Y5031D01*
X1258Y5044D01*
X1276Y5062D01*
X1289Y5083D01*
X1295Y5107D01*
Y5133D01*
X1289Y5157D01*
X1276Y5178D01*
X1258Y5196D01*
X1237Y5209D01*
X1213Y5215D01*
D02*
G37*
G36*
X959D02*
X933D01*
X909Y5209D01*
X888Y5196D01*
X870Y5178D01*
X857Y5157D01*
X851Y5133D01*
Y5107D01*
X857Y5083D01*
X870Y5062D01*
X888Y5044D01*
X909Y5031D01*
X933Y5025D01*
X959D01*
X983Y5031D01*
X1004Y5044D01*
X1022Y5062D01*
X1035Y5083D01*
X1041Y5107D01*
Y5133D01*
X1035Y5157D01*
X1022Y5178D01*
X1004Y5196D01*
X983Y5209D01*
X959Y5215D01*
D02*
G37*
G36*
X1213Y4961D02*
X1187D01*
X1163Y4955D01*
X1142Y4942D01*
X1124Y4924D01*
X1111Y4903D01*
X1105Y4879D01*
Y4853D01*
X1111Y4829D01*
X1124Y4808D01*
X1142Y4790D01*
X1163Y4777D01*
X1187Y4771D01*
X1213D01*
X1237Y4777D01*
X1258Y4790D01*
X1276Y4808D01*
X1289Y4829D01*
X1295Y4853D01*
Y4879D01*
X1289Y4903D01*
X1276Y4924D01*
X1258Y4942D01*
X1237Y4955D01*
X1213Y4961D01*
D02*
G37*
G36*
X959D02*
X933D01*
X909Y4955D01*
X888Y4942D01*
X870Y4924D01*
X857Y4903D01*
X851Y4879D01*
Y4853D01*
X857Y4829D01*
X870Y4808D01*
X888Y4790D01*
X909Y4777D01*
X933Y4771D01*
X959D01*
X983Y4777D01*
X1004Y4790D01*
X1022Y4808D01*
X1035Y4829D01*
X1041Y4853D01*
Y4879D01*
X1035Y4903D01*
X1022Y4924D01*
X1004Y4942D01*
X983Y4955D01*
X959Y4961D01*
D02*
G37*
G36*
X7668Y5000D02*
X7407D01*
Y4900D01*
X7442D01*
Y4763D01*
X7433Y4753D01*
X7425Y4735D01*
Y4715D01*
X7433Y4697D01*
X7447Y4683D01*
X7465Y4675D01*
X7485D01*
X7503Y4683D01*
X7517Y4697D01*
X7525Y4715D01*
Y4735D01*
X7517Y4753D01*
X7508Y4763D01*
Y4900D01*
X7567D01*
Y4838D01*
X7558Y4828D01*
X7550Y4810D01*
Y4790D01*
X7558Y4772D01*
X7572Y4758D01*
X7590Y4750D01*
X7610D01*
X7628Y4758D01*
X7642Y4772D01*
X7650Y4790D01*
Y4810D01*
X7642Y4828D01*
X7633Y4838D01*
Y4900D01*
X7668D01*
Y5000D01*
D02*
G37*
G36*
X7035Y4755D02*
X6815D01*
Y4718D01*
X6797D01*
X6792Y4728D01*
X6778Y4742D01*
X6760Y4750D01*
X6740D01*
X6722Y4742D01*
X6708Y4728D01*
X6700Y4710D01*
Y4690D01*
X6708Y4672D01*
X6722Y4658D01*
X6740Y4650D01*
X6760D01*
X6765Y4652D01*
X6765Y4652D01*
X6815D01*
Y4608D01*
X6788D01*
X6778Y4617D01*
X6760Y4625D01*
X6740D01*
X6722Y4617D01*
X6708Y4603D01*
X6700Y4585D01*
Y4565D01*
X6708Y4547D01*
X6722Y4533D01*
X6740Y4525D01*
X6760D01*
X6778Y4533D01*
X6788Y4542D01*
X6815D01*
Y4498D01*
X6765D01*
X6765Y4498D01*
X6760Y4500D01*
X6740D01*
X6722Y4492D01*
X6708Y4478D01*
X6700Y4460D01*
Y4440D01*
X6708Y4422D01*
X6722Y4408D01*
X6725Y4406D01*
Y4394D01*
X6722Y4392D01*
X6708Y4378D01*
X6700Y4360D01*
Y4340D01*
X6708Y4322D01*
X6722Y4308D01*
X6723Y4307D01*
Y4293D01*
X6722Y4292D01*
X6708Y4278D01*
X6700Y4260D01*
Y4240D01*
X6708Y4222D01*
X6722Y4208D01*
X6723Y4207D01*
Y4193D01*
X6722Y4192D01*
X6708Y4178D01*
X6700Y4160D01*
Y4140D01*
X6708Y4122D01*
X6722Y4108D01*
X6740Y4100D01*
X6760D01*
X6765Y4102D01*
X6765Y4102D01*
X6815D01*
Y4058D01*
X6788D01*
X6778Y4067D01*
X6760Y4075D01*
X6740D01*
X6722Y4067D01*
X6708Y4053D01*
X6700Y4035D01*
Y4015D01*
X6708Y3997D01*
X6722Y3983D01*
X6740Y3975D01*
X6760D01*
X6778Y3983D01*
X6788Y3992D01*
X6815D01*
Y3948D01*
X6765D01*
X6765Y3948D01*
X6760Y3950D01*
X6740D01*
X6722Y3942D01*
X6708Y3928D01*
X6700Y3910D01*
Y3890D01*
X6708Y3872D01*
X6722Y3858D01*
X6723Y3857D01*
Y3843D01*
X6722Y3842D01*
X6708Y3828D01*
X6700Y3810D01*
Y3790D01*
X6708Y3772D01*
X6722Y3758D01*
X6725Y3756D01*
Y3744D01*
X6722Y3742D01*
X6708Y3728D01*
X6700Y3710D01*
Y3690D01*
X6708Y3672D01*
X6722Y3658D01*
X6723Y3657D01*
Y3643D01*
X6722Y3642D01*
X6708Y3628D01*
X6700Y3610D01*
Y3590D01*
X6708Y3572D01*
X6722Y3558D01*
X6740Y3550D01*
X6760D01*
X6765Y3552D01*
X6765Y3552D01*
X6815D01*
Y3515D01*
Y3405D01*
Y3295D01*
Y3185D01*
Y3075D01*
Y2965D01*
X7035D01*
Y2992D01*
X7100D01*
X7131Y2960D01*
X7131Y2956D01*
X7128Y2945D01*
X7126Y2944D01*
X7122Y2942D01*
X7118Y2939D01*
X7114Y2936D01*
X7111Y2932D01*
X7108Y2928D01*
X7106Y2924D01*
X7103Y2920D01*
X7102Y2915D01*
X7100Y2910D01*
Y2905D01*
X7099Y2900D01*
Y2471D01*
X6904Y2276D01*
X6808D01*
Y2337D01*
X6743D01*
Y2363D01*
X6808D01*
Y2425D01*
Y2487D01*
X6743D01*
Y2500D01*
X6730D01*
Y2575D01*
X6677D01*
X6677Y2575D01*
Y2575D01*
X6677Y2575D01*
X6666Y2579D01*
Y2615D01*
X6685D01*
Y2835D01*
X6533D01*
Y2862D01*
X6542Y2872D01*
X6550Y2890D01*
Y2910D01*
X6542Y2928D01*
X6528Y2942D01*
X6510Y2950D01*
X6490D01*
X6472Y2942D01*
X6458Y2928D01*
X6457Y2927D01*
X6443D01*
X6442Y2928D01*
X6428Y2942D01*
X6410Y2950D01*
X6390D01*
X6372Y2942D01*
X6358Y2928D01*
X6356Y2925D01*
X6344D01*
X6342Y2928D01*
X6328Y2942D01*
X6310Y2950D01*
X6290D01*
X6272Y2942D01*
X6258Y2928D01*
X6250Y2910D01*
Y2890D01*
X6253Y2882D01*
X6252Y2876D01*
Y2835D01*
X6211D01*
Y2865D01*
X6217Y2872D01*
X6225Y2890D01*
Y2910D01*
X6217Y2928D01*
X6203Y2942D01*
X6185Y2950D01*
X6165D01*
X6147Y2942D01*
X6133Y2928D01*
X6125Y2910D01*
Y2890D01*
X6133Y2872D01*
X6145Y2860D01*
Y2835D01*
X6108D01*
Y2936D01*
X6264Y3092D01*
X6687D01*
X6697Y3083D01*
X6715Y3075D01*
X6735D01*
X6753Y3083D01*
X6767Y3097D01*
X6775Y3115D01*
Y3135D01*
X6767Y3153D01*
X6753Y3167D01*
X6735Y3175D01*
X6715D01*
X6697Y3167D01*
X6687Y3158D01*
X6670D01*
X6666Y3170D01*
X6667Y3172D01*
X6675Y3190D01*
Y3210D01*
X6667Y3228D01*
X6653Y3242D01*
X6635Y3250D01*
X6615D01*
X6597Y3242D01*
X6587Y3233D01*
X6250D01*
X6237Y3231D01*
X6227Y3223D01*
X5927Y2923D01*
X5919Y2913D01*
X5917Y2900D01*
Y2835D01*
X5888D01*
Y2991D01*
X5972Y3075D01*
X5985D01*
X6003Y3083D01*
X6017Y3097D01*
X6025Y3115D01*
Y3135D01*
X6017Y3153D01*
X6003Y3167D01*
X5985Y3175D01*
X5965D01*
X5947Y3167D01*
X5933Y3153D01*
X5925Y3135D01*
Y3122D01*
X5832Y3028D01*
X5824Y3018D01*
X5822Y3005D01*
Y2835D01*
X5455D01*
Y2758D01*
X3289D01*
X2602Y3445D01*
X2608Y3455D01*
X2616Y3485D01*
Y3515D01*
X2608Y3545D01*
X2592Y3571D01*
X2574Y3589D01*
X2579Y3602D01*
X2605D01*
X2652Y3555D01*
X2646Y3545D01*
X2639Y3515D01*
Y3485D01*
X2646Y3455D01*
X2662Y3429D01*
X2683Y3408D01*
X2709Y3392D01*
X2739Y3385D01*
X2769D01*
X2799Y3392D01*
X2825Y3408D01*
X2846Y3429D01*
X2862Y3455D01*
X2869Y3485D01*
Y3515D01*
X2862Y3545D01*
X2846Y3571D01*
X2825Y3592D01*
X2799Y3608D01*
X2769Y3615D01*
X2739D01*
X2709Y3608D01*
X2699Y3602D01*
X2642Y3658D01*
X2638Y3661D01*
X2642Y3674D01*
X3575D01*
X3595Y3678D01*
X3611Y3689D01*
X3746Y3824D01*
X3770D01*
Y3785D01*
X4124D01*
X4135Y3774D01*
X4133Y3766D01*
Y3649D01*
X4137Y3632D01*
X4147Y3617D01*
X4161Y3607D01*
X4179Y3604D01*
X4271D01*
X4289Y3607D01*
X4303Y3617D01*
X4313Y3632D01*
X4317Y3649D01*
Y3657D01*
X4355D01*
Y3625D01*
X4455D01*
Y3750D01*
X4522D01*
X4523Y3750D01*
X4532Y3754D01*
X4536Y3753D01*
X4545Y3747D01*
Y3625D01*
X4645D01*
Y3755D01*
X4653D01*
Y3895D01*
X4536D01*
X4533Y3895D01*
X4523Y3900D01*
X4522Y3900D01*
X4470D01*
Y3825D01*
X4458D01*
Y3812D01*
X4392D01*
Y3765D01*
X4355D01*
Y3758D01*
X4317D01*
Y3766D01*
X4313Y3783D01*
X4303Y3798D01*
X4289Y3808D01*
X4279Y3810D01*
X4280Y3822D01*
X4295D01*
Y3939D01*
X4295Y3942D01*
X4300Y3952D01*
X4300Y3953D01*
Y4005D01*
X4225D01*
X4150D01*
Y3953D01*
X4150Y3952D01*
X4155Y3942D01*
X4155Y3939D01*
Y3926D01*
X4130D01*
Y3965D01*
X3770D01*
Y3926D01*
X3725D01*
X3705Y3922D01*
X3689Y3911D01*
X3554Y3776D01*
X1346D01*
X1295Y3827D01*
Y3945D01*
X1105D01*
Y3755D01*
X1223D01*
X1289Y3689D01*
X1305Y3678D01*
X1325Y3674D01*
X2387D01*
X2391Y3661D01*
X2387Y3658D01*
X2352Y3623D01*
X2344Y3613D01*
X2342Y3600D01*
Y3585D01*
X2329Y3580D01*
X2317Y3592D01*
X2291Y3608D01*
X2261Y3615D01*
X2231D01*
X2201Y3608D01*
X2175Y3592D01*
X2154Y3571D01*
X2138Y3545D01*
X2131Y3515D01*
Y3485D01*
X2138Y3455D01*
X2154Y3429D01*
X2175Y3408D01*
X2195Y3396D01*
Y3267D01*
X1929Y3001D01*
X1101D01*
X896Y3206D01*
Y3230D01*
X893Y3248D01*
X886Y3265D01*
X875Y3280D01*
X860Y3291D01*
X843Y3298D01*
X825Y3301D01*
X797D01*
X795Y3302D01*
X775Y3306D01*
X755Y3302D01*
X753Y3301D01*
X725D01*
X707Y3298D01*
X690Y3291D01*
X675Y3280D01*
X664Y3265D01*
X657Y3248D01*
X654Y3230D01*
Y3130D01*
X657Y3112D01*
X664Y3095D01*
X675Y3080D01*
X690Y3069D01*
X707Y3062D01*
X725Y3059D01*
X825D01*
X843Y3062D01*
X860Y3069D01*
X875Y3080D01*
X878Y3080D01*
X1044Y2914D01*
X1060Y2903D01*
X1080Y2899D01*
X1899D01*
Y2550D01*
X1760D01*
Y2533D01*
X1725D01*
Y2567D01*
X1625D01*
Y2433D01*
X1725D01*
Y2467D01*
X1760D01*
Y2450D01*
X1899D01*
Y2275D01*
X1903Y2255D01*
X1914Y2239D01*
X1989Y2164D01*
X2005Y2153D01*
X2025Y2149D01*
X4535D01*
X4536Y2149D01*
X4539Y2136D01*
X4539Y2136D01*
X4536Y2132D01*
X4533Y2128D01*
X4531Y2124D01*
X4528Y2120D01*
X4527Y2115D01*
X4525Y2110D01*
Y2105D01*
X4524Y2100D01*
X4525Y2095D01*
Y2090D01*
X4527Y2085D01*
X4528Y2080D01*
X4531Y2076D01*
X4533Y2072D01*
X4536Y2068D01*
X4539Y2064D01*
X4814Y1789D01*
X4830Y1778D01*
X4850Y1774D01*
X6675D01*
X6695Y1778D01*
X6711Y1789D01*
X7261Y2339D01*
X7264Y2343D01*
X7267Y2347D01*
X7269Y2351D01*
X7272Y2355D01*
X7273Y2360D01*
X7275Y2365D01*
Y2370D01*
X7276Y2375D01*
X7275Y2380D01*
Y2385D01*
X7273Y2390D01*
X7272Y2395D01*
X7269Y2399D01*
X7267Y2403D01*
X7264Y2407D01*
X7261Y2411D01*
X7257Y2414D01*
X7253Y2417D01*
X7249Y2419D01*
X7245Y2422D01*
X7240Y2423D01*
X7235Y2425D01*
X7230D01*
X7225Y2426D01*
X7220Y2425D01*
X7215D01*
X7210Y2423D01*
X7207Y2422D01*
X7202Y2427D01*
X7197Y2432D01*
X7201Y2450D01*
Y2746D01*
X7210Y2755D01*
X7242D01*
Y2717D01*
X7225D01*
Y2583D01*
X7325D01*
Y2717D01*
X7308D01*
Y2755D01*
X7350D01*
Y2855D01*
X7276D01*
Y2896D01*
X7273Y2909D01*
X7266Y2919D01*
X7252Y2933D01*
X7257Y2945D01*
X7350D01*
Y3045D01*
X7308D01*
Y3083D01*
X7325D01*
Y3217D01*
X7225D01*
Y3178D01*
X7035D01*
Y3222D01*
X7040Y3225D01*
X7060D01*
X7078Y3233D01*
X7087Y3242D01*
X7092Y3241D01*
X7101Y3237D01*
X7102Y3235D01*
X7103Y3230D01*
X7106Y3226D01*
X7108Y3222D01*
X7111Y3218D01*
X7114Y3214D01*
X7118Y3211D01*
X7122Y3208D01*
X7126Y3206D01*
X7130Y3203D01*
X7135Y3202D01*
X7140Y3200D01*
X7145D01*
X7150Y3199D01*
X7155Y3200D01*
X7160D01*
X7165Y3202D01*
X7170Y3203D01*
X7174Y3206D01*
X7178Y3208D01*
X7182Y3211D01*
X7186Y3214D01*
X7189Y3218D01*
X7192Y3222D01*
X7194Y3226D01*
X7197Y3230D01*
X7198Y3235D01*
X7200Y3240D01*
Y3245D01*
X7201Y3250D01*
Y3829D01*
X7270Y3898D01*
X7285D01*
X7287Y3892D01*
X7297Y3877D01*
X7308Y3870D01*
X7308Y3868D01*
Y3857D01*
X7308Y3855D01*
X7297Y3848D01*
X7287Y3833D01*
X7283Y3816D01*
Y3759D01*
X7275D01*
X7270Y3758D01*
X7265D01*
X7260Y3756D01*
X7255Y3755D01*
X7251Y3753D01*
X7247Y3751D01*
X7243Y3747D01*
X7239Y3744D01*
X7236Y3740D01*
X7233Y3737D01*
X7231Y3732D01*
X7228Y3728D01*
X7227Y3723D01*
X7225Y3718D01*
Y3713D01*
X7224Y3708D01*
X7225Y3703D01*
Y3698D01*
X7227Y3694D01*
X7228Y3689D01*
X7231Y3685D01*
X7233Y3680D01*
X7236Y3676D01*
X7239Y3672D01*
X7243Y3669D01*
X7247Y3666D01*
X7251Y3664D01*
X7255Y3661D01*
X7260Y3660D01*
X7265Y3658D01*
X7270D01*
X7275Y3657D01*
X7311D01*
X7311Y3657D01*
X7329Y3654D01*
X7421D01*
X7439Y3657D01*
X7453Y3667D01*
X7463Y3682D01*
X7467Y3699D01*
Y3707D01*
X7529D01*
Y3678D01*
X7505D01*
Y3561D01*
X7505Y3558D01*
X7500Y3548D01*
X7500Y3547D01*
Y3495D01*
X7650D01*
Y3547D01*
X7650Y3548D01*
X7645Y3558D01*
X7645Y3561D01*
Y3584D01*
X7775D01*
Y3550D01*
X7865D01*
X7869Y3545D01*
Y3380D01*
X7870Y3375D01*
Y3310D01*
X7952D01*
Y3288D01*
X8098D01*
Y3324D01*
X8154D01*
X8174Y3304D01*
Y3150D01*
Y3065D01*
X8170D01*
Y3020D01*
X8169Y3015D01*
Y2995D01*
X8170Y2990D01*
Y2925D01*
X8270D01*
Y2990D01*
X8271Y2995D01*
Y2999D01*
X8272Y3000D01*
X8276Y3020D01*
Y3150D01*
Y3325D01*
X8272Y3345D01*
X8261Y3361D01*
X8211Y3411D01*
X8195Y3422D01*
X8175Y3426D01*
X7971D01*
Y3524D01*
X8139Y3692D01*
X8152Y3686D01*
Y3679D01*
X8152Y3675D01*
X8152Y3673D01*
X8250D01*
Y3660D01*
X8263D01*
Y3619D01*
X8318D01*
X8330Y3621D01*
X8340Y3628D01*
X8346Y3638D01*
X8348Y3649D01*
Y3665D01*
X8361Y3670D01*
X8364Y3667D01*
X8384Y3659D01*
X8404D01*
X8424Y3667D01*
X8439Y3682D01*
X8446Y3701D01*
Y3722D01*
X8443Y3731D01*
X8451Y3744D01*
X8485D01*
X8504Y3748D01*
X8521Y3759D01*
X8556Y3794D01*
X8567Y3811D01*
X8571Y3830D01*
Y4196D01*
X8567Y4215D01*
X8556Y4232D01*
X8548Y4240D01*
X8542Y4253D01*
X8528Y4267D01*
X8510Y4275D01*
X8490D01*
X8472Y4267D01*
X8463Y4259D01*
X8450Y4260D01*
X8443Y4270D01*
X8446Y4278D01*
Y4299D01*
X8439Y4318D01*
X8424Y4333D01*
X8404Y4341D01*
X8384D01*
X8364Y4333D01*
X8361Y4330D01*
X8348Y4335D01*
Y4351D01*
X8346Y4362D01*
X8340Y4372D01*
X8330Y4379D01*
X8318Y4381D01*
X8263D01*
Y4340D01*
X8250D01*
Y4327D01*
X8152D01*
X8152Y4325D01*
X8152Y4323D01*
X8250D01*
Y4297D01*
X8152D01*
X8154Y4288D01*
X8159Y4280D01*
X8159Y4280D01*
X8157Y4271D01*
Y4249D01*
X8158Y4245D01*
X8157Y4240D01*
Y4219D01*
X8159Y4210D01*
X8164Y4203D01*
X8159Y4195D01*
X8157Y4185D01*
Y4165D01*
X8159Y4155D01*
X8162Y4150D01*
X8159Y4145D01*
X8157Y4135D01*
Y4115D01*
X8158Y4108D01*
X8158Y4105D01*
X8156Y4103D01*
X8146Y4102D01*
X8144Y4103D01*
X8142Y4104D01*
X8133Y4113D01*
Y4525D01*
X8168D01*
Y4625D01*
X7907D01*
Y4525D01*
X7942D01*
Y4050D01*
X7944Y4037D01*
X7952Y4027D01*
X8027Y3952D01*
X8037Y3944D01*
X8050Y3942D01*
X8062D01*
X8072Y3933D01*
X8090Y3925D01*
X8110D01*
X8128Y3933D01*
X8138Y3942D01*
X8152D01*
X8157Y3935D01*
Y3915D01*
X8159Y3905D01*
X8162Y3900D01*
X8159Y3895D01*
X8157Y3885D01*
Y3865D01*
X8159Y3855D01*
X8162Y3850D01*
X8159Y3845D01*
X8157Y3835D01*
Y3815D01*
X8159Y3805D01*
X8164Y3797D01*
X8159Y3790D01*
X8158Y3786D01*
X8146Y3781D01*
X8144Y3781D01*
X8135Y3787D01*
X8115Y3791D01*
X8095Y3787D01*
X8079Y3776D01*
X8012Y3709D01*
X8000Y3714D01*
Y3745D01*
X7850D01*
Y3740D01*
X7837Y3735D01*
X7831Y3741D01*
X7820Y3748D01*
Y3825D01*
X7730D01*
Y3830D01*
X7688D01*
Y3755D01*
X7662D01*
Y3830D01*
X7620D01*
Y3825D01*
X7530D01*
Y3808D01*
X7467D01*
Y3816D01*
X7463Y3833D01*
X7453Y3848D01*
X7442Y3855D01*
X7442Y3857D01*
Y3868D01*
X7442Y3870D01*
X7453Y3877D01*
X7463Y3892D01*
X7467Y3909D01*
Y3944D01*
X7530D01*
Y3925D01*
X7630D01*
Y3990D01*
X7631Y3995D01*
Y4071D01*
X7636Y4076D01*
X7644Y4079D01*
X7652Y4075D01*
X7653Y4075D01*
X7713D01*
X7720Y4065D01*
X7720Y4062D01*
Y3925D01*
X7820D01*
Y3962D01*
X7847D01*
X7855Y3953D01*
Y3836D01*
X7855Y3833D01*
X7850Y3823D01*
X7850Y3822D01*
Y3770D01*
X8000D01*
Y3822D01*
X8000Y3823D01*
X7995Y3833D01*
X7995Y3836D01*
Y3953D01*
X7958D01*
Y3975D01*
X7956Y3988D01*
X7948Y3998D01*
X7928Y4018D01*
X7918Y4026D01*
X7905Y4028D01*
X7820D01*
Y4065D01*
X7790D01*
X7783Y4075D01*
X7783Y4078D01*
Y4137D01*
X7718D01*
Y4150D01*
X7705D01*
Y4225D01*
X7653D01*
X7652Y4225D01*
X7642Y4220D01*
X7639Y4220D01*
X7522D01*
Y4080D01*
X7529D01*
Y4046D01*
X7462D01*
X7453Y4058D01*
X7439Y4068D01*
X7421Y4071D01*
X7329D01*
X7311Y4068D01*
X7297Y4058D01*
X7287Y4043D01*
X7283Y4026D01*
Y4000D01*
X7249D01*
X7230Y3996D01*
X7213Y3985D01*
X7114Y3886D01*
X7103Y3870D01*
X7099Y3850D01*
Y3515D01*
X7086Y3509D01*
X7078Y3517D01*
X7060Y3525D01*
X7040D01*
X7035Y3528D01*
Y3625D01*
Y3735D01*
Y3845D01*
Y3955D01*
Y4065D01*
Y4175D01*
Y4285D01*
Y4395D01*
Y4505D01*
Y4615D01*
Y4755D01*
D02*
G37*
G36*
X2630Y4965D02*
X2270D01*
Y4785D01*
X2275D01*
Y4765D01*
X2270D01*
Y4720D01*
X2257Y4715D01*
X2240Y4732D01*
Y4745D01*
X2242Y4747D01*
X2250Y4765D01*
Y4785D01*
X2242Y4803D01*
X2228Y4817D01*
X2210Y4825D01*
X2190D01*
X2172Y4817D01*
X2158Y4803D01*
X2150Y4785D01*
Y4765D01*
X2158Y4747D01*
X2172Y4733D01*
X2174Y4732D01*
Y4718D01*
X2176Y4706D01*
X2183Y4695D01*
X2227Y4652D01*
X2237Y4644D01*
X2250Y4642D01*
X2270D01*
Y4585D01*
X2275D01*
Y4565D01*
X2270D01*
Y4519D01*
X2257Y4513D01*
X2253Y4517D01*
X2235Y4525D01*
X2215D01*
X2197Y4517D01*
X2183Y4503D01*
X2175Y4485D01*
Y4465D01*
X2183Y4447D01*
X2197Y4433D01*
X2215Y4425D01*
X2235D01*
X2253Y4433D01*
X2257Y4437D01*
X2270Y4431D01*
Y4385D01*
X2275D01*
Y4365D01*
X2270D01*
Y4185D01*
X2275D01*
Y4165D01*
X2270D01*
Y3985D01*
X2630D01*
Y4165D01*
X2625D01*
Y4185D01*
X2630D01*
Y4365D01*
X2625D01*
Y4385D01*
X2630D01*
Y4565D01*
X2625D01*
Y4585D01*
X2630D01*
Y4765D01*
X2625D01*
Y4785D01*
X2630D01*
Y4965D01*
D02*
G37*
G36*
X264Y4860D02*
X236D01*
X208Y4853D01*
X182Y4838D01*
X162Y4818D01*
X147Y4792D01*
X140Y4764D01*
Y4736D01*
X147Y4708D01*
X162Y4682D01*
X182Y4662D01*
X208Y4647D01*
X236Y4640D01*
X264D01*
X292Y4647D01*
X318Y4662D01*
X338Y4682D01*
X353Y4708D01*
X360Y4736D01*
Y4764D01*
X353Y4792D01*
X338Y4818D01*
X318Y4838D01*
X292Y4853D01*
X264Y4860D01*
D02*
G37*
G36*
X517Y4780D02*
X483D01*
X450Y4771D01*
X420Y4754D01*
X396Y4730D01*
X379Y4700D01*
X370Y4667D01*
Y4633D01*
X379Y4600D01*
X396Y4570D01*
X420Y4546D01*
X450Y4529D01*
X483Y4520D01*
X517D01*
X550Y4529D01*
X580Y4546D01*
X604Y4570D01*
X621Y4600D01*
X630Y4633D01*
Y4667D01*
X621Y4700D01*
X604Y4730D01*
X580Y4754D01*
X550Y4771D01*
X517Y4780D01*
D02*
G37*
G36*
X1213Y4707D02*
X1187D01*
X1163Y4701D01*
X1142Y4688D01*
X1124Y4670D01*
X1111Y4649D01*
X1105Y4625D01*
Y4599D01*
X1111Y4575D01*
X1124Y4554D01*
X1142Y4536D01*
X1163Y4523D01*
X1187Y4517D01*
X1213D01*
X1237Y4523D01*
X1258Y4536D01*
X1276Y4554D01*
X1289Y4575D01*
X1295Y4599D01*
Y4625D01*
X1289Y4649D01*
X1276Y4670D01*
X1258Y4688D01*
X1237Y4701D01*
X1213Y4707D01*
D02*
G37*
G36*
X959D02*
X933D01*
X909Y4701D01*
X888Y4688D01*
X870Y4670D01*
X857Y4649D01*
X851Y4625D01*
Y4599D01*
X857Y4575D01*
X870Y4554D01*
X888Y4536D01*
X909Y4523D01*
X933Y4517D01*
X959D01*
X983Y4523D01*
X1004Y4536D01*
X1022Y4554D01*
X1035Y4575D01*
X1041Y4599D01*
Y4625D01*
X1035Y4649D01*
X1022Y4670D01*
X1004Y4688D01*
X983Y4701D01*
X959Y4707D01*
D02*
G37*
G36*
X8400Y4619D02*
X8280D01*
X8266Y4616D01*
X8255Y4608D01*
X8247Y4597D01*
X8244Y4583D01*
Y4433D01*
X8247Y4419D01*
X8255Y4408D01*
X8266Y4400D01*
X8280Y4397D01*
X8400D01*
X8414Y4400D01*
X8425Y4408D01*
X8433Y4419D01*
X8436Y4433D01*
Y4583D01*
X8433Y4597D01*
X8425Y4608D01*
X8414Y4616D01*
X8400Y4619D01*
D02*
G37*
G36*
X8237Y4381D02*
X8182D01*
X8170Y4379D01*
X8160Y4372D01*
X8154Y4362D01*
X8152Y4353D01*
X8237D01*
Y4381D01*
D02*
G37*
G36*
X1213Y4453D02*
X1187D01*
X1163Y4447D01*
X1142Y4434D01*
X1124Y4416D01*
X1111Y4395D01*
X1105Y4371D01*
Y4345D01*
X1111Y4321D01*
X1124Y4300D01*
X1142Y4282D01*
X1163Y4269D01*
X1187Y4263D01*
X1213D01*
X1237Y4269D01*
X1258Y4282D01*
X1276Y4300D01*
X1289Y4321D01*
X1295Y4345D01*
Y4371D01*
X1289Y4395D01*
X1276Y4416D01*
X1258Y4434D01*
X1237Y4447D01*
X1213Y4453D01*
D02*
G37*
G36*
X959D02*
X933D01*
X909Y4447D01*
X888Y4434D01*
X870Y4416D01*
X857Y4395D01*
X851Y4371D01*
Y4345D01*
X857Y4321D01*
X870Y4300D01*
X888Y4282D01*
X909Y4269D01*
X933Y4263D01*
X959D01*
X983Y4269D01*
X1004Y4282D01*
X1022Y4300D01*
X1035Y4321D01*
X1041Y4345D01*
Y4371D01*
X1035Y4395D01*
X1022Y4416D01*
X1004Y4434D01*
X983Y4447D01*
X959Y4453D01*
D02*
G37*
G36*
X265Y4365D02*
X263D01*
Y4263D01*
X365D01*
Y4265D01*
X358Y4295D01*
X342Y4321D01*
X321Y4342D01*
X295Y4358D01*
X265Y4365D01*
D02*
G37*
G36*
X237D02*
X235D01*
X205Y4358D01*
X179Y4342D01*
X158Y4321D01*
X142Y4295D01*
X135Y4265D01*
Y4263D01*
X237D01*
Y4365D01*
D02*
G37*
G36*
X7421Y4342D02*
X7388D01*
Y4245D01*
X7472D01*
Y4291D01*
X7468Y4310D01*
X7457Y4327D01*
X7441Y4338D01*
X7421Y4342D01*
D02*
G37*
G36*
X7362D02*
X7329D01*
X7309Y4338D01*
X7293Y4327D01*
X7282Y4310D01*
X7278Y4291D01*
Y4245D01*
X7362D01*
Y4342D01*
D02*
G37*
G36*
X500Y4484D02*
X466Y4479D01*
X434Y4466D01*
X407Y4445D01*
X386Y4418D01*
X373Y4386D01*
X369Y4353D01*
Y4347D01*
X373Y4314D01*
X386Y4282D01*
X407Y4255D01*
X434Y4234D01*
X466Y4221D01*
X500Y4216D01*
X534Y4221D01*
X566Y4234D01*
X593Y4255D01*
X614Y4282D01*
X627Y4314D01*
X631Y4347D01*
Y4353D01*
X627Y4386D01*
X614Y4418D01*
X593Y4445D01*
X566Y4466D01*
X534Y4479D01*
X500Y4484D01*
D02*
G37*
G36*
X7730Y4225D02*
Y4163D01*
X7783D01*
Y4225D01*
X7730D01*
D02*
G37*
G36*
X365Y4237D02*
X263D01*
Y4135D01*
X265D01*
X295Y4142D01*
X321Y4158D01*
X342Y4179D01*
X358Y4205D01*
X365Y4235D01*
Y4237D01*
D02*
G37*
G36*
X237D02*
X135D01*
Y4235D01*
X142Y4205D01*
X158Y4179D01*
X179Y4158D01*
X205Y4142D01*
X235Y4135D01*
X237D01*
Y4237D01*
D02*
G37*
G36*
X7472Y4220D02*
X7388D01*
Y4123D01*
X7421D01*
X7441Y4127D01*
X7457Y4138D01*
X7468Y4155D01*
X7472Y4174D01*
Y4220D01*
D02*
G37*
G36*
X7362D02*
X7278D01*
Y4174D01*
X7282Y4155D01*
X7293Y4138D01*
X7309Y4127D01*
X7329Y4123D01*
X7362D01*
Y4220D01*
D02*
G37*
G36*
X4300Y4083D02*
X4238D01*
Y4030D01*
X4300D01*
Y4083D01*
D02*
G37*
G36*
X4212D02*
X4150D01*
Y4030D01*
X4212D01*
Y4083D01*
D02*
G37*
G36*
X1213Y4199D02*
X1187D01*
X1163Y4193D01*
X1142Y4180D01*
X1124Y4162D01*
X1111Y4141D01*
X1105Y4117D01*
Y4091D01*
X1111Y4067D01*
X1124Y4046D01*
X1142Y4028D01*
X1163Y4015D01*
X1187Y4009D01*
X1213D01*
X1237Y4015D01*
X1258Y4028D01*
X1276Y4046D01*
X1289Y4067D01*
X1295Y4091D01*
Y4117D01*
X1289Y4141D01*
X1276Y4162D01*
X1258Y4180D01*
X1237Y4193D01*
X1213Y4199D01*
D02*
G37*
G36*
X959D02*
X933D01*
X909Y4193D01*
X888Y4180D01*
X870Y4162D01*
X857Y4141D01*
X851Y4117D01*
Y4091D01*
X857Y4067D01*
X870Y4046D01*
X888Y4028D01*
X909Y4015D01*
X933Y4009D01*
X959D01*
X983Y4015D01*
X1004Y4028D01*
X1022Y4046D01*
X1035Y4067D01*
X1041Y4091D01*
Y4117D01*
X1035Y4141D01*
X1022Y4162D01*
X1004Y4180D01*
X983Y4193D01*
X959Y4199D01*
D02*
G37*
G36*
X959Y3950D02*
X959D01*
Y3863D01*
X1046D01*
Y3863D01*
X1040Y3889D01*
X1026Y3912D01*
X1008Y3930D01*
X985Y3944D01*
X959Y3950D01*
D02*
G37*
G36*
X933D02*
X933D01*
X907Y3944D01*
X884Y3930D01*
X866Y3912D01*
X852Y3889D01*
X846Y3863D01*
Y3863D01*
X933D01*
Y3950D01*
D02*
G37*
G36*
X4445Y3900D02*
X4392D01*
Y3838D01*
X4445D01*
Y3900D01*
D02*
G37*
G36*
X1046Y3837D02*
X959D01*
Y3750D01*
X959D01*
X985Y3756D01*
X1008Y3770D01*
X1026Y3788D01*
X1040Y3811D01*
X1046Y3837D01*
Y3837D01*
D02*
G37*
G36*
X933D02*
X846D01*
Y3837D01*
X852Y3811D01*
X866Y3788D01*
X884Y3770D01*
X907Y3756D01*
X933Y3750D01*
X933D01*
Y3837D01*
D02*
G37*
G36*
X4130Y5165D02*
X3770D01*
Y4985D01*
X3775D01*
Y4965D01*
X3770D01*
Y4785D01*
X3775D01*
Y4765D01*
X3770D01*
Y4585D01*
X3775D01*
Y4565D01*
X3770D01*
Y4385D01*
X3775D01*
Y4365D01*
X3770D01*
Y4185D01*
X3775D01*
Y4175D01*
X4125D01*
Y4185D01*
X4130D01*
Y4242D01*
X4386D01*
X4968Y3661D01*
X4960Y3650D01*
X4960Y3650D01*
X4940D01*
X4922Y3642D01*
X4908Y3628D01*
X4900Y3610D01*
Y3590D01*
X4908Y3572D01*
X4917Y3562D01*
Y3386D01*
X4919Y3374D01*
X4927Y3363D01*
X5163Y3127D01*
X5174Y3119D01*
X5186Y3117D01*
X5215D01*
Y3068D01*
X5154D01*
X4873Y3348D01*
X4863Y3356D01*
X4850Y3358D01*
X4667D01*
Y3375D01*
X4652D01*
X4645Y3385D01*
Y3525D01*
X4555D01*
Y3530D01*
X4513D01*
Y3455D01*
Y3380D01*
X4522D01*
X4533Y3375D01*
Y3275D01*
X4667D01*
Y3292D01*
X4836D01*
X5117Y3012D01*
X5127Y3004D01*
X5140Y3002D01*
X5215D01*
Y2965D01*
X5435D01*
Y3075D01*
Y3185D01*
Y3295D01*
Y3405D01*
Y3443D01*
X5445Y3450D01*
X5465D01*
X5483Y3458D01*
X5489Y3463D01*
X5497Y3472D01*
X5506Y3463D01*
X5512Y3458D01*
X5530Y3450D01*
X5550D01*
X5568Y3458D01*
X5576Y3465D01*
X5592Y3465D01*
X5596Y3462D01*
X5614Y3454D01*
X5634D01*
X5653Y3462D01*
X5659Y3468D01*
X5661Y3468D01*
X5675Y3454D01*
X5694Y3446D01*
X5714D01*
X5732Y3454D01*
X5746Y3468D01*
X5754Y3486D01*
Y3506D01*
X5746Y3525D01*
X5733Y3538D01*
Y4075D01*
X5731Y4088D01*
X5723Y4098D01*
X5553Y4268D01*
X5543Y4276D01*
X5530Y4278D01*
X5435D01*
Y4395D01*
Y4505D01*
Y4615D01*
Y4755D01*
X5215D01*
Y4608D01*
X5185D01*
X5175Y4619D01*
X5156Y4626D01*
X5136D01*
X5118Y4619D01*
X5104Y4605D01*
X5096Y4586D01*
Y4567D01*
X5104Y4548D01*
X5118Y4534D01*
X5136Y4526D01*
X5156D01*
X5175Y4534D01*
X5182Y4542D01*
X5215D01*
Y4498D01*
X4724D01*
X4146Y5076D01*
X4136Y5083D01*
X4130Y5084D01*
Y5165D01*
D02*
G37*
G36*
X264Y3860D02*
X236D01*
X208Y3853D01*
X182Y3838D01*
X162Y3818D01*
X147Y3792D01*
X140Y3764D01*
Y3736D01*
X147Y3708D01*
X162Y3682D01*
X182Y3662D01*
X208Y3647D01*
X236Y3640D01*
X264D01*
X292Y3647D01*
X318Y3662D01*
X338Y3682D01*
X353Y3708D01*
X360Y3736D01*
Y3764D01*
X353Y3792D01*
X338Y3818D01*
X318Y3838D01*
X292Y3853D01*
X264Y3860D01*
D02*
G37*
G36*
X8237Y3647D02*
X8152D01*
X8154Y3638D01*
X8160Y3628D01*
X8170Y3621D01*
X8182Y3619D01*
X8237D01*
Y3647D01*
D02*
G37*
G36*
X517Y3780D02*
X483D01*
X450Y3771D01*
X420Y3754D01*
X396Y3730D01*
X379Y3700D01*
X370Y3667D01*
Y3633D01*
X379Y3600D01*
X396Y3570D01*
X420Y3546D01*
X450Y3529D01*
X483Y3520D01*
X517D01*
X550Y3529D01*
X580Y3546D01*
X604Y3570D01*
X621Y3600D01*
X630Y3633D01*
Y3667D01*
X621Y3700D01*
X604Y3730D01*
X580Y3754D01*
X550Y3771D01*
X517Y3780D01*
D02*
G37*
G36*
X2103Y3611D02*
X2005D01*
Y3513D01*
X2103D01*
Y3611D01*
D02*
G37*
G36*
X1979D02*
X1881D01*
Y3513D01*
X1979D01*
Y3611D01*
D02*
G37*
G36*
X7421Y3602D02*
X7388D01*
Y3505D01*
X7472D01*
Y3551D01*
X7468Y3570D01*
X7457Y3587D01*
X7441Y3598D01*
X7421Y3602D01*
D02*
G37*
G36*
X7362D02*
X7329D01*
X7309Y3598D01*
X7293Y3587D01*
X7282Y3570D01*
X7278Y3551D01*
Y3505D01*
X7362D01*
Y3602D01*
D02*
G37*
G36*
X4271Y3552D02*
X4238D01*
Y3455D01*
X4322D01*
Y3501D01*
X4318Y3520D01*
X4307Y3537D01*
X4291Y3548D01*
X4271Y3552D01*
D02*
G37*
G36*
X4212D02*
X4179D01*
X4159Y3548D01*
X4143Y3537D01*
X4132Y3520D01*
X4128Y3501D01*
Y3455D01*
X4212D01*
Y3552D01*
D02*
G37*
G36*
X7650Y3470D02*
X7588D01*
Y3417D01*
X7650D01*
Y3470D01*
D02*
G37*
G36*
X7562D02*
X7500D01*
Y3417D01*
X7562D01*
Y3470D01*
D02*
G37*
G36*
X2103Y3487D02*
X2005D01*
Y3389D01*
X2103D01*
Y3487D01*
D02*
G37*
G36*
X1979D02*
X1881D01*
Y3389D01*
X1979D01*
Y3487D01*
D02*
G37*
G36*
X3531Y3615D02*
X3501D01*
X3471Y3608D01*
X3445Y3592D01*
X3424Y3571D01*
X3408Y3545D01*
X3401Y3515D01*
Y3485D01*
X3408Y3455D01*
X3424Y3429D01*
X3445Y3408D01*
X3471Y3392D01*
X3501Y3385D01*
X3531D01*
X3561Y3392D01*
X3587Y3408D01*
X3608Y3429D01*
X3624Y3455D01*
X3631Y3485D01*
Y3515D01*
X3624Y3545D01*
X3608Y3571D01*
X3587Y3592D01*
X3561Y3608D01*
X3531Y3615D01*
D02*
G37*
G36*
X3277D02*
X3247D01*
X3217Y3608D01*
X3191Y3592D01*
X3170Y3571D01*
X3154Y3545D01*
X3147Y3515D01*
Y3485D01*
X3154Y3455D01*
X3170Y3429D01*
X3191Y3408D01*
X3217Y3392D01*
X3247Y3385D01*
X3277D01*
X3307Y3392D01*
X3333Y3408D01*
X3354Y3429D01*
X3370Y3455D01*
X3378Y3485D01*
Y3515D01*
X3370Y3545D01*
X3354Y3571D01*
X3333Y3592D01*
X3307Y3608D01*
X3277Y3615D01*
D02*
G37*
G36*
X3023D02*
X2993D01*
X2963Y3608D01*
X2937Y3592D01*
X2916Y3571D01*
X2900Y3545D01*
X2892Y3515D01*
Y3485D01*
X2900Y3455D01*
X2916Y3429D01*
X2937Y3408D01*
X2963Y3392D01*
X2993Y3385D01*
X3023D01*
X3053Y3392D01*
X3079Y3408D01*
X3100Y3429D01*
X3116Y3455D01*
X3124Y3485D01*
Y3515D01*
X3116Y3545D01*
X3100Y3571D01*
X3079Y3592D01*
X3053Y3608D01*
X3023Y3615D01*
D02*
G37*
G36*
X7472Y3480D02*
X7388D01*
Y3383D01*
X7421D01*
X7441Y3387D01*
X7457Y3398D01*
X7468Y3415D01*
X7472Y3434D01*
Y3480D01*
D02*
G37*
G36*
X7362D02*
X7278D01*
Y3434D01*
X7282Y3415D01*
X7293Y3398D01*
X7309Y3387D01*
X7329Y3383D01*
X7362D01*
Y3480D01*
D02*
G37*
G36*
X8806Y3603D02*
X8710D01*
X8698Y3600D01*
X8687Y3593D01*
X8680Y3582D01*
X8677Y3570D01*
Y3414D01*
X8680Y3402D01*
X8687Y3391D01*
X8698Y3384D01*
X8710Y3381D01*
X8806D01*
X8818Y3384D01*
X8829Y3391D01*
X8836Y3402D01*
X8839Y3414D01*
Y3570D01*
X8836Y3582D01*
X8829Y3593D01*
X8818Y3600D01*
X8806Y3603D01*
D02*
G37*
G36*
X8400Y3603D02*
X8280D01*
X8266Y3600D01*
X8255Y3592D01*
X8247Y3581D01*
X8244Y3567D01*
Y3417D01*
X8247Y3403D01*
X8255Y3392D01*
X8266Y3384D01*
X8280Y3381D01*
X8400D01*
X8414Y3384D01*
X8425Y3392D01*
X8433Y3403D01*
X8436Y3417D01*
Y3567D01*
X8433Y3581D01*
X8425Y3592D01*
X8414Y3600D01*
X8400Y3603D01*
D02*
G37*
G36*
X4487Y3530D02*
X4445D01*
Y3525D01*
X4355D01*
Y3460D01*
X4354Y3455D01*
Y3301D01*
X4315D01*
X4313Y3308D01*
X4303Y3323D01*
X4298Y3327D01*
X4298Y3342D01*
X4307Y3348D01*
X4318Y3365D01*
X4322Y3384D01*
Y3430D01*
X4225D01*
X4128D01*
Y3384D01*
X4132Y3365D01*
X4143Y3348D01*
X4152Y3342D01*
X4152Y3327D01*
X4147Y3323D01*
X4137Y3308D01*
X4133Y3291D01*
Y3174D01*
X4137Y3157D01*
X4147Y3142D01*
X4161Y3132D01*
X4179Y3129D01*
X4271D01*
X4289Y3132D01*
X4303Y3142D01*
X4313Y3157D01*
X4317Y3174D01*
Y3199D01*
X4330D01*
Y3108D01*
X4325Y3098D01*
X4325Y3098D01*
X4325Y3098D01*
Y3059D01*
X4312Y3055D01*
X4307Y3062D01*
X4291Y3073D01*
X4271Y3077D01*
X4238D01*
Y2967D01*
Y2858D01*
X4271D01*
X4291Y2862D01*
X4307Y2873D01*
X4318Y2890D01*
X4322Y2909D01*
Y2955D01*
X4325Y2967D01*
X4335Y2967D01*
X4387D01*
Y3033D01*
X4400D01*
Y3045D01*
X4475D01*
Y3063D01*
X4487Y3068D01*
X4507Y3047D01*
X4508Y3047D01*
X4511Y3043D01*
X4514Y3039D01*
X4518Y3036D01*
X4522Y3033D01*
X4526Y3031D01*
X4530Y3028D01*
X4535Y3027D01*
X4540Y3025D01*
X4545D01*
X4550Y3024D01*
X4555Y3025D01*
X4560D01*
X4565Y3027D01*
X4570Y3028D01*
X4574Y3031D01*
X4578Y3033D01*
X4582Y3036D01*
X4586Y3039D01*
X4589Y3043D01*
X4592Y3047D01*
X4594Y3051D01*
X4597Y3055D01*
X4598Y3060D01*
X4600Y3065D01*
Y3070D01*
X4601Y3075D01*
Y3077D01*
X4600Y3082D01*
Y3085D01*
X4599Y3088D01*
X4597Y3096D01*
X4590Y3107D01*
X4597Y3120D01*
X4673D01*
Y3162D01*
X4600D01*
Y3175D01*
X4587D01*
Y3230D01*
X4527D01*
Y3188D01*
X4515Y3184D01*
X4505Y3194D01*
X4489Y3205D01*
X4470Y3208D01*
Y3228D01*
X4456D01*
Y3380D01*
X4487D01*
Y3455D01*
Y3530D01*
D02*
G37*
G36*
X8098Y3262D02*
X8038D01*
Y3220D01*
X8098D01*
Y3262D01*
D02*
G37*
G36*
X8012D02*
X7952D01*
Y3220D01*
X8012D01*
Y3262D01*
D02*
G37*
G36*
X4673Y3230D02*
X4613D01*
Y3188D01*
X4673D01*
Y3230D01*
D02*
G37*
G36*
X7480Y3223D02*
X7438D01*
Y3163D01*
X7480D01*
Y3223D01*
D02*
G37*
G36*
X7412D02*
X7370D01*
Y3163D01*
X7412D01*
Y3223D01*
D02*
G37*
G36*
X7480Y3137D02*
X7438D01*
Y3077D01*
X7480D01*
Y3137D01*
D02*
G37*
G36*
X7412D02*
X7370D01*
Y3077D01*
X7412D01*
Y3137D01*
D02*
G37*
G36*
X4212Y3077D02*
X4179D01*
X4159Y3073D01*
X4143Y3062D01*
X4132Y3045D01*
X4128Y3026D01*
Y2980D01*
X4212D01*
Y3077D01*
D02*
G37*
G36*
X4475Y3020D02*
X4413D01*
Y2967D01*
X4475D01*
Y3020D01*
D02*
G37*
G36*
X4212Y2955D02*
X4128D01*
Y2909D01*
X4132Y2890D01*
X4143Y2873D01*
X4159Y2862D01*
X4179Y2858D01*
X4212D01*
Y2955D01*
D02*
G37*
G36*
X7590Y2950D02*
X7450D01*
Y2850D01*
X7590D01*
Y2867D01*
X7607D01*
Y2850D01*
X7743D01*
Y2950D01*
X7607D01*
Y2933D01*
X7590D01*
Y2950D01*
D02*
G37*
G36*
X7480Y2723D02*
X7438D01*
Y2663D01*
X7480D01*
Y2723D01*
D02*
G37*
G36*
X7412D02*
X7370D01*
Y2663D01*
X7412D01*
Y2723D01*
D02*
G37*
G36*
X7480Y2637D02*
X7438D01*
Y2577D01*
X7480D01*
Y2637D01*
D02*
G37*
G36*
X7412D02*
X7370D01*
Y2577D01*
X7412D01*
Y2637D01*
D02*
G37*
G36*
X1575Y2567D02*
X1475D01*
Y2528D01*
X828D01*
X821Y2532D01*
X791Y2540D01*
X759D01*
X729Y2532D01*
X701Y2516D01*
X679Y2494D01*
X663Y2466D01*
X655Y2436D01*
Y2404D01*
X663Y2374D01*
X679Y2346D01*
X701Y2324D01*
X729Y2308D01*
X759Y2300D01*
X791D01*
X821Y2308D01*
X849Y2324D01*
X871Y2346D01*
X887Y2374D01*
X895Y2404D01*
Y2436D01*
X891Y2452D01*
X898Y2462D01*
X1475D01*
Y2433D01*
X1575D01*
Y2567D01*
D02*
G37*
G36*
X6808Y2575D02*
X6755D01*
Y2513D01*
X6808D01*
Y2575D01*
D02*
G37*
G36*
X7835Y2380D02*
X7834D01*
Y2288D01*
X7926D01*
Y2289D01*
X7919Y2315D01*
X7905Y2339D01*
X7885Y2359D01*
X7861Y2373D01*
X7835Y2380D01*
D02*
G37*
G36*
X7808D02*
X7807D01*
X7781Y2373D01*
X7757Y2359D01*
X7737Y2339D01*
X7723Y2315D01*
X7716Y2289D01*
Y2288D01*
X7808D01*
Y2380D01*
D02*
G37*
G36*
X7926Y2262D02*
X7834D01*
Y2170D01*
X7835D01*
X7861Y2177D01*
X7885Y2191D01*
X7905Y2211D01*
X7919Y2235D01*
X7926Y2261D01*
Y2262D01*
D02*
G37*
G36*
X7808D02*
X7716D01*
Y2261D01*
X7723Y2235D01*
X7737Y2211D01*
X7757Y2191D01*
X7781Y2177D01*
X7807Y2170D01*
X7808D01*
Y2262D01*
D02*
G37*
G36*
X265Y1865D02*
X263D01*
Y1763D01*
X365D01*
Y1765D01*
X358Y1795D01*
X342Y1821D01*
X321Y1842D01*
X295Y1858D01*
X265Y1865D01*
D02*
G37*
G36*
X237D02*
X235D01*
X205Y1858D01*
X179Y1842D01*
X158Y1821D01*
X142Y1795D01*
X135Y1765D01*
Y1763D01*
X237D01*
Y1865D01*
D02*
G37*
G36*
X500Y1984D02*
X466Y1979D01*
X434Y1966D01*
X407Y1945D01*
X386Y1918D01*
X373Y1886D01*
X369Y1852D01*
Y1848D01*
X373Y1814D01*
X386Y1782D01*
X407Y1755D01*
X434Y1734D01*
X466Y1721D01*
X500Y1716D01*
X534Y1721D01*
X566Y1734D01*
X593Y1755D01*
X614Y1782D01*
X627Y1814D01*
X631Y1848D01*
Y1852D01*
X627Y1886D01*
X614Y1918D01*
X593Y1945D01*
X566Y1966D01*
X534Y1979D01*
X500Y1984D01*
D02*
G37*
G36*
X365Y1737D02*
X263D01*
Y1635D01*
X265D01*
X295Y1642D01*
X321Y1658D01*
X342Y1679D01*
X358Y1705D01*
X365Y1735D01*
Y1737D01*
D02*
G37*
G36*
X237D02*
X135D01*
Y1735D01*
X142Y1705D01*
X158Y1679D01*
X179Y1658D01*
X205Y1642D01*
X235Y1635D01*
X237D01*
Y1737D01*
D02*
G37*
G36*
X264Y1360D02*
X236D01*
X208Y1353D01*
X182Y1338D01*
X162Y1318D01*
X147Y1292D01*
X140Y1264D01*
Y1236D01*
X147Y1208D01*
X162Y1182D01*
X182Y1162D01*
X208Y1147D01*
X236Y1140D01*
X264D01*
X292Y1147D01*
X318Y1162D01*
X338Y1182D01*
X353Y1208D01*
X360Y1236D01*
Y1264D01*
X353Y1292D01*
X338Y1318D01*
X318Y1338D01*
X292Y1353D01*
X264Y1360D01*
D02*
G37*
G36*
X972Y1250D02*
X963D01*
Y1038D01*
X1175D01*
Y1047D01*
X1167Y1091D01*
X1150Y1132D01*
X1125Y1169D01*
X1094Y1200D01*
X1057Y1225D01*
X1016Y1242D01*
X972Y1250D01*
D02*
G37*
G36*
X937D02*
X928D01*
X884Y1242D01*
X843Y1225D01*
X806Y1200D01*
X775Y1169D01*
X750Y1132D01*
X733Y1091D01*
X725Y1047D01*
Y1038D01*
X937D01*
Y1250D01*
D02*
G37*
G36*
X517Y1280D02*
X483D01*
X450Y1271D01*
X420Y1254D01*
X396Y1230D01*
X379Y1200D01*
X370Y1167D01*
Y1133D01*
X379Y1100D01*
X396Y1070D01*
X420Y1046D01*
X450Y1029D01*
X483Y1020D01*
X517D01*
X550Y1029D01*
X580Y1046D01*
X604Y1070D01*
X621Y1100D01*
X630Y1133D01*
Y1167D01*
X621Y1200D01*
X604Y1230D01*
X580Y1254D01*
X550Y1271D01*
X517Y1280D01*
D02*
G37*
G36*
X1175Y1012D02*
X963D01*
Y800D01*
X972D01*
X1016Y808D01*
X1057Y825D01*
X1094Y850D01*
X1125Y881D01*
X1150Y918D01*
X1167Y959D01*
X1175Y1003D01*
Y1012D01*
D02*
G37*
G36*
X937D02*
X725D01*
Y1003D01*
X733Y959D01*
X750Y918D01*
X775Y881D01*
X806Y850D01*
X843Y825D01*
X884Y808D01*
X928Y800D01*
X937D01*
Y1012D01*
D02*
G37*
G36*
X8622Y625D02*
X8613D01*
Y413D01*
X8825D01*
Y422D01*
X8817Y466D01*
X8800Y507D01*
X8775Y544D01*
X8744Y575D01*
X8707Y600D01*
X8666Y617D01*
X8622Y625D01*
D02*
G37*
G36*
X8587D02*
X8578D01*
X8534Y617D01*
X8493Y600D01*
X8456Y575D01*
X8425Y544D01*
X8400Y507D01*
X8383Y466D01*
X8375Y422D01*
Y413D01*
X8587D01*
Y625D01*
D02*
G37*
G36*
X422D02*
X413D01*
Y413D01*
X625D01*
Y422D01*
X617Y466D01*
X600Y507D01*
X575Y544D01*
X544Y575D01*
X507Y600D01*
X466Y617D01*
X422Y625D01*
D02*
G37*
G36*
X387D02*
X378D01*
X334Y617D01*
X293Y600D01*
X256Y575D01*
X225Y544D01*
X200Y507D01*
X183Y466D01*
X175Y422D01*
Y413D01*
X387D01*
Y625D01*
D02*
G37*
G36*
X8825Y387D02*
X8613D01*
Y175D01*
X8622D01*
X8666Y183D01*
X8707Y200D01*
X8744Y225D01*
X8775Y256D01*
X8800Y293D01*
X8817Y334D01*
X8825Y378D01*
Y387D01*
D02*
G37*
G36*
X8587D02*
X8375D01*
Y378D01*
X8383Y334D01*
X8400Y293D01*
X8425Y256D01*
X8456Y225D01*
X8493Y200D01*
X8534Y183D01*
X8578Y175D01*
X8587D01*
Y387D01*
D02*
G37*
G36*
X625D02*
X413D01*
Y175D01*
X422D01*
X466Y183D01*
X507Y200D01*
X544Y225D01*
X575Y256D01*
X600Y293D01*
X617Y334D01*
X625Y378D01*
Y387D01*
D02*
G37*
G36*
X387D02*
X175D01*
Y378D01*
X183Y334D01*
X200Y293D01*
X225Y256D01*
X256Y225D01*
X293Y200D01*
X334Y183D01*
X378Y175D01*
X387D01*
Y387D01*
D02*
G37*
%LPD*%
G36*
X8717Y4986D02*
Y4714D01*
X8686Y4683D01*
X8464D01*
X8458Y4689D01*
Y4730D01*
X8492D01*
X8502Y4725D01*
Y4725D01*
X8555D01*
Y4800D01*
X8568D01*
Y4813D01*
X8633D01*
Y4875D01*
Y4937D01*
X8568D01*
Y4963D01*
X8633D01*
Y5025D01*
X8625D01*
Y5042D01*
X8661D01*
X8717Y4986D01*
D02*
G37*
%LPC*%
G36*
X8633Y4787D02*
X8580D01*
Y4725D01*
X8633D01*
Y4787D01*
D02*
G37*
%LPD*%
G36*
X2342Y3415D02*
Y3375D01*
X2344Y3362D01*
X2352Y3352D01*
X3152Y2552D01*
X3160Y2546D01*
X3159Y2536D01*
X3158Y2533D01*
X2250D01*
X2237Y2531D01*
X2227Y2523D01*
X2153Y2450D01*
X2140Y2455D01*
Y2455D01*
X2001D01*
Y2540D01*
X2057D01*
Y2595D01*
Y2650D01*
X2001D01*
Y2929D01*
X2282Y3210D01*
X2293Y3226D01*
X2297Y3246D01*
Y3396D01*
X2317Y3408D01*
X2329Y3420D01*
X2342Y3415D01*
D02*
G37*
G36*
X6564Y2570D02*
X6547D01*
Y2567D01*
X6450D01*
Y2505D01*
X6449Y2500D01*
X6450Y2495D01*
Y2433D01*
X6547D01*
X6547Y2420D01*
X6547Y2420D01*
X6547Y2420D01*
Y2280D01*
X6557D01*
Y2225D01*
Y2079D01*
X6479Y2001D01*
X5021D01*
X4926Y2096D01*
X4927Y2108D01*
X4940Y2116D01*
X4959Y2135D01*
X4973Y2159D01*
X4981Y2186D01*
Y2214D01*
X4973Y2241D01*
X4959Y2265D01*
X4940Y2284D01*
X4916Y2298D01*
X4889Y2306D01*
X4861D01*
X4834Y2298D01*
X4810Y2284D01*
X4791Y2265D01*
X4783Y2251D01*
X2046D01*
X2001Y2296D01*
Y2355D01*
X2140D01*
Y2372D01*
X2155D01*
X2168Y2374D01*
X2178Y2382D01*
X2264Y2467D01*
X5075Y2467D01*
Y2333D01*
X5094D01*
Y2300D01*
X5088Y2298D01*
X5064Y2284D01*
X5045Y2265D01*
X5031Y2241D01*
X5024Y2214D01*
Y2186D01*
X5031Y2159D01*
X5045Y2135D01*
X5064Y2116D01*
X5088Y2102D01*
X5115Y2094D01*
X5143D01*
X5170Y2102D01*
X5194Y2116D01*
X5204Y2126D01*
X5209Y2126D01*
X5218Y2121D01*
X5219Y2112D01*
X5227Y2102D01*
X5277Y2052D01*
X5287Y2044D01*
X5300Y2042D01*
X5475D01*
X5488Y2044D01*
X5498Y2052D01*
X5523Y2077D01*
X5531Y2087D01*
X5533Y2100D01*
Y2133D01*
X5546Y2136D01*
X5548Y2132D01*
X5569Y2111D01*
X5594Y2097D01*
X5622Y2089D01*
X5624D01*
Y2200D01*
X5637D01*
Y2213D01*
X5748D01*
Y2215D01*
X5740Y2243D01*
X5726Y2268D01*
X5719Y2275D01*
X5724Y2287D01*
X5811D01*
X5816Y2274D01*
X5807Y2265D01*
X5793Y2241D01*
X5785Y2214D01*
Y2186D01*
X5793Y2159D01*
X5807Y2135D01*
X5826Y2116D01*
X5850Y2102D01*
X5877Y2094D01*
X5905D01*
X5932Y2102D01*
X5956Y2116D01*
X5975Y2135D01*
X5989Y2159D01*
X5997Y2186D01*
Y2214D01*
X5989Y2241D01*
X5975Y2265D01*
X5962Y2278D01*
X5964Y2294D01*
X5968Y2296D01*
X6043Y2372D01*
X6054Y2375D01*
X6054Y2375D01*
Y2375D01*
X6054Y2375D01*
X6253D01*
Y2467D01*
X6300D01*
Y2433D01*
X6400D01*
Y2567D01*
X6300D01*
Y2533D01*
X6253D01*
Y2575D01*
X6111D01*
X6107Y2580D01*
X6105Y2587D01*
X6106Y2589D01*
X6108Y2601D01*
Y2615D01*
X6564D01*
Y2570D01*
D02*
G37*
%LPC*%
G36*
X2145Y2650D02*
X2083D01*
Y2608D01*
X2145D01*
Y2650D01*
D02*
G37*
G36*
Y2582D02*
X2083D01*
Y2540D01*
X2145D01*
Y2582D01*
D02*
G37*
G36*
X6504Y2306D02*
X6294D01*
Y2094D01*
X6504D01*
Y2306D01*
D02*
G37*
G36*
X6159D02*
X6131D01*
X6104Y2298D01*
X6080Y2284D01*
X6061Y2265D01*
X6047Y2241D01*
X6040Y2214D01*
Y2186D01*
X6047Y2159D01*
X6061Y2135D01*
X6080Y2116D01*
X6104Y2102D01*
X6131Y2094D01*
X6159D01*
X6186Y2102D01*
X6210Y2116D01*
X6229Y2135D01*
X6243Y2159D01*
X6251Y2186D01*
Y2214D01*
X6243Y2241D01*
X6229Y2265D01*
X6210Y2284D01*
X6186Y2298D01*
X6159Y2306D01*
D02*
G37*
G36*
X5748Y2187D02*
X5650D01*
Y2089D01*
X5652D01*
X5680Y2097D01*
X5705Y2111D01*
X5726Y2132D01*
X5740Y2157D01*
X5748Y2185D01*
Y2187D01*
D02*
G37*
%LPD*%
D10*
X7181Y5391D02*
G03*
X7175Y5400I-24J-8D01*
G01*
D12*
X5700Y3500D02*
Y4075D01*
X5620Y3508D02*
X5624Y3504D01*
X5620Y3508D02*
Y4005D01*
X5700Y3500D02*
X5704Y3496D01*
X8375Y3150D02*
X8393Y3133D01*
X8500Y3002D02*
Y3037D01*
X8482Y3055D02*
X8500Y3037D01*
X8447Y3055D02*
X8482D01*
X8393Y3109D02*
X8447Y3055D01*
X8393Y3109D02*
Y3133D01*
X2225Y4475D02*
X2450D01*
X2200Y4775D02*
X2207Y4768D01*
Y4718D02*
Y4768D01*
Y4718D02*
X2250Y4675D01*
X2450D01*
X4850Y4278D02*
X5125Y4003D01*
X4850Y4278D02*
Y4283D01*
X6750Y4700D02*
X6765Y4685D01*
X6925D01*
X6750Y4575D02*
X6750Y4575D01*
X6925D01*
X6750Y4450D02*
X6765Y4465D01*
X6925D01*
X6755Y4355D02*
X6925D01*
X6750Y4350D02*
X6755Y4355D01*
X6750Y4250D02*
X6755Y4245D01*
X6925D01*
X6750Y4150D02*
X6765Y4135D01*
X6925D01*
X6750Y4025D02*
X6925D01*
X6925Y4025D01*
X6765Y3915D02*
X6925D01*
X6750Y3900D02*
X6765Y3915D01*
X6750Y3800D02*
X6755Y3805D01*
X6925D01*
X6755Y3695D02*
X6925D01*
X6750Y3700D02*
X6755Y3695D01*
X6750Y3600D02*
X6765Y3585D01*
X6925D01*
X4975Y3800D02*
Y3938D01*
X5125Y3850D02*
Y4003D01*
X5012Y3388D02*
Y3662D01*
X3950Y4275D02*
X4400D01*
X5012Y3662D01*
X4438Y4475D02*
X4975Y3938D01*
X5069Y3406D02*
X5100Y3375D01*
X5125Y3850D02*
X5170Y3805D01*
X5325D01*
X5100Y3375D02*
X5315D01*
X4327Y4675D02*
X5069Y3933D01*
X3950Y4675D02*
X4327D01*
X5069Y3406D02*
Y3933D01*
X4950Y3386D02*
Y3600D01*
X6178Y2728D02*
Y2900D01*
X6285Y2725D02*
Y2876D01*
X6300Y2891D01*
Y2900D01*
X6395Y2725D02*
X6400Y2730D01*
Y2900D01*
X5745Y2595D02*
Y2725D01*
X5650Y2500D02*
X5745Y2595D01*
X5634Y2622D02*
Y2724D01*
X5586Y2575D02*
X5634Y2622D01*
Y2724D02*
X5635Y2725D01*
X3175Y2575D02*
X5586D01*
X2250Y2500D02*
X5650Y2500D01*
X2155Y2405D02*
X2250Y2500D01*
X2070Y2405D02*
X2155D01*
X1675Y2500D02*
X1808D01*
X1507Y2495D02*
X1525Y2477D01*
Y2475D02*
Y2477D01*
X775Y2495D02*
X1507D01*
X6500Y2730D02*
X6505Y2725D01*
X6500Y2730D02*
Y2900D01*
X6075Y2725D02*
Y2950D01*
X6250Y3125D01*
X6725D01*
X5950Y2900D02*
X6250Y3200D01*
X5950Y2740D02*
Y2900D01*
Y2740D02*
X5965Y2725D01*
X6250Y3200D02*
X6625D01*
X6175Y2725D02*
X6178Y2728D01*
X5855Y3005D02*
X5975Y3125D01*
X5855Y2725D02*
Y3005D01*
X5963Y2613D02*
Y2725D01*
X6935Y3375D02*
X7050D01*
X6925Y3255D02*
X6945Y3275D01*
X7050D01*
X6925Y3365D02*
X6935Y3375D01*
X6925Y3475D02*
X7050D01*
X7475Y4725D02*
Y4950D01*
X4595Y3325D02*
Y3455D01*
X4600Y3325D02*
X4850D01*
X4400Y3250D02*
X4405Y3255D01*
X4225Y3233D02*
X4242Y3250D01*
X3275Y2725D02*
X5525D01*
X2500Y3500D02*
X3275Y2725D01*
X2375Y3375D02*
X3175Y2575D01*
X2375Y3600D02*
X2410Y3635D01*
X2619D02*
X2754Y3500D01*
X2410Y3635D02*
X2619D01*
X2375Y3375D02*
Y3600D01*
X5175Y3475D02*
X5325D01*
X5175Y3575D02*
X5315D01*
X5180Y3695D02*
X5325D01*
X5315Y3575D02*
X5325Y3585D01*
X5140Y3035D02*
X5325D01*
X4850Y3325D02*
X5140Y3035D01*
X4595Y3695D02*
Y3822D01*
X4592Y3825D02*
X4595Y3822D01*
X4392Y3708D02*
X4405Y3695D01*
X4217Y3875D02*
X4217Y3875D01*
X5186Y3150D02*
X5320D01*
X5325Y3145D01*
X4950Y3386D02*
X5186Y3150D01*
X3950Y4475D02*
X4438D01*
X4200Y4875D02*
X4720Y4355D01*
X5325D01*
X4710Y4465D02*
X5325D01*
X4123Y5052D02*
X4710Y4465D01*
X3950Y4875D02*
X4200D01*
X3973Y5052D02*
X4123D01*
X3950Y5075D02*
X3973Y5052D01*
X5150Y4575D02*
X5150Y4575D01*
X5325D01*
X5012Y3388D02*
X5145Y3255D01*
X5325D01*
X5315Y3375D02*
X5325Y3365D01*
X3950Y4875D02*
X3950Y4875D01*
X5945Y2320D02*
X6025Y2400D01*
Y2550D01*
X5550Y2320D02*
X5945D01*
X8142Y1033D02*
X8150Y1025D01*
X6935Y3025D02*
X7113D01*
X7243Y2823D02*
Y2896D01*
X7113Y3025D02*
X7243Y2896D01*
Y2823D02*
X7260Y2805D01*
X7280D01*
X8334Y4255D02*
X8366Y4223D01*
X8275Y4255D02*
X8334D01*
X8364Y4220D02*
X8378Y4207D01*
X8493D01*
X8250Y4230D02*
X8275Y4255D01*
X8253Y4258D02*
X8275D01*
X8318Y3742D02*
X8345Y3770D01*
X8250D02*
X8345D01*
X8253Y3742D02*
X8318D01*
X8500Y4216D02*
Y4225D01*
X8476Y4224D02*
X8493Y4207D01*
X8367Y4224D02*
X8476D01*
X7875Y2750D02*
X7875Y2750D01*
X7964Y2536D02*
X7986D01*
X7988Y2538D01*
X7975Y4925D02*
Y5125D01*
X8025Y5175D01*
X8250Y4260D02*
X8253Y4258D01*
X8250Y3740D02*
X8253Y3742D01*
X8450Y4650D02*
X8700D01*
X8425Y4675D02*
Y4792D01*
Y4675D02*
X8450Y4650D01*
X8425Y4792D02*
X8432Y4800D01*
X8700Y4650D02*
X8750Y4700D01*
Y5000D01*
X8675Y5075D02*
X8750Y5000D01*
X8575Y5075D02*
X8675D01*
X7368Y3750D02*
X7375Y3758D01*
X6075Y2601D02*
Y2725D01*
X6042Y2568D02*
X6075Y2601D01*
X6025Y2550D02*
X6042Y2567D01*
Y2568D01*
X5825Y2600D02*
X5950D01*
X5963Y2613D01*
X5500Y2250D02*
Y2270D01*
X5550Y2320D01*
X5500Y2100D02*
Y2150D01*
X5501Y2151D01*
Y2249D01*
X5500Y2250D02*
X5501Y2249D01*
X5475Y2075D02*
X5500Y2100D01*
X5300Y2075D02*
X5475D01*
X5250Y2125D02*
X5300Y2075D01*
X5250Y2125D02*
Y2225D01*
X5275Y2250D01*
Y2400D01*
X5525D02*
X5625D01*
X5825Y2600D01*
X5127Y2202D02*
Y2398D01*
Y2202D02*
X5129Y2200D01*
X5125Y2400D02*
X5127Y2398D01*
X5379Y2204D02*
Y2396D01*
X5375Y2400D02*
X5379Y2396D01*
Y2204D02*
X5383Y2200D01*
X5530Y4245D02*
X5700Y4075D01*
X5538Y3502D02*
X5540Y3500D01*
X5538Y3502D02*
Y3912D01*
X5428Y4022D02*
X5538Y3912D01*
X5490Y4135D02*
X5620Y4005D01*
X5455Y3500D02*
Y3841D01*
X5409Y3888D02*
X5455Y3841D01*
X4592Y3825D02*
X4595Y3828D01*
X8480Y2768D02*
X8500Y2748D01*
X8480Y2768D02*
Y2845D01*
X8450Y2875D02*
X8480Y2845D01*
X8050Y2875D02*
X8450D01*
X8030Y2855D02*
X8050Y2875D01*
X8030Y2755D02*
Y2855D01*
X8025Y3125D02*
X8030Y3120D01*
Y2995D02*
Y3120D01*
X7920Y3380D02*
X7925Y3375D01*
X8075Y2275D02*
X8142Y2208D01*
X775Y2495D02*
X800Y2470D01*
X7675Y2900D02*
X7675Y2900D01*
X7520Y2900D02*
X7675D01*
X7275Y2650D02*
Y2800D01*
X7280Y2805D01*
X6925Y3035D02*
X6935Y3025D01*
X7275Y3000D02*
X7280Y2995D01*
X7275Y3000D02*
Y3150D01*
X6925Y3145D02*
X7270D01*
X7275Y3150D01*
X8115Y3740D02*
X8250D01*
X7575Y3617D02*
X7580Y3622D01*
X7578Y3758D02*
X7580Y3755D01*
X7925Y3892D02*
Y3975D01*
X7905Y3995D02*
X7925Y3975D01*
X7770Y3995D02*
X7905D01*
X7787Y3718D02*
X7807D01*
X7825Y3700D01*
X7770Y3735D02*
Y3755D01*
Y3735D02*
X7787Y3718D01*
X7825Y3620D02*
Y3700D01*
X7822Y3617D02*
X7825Y3620D01*
X7575Y3617D02*
X7822D01*
X6179Y2500D02*
X6350D01*
X6154Y2475D02*
X6179Y2500D01*
X5325Y4135D02*
X5490D01*
X5325Y4245D02*
X5530D01*
X5328Y4022D02*
X5428D01*
X5325Y4025D02*
X5328Y4022D01*
X5352Y3888D02*
X5409D01*
X5325Y3915D02*
X5352Y3888D01*
X7600Y4800D02*
Y4950D01*
X7675Y5100D02*
X7700Y5125D01*
X7600Y5100D02*
X7675D01*
X7775Y5125D02*
X7775Y5125D01*
X7700Y5125D02*
X7775D01*
X7475Y5100D02*
Y5160D01*
X7490Y5175D02*
X7775D01*
X7475Y5160D02*
X7490Y5175D01*
X7975Y4050D02*
X8050Y3975D01*
X8350Y4950D02*
X8432D01*
X8285D02*
X8350D01*
X8355Y3925D02*
X8380Y3900D01*
X8250Y3925D02*
X8355D01*
X8380Y3900D02*
X8386D01*
X8399Y3977D02*
X8403Y3981D01*
X8252Y3977D02*
X8399D01*
X8250Y3975D02*
X8252Y3977D01*
X8250Y3770D02*
X8250Y3770D01*
X8400Y4075D02*
X8400Y4075D01*
X8250Y4075D02*
X8400D01*
X8250Y3975D02*
X8250Y3975D01*
X8100Y3975D02*
X8250D01*
X8100Y3975D02*
X8100Y3975D01*
X8150Y4025D02*
X8250D01*
X8100Y4075D02*
X8150Y4025D01*
X8100Y4075D02*
Y4575D01*
X8050Y3975D02*
X8100D01*
X7975Y4050D02*
Y4575D01*
X8275Y5075D02*
X8425D01*
X8275Y4940D02*
X8285Y4950D01*
X8260Y4925D02*
X8275Y4940D01*
X8175Y4925D02*
X8260D01*
X8275Y4940D02*
Y5025D01*
X8175Y4800D02*
X8432D01*
X8125Y4850D02*
X8175Y4800D01*
X8125Y4925D02*
X8125Y4925D01*
Y4850D02*
Y4925D01*
X8075Y4825D02*
Y4925D01*
Y4825D02*
X8100Y4800D01*
Y4725D02*
Y4800D01*
X7975Y4725D02*
Y4800D01*
X8025Y4850D01*
Y4925D02*
X8025Y4925D01*
X8025Y4850D02*
Y4925D01*
D14*
X6925Y5085D02*
X7063D01*
D15*
X3950Y3875D02*
D03*
Y4075D02*
D03*
Y4275D02*
D03*
Y4475D02*
D03*
Y4675D02*
D03*
Y4875D02*
D03*
Y5075D02*
D03*
Y5275D02*
D03*
Y5475D02*
D03*
X2450D02*
D03*
Y5275D02*
D03*
Y5075D02*
D03*
Y4875D02*
D03*
Y4675D02*
D03*
Y4475D02*
D03*
Y4275D02*
D03*
Y4075D02*
D03*
Y3875D02*
D03*
D16*
X2254Y5917D02*
D03*
X1746D02*
D03*
X4246D02*
D03*
X4754D02*
D03*
X6746D02*
D03*
X7254D02*
D03*
D17*
X2000Y5948D02*
D03*
X4500D02*
D03*
X7000D02*
D03*
D18*
X8025Y3125D02*
D03*
Y3275D02*
D03*
X7675Y2900D02*
D03*
Y2750D02*
D03*
X4600Y3325D02*
D03*
Y3175D02*
D03*
X7975Y4575D02*
D03*
Y4725D02*
D03*
X7600Y5100D02*
D03*
Y4950D02*
D03*
X7475Y5100D02*
D03*
Y4950D02*
D03*
X8100Y4575D02*
D03*
Y4725D02*
D03*
D19*
X7825Y3620D02*
D03*
X7920Y3380D02*
D03*
X7730D02*
D03*
X8030Y2995D02*
D03*
X8220D02*
D03*
Y2755D02*
D03*
X8125D02*
D03*
X8030D02*
D03*
X7580Y3995D02*
D03*
X7770D02*
D03*
Y3755D02*
D03*
X7675D02*
D03*
X7580D02*
D03*
X4405Y3695D02*
D03*
X4595D02*
D03*
Y3455D02*
D03*
X4500D02*
D03*
X4405D02*
D03*
D20*
X7925Y3758D02*
D03*
Y3892D02*
D03*
X7575Y3483D02*
D03*
Y3617D02*
D03*
X4400Y3167D02*
D03*
Y3033D02*
D03*
X4225Y3883D02*
D03*
Y4017D02*
D03*
D21*
X8375Y3150D02*
D03*
X8225D02*
D03*
X7425D02*
D03*
X7275D02*
D03*
X7425Y2650D02*
D03*
X7275D02*
D03*
X6350Y2500D02*
D03*
X6500D02*
D03*
X5525Y2400D02*
D03*
X5375D02*
D03*
X8425Y5075D02*
D03*
X8575D02*
D03*
X1675Y2500D02*
D03*
X1525D02*
D03*
X5275Y2400D02*
D03*
X5125D02*
D03*
D22*
X7375Y3492D02*
D03*
Y3758D02*
D03*
Y4233D02*
D03*
Y3967D02*
D03*
X4225Y2967D02*
D03*
Y3233D02*
D03*
Y3442D02*
D03*
Y3708D02*
D03*
D23*
X7718Y4150D02*
D03*
X7582D02*
D03*
X6743Y2500D02*
D03*
X6607D02*
D03*
X6743Y2350D02*
D03*
X6607D02*
D03*
X4592Y3825D02*
D03*
X4458D02*
D03*
X8568Y4800D02*
D03*
X8432D02*
D03*
Y4950D02*
D03*
X8568D02*
D03*
D24*
X7520Y2900D02*
D03*
X7280Y2805D02*
D03*
Y2995D02*
D03*
X1830Y2500D02*
D03*
X2070Y2595D02*
D03*
Y2405D02*
D03*
D25*
X5325Y5195D02*
D03*
Y5085D02*
D03*
Y4795D02*
D03*
Y4685D02*
D03*
Y4575D02*
D03*
Y4465D02*
D03*
Y4355D02*
D03*
Y4245D02*
D03*
Y4135D02*
D03*
Y3255D02*
D03*
Y4025D02*
D03*
Y3915D02*
D03*
Y3805D02*
D03*
Y3695D02*
D03*
Y3585D02*
D03*
Y3475D02*
D03*
Y3365D02*
D03*
Y3035D02*
D03*
Y3145D02*
D03*
Y2925D02*
D03*
X6925D02*
D03*
Y3695D02*
D03*
Y3585D02*
D03*
Y3475D02*
D03*
Y3365D02*
D03*
Y3035D02*
D03*
Y3145D02*
D03*
Y3255D02*
D03*
Y5195D02*
D03*
Y4575D02*
D03*
Y4795D02*
D03*
Y5085D02*
D03*
Y4355D02*
D03*
Y4685D02*
D03*
Y4135D02*
D03*
Y4245D02*
D03*
Y4465D02*
D03*
Y4025D02*
D03*
Y3805D02*
D03*
Y3915D02*
D03*
D26*
X6725Y2725D02*
D03*
X6615D02*
D03*
X6395D02*
D03*
X6285D02*
D03*
X6175D02*
D03*
X6075D02*
D03*
X5965D02*
D03*
X5855D02*
D03*
X5745D02*
D03*
X5635D02*
D03*
X5525D02*
D03*
X6505D02*
D03*
D27*
X8250Y3660D02*
D03*
Y3770D02*
D03*
Y3825D02*
D03*
Y3925D02*
D03*
Y4075D02*
D03*
Y4175D02*
D03*
Y4230D02*
D03*
Y4310D02*
D03*
Y4340D02*
D03*
Y4260D02*
D03*
Y4125D02*
D03*
Y4025D02*
D03*
Y3975D02*
D03*
Y3875D02*
D03*
Y3740D02*
D03*
Y3690D02*
D03*
D28*
X8758Y4508D02*
D03*
Y3492D02*
D03*
D29*
X8340D02*
D03*
Y4508D02*
D03*
D30*
X8275Y5025D02*
D03*
Y5075D02*
D03*
Y5125D02*
D03*
X7775Y5025D02*
D03*
Y5075D02*
D03*
Y5125D02*
D03*
X8275Y5225D02*
D03*
Y5275D02*
D03*
Y5325D02*
D03*
X7775Y5225D02*
D03*
Y5275D02*
D03*
Y5325D02*
D03*
X8275Y5175D02*
D03*
X7775D02*
D03*
D31*
X8175Y4925D02*
D03*
X8125D02*
D03*
X8075D02*
D03*
X7975D02*
D03*
X7925D02*
D03*
X7875D02*
D03*
X8175Y5425D02*
D03*
X8125D02*
D03*
X8075D02*
D03*
X7975D02*
D03*
X7925D02*
D03*
X7875D02*
D03*
X8025Y4925D02*
D03*
Y5425D02*
D03*
D66*
X6984Y5873D02*
G03*
X7025Y5675I6033J1139D01*
G01*
X7025Y5674D02*
G03*
X7038Y5624I1307J293D01*
G01*
X7194Y5274D02*
G03*
X7181Y5391I-278J28D01*
G01*
X7063Y5085D02*
G03*
X7194Y5274I-106J213D01*
G01*
X6999Y5947D02*
G03*
X6984Y5873I83J-55D01*
G01*
X2000Y5625D02*
G03*
X2175Y5475I162J12D01*
G01*
X4351Y5475D02*
G03*
X4500Y5625I-1J150D01*
G01*
X4350Y5475D02*
G03*
X4351Y5475I0J150D01*
G01*
X7038Y5624D02*
X7078Y5558D01*
X7175Y5400D01*
X7025Y5675D02*
X7025Y5674D01*
X6999Y5947D02*
X6999Y5947D01*
X7000Y5948D01*
X2000Y5625D02*
Y5948D01*
X2150Y5475D02*
X2450D01*
X4500Y5625D02*
Y5948D01*
X4351Y5475D02*
X4352Y5474D01*
X3950Y5475D02*
X4351D01*
X8162Y2538D02*
X8220Y2595D01*
X8075Y2538D02*
X8162D01*
X7988D02*
X8075D01*
Y2275D02*
Y2538D01*
X7875Y2750D02*
Y3100D01*
Y2625D02*
Y2750D01*
Y2625D02*
X7964Y2536D01*
X7730Y3245D02*
X7875Y3100D01*
X8142Y1033D02*
Y2208D01*
D67*
X8025Y5175D02*
D03*
D68*
X1325Y3725D02*
X3575D01*
X3725Y3875D01*
X4217D01*
X1200Y3850D02*
X1325Y3725D01*
X1950Y2950D02*
X2246Y3246D01*
X1080Y2950D02*
X1950D01*
X2246Y3246D02*
Y3500D01*
X1950Y2275D02*
Y2950D01*
X4469Y3158D02*
X4550Y3077D01*
X4410Y3158D02*
X4469D01*
X4550Y3075D02*
Y3077D01*
X4400Y3167D02*
X4410Y3158D01*
X7375Y3967D02*
X7403Y3995D01*
X7357Y3949D02*
X7375Y3967D01*
X2025Y2200D02*
X4875D01*
X1950Y2275D02*
X2025Y2200D01*
X775Y3255D02*
X1080Y2950D01*
X7150Y3850D02*
X7249Y3949D01*
X7150Y3250D02*
Y3850D01*
X7275Y3708D02*
X7334D01*
X7368Y3742D01*
Y3750D01*
X4405Y3167D02*
Y3250D01*
X4242D02*
X4400D01*
X4405D02*
Y3455D01*
X4225Y3708D02*
X4392D01*
X4225D02*
Y3883D01*
X7150Y2450D02*
Y2900D01*
X6925Y2225D02*
X7150Y2450D01*
X7249Y3949D02*
X7357D01*
X4850Y1825D02*
X6675D01*
X4575Y2100D02*
X4850Y1825D01*
X6675D02*
X7225Y2375D01*
X8370Y3795D02*
X8485D01*
X8520Y3830D02*
Y4196D01*
X8485Y3795D02*
X8520Y3830D01*
X8500Y4216D02*
X8520Y4196D01*
X8225Y3150D02*
Y3325D01*
Y3020D02*
Y3150D01*
X8220Y2995D02*
Y3015D01*
X8225Y3020D01*
X8220Y2595D02*
Y2755D01*
X7675Y2750D02*
X7875D01*
X6607Y2225D02*
Y2350D01*
Y2058D02*
Y2225D01*
X6925D01*
X5000Y1950D02*
X6500D01*
X6607Y2058D01*
X4875Y2075D02*
Y2200D01*
Y2075D02*
X5000Y1950D01*
X6500Y2500D02*
X6607D01*
X4217Y3875D02*
X4225Y3883D01*
X7925Y3375D02*
X8175D01*
X8225Y3325D01*
X7730Y3245D02*
Y3380D01*
X7920D02*
Y3545D01*
X8115Y3740D01*
X7580Y3622D02*
Y3755D01*
X7375Y3758D02*
X7578D01*
X7403Y3995D02*
X7580D01*
Y4147D01*
X7582Y4150D01*
X6607Y2350D02*
Y2500D01*
X6615Y2508D01*
Y2725D01*
D69*
X8345Y3770D02*
X8370Y3795D01*
D70*
X8525Y2748D02*
D03*
D71*
Y3002D02*
D03*
D72*
X1200Y3850D02*
D03*
D73*
X946Y5882D02*
D03*
X1200D02*
D03*
X946Y5628D02*
D03*
X1200D02*
D03*
X946Y5374D02*
D03*
X1200D02*
D03*
X946Y5120D02*
D03*
X1200D02*
D03*
X946Y4866D02*
D03*
X1200D02*
D03*
X946Y4612D02*
D03*
X1200D02*
D03*
X946Y4358D02*
D03*
X1200D02*
D03*
X946Y4104D02*
D03*
X1200D02*
D03*
X946Y3850D02*
D03*
D74*
X8150Y1025D02*
D03*
X950D02*
D03*
X8600Y5800D02*
D03*
Y400D02*
D03*
X400D02*
D03*
Y5800D02*
D03*
D75*
X1992Y3500D02*
D03*
X6399Y2200D02*
D03*
D76*
X2246Y3500D02*
D03*
X2500D02*
D03*
X2754D02*
D03*
X3008D02*
D03*
X3262D02*
D03*
X3516D02*
D03*
X6145Y2200D02*
D03*
X5891D02*
D03*
X5637D02*
D03*
X5383D02*
D03*
X5129D02*
D03*
X4875D02*
D03*
D77*
X8394Y4288D02*
D03*
Y3712D02*
D03*
D78*
X775Y2420D02*
D03*
D79*
Y3180D02*
D03*
D80*
X7821Y2275D02*
D03*
X5900Y2475D02*
D03*
D81*
X8075Y2275D02*
D03*
X6154Y2475D02*
D03*
D82*
X250Y4250D02*
D03*
Y3750D02*
D03*
Y4750D02*
D03*
Y5250D02*
D03*
Y1250D02*
D03*
Y1750D02*
D03*
D83*
X500Y4350D02*
D03*
Y5350D02*
D03*
Y1850D02*
D03*
D84*
Y3650D02*
D03*
Y4650D02*
D03*
Y1150D02*
D03*
D85*
X6050Y3225D02*
D03*
X5575Y2875D02*
D03*
Y3075D02*
D03*
Y3250D02*
D03*
X5624Y3504D02*
D03*
X5704Y3496D02*
D03*
X4075Y3725D02*
D03*
X3975D02*
D03*
X3875D02*
D03*
X4575Y3575D02*
D03*
X4425Y3575D02*
D03*
X4725Y3175D02*
D03*
X4225Y2825D02*
D03*
X4400Y2925D02*
D03*
X2275Y2375D02*
D03*
X2550D02*
D03*
X2825D02*
D03*
X3100D02*
D03*
X3425D02*
D03*
X3775D02*
D03*
X4050D02*
D03*
X4350D02*
D03*
X4950D02*
D03*
X4700D02*
D03*
X6475D02*
D03*
X6350D02*
D03*
X8924Y6018D02*
D03*
Y5518D02*
D03*
Y5018D02*
D03*
Y4518D02*
D03*
Y4018D02*
D03*
Y3518D02*
D03*
Y3018D02*
D03*
Y2518D02*
D03*
Y2018D02*
D03*
Y1518D02*
D03*
Y1018D02*
D03*
Y518D02*
D03*
X8674Y5518D02*
D03*
X8799Y5268D02*
D03*
Y4268D02*
D03*
X8674Y4018D02*
D03*
X8799Y3768D02*
D03*
Y3268D02*
D03*
Y2768D02*
D03*
X8674Y2518D02*
D03*
X8799Y2268D02*
D03*
X8674Y2018D02*
D03*
X8799Y1768D02*
D03*
X8674Y1518D02*
D03*
X8799Y1268D02*
D03*
X8674Y1018D02*
D03*
X8799Y768D02*
D03*
X8424Y6018D02*
D03*
Y5518D02*
D03*
X8549Y5268D02*
D03*
Y3268D02*
D03*
X8424Y2518D02*
D03*
X8549Y2268D02*
D03*
X8424Y2018D02*
D03*
X8549Y1768D02*
D03*
X8424Y1518D02*
D03*
X8549Y1268D02*
D03*
Y768D02*
D03*
X8174Y6018D02*
D03*
X8299Y5768D02*
D03*
X8174Y3518D02*
D03*
X8299Y2268D02*
D03*
Y1768D02*
D03*
X7924Y6018D02*
D03*
X8049Y5768D02*
D03*
X7924Y2018D02*
D03*
X7674Y6018D02*
D03*
X7799Y5768D02*
D03*
X7674Y5518D02*
D03*
X7799Y4768D02*
D03*
X7674Y4518D02*
D03*
X7799Y4268D02*
D03*
X7674Y4018D02*
D03*
Y3018D02*
D03*
Y2518D02*
D03*
Y2018D02*
D03*
X7799Y1768D02*
D03*
X7424Y6018D02*
D03*
X7549Y5768D02*
D03*
X7424Y5518D02*
D03*
X7549Y5268D02*
D03*
Y4268D02*
D03*
Y3268D02*
D03*
X7424Y3018D02*
D03*
X7549Y2768D02*
D03*
X7424Y2518D02*
D03*
X7549Y2268D02*
D03*
X7424Y2018D02*
D03*
X7549Y1768D02*
D03*
X7299Y4768D02*
D03*
X7174Y4518D02*
D03*
Y4018D02*
D03*
X7299Y2268D02*
D03*
X7174Y2018D02*
D03*
X7299Y1768D02*
D03*
X7049D02*
D03*
X6674Y5518D02*
D03*
X6799Y5268D02*
D03*
X6674Y5018D02*
D03*
Y3518D02*
D03*
Y3018D02*
D03*
X6799Y1768D02*
D03*
X6424Y6018D02*
D03*
X6549Y5768D02*
D03*
X6424Y5518D02*
D03*
X6549Y5268D02*
D03*
X6424Y5018D02*
D03*
X6549Y4768D02*
D03*
X6424Y3518D02*
D03*
X6549Y3268D02*
D03*
X6174Y6018D02*
D03*
X6299Y5768D02*
D03*
X6174Y5518D02*
D03*
X6299Y5268D02*
D03*
X6174Y5018D02*
D03*
X6299Y4768D02*
D03*
X6174Y3518D02*
D03*
X5924Y6018D02*
D03*
X6049Y5768D02*
D03*
X5924Y5518D02*
D03*
X6049Y5268D02*
D03*
X5924Y5018D02*
D03*
X6049Y4768D02*
D03*
X5674Y6018D02*
D03*
X5799Y5768D02*
D03*
X5674Y5518D02*
D03*
X5799Y5268D02*
D03*
X5674Y5018D02*
D03*
X5799Y4768D02*
D03*
X5424Y6018D02*
D03*
X5549Y5768D02*
D03*
X5424Y5518D02*
D03*
X5549Y5268D02*
D03*
X5174Y6018D02*
D03*
X5299Y5768D02*
D03*
X5174Y5518D02*
D03*
Y5018D02*
D03*
X4924Y6018D02*
D03*
X5049Y5768D02*
D03*
X4924Y5518D02*
D03*
X5049Y5268D02*
D03*
X4924Y5018D02*
D03*
Y3018D02*
D03*
X4799Y5268D02*
D03*
X4674Y5018D02*
D03*
X4799Y3768D02*
D03*
X4674Y3018D02*
D03*
X4549Y5268D02*
D03*
X4424Y5018D02*
D03*
X3924Y6018D02*
D03*
X4049Y5768D02*
D03*
X3924Y3018D02*
D03*
X3674Y6018D02*
D03*
X3799Y5768D02*
D03*
X3674Y5018D02*
D03*
Y3018D02*
D03*
X3424Y6018D02*
D03*
X3549Y5768D02*
D03*
X3424Y5518D02*
D03*
X3549Y5268D02*
D03*
X3424Y5018D02*
D03*
Y3018D02*
D03*
X3174Y6018D02*
D03*
X3299Y5768D02*
D03*
X3174Y5518D02*
D03*
X3299Y5268D02*
D03*
X3174Y5018D02*
D03*
Y3018D02*
D03*
X2924Y6018D02*
D03*
X3049Y5768D02*
D03*
X2924Y5518D02*
D03*
X3049Y5268D02*
D03*
X2924Y5018D02*
D03*
X3049Y3268D02*
D03*
X2674Y6018D02*
D03*
X2799Y5768D02*
D03*
Y5268D02*
D03*
X2674Y5018D02*
D03*
X2799Y2768D02*
D03*
X2424Y6018D02*
D03*
X2549Y5768D02*
D03*
X2424Y3018D02*
D03*
X2549Y2768D02*
D03*
X2174Y3018D02*
D03*
X2299Y2768D02*
D03*
X2174Y2518D02*
D03*
X2049Y3268D02*
D03*
Y2768D02*
D03*
X1674Y3518D02*
D03*
X1799Y3268D02*
D03*
Y2768D02*
D03*
Y2268D02*
D03*
X1424Y6018D02*
D03*
Y3518D02*
D03*
X1549Y3268D02*
D03*
Y2768D02*
D03*
Y2268D02*
D03*
X1174Y3518D02*
D03*
X1299Y3268D02*
D03*
Y2768D02*
D03*
Y2268D02*
D03*
X1174Y1518D02*
D03*
Y518D02*
D03*
X924Y6018D02*
D03*
Y3518D02*
D03*
X1049Y3268D02*
D03*
Y2768D02*
D03*
Y2268D02*
D03*
X924Y1518D02*
D03*
X1049Y1268D02*
D03*
Y768D02*
D03*
X924Y518D02*
D03*
X674Y6018D02*
D03*
X799Y5768D02*
D03*
X674Y5518D02*
D03*
X799Y5268D02*
D03*
X674Y5018D02*
D03*
X799Y4768D02*
D03*
Y4268D02*
D03*
Y3768D02*
D03*
X674Y3018D02*
D03*
X799Y2768D02*
D03*
Y2268D02*
D03*
X674Y1518D02*
D03*
X799Y1268D02*
D03*
X674Y1018D02*
D03*
X799Y768D02*
D03*
X674Y518D02*
D03*
X424Y5518D02*
D03*
Y5018D02*
D03*
Y4018D02*
D03*
X549Y3268D02*
D03*
X424Y3018D02*
D03*
X549Y2768D02*
D03*
X424Y2518D02*
D03*
Y2018D02*
D03*
Y1518D02*
D03*
X549Y768D02*
D03*
X6894Y5663D02*
D03*
X6924Y5557D02*
D03*
X6982Y5463D02*
D03*
X7039Y5369D02*
D03*
X7056Y5261D02*
D03*
X6766Y5136D02*
D03*
X6767Y5026D02*
D03*
X6858Y4964D02*
D03*
X6968Y4964D02*
D03*
X7078Y4955D02*
D03*
X7177Y5001D02*
D03*
X7255Y5080D02*
D03*
X7306Y5177D02*
D03*
X7326Y5285D02*
D03*
X7315Y5395D02*
D03*
X7271Y5495D02*
D03*
X7213Y5589D02*
D03*
X4368Y5639D02*
D03*
X4263Y5607D02*
D03*
X4153D02*
D03*
X4044Y5616D02*
D03*
X3934D02*
D03*
X3824D02*
D03*
X3726Y5565D02*
D03*
X3719Y5455D02*
D03*
X4191Y5343D02*
D03*
X4301D02*
D03*
X4411Y5350D02*
D03*
X4512Y5395D02*
D03*
X4588Y5474D02*
D03*
X4627Y5577D02*
D03*
X1868Y5642D02*
D03*
X1887Y5534D02*
D03*
X1945Y5440D02*
D03*
X2032Y5374D02*
D03*
X2138Y5345D02*
D03*
X2675Y5387D02*
D03*
X2681Y5497D02*
D03*
X2646Y5601D02*
D03*
X2537Y5616D02*
D03*
X2427D02*
D03*
X2317D02*
D03*
X2207Y5607D02*
D03*
X2225Y4475D02*
D03*
X2200Y4775D02*
D03*
X4850Y4283D02*
D03*
X6750Y3600D02*
D03*
Y3700D02*
D03*
Y3800D02*
D03*
Y3900D02*
D03*
Y4025D02*
D03*
Y4250D02*
D03*
Y4150D02*
D03*
Y4350D02*
D03*
Y4450D02*
D03*
Y4575D02*
D03*
Y4700D02*
D03*
X4975Y3800D02*
D03*
X4950Y3600D02*
D03*
X6300Y2900D02*
D03*
X6400D02*
D03*
X6500Y2900D02*
D03*
X6175D02*
D03*
X5975Y3125D02*
D03*
X6725D02*
D03*
X6625Y3200D02*
D03*
X7150Y3250D02*
D03*
X7050Y3275D02*
D03*
Y3375D02*
D03*
X7275Y3708D02*
D03*
X7050Y3475D02*
D03*
X7475Y4725D02*
D03*
X4550Y3075D02*
D03*
X5180Y3475D02*
D03*
Y3575D02*
D03*
Y3700D02*
D03*
X5146Y4576D02*
D03*
X8025Y5175D02*
D03*
Y5067D02*
D03*
Y5283D02*
D03*
X7918Y5175D02*
D03*
X8130D02*
D03*
X7150Y2900D02*
D03*
X8666Y4753D02*
D03*
Y4953D02*
D03*
X7225Y2375D02*
D03*
X4575Y2100D02*
D03*
X5540Y3500D02*
D03*
X5455D02*
D03*
X7600Y4800D02*
D03*
X8500Y4225D02*
D03*
X8350Y4950D02*
D03*
X8386Y3900D02*
D03*
X8403Y3981D02*
D03*
X8400Y4075D02*
D03*
X8100Y3975D02*
D03*
Y4075D02*
D03*
M02*
