G04*
G04 #@! TF.GenerationSoftware,Altium Limited,Altium Designer,23.0.1 (38)*
G04*
G04 Layer_Color=65535*
%FSLAX42Y42*%
%MOMM*%
G71*
G04*
G04 #@! TF.SameCoordinates,B15292C3-EAD5-4A71-986A-2A6C0C3FE727*
G04*
G04*
G04 #@! TF.FilePolarity,Positive*
G04*
G01*
G75*
%ADD10C,0.25*%
%ADD11C,0.20*%
%ADD12C,0.25*%
%ADD13C,0.12*%
%ADD14C,0.80*%
G36*
X5325Y5300D02*
X5325Y5425D01*
X5450D01*
X5325Y5300D01*
D02*
G37*
G36*
X8343Y2036D02*
X8346Y2035D01*
X8349Y2034D01*
X8354Y2033D01*
X8358Y2032D01*
X8362Y2030D01*
X8362D01*
X8362Y2030D01*
X8364Y2029D01*
X8366Y2028D01*
X8368Y2026D01*
X8371Y2024D01*
X8374Y2021D01*
X8376Y2018D01*
X8379Y2015D01*
X8379Y2014D01*
X8380Y2013D01*
X8381Y2011D01*
X8382Y2008D01*
X8383Y2005D01*
X8384Y2002D01*
X8385Y1998D01*
X8385Y1994D01*
Y1994D01*
Y1992D01*
X8385Y1990D01*
X8384Y1988D01*
X8383Y1985D01*
X8382Y1982D01*
X8381Y1978D01*
X8379Y1975D01*
X8379Y1975D01*
X8378Y1974D01*
X8377Y1972D01*
X8375Y1970D01*
X8372Y1968D01*
X8370Y1966D01*
X8366Y1964D01*
X8363Y1962D01*
X8363D01*
X8363Y1961D01*
X8364Y1961D01*
X8365Y1961D01*
X8367Y1960D01*
X8371Y1959D01*
X8374Y1957D01*
X8378Y1955D01*
X8382Y1952D01*
X8385Y1948D01*
X8385Y1948D01*
X8386Y1946D01*
X8387Y1944D01*
X8389Y1941D01*
X8390Y1937D01*
X8391Y1933D01*
X8392Y1928D01*
X8393Y1922D01*
Y1922D01*
Y1921D01*
Y1920D01*
X8392Y1919D01*
X8392Y1917D01*
X8392Y1915D01*
X8391Y1912D01*
X8391Y1910D01*
X8389Y1904D01*
X8388Y1901D01*
X8386Y1899D01*
X8384Y1896D01*
X8382Y1893D01*
X8380Y1890D01*
X8377Y1887D01*
X8377Y1886D01*
X8376Y1886D01*
X8375Y1885D01*
X8374Y1884D01*
X8373Y1883D01*
X8371Y1882D01*
X8369Y1881D01*
X8366Y1880D01*
X8364Y1878D01*
X8361Y1877D01*
X8358Y1876D01*
X8354Y1874D01*
X8351Y1874D01*
X8347Y1873D01*
X8343Y1872D01*
X8338Y1872D01*
X8336D01*
X8335Y1872D01*
X8333Y1873D01*
X8331Y1873D01*
X8329Y1873D01*
X8326Y1874D01*
X8321Y1875D01*
X8315Y1877D01*
X8312Y1879D01*
X8309Y1880D01*
X8306Y1883D01*
X8304Y1885D01*
X8303Y1885D01*
X8303Y1885D01*
X8302Y1886D01*
X8301Y1887D01*
X8300Y1888D01*
X8299Y1890D01*
X8298Y1891D01*
X8296Y1893D01*
X8295Y1896D01*
X8294Y1898D01*
X8291Y1904D01*
X8289Y1910D01*
X8288Y1914D01*
X8288Y1917D01*
X8307Y1920D01*
Y1920D01*
X8308Y1919D01*
X8308Y1918D01*
X8308Y1917D01*
X8308Y1916D01*
X8309Y1914D01*
X8310Y1911D01*
X8312Y1906D01*
X8314Y1902D01*
X8316Y1899D01*
X8319Y1896D01*
X8319Y1895D01*
X8320Y1894D01*
X8322Y1893D01*
X8324Y1892D01*
X8327Y1891D01*
X8331Y1890D01*
X8335Y1889D01*
X8339Y1888D01*
X8340D01*
X8341Y1889D01*
X8344Y1889D01*
X8347Y1890D01*
X8350Y1891D01*
X8354Y1892D01*
X8358Y1895D01*
X8362Y1898D01*
X8363Y1898D01*
X8364Y1900D01*
X8365Y1902D01*
X8367Y1905D01*
X8369Y1908D01*
X8370Y1912D01*
X8371Y1917D01*
X8372Y1922D01*
Y1922D01*
Y1922D01*
Y1923D01*
X8372Y1924D01*
X8371Y1927D01*
X8371Y1930D01*
X8370Y1933D01*
X8368Y1937D01*
X8366Y1941D01*
X8363Y1944D01*
X8362Y1945D01*
X8361Y1945D01*
X8359Y1947D01*
X8357Y1949D01*
X8354Y1950D01*
X8350Y1952D01*
X8345Y1952D01*
X8340Y1953D01*
X8338D01*
X8337Y1953D01*
X8335Y1952D01*
X8332Y1952D01*
X8329Y1952D01*
X8326Y1951D01*
X8329Y1968D01*
X8330D01*
X8331Y1968D01*
X8334D01*
X8336Y1968D01*
X8339Y1969D01*
X8343Y1970D01*
X8347Y1971D01*
X8350Y1972D01*
X8354Y1974D01*
X8355D01*
X8355Y1975D01*
X8356Y1976D01*
X8358Y1977D01*
X8360Y1979D01*
X8361Y1982D01*
X8363Y1986D01*
X8364Y1990D01*
X8365Y1992D01*
Y1995D01*
Y1995D01*
Y1995D01*
Y1996D01*
X8364Y1998D01*
X8364Y2001D01*
X8363Y2004D01*
X8362Y2007D01*
X8360Y2010D01*
X8357Y2012D01*
X8357Y2013D01*
X8356Y2014D01*
X8354Y2015D01*
X8352Y2016D01*
X8349Y2017D01*
X8346Y2018D01*
X8342Y2019D01*
X8338Y2020D01*
X8336D01*
X8334Y2019D01*
X8332Y2019D01*
X8329Y2018D01*
X8326Y2017D01*
X8322Y2015D01*
X8319Y2012D01*
X8319Y2012D01*
X8318Y2011D01*
X8317Y2009D01*
X8315Y2007D01*
X8313Y2004D01*
X8312Y2000D01*
X8310Y1996D01*
X8310Y1991D01*
X8290Y1994D01*
Y1995D01*
X8290Y1995D01*
X8290Y1996D01*
X8291Y1998D01*
X8291Y1999D01*
X8292Y2001D01*
X8293Y2005D01*
X8295Y2011D01*
X8298Y2016D01*
X8302Y2020D01*
X8306Y2025D01*
X8306Y2025D01*
X8307Y2025D01*
X8307Y2026D01*
X8308Y2026D01*
X8310Y2027D01*
X8311Y2028D01*
X8313Y2029D01*
X8315Y2030D01*
X8319Y2032D01*
X8325Y2034D01*
X8331Y2035D01*
X8334Y2036D01*
X8340D01*
X8343Y2036D01*
D02*
G37*
G36*
X8231Y1875D02*
X8213D01*
X8169Y1991D01*
X8190D01*
X8215Y1921D01*
Y1921D01*
X8215Y1921D01*
X8215Y1920D01*
X8215Y1920D01*
X8216Y1917D01*
X8217Y1914D01*
X8218Y1911D01*
X8220Y1907D01*
X8221Y1902D01*
X8222Y1898D01*
X8222Y1899D01*
X8223Y1900D01*
X8223Y1902D01*
X8224Y1904D01*
X8225Y1907D01*
X8226Y1911D01*
X8228Y1915D01*
X8229Y1920D01*
X8255Y1991D01*
X8276D01*
X8231Y1875D01*
D02*
G37*
G36*
X8087D02*
X8067D01*
Y2009D01*
X8020Y1875D01*
X8001D01*
X7955Y2011D01*
Y1875D01*
X7934Y1875D01*
Y2035D01*
X7966Y2035D01*
X8004Y1921D01*
Y1921D01*
X8004Y1921D01*
X8004Y1920D01*
X8005Y1919D01*
X8006Y1916D01*
X8007Y1913D01*
X8008Y1909D01*
X8009Y1905D01*
X8011Y1901D01*
X8012Y1898D01*
X8012Y1898D01*
X8012Y1899D01*
X8013Y1902D01*
X8014Y1904D01*
X8015Y1908D01*
X8016Y1912D01*
X8018Y1917D01*
X8020Y1924D01*
X8058Y2035D01*
X8087D01*
Y1875D01*
D02*
G37*
G36*
X7853Y1875D02*
X7831D01*
X7769Y2035D01*
X7792D01*
X7834Y1919D01*
Y1918D01*
X7834Y1918D01*
X7834Y1917D01*
X7835Y1916D01*
X7835Y1915D01*
X7835Y1914D01*
X7837Y1910D01*
X7838Y1906D01*
X7839Y1902D01*
X7842Y1893D01*
Y1893D01*
X7842Y1893D01*
X7843Y1894D01*
X7843Y1895D01*
X7844Y1897D01*
X7845Y1901D01*
X7846Y1905D01*
X7847Y1909D01*
X7849Y1914D01*
X7851Y1919D01*
X7894Y2035D01*
X7916D01*
X7853Y1875D01*
D02*
G37*
G36*
X8656Y2036D02*
X8658Y2035D01*
X8660Y2035D01*
X8662Y2035D01*
X8665Y2034D01*
X8671Y2033D01*
X8677Y2030D01*
X8680Y2029D01*
X8683Y2027D01*
X8686Y2025D01*
X8688Y2023D01*
X8689Y2023D01*
X8689Y2022D01*
X8689Y2021D01*
X8690Y2020D01*
X8692Y2019D01*
X8693Y2018D01*
X8694Y2016D01*
X8695Y2014D01*
X8698Y2010D01*
X8700Y2004D01*
X8701Y2001D01*
X8701Y1998D01*
X8702Y1995D01*
X8702Y1991D01*
Y1991D01*
Y1990D01*
X8702Y1988D01*
X8702Y1985D01*
X8701Y1983D01*
X8700Y1979D01*
X8699Y1976D01*
X8698Y1972D01*
X8698Y1972D01*
X8697Y1971D01*
X8696Y1969D01*
X8695Y1966D01*
X8693Y1964D01*
X8691Y1960D01*
X8688Y1957D01*
X8685Y1953D01*
X8684Y1952D01*
X8683Y1951D01*
X8682Y1950D01*
X8681Y1949D01*
X8679Y1947D01*
X8677Y1945D01*
X8676Y1943D01*
X8673Y1941D01*
X8671Y1939D01*
X8668Y1936D01*
X8665Y1934D01*
X8662Y1931D01*
X8658Y1928D01*
X8655Y1925D01*
X8654Y1924D01*
X8654Y1924D01*
X8653Y1923D01*
X8652Y1922D01*
X8650Y1921D01*
X8649Y1920D01*
X8645Y1917D01*
X8641Y1913D01*
X8637Y1910D01*
X8634Y1907D01*
X8633Y1905D01*
X8632Y1904D01*
X8631Y1904D01*
X8631Y1903D01*
X8630Y1902D01*
X8629Y1901D01*
X8627Y1899D01*
X8626Y1898D01*
X8623Y1894D01*
X8702D01*
Y1875D01*
X8596D01*
Y1875D01*
Y1876D01*
Y1877D01*
X8596Y1879D01*
X8596Y1881D01*
X8597Y1884D01*
X8597Y1886D01*
X8598Y1889D01*
Y1889D01*
X8599Y1889D01*
X8599Y1890D01*
X8600Y1893D01*
X8601Y1895D01*
X8603Y1899D01*
X8605Y1902D01*
X8608Y1906D01*
X8611Y1910D01*
Y1910D01*
X8612Y1910D01*
X8613Y1912D01*
X8615Y1914D01*
X8618Y1917D01*
X8621Y1920D01*
X8626Y1924D01*
X8631Y1929D01*
X8637Y1934D01*
X8637Y1934D01*
X8638Y1935D01*
X8640Y1936D01*
X8641Y1937D01*
X8643Y1939D01*
X8646Y1941D01*
X8648Y1944D01*
X8651Y1946D01*
X8657Y1952D01*
X8663Y1957D01*
X8666Y1960D01*
X8668Y1963D01*
X8671Y1965D01*
X8672Y1968D01*
Y1968D01*
X8673Y1968D01*
X8673Y1969D01*
X8674Y1970D01*
X8675Y1973D01*
X8677Y1976D01*
X8679Y1979D01*
X8680Y1983D01*
X8681Y1988D01*
X8682Y1992D01*
Y1992D01*
Y1992D01*
X8682Y1994D01*
X8681Y1996D01*
X8681Y1998D01*
X8680Y2002D01*
X8678Y2005D01*
X8676Y2008D01*
X8673Y2011D01*
X8673Y2012D01*
X8672Y2013D01*
X8670Y2014D01*
X8668Y2016D01*
X8664Y2017D01*
X8661Y2018D01*
X8656Y2019D01*
X8651Y2020D01*
X8650D01*
X8649Y2019D01*
X8646Y2019D01*
X8643Y2018D01*
X8640Y2017D01*
X8636Y2016D01*
X8632Y2014D01*
X8628Y2011D01*
X8628Y2011D01*
X8627Y2009D01*
X8626Y2008D01*
X8624Y2005D01*
X8623Y2001D01*
X8621Y1997D01*
X8620Y1993D01*
X8620Y1987D01*
X8600Y1989D01*
Y1990D01*
X8600Y1990D01*
Y1992D01*
X8600Y1993D01*
X8601Y1995D01*
X8601Y1997D01*
X8602Y2000D01*
X8602Y2002D01*
X8604Y2008D01*
X8607Y2013D01*
X8609Y2016D01*
X8611Y2019D01*
X8613Y2021D01*
X8615Y2024D01*
X8615Y2024D01*
X8616Y2024D01*
X8617Y2025D01*
X8618Y2026D01*
X8619Y2026D01*
X8621Y2027D01*
X8623Y2029D01*
X8625Y2030D01*
X8627Y2031D01*
X8630Y2032D01*
X8633Y2033D01*
X8637Y2034D01*
X8640Y2035D01*
X8644Y2035D01*
X8648Y2036D01*
X8652Y2036D01*
X8654D01*
X8656Y2036D01*
D02*
G37*
G36*
X8446Y1875D02*
X8423D01*
Y1897D01*
X8446D01*
Y1875D01*
D02*
G37*
G36*
X7753Y2016D02*
X7658D01*
Y1967D01*
X7747D01*
Y1948D01*
X7658D01*
Y1894D01*
X7756D01*
Y1875D01*
X7637D01*
Y2035D01*
X7753D01*
Y2016D01*
D02*
G37*
G36*
X7427Y2035D02*
X7429D01*
X7434Y2035D01*
X7439Y2034D01*
X7444Y2033D01*
X7449Y2032D01*
X7452Y2031D01*
X7454Y2031D01*
X7454D01*
X7455Y2030D01*
X7456Y2030D01*
X7458Y2029D01*
X7461Y2027D01*
X7463Y2025D01*
X7466Y2022D01*
X7469Y2019D01*
X7472Y2015D01*
Y2015D01*
X7472Y2015D01*
X7473Y2014D01*
X7474Y2011D01*
X7475Y2008D01*
X7477Y2005D01*
X7478Y2001D01*
X7478Y1996D01*
X7479Y1991D01*
Y1991D01*
Y1991D01*
Y1990D01*
X7478Y1989D01*
Y1987D01*
X7478Y1985D01*
X7477Y1981D01*
X7476Y1977D01*
X7474Y1972D01*
X7471Y1967D01*
X7469Y1965D01*
X7468Y1962D01*
X7467Y1962D01*
X7467Y1962D01*
X7466Y1961D01*
X7465Y1961D01*
X7464Y1960D01*
X7463Y1959D01*
X7461Y1958D01*
X7459Y1956D01*
X7457Y1955D01*
X7454Y1954D01*
X7452Y1952D01*
X7449Y1951D01*
X7445Y1950D01*
X7442Y1949D01*
X7438Y1949D01*
X7433Y1948D01*
X7434Y1948D01*
X7435Y1947D01*
X7436Y1946D01*
X7438Y1945D01*
X7442Y1943D01*
X7444Y1941D01*
X7446Y1940D01*
X7447Y1939D01*
X7448Y1938D01*
X7450Y1936D01*
X7452Y1934D01*
X7455Y1931D01*
X7458Y1927D01*
X7461Y1923D01*
X7464Y1918D01*
X7491Y1875D01*
X7465D01*
X7444Y1908D01*
Y1908D01*
X7443Y1909D01*
X7443Y1910D01*
X7442Y1911D01*
X7441Y1913D01*
X7439Y1916D01*
X7436Y1920D01*
X7433Y1924D01*
X7431Y1927D01*
X7429Y1930D01*
X7428Y1930D01*
X7428Y1931D01*
X7427Y1933D01*
X7425Y1934D01*
X7421Y1938D01*
X7420Y1939D01*
X7418Y1941D01*
X7418Y1941D01*
X7417Y1941D01*
X7416Y1942D01*
X7415Y1942D01*
X7413Y1943D01*
X7412Y1944D01*
X7408Y1945D01*
X7408D01*
X7407Y1945D01*
X7406D01*
X7405Y1945D01*
X7404Y1946D01*
X7402D01*
X7399Y1946D01*
X7372D01*
Y1875D01*
X7351D01*
Y2035D01*
X7425D01*
X7427Y2035D01*
D02*
G37*
G36*
X7246Y1894D02*
X7325D01*
Y1875D01*
X7225D01*
Y2035D01*
X7246D01*
Y1894D01*
D02*
G37*
G36*
X8531Y2036D02*
X8534Y2035D01*
X8538Y2034D01*
X8541Y2033D01*
X8545Y2032D01*
X8549Y2030D01*
X8549D01*
X8549Y2030D01*
X8551Y2029D01*
X8553Y2028D01*
X8555Y2027D01*
X8557Y2024D01*
X8560Y2022D01*
X8563Y2019D01*
X8565Y2015D01*
X8565Y2015D01*
X8566Y2014D01*
X8567Y2012D01*
X8569Y2009D01*
X8570Y2005D01*
X8572Y2001D01*
X8574Y1997D01*
X8575Y1992D01*
Y1991D01*
X8575Y1991D01*
X8576Y1990D01*
X8576Y1989D01*
X8576Y1988D01*
X8576Y1986D01*
X8577Y1984D01*
X8577Y1982D01*
X8577Y1979D01*
X8578Y1976D01*
X8578Y1973D01*
X8578Y1970D01*
X8579Y1966D01*
Y1962D01*
X8579Y1958D01*
Y1954D01*
Y1954D01*
Y1953D01*
Y1951D01*
Y1949D01*
X8579Y1947D01*
Y1944D01*
X8578Y1941D01*
X8578Y1938D01*
X8577Y1930D01*
X8576Y1923D01*
X8575Y1915D01*
X8574Y1912D01*
X8573Y1908D01*
Y1908D01*
X8573Y1908D01*
X8572Y1907D01*
X8572Y1905D01*
X8571Y1904D01*
X8570Y1902D01*
X8568Y1898D01*
X8566Y1894D01*
X8563Y1890D01*
X8560Y1885D01*
X8556Y1881D01*
X8555D01*
X8555Y1881D01*
X8554Y1880D01*
X8553Y1880D01*
X8552Y1879D01*
X8551Y1878D01*
X8548Y1877D01*
X8543Y1875D01*
X8539Y1874D01*
X8533Y1873D01*
X8527Y1872D01*
X8524D01*
X8523Y1872D01*
X8521Y1873D01*
X8518Y1873D01*
X8516Y1874D01*
X8513Y1874D01*
X8510Y1875D01*
X8507Y1876D01*
X8504Y1877D01*
X8501Y1879D01*
X8498Y1881D01*
X8495Y1883D01*
X8493Y1886D01*
X8490Y1889D01*
X8490Y1889D01*
X8489Y1890D01*
X8489Y1891D01*
X8487Y1893D01*
X8486Y1895D01*
X8485Y1897D01*
X8484Y1901D01*
X8482Y1904D01*
X8481Y1908D01*
X8479Y1913D01*
X8478Y1919D01*
X8477Y1925D01*
X8476Y1931D01*
X8475Y1938D01*
X8475Y1946D01*
X8474Y1954D01*
Y1954D01*
Y1955D01*
Y1957D01*
Y1958D01*
X8475Y1961D01*
Y1964D01*
X8475Y1967D01*
X8475Y1970D01*
X8476Y1977D01*
X8477Y1985D01*
X8478Y1993D01*
X8479Y1996D01*
X8480Y2000D01*
Y2000D01*
X8480Y2000D01*
X8481Y2001D01*
X8481Y2002D01*
X8482Y2004D01*
X8483Y2006D01*
X8484Y2010D01*
X8487Y2014D01*
X8490Y2018D01*
X8493Y2023D01*
X8497Y2026D01*
X8498D01*
X8498Y2027D01*
X8499Y2027D01*
X8500Y2028D01*
X8501Y2029D01*
X8502Y2029D01*
X8506Y2031D01*
X8510Y2033D01*
X8515Y2034D01*
X8520Y2035D01*
X8527Y2036D01*
X8529D01*
X8531Y2036D01*
D02*
G37*
G36*
X7621Y1830D02*
X7491D01*
Y1845D01*
X7621D01*
Y1830D01*
D02*
G37*
G36*
X7800Y1805D02*
X7801D01*
X7805Y1805D01*
X7809Y1804D01*
X7813Y1803D01*
X7817Y1802D01*
X7821Y1801D01*
X7822D01*
X7822Y1801D01*
X7823Y1800D01*
X7823Y1800D01*
X7825Y1799D01*
X7828Y1798D01*
X7831Y1796D01*
X7834Y1794D01*
X7836Y1791D01*
X7839Y1788D01*
X7839Y1788D01*
X7840Y1787D01*
X7841Y1785D01*
X7843Y1783D01*
X7844Y1780D01*
X7846Y1776D01*
X7848Y1772D01*
X7849Y1767D01*
X7833Y1763D01*
Y1763D01*
X7833Y1764D01*
X7833Y1764D01*
X7833Y1765D01*
X7832Y1767D01*
X7832Y1769D01*
X7831Y1771D01*
X7829Y1774D01*
X7828Y1776D01*
X7826Y1779D01*
X7826Y1779D01*
X7826Y1780D01*
X7824Y1780D01*
X7823Y1782D01*
X7821Y1783D01*
X7819Y1785D01*
X7817Y1786D01*
X7814Y1788D01*
X7814Y1788D01*
X7813Y1788D01*
X7811Y1789D01*
X7809Y1789D01*
X7806Y1790D01*
X7803Y1790D01*
X7800Y1791D01*
X7796Y1791D01*
X7794D01*
X7793Y1791D01*
X7792D01*
X7790Y1791D01*
X7786Y1790D01*
X7783Y1790D01*
X7780Y1789D01*
X7776Y1787D01*
X7776Y1787D01*
X7775Y1787D01*
X7773Y1786D01*
X7771Y1785D01*
X7769Y1783D01*
X7767Y1782D01*
X7765Y1780D01*
X7763Y1778D01*
X7762Y1778D01*
X7762Y1777D01*
X7761Y1776D01*
X7760Y1774D01*
X7758Y1773D01*
X7757Y1770D01*
X7756Y1768D01*
X7754Y1765D01*
Y1765D01*
X7754Y1765D01*
X7754Y1764D01*
X7754Y1763D01*
X7753Y1762D01*
X7753Y1761D01*
X7752Y1759D01*
X7752Y1758D01*
X7751Y1754D01*
X7750Y1749D01*
X7750Y1745D01*
X7750Y1740D01*
Y1739D01*
Y1739D01*
Y1738D01*
X7750Y1737D01*
Y1735D01*
X7750Y1733D01*
X7750Y1732D01*
X7750Y1730D01*
X7751Y1725D01*
X7752Y1720D01*
X7753Y1715D01*
X7755Y1711D01*
Y1710D01*
X7756Y1710D01*
X7756Y1710D01*
X7756Y1709D01*
X7758Y1707D01*
X7760Y1704D01*
X7762Y1701D01*
X7765Y1699D01*
X7769Y1696D01*
X7773Y1694D01*
X7773D01*
X7773Y1693D01*
X7774Y1693D01*
X7775Y1693D01*
X7776Y1692D01*
X7777Y1692D01*
X7780Y1691D01*
X7783Y1690D01*
X7788Y1689D01*
X7792Y1688D01*
X7797Y1688D01*
X7798D01*
X7800Y1688D01*
X7801D01*
X7803Y1689D01*
X7807Y1689D01*
X7810Y1690D01*
X7814Y1691D01*
X7818Y1692D01*
X7818D01*
X7819Y1692D01*
X7819Y1693D01*
X7820Y1693D01*
X7822Y1694D01*
X7824Y1695D01*
X7827Y1696D01*
X7829Y1698D01*
X7832Y1699D01*
X7834Y1701D01*
Y1725D01*
X7796D01*
Y1740D01*
X7851D01*
Y1693D01*
X7851Y1693D01*
X7850Y1693D01*
X7850Y1692D01*
X7849Y1691D01*
X7848Y1690D01*
X7846Y1690D01*
X7845Y1688D01*
X7843Y1687D01*
X7839Y1685D01*
X7835Y1682D01*
X7830Y1680D01*
X7825Y1678D01*
X7825D01*
X7824Y1678D01*
X7824Y1678D01*
X7823Y1677D01*
X7821Y1677D01*
X7820Y1676D01*
X7818Y1676D01*
X7817Y1675D01*
X7813Y1675D01*
X7808Y1674D01*
X7803Y1673D01*
X7798Y1673D01*
X7796D01*
X7795Y1673D01*
X7793D01*
X7791Y1673D01*
X7789Y1674D01*
X7786Y1674D01*
X7781Y1675D01*
X7775Y1676D01*
X7769Y1678D01*
X7766Y1679D01*
X7763Y1681D01*
X7763Y1681D01*
X7763Y1681D01*
X7762Y1682D01*
X7761Y1682D01*
X7759Y1683D01*
X7758Y1684D01*
X7755Y1687D01*
X7751Y1690D01*
X7747Y1694D01*
X7743Y1699D01*
X7740Y1704D01*
Y1704D01*
X7740Y1705D01*
X7739Y1706D01*
X7739Y1707D01*
X7738Y1708D01*
X7738Y1710D01*
X7737Y1712D01*
X7736Y1714D01*
X7735Y1717D01*
X7735Y1719D01*
X7734Y1722D01*
X7733Y1725D01*
X7733Y1732D01*
X7732Y1738D01*
Y1739D01*
Y1739D01*
Y1740D01*
X7732Y1742D01*
Y1743D01*
X7733Y1745D01*
X7733Y1747D01*
X7733Y1750D01*
X7734Y1752D01*
X7734Y1755D01*
X7736Y1761D01*
X7737Y1767D01*
X7740Y1773D01*
X7740Y1773D01*
X7740Y1774D01*
X7741Y1775D01*
X7741Y1776D01*
X7742Y1777D01*
X7743Y1779D01*
X7746Y1782D01*
X7749Y1786D01*
X7753Y1790D01*
X7757Y1794D01*
X7760Y1796D01*
X7762Y1798D01*
X7763Y1798D01*
X7763Y1798D01*
X7764Y1798D01*
X7765Y1799D01*
X7766Y1799D01*
X7768Y1800D01*
X7770Y1801D01*
X7772Y1802D01*
X7775Y1802D01*
X7777Y1803D01*
X7780Y1804D01*
X7783Y1804D01*
X7789Y1805D01*
X7793Y1805D01*
X7799D01*
X7800Y1805D01*
D02*
G37*
G36*
X7576Y1770D02*
X7577D01*
X7578Y1770D01*
X7582Y1769D01*
X7586Y1768D01*
X7590Y1767D01*
X7594Y1765D01*
X7598Y1762D01*
X7598D01*
X7598Y1762D01*
X7599Y1761D01*
X7601Y1759D01*
X7603Y1757D01*
X7605Y1754D01*
X7607Y1750D01*
X7609Y1746D01*
X7610Y1741D01*
X7595Y1738D01*
Y1739D01*
X7595Y1739D01*
X7594Y1740D01*
X7594Y1742D01*
X7593Y1744D01*
X7592Y1746D01*
X7591Y1748D01*
X7589Y1750D01*
X7587Y1752D01*
X7587Y1753D01*
X7586Y1753D01*
X7585Y1754D01*
X7583Y1755D01*
X7581Y1756D01*
X7579Y1756D01*
X7576Y1757D01*
X7574Y1757D01*
X7573D01*
X7572Y1757D01*
X7570Y1757D01*
X7567Y1756D01*
X7564Y1755D01*
X7561Y1754D01*
X7557Y1751D01*
X7556Y1750D01*
X7554Y1749D01*
Y1748D01*
X7554Y1748D01*
X7554Y1748D01*
X7553Y1747D01*
X7553Y1746D01*
X7552Y1745D01*
X7551Y1744D01*
X7551Y1742D01*
X7550Y1740D01*
X7549Y1738D01*
X7549Y1736D01*
X7548Y1734D01*
X7548Y1731D01*
X7547Y1728D01*
X7547Y1725D01*
Y1722D01*
Y1721D01*
Y1721D01*
Y1720D01*
X7547Y1719D01*
Y1717D01*
X7547Y1715D01*
X7548Y1711D01*
X7549Y1707D01*
X7550Y1702D01*
X7552Y1698D01*
X7553Y1696D01*
X7554Y1694D01*
X7554Y1694D01*
X7555Y1693D01*
X7557Y1692D01*
X7559Y1690D01*
X7562Y1689D01*
X7565Y1687D01*
X7569Y1686D01*
X7571Y1686D01*
X7573Y1686D01*
X7573D01*
X7574Y1686D01*
X7576Y1686D01*
X7578Y1687D01*
X7581Y1687D01*
X7583Y1688D01*
X7586Y1690D01*
X7588Y1692D01*
X7589Y1692D01*
X7589Y1693D01*
X7590Y1694D01*
X7591Y1696D01*
X7593Y1698D01*
X7594Y1701D01*
X7595Y1705D01*
X7596Y1709D01*
X7612Y1707D01*
Y1707D01*
X7611Y1706D01*
X7611Y1706D01*
X7611Y1705D01*
X7611Y1703D01*
X7610Y1702D01*
X7609Y1698D01*
X7607Y1694D01*
X7605Y1690D01*
X7602Y1686D01*
X7600Y1684D01*
X7599Y1682D01*
X7598Y1682D01*
X7598Y1682D01*
X7597Y1681D01*
X7597Y1681D01*
X7596Y1680D01*
X7594Y1679D01*
X7593Y1678D01*
X7591Y1678D01*
X7588Y1676D01*
X7583Y1675D01*
X7579Y1673D01*
X7576Y1673D01*
X7573Y1673D01*
X7571D01*
X7570Y1673D01*
X7568Y1673D01*
X7566Y1674D01*
X7564Y1674D01*
X7562Y1675D01*
X7557Y1676D01*
X7555Y1677D01*
X7552Y1678D01*
X7549Y1680D01*
X7547Y1681D01*
X7545Y1683D01*
X7542Y1685D01*
X7542Y1686D01*
X7542Y1686D01*
X7541Y1687D01*
X7541Y1688D01*
X7540Y1689D01*
X7539Y1691D01*
X7538Y1693D01*
X7537Y1695D01*
X7536Y1697D01*
X7535Y1700D01*
X7534Y1703D01*
X7533Y1706D01*
X7532Y1709D01*
X7531Y1713D01*
X7531Y1717D01*
X7531Y1721D01*
Y1721D01*
Y1722D01*
Y1723D01*
Y1724D01*
X7531Y1725D01*
Y1727D01*
X7531Y1728D01*
X7531Y1730D01*
X7532Y1734D01*
X7533Y1739D01*
X7534Y1743D01*
X7536Y1748D01*
Y1748D01*
X7536Y1748D01*
X7536Y1749D01*
X7537Y1749D01*
X7538Y1751D01*
X7539Y1754D01*
X7542Y1757D01*
X7544Y1759D01*
X7547Y1762D01*
X7551Y1764D01*
X7551D01*
X7551Y1765D01*
X7552Y1765D01*
X7553Y1765D01*
X7554Y1766D01*
X7555Y1766D01*
X7558Y1767D01*
X7561Y1768D01*
X7565Y1769D01*
X7569Y1770D01*
X7573Y1770D01*
X7575D01*
X7576Y1770D01*
D02*
G37*
G36*
X8503Y1720D02*
X8521D01*
Y1706D01*
X8503D01*
Y1675D01*
X8487D01*
Y1706D01*
X8432D01*
Y1720D01*
X8490Y1803D01*
X8503D01*
Y1720D01*
D02*
G37*
G36*
X8383Y1804D02*
X8385Y1803D01*
X8386Y1803D01*
X8388Y1803D01*
X8390Y1802D01*
X8395Y1801D01*
X8400Y1799D01*
X8402Y1798D01*
X8405Y1797D01*
X8407Y1795D01*
X8409Y1793D01*
X8409Y1793D01*
X8410Y1793D01*
X8410Y1792D01*
X8411Y1792D01*
X8412Y1791D01*
X8413Y1789D01*
X8414Y1788D01*
X8415Y1786D01*
X8417Y1783D01*
X8418Y1778D01*
X8419Y1776D01*
X8420Y1774D01*
X8420Y1771D01*
X8420Y1768D01*
Y1768D01*
Y1767D01*
X8420Y1765D01*
X8420Y1763D01*
X8419Y1761D01*
X8419Y1759D01*
X8418Y1756D01*
X8417Y1753D01*
X8417Y1753D01*
X8416Y1752D01*
X8415Y1750D01*
X8414Y1748D01*
X8413Y1746D01*
X8411Y1743D01*
X8409Y1740D01*
X8406Y1737D01*
X8406Y1737D01*
X8405Y1736D01*
X8404Y1735D01*
X8403Y1734D01*
X8402Y1733D01*
X8400Y1731D01*
X8399Y1730D01*
X8397Y1728D01*
X8395Y1726D01*
X8393Y1724D01*
X8391Y1722D01*
X8388Y1720D01*
X8385Y1718D01*
X8382Y1715D01*
X8382Y1715D01*
X8382Y1714D01*
X8381Y1714D01*
X8380Y1713D01*
X8379Y1712D01*
X8377Y1711D01*
X8375Y1708D01*
X8371Y1706D01*
X8368Y1703D01*
X8366Y1700D01*
X8365Y1700D01*
X8364Y1699D01*
X8364Y1698D01*
X8363Y1698D01*
X8362Y1697D01*
X8361Y1696D01*
X8360Y1695D01*
X8359Y1693D01*
X8357Y1690D01*
X8420D01*
Y1675D01*
X8335D01*
Y1675D01*
Y1676D01*
Y1677D01*
X8335Y1679D01*
X8336Y1680D01*
X8336Y1682D01*
X8336Y1684D01*
X8337Y1686D01*
Y1686D01*
X8337Y1686D01*
X8338Y1688D01*
X8338Y1689D01*
X8340Y1691D01*
X8341Y1694D01*
X8343Y1697D01*
X8345Y1700D01*
X8348Y1703D01*
Y1703D01*
X8348Y1703D01*
X8349Y1705D01*
X8350Y1706D01*
X8353Y1709D01*
X8356Y1711D01*
X8359Y1715D01*
X8363Y1718D01*
X8368Y1722D01*
X8368Y1723D01*
X8369Y1723D01*
X8370Y1724D01*
X8371Y1725D01*
X8373Y1727D01*
X8375Y1728D01*
X8377Y1730D01*
X8380Y1732D01*
X8384Y1737D01*
X8389Y1741D01*
X8391Y1743D01*
X8393Y1745D01*
X8395Y1748D01*
X8396Y1750D01*
Y1750D01*
X8397Y1750D01*
X8397Y1750D01*
X8397Y1751D01*
X8399Y1753D01*
X8400Y1756D01*
X8402Y1759D01*
X8403Y1762D01*
X8404Y1765D01*
X8404Y1769D01*
Y1769D01*
Y1769D01*
X8404Y1770D01*
X8404Y1772D01*
X8403Y1774D01*
X8402Y1777D01*
X8401Y1779D01*
X8399Y1782D01*
X8397Y1784D01*
X8397Y1785D01*
X8396Y1785D01*
X8395Y1786D01*
X8392Y1788D01*
X8390Y1789D01*
X8387Y1790D01*
X8383Y1791D01*
X8380Y1791D01*
X8378D01*
X8378Y1791D01*
X8375Y1790D01*
X8373Y1790D01*
X8370Y1789D01*
X8367Y1788D01*
X8364Y1786D01*
X8361Y1784D01*
X8361Y1784D01*
X8360Y1783D01*
X8359Y1781D01*
X8358Y1779D01*
X8357Y1776D01*
X8355Y1773D01*
X8355Y1769D01*
X8354Y1765D01*
X8338Y1767D01*
Y1767D01*
X8338Y1768D01*
Y1768D01*
X8339Y1770D01*
X8339Y1771D01*
X8339Y1773D01*
X8340Y1775D01*
X8340Y1777D01*
X8342Y1781D01*
X8344Y1786D01*
X8345Y1788D01*
X8347Y1790D01*
X8349Y1792D01*
X8351Y1794D01*
X8351Y1794D01*
X8351Y1795D01*
X8352Y1795D01*
X8353Y1796D01*
X8354Y1796D01*
X8355Y1797D01*
X8357Y1798D01*
X8358Y1799D01*
X8360Y1800D01*
X8363Y1801D01*
X8365Y1802D01*
X8368Y1802D01*
X8370Y1803D01*
X8373Y1803D01*
X8377Y1804D01*
X8380Y1804D01*
X8382D01*
X8383Y1804D01*
D02*
G37*
G36*
X8184D02*
X8185Y1803D01*
X8187Y1803D01*
X8189Y1803D01*
X8191Y1802D01*
X8196Y1801D01*
X8201Y1799D01*
X8203Y1798D01*
X8206Y1797D01*
X8208Y1795D01*
X8210Y1793D01*
X8210Y1793D01*
X8210Y1793D01*
X8211Y1792D01*
X8212Y1792D01*
X8213Y1791D01*
X8213Y1789D01*
X8214Y1788D01*
X8215Y1786D01*
X8217Y1783D01*
X8219Y1778D01*
X8220Y1776D01*
X8220Y1774D01*
X8221Y1771D01*
X8221Y1768D01*
Y1768D01*
Y1767D01*
X8221Y1765D01*
X8220Y1763D01*
X8220Y1761D01*
X8219Y1759D01*
X8219Y1756D01*
X8218Y1753D01*
X8217Y1753D01*
X8217Y1752D01*
X8216Y1750D01*
X8215Y1748D01*
X8214Y1746D01*
X8212Y1743D01*
X8210Y1740D01*
X8207Y1737D01*
X8207Y1737D01*
X8206Y1736D01*
X8205Y1735D01*
X8204Y1734D01*
X8203Y1733D01*
X8201Y1731D01*
X8200Y1730D01*
X8198Y1728D01*
X8196Y1726D01*
X8194Y1724D01*
X8191Y1722D01*
X8189Y1720D01*
X8186Y1718D01*
X8183Y1715D01*
X8183Y1715D01*
X8182Y1714D01*
X8182Y1714D01*
X8181Y1713D01*
X8180Y1712D01*
X8178Y1711D01*
X8175Y1708D01*
X8172Y1706D01*
X8169Y1703D01*
X8167Y1700D01*
X8165Y1700D01*
X8165Y1699D01*
X8164Y1698D01*
X8164Y1698D01*
X8163Y1697D01*
X8162Y1696D01*
X8161Y1695D01*
X8160Y1693D01*
X8158Y1690D01*
X8221D01*
Y1675D01*
X8136D01*
Y1675D01*
Y1676D01*
Y1677D01*
X8136Y1679D01*
X8136Y1680D01*
X8137Y1682D01*
X8137Y1684D01*
X8138Y1686D01*
Y1686D01*
X8138Y1686D01*
X8138Y1688D01*
X8139Y1689D01*
X8140Y1691D01*
X8142Y1694D01*
X8144Y1697D01*
X8146Y1700D01*
X8148Y1703D01*
Y1703D01*
X8149Y1703D01*
X8150Y1705D01*
X8151Y1706D01*
X8154Y1709D01*
X8156Y1711D01*
X8160Y1715D01*
X8164Y1718D01*
X8169Y1722D01*
X8169Y1723D01*
X8170Y1723D01*
X8171Y1724D01*
X8172Y1725D01*
X8174Y1727D01*
X8176Y1728D01*
X8178Y1730D01*
X8180Y1732D01*
X8185Y1737D01*
X8190Y1741D01*
X8192Y1743D01*
X8194Y1745D01*
X8196Y1748D01*
X8197Y1750D01*
Y1750D01*
X8198Y1750D01*
X8198Y1750D01*
X8198Y1751D01*
X8200Y1753D01*
X8201Y1756D01*
X8202Y1759D01*
X8204Y1762D01*
X8204Y1765D01*
X8205Y1769D01*
Y1769D01*
Y1769D01*
X8205Y1770D01*
X8204Y1772D01*
X8204Y1774D01*
X8203Y1777D01*
X8202Y1779D01*
X8200Y1782D01*
X8198Y1784D01*
X8198Y1785D01*
X8197Y1785D01*
X8195Y1786D01*
X8193Y1788D01*
X8191Y1789D01*
X8188Y1790D01*
X8184Y1791D01*
X8180Y1791D01*
X8179D01*
X8178Y1791D01*
X8176Y1790D01*
X8174Y1790D01*
X8171Y1789D01*
X8168Y1788D01*
X8165Y1786D01*
X8162Y1784D01*
X8162Y1784D01*
X8161Y1783D01*
X8160Y1781D01*
X8159Y1779D01*
X8157Y1776D01*
X8156Y1773D01*
X8155Y1769D01*
X8155Y1765D01*
X8139Y1767D01*
Y1767D01*
X8139Y1768D01*
Y1768D01*
X8139Y1770D01*
X8140Y1771D01*
X8140Y1773D01*
X8141Y1775D01*
X8141Y1777D01*
X8143Y1781D01*
X8145Y1786D01*
X8146Y1788D01*
X8148Y1790D01*
X8150Y1792D01*
X8151Y1794D01*
X8152Y1794D01*
X8152Y1795D01*
X8153Y1795D01*
X8153Y1796D01*
X8155Y1796D01*
X8156Y1797D01*
X8157Y1798D01*
X8159Y1799D01*
X8161Y1800D01*
X8163Y1801D01*
X8166Y1802D01*
X8168Y1802D01*
X8171Y1803D01*
X8174Y1803D01*
X8177Y1804D01*
X8181Y1804D01*
X8183D01*
X8184Y1804D01*
D02*
G37*
G36*
X8012Y1690D02*
X8075D01*
Y1675D01*
X7995D01*
Y1803D01*
X8012D01*
Y1690D01*
D02*
G37*
G36*
X7927Y1803D02*
X7928D01*
X7932Y1803D01*
X7935Y1802D01*
X7939Y1802D01*
X7943Y1801D01*
X7947Y1799D01*
X7947D01*
X7947Y1799D01*
X7948Y1799D01*
X7950Y1798D01*
X7952Y1796D01*
X7954Y1795D01*
X7956Y1793D01*
X7958Y1790D01*
X7961Y1787D01*
X7961Y1787D01*
X7961Y1786D01*
X7962Y1784D01*
X7963Y1782D01*
X7964Y1780D01*
X7965Y1777D01*
X7966Y1774D01*
X7966Y1770D01*
Y1770D01*
Y1769D01*
X7966Y1768D01*
X7965Y1765D01*
X7965Y1763D01*
X7964Y1760D01*
X7963Y1758D01*
X7961Y1755D01*
X7961Y1755D01*
X7960Y1754D01*
X7959Y1753D01*
X7958Y1751D01*
X7956Y1749D01*
X7954Y1747D01*
X7951Y1745D01*
X7948Y1743D01*
X7948D01*
X7948Y1743D01*
X7949Y1743D01*
X7950Y1743D01*
X7952Y1742D01*
X7954Y1741D01*
X7957Y1739D01*
X7960Y1737D01*
X7963Y1735D01*
X7966Y1732D01*
X7966Y1731D01*
X7967Y1730D01*
X7968Y1728D01*
X7969Y1726D01*
X7970Y1723D01*
X7971Y1720D01*
X7972Y1716D01*
X7972Y1712D01*
Y1712D01*
Y1712D01*
Y1711D01*
X7972Y1709D01*
X7971Y1707D01*
X7971Y1704D01*
X7970Y1701D01*
X7969Y1698D01*
X7968Y1695D01*
X7968Y1695D01*
X7967Y1694D01*
X7967Y1693D01*
X7966Y1691D01*
X7964Y1689D01*
X7963Y1687D01*
X7961Y1685D01*
X7959Y1683D01*
X7958Y1683D01*
X7958Y1683D01*
X7956Y1682D01*
X7955Y1681D01*
X7953Y1680D01*
X7950Y1679D01*
X7948Y1678D01*
X7945Y1677D01*
X7944D01*
X7943Y1677D01*
X7941Y1677D01*
X7939Y1676D01*
X7936Y1676D01*
X7932Y1675D01*
X7928Y1675D01*
X7924Y1675D01*
X7875D01*
Y1803D01*
X7926D01*
X7927Y1803D01*
D02*
G37*
G36*
X8283Y1804D02*
X8286Y1803D01*
X8289Y1803D01*
X8292Y1802D01*
X8295Y1801D01*
X8298Y1800D01*
X8298D01*
X8298Y1799D01*
X8299Y1799D01*
X8300Y1798D01*
X8302Y1797D01*
X8304Y1795D01*
X8307Y1793D01*
X8309Y1790D01*
X8311Y1788D01*
X8311Y1787D01*
X8312Y1786D01*
X8312Y1785D01*
X8314Y1782D01*
X8315Y1779D01*
X8316Y1776D01*
X8318Y1773D01*
X8319Y1768D01*
Y1768D01*
X8319Y1768D01*
X8319Y1767D01*
X8319Y1766D01*
X8319Y1765D01*
X8320Y1764D01*
X8320Y1762D01*
X8320Y1760D01*
X8320Y1758D01*
X8321Y1756D01*
X8321Y1754D01*
X8321Y1751D01*
X8321Y1748D01*
Y1745D01*
X8322Y1742D01*
Y1738D01*
Y1738D01*
Y1737D01*
Y1736D01*
Y1735D01*
X8321Y1733D01*
Y1730D01*
X8321Y1728D01*
X8321Y1725D01*
X8320Y1719D01*
X8320Y1713D01*
X8318Y1707D01*
X8318Y1705D01*
X8317Y1702D01*
Y1702D01*
X8317Y1701D01*
X8316Y1700D01*
X8316Y1700D01*
X8315Y1698D01*
X8315Y1697D01*
X8313Y1694D01*
X8311Y1690D01*
X8309Y1687D01*
X8306Y1683D01*
X8303Y1680D01*
X8303D01*
X8303Y1680D01*
X8302Y1680D01*
X8301Y1679D01*
X8300Y1679D01*
X8299Y1678D01*
X8297Y1677D01*
X8293Y1675D01*
X8289Y1674D01*
X8285Y1673D01*
X8280Y1673D01*
X8278D01*
X8277Y1673D01*
X8275Y1673D01*
X8273Y1674D01*
X8271Y1674D01*
X8269Y1675D01*
X8267Y1675D01*
X8264Y1676D01*
X8262Y1677D01*
X8260Y1678D01*
X8257Y1680D01*
X8255Y1682D01*
X8253Y1684D01*
X8250Y1686D01*
X8250Y1686D01*
X8250Y1687D01*
X8249Y1688D01*
X8248Y1689D01*
X8248Y1691D01*
X8247Y1693D01*
X8245Y1696D01*
X8244Y1699D01*
X8243Y1702D01*
X8242Y1706D01*
X8241Y1710D01*
X8240Y1715D01*
X8239Y1720D01*
X8238Y1726D01*
X8238Y1732D01*
X8238Y1738D01*
Y1738D01*
Y1739D01*
Y1740D01*
Y1742D01*
X8238Y1744D01*
Y1746D01*
X8238Y1749D01*
X8238Y1751D01*
X8239Y1757D01*
X8240Y1763D01*
X8241Y1769D01*
X8242Y1772D01*
X8243Y1775D01*
Y1775D01*
X8243Y1775D01*
X8243Y1776D01*
X8243Y1777D01*
X8244Y1778D01*
X8245Y1780D01*
X8246Y1783D01*
X8248Y1786D01*
X8250Y1790D01*
X8253Y1793D01*
X8256Y1796D01*
X8257D01*
X8257Y1797D01*
X8257Y1797D01*
X8258Y1797D01*
X8259Y1798D01*
X8260Y1799D01*
X8263Y1800D01*
X8266Y1801D01*
X8270Y1803D01*
X8275Y1803D01*
X8280Y1804D01*
X8281D01*
X8283Y1804D01*
D02*
G37*
G36*
X7636Y1805D02*
X7636Y1805D01*
X7637Y1803D01*
X7638Y1802D01*
X7640Y1800D01*
X7641Y1797D01*
X7643Y1795D01*
X7645Y1792D01*
X7647Y1788D01*
X7649Y1785D01*
X7651Y1781D01*
X7653Y1778D01*
X7656Y1770D01*
X7658Y1765D01*
X7660Y1761D01*
Y1761D01*
X7660Y1760D01*
X7660Y1759D01*
X7661Y1758D01*
X7661Y1756D01*
X7662Y1754D01*
X7662Y1752D01*
X7663Y1749D01*
X7664Y1746D01*
X7664Y1743D01*
X7665Y1740D01*
X7665Y1736D01*
X7666Y1729D01*
X7666Y1721D01*
Y1721D01*
Y1720D01*
Y1719D01*
X7666Y1717D01*
Y1715D01*
X7666Y1713D01*
X7666Y1710D01*
X7665Y1707D01*
X7665Y1703D01*
X7664Y1700D01*
X7663Y1692D01*
X7662Y1688D01*
X7660Y1684D01*
X7659Y1680D01*
X7657Y1676D01*
X7657Y1675D01*
X7657Y1675D01*
X7656Y1674D01*
X7656Y1672D01*
X7655Y1670D01*
X7654Y1668D01*
X7653Y1665D01*
X7651Y1663D01*
X7650Y1660D01*
X7648Y1657D01*
X7644Y1650D01*
X7640Y1644D01*
X7636Y1637D01*
X7624D01*
Y1638D01*
X7625Y1638D01*
X7625Y1638D01*
X7625Y1639D01*
X7626Y1640D01*
X7627Y1641D01*
X7627Y1643D01*
X7628Y1645D01*
X7630Y1648D01*
X7633Y1653D01*
X7635Y1658D01*
X7637Y1664D01*
X7640Y1670D01*
X7642Y1676D01*
X7644Y1683D01*
X7646Y1690D01*
X7648Y1698D01*
X7649Y1706D01*
X7650Y1713D01*
X7650Y1721D01*
Y1722D01*
Y1722D01*
Y1723D01*
Y1724D01*
X7650Y1726D01*
Y1728D01*
X7650Y1729D01*
X7650Y1732D01*
X7650Y1734D01*
X7649Y1737D01*
X7649Y1742D01*
X7648Y1748D01*
X7646Y1754D01*
Y1754D01*
X7646Y1755D01*
X7646Y1755D01*
X7646Y1756D01*
X7646Y1757D01*
X7645Y1759D01*
X7644Y1762D01*
X7643Y1766D01*
X7642Y1770D01*
X7640Y1775D01*
X7638Y1779D01*
Y1779D01*
X7638Y1780D01*
X7638Y1780D01*
X7637Y1781D01*
X7637Y1782D01*
X7636Y1783D01*
X7636Y1784D01*
X7635Y1785D01*
X7634Y1787D01*
X7633Y1789D01*
X7632Y1791D01*
X7631Y1794D01*
X7629Y1796D01*
X7628Y1799D01*
X7626Y1802D01*
X7624Y1805D01*
X7636D01*
X7636Y1805D01*
D02*
G37*
G36*
X7517D02*
X7517Y1805D01*
X7516Y1804D01*
X7516Y1802D01*
X7515Y1801D01*
X7514Y1799D01*
X7511Y1795D01*
X7509Y1791D01*
X7507Y1787D01*
X7505Y1783D01*
X7504Y1781D01*
X7503Y1779D01*
Y1779D01*
X7503Y1779D01*
X7503Y1778D01*
X7502Y1777D01*
X7502Y1776D01*
X7501Y1775D01*
X7501Y1773D01*
X7500Y1772D01*
X7499Y1768D01*
X7497Y1764D01*
X7496Y1759D01*
X7495Y1754D01*
Y1754D01*
X7495Y1753D01*
X7494Y1753D01*
X7494Y1751D01*
X7494Y1750D01*
X7494Y1748D01*
X7493Y1746D01*
X7493Y1744D01*
X7493Y1742D01*
X7492Y1739D01*
X7492Y1733D01*
X7491Y1728D01*
X7491Y1721D01*
Y1721D01*
Y1721D01*
Y1720D01*
Y1720D01*
X7491Y1718D01*
Y1717D01*
X7491Y1716D01*
Y1714D01*
X7492Y1710D01*
X7492Y1706D01*
X7493Y1701D01*
X7494Y1695D01*
X7496Y1689D01*
X7497Y1682D01*
X7500Y1675D01*
X7502Y1668D01*
X7505Y1661D01*
X7509Y1653D01*
X7513Y1645D01*
X7517Y1637D01*
X7506D01*
X7506Y1638D01*
X7505Y1638D01*
X7505Y1639D01*
X7504Y1640D01*
X7503Y1642D01*
X7501Y1644D01*
X7500Y1646D01*
X7498Y1648D01*
X7496Y1651D01*
X7495Y1654D01*
X7493Y1657D01*
X7491Y1660D01*
X7489Y1664D01*
X7487Y1668D01*
X7484Y1676D01*
X7484Y1676D01*
X7484Y1677D01*
X7483Y1678D01*
X7483Y1680D01*
X7482Y1682D01*
X7481Y1684D01*
X7480Y1687D01*
X7479Y1690D01*
X7479Y1693D01*
X7478Y1697D01*
X7477Y1700D01*
X7476Y1704D01*
X7475Y1713D01*
X7475Y1717D01*
X7475Y1721D01*
Y1722D01*
Y1722D01*
Y1723D01*
X7475Y1725D01*
Y1727D01*
X7475Y1729D01*
X7476Y1731D01*
X7476Y1734D01*
X7476Y1737D01*
X7477Y1740D01*
X7478Y1747D01*
X7479Y1754D01*
X7482Y1761D01*
X7482Y1761D01*
X7482Y1762D01*
X7482Y1763D01*
X7483Y1765D01*
X7484Y1767D01*
X7485Y1769D01*
X7486Y1772D01*
X7488Y1775D01*
X7489Y1778D01*
X7491Y1782D01*
X7493Y1785D01*
X7495Y1789D01*
X7498Y1793D01*
X7500Y1797D01*
X7503Y1801D01*
X7506Y1805D01*
X7517D01*
X7517Y1805D01*
D02*
G37*
%LPC*%
G36*
X7422Y2017D02*
X7372D01*
Y1964D01*
X7420D01*
X7422Y1964D01*
X7426Y1965D01*
X7429Y1965D01*
X7433Y1965D01*
X7437Y1966D01*
X7440Y1967D01*
X7440Y1967D01*
X7441Y1968D01*
X7443Y1968D01*
X7445Y1969D01*
X7447Y1971D01*
X7449Y1972D01*
X7451Y1974D01*
X7452Y1977D01*
X7453Y1977D01*
X7453Y1978D01*
X7454Y1979D01*
X7455Y1981D01*
X7455Y1983D01*
X7456Y1986D01*
X7457Y1988D01*
X7457Y1991D01*
Y1991D01*
Y1992D01*
X7457Y1993D01*
X7456Y1995D01*
X7456Y1998D01*
X7455Y2001D01*
X7453Y2004D01*
X7451Y2007D01*
X7449Y2010D01*
X7448Y2010D01*
X7447Y2011D01*
X7445Y2012D01*
X7442Y2014D01*
X7439Y2015D01*
X7434Y2016D01*
X7429Y2017D01*
X7422Y2017D01*
D02*
G37*
G36*
X8526Y2020D02*
X8525D01*
X8524Y2019D01*
X8522Y2019D01*
X8518Y2018D01*
X8515Y2017D01*
X8511Y2015D01*
X8509Y2013D01*
X8508Y2012D01*
X8506Y2010D01*
X8504Y2008D01*
Y2008D01*
X8504Y2007D01*
X8503Y2006D01*
X8503Y2005D01*
X8502Y2003D01*
X8501Y2001D01*
X8500Y1999D01*
X8500Y1996D01*
X8499Y1992D01*
X8498Y1988D01*
X8497Y1984D01*
X8496Y1979D01*
X8495Y1973D01*
X8495Y1967D01*
X8495Y1961D01*
X8494Y1954D01*
Y1953D01*
Y1952D01*
Y1950D01*
X8495Y1947D01*
Y1944D01*
X8495Y1941D01*
X8495Y1937D01*
X8496Y1933D01*
X8497Y1924D01*
X8497Y1919D01*
X8498Y1915D01*
X8499Y1911D01*
X8501Y1907D01*
X8502Y1904D01*
X8504Y1901D01*
Y1901D01*
X8504Y1901D01*
X8505Y1899D01*
X8507Y1897D01*
X8510Y1895D01*
X8513Y1893D01*
X8517Y1890D01*
X8522Y1889D01*
X8524Y1889D01*
X8527Y1888D01*
X8528D01*
X8529Y1889D01*
X8531Y1889D01*
X8534Y1890D01*
X8538Y1892D01*
X8542Y1894D01*
X8544Y1895D01*
X8546Y1897D01*
X8547Y1899D01*
X8549Y1901D01*
Y1902D01*
X8550Y1902D01*
X8550Y1903D01*
X8551Y1904D01*
X8552Y1905D01*
X8552Y1908D01*
X8553Y1910D01*
X8554Y1913D01*
X8555Y1916D01*
X8556Y1920D01*
X8557Y1924D01*
X8557Y1929D01*
X8558Y1934D01*
X8558Y1940D01*
X8559Y1947D01*
Y1954D01*
Y1954D01*
Y1954D01*
Y1955D01*
Y1958D01*
X8559Y1960D01*
Y1963D01*
X8558Y1967D01*
X8558Y1971D01*
X8558Y1975D01*
X8556Y1984D01*
X8556Y1989D01*
X8555Y1993D01*
X8554Y1997D01*
X8553Y2000D01*
X8551Y2004D01*
X8549Y2006D01*
Y2007D01*
X8549Y2007D01*
X8549Y2008D01*
X8548Y2008D01*
X8546Y2011D01*
X8543Y2013D01*
X8540Y2015D01*
X8536Y2017D01*
X8534Y2018D01*
X8531Y2019D01*
X8529Y2019D01*
X8526Y2020D01*
D02*
G37*
G36*
X8487Y1778D02*
X8447Y1720D01*
X8487D01*
Y1778D01*
D02*
G37*
G36*
X7923Y1788D02*
X7892D01*
Y1750D01*
X7924D01*
X7926Y1750D01*
X7929Y1750D01*
X7931Y1750D01*
X7934Y1750D01*
X7936Y1751D01*
X7936Y1751D01*
X7937Y1751D01*
X7938Y1752D01*
X7940Y1753D01*
X7941Y1753D01*
X7943Y1754D01*
X7944Y1756D01*
X7946Y1757D01*
X7946Y1758D01*
X7946Y1758D01*
X7947Y1759D01*
X7947Y1760D01*
X7948Y1762D01*
X7948Y1764D01*
X7949Y1766D01*
X7949Y1768D01*
Y1769D01*
Y1770D01*
X7949Y1771D01*
X7949Y1772D01*
X7948Y1774D01*
X7948Y1776D01*
X7947Y1778D01*
X7946Y1780D01*
X7946Y1780D01*
X7945Y1780D01*
X7945Y1781D01*
X7944Y1782D01*
X7942Y1783D01*
X7941Y1784D01*
X7939Y1785D01*
X7937Y1786D01*
X7937D01*
X7936Y1787D01*
X7935Y1787D01*
X7933Y1787D01*
X7930Y1788D01*
X7927Y1788D01*
X7923Y1788D01*
D02*
G37*
G36*
X7926Y1734D02*
X7892D01*
Y1690D01*
X7929D01*
X7933Y1690D01*
X7934Y1691D01*
X7936Y1691D01*
X7936D01*
X7937Y1691D01*
X7938Y1691D01*
X7939Y1692D01*
X7942Y1693D01*
X7945Y1694D01*
X7946Y1694D01*
X7946Y1695D01*
X7947Y1695D01*
X7948Y1696D01*
X7949Y1697D01*
X7950Y1698D01*
X7951Y1700D01*
X7952Y1701D01*
X7952Y1702D01*
X7952Y1702D01*
X7953Y1703D01*
X7953Y1705D01*
X7954Y1706D01*
X7954Y1708D01*
X7954Y1710D01*
X7955Y1712D01*
Y1713D01*
Y1713D01*
X7954Y1715D01*
X7954Y1717D01*
X7954Y1718D01*
X7953Y1720D01*
X7952Y1723D01*
X7951Y1725D01*
X7951Y1725D01*
X7950Y1725D01*
X7949Y1726D01*
X7948Y1728D01*
X7947Y1729D01*
X7945Y1730D01*
X7943Y1731D01*
X7940Y1732D01*
X7940Y1732D01*
X7939Y1733D01*
X7938Y1733D01*
X7936Y1733D01*
X7933Y1734D01*
X7930Y1734D01*
X7926Y1734D01*
D02*
G37*
G36*
X8280Y1791D02*
X8278D01*
X8278Y1791D01*
X8276Y1790D01*
X8273Y1790D01*
X8270Y1789D01*
X8268Y1787D01*
X8266Y1786D01*
X8265Y1785D01*
X8263Y1783D01*
X8262Y1782D01*
Y1781D01*
X8262Y1781D01*
X8261Y1780D01*
X8261Y1779D01*
X8260Y1778D01*
X8259Y1776D01*
X8259Y1774D01*
X8258Y1772D01*
X8257Y1769D01*
X8257Y1766D01*
X8256Y1762D01*
X8255Y1758D01*
X8255Y1754D01*
X8254Y1749D01*
X8254Y1744D01*
X8254Y1738D01*
Y1738D01*
Y1737D01*
Y1735D01*
X8254Y1733D01*
Y1731D01*
X8254Y1728D01*
X8255Y1725D01*
X8255Y1721D01*
X8256Y1714D01*
X8256Y1710D01*
X8257Y1707D01*
X8258Y1704D01*
X8259Y1701D01*
X8260Y1698D01*
X8261Y1696D01*
Y1696D01*
X8262Y1696D01*
X8263Y1695D01*
X8264Y1693D01*
X8266Y1691D01*
X8269Y1689D01*
X8272Y1688D01*
X8276Y1686D01*
X8278Y1686D01*
X8280Y1686D01*
X8281D01*
X8282Y1686D01*
X8283Y1686D01*
X8286Y1687D01*
X8289Y1688D01*
X8292Y1690D01*
X8293Y1691D01*
X8295Y1693D01*
X8296Y1694D01*
X8298Y1696D01*
Y1696D01*
X8298Y1697D01*
X8299Y1697D01*
X8299Y1698D01*
X8300Y1700D01*
X8300Y1701D01*
X8301Y1703D01*
X8302Y1705D01*
X8302Y1708D01*
X8303Y1711D01*
X8304Y1715D01*
X8304Y1718D01*
X8305Y1723D01*
X8305Y1727D01*
X8305Y1733D01*
Y1738D01*
Y1738D01*
Y1739D01*
Y1740D01*
Y1741D01*
X8305Y1743D01*
Y1746D01*
X8305Y1749D01*
X8305Y1752D01*
X8305Y1755D01*
X8304Y1763D01*
X8303Y1766D01*
X8302Y1769D01*
X8302Y1773D01*
X8300Y1775D01*
X8299Y1778D01*
X8298Y1780D01*
Y1780D01*
X8298Y1781D01*
X8297Y1781D01*
X8297Y1782D01*
X8295Y1784D01*
X8293Y1786D01*
X8290Y1788D01*
X8287Y1789D01*
X8285Y1790D01*
X8284Y1790D01*
X8282Y1791D01*
X8280Y1791D01*
D02*
G37*
%LPD*%
D10*
X8649Y2751D02*
G03*
X8649Y2999I-124J124D01*
G01*
X8401D02*
G03*
X8401Y2751I124J-124D01*
G01*
X4099Y3669D02*
G03*
X4099Y3669I-40J0D01*
G01*
X8579Y3236D02*
X8450D01*
X8514Y3300D02*
Y3171D01*
D11*
X1465Y2800D02*
G03*
X1465Y2800I-690J0D01*
G01*
X1327Y3723D02*
Y6009D01*
X819Y3723D02*
Y6009D01*
Y3723D02*
X1327D01*
X819Y6009D02*
X1327D01*
X1650Y6203D02*
X1886D01*
X1650D02*
Y6367D01*
X2350Y6203D02*
Y6367D01*
X1733Y7084D02*
X2309Y7063D01*
X1733Y7084D02*
X2309Y7049D01*
X1733Y7084D02*
X2272Y7028D01*
X1691Y7063D02*
X2309Y7007D01*
X1691Y7049D02*
X2309Y6993D01*
X1728Y7028D02*
X2272Y6972D01*
X1691Y7007D02*
X2309Y6951D01*
X1691Y6993D02*
X2309Y6937D01*
X1728Y6972D02*
X2272Y6916D01*
X1691Y6951D02*
X2309Y6895D01*
X1691Y6937D02*
X2309Y6881D01*
X1728Y6916D02*
X2272Y6860D01*
X1691Y6895D02*
X2309Y6839D01*
X1691Y6881D02*
X2309Y6825D01*
X1728Y6860D02*
X2272Y6804D01*
X1691Y6839D02*
X2309Y6783D01*
X1691Y6825D02*
X2309Y6769D01*
X1691Y6727D02*
X2271Y6692D01*
X1691Y6713D02*
X2267Y6692D01*
X1728Y6748D02*
X2271Y6692D01*
X1728Y6804D02*
X2272Y6748D01*
X1691Y6783D02*
X2309Y6727D01*
X1691Y6769D02*
X2309Y6713D01*
X1755Y6367D02*
Y6654D01*
X1733Y7084D02*
Y7156D01*
X2267D01*
Y7084D02*
Y7156D01*
X2245Y6367D02*
Y6654D01*
X1755D02*
X2245D01*
X1733Y6692D02*
X1755Y6654D01*
X1728Y6692D02*
X2271D01*
X1691Y6713D02*
X1728Y6692D01*
X1691Y6713D02*
Y6727D01*
X1728Y6748D01*
X1691Y6769D02*
X1728Y6748D01*
X1691Y6769D02*
Y6783D01*
X1728Y6804D01*
X1691Y6825D02*
X1728Y6804D01*
X1691Y6825D02*
Y6839D01*
X1728Y6860D01*
X1691Y6881D02*
X1728Y6860D01*
X1691Y6881D02*
Y6895D01*
X1728Y6916D01*
X1691Y6937D02*
X1728Y6916D01*
X1691Y6937D02*
Y6951D01*
X1728Y6972D01*
X1691Y6993D02*
X1728Y6972D01*
X1691Y6993D02*
Y7007D01*
X1728Y7028D01*
X1691Y7049D02*
X1728Y7028D01*
X1691Y7049D02*
Y7063D01*
X1733Y7084D01*
X2272D01*
X2309Y7063D01*
Y7049D02*
Y7063D01*
X2272Y7028D02*
X2309Y7049D01*
X2272Y7028D02*
X2309Y7007D01*
Y6993D02*
Y7007D01*
X2272Y6972D02*
X2309Y6993D01*
X2272Y6972D02*
X2309Y6951D01*
Y6937D02*
Y6951D01*
X2272Y6916D02*
X2309Y6937D01*
X2272Y6916D02*
X2309Y6895D01*
Y6881D02*
Y6895D01*
X2272Y6860D02*
X2309Y6881D01*
X2272Y6860D02*
X2309Y6839D01*
Y6825D02*
Y6839D01*
X2272Y6804D02*
X2309Y6825D01*
X2272Y6804D02*
X2309Y6783D01*
Y6769D02*
Y6783D01*
X2272Y6748D02*
X2309Y6769D01*
X2272Y6748D02*
X2309Y6727D01*
Y6713D02*
Y6727D01*
X2271Y6692D02*
X2309Y6713D01*
X2245Y6654D02*
X2267Y6692D01*
X2114Y6203D02*
X2350D01*
X1650Y6367D02*
X2350D01*
X4150D02*
X4850D01*
X4614Y6203D02*
X4850D01*
X4745Y6654D02*
X4766Y6692D01*
X4771D02*
X4809Y6713D01*
Y6727D01*
X4772Y6748D02*
X4809Y6727D01*
X4772Y6748D02*
X4809Y6769D01*
Y6783D01*
X4772Y6804D02*
X4809Y6783D01*
X4772Y6804D02*
X4809Y6825D01*
Y6839D01*
X4772Y6860D02*
X4809Y6839D01*
X4772Y6860D02*
X4809Y6881D01*
Y6895D01*
X4772Y6916D02*
X4809Y6895D01*
X4772Y6916D02*
X4809Y6937D01*
Y6951D01*
X4772Y6972D02*
X4809Y6951D01*
X4772Y6972D02*
X4809Y6993D01*
Y7007D01*
X4772Y7028D02*
X4809Y7007D01*
X4772Y7028D02*
X4809Y7049D01*
Y7063D01*
X4772Y7084D02*
X4809Y7063D01*
X4233Y7084D02*
X4772D01*
X4191Y7063D02*
X4233Y7084D01*
X4191Y7049D02*
Y7063D01*
Y7049D02*
X4228Y7028D01*
X4191Y7007D02*
X4228Y7028D01*
X4191Y6993D02*
Y7007D01*
Y6993D02*
X4228Y6972D01*
X4191Y6951D02*
X4228Y6972D01*
X4191Y6937D02*
Y6951D01*
Y6937D02*
X4228Y6916D01*
X4191Y6895D02*
X4228Y6916D01*
X4191Y6881D02*
Y6895D01*
Y6881D02*
X4228Y6860D01*
X4191Y6839D02*
X4228Y6860D01*
X4191Y6825D02*
Y6839D01*
Y6825D02*
X4228Y6804D01*
X4191Y6783D02*
X4228Y6804D01*
X4191Y6769D02*
Y6783D01*
Y6769D02*
X4228Y6748D01*
X4191Y6727D02*
X4228Y6748D01*
X4191Y6713D02*
Y6727D01*
Y6713D02*
X4228Y6692D01*
X4771D01*
X4233D02*
X4255Y6654D01*
X4255D02*
X4745D01*
Y6367D02*
Y6654D01*
X4767Y7084D02*
Y7156D01*
X4233D02*
X4767D01*
X4233Y7084D02*
Y7156D01*
X4255Y6367D02*
Y6654D01*
X4191Y6769D02*
X4809Y6713D01*
X4191Y6783D02*
X4809Y6727D01*
X4228Y6804D02*
X4772Y6748D01*
X4228D02*
X4771Y6692D01*
X4191Y6713D02*
X4766Y6692D01*
X4191Y6727D02*
X4771Y6692D01*
X4191Y6825D02*
X4809Y6769D01*
X4191Y6839D02*
X4809Y6783D01*
X4228Y6860D02*
X4772Y6804D01*
X4191Y6881D02*
X4809Y6825D01*
X4191Y6895D02*
X4809Y6839D01*
X4228Y6916D02*
X4772Y6860D01*
X4191Y6937D02*
X4809Y6881D01*
X4191Y6951D02*
X4809Y6895D01*
X4228Y6972D02*
X4772Y6916D01*
X4191Y6993D02*
X4809Y6937D01*
X4191Y7007D02*
X4809Y6951D01*
X4228Y7028D02*
X4772Y6972D01*
X4191Y7049D02*
X4809Y6993D01*
X4191Y7063D02*
X4809Y7007D01*
X4233Y7084D02*
X4772Y7028D01*
X4233Y7084D02*
X4809Y7049D01*
X4233Y7084D02*
X4809Y7063D01*
X4850Y6203D02*
Y6367D01*
X4150Y6203D02*
Y6367D01*
Y6203D02*
X4386D01*
X6650Y6367D02*
X7350D01*
X7114Y6203D02*
X7350D01*
X7245Y6654D02*
X7267Y6692D01*
X7271D02*
X7309Y6713D01*
Y6727D01*
X7271Y6748D02*
X7309Y6727D01*
X7271Y6748D02*
X7309Y6769D01*
Y6783D01*
X7271Y6804D02*
X7309Y6783D01*
X7271Y6804D02*
X7309Y6825D01*
Y6839D01*
X7271Y6860D02*
X7309Y6839D01*
X7271Y6860D02*
X7309Y6881D01*
Y6895D01*
X7271Y6916D02*
X7309Y6895D01*
X7271Y6916D02*
X7309Y6937D01*
Y6951D01*
X7271Y6972D02*
X7309Y6951D01*
X7271Y6972D02*
X7309Y6993D01*
Y7007D01*
X7271Y7028D02*
X7309Y7007D01*
X7271Y7028D02*
X7309Y7049D01*
Y7063D01*
X7271Y7084D02*
X7309Y7063D01*
X6733Y7084D02*
X7271D01*
X6691Y7063D02*
X6733Y7084D01*
X6691Y7049D02*
Y7063D01*
Y7049D02*
X6729Y7028D01*
X6691Y7007D02*
X6729Y7028D01*
X6691Y6993D02*
Y7007D01*
Y6993D02*
X6729Y6972D01*
X6691Y6951D02*
X6729Y6972D01*
X6691Y6937D02*
Y6951D01*
Y6937D02*
X6729Y6916D01*
X6691Y6895D02*
X6729Y6916D01*
X6691Y6881D02*
Y6895D01*
Y6881D02*
X6729Y6860D01*
X6691Y6839D02*
X6729Y6860D01*
X6691Y6825D02*
Y6839D01*
Y6825D02*
X6729Y6804D01*
X6691Y6783D02*
X6729Y6804D01*
X6691Y6769D02*
Y6783D01*
Y6769D02*
X6729Y6748D01*
X6691Y6727D02*
X6729Y6748D01*
X6691Y6713D02*
Y6727D01*
Y6713D02*
X6729Y6692D01*
X7271D01*
X6733D02*
X6755Y6654D01*
X6755D02*
X7245D01*
Y6367D02*
Y6654D01*
X7267Y7084D02*
Y7156D01*
X6733D02*
X7267D01*
X6733Y7084D02*
Y7156D01*
X6755Y6367D02*
Y6654D01*
X6691Y6769D02*
X7309Y6713D01*
X6691Y6783D02*
X7309Y6727D01*
X6729Y6804D02*
X7271Y6748D01*
X6729D02*
X7271Y6692D01*
X6691Y6713D02*
X7267Y6692D01*
X6691Y6727D02*
X7271Y6692D01*
X6691Y6825D02*
X7309Y6769D01*
X6691Y6839D02*
X7309Y6783D01*
X6729Y6860D02*
X7271Y6804D01*
X6691Y6881D02*
X7309Y6825D01*
X6691Y6895D02*
X7309Y6839D01*
X6729Y6916D02*
X7271Y6860D01*
X6691Y6937D02*
X7309Y6881D01*
X6691Y6951D02*
X7309Y6895D01*
X6729Y6972D02*
X7271Y6916D01*
X6691Y6993D02*
X7309Y6937D01*
X6691Y7007D02*
X7309Y6951D01*
X6729Y7028D02*
X7271Y6972D01*
X6691Y7049D02*
X7309Y6993D01*
X6691Y7063D02*
X7309Y7007D01*
X6733Y7084D02*
X7271Y7028D01*
X6733Y7084D02*
X7309Y7049D01*
X6733Y7084D02*
X7309Y7063D01*
X7350Y6203D02*
Y6367D01*
X6650Y6203D02*
Y6367D01*
Y6203D02*
X6886D01*
X7988Y3195D02*
Y3205D01*
X8062Y3195D02*
Y3205D01*
X7895Y3570D02*
X7975D01*
Y3470D02*
Y3570D01*
X7675D02*
X7755D01*
X7675Y3470D02*
Y3570D01*
X7975Y2905D02*
X8275D01*
X7975Y2845D02*
X8275D01*
Y2905D01*
X7975Y2845D02*
Y2905D01*
X8295Y3112D02*
X8305D01*
X8295Y3188D02*
X8305D01*
X7525Y3905D02*
X7825D01*
X7525Y3845D02*
X7825D01*
Y3905D01*
X7525Y3845D02*
Y3905D01*
X7470Y2750D02*
Y2830D01*
X7370Y2750D02*
X7470D01*
Y2970D02*
Y3050D01*
X7370D02*
X7470D01*
X7712Y2820D02*
Y2830D01*
X7638Y2820D02*
Y2830D01*
X7345Y3112D02*
X7355D01*
X7345Y3188D02*
X7355D01*
X7345Y2612D02*
X7355D01*
X7345Y2688D02*
X7355D01*
X6420Y2538D02*
X6430D01*
X6420Y2462D02*
X6430D01*
X5445Y2362D02*
X5455D01*
X5445Y2438D02*
X5455D01*
X4350Y3605D02*
X4650D01*
X4350Y3545D02*
X4650D01*
Y3605D01*
X4350Y3545D02*
Y3605D01*
X4638Y3245D02*
Y3255D01*
X4562Y3245D02*
Y3255D01*
X8850Y4450D02*
X9019D01*
X8850Y3550D02*
X9019D01*
X8440Y4450D02*
X8670D01*
X8440Y3550D02*
X8670D01*
X9019D02*
Y4450D01*
X8150Y3550D02*
Y4450D01*
Y3550D02*
X8240D01*
X8150Y4450D02*
X8240D01*
X7938Y4645D02*
Y4655D01*
X8012Y4645D02*
Y4655D01*
X8495Y5112D02*
X8505D01*
X8495Y5038D02*
X8505D01*
X8212Y4900D02*
X8300D01*
Y4988D01*
X7762Y4975D02*
X7825Y4912D01*
X8212Y5450D02*
X8300D01*
Y5362D02*
Y5450D01*
X7750D02*
X7838D01*
X7750Y5362D02*
Y5450D01*
X7638Y5020D02*
Y5030D01*
X7562Y5020D02*
Y5030D01*
X7512Y5020D02*
Y5030D01*
X7438Y5020D02*
Y5030D01*
X1595Y2462D02*
X1605D01*
X1595Y2538D02*
X1605D01*
X1880Y2570D02*
Y2650D01*
X1980D01*
X1880Y2350D02*
Y2430D01*
Y2350D02*
X1980D01*
X-10Y3630D02*
Y4370D01*
X360Y3630D02*
Y4370D01*
X0Y3630D02*
X350D01*
X-160Y4125D02*
X-25D01*
X-160Y3875D02*
Y4125D01*
Y3875D02*
X-25D01*
X0Y4370D02*
X350D01*
X0Y5370D02*
X350D01*
X-160Y4875D02*
X-25D01*
X-160D02*
Y5125D01*
X-25D01*
X0Y4630D02*
X350D01*
X360D02*
Y5370D01*
X-10Y4630D02*
Y5370D01*
X0Y1870D02*
X350D01*
X-160Y1375D02*
X-25D01*
X-160D02*
Y1625D01*
X-25D01*
X0Y1130D02*
X350D01*
X360D02*
Y1870D01*
X-10Y1130D02*
Y1870D01*
X8062Y4645D02*
Y4655D01*
X8138Y4645D02*
Y4655D01*
X5195Y2362D02*
X5205D01*
X5195Y2438D02*
X5205D01*
X1370Y3845D02*
X1437D01*
X1403Y3878D02*
Y3812D01*
X1470Y3878D02*
X1487Y3895D01*
X1520D01*
X1537Y3878D01*
Y3862D01*
X1520Y3845D01*
X1503D01*
X1520D01*
X1537Y3828D01*
Y3812D01*
X1520Y3795D01*
X1487D01*
X1470Y3812D01*
X1570Y3795D02*
Y3812D01*
X1587D01*
Y3795D01*
X1570D01*
X1653Y3878D02*
X1670Y3895D01*
X1703D01*
X1720Y3878D01*
Y3862D01*
X1703Y3845D01*
X1687D01*
X1703D01*
X1720Y3828D01*
Y3812D01*
X1703Y3795D01*
X1670D01*
X1653Y3812D01*
X1753Y3895D02*
Y3828D01*
X1787Y3795D01*
X1820Y3828D01*
Y3895D01*
X862Y3653D02*
X845Y3670D01*
X812D01*
X795Y3653D01*
Y3587D01*
X812Y3570D01*
X845D01*
X862Y3587D01*
Y3620D01*
X828D01*
X895Y3570D02*
Y3670D01*
X962Y3570D01*
Y3670D01*
X995D02*
Y3570D01*
X1045D01*
X1062Y3587D01*
Y3653D01*
X1045Y3670D01*
X995D01*
X1370Y4145D02*
Y4045D01*
X1420D01*
X1437Y4062D01*
Y4128D01*
X1420Y4145D01*
X1370D01*
X1470Y4045D02*
X1503D01*
X1487D01*
Y4145D01*
X1470Y4128D01*
X1603Y4045D02*
Y4145D01*
X1553Y4095D01*
X1620D01*
X680Y3845D02*
X780D01*
Y3895D01*
X763Y3912D01*
X697D01*
X680Y3895D01*
Y3845D01*
X780Y3945D02*
Y3978D01*
Y3962D01*
X680D01*
X697Y3945D01*
X780Y4095D02*
Y4028D01*
X713Y4095D01*
X697D01*
X680Y4078D01*
Y4045D01*
X697Y4028D01*
X1370Y4420D02*
Y4320D01*
X1420D01*
X1437Y4337D01*
Y4403D01*
X1420Y4420D01*
X1370D01*
X1470Y4320D02*
X1503D01*
X1487D01*
Y4420D01*
X1470Y4403D01*
X1553D02*
X1570Y4420D01*
X1603D01*
X1620Y4403D01*
Y4337D01*
X1603Y4320D01*
X1570D01*
X1553Y4337D01*
Y4403D01*
X780Y4170D02*
X713D01*
X680Y4203D01*
X713Y4237D01*
X780D01*
X730D01*
Y4170D01*
X780Y4270D02*
Y4303D01*
Y4287D01*
X680D01*
X697Y4270D01*
Y4353D02*
X680Y4370D01*
Y4403D01*
X697Y4420D01*
X713D01*
X730Y4403D01*
Y4387D01*
Y4403D01*
X747Y4420D01*
X763D01*
X780Y4403D01*
Y4370D01*
X763Y4353D01*
X1370Y4570D02*
Y4637D01*
X1403Y4670D01*
X1437Y4637D01*
Y4570D01*
Y4620D01*
X1370D01*
X1470Y4570D02*
X1503D01*
X1487D01*
Y4670D01*
X1470Y4653D01*
X1620Y4570D02*
X1553D01*
X1620Y4637D01*
Y4653D01*
X1603Y4670D01*
X1570D01*
X1553Y4653D01*
X697Y4562D02*
X680Y4545D01*
Y4512D01*
X697Y4495D01*
X763D01*
X780Y4512D01*
Y4545D01*
X763Y4562D01*
X780Y4595D02*
Y4628D01*
Y4612D01*
X680D01*
X697Y4595D01*
Y4678D02*
X680Y4695D01*
Y4728D01*
X697Y4745D01*
X713D01*
X730Y4728D01*
Y4712D01*
Y4728D01*
X747Y4745D01*
X763D01*
X780Y4728D01*
Y4695D01*
X763Y4678D01*
X1437Y4903D02*
X1420Y4920D01*
X1387D01*
X1370Y4903D01*
Y4837D01*
X1387Y4820D01*
X1420D01*
X1437Y4837D01*
X1470Y4820D02*
X1503D01*
X1487D01*
Y4920D01*
X1470Y4903D01*
X1620Y4820D02*
X1553D01*
X1620Y4887D01*
Y4903D01*
X1603Y4920D01*
X1570D01*
X1553Y4903D01*
X697Y4862D02*
X680Y4845D01*
Y4812D01*
X697Y4795D01*
X763D01*
X780Y4812D01*
Y4845D01*
X763Y4862D01*
X780Y4895D02*
Y4928D01*
Y4912D01*
X680D01*
X697Y4895D01*
Y4978D02*
X680Y4995D01*
Y5028D01*
X697Y5045D01*
X763D01*
X780Y5028D01*
Y4995D01*
X763Y4978D01*
X697D01*
X1437Y5153D02*
X1420Y5170D01*
X1387D01*
X1370Y5153D01*
Y5087D01*
X1387Y5070D01*
X1420D01*
X1437Y5087D01*
X1470D02*
X1487Y5070D01*
X1520D01*
X1537Y5087D01*
Y5153D01*
X1520Y5170D01*
X1487D01*
X1470Y5153D01*
Y5137D01*
X1487Y5120D01*
X1537D01*
X697Y5162D02*
X680Y5145D01*
Y5112D01*
X697Y5095D01*
X763D01*
X780Y5112D01*
Y5145D01*
X763Y5162D01*
X697Y5195D02*
X680Y5212D01*
Y5245D01*
X697Y5262D01*
X713D01*
X730Y5245D01*
X747Y5262D01*
X763D01*
X780Y5245D01*
Y5212D01*
X763Y5195D01*
X747D01*
X730Y5212D01*
X713Y5195D01*
X697D01*
X730Y5212D02*
Y5245D01*
X1437Y5403D02*
X1420Y5420D01*
X1387D01*
X1370Y5403D01*
Y5337D01*
X1387Y5320D01*
X1420D01*
X1437Y5337D01*
X1537Y5420D02*
X1470D01*
Y5370D01*
X1503Y5387D01*
X1520D01*
X1537Y5370D01*
Y5337D01*
X1520Y5320D01*
X1487D01*
X1470Y5337D01*
X697Y5387D02*
X680Y5370D01*
Y5337D01*
X697Y5320D01*
X763D01*
X780Y5337D01*
Y5370D01*
X763Y5387D01*
X780Y5420D02*
Y5453D01*
Y5437D01*
X680D01*
X697Y5420D01*
X1437Y5678D02*
X1420Y5695D01*
X1387D01*
X1370Y5678D01*
Y5612D01*
X1387Y5595D01*
X1420D01*
X1437Y5612D01*
X1470Y5678D02*
X1487Y5695D01*
X1520D01*
X1537Y5678D01*
Y5612D01*
X1520Y5595D01*
X1487D01*
X1470Y5612D01*
Y5678D01*
X697Y5612D02*
X680Y5595D01*
Y5562D01*
X697Y5545D01*
X763D01*
X780Y5562D01*
Y5595D01*
X763Y5612D01*
X780Y5695D02*
X680D01*
X730Y5645D01*
Y5712D01*
X1437Y5953D02*
X1420Y5970D01*
X1387D01*
X1370Y5953D01*
Y5887D01*
X1387Y5870D01*
X1420D01*
X1437Y5887D01*
X1470Y5953D02*
X1487Y5970D01*
X1520D01*
X1537Y5953D01*
Y5937D01*
X1520Y5920D01*
X1503D01*
X1520D01*
X1537Y5903D01*
Y5887D01*
X1520Y5870D01*
X1487D01*
X1470Y5887D01*
X697Y5887D02*
X680Y5870D01*
Y5837D01*
X697Y5820D01*
X763D01*
X780Y5837D01*
Y5870D01*
X763Y5887D01*
X780Y5987D02*
Y5920D01*
X713Y5987D01*
X697D01*
X680Y5970D01*
Y5937D01*
X697Y5920D01*
X3142Y5725D02*
Y5825D01*
X3175Y5792D01*
X3208Y5825D01*
Y5725D01*
X3308D02*
X3242D01*
X3308Y5792D01*
Y5808D01*
X3292Y5825D01*
X3258D01*
X3242Y5808D01*
X7520Y5940D02*
Y5820D01*
X7600D01*
X7640Y5940D02*
Y5820D01*
X7700D01*
X7720Y5840D01*
Y5860D01*
X7700Y5880D01*
X7640D01*
X7700D01*
X7720Y5900D01*
Y5920D01*
X7700Y5940D01*
X7640D01*
X2520Y5820D02*
Y5940D01*
X2560Y5900D01*
X2600Y5940D01*
Y5820D01*
X2640Y5940D02*
Y5820D01*
X2700D01*
X2720Y5840D01*
Y5860D01*
X2700Y5880D01*
X2640D01*
X2700D01*
X2720Y5900D01*
Y5920D01*
X2700Y5940D01*
X2640D01*
X5020Y5990D02*
Y5870D01*
Y5930D01*
X5100D01*
Y5990D01*
Y5870D01*
X5140Y5990D02*
Y5870D01*
X5200D01*
X5220Y5890D01*
Y5910D01*
X5200Y5930D01*
X5140D01*
X5200D01*
X5220Y5950D01*
Y5970D01*
X5200Y5990D01*
X5140D01*
X3505Y3075D02*
X3485Y3055D01*
Y3015D01*
X3505Y2995D01*
X3585D01*
X3605Y3015D01*
Y3055D01*
X3585Y3075D01*
X3505Y3195D02*
X3485Y3175D01*
Y3135D01*
X3505Y3115D01*
X3525D01*
X3545Y3135D01*
Y3175D01*
X3565Y3195D01*
X3585D01*
X3605Y3175D01*
Y3135D01*
X3585Y3115D01*
X3235Y2995D02*
X3355D01*
Y3055D01*
X3335Y3075D01*
X3255D01*
X3235Y3055D01*
Y2995D01*
X3255Y3195D02*
X3235Y3175D01*
Y3135D01*
X3255Y3115D01*
X3335D01*
X3355Y3135D01*
Y3175D01*
X3335Y3195D01*
X3080Y2995D02*
X2960D01*
Y3055D01*
X2980Y3075D01*
X3020D01*
X3040Y3055D01*
Y2995D01*
Y3035D02*
X3080Y3075D01*
X2980Y3195D02*
X2960Y3175D01*
Y3135D01*
X2980Y3115D01*
X3000D01*
X3020Y3135D01*
Y3175D01*
X3040Y3195D01*
X3060D01*
X3080Y3175D01*
Y3135D01*
X3060Y3115D01*
X2960Y3235D02*
Y3315D01*
Y3275D01*
X3080D01*
X2710Y2995D02*
X2830D01*
Y3055D01*
X2810Y3075D01*
X2730D01*
X2710Y3055D01*
Y2995D01*
X2830Y3115D02*
X2750D01*
X2710Y3155D01*
X2750Y3195D01*
X2830D01*
X2770D01*
Y3115D01*
X2710Y3235D02*
Y3315D01*
Y3275D01*
X2830D01*
X2455Y3075D02*
X2435Y3055D01*
Y3015D01*
X2455Y2995D01*
X2475D01*
X2495Y3015D01*
Y3055D01*
X2515Y3075D01*
X2535D01*
X2555Y3055D01*
Y3015D01*
X2535Y2995D01*
X2455Y3195D02*
X2435Y3175D01*
Y3135D01*
X2455Y3115D01*
X2535D01*
X2555Y3135D01*
Y3175D01*
X2535Y3195D01*
X2435Y3235D02*
X2555D01*
X2515D01*
X2435Y3315D01*
X2495Y3255D01*
X2555Y3315D01*
X2185Y2995D02*
X2265D01*
X2305Y3035D01*
X2265Y3075D01*
X2185D01*
X2205Y3195D02*
X2185Y3175D01*
Y3135D01*
X2205Y3115D01*
X2285D01*
X2305Y3135D01*
Y3175D01*
X2285Y3195D01*
X2205Y3315D02*
X2185Y3295D01*
Y3255D01*
X2205Y3235D01*
X2285D01*
X2305Y3255D01*
Y3295D01*
X2285Y3315D01*
X1930Y3075D02*
X1910Y3055D01*
Y3015D01*
X1930Y2995D01*
X2010D01*
X2030Y3015D01*
Y3055D01*
X2010Y3075D01*
X1970D01*
Y3035D01*
X2030Y3115D02*
X1910D01*
X2030Y3195D01*
X1910D01*
Y3235D02*
X2030D01*
Y3295D01*
X2010Y3315D01*
X1930D01*
X1910Y3295D01*
Y3235D01*
X435Y1455D02*
Y1415D01*
X455Y1395D01*
X535D01*
X555Y1415D01*
Y1455D01*
X535Y1475D01*
X455D01*
X435Y1455D01*
Y1515D02*
X555D01*
X515D01*
X435Y1595D01*
X495Y1535D01*
X555Y1595D01*
X480Y4920D02*
X563D01*
X580Y4937D01*
Y4970D01*
X563Y4987D01*
X480D01*
X580Y5020D02*
X480D01*
Y5070D01*
X497Y5087D01*
X530D01*
X547Y5070D01*
Y5020D01*
X455Y3820D02*
X555D01*
Y3870D01*
X538Y3887D01*
X472D01*
X455Y3870D01*
Y3820D01*
Y3970D02*
Y3937D01*
X472Y3920D01*
X538D01*
X555Y3937D01*
Y3970D01*
X538Y3987D01*
X472D01*
X455Y3970D01*
Y4020D02*
X555D01*
X522Y4053D01*
X555Y4087D01*
X455D01*
X555Y4120D02*
X455D01*
X555Y4187D01*
X455D01*
X6480Y1695D02*
X6360D01*
Y1755D01*
X6380Y1775D01*
X6420D01*
X6440Y1755D01*
Y1695D01*
Y1735D02*
X6480Y1775D01*
X6380Y1895D02*
X6360Y1875D01*
Y1835D01*
X6380Y1815D01*
X6400D01*
X6420Y1835D01*
Y1875D01*
X6440Y1895D01*
X6460D01*
X6480Y1875D01*
Y1835D01*
X6460Y1815D01*
X6360Y1935D02*
Y2015D01*
Y1975D01*
X6480D01*
X6105Y1775D02*
X6085Y1755D01*
Y1715D01*
X6105Y1695D01*
X6185D01*
X6205Y1715D01*
Y1755D01*
X6185Y1775D01*
X6085Y1815D02*
X6205D01*
Y1895D01*
X6085Y1935D02*
X6205D01*
X6165D01*
X6085Y2015D01*
X6145Y1955D01*
X6205Y2015D01*
X5835Y1695D02*
X5955D01*
Y1755D01*
X5935Y1775D01*
X5855D01*
X5835Y1755D01*
Y1695D01*
Y1815D02*
Y1855D01*
Y1835D01*
X5955D01*
Y1815D01*
Y1855D01*
X5835Y1975D02*
Y1935D01*
X5855Y1915D01*
X5935D01*
X5955Y1935D01*
Y1975D01*
X5935Y1995D01*
X5855D01*
X5835Y1975D01*
X5605Y1775D02*
X5585Y1755D01*
Y1715D01*
X5605Y1695D01*
X5685D01*
X5705Y1715D01*
Y1755D01*
X5685Y1775D01*
X5645D01*
Y1735D01*
X5705Y1815D02*
X5585D01*
X5705Y1895D01*
X5585D01*
Y1935D02*
X5705D01*
Y1995D01*
X5685Y2015D01*
X5605D01*
X5585Y1995D01*
Y1935D01*
X5335Y1695D02*
Y1775D01*
Y1735D01*
X5455D01*
X5335Y1815D02*
X5455Y1895D01*
X5335D02*
X5455Y1815D01*
X5335Y1935D02*
X5455D01*
Y1995D01*
X5435Y2015D01*
X5355D01*
X5335Y1995D01*
Y1935D01*
X5060Y1695D02*
Y1775D01*
Y1735D01*
X5180D01*
X5060Y1815D02*
X5180Y1895D01*
X5060D02*
X5180Y1815D01*
X5060Y1935D02*
X5180D01*
Y1995D01*
X5160Y2015D01*
X5080D01*
X5060Y1995D01*
Y1935D01*
X4810Y1695D02*
X4890D01*
X4930Y1735D01*
X4890Y1775D01*
X4810D01*
X4830Y1895D02*
X4810Y1875D01*
Y1835D01*
X4830Y1815D01*
X4910D01*
X4930Y1835D01*
Y1875D01*
X4910Y1895D01*
X4830Y2015D02*
X4810Y1995D01*
Y1955D01*
X4830Y1935D01*
X4910D01*
X4930Y1955D01*
Y1995D01*
X4910Y2015D01*
D12*
X2450Y5675D02*
X3950D01*
X2450Y3675D02*
X3950D01*
Y3750D01*
X2450Y3675D02*
Y3750D01*
X3950Y5600D02*
Y5675D01*
X2450Y5600D02*
Y5675D01*
X6925Y5300D02*
Y5425D01*
X5325Y5300D02*
Y5425D01*
X6925Y4875D02*
Y5000D01*
X5325Y4875D02*
Y5000D01*
X6925Y2725D02*
Y2850D01*
X6800Y2725D02*
X6925D01*
X5325D02*
Y2850D01*
Y2725D02*
X5450D01*
X5325Y5425D02*
X6925D01*
X914Y3194D02*
X1085D01*
X999Y3280D02*
Y3109D01*
D13*
X1888Y3373D02*
Y3627D01*
X3620D01*
Y3373D02*
Y3627D01*
X1888Y3373D02*
X3620D01*
X7465Y3455D02*
Y3795D01*
X7285Y3455D02*
Y3795D01*
Y3930D02*
Y4270D01*
X7465Y3930D02*
Y4270D01*
X4315Y2930D02*
Y3270D01*
X4135Y2930D02*
Y3270D01*
X4315Y3405D02*
Y3745D01*
X4135Y3405D02*
Y3745D01*
X6503Y2073D02*
Y2327D01*
X4771Y2073D02*
X6503D01*
X4771D02*
Y2327D01*
X6503D01*
X6281Y2348D02*
Y2602D01*
X5773Y2348D02*
X6281D01*
X5773D02*
Y2602D01*
X6281D01*
X8735Y2847D02*
X8815D01*
Y2887D01*
X8802Y2900D01*
X8748D01*
X8735Y2887D01*
Y2847D01*
X8815Y2927D02*
Y2953D01*
Y2940D01*
X8735D01*
X8748Y2927D01*
X4790Y3158D02*
X4710D01*
Y3198D01*
X4723Y3212D01*
X4750D01*
X4763Y3198D01*
Y3158D01*
Y3185D02*
X4790Y3212D01*
Y3292D02*
Y3238D01*
X4737Y3292D01*
X4723D01*
X4710Y3278D01*
Y3252D01*
X4723Y3238D01*
X18Y2760D02*
Y2840D01*
X-22D01*
X-35Y2827D01*
Y2813D01*
X-22Y2800D01*
X18D01*
X-22D01*
X-35Y2787D01*
Y2773D01*
X-22Y2760D01*
X18D01*
X-62D02*
X-115D01*
Y2773D01*
X-62Y2827D01*
Y2840D01*
X-115D01*
X-142D02*
X-168D01*
X-155D01*
Y2760D01*
X-142Y2773D01*
X1500Y2335D02*
Y2415D01*
X1540D01*
X1553Y2402D01*
Y2375D01*
X1540Y2362D01*
X1500D01*
X1527D02*
X1553Y2335D01*
X1580D02*
X1607D01*
X1593D01*
Y2415D01*
X1580Y2402D01*
X1700Y2415D02*
X1647D01*
Y2375D01*
X1673Y2388D01*
X1687D01*
X1700Y2375D01*
Y2348D01*
X1687Y2335D01*
X1660D01*
X1647Y2348D01*
X1987Y2723D02*
Y2777D01*
X1973Y2790D01*
X1947D01*
X1933Y2777D01*
Y2723D01*
X1947Y2710D01*
X1973D01*
X1960Y2737D02*
X1987Y2710D01*
X1973D02*
X1987Y2723D01*
X2067Y2710D02*
X2013D01*
X2067Y2763D01*
Y2777D01*
X2053Y2790D01*
X2027D01*
X2013Y2777D01*
X4685Y3533D02*
X4752D01*
X4765Y3547D01*
Y3573D01*
X4752Y3587D01*
X4685D01*
X4698Y3613D02*
X4685Y3627D01*
Y3653D01*
X4698Y3667D01*
X4712D01*
X4725Y3653D01*
Y3640D01*
Y3653D01*
X4738Y3667D01*
X4752D01*
X4765Y3653D01*
Y3627D01*
X4752Y3613D01*
X7333Y2485D02*
Y2565D01*
X7373D01*
X7387Y2552D01*
Y2525D01*
X7373Y2512D01*
X7333D01*
X7360D02*
X7387Y2485D01*
X7467Y2565D02*
X7440Y2552D01*
X7413Y2525D01*
Y2498D01*
X7427Y2485D01*
X7453D01*
X7467Y2498D01*
Y2512D01*
X7453Y2525D01*
X7413D01*
X7840Y2758D02*
X7760D01*
Y2798D01*
X7773Y2812D01*
X7800D01*
X7813Y2798D01*
Y2758D01*
Y2785D02*
X7840Y2812D01*
X7760Y2892D02*
Y2838D01*
X7800D01*
X7787Y2865D01*
Y2878D01*
X7800Y2892D01*
X7827D01*
X7840Y2878D01*
Y2852D01*
X7827Y2838D01*
X7283Y3260D02*
Y3340D01*
X7323D01*
X7337Y3327D01*
Y3300D01*
X7323Y3287D01*
X7283D01*
X7310D02*
X7337Y3260D01*
X7403D02*
Y3340D01*
X7363Y3300D01*
X7417D01*
X7575Y2998D02*
Y3052D01*
X7562Y3065D01*
X7535D01*
X7522Y3052D01*
Y2998D01*
X7535Y2985D01*
X7562D01*
X7548Y3012D02*
X7575Y2985D01*
X7562D02*
X7575Y2998D01*
X7602Y2985D02*
X7628D01*
X7615D01*
Y3065D01*
X7602Y3052D01*
X4048Y3428D02*
X4035Y3415D01*
Y3388D01*
X4048Y3375D01*
X4102D01*
X4115Y3388D01*
Y3415D01*
X4102Y3428D01*
X4115Y3455D02*
Y3482D01*
Y3468D01*
X4035D01*
X4048Y3455D01*
Y3522D02*
X4035Y3535D01*
Y3562D01*
X4048Y3575D01*
X4102D01*
X4115Y3562D01*
Y3535D01*
X4102Y3522D01*
X4048D01*
X4198Y4137D02*
X4185Y4123D01*
Y4097D01*
X4198Y4083D01*
X4252D01*
X4265Y4097D01*
Y4123D01*
X4252Y4137D01*
X4198Y4163D02*
X4185Y4177D01*
Y4203D01*
X4198Y4217D01*
X4212D01*
X4225Y4203D01*
X4238Y4217D01*
X4252D01*
X4265Y4203D01*
Y4177D01*
X4252Y4163D01*
X4238D01*
X4225Y4177D01*
X4212Y4163D01*
X4198D01*
X4225Y4177D02*
Y4203D01*
X4512Y3977D02*
X4498Y3990D01*
X4472D01*
X4458Y3977D01*
Y3923D01*
X4472Y3910D01*
X4498D01*
X4512Y3923D01*
X4592Y3990D02*
X4565Y3977D01*
X4538Y3950D01*
Y3923D01*
X4552Y3910D01*
X4578D01*
X4592Y3923D01*
Y3937D01*
X4578Y3950D01*
X4538D01*
X4491Y3023D02*
X4478Y3010D01*
Y2983D01*
X4491Y2970D01*
X4545D01*
X4558Y2983D01*
Y3010D01*
X4545Y3023D01*
X4558Y3089D02*
X4478D01*
X4518Y3049D01*
Y3103D01*
X4048Y3112D02*
X4035Y3098D01*
Y3072D01*
X4048Y3058D01*
X4102D01*
X4115Y3072D01*
Y3098D01*
X4102Y3112D01*
X4115Y3192D02*
Y3138D01*
X4062Y3192D01*
X4048D01*
X4035Y3178D01*
Y3152D01*
X4048Y3138D01*
X7933Y5615D02*
Y5548D01*
X7947Y5535D01*
X7973D01*
X7987Y5548D01*
Y5615D01*
X8053Y5535D02*
Y5615D01*
X8013Y5575D01*
X8067D01*
X7833Y4140D02*
Y4073D01*
X7847Y4060D01*
X7873D01*
X7887Y4073D01*
Y4140D01*
X7967Y4060D02*
X7913D01*
X7967Y4113D01*
Y4127D01*
X7953Y4140D01*
X7927D01*
X7913Y4127D01*
X8072Y2615D02*
Y2548D01*
X8085Y2535D01*
X8112D01*
X8125Y2548D01*
Y2615D01*
X8152Y2535D02*
X8178D01*
X8165D01*
Y2615D01*
X8152Y2602D01*
X5375Y2485D02*
Y2565D01*
X5415D01*
X5428Y2552D01*
Y2525D01*
X5415Y2512D01*
X5375D01*
X5402D02*
X5428Y2485D01*
X5455D02*
X5482D01*
X5468D01*
Y2565D01*
X5455Y2552D01*
X5562Y2485D02*
Y2565D01*
X5522Y2525D01*
X5575D01*
X5075Y2485D02*
Y2565D01*
X5115D01*
X5128Y2552D01*
Y2525D01*
X5115Y2512D01*
X5075D01*
X5102D02*
X5128Y2485D01*
X5155D02*
X5182D01*
X5168D01*
Y2565D01*
X5155Y2552D01*
X5222D02*
X5235Y2565D01*
X5262D01*
X5275Y2552D01*
Y2538D01*
X5262Y2525D01*
X5248D01*
X5262D01*
X5275Y2512D01*
Y2498D01*
X5262Y2485D01*
X5235D01*
X5222Y2498D01*
X6825Y2460D02*
Y2540D01*
X6865D01*
X6878Y2527D01*
Y2500D01*
X6865Y2487D01*
X6825D01*
X6852D02*
X6878Y2460D01*
X6905D02*
X6932D01*
X6918D01*
Y2540D01*
X6905Y2527D01*
X7025Y2460D02*
X6972D01*
X7025Y2513D01*
Y2527D01*
X7012Y2540D01*
X6985D01*
X6972Y2527D01*
X8688Y5035D02*
Y5115D01*
X8728D01*
X8742Y5102D01*
Y5075D01*
X8728Y5062D01*
X8688D01*
X8715D02*
X8742Y5035D01*
X8768D02*
X8795D01*
X8782D01*
Y5115D01*
X8768Y5102D01*
X8835Y5035D02*
X8862D01*
X8848D01*
Y5115D01*
X8835Y5102D01*
X7515Y5200D02*
X7435D01*
Y5240D01*
X7448Y5253D01*
X7475D01*
X7488Y5240D01*
Y5200D01*
Y5227D02*
X7515Y5253D01*
Y5280D02*
Y5307D01*
Y5293D01*
X7435D01*
X7448Y5280D01*
Y5347D02*
X7435Y5360D01*
Y5387D01*
X7448Y5400D01*
X7502D01*
X7515Y5387D01*
Y5360D01*
X7502Y5347D01*
X7448D01*
X7665Y5233D02*
X7585D01*
Y5273D01*
X7598Y5287D01*
X7625D01*
X7638Y5273D01*
Y5233D01*
Y5260D02*
X7665Y5287D01*
X7652Y5313D02*
X7665Y5327D01*
Y5353D01*
X7652Y5367D01*
X7598D01*
X7585Y5353D01*
Y5327D01*
X7598Y5313D01*
X7612D01*
X7625Y5327D01*
Y5367D01*
X7890Y4608D02*
X7810D01*
Y4648D01*
X7823Y4662D01*
X7850D01*
X7863Y4648D01*
Y4608D01*
Y4635D02*
X7890Y4662D01*
X7823Y4688D02*
X7810Y4702D01*
Y4728D01*
X7823Y4742D01*
X7837D01*
X7850Y4728D01*
X7863Y4742D01*
X7877D01*
X7890Y4728D01*
Y4702D01*
X7877Y4688D01*
X7863D01*
X7850Y4702D01*
X7837Y4688D01*
X7823D01*
X7850Y4702D02*
Y4728D01*
X8265Y4608D02*
X8185D01*
Y4648D01*
X8198Y4662D01*
X8225D01*
X8238Y4648D01*
Y4608D01*
Y4635D02*
X8265Y4662D01*
X8185Y4688D02*
Y4742D01*
X8198D01*
X8252Y4688D01*
X8265D01*
X8165Y3133D02*
X8085D01*
Y3173D01*
X8098Y3187D01*
X8125D01*
X8138Y3173D01*
Y3133D01*
Y3160D02*
X8165Y3187D01*
X8098Y3213D02*
X8085Y3227D01*
Y3253D01*
X8098Y3267D01*
X8112D01*
X8125Y3253D01*
Y3240D01*
Y3253D01*
X8138Y3267D01*
X8152D01*
X8165Y3253D01*
Y3227D01*
X8152Y3213D01*
X8247Y3260D02*
Y3340D01*
X8287D01*
X8300Y3327D01*
Y3300D01*
X8287Y3287D01*
X8247D01*
X8273D02*
X8300Y3260D01*
X8327D02*
X8353D01*
X8340D01*
Y3340D01*
X8327Y3327D01*
X2633Y960D02*
Y1040D01*
X2660Y1013D01*
X2687Y1040D01*
Y960D01*
X2713Y1027D02*
X2727Y1040D01*
X2753D01*
X2767Y1027D01*
Y1013D01*
X2753Y1000D01*
X2740D01*
X2753D01*
X2767Y987D01*
Y973D01*
X2753Y960D01*
X2727D01*
X2713Y973D01*
X5372Y5535D02*
Y5615D01*
X5398Y5588D01*
X5425Y5615D01*
Y5535D01*
X5452D02*
X5478D01*
X5465D01*
Y5615D01*
X5452Y5602D01*
X7733Y3265D02*
Y3185D01*
X7773D01*
X7787Y3198D01*
Y3252D01*
X7773Y3265D01*
X7733D01*
X7867Y3185D02*
X7813D01*
X7867Y3238D01*
Y3252D01*
X7853Y3265D01*
X7827D01*
X7813Y3252D01*
X8728Y4977D02*
X8715Y4990D01*
X8688D01*
X8675Y4977D01*
Y4923D01*
X8688Y4910D01*
X8715D01*
X8728Y4923D01*
X8755Y4910D02*
X8782D01*
X8768D01*
Y4990D01*
X8755Y4977D01*
X8862Y4910D02*
Y4990D01*
X8822Y4950D01*
X8875D01*
X8728Y4827D02*
X8715Y4840D01*
X8688D01*
X8675Y4827D01*
Y4773D01*
X8688Y4760D01*
X8715D01*
X8728Y4773D01*
X8755Y4760D02*
X8782D01*
X8768D01*
Y4840D01*
X8755Y4827D01*
X8822D02*
X8835Y4840D01*
X8862D01*
X8875Y4827D01*
Y4813D01*
X8862Y4800D01*
X8848D01*
X8862D01*
X8875Y4787D01*
Y4773D01*
X8862Y4760D01*
X8835D01*
X8822Y4773D01*
X6878Y2377D02*
X6865Y2390D01*
X6838D01*
X6825Y2377D01*
Y2323D01*
X6838Y2310D01*
X6865D01*
X6878Y2323D01*
X6905Y2310D02*
X6932D01*
X6918D01*
Y2390D01*
X6905Y2377D01*
X7025Y2310D02*
X6972D01*
X7025Y2363D01*
Y2377D01*
X7012Y2390D01*
X6985D01*
X6972Y2377D01*
X7142Y2527D02*
X7128Y2540D01*
X7102D01*
X7088Y2527D01*
Y2473D01*
X7102Y2460D01*
X7128D01*
X7142Y2473D01*
X7168Y2460D02*
X7195D01*
X7182D01*
Y2540D01*
X7168Y2527D01*
X7235Y2460D02*
X7262D01*
X7248D01*
Y2540D01*
X7235Y2527D01*
X7173Y4112D02*
X7160Y4098D01*
Y4072D01*
X7173Y4058D01*
X7227D01*
X7240Y4072D01*
Y4098D01*
X7227Y4112D01*
Y4138D02*
X7240Y4152D01*
Y4178D01*
X7227Y4192D01*
X7173D01*
X7160Y4178D01*
Y4152D01*
X7173Y4138D01*
X7187D01*
X7200Y4152D01*
Y4192D01*
X7637Y4327D02*
X7623Y4340D01*
X7597D01*
X7583Y4327D01*
Y4273D01*
X7597Y4260D01*
X7623D01*
X7637Y4273D01*
X7663Y4340D02*
X7717D01*
Y4327D01*
X7663Y4273D01*
Y4260D01*
X8023Y3812D02*
X8010Y3798D01*
Y3772D01*
X8023Y3758D01*
X8077D01*
X8090Y3772D01*
Y3798D01*
X8077Y3812D01*
X8010Y3892D02*
Y3838D01*
X8050D01*
X8037Y3865D01*
Y3878D01*
X8050Y3892D01*
X8077D01*
X8090Y3878D01*
Y3852D01*
X8077Y3838D01*
X7548Y3312D02*
X7535Y3298D01*
Y3272D01*
X7548Y3258D01*
X7602D01*
X7615Y3272D01*
Y3298D01*
X7602Y3312D01*
X7548Y3338D02*
X7535Y3352D01*
Y3378D01*
X7548Y3392D01*
X7562D01*
X7575Y3378D01*
Y3365D01*
Y3378D01*
X7588Y3392D01*
X7602D01*
X7615Y3378D01*
Y3352D01*
X7602Y3338D01*
X7173Y3600D02*
X7160Y3587D01*
Y3560D01*
X7173Y3547D01*
X7227D01*
X7240Y3560D01*
Y3587D01*
X7227Y3600D01*
X7240Y3627D02*
Y3653D01*
Y3640D01*
X7160D01*
X7173Y3627D01*
D14*
X8305Y2272D02*
X8638D01*
X8472Y2438D02*
Y2105D01*
X8480Y1072D02*
X8813D01*
X8647Y1238D02*
Y905D01*
M02*
