M48
;Layer_Color=9474304
;FILE_FORMAT=4:2
METRIC,LZ
;TYPE=PLATED
T1F00S00C0.30
T2F00S00C0.90
T3F00S00C1.00
T4F00S00C1.06
T5F00S00C1.14
T6F00S00C1.40
T7F00S00C1.80
T8F00S00C3.20
;TYPE=NON_PLATED
T9F00S00C0.65
%
T01
X000674Y000518
X000924
X001174
X008924
X008799Y000768
X008549
X008674Y001018
X008924
X008799Y001268
X008549
X008674Y001518
X008924
X008799Y001768
X008549
X008299
X008424Y002018
X008674
X008924
X008799Y002268
X008549
X008299
X008424Y002518
X008674
X008924
X008799Y002768
X008924Y003018
X008799Y003268
X008549
X008924Y003518
X008799Y003768
X008924Y004018
X008674
X008403Y003981
X0084Y004075
X008386Y0039
X0081Y003975
Y004075
X007674Y004018
X007799Y004268
X007549
X007674Y004518
X007174
X00675Y004575
Y00445
Y00435
Y00425
Y00415
Y004025
Y0039
Y0038
Y0037
Y0036
X006674Y003518
X006625Y0032
X006725Y003125
X006674Y003018
X00715Y0029
Y00325
X00705Y003275
Y003375
Y003475
X007275Y003708
X007174Y004018
X00675Y0047
X0085Y004225
X008799Y004268
X008924Y004518
X008174Y003518
X007549Y003268
X007674Y003018
X007424
X007549Y002768
X007674Y002518
X007424
X007225Y002375
X007299Y002268
X007549
X007674Y002018
X007924
X007799Y001768
X007549
X007299
X007049
X006799
X007174Y002018
X007424
X008424Y001518
X006475Y002375
X00635
X0063Y0029
X0064
X0065Y0029
X006175
X005975Y003125
X00605Y003225
X006174Y003518
X006424
X006549Y003268
X005575Y00325
Y003075
Y002875
X00554Y0035
X005455
X005624Y003504
X005704Y003496
X00518Y003475
Y003575
Y0037
X004975Y0038
X004799Y003768
X00495Y0036
X004575Y003575
X004425Y003575
X004075Y003725
X003975
X003875
X003924Y003018
X003674
X003424
X003174
X003049Y003268
X002799Y002768
X002825Y002375
X0031
X003425
X003775
X00405
X00435
X0047
X00495
X004575Y0021
X00455Y003075
X004674Y003018
X004725Y003175
X004924Y003018
X0044Y002925
X004225Y002825
X00485Y004283
X005146Y004576
X002225Y004475
X002049Y003268
X001799
X001549
X001299
X001049
X001174Y003518
X001424
X001674
X000924
X000799Y003768
Y004268
X000424Y004018
X000549Y003268
X000674Y003018
X000424
X000549Y002768
X000799
X001049
X001299
X001549
X001799
X002049
X002299
X002549
X002424Y003018
X002174
Y002518
X002275Y002375
X00255
X001799Y002268
X001549
X001299
X001049
X000799
X000424Y002518
Y002018
Y001518
X000674
X000924
X001174
X001049Y001268
X000799
X000674Y001018
X000799Y000768
X001049
X000549
X000799Y004768
X000674Y005018
X000424
Y005518
X000674
X000799Y005768
X000924Y006018
X000674
X001424
X001868Y005642
X001887Y005534
X001945Y00544
X002032Y005374
X002138Y005345
X002207Y005607
X002317Y005616
X002427
X002537
X002549Y005768
X002424Y006018
X0022Y004775
X000799Y005268
X002675Y005387
X002681Y005497
X002646Y005601
X002799Y005768
X003049
X003299
X003549
X003799
X003824Y005616
X003934
X004044
X004153Y005607
X004263
X004368Y005639
X004627Y005577
X004588Y005474
X004512Y005395
X004411Y00535
X004301Y005343
X004191
X004549Y005268
X004799
X005049
X005174Y005518
X005424
X005674
X005924
X006174
X006424
X006549Y005768
X006299
X006049
X005799
X005549
X005299
X005049
X005174Y006018
X005424
X005674
X005924
X006174
X006424
X006549Y005268
X006299
X006049
X005799
X005549
X005674Y005018
X005924
X006174
X006424
X006549Y004768
X006299
X006049
X005799
X005174Y005018
X004924
X004674
X004424
X003674
X003424
X003174
X002924
X002674
X002799Y005268
X003049
X003299
X003549
X003719Y005455
X003726Y005565
X003424Y005518
X003174
X002924
Y006018
X003174
X003424
X003674
X003924
X004049Y005768
X004924Y006018
Y005518
X002674Y006018
X006674Y005518
X006924Y005557
X006894Y005663
X006982Y005463
X007039Y005369
X007056Y005261
X006799Y005268
X006766Y005136
X006767Y005026
X006674Y005018
X006858Y004964
X006968Y004964
X007078Y004955
X007177Y005001
X007255Y00508
X007306Y005177
X007326Y005285
X007315Y005395
X007271Y005495
X007213Y005589
X007424Y005518
X007674
X007799Y005768
X008049
X008299
X008424Y006018
X008174
X007924
X007674
X007424
X007549Y005768
Y005268
X007918Y005175
X008025
X00813
X008025Y005067
Y005283
X008549Y005268
X008799
X008924Y005518
X008674
X008424
X00835Y00495
X008666Y004953
Y004753
X008924Y005018
Y006018
X007799Y004768
X0076Y0048
X007475Y004725
X007299Y004768
T02
X008525Y003002
X0012Y00385
Y004104
Y004358
Y004612
X000946
Y004358
Y004104
Y00385
Y004866
Y00512
Y005374
Y005628
Y005882
X0012
Y005628
Y005374
Y00512
Y004866
T03
X008525Y002748
X000775Y00242
Y00318
X00025Y00375
Y00425
Y00175
Y00125
Y00475
Y00525
T04
X007821Y002275
X008075
X006154Y002475
X0059
T05
X002754Y0035
X003008
X003262
X003516
X004875Y0022
X005129
X005383
X005637
X005891
X006145
X006399
X0025Y0035
X002246
X001992
T06
X0005Y00115
Y00185
Y00365
Y00435
Y00465
Y00535
T07
X00815Y001025
X00095
T08
X0004Y0004
X0086
X0004Y0058
X0086
T09
X008394Y003712
Y004288
M30
