G04*
G04 #@! TF.GenerationSoftware,Altium Limited,Altium Designer,23.0.1 (38)*
G04*
G04 Layer_Physical_Order=2*
G04 Layer_Color=16711680*
%FSLAX42Y42*%
%MOMM*%
G71*
G04*
G04 #@! TF.SameCoordinates,B15292C3-EAD5-4A71-986A-2A6C0C3FE727*
G04*
G04*
G04 #@! TF.FilePolarity,Positive*
G04*
G01*
G75*
%ADD12C,0.25*%
%ADD16R,1.60X4.90*%
%ADD66C,1.00*%
%ADD68C,0.60*%
%ADD70C,1.60*%
%ADD71R,1.60X1.60*%
%ADD72R,1.50X1.50*%
%ADD73C,1.50*%
%ADD74C,4.00*%
%ADD75R,1.71X1.71*%
%ADD76C,1.71*%
%ADD77C,0.65*%
%ADD78C,2.00*%
G04:AMPARAMS|DCode=79|XSize=2mm|YSize=2mm|CornerRadius=0.5mm|HoleSize=0mm|Usage=FLASHONLY|Rotation=270.000|XOffset=0mm|YOffset=0mm|HoleType=Round|Shape=RoundedRectangle|*
%AMROUNDEDRECTD79*
21,1,2.00,1.00,0,0,270.0*
21,1,1.00,2.00,0,0,270.0*
1,1,1.00,-0.50,-0.50*
1,1,1.00,-0.50,0.50*
1,1,1.00,0.50,0.50*
1,1,1.00,0.50,-0.50*
%
%ADD79ROUNDEDRECTD79*%
%ADD80C,1.59*%
%ADD81R,1.59X1.59*%
%ADD82C,1.80*%
%ADD83O,2.20X2.25*%
%ADD84C,2.20*%
%ADD85C,0.60*%
G36*
X8969Y1600D02*
X8969Y31D01*
X8350D01*
Y874D01*
X8372Y907D01*
X8390Y952D01*
X8400Y1000D01*
Y1050D01*
X8390Y1098D01*
X8372Y1143D01*
X8350Y1176D01*
Y1600D01*
X663D01*
X659Y1612D01*
X839Y1792D01*
X6525D01*
X6538Y1794D01*
X6548Y1802D01*
X7098Y2352D01*
X7106Y2362D01*
X7108Y2375D01*
Y2853D01*
X7112Y2856D01*
X7121Y2858D01*
X7122Y2858D01*
X7126Y2856D01*
X7130Y2853D01*
X7135Y2852D01*
X7140Y2850D01*
X7145D01*
X7150Y2849D01*
X7155Y2850D01*
X7160D01*
X7165Y2852D01*
X7170Y2853D01*
X7174Y2856D01*
X7178Y2858D01*
X7182Y2861D01*
X7186Y2864D01*
X7189Y2868D01*
X7192Y2871D01*
X7195Y2871D01*
X7204Y2867D01*
Y2454D01*
X7175Y2425D01*
X7164Y2410D01*
X7157Y2393D01*
X7154Y2375D01*
X7157Y2357D01*
X7164Y2340D01*
X7175Y2325D01*
X7190Y2314D01*
X7207Y2307D01*
X7225Y2304D01*
X7243Y2307D01*
X7260Y2314D01*
X7275Y2325D01*
X7325Y2375D01*
X7336Y2390D01*
X7343Y2407D01*
X7346Y2425D01*
Y3708D01*
X7343Y3727D01*
X7336Y3744D01*
X7325Y3758D01*
X7310Y3769D01*
X7293Y3777D01*
X7290Y3777D01*
X7286Y3789D01*
X7498Y4002D01*
X7506Y4012D01*
X7508Y4025D01*
Y4687D01*
X7517Y4697D01*
X7525Y4715D01*
Y4735D01*
X7517Y4753D01*
X7516Y4755D01*
X7520Y4767D01*
X7562D01*
X7572Y4758D01*
X7590Y4750D01*
X7610D01*
X7628Y4758D01*
X7642Y4772D01*
X7650Y4790D01*
Y4810D01*
X7642Y4828D01*
X7628Y4842D01*
X7610Y4850D01*
X7590D01*
X7572Y4842D01*
X7562Y4833D01*
X7450D01*
X7437Y4831D01*
X7427Y4823D01*
X7377Y4773D01*
X7369Y4763D01*
X7367Y4750D01*
Y4039D01*
X6608Y3280D01*
X6601Y3269D01*
X6599Y3257D01*
Y3243D01*
X6597Y3242D01*
X6583Y3228D01*
X6575Y3210D01*
Y3190D01*
X6583Y3172D01*
X6597Y3158D01*
X6615Y3150D01*
X6635D01*
X6653Y3158D01*
X6667Y3172D01*
X6675Y3190D01*
Y3210D01*
X6667Y3228D01*
X6665Y3230D01*
Y3243D01*
X6680Y3258D01*
X6692Y3253D01*
Y3163D01*
X6683Y3153D01*
X6675Y3135D01*
Y3115D01*
X6683Y3097D01*
X6697Y3083D01*
X6715Y3075D01*
X6735D01*
X6753Y3083D01*
X6767Y3097D01*
X6775Y3115D01*
Y3135D01*
X6767Y3153D01*
X6758Y3163D01*
Y3261D01*
X6856Y3359D01*
X6867Y3353D01*
X6867Y3350D01*
Y2439D01*
X6436Y2008D01*
X6420D01*
X6415Y2021D01*
X6422Y2028D01*
X6430Y2039D01*
X6432Y2052D01*
Y2094D01*
X6504D01*
Y2306D01*
X6294D01*
Y2094D01*
X6366D01*
Y2070D01*
X6079D01*
X6074Y2082D01*
X6097Y2106D01*
X6104Y2102D01*
X6131Y2094D01*
X6159D01*
X6186Y2102D01*
X6210Y2116D01*
X6229Y2135D01*
X6243Y2159D01*
X6251Y2186D01*
Y2214D01*
X6243Y2241D01*
X6229Y2265D01*
X6210Y2284D01*
X6186Y2298D01*
X6159Y2306D01*
X6131D01*
X6104Y2298D01*
X6080Y2284D01*
X6061Y2265D01*
X6047Y2241D01*
X6040Y2214D01*
Y2186D01*
X6047Y2159D01*
X6051Y2152D01*
X6013Y2115D01*
X5973D01*
X5968Y2128D01*
X5975Y2135D01*
X5989Y2159D01*
X5997Y2186D01*
Y2214D01*
X5989Y2241D01*
X5975Y2265D01*
X5956Y2284D01*
X5932Y2298D01*
X5905Y2306D01*
X5877D01*
X5850Y2298D01*
X5843Y2294D01*
X5808Y2330D01*
Y2411D01*
X5818Y2413D01*
X5821Y2413D01*
X5839Y2395D01*
X5862Y2382D01*
X5887Y2375D01*
X5913D01*
X5938Y2382D01*
X5961Y2395D01*
X5980Y2414D01*
X5993Y2437D01*
X5999Y2462D01*
Y2488D01*
X5993Y2513D01*
X5980Y2536D01*
X5961Y2555D01*
X5938Y2568D01*
X5933Y2569D01*
Y3080D01*
X5945Y3084D01*
X5947Y3083D01*
X5965Y3075D01*
X5985D01*
X6003Y3083D01*
X6017Y3097D01*
X6025Y3115D01*
Y3135D01*
X6017Y3153D01*
X6008Y3163D01*
Y3302D01*
X6021Y3307D01*
X6167Y3161D01*
Y2950D01*
X6165D01*
X6147Y2942D01*
X6133Y2928D01*
X6125Y2910D01*
Y2890D01*
X6133Y2872D01*
X6147Y2858D01*
X6165Y2850D01*
X6185D01*
X6203Y2858D01*
X6217Y2872D01*
X6225Y2890D01*
Y2910D01*
X6225Y2911D01*
X6231Y2919D01*
X6231Y2922D01*
X6244Y2922D01*
X6244Y2919D01*
X6250Y2911D01*
X6250Y2910D01*
Y2890D01*
X6258Y2872D01*
X6272Y2858D01*
X6290Y2850D01*
X6310D01*
X6328Y2858D01*
X6342Y2872D01*
X6344Y2875D01*
X6356D01*
X6358Y2872D01*
X6372Y2858D01*
X6390Y2850D01*
X6410D01*
X6428Y2858D01*
X6442Y2872D01*
X6443Y2873D01*
X6457D01*
X6458Y2872D01*
X6472Y2858D01*
X6490Y2850D01*
X6510D01*
X6528Y2858D01*
X6542Y2872D01*
X6550Y2890D01*
Y2910D01*
X6542Y2928D01*
X6528Y2942D01*
X6510Y2950D01*
X6508D01*
Y3091D01*
X6506Y3104D01*
X6498Y3114D01*
X6059Y3554D01*
X6064Y3567D01*
X6712D01*
X6722Y3558D01*
X6740Y3550D01*
X6760D01*
X6778Y3558D01*
X6792Y3572D01*
X6800Y3590D01*
Y3610D01*
X6792Y3628D01*
X6778Y3642D01*
X6775Y3644D01*
Y3656D01*
X6778Y3658D01*
X6792Y3672D01*
X6800Y3690D01*
Y3710D01*
X6792Y3728D01*
X6778Y3742D01*
X6775Y3744D01*
Y3756D01*
X6778Y3758D01*
X6792Y3772D01*
X6800Y3790D01*
Y3810D01*
X6792Y3828D01*
X6778Y3842D01*
X6775Y3844D01*
Y3856D01*
X6778Y3858D01*
X6792Y3872D01*
X6800Y3890D01*
Y3910D01*
X6792Y3928D01*
X6778Y3942D01*
X6775Y3944D01*
Y3981D01*
X6778Y3983D01*
X6792Y3997D01*
X6800Y4015D01*
Y4035D01*
X6792Y4053D01*
X6778Y4067D01*
X6775Y4069D01*
Y4106D01*
X6778Y4108D01*
X6792Y4122D01*
X6800Y4140D01*
Y4160D01*
X6792Y4178D01*
X6778Y4192D01*
X6775Y4194D01*
Y4206D01*
X6778Y4208D01*
X6792Y4222D01*
X6800Y4240D01*
Y4260D01*
X6792Y4278D01*
X6778Y4292D01*
X6775Y4294D01*
Y4306D01*
X6778Y4308D01*
X6792Y4322D01*
X6800Y4340D01*
Y4360D01*
X6792Y4378D01*
X6778Y4392D01*
X6775Y4394D01*
Y4406D01*
X6778Y4408D01*
X6792Y4422D01*
X6800Y4440D01*
Y4460D01*
X6792Y4478D01*
X6778Y4492D01*
X6775Y4494D01*
Y4531D01*
X6778Y4533D01*
X6792Y4547D01*
X6800Y4565D01*
Y4585D01*
X6792Y4603D01*
X6778Y4617D01*
X6775Y4619D01*
Y4656D01*
X6778Y4658D01*
X6792Y4672D01*
X6800Y4690D01*
Y4710D01*
X6792Y4728D01*
X6778Y4742D01*
X6760Y4750D01*
X6740D01*
X6722Y4742D01*
X6712Y4733D01*
X5789D01*
X5723Y4798D01*
X5713Y4806D01*
X5703Y4808D01*
X5692Y4818D01*
X5681Y4826D01*
X5669Y4828D01*
X2719D01*
X2523Y5023D01*
X2513Y5031D01*
X2500Y5033D01*
X2264D01*
X1325Y5972D01*
Y6025D01*
X1272D01*
X1248Y6048D01*
X1238Y6056D01*
X1225Y6058D01*
X1125D01*
X1112Y6056D01*
X1102Y6048D01*
X1078Y6025D01*
X825D01*
Y4000D01*
X1257D01*
X1303Y3955D01*
X1294Y3945D01*
X1283Y3945D01*
X1105D01*
Y3755D01*
X1295D01*
Y3932D01*
X1295Y3944D01*
X1305Y3953D01*
X1406Y3852D01*
X1416Y3844D01*
X1429Y3842D01*
X4930D01*
X4934Y3830D01*
X4933Y3828D01*
X4925Y3810D01*
Y3790D01*
X4926Y3788D01*
X4919Y3778D01*
X4917Y3766D01*
Y3638D01*
X4908Y3628D01*
X4900Y3610D01*
Y3590D01*
X4908Y3572D01*
X4922Y3558D01*
X4940Y3550D01*
X4960D01*
X4969Y3554D01*
X4976Y3543D01*
X4966Y3533D01*
X3616D01*
X3614Y3541D01*
X3600Y3565D01*
X3581Y3584D01*
X3557Y3598D01*
X3530Y3606D01*
X3502D01*
X3475Y3598D01*
X3451Y3584D01*
X3432Y3565D01*
X3418Y3541D01*
X3410Y3514D01*
Y3486D01*
X3418Y3459D01*
X3432Y3435D01*
X3446Y3421D01*
X3441Y3408D01*
X3401D01*
X3356Y3452D01*
X3360Y3459D01*
X3367Y3486D01*
Y3514D01*
X3360Y3541D01*
X3346Y3565D01*
X3327Y3584D01*
X3303Y3598D01*
X3276Y3606D01*
X3248D01*
X3221Y3598D01*
X3197Y3584D01*
X3178Y3565D01*
X3164Y3541D01*
X3157Y3514D01*
Y3486D01*
X3164Y3459D01*
X3178Y3435D01*
X3197Y3416D01*
X3221Y3402D01*
X3248Y3394D01*
X3276D01*
X3303Y3402D01*
X3310Y3406D01*
X3364Y3352D01*
X3372Y3346D01*
X3371Y3336D01*
X3370Y3333D01*
X3222D01*
X3102Y3452D01*
X3106Y3459D01*
X3114Y3486D01*
Y3514D01*
X3106Y3541D01*
X3092Y3565D01*
X3073Y3584D01*
X3049Y3598D01*
X3022Y3606D01*
X2994D01*
X2967Y3598D01*
X2943Y3584D01*
X2924Y3565D01*
X2910Y3541D01*
X2902Y3514D01*
Y3486D01*
X2910Y3459D01*
X2924Y3435D01*
X2943Y3416D01*
X2967Y3402D01*
X2994Y3394D01*
X3022D01*
X3049Y3402D01*
X3056Y3406D01*
X3185Y3277D01*
X3195Y3269D01*
X3208Y3267D01*
X5005D01*
X5018Y3269D01*
X5028Y3277D01*
X5177Y3425D01*
X5190D01*
X5208Y3433D01*
X5222Y3447D01*
X5230Y3465D01*
Y3485D01*
X5222Y3503D01*
X5208Y3517D01*
X5207Y3518D01*
Y3532D01*
X5208Y3533D01*
X5222Y3547D01*
X5230Y3565D01*
Y3585D01*
X5222Y3603D01*
X5208Y3617D01*
X5190Y3625D01*
X5170D01*
X5170Y3625D01*
X5162Y3636D01*
X5177Y3650D01*
X5190D01*
X5208Y3658D01*
X5222Y3672D01*
X5230Y3690D01*
Y3710D01*
X5222Y3728D01*
X5208Y3742D01*
X5190Y3750D01*
X5170D01*
X5152Y3742D01*
X5138Y3728D01*
X5130Y3710D01*
Y3697D01*
X5007Y3574D01*
X4996Y3581D01*
X5000Y3590D01*
Y3610D01*
X4992Y3628D01*
X4983Y3638D01*
Y3750D01*
X4985D01*
X5003Y3758D01*
X5017Y3772D01*
X5025Y3790D01*
Y3810D01*
X5017Y3828D01*
X5016Y3830D01*
X5020Y3842D01*
X5400D01*
X5685Y3556D01*
X5682Y3541D01*
X5675Y3539D01*
X5669Y3532D01*
X5667Y3533D01*
X5653Y3547D01*
X5634Y3554D01*
X5614D01*
X5596Y3547D01*
X5589Y3540D01*
X5572Y3539D01*
X5568Y3542D01*
X5550Y3550D01*
X5530D01*
X5512Y3542D01*
X5506Y3537D01*
X5497Y3528D01*
X5489Y3537D01*
X5483Y3542D01*
X5465Y3550D01*
X5445D01*
X5427Y3542D01*
X5413Y3528D01*
X5405Y3510D01*
Y3490D01*
X5413Y3472D01*
X5422Y3462D01*
Y2370D01*
X5424Y2357D01*
X5432Y2347D01*
X5486Y2292D01*
Y2258D01*
X5473Y2255D01*
X5467Y2265D01*
X5448Y2284D01*
X5424Y2298D01*
X5397Y2306D01*
X5369D01*
X5342Y2298D01*
X5318Y2284D01*
X5299Y2265D01*
X5285Y2241D01*
X5278Y2214D01*
Y2186D01*
X5285Y2159D01*
X5299Y2135D01*
X5318Y2116D01*
X5342Y2102D01*
X5369Y2094D01*
X5397D01*
X5424Y2102D01*
X5448Y2116D01*
X5467Y2135D01*
X5473Y2145D01*
X5486Y2142D01*
Y2106D01*
X5488Y2093D01*
X5496Y2083D01*
X5557Y2021D01*
X5552Y2008D01*
X814D01*
X358Y2464D01*
Y3161D01*
X723Y3527D01*
X731Y3537D01*
X733Y3550D01*
Y4775D01*
X731Y4788D01*
X723Y4798D01*
X621Y4901D01*
X610Y4908D01*
X597Y4911D01*
X282D01*
X269Y4908D01*
X259Y4901D01*
X244Y4886D01*
X237Y4876D01*
X234Y4863D01*
Y4860D01*
X208Y4853D01*
X182Y4838D01*
X162Y4818D01*
X147Y4792D01*
X140Y4764D01*
Y4736D01*
X147Y4708D01*
X162Y4682D01*
X182Y4662D01*
X208Y4647D01*
X236Y4640D01*
X264D01*
X292Y4647D01*
X318Y4662D01*
X338Y4682D01*
X353Y4708D01*
X360Y4736D01*
Y4764D01*
X353Y4792D01*
X338Y4818D01*
X324Y4832D01*
X329Y4844D01*
X584D01*
X667Y4761D01*
Y3564D01*
X302Y3198D01*
X296Y3190D01*
X286Y3191D01*
X283Y3192D01*
Y3645D01*
X292Y3647D01*
X318Y3662D01*
X338Y3682D01*
X353Y3708D01*
X360Y3736D01*
Y3764D01*
X353Y3792D01*
X338Y3818D01*
X318Y3838D01*
X292Y3853D01*
X264Y3860D01*
X236D01*
X208Y3853D01*
X182Y3838D01*
X162Y3818D01*
X147Y3792D01*
X140Y3764D01*
Y3736D01*
X147Y3708D01*
X162Y3682D01*
X182Y3662D01*
X208Y3647D01*
X217Y3645D01*
Y2425D01*
X219Y2412D01*
X227Y2402D01*
X752Y1877D01*
X762Y1869D01*
X775Y1867D01*
X808D01*
X809Y1864D01*
X810Y1854D01*
X802Y1848D01*
X553Y1600D01*
X31D01*
X31Y6163D01*
X8969D01*
X8969Y1600D01*
D02*
G37*
G36*
X5506Y3463D02*
X5512Y3458D01*
X5530Y3450D01*
X5543D01*
X5666Y3327D01*
Y2327D01*
X5668Y2320D01*
X5662Y2312D01*
X5658Y2309D01*
X5652Y2311D01*
X5650D01*
Y2200D01*
X5624D01*
Y2311D01*
X5622D01*
X5594Y2303D01*
X5569Y2289D01*
X5564Y2284D01*
X5552Y2289D01*
Y2306D01*
X5550Y2319D01*
X5542Y2329D01*
X5488Y2384D01*
Y3462D01*
X5489Y3463D01*
X5497Y3472D01*
X5506Y3463D01*
D02*
G37*
G36*
X649Y1586D02*
X649Y1586D01*
Y1586D01*
X649Y1586D01*
X656Y1581D01*
X663Y1580D01*
X1275D01*
Y31D01*
X31D01*
Y1567D01*
X31Y1580D01*
X516D01*
X521Y1568D01*
X301Y1348D01*
X292Y1353D01*
X264Y1360D01*
X236D01*
X208Y1353D01*
X182Y1338D01*
X162Y1318D01*
X147Y1292D01*
X140Y1264D01*
Y1236D01*
X147Y1208D01*
X162Y1182D01*
X182Y1162D01*
X208Y1147D01*
X236Y1140D01*
X264D01*
X292Y1147D01*
X318Y1162D01*
X338Y1182D01*
X353Y1208D01*
X360Y1236D01*
Y1264D01*
X353Y1292D01*
X348Y1301D01*
X634Y1587D01*
X649Y1586D01*
D02*
G37*
%LPC*%
G36*
X8622Y6025D02*
X8613D01*
Y5813D01*
X8825D01*
Y5822D01*
X8817Y5866D01*
X8800Y5907D01*
X8775Y5944D01*
X8744Y5975D01*
X8707Y6000D01*
X8666Y6017D01*
X8622Y6025D01*
D02*
G37*
G36*
X8587D02*
X8578D01*
X8534Y6017D01*
X8493Y6000D01*
X8456Y5975D01*
X8425Y5944D01*
X8400Y5907D01*
X8383Y5866D01*
X8375Y5822D01*
Y5813D01*
X8587D01*
Y6025D01*
D02*
G37*
G36*
X422D02*
X413D01*
Y5813D01*
X625D01*
Y5822D01*
X617Y5866D01*
X600Y5907D01*
X575Y5944D01*
X544Y5975D01*
X507Y6000D01*
X466Y6017D01*
X422Y6025D01*
D02*
G37*
G36*
X387D02*
X378D01*
X334Y6017D01*
X293Y6000D01*
X256Y5975D01*
X225Y5944D01*
X200Y5907D01*
X183Y5866D01*
X175Y5822D01*
Y5813D01*
X387D01*
Y6025D01*
D02*
G37*
G36*
X8825Y5787D02*
X8613D01*
Y5575D01*
X8622D01*
X8666Y5583D01*
X8707Y5600D01*
X8744Y5625D01*
X8775Y5656D01*
X8800Y5693D01*
X8817Y5734D01*
X8825Y5778D01*
Y5787D01*
D02*
G37*
G36*
X8587D02*
X8375D01*
Y5778D01*
X8383Y5734D01*
X8400Y5693D01*
X8425Y5656D01*
X8456Y5625D01*
X8493Y5600D01*
X8534Y5583D01*
X8578Y5575D01*
X8587D01*
Y5787D01*
D02*
G37*
G36*
X625D02*
X413D01*
Y5575D01*
X422D01*
X466Y5583D01*
X507Y5600D01*
X544Y5625D01*
X575Y5656D01*
X600Y5693D01*
X617Y5734D01*
X625Y5778D01*
Y5787D01*
D02*
G37*
G36*
X387D02*
X175D01*
Y5778D01*
X183Y5734D01*
X200Y5693D01*
X225Y5656D01*
X256Y5625D01*
X293Y5600D01*
X334Y5583D01*
X378Y5575D01*
X387D01*
Y5787D01*
D02*
G37*
G36*
X265Y5365D02*
X263D01*
Y5263D01*
X365D01*
Y5265D01*
X358Y5295D01*
X342Y5321D01*
X321Y5342D01*
X295Y5358D01*
X265Y5365D01*
D02*
G37*
G36*
X237D02*
X235D01*
X205Y5358D01*
X179Y5342D01*
X158Y5321D01*
X142Y5295D01*
X135Y5265D01*
Y5263D01*
X237D01*
Y5365D01*
D02*
G37*
G36*
X500Y5484D02*
X466Y5479D01*
X434Y5466D01*
X407Y5445D01*
X386Y5418D01*
X373Y5386D01*
X369Y5353D01*
Y5347D01*
X373Y5314D01*
X386Y5282D01*
X407Y5255D01*
X434Y5234D01*
X466Y5221D01*
X500Y5216D01*
X534Y5221D01*
X566Y5234D01*
X593Y5255D01*
X614Y5282D01*
X627Y5314D01*
X631Y5347D01*
Y5353D01*
X627Y5386D01*
X614Y5418D01*
X593Y5445D01*
X566Y5466D01*
X534Y5479D01*
X500Y5484D01*
D02*
G37*
G36*
X365Y5237D02*
X263D01*
Y5135D01*
X265D01*
X295Y5142D01*
X321Y5158D01*
X342Y5179D01*
X358Y5205D01*
X365Y5235D01*
Y5237D01*
D02*
G37*
G36*
X237D02*
X135D01*
Y5235D01*
X142Y5205D01*
X158Y5179D01*
X179Y5158D01*
X205Y5142D01*
X235Y5135D01*
X237D01*
Y5237D01*
D02*
G37*
G36*
X517Y4780D02*
X483D01*
X450Y4771D01*
X420Y4754D01*
X396Y4730D01*
X379Y4700D01*
X370Y4667D01*
Y4633D01*
X379Y4600D01*
X396Y4570D01*
X420Y4546D01*
X450Y4529D01*
X483Y4520D01*
X517D01*
X550Y4529D01*
X580Y4546D01*
X604Y4570D01*
X621Y4600D01*
X630Y4633D01*
Y4667D01*
X621Y4700D01*
X604Y4730D01*
X580Y4754D01*
X550Y4771D01*
X517Y4780D01*
D02*
G37*
G36*
X8350Y5001D02*
X8345Y5000D01*
X8340D01*
X8335Y4998D01*
X8330Y4997D01*
X8326Y4994D01*
X8322Y4992D01*
X8318Y4989D01*
X8314Y4986D01*
X8311Y4982D01*
X8308Y4978D01*
X8306Y4974D01*
X8303Y4970D01*
X8302Y4965D01*
X8300Y4960D01*
Y4955D01*
X8299Y4950D01*
X8300Y4945D01*
Y4940D01*
X8302Y4935D01*
X8303Y4930D01*
X8306Y4926D01*
X8308Y4922D01*
X8311Y4918D01*
X8314Y4914D01*
X8449Y4779D01*
Y4324D01*
X8447Y4323D01*
X8436Y4320D01*
X8424Y4333D01*
X8404Y4341D01*
X8384D01*
X8364Y4333D01*
X8349Y4318D01*
X8342Y4299D01*
Y4278D01*
X8349Y4259D01*
X8364Y4244D01*
X8384Y4236D01*
X8404D01*
X8424Y4244D01*
X8436Y4257D01*
X8447Y4254D01*
X8449Y4253D01*
Y4225D01*
X8450Y4220D01*
Y4215D01*
X8452Y4210D01*
X8453Y4205D01*
X8456Y4201D01*
X8458Y4197D01*
X8461Y4193D01*
X8464Y4189D01*
X8468Y4186D01*
X8472Y4183D01*
X8476Y4181D01*
X8480Y4178D01*
X8485Y4177D01*
X8490Y4175D01*
X8495D01*
X8500Y4174D01*
X8505Y4175D01*
X8510D01*
X8515Y4177D01*
X8520Y4178D01*
X8524Y4181D01*
X8528Y4183D01*
X8532Y4186D01*
X8536Y4189D01*
X8539Y4193D01*
X8542Y4197D01*
X8544Y4201D01*
X8547Y4205D01*
X8548Y4210D01*
X8550Y4215D01*
Y4220D01*
X8551Y4225D01*
Y4800D01*
X8547Y4820D01*
X8536Y4836D01*
X8386Y4986D01*
X8382Y4989D01*
X8378Y4992D01*
X8374Y4994D01*
X8370Y4997D01*
X8365Y4998D01*
X8360Y5000D01*
X8355D01*
X8350Y5001D01*
D02*
G37*
G36*
X265Y4365D02*
X263D01*
Y4263D01*
X365D01*
Y4265D01*
X358Y4295D01*
X342Y4321D01*
X321Y4342D01*
X295Y4358D01*
X265Y4365D01*
D02*
G37*
G36*
X237D02*
X235D01*
X205Y4358D01*
X179Y4342D01*
X158Y4321D01*
X142Y4295D01*
X135Y4265D01*
Y4263D01*
X237D01*
Y4365D01*
D02*
G37*
G36*
X500Y4484D02*
X466Y4479D01*
X434Y4466D01*
X407Y4445D01*
X386Y4418D01*
X373Y4386D01*
X369Y4353D01*
Y4347D01*
X373Y4314D01*
X386Y4282D01*
X407Y4255D01*
X434Y4234D01*
X466Y4221D01*
X500Y4216D01*
X534Y4221D01*
X566Y4234D01*
X593Y4255D01*
X614Y4282D01*
X627Y4314D01*
X631Y4347D01*
Y4353D01*
X627Y4386D01*
X614Y4418D01*
X593Y4445D01*
X566Y4466D01*
X534Y4479D01*
X500Y4484D01*
D02*
G37*
G36*
X365Y4237D02*
X263D01*
Y4135D01*
X265D01*
X295Y4142D01*
X321Y4158D01*
X342Y4179D01*
X358Y4205D01*
X365Y4235D01*
Y4237D01*
D02*
G37*
G36*
X237D02*
X135D01*
Y4235D01*
X142Y4205D01*
X158Y4179D01*
X179Y4158D01*
X205Y4142D01*
X235Y4135D01*
X237D01*
Y4237D01*
D02*
G37*
G36*
X8410Y4125D02*
X8390D01*
X8372Y4117D01*
X8358Y4103D01*
X8350Y4085D01*
Y4065D01*
X8358Y4047D01*
X8368Y4036D01*
Y4017D01*
X8361Y4009D01*
X8358Y4002D01*
X8343Y3999D01*
X8243Y4098D01*
X8233Y4106D01*
X8220Y4108D01*
X8138D01*
X8128Y4117D01*
X8110Y4125D01*
X8090D01*
X8072Y4117D01*
X8058Y4103D01*
X8050Y4085D01*
Y4065D01*
X8058Y4047D01*
X8072Y4033D01*
X8075Y4031D01*
Y4019D01*
X8072Y4017D01*
X8058Y4003D01*
X8050Y3985D01*
Y3965D01*
X8058Y3947D01*
X8072Y3933D01*
X8090Y3925D01*
X8110D01*
X8128Y3933D01*
X8142Y3947D01*
X8150Y3965D01*
Y3985D01*
X8142Y4003D01*
X8128Y4017D01*
X8125Y4019D01*
Y4031D01*
X8128Y4033D01*
X8138Y4042D01*
X8206D01*
X8337Y3911D01*
X8336Y3910D01*
Y3890D01*
X8344Y3871D01*
X8358Y3857D01*
X8376Y3850D01*
X8396D01*
X8414Y3857D01*
X8428Y3871D01*
X8436Y3890D01*
Y3910D01*
X8428Y3928D01*
X8433Y3941D01*
X8445Y3953D01*
X8453Y3971D01*
Y3991D01*
X8445Y4009D01*
X8435Y4020D01*
Y4039D01*
X8442Y4047D01*
X8450Y4065D01*
Y4085D01*
X8442Y4103D01*
X8428Y4117D01*
X8410Y4125D01*
D02*
G37*
G36*
X959Y3950D02*
X959D01*
Y3863D01*
X1046D01*
Y3863D01*
X1040Y3889D01*
X1026Y3912D01*
X1008Y3930D01*
X985Y3944D01*
X959Y3950D01*
D02*
G37*
G36*
X933D02*
X933D01*
X907Y3944D01*
X884Y3930D01*
X866Y3912D01*
X852Y3889D01*
X846Y3863D01*
Y3863D01*
X933D01*
Y3950D01*
D02*
G37*
G36*
X1046Y3837D02*
X959D01*
Y3750D01*
X959D01*
X985Y3756D01*
X1008Y3770D01*
X1026Y3788D01*
X1040Y3811D01*
X1046Y3837D01*
Y3837D01*
D02*
G37*
G36*
X933D02*
X846D01*
Y3837D01*
X852Y3811D01*
X866Y3788D01*
X884Y3770D01*
X907Y3756D01*
X933Y3750D01*
X933D01*
Y3837D01*
D02*
G37*
G36*
X8404Y3764D02*
X8384D01*
X8364Y3756D01*
X8349Y3741D01*
X8342Y3722D01*
Y3701D01*
X8349Y3682D01*
X8364Y3667D01*
X8384Y3659D01*
X8404D01*
X8424Y3667D01*
X8439Y3682D01*
X8446Y3701D01*
Y3722D01*
X8439Y3741D01*
X8424Y3756D01*
X8404Y3764D01*
D02*
G37*
G36*
X517Y3780D02*
X483D01*
X450Y3771D01*
X420Y3754D01*
X396Y3730D01*
X379Y3700D01*
X370Y3667D01*
Y3633D01*
X379Y3600D01*
X396Y3570D01*
X420Y3546D01*
X450Y3529D01*
X483Y3520D01*
X517D01*
X550Y3529D01*
X580Y3546D01*
X604Y3570D01*
X621Y3600D01*
X630Y3633D01*
Y3667D01*
X621Y3700D01*
X604Y3730D01*
X580Y3754D01*
X550Y3771D01*
X517Y3780D01*
D02*
G37*
G36*
X2103Y3611D02*
X2005D01*
Y3513D01*
X2103D01*
Y3611D01*
D02*
G37*
G36*
X1979D02*
X1881D01*
Y3513D01*
X1979D01*
Y3611D01*
D02*
G37*
G36*
X2768Y3606D02*
X2740D01*
X2713Y3598D01*
X2689Y3584D01*
X2670Y3565D01*
X2656Y3541D01*
X2649Y3514D01*
Y3486D01*
X2656Y3459D01*
X2670Y3435D01*
X2689Y3416D01*
X2713Y3402D01*
X2740Y3394D01*
X2768D01*
X2795Y3402D01*
X2819Y3416D01*
X2838Y3435D01*
X2852Y3459D01*
X2859Y3486D01*
Y3514D01*
X2852Y3541D01*
X2838Y3565D01*
X2819Y3584D01*
X2795Y3598D01*
X2768Y3606D01*
D02*
G37*
G36*
X2514D02*
X2486D01*
X2459Y3598D01*
X2435Y3584D01*
X2416Y3565D01*
X2402Y3541D01*
X2394Y3514D01*
Y3486D01*
X2402Y3459D01*
X2416Y3435D01*
X2435Y3416D01*
X2459Y3402D01*
X2486Y3394D01*
X2514D01*
X2541Y3402D01*
X2565Y3416D01*
X2584Y3435D01*
X2598Y3459D01*
X2606Y3486D01*
Y3514D01*
X2598Y3541D01*
X2584Y3565D01*
X2565Y3584D01*
X2541Y3598D01*
X2514Y3606D01*
D02*
G37*
G36*
X2260D02*
X2232D01*
X2205Y3598D01*
X2181Y3584D01*
X2162Y3565D01*
X2148Y3541D01*
X2141Y3514D01*
Y3486D01*
X2148Y3459D01*
X2162Y3435D01*
X2181Y3416D01*
X2205Y3402D01*
X2232Y3394D01*
X2260D01*
X2287Y3402D01*
X2311Y3416D01*
X2330Y3435D01*
X2344Y3459D01*
X2351Y3486D01*
Y3514D01*
X2344Y3541D01*
X2330Y3565D01*
X2311Y3584D01*
X2287Y3598D01*
X2260Y3606D01*
D02*
G37*
G36*
X2103Y3487D02*
X2005D01*
Y3389D01*
X2103D01*
Y3487D01*
D02*
G37*
G36*
X1979D02*
X1881D01*
Y3389D01*
X1979D01*
Y3487D01*
D02*
G37*
G36*
X825Y3301D02*
X725D01*
X707Y3298D01*
X690Y3291D01*
X675Y3280D01*
X664Y3265D01*
X657Y3248D01*
X654Y3230D01*
Y3130D01*
X657Y3112D01*
X664Y3095D01*
X675Y3080D01*
X690Y3069D01*
X707Y3062D01*
X725Y3059D01*
X825D01*
X843Y3062D01*
X860Y3069D01*
X875Y3080D01*
X886Y3095D01*
X893Y3112D01*
X896Y3130D01*
Y3230D01*
X893Y3248D01*
X886Y3265D01*
X875Y3280D01*
X860Y3291D01*
X843Y3298D01*
X825Y3301D01*
D02*
G37*
G36*
X8625Y3102D02*
X8425D01*
Y2902D01*
X8625D01*
Y3102D01*
D02*
G37*
G36*
X8538Y2848D02*
X8512D01*
X8486Y2841D01*
X8464Y2828D01*
X8445Y2809D01*
X8432Y2787D01*
X8425Y2761D01*
Y2735D01*
X8432Y2709D01*
X8445Y2687D01*
X8464Y2668D01*
X8486Y2655D01*
X8512Y2648D01*
X8538D01*
X8564Y2655D01*
X8586Y2668D01*
X8605Y2687D01*
X8618Y2709D01*
X8625Y2735D01*
Y2761D01*
X8618Y2787D01*
X8605Y2809D01*
X8586Y2828D01*
X8564Y2841D01*
X8538Y2848D01*
D02*
G37*
G36*
X6253Y2575D02*
X6054D01*
Y2375D01*
X6253D01*
Y2575D01*
D02*
G37*
G36*
X791Y2540D02*
X759D01*
X729Y2532D01*
X701Y2516D01*
X679Y2494D01*
X663Y2466D01*
X655Y2436D01*
Y2404D01*
X663Y2374D01*
X679Y2346D01*
X701Y2324D01*
X729Y2308D01*
X759Y2300D01*
X791D01*
X821Y2308D01*
X849Y2324D01*
X871Y2346D01*
X887Y2374D01*
X895Y2404D01*
Y2436D01*
X887Y2466D01*
X871Y2494D01*
X849Y2516D01*
X821Y2532D01*
X791Y2540D01*
D02*
G37*
G36*
X7835Y2380D02*
X7834D01*
Y2288D01*
X7926D01*
Y2289D01*
X7919Y2315D01*
X7905Y2339D01*
X7885Y2359D01*
X7861Y2373D01*
X7835Y2380D01*
D02*
G37*
G36*
X7808D02*
X7807D01*
X7781Y2373D01*
X7757Y2359D01*
X7737Y2339D01*
X7723Y2315D01*
X7716Y2289D01*
Y2288D01*
X7808D01*
Y2380D01*
D02*
G37*
G36*
X8175Y2375D02*
X7975D01*
Y2175D01*
X8175D01*
Y2375D01*
D02*
G37*
G36*
X7926Y2262D02*
X7834D01*
Y2170D01*
X7835D01*
X7861Y2177D01*
X7885Y2191D01*
X7905Y2211D01*
X7919Y2235D01*
X7926Y2261D01*
Y2262D01*
D02*
G37*
G36*
X7808D02*
X7716D01*
Y2261D01*
X7723Y2235D01*
X7737Y2211D01*
X7757Y2191D01*
X7781Y2177D01*
X7807Y2170D01*
X7808D01*
Y2262D01*
D02*
G37*
G36*
X5143Y2306D02*
X5115D01*
X5088Y2298D01*
X5064Y2284D01*
X5045Y2265D01*
X5031Y2241D01*
X5024Y2214D01*
Y2186D01*
X5031Y2159D01*
X5045Y2135D01*
X5064Y2116D01*
X5088Y2102D01*
X5115Y2094D01*
X5143D01*
X5170Y2102D01*
X5194Y2116D01*
X5213Y2135D01*
X5227Y2159D01*
X5235Y2186D01*
Y2214D01*
X5227Y2241D01*
X5213Y2265D01*
X5194Y2284D01*
X5170Y2298D01*
X5143Y2306D01*
D02*
G37*
G36*
X4889D02*
X4861D01*
X4834Y2298D01*
X4810Y2284D01*
X4791Y2265D01*
X4777Y2241D01*
X4769Y2214D01*
Y2186D01*
X4777Y2159D01*
X4791Y2135D01*
X4810Y2116D01*
X4834Y2102D01*
X4861Y2094D01*
X4889D01*
X4916Y2102D01*
X4940Y2116D01*
X4959Y2135D01*
X4973Y2159D01*
X4981Y2186D01*
Y2214D01*
X4973Y2241D01*
X4959Y2265D01*
X4940Y2284D01*
X4916Y2298D01*
X4889Y2306D01*
D02*
G37*
G36*
X4550Y3126D02*
X4545Y3125D01*
X4540D01*
X4535Y3123D01*
X4530Y3122D01*
X4526Y3119D01*
X4522Y3117D01*
X4518Y3114D01*
X4514Y3111D01*
X4511Y3107D01*
X4508Y3103D01*
X4506Y3099D01*
X4503Y3095D01*
X4502Y3090D01*
X4500Y3085D01*
Y3080D01*
X4499Y3075D01*
Y2125D01*
X4503Y2105D01*
X4514Y2089D01*
X4539Y2064D01*
X4539Y2064D01*
X4543Y2061D01*
X4547Y2058D01*
X4551Y2056D01*
X4555Y2053D01*
X4560Y2052D01*
X4565Y2050D01*
X4570D01*
X4575Y2049D01*
X4580Y2050D01*
X4585D01*
X4590Y2052D01*
X4595Y2053D01*
X4599Y2056D01*
X4603Y2058D01*
X4607Y2061D01*
X4611Y2064D01*
X4614Y2068D01*
X4617Y2072D01*
X4619Y2076D01*
X4622Y2080D01*
X4623Y2085D01*
X4625Y2090D01*
Y2095D01*
X4626Y2100D01*
X4625Y2105D01*
Y2110D01*
X4623Y2115D01*
X4622Y2120D01*
X4619Y2124D01*
X4617Y2128D01*
X4614Y2132D01*
X4611Y2136D01*
X4601Y2146D01*
Y3075D01*
X4600Y3080D01*
Y3085D01*
X4598Y3090D01*
X4597Y3095D01*
X4594Y3099D01*
X4592Y3103D01*
X4589Y3107D01*
X4586Y3111D01*
X4582Y3114D01*
X4578Y3117D01*
X4574Y3119D01*
X4570Y3122D01*
X4565Y3123D01*
X4560Y3125D01*
X4555D01*
X4550Y3126D01*
D02*
G37*
G36*
X265Y1865D02*
X263D01*
Y1763D01*
X365D01*
Y1765D01*
X358Y1795D01*
X342Y1821D01*
X321Y1842D01*
X295Y1858D01*
X265Y1865D01*
D02*
G37*
G36*
X237D02*
X235D01*
X205Y1858D01*
X179Y1842D01*
X158Y1821D01*
X142Y1795D01*
X135Y1765D01*
Y1763D01*
X237D01*
Y1865D01*
D02*
G37*
G36*
X500Y1984D02*
X466Y1979D01*
X434Y1966D01*
X407Y1945D01*
X386Y1918D01*
X373Y1886D01*
X369Y1852D01*
Y1848D01*
X373Y1814D01*
X386Y1782D01*
X407Y1755D01*
X434Y1734D01*
X466Y1721D01*
X500Y1716D01*
X534Y1721D01*
X566Y1734D01*
X593Y1755D01*
X614Y1782D01*
X627Y1814D01*
X631Y1848D01*
Y1852D01*
X627Y1886D01*
X614Y1918D01*
X593Y1945D01*
X566Y1966D01*
X534Y1979D01*
X500Y1984D01*
D02*
G37*
G36*
X365Y1737D02*
X263D01*
Y1635D01*
X265D01*
X295Y1642D01*
X321Y1658D01*
X342Y1679D01*
X358Y1705D01*
X365Y1735D01*
Y1737D01*
D02*
G37*
G36*
X237D02*
X135D01*
Y1735D01*
X142Y1705D01*
X158Y1679D01*
X179Y1658D01*
X205Y1642D01*
X235Y1635D01*
X237D01*
Y1737D01*
D02*
G37*
G36*
X8622Y625D02*
X8613D01*
Y413D01*
X8825D01*
Y422D01*
X8817Y466D01*
X8800Y507D01*
X8775Y544D01*
X8744Y575D01*
X8707Y600D01*
X8666Y617D01*
X8622Y625D01*
D02*
G37*
G36*
X8587D02*
X8578D01*
X8534Y617D01*
X8493Y600D01*
X8456Y575D01*
X8425Y544D01*
X8400Y507D01*
X8383Y466D01*
X8375Y422D01*
Y413D01*
X8587D01*
Y625D01*
D02*
G37*
G36*
X8825Y387D02*
X8613D01*
Y175D01*
X8622D01*
X8666Y183D01*
X8707Y200D01*
X8744Y225D01*
X8775Y256D01*
X8800Y293D01*
X8817Y334D01*
X8825Y378D01*
Y387D01*
D02*
G37*
G36*
X8587D02*
X8375D01*
Y378D01*
X8383Y334D01*
X8400Y293D01*
X8425Y256D01*
X8456Y225D01*
X8493Y200D01*
X8534Y183D01*
X8578Y175D01*
X8587D01*
Y387D01*
D02*
G37*
G36*
X972Y1250D02*
X963D01*
Y1038D01*
X1175D01*
Y1047D01*
X1167Y1091D01*
X1150Y1132D01*
X1125Y1169D01*
X1094Y1200D01*
X1057Y1225D01*
X1016Y1242D01*
X972Y1250D01*
D02*
G37*
G36*
X937D02*
X928D01*
X884Y1242D01*
X843Y1225D01*
X806Y1200D01*
X775Y1169D01*
X750Y1132D01*
X733Y1091D01*
X725Y1047D01*
Y1038D01*
X937D01*
Y1250D01*
D02*
G37*
G36*
X517Y1280D02*
X483D01*
X450Y1271D01*
X420Y1254D01*
X396Y1230D01*
X379Y1200D01*
X370Y1167D01*
Y1133D01*
X379Y1100D01*
X396Y1070D01*
X420Y1046D01*
X450Y1029D01*
X483Y1020D01*
X517D01*
X550Y1029D01*
X580Y1046D01*
X604Y1070D01*
X621Y1100D01*
X630Y1133D01*
Y1167D01*
X621Y1200D01*
X604Y1230D01*
X580Y1254D01*
X550Y1271D01*
X517Y1280D01*
D02*
G37*
G36*
X1175Y1012D02*
X963D01*
Y800D01*
X972D01*
X1016Y808D01*
X1057Y825D01*
X1094Y850D01*
X1125Y881D01*
X1150Y918D01*
X1167Y959D01*
X1175Y1003D01*
Y1012D01*
D02*
G37*
G36*
X937D02*
X725D01*
Y1003D01*
X733Y959D01*
X750Y918D01*
X775Y881D01*
X806Y850D01*
X843Y825D01*
X884Y808D01*
X928Y800D01*
X937D01*
Y1012D01*
D02*
G37*
G36*
X422Y625D02*
X413D01*
Y413D01*
X625D01*
Y422D01*
X617Y466D01*
X600Y507D01*
X575Y544D01*
X544Y575D01*
X507Y600D01*
X466Y617D01*
X422Y625D01*
D02*
G37*
G36*
X387D02*
X378D01*
X334Y617D01*
X293Y600D01*
X256Y575D01*
X225Y544D01*
X200Y507D01*
X183Y466D01*
X175Y422D01*
Y413D01*
X387D01*
Y625D01*
D02*
G37*
G36*
X625Y387D02*
X413D01*
Y175D01*
X422D01*
X466Y183D01*
X507Y200D01*
X544Y225D01*
X575Y256D01*
X600Y293D01*
X617Y334D01*
X625Y378D01*
Y387D01*
D02*
G37*
G36*
X387D02*
X175D01*
Y378D01*
X183Y334D01*
X200Y293D01*
X225Y256D01*
X256Y225D01*
X293Y200D01*
X334Y183D01*
X378Y175D01*
X387D01*
Y387D01*
D02*
G37*
%LPD*%
D12*
X6500Y2900D02*
Y2907D01*
X6475Y2932D02*
X6500Y2907D01*
X6475Y2932D02*
Y3091D01*
X5491Y4075D02*
X6475Y3091D01*
X6400Y2900D02*
Y2907D01*
X5477Y4025D02*
X6375Y3127D01*
Y2932D02*
Y3127D01*
Y2932D02*
X6400Y2907D01*
X6300Y2900D02*
Y2907D01*
X6275Y2932D02*
X6300Y2907D01*
X5464Y3975D02*
X6275Y3164D01*
Y2932D02*
Y3164D01*
X6175Y2900D02*
Y2907D01*
X6200Y2932D01*
Y3175D01*
X5450Y3925D02*
X6200Y3175D01*
X5641Y3470D02*
Y3478D01*
X5624Y3495D02*
Y3504D01*
Y3495D02*
X5641Y3478D01*
Y3470D02*
X5775Y3336D01*
X5540Y3500D02*
X5699Y3341D01*
X5704Y3496D02*
X5900Y3300D01*
Y2475D02*
Y3300D01*
X5699Y2327D02*
Y3341D01*
X5455Y2370D02*
Y3500D01*
Y2370D02*
X5519Y2306D01*
Y2106D02*
Y2306D01*
Y2106D02*
X5588Y2037D01*
X6399Y2052D02*
Y2200D01*
X6384Y2037D02*
X6399Y2052D01*
X5588Y2037D02*
X6384D01*
X6525Y1825D02*
X7075Y2375D01*
X250Y1250D02*
X825Y1825D01*
X6525D01*
X250Y2425D02*
Y3750D01*
X775Y1900D02*
X6475D01*
X250Y2425D02*
X775Y1900D01*
X6475D02*
X6975Y2400D01*
X325Y2450D02*
X800Y1975D01*
X325Y2450D02*
Y3175D01*
X700Y3550D01*
X2175Y4950D02*
X2475D01*
X1200Y5882D02*
X1234D01*
X1276Y5849D02*
X2175Y4950D01*
X1234Y5882D02*
X1267Y5849D01*
X1276D01*
X1283Y4842D02*
X1950Y4175D01*
X1224Y4842D02*
X1283D01*
X1950Y4175D02*
X5550D01*
X1200Y4866D02*
X1224Y4842D01*
X1200Y4612D02*
X1234D01*
X1269Y4576D01*
X1274D02*
X1775Y4075D01*
X5491D01*
X1269Y4576D02*
X1274D01*
X1125Y6025D02*
X1225D01*
X2250Y5000D01*
X2500D01*
X1019Y5919D02*
X1125Y6025D01*
X946Y5882D02*
X980D01*
X1016Y5919D01*
X1019D01*
X2500Y5000D02*
X2705Y4795D01*
X5669D01*
X1250Y5750D02*
X2100Y4900D01*
X2425D01*
X1068Y5750D02*
X1250D01*
X2425Y4900D02*
X2625Y4700D01*
X2389Y4850D02*
X2589Y4650D01*
X2050Y4850D02*
X2389D01*
X1291Y5609D02*
X2050Y4850D01*
X2200Y4775D02*
X2400D01*
X2599Y4576D01*
X2475Y4950D02*
X2675Y4750D01*
X946Y5628D02*
X1068Y5750D01*
X1219Y5609D02*
X1291D01*
X1200Y5628D02*
X1219Y5609D01*
X2625Y4700D02*
X5600D01*
X2075D02*
X2375D01*
X2000Y4650D02*
X2350D01*
X2286Y4550D02*
X2491Y4345D01*
X2375Y4700D02*
X2580Y4495D01*
X2225Y4475D02*
X2417Y4283D01*
X2350Y4650D02*
X2550Y4450D01*
X1875Y4550D02*
X2286D01*
X1950Y4600D02*
X2325D01*
X1300Y5250D02*
X1950Y4600D01*
X2325D02*
X2535Y4390D01*
X5574D01*
X1260Y5515D02*
X2075Y4700D01*
X974Y5374D02*
X1115Y5515D01*
X1260D01*
X2599Y4576D02*
X5146D01*
X1300Y5350D02*
X2000Y4650D01*
X1312Y5112D02*
X1875Y4550D01*
X2491Y4345D02*
X5555D01*
X2580Y4495D02*
X5630D01*
X946Y5374D02*
X974D01*
X1277Y5350D02*
X1277Y5350D01*
X1300D01*
X1200Y5374D02*
X1224Y5350D01*
X1277D01*
X946Y5121D02*
X1075Y5250D01*
X1275Y5000D02*
X2055Y4220D01*
X1207Y5112D02*
X1312D01*
X1075Y5250D02*
X1300D01*
X1200Y5120D02*
X1207Y5112D01*
X1080Y5000D02*
X1275D01*
X2055Y4220D02*
X5605D01*
X2550Y4450D02*
X5589D01*
X946Y5120D02*
Y5121D01*
Y4866D02*
X1080Y5000D01*
X2417Y4283D02*
X4850D01*
X1250Y4750D02*
X1875Y4125D01*
X5525D01*
X1050Y4750D02*
X1250D01*
X946Y4646D02*
X1050Y4750D01*
X946Y4612D02*
Y4646D01*
X5669Y4795D02*
X5689Y4775D01*
X5700D01*
X5775Y4700D01*
X6750D01*
X2675Y4750D02*
X5650D01*
X5600Y4700D02*
X5850Y4450D01*
X5550Y4650D02*
X5850Y4350D01*
X2589Y4650D02*
X5550D01*
X5850Y4350D02*
X6750D01*
X5850Y4450D02*
X6750D01*
X5825Y4575D02*
X6750D01*
X5650Y4750D02*
X5825Y4575D01*
X5630Y4495D02*
X5875Y4250D01*
X6750D01*
X5555Y4345D02*
X6000Y3900D01*
X5574Y4390D02*
X5589Y4375D01*
X5589Y4450D02*
X5889Y4150D01*
X6750D01*
X5589Y4375D02*
X5600D01*
X5950Y4025D01*
X6750D01*
X5550Y4175D02*
X6025Y3700D01*
X6750D01*
X5605Y4220D02*
X6025Y3800D01*
X6000Y3900D02*
X6750D01*
X5525Y4125D02*
X6050Y3600D01*
X1700Y4025D02*
X5477D01*
X1250Y4475D02*
X1700Y4025D01*
X6025Y3800D02*
X6750D01*
X6050Y3600D02*
X6750D01*
X1625Y3975D02*
X5464D01*
X1276Y4324D02*
X1625Y3975D01*
X1063Y4475D02*
X1250D01*
X946Y4358D02*
X1063Y4475D01*
X1200Y4358D02*
X1234D01*
X1267Y4324D01*
X1276D01*
X1075Y4225D02*
X1250D01*
X1550Y3925D02*
X5450D01*
X1250Y4225D02*
X1550Y3925D01*
X4975Y3791D02*
Y3800D01*
X1429Y3875D02*
X5413D01*
X1200Y4104D02*
X1429Y3875D01*
X5413D02*
X5975Y3313D01*
X954Y4104D02*
X1075Y4225D01*
X946Y4104D02*
X954D01*
X4950Y3600D02*
Y3766D01*
X4975Y3791D01*
X5975Y3125D02*
Y3313D01*
X700Y3550D02*
Y4775D01*
X597Y4878D02*
X700Y4775D01*
X800Y1975D02*
X6450D01*
X6725Y3125D02*
Y3275D01*
X6632Y3207D02*
Y3257D01*
X6625Y3200D02*
X6632Y3207D01*
Y3257D02*
X7400Y4025D01*
Y4750D01*
X7450Y4800D01*
X7050Y3268D02*
X7075Y3243D01*
X6975Y3300D02*
X7050Y3375D01*
Y3268D02*
Y3275D01*
X7075Y2375D02*
Y3243D01*
X6975Y2400D02*
Y3300D01*
X7475Y4025D02*
Y4725D01*
X6725Y3275D02*
X7475Y4025D01*
X7018Y3468D02*
X7043D01*
X7050Y3475D01*
X6900Y3350D02*
X7018Y3468D01*
X6900Y2425D02*
Y3350D01*
X5775Y2316D02*
Y3336D01*
Y2316D02*
X5891Y2200D01*
X5755Y2120D02*
X5793Y2082D01*
X6027D01*
X6145Y2200D01*
X6450Y1975D02*
X6900Y2425D01*
X5755Y2120D02*
Y2272D01*
X5005Y3300D02*
X5180Y3475D01*
X3208Y3300D02*
X5005D01*
X3008Y3500D02*
X3208Y3300D01*
X4980Y3375D02*
X5180Y3575D01*
X3387Y3375D02*
X4980D01*
X3262Y3500D02*
X3387Y3375D01*
X4980Y3500D02*
X5180Y3700D01*
X3516Y3500D02*
X4980D01*
X5699Y2327D02*
X5755Y2272D01*
X7450Y4800D02*
X7600D01*
X250Y4750D02*
X267Y4767D01*
Y4863D01*
X282Y4878D02*
X597D01*
X267Y4863D02*
X282Y4878D01*
X8220Y4075D02*
X8386Y3909D01*
Y3900D02*
Y3909D01*
X8402Y3983D02*
X8403Y3981D01*
X8400Y4075D02*
X8402Y4073D01*
Y3983D02*
Y4073D01*
X8100Y4075D02*
X8220D01*
D16*
X2254Y5917D02*
D03*
X1746D02*
D03*
X4246D02*
D03*
X4754D02*
D03*
X6746D02*
D03*
X7254D02*
D03*
D66*
X7275Y2425D02*
Y3708D01*
X7225Y2375D02*
X7275Y2425D01*
D68*
X7150Y2900D02*
Y3250D01*
X4550Y2125D02*
Y3075D01*
Y2125D02*
X4575Y2100D01*
Y2100D02*
Y2100D01*
X2246Y3500D02*
X2248Y3498D01*
X8350Y4950D02*
X8500Y4800D01*
Y4225D02*
Y4800D01*
D70*
X8525Y2748D02*
D03*
D71*
Y3002D02*
D03*
D72*
X1200Y3850D02*
D03*
D73*
X946Y5882D02*
D03*
X1200D02*
D03*
X946Y5628D02*
D03*
X1200D02*
D03*
X946Y5374D02*
D03*
X1200D02*
D03*
X946Y5120D02*
D03*
X1200D02*
D03*
X946Y4866D02*
D03*
X1200D02*
D03*
X946Y4612D02*
D03*
X1200D02*
D03*
X946Y4358D02*
D03*
X1200D02*
D03*
X946Y4104D02*
D03*
X1200D02*
D03*
X946Y3850D02*
D03*
D74*
X8150Y1025D02*
D03*
X950D02*
D03*
X8600Y5800D02*
D03*
Y400D02*
D03*
X400D02*
D03*
Y5800D02*
D03*
D75*
X1992Y3500D02*
D03*
X6399Y2200D02*
D03*
D76*
X2246Y3500D02*
D03*
X2500D02*
D03*
X2754D02*
D03*
X3008D02*
D03*
X3262D02*
D03*
X3516D02*
D03*
X6145Y2200D02*
D03*
X5891D02*
D03*
X5637D02*
D03*
X5383D02*
D03*
X5129D02*
D03*
X4875D02*
D03*
D77*
X8394Y4288D02*
D03*
Y3712D02*
D03*
D78*
X775Y2420D02*
D03*
D79*
Y3180D02*
D03*
D80*
X7821Y2275D02*
D03*
X5900Y2475D02*
D03*
D81*
X8075Y2275D02*
D03*
X6154Y2475D02*
D03*
D82*
X250Y4250D02*
D03*
Y3750D02*
D03*
Y4750D02*
D03*
Y5250D02*
D03*
Y1250D02*
D03*
Y1750D02*
D03*
D83*
X500Y4350D02*
D03*
Y5350D02*
D03*
Y1850D02*
D03*
D84*
Y3650D02*
D03*
Y4650D02*
D03*
Y1150D02*
D03*
D85*
X6050Y3225D02*
D03*
X5575Y2875D02*
D03*
Y3075D02*
D03*
Y3250D02*
D03*
X5624Y3504D02*
D03*
X5704Y3496D02*
D03*
X4075Y3725D02*
D03*
X3975D02*
D03*
X3875D02*
D03*
X4575Y3575D02*
D03*
X4425Y3575D02*
D03*
X4725Y3175D02*
D03*
X4225Y2825D02*
D03*
X4400Y2925D02*
D03*
X2275Y2375D02*
D03*
X2550D02*
D03*
X2825D02*
D03*
X3100D02*
D03*
X3425D02*
D03*
X3775D02*
D03*
X4050D02*
D03*
X4350D02*
D03*
X4950D02*
D03*
X4700D02*
D03*
X6475D02*
D03*
X6350D02*
D03*
X8924Y6018D02*
D03*
Y5518D02*
D03*
Y5018D02*
D03*
Y4518D02*
D03*
Y4018D02*
D03*
Y3518D02*
D03*
Y3018D02*
D03*
Y2518D02*
D03*
Y2018D02*
D03*
Y1518D02*
D03*
Y1018D02*
D03*
Y518D02*
D03*
X8674Y5518D02*
D03*
X8799Y5268D02*
D03*
Y4268D02*
D03*
X8674Y4018D02*
D03*
X8799Y3768D02*
D03*
Y3268D02*
D03*
Y2768D02*
D03*
X8674Y2518D02*
D03*
X8799Y2268D02*
D03*
X8674Y2018D02*
D03*
X8799Y1768D02*
D03*
X8674Y1518D02*
D03*
X8799Y1268D02*
D03*
X8674Y1018D02*
D03*
X8799Y768D02*
D03*
X8424Y6018D02*
D03*
Y5518D02*
D03*
X8549Y5268D02*
D03*
Y3268D02*
D03*
X8424Y2518D02*
D03*
X8549Y2268D02*
D03*
X8424Y2018D02*
D03*
X8549Y1768D02*
D03*
X8424Y1518D02*
D03*
X8549Y1268D02*
D03*
Y768D02*
D03*
X8174Y6018D02*
D03*
X8299Y5768D02*
D03*
X8174Y3518D02*
D03*
X8299Y2268D02*
D03*
Y1768D02*
D03*
X7924Y6018D02*
D03*
X8049Y5768D02*
D03*
X7924Y2018D02*
D03*
X7674Y6018D02*
D03*
X7799Y5768D02*
D03*
X7674Y5518D02*
D03*
X7799Y4768D02*
D03*
X7674Y4518D02*
D03*
X7799Y4268D02*
D03*
X7674Y4018D02*
D03*
Y3018D02*
D03*
Y2518D02*
D03*
Y2018D02*
D03*
X7799Y1768D02*
D03*
X7424Y6018D02*
D03*
X7549Y5768D02*
D03*
X7424Y5518D02*
D03*
X7549Y5268D02*
D03*
Y4268D02*
D03*
Y3268D02*
D03*
X7424Y3018D02*
D03*
X7549Y2768D02*
D03*
X7424Y2518D02*
D03*
X7549Y2268D02*
D03*
X7424Y2018D02*
D03*
X7549Y1768D02*
D03*
X7299Y4768D02*
D03*
X7174Y4518D02*
D03*
Y4018D02*
D03*
X7299Y2268D02*
D03*
X7174Y2018D02*
D03*
X7299Y1768D02*
D03*
X7049D02*
D03*
X6674Y5518D02*
D03*
X6799Y5268D02*
D03*
X6674Y5018D02*
D03*
Y3518D02*
D03*
Y3018D02*
D03*
X6799Y1768D02*
D03*
X6424Y6018D02*
D03*
X6549Y5768D02*
D03*
X6424Y5518D02*
D03*
X6549Y5268D02*
D03*
X6424Y5018D02*
D03*
X6549Y4768D02*
D03*
X6424Y3518D02*
D03*
X6549Y3268D02*
D03*
X6174Y6018D02*
D03*
X6299Y5768D02*
D03*
X6174Y5518D02*
D03*
X6299Y5268D02*
D03*
X6174Y5018D02*
D03*
X6299Y4768D02*
D03*
X6174Y3518D02*
D03*
X5924Y6018D02*
D03*
X6049Y5768D02*
D03*
X5924Y5518D02*
D03*
X6049Y5268D02*
D03*
X5924Y5018D02*
D03*
X6049Y4768D02*
D03*
X5674Y6018D02*
D03*
X5799Y5768D02*
D03*
X5674Y5518D02*
D03*
X5799Y5268D02*
D03*
X5674Y5018D02*
D03*
X5799Y4768D02*
D03*
X5424Y6018D02*
D03*
X5549Y5768D02*
D03*
X5424Y5518D02*
D03*
X5549Y5268D02*
D03*
X5174Y6018D02*
D03*
X5299Y5768D02*
D03*
X5174Y5518D02*
D03*
Y5018D02*
D03*
X4924Y6018D02*
D03*
X5049Y5768D02*
D03*
X4924Y5518D02*
D03*
X5049Y5268D02*
D03*
X4924Y5018D02*
D03*
Y3018D02*
D03*
X4799Y5268D02*
D03*
X4674Y5018D02*
D03*
X4799Y3768D02*
D03*
X4674Y3018D02*
D03*
X4549Y5268D02*
D03*
X4424Y5018D02*
D03*
X3924Y6018D02*
D03*
X4049Y5768D02*
D03*
X3924Y3018D02*
D03*
X3674Y6018D02*
D03*
X3799Y5768D02*
D03*
X3674Y5018D02*
D03*
Y3018D02*
D03*
X3424Y6018D02*
D03*
X3549Y5768D02*
D03*
X3424Y5518D02*
D03*
X3549Y5268D02*
D03*
X3424Y5018D02*
D03*
Y3018D02*
D03*
X3174Y6018D02*
D03*
X3299Y5768D02*
D03*
X3174Y5518D02*
D03*
X3299Y5268D02*
D03*
X3174Y5018D02*
D03*
Y3018D02*
D03*
X2924Y6018D02*
D03*
X3049Y5768D02*
D03*
X2924Y5518D02*
D03*
X3049Y5268D02*
D03*
X2924Y5018D02*
D03*
X3049Y3268D02*
D03*
X2674Y6018D02*
D03*
X2799Y5768D02*
D03*
Y5268D02*
D03*
X2674Y5018D02*
D03*
X2799Y2768D02*
D03*
X2424Y6018D02*
D03*
X2549Y5768D02*
D03*
X2424Y3018D02*
D03*
X2549Y2768D02*
D03*
X2174Y3018D02*
D03*
X2299Y2768D02*
D03*
X2174Y2518D02*
D03*
X2049Y3268D02*
D03*
Y2768D02*
D03*
X1674Y3518D02*
D03*
X1799Y3268D02*
D03*
Y2768D02*
D03*
Y2268D02*
D03*
X1424Y6018D02*
D03*
Y3518D02*
D03*
X1549Y3268D02*
D03*
Y2768D02*
D03*
Y2268D02*
D03*
X1174Y3518D02*
D03*
X1299Y3268D02*
D03*
Y2768D02*
D03*
Y2268D02*
D03*
X1174Y1518D02*
D03*
Y518D02*
D03*
X924Y6018D02*
D03*
Y3518D02*
D03*
X1049Y3268D02*
D03*
Y2768D02*
D03*
Y2268D02*
D03*
X924Y1518D02*
D03*
X1049Y1268D02*
D03*
Y768D02*
D03*
X924Y518D02*
D03*
X674Y6018D02*
D03*
X799Y5768D02*
D03*
X674Y5518D02*
D03*
X799Y5268D02*
D03*
X674Y5018D02*
D03*
X799Y4768D02*
D03*
Y4268D02*
D03*
Y3768D02*
D03*
X674Y3018D02*
D03*
X799Y2768D02*
D03*
Y2268D02*
D03*
X674Y1518D02*
D03*
X799Y1268D02*
D03*
X674Y1018D02*
D03*
X799Y768D02*
D03*
X674Y518D02*
D03*
X424Y5518D02*
D03*
Y5018D02*
D03*
Y4018D02*
D03*
X549Y3268D02*
D03*
X424Y3018D02*
D03*
X549Y2768D02*
D03*
X424Y2518D02*
D03*
Y2018D02*
D03*
Y1518D02*
D03*
X549Y768D02*
D03*
X6894Y5663D02*
D03*
X6924Y5557D02*
D03*
X6982Y5463D02*
D03*
X7039Y5369D02*
D03*
X7056Y5261D02*
D03*
X6766Y5136D02*
D03*
X6767Y5026D02*
D03*
X6858Y4964D02*
D03*
X6968Y4964D02*
D03*
X7078Y4955D02*
D03*
X7177Y5001D02*
D03*
X7255Y5080D02*
D03*
X7306Y5177D02*
D03*
X7326Y5285D02*
D03*
X7315Y5395D02*
D03*
X7271Y5495D02*
D03*
X7213Y5589D02*
D03*
X4368Y5639D02*
D03*
X4263Y5607D02*
D03*
X4153D02*
D03*
X4044Y5616D02*
D03*
X3934D02*
D03*
X3824D02*
D03*
X3726Y5565D02*
D03*
X3719Y5455D02*
D03*
X4191Y5343D02*
D03*
X4301D02*
D03*
X4411Y5350D02*
D03*
X4512Y5395D02*
D03*
X4588Y5474D02*
D03*
X4627Y5577D02*
D03*
X1868Y5642D02*
D03*
X1887Y5534D02*
D03*
X1945Y5440D02*
D03*
X2032Y5374D02*
D03*
X2138Y5345D02*
D03*
X2675Y5387D02*
D03*
X2681Y5497D02*
D03*
X2646Y5601D02*
D03*
X2537Y5616D02*
D03*
X2427D02*
D03*
X2317D02*
D03*
X2207Y5607D02*
D03*
X2225Y4475D02*
D03*
X2200Y4775D02*
D03*
X4850Y4283D02*
D03*
X6750Y3600D02*
D03*
Y3700D02*
D03*
Y3800D02*
D03*
Y3900D02*
D03*
Y4025D02*
D03*
Y4250D02*
D03*
Y4150D02*
D03*
Y4350D02*
D03*
Y4450D02*
D03*
Y4575D02*
D03*
Y4700D02*
D03*
X4975Y3800D02*
D03*
X4950Y3600D02*
D03*
X6300Y2900D02*
D03*
X6400D02*
D03*
X6500Y2900D02*
D03*
X6175D02*
D03*
X5975Y3125D02*
D03*
X6725D02*
D03*
X6625Y3200D02*
D03*
X7150Y3250D02*
D03*
X7050Y3275D02*
D03*
Y3375D02*
D03*
X7275Y3708D02*
D03*
X7050Y3475D02*
D03*
X7475Y4725D02*
D03*
X4550Y3075D02*
D03*
X5180Y3475D02*
D03*
Y3575D02*
D03*
Y3700D02*
D03*
X5146Y4576D02*
D03*
X8025Y5175D02*
D03*
Y5067D02*
D03*
Y5283D02*
D03*
X7918Y5175D02*
D03*
X8130D02*
D03*
X7150Y2900D02*
D03*
X8666Y4753D02*
D03*
Y4953D02*
D03*
X7225Y2375D02*
D03*
X4575Y2100D02*
D03*
X5540Y3500D02*
D03*
X5455D02*
D03*
X7600Y4800D02*
D03*
X8500Y4225D02*
D03*
X8350Y4950D02*
D03*
X8386Y3900D02*
D03*
X8403Y3981D02*
D03*
X8400Y4075D02*
D03*
X8100Y3975D02*
D03*
Y4075D02*
D03*
M02*
