G04*
G04 #@! TF.GenerationSoftware,Altium Limited,Altium Designer,23.0.1 (38)*
G04*
G04 Layer_Color=8388736*
%FSLAX42Y42*%
%MOMM*%
G71*
G04*
G04 #@! TF.SameCoordinates,B15292C3-EAD5-4A71-986A-2A6C0C3FE727*
G04*
G04*
G04 #@! TF.FilePolarity,Negative*
G04*
G01*
G75*
%ADD32R,3.20X1.40*%
%ADD33R,1.80X5.10*%
%ADD34R,1.70X4.01*%
%ADD35R,1.15X0.80*%
%ADD36R,0.80X1.20*%
%ADD37R,1.20X1.00*%
%ADD38R,0.80X1.15*%
G04:AMPARAMS|DCode=39|XSize=1.86mm|YSize=1.62mm|CornerRadius=0.35mm|HoleSize=0mm|Usage=FLASHONLY|Rotation=270.000|XOffset=0mm|YOffset=0mm|HoleType=Round|Shape=RoundedRectangle|*
%AMROUNDEDRECTD39*
21,1,1.86,0.92,0,0,270.0*
21,1,1.16,1.62,0,0,270.0*
1,1,0.70,-0.46,-0.58*
1,1,0.70,-0.46,0.58*
1,1,0.70,0.46,0.58*
1,1,0.70,0.46,-0.58*
%
%ADD39ROUNDEDRECTD39*%
%ADD40R,1.00X1.20*%
%ADD41R,1.20X0.80*%
%ADD42R,1.80X1.00*%
%ADD43R,1.00X1.80*%
G04:AMPARAMS|DCode=44|XSize=0.44mm|YSize=1.59mm|CornerRadius=0.12mm|HoleSize=0mm|Usage=FLASHONLY|Rotation=90.000|XOffset=0mm|YOffset=0mm|HoleType=Round|Shape=RoundedRectangle|*
%AMROUNDEDRECTD44*
21,1,0.44,1.36,0,0,90.0*
21,1,0.21,1.59,0,0,90.0*
1,1,0.23,0.68,0.11*
1,1,0.23,0.68,-0.11*
1,1,0.23,-0.68,-0.11*
1,1,0.23,-0.68,0.11*
%
%ADD44ROUNDEDRECTD44*%
G04:AMPARAMS|DCode=45|XSize=1.94mm|YSize=1.34mm|CornerRadius=0.19mm|HoleSize=0mm|Usage=FLASHONLY|Rotation=90.000|XOffset=0mm|YOffset=0mm|HoleType=Round|Shape=RoundedRectangle|*
%AMROUNDEDRECTD45*
21,1,1.94,0.96,0,0,90.0*
21,1,1.56,1.34,0,0,90.0*
1,1,0.38,0.48,0.78*
1,1,0.38,0.48,-0.78*
1,1,0.38,-0.48,-0.78*
1,1,0.38,-0.48,0.78*
%
%ADD45ROUNDEDRECTD45*%
G04:AMPARAMS|DCode=46|XSize=1.94mm|YSize=1.64mm|CornerRadius=0.22mm|HoleSize=0mm|Usage=FLASHONLY|Rotation=270.000|XOffset=0mm|YOffset=0mm|HoleType=Round|Shape=RoundedRectangle|*
%AMROUNDEDRECTD46*
21,1,1.94,1.20,0,0,270.0*
21,1,1.50,1.64,0,0,270.0*
1,1,0.44,-0.60,-0.75*
1,1,0.44,-0.60,0.75*
1,1,0.44,0.60,0.75*
1,1,0.44,0.60,-0.75*
%
%ADD46ROUNDEDRECTD46*%
G04:AMPARAMS|DCode=47|XSize=3.4mm|YSize=3.4mm|CornerRadius=0.18mm|HoleSize=0mm|Usage=FLASHONLY|Rotation=180.000|XOffset=0mm|YOffset=0mm|HoleType=Round|Shape=RoundedRectangle|*
%AMROUNDEDRECTD47*
21,1,3.40,3.04,0,0,180.0*
21,1,3.04,3.40,0,0,180.0*
1,1,0.36,-1.52,1.52*
1,1,0.36,1.52,1.52*
1,1,0.36,1.52,-1.52*
1,1,0.36,-1.52,-1.52*
%
%ADD47ROUNDEDRECTD47*%
G04:AMPARAMS|DCode=48|XSize=0.45mm|YSize=1.4mm|CornerRadius=0.13mm|HoleSize=0mm|Usage=FLASHONLY|Rotation=90.000|XOffset=0mm|YOffset=0mm|HoleType=Round|Shape=RoundedRectangle|*
%AMROUNDEDRECTD48*
21,1,0.45,1.15,0,0,90.0*
21,1,0.20,1.40,0,0,90.0*
1,1,0.25,0.58,0.10*
1,1,0.25,0.58,-0.10*
1,1,0.25,-0.58,-0.10*
1,1,0.25,-0.58,0.10*
%
%ADD48ROUNDEDRECTD48*%
G04:AMPARAMS|DCode=49|XSize=0.45mm|YSize=1.4mm|CornerRadius=0.13mm|HoleSize=0mm|Usage=FLASHONLY|Rotation=180.000|XOffset=0mm|YOffset=0mm|HoleType=Round|Shape=RoundedRectangle|*
%AMROUNDEDRECTD49*
21,1,0.45,1.15,0,0,180.0*
21,1,0.20,1.40,0,0,180.0*
1,1,0.25,-0.10,0.58*
1,1,0.25,0.10,0.58*
1,1,0.25,0.10,-0.58*
1,1,0.25,-0.10,-0.58*
%
%ADD49ROUNDEDRECTD49*%
%ADD50C,1.80*%
%ADD51R,1.80X1.80*%
%ADD52R,1.70X1.70*%
%ADD53C,1.70*%
%ADD54C,4.20*%
%ADD55R,1.91X1.91*%
%ADD56C,1.91*%
%ADD57C,0.79*%
%ADD58C,2.20*%
G04:AMPARAMS|DCode=59|XSize=2.2mm|YSize=2.2mm|CornerRadius=0.6mm|HoleSize=0mm|Usage=FLASHONLY|Rotation=270.000|XOffset=0mm|YOffset=0mm|HoleType=Round|Shape=RoundedRectangle|*
%AMROUNDEDRECTD59*
21,1,2.20,1.00,0,0,270.0*
21,1,1.00,2.20,0,0,270.0*
1,1,1.20,-0.50,-0.50*
1,1,1.20,-0.50,0.50*
1,1,1.20,0.50,0.50*
1,1,1.20,0.50,-0.50*
%
%ADD59ROUNDEDRECTD59*%
%ADD60C,1.79*%
%ADD61R,1.79X1.79*%
%ADD62C,2.00*%
%ADD63O,2.40X2.45*%
%ADD64C,2.40*%
%ADD65C,0.80*%
D32*
X3950Y3875D02*
D03*
Y4075D02*
D03*
Y4275D02*
D03*
Y4475D02*
D03*
Y4675D02*
D03*
Y4875D02*
D03*
Y5075D02*
D03*
Y5275D02*
D03*
Y5475D02*
D03*
X2450D02*
D03*
Y5275D02*
D03*
Y5075D02*
D03*
Y4875D02*
D03*
Y4675D02*
D03*
Y4475D02*
D03*
Y4275D02*
D03*
Y4075D02*
D03*
Y3875D02*
D03*
D33*
X2254Y5917D02*
D03*
X1746D02*
D03*
X4246D02*
D03*
X4754D02*
D03*
X6746D02*
D03*
X7254D02*
D03*
D34*
X2000Y5948D02*
D03*
X4500D02*
D03*
X7000D02*
D03*
D35*
X8025Y3125D02*
D03*
Y3275D02*
D03*
X7675Y2900D02*
D03*
Y2750D02*
D03*
X4600Y3325D02*
D03*
Y3175D02*
D03*
X7975Y4575D02*
D03*
Y4725D02*
D03*
X7600Y5100D02*
D03*
Y4950D02*
D03*
X7475Y5100D02*
D03*
Y4950D02*
D03*
X8100Y4575D02*
D03*
Y4725D02*
D03*
D36*
X7825Y3620D02*
D03*
X7920Y3380D02*
D03*
X7730D02*
D03*
X8030Y2995D02*
D03*
X8220D02*
D03*
Y2755D02*
D03*
X8125D02*
D03*
X8030D02*
D03*
X7580Y3995D02*
D03*
X7770D02*
D03*
Y3755D02*
D03*
X7675D02*
D03*
X7580D02*
D03*
X4405Y3695D02*
D03*
X4595D02*
D03*
Y3455D02*
D03*
X4500D02*
D03*
X4405D02*
D03*
D37*
X7925Y3758D02*
D03*
Y3892D02*
D03*
X7575Y3483D02*
D03*
Y3617D02*
D03*
X4400Y3167D02*
D03*
Y3033D02*
D03*
X4225Y3883D02*
D03*
Y4017D02*
D03*
D38*
X8375Y3150D02*
D03*
X8225D02*
D03*
X7425D02*
D03*
X7275D02*
D03*
X7425Y2650D02*
D03*
X7275D02*
D03*
X6350Y2500D02*
D03*
X6500D02*
D03*
X5525Y2400D02*
D03*
X5375D02*
D03*
X8425Y5075D02*
D03*
X8575D02*
D03*
X1675Y2500D02*
D03*
X1525D02*
D03*
X5275Y2400D02*
D03*
X5125D02*
D03*
D39*
X7375Y3492D02*
D03*
Y3758D02*
D03*
Y4233D02*
D03*
Y3967D02*
D03*
X4225Y2967D02*
D03*
Y3233D02*
D03*
Y3442D02*
D03*
Y3708D02*
D03*
D40*
X7718Y4150D02*
D03*
X7582D02*
D03*
X6743Y2500D02*
D03*
X6607D02*
D03*
X6743Y2350D02*
D03*
X6607D02*
D03*
X4592Y3825D02*
D03*
X4458D02*
D03*
X8568Y4800D02*
D03*
X8432D02*
D03*
Y4950D02*
D03*
X8568D02*
D03*
D41*
X7520Y2900D02*
D03*
X7280Y2805D02*
D03*
Y2995D02*
D03*
X1830Y2500D02*
D03*
X2070Y2595D02*
D03*
Y2405D02*
D03*
D42*
X5325Y5195D02*
D03*
Y5085D02*
D03*
Y4795D02*
D03*
Y4685D02*
D03*
Y4575D02*
D03*
Y4465D02*
D03*
Y4355D02*
D03*
Y4245D02*
D03*
Y4135D02*
D03*
Y3255D02*
D03*
Y4025D02*
D03*
Y3915D02*
D03*
Y3805D02*
D03*
Y3695D02*
D03*
Y3585D02*
D03*
Y3475D02*
D03*
Y3365D02*
D03*
Y3035D02*
D03*
Y3145D02*
D03*
Y2925D02*
D03*
X6925D02*
D03*
Y3695D02*
D03*
Y3585D02*
D03*
Y3475D02*
D03*
Y3365D02*
D03*
Y3035D02*
D03*
Y3145D02*
D03*
Y3255D02*
D03*
Y5195D02*
D03*
Y4575D02*
D03*
Y4795D02*
D03*
Y5085D02*
D03*
Y4355D02*
D03*
Y4685D02*
D03*
Y4135D02*
D03*
Y4245D02*
D03*
Y4465D02*
D03*
Y4025D02*
D03*
Y3805D02*
D03*
Y3915D02*
D03*
D43*
X6725Y2725D02*
D03*
X6615D02*
D03*
X6395D02*
D03*
X6285D02*
D03*
X6175D02*
D03*
X6075D02*
D03*
X5965D02*
D03*
X5855D02*
D03*
X5745D02*
D03*
X5635D02*
D03*
X5525D02*
D03*
X6505D02*
D03*
D44*
X8250Y3660D02*
D03*
Y3770D02*
D03*
Y3825D02*
D03*
Y3925D02*
D03*
Y4075D02*
D03*
Y4175D02*
D03*
Y4230D02*
D03*
Y4310D02*
D03*
Y4340D02*
D03*
Y4260D02*
D03*
Y4125D02*
D03*
Y4025D02*
D03*
Y3975D02*
D03*
Y3875D02*
D03*
Y3740D02*
D03*
Y3690D02*
D03*
D45*
X8758Y4508D02*
D03*
Y3492D02*
D03*
D46*
X8340D02*
D03*
Y4508D02*
D03*
D47*
X8025Y5175D02*
D03*
D48*
X8275Y5025D02*
D03*
Y5075D02*
D03*
Y5125D02*
D03*
X7775Y5025D02*
D03*
Y5075D02*
D03*
Y5125D02*
D03*
X8275Y5225D02*
D03*
Y5275D02*
D03*
Y5325D02*
D03*
X7775Y5225D02*
D03*
Y5275D02*
D03*
Y5325D02*
D03*
X8275Y5175D02*
D03*
X7775D02*
D03*
D49*
X8175Y4925D02*
D03*
X8125D02*
D03*
X8075D02*
D03*
X7975D02*
D03*
X7925D02*
D03*
X7875D02*
D03*
X8175Y5425D02*
D03*
X8125D02*
D03*
X8075D02*
D03*
X7975D02*
D03*
X7925D02*
D03*
X7875D02*
D03*
X8025Y4925D02*
D03*
Y5425D02*
D03*
D50*
X8525Y2748D02*
D03*
D51*
Y3002D02*
D03*
D52*
X1200Y3850D02*
D03*
D53*
X946Y5882D02*
D03*
X1200D02*
D03*
X946Y5628D02*
D03*
X1200D02*
D03*
X946Y5374D02*
D03*
X1200D02*
D03*
X946Y5120D02*
D03*
X1200D02*
D03*
X946Y4866D02*
D03*
X1200D02*
D03*
X946Y4612D02*
D03*
X1200D02*
D03*
X946Y4358D02*
D03*
X1200D02*
D03*
X946Y4104D02*
D03*
X1200D02*
D03*
X946Y3850D02*
D03*
D54*
X8150Y1025D02*
D03*
X950D02*
D03*
X8600Y5800D02*
D03*
Y400D02*
D03*
X400D02*
D03*
Y5800D02*
D03*
D55*
X1992Y3500D02*
D03*
X6399Y2200D02*
D03*
D56*
X2246Y3500D02*
D03*
X2500D02*
D03*
X2754D02*
D03*
X3008D02*
D03*
X3262D02*
D03*
X3516D02*
D03*
X6145Y2200D02*
D03*
X5891D02*
D03*
X5637D02*
D03*
X5383D02*
D03*
X5129D02*
D03*
X4875D02*
D03*
D57*
X8394Y4288D02*
D03*
Y3712D02*
D03*
D58*
X775Y2420D02*
D03*
D59*
Y3180D02*
D03*
D60*
X7821Y2275D02*
D03*
X5900Y2475D02*
D03*
D61*
X8075Y2275D02*
D03*
X6154Y2475D02*
D03*
D62*
X250Y4250D02*
D03*
Y3750D02*
D03*
Y4750D02*
D03*
Y5250D02*
D03*
Y1250D02*
D03*
Y1750D02*
D03*
D63*
X500Y4350D02*
D03*
Y5350D02*
D03*
Y1850D02*
D03*
D64*
Y3650D02*
D03*
Y4650D02*
D03*
Y1150D02*
D03*
D65*
X6894Y5663D02*
D03*
X6924Y5557D02*
D03*
X6982Y5463D02*
D03*
X7039Y5369D02*
D03*
X7056Y5261D02*
D03*
X6766Y5136D02*
D03*
X6767Y5026D02*
D03*
X6858Y4964D02*
D03*
X6968Y4964D02*
D03*
X7078Y4955D02*
D03*
X7177Y5001D02*
D03*
X7255Y5080D02*
D03*
X7306Y5177D02*
D03*
X7326Y5285D02*
D03*
X7315Y5395D02*
D03*
X7271Y5495D02*
D03*
X7213Y5589D02*
D03*
X4368Y5639D02*
D03*
X4263Y5607D02*
D03*
X4153D02*
D03*
X4044Y5616D02*
D03*
X3934D02*
D03*
X3824D02*
D03*
X3726Y5565D02*
D03*
X3719Y5455D02*
D03*
X4191Y5343D02*
D03*
X4301D02*
D03*
X4411Y5350D02*
D03*
X4512Y5395D02*
D03*
X4588Y5474D02*
D03*
X4627Y5577D02*
D03*
X1868Y5642D02*
D03*
X1887Y5534D02*
D03*
X1945Y5440D02*
D03*
X2032Y5374D02*
D03*
X2138Y5345D02*
D03*
X2675Y5387D02*
D03*
X2681Y5497D02*
D03*
X2646Y5601D02*
D03*
X2537Y5616D02*
D03*
X2427D02*
D03*
X2317D02*
D03*
X2207Y5607D02*
D03*
X8025Y5175D02*
D03*
Y5067D02*
D03*
Y5283D02*
D03*
X7918Y5175D02*
D03*
X8130D02*
D03*
M02*
