G04*
G04 #@! TF.GenerationSoftware,Altium Limited,Altium Designer,23.0.1 (38)*
G04*
G04 Layer_Color=8421504*
%FSLAX42Y42*%
%MOMM*%
G71*
G04*
G04 #@! TF.SameCoordinates,B15292C3-EAD5-4A71-986A-2A6C0C3FE727*
G04*
G04*
G04 #@! TF.FilePolarity,Positive*
G04*
G01*
G75*
%ADD15R,3.00X1.20*%
%ADD16R,1.60X4.90*%
%ADD17R,1.50X3.81*%
%ADD18R,0.95X0.60*%
%ADD19R,0.60X1.00*%
%ADD20R,1.00X0.80*%
%ADD21R,0.60X0.95*%
G04:AMPARAMS|DCode=22|XSize=1.66mm|YSize=1.42mm|CornerRadius=0.25mm|HoleSize=0mm|Usage=FLASHONLY|Rotation=270.000|XOffset=0mm|YOffset=0mm|HoleType=Round|Shape=RoundedRectangle|*
%AMROUNDEDRECTD22*
21,1,1.66,0.92,0,0,270.0*
21,1,1.16,1.42,0,0,270.0*
1,1,0.50,-0.46,-0.58*
1,1,0.50,-0.46,0.58*
1,1,0.50,0.46,0.58*
1,1,0.50,0.46,-0.58*
%
%ADD22ROUNDEDRECTD22*%
%ADD23R,0.80X1.00*%
%ADD24R,1.00X0.60*%
%ADD25R,1.60X0.80*%
%ADD26R,0.80X1.60*%
G04:AMPARAMS|DCode=27|XSize=0.3mm|YSize=1.45mm|CornerRadius=0.05mm|HoleSize=0mm|Usage=FLASHONLY|Rotation=270.000|XOffset=0mm|YOffset=0mm|HoleType=Round|Shape=RoundedRectangle|*
%AMROUNDEDRECTD27*
21,1,0.30,1.36,0,0,270.0*
21,1,0.21,1.45,0,0,270.0*
1,1,0.09,-0.68,-0.11*
1,1,0.09,-0.68,0.11*
1,1,0.09,0.68,0.11*
1,1,0.09,0.68,-0.11*
%
%ADD27ROUNDEDRECTD27*%
G04:AMPARAMS|DCode=28|XSize=1.8mm|YSize=1.2mm|CornerRadius=0.12mm|HoleSize=0mm|Usage=FLASHONLY|Rotation=90.000|XOffset=0mm|YOffset=0mm|HoleType=Round|Shape=RoundedRectangle|*
%AMROUNDEDRECTD28*
21,1,1.80,0.96,0,0,90.0*
21,1,1.56,1.20,0,0,90.0*
1,1,0.24,0.48,0.78*
1,1,0.24,0.48,-0.78*
1,1,0.24,-0.48,-0.78*
1,1,0.24,-0.48,0.78*
%
%ADD28ROUNDEDRECTD28*%
G04:AMPARAMS|DCode=29|XSize=1.8mm|YSize=1.5mm|CornerRadius=0.15mm|HoleSize=0mm|Usage=FLASHONLY|Rotation=270.000|XOffset=0mm|YOffset=0mm|HoleType=Round|Shape=RoundedRectangle|*
%AMROUNDEDRECTD29*
21,1,1.80,1.20,0,0,270.0*
21,1,1.50,1.50,0,0,270.0*
1,1,0.30,-0.60,-0.75*
1,1,0.30,-0.60,0.75*
1,1,0.30,0.60,0.75*
1,1,0.30,0.60,-0.75*
%
%ADD29ROUNDEDRECTD29*%
G04:AMPARAMS|DCode=30|XSize=0.25mm|YSize=1.2mm|CornerRadius=0.03mm|HoleSize=0mm|Usage=FLASHONLY|Rotation=90.000|XOffset=0mm|YOffset=0mm|HoleType=Round|Shape=RoundedRectangle|*
%AMROUNDEDRECTD30*
21,1,0.25,1.15,0,0,90.0*
21,1,0.20,1.20,0,0,90.0*
1,1,0.05,0.58,0.10*
1,1,0.05,0.58,-0.10*
1,1,0.05,-0.58,-0.10*
1,1,0.05,-0.58,0.10*
%
%ADD30ROUNDEDRECTD30*%
G04:AMPARAMS|DCode=31|XSize=0.25mm|YSize=1.2mm|CornerRadius=0.03mm|HoleSize=0mm|Usage=FLASHONLY|Rotation=180.000|XOffset=0mm|YOffset=0mm|HoleType=Round|Shape=RoundedRectangle|*
%AMROUNDEDRECTD31*
21,1,0.25,1.15,0,0,180.0*
21,1,0.20,1.20,0,0,180.0*
1,1,0.05,-0.10,0.58*
1,1,0.05,0.10,0.58*
1,1,0.05,0.10,-0.58*
1,1,0.05,-0.10,-0.58*
%
%ADD31ROUNDEDRECTD31*%
G36*
X8178Y3730D02*
X8177Y3780D01*
X8177Y3781D01*
X8178Y3783D01*
X8180Y3784D01*
X8182Y3785D01*
X8182Y3785D01*
X8182Y3785D01*
X8317Y3785D01*
X8318Y3785D01*
X8320Y3784D01*
X8322Y3783D01*
X8322Y3781D01*
X8322Y3780D01*
X8322Y3780D01*
X8322Y3730D01*
X8322Y3729D01*
X8322Y3727D01*
X8320Y3726D01*
X8318Y3725D01*
X8317Y3725D01*
X8317D01*
X8182Y3725D01*
X8181D01*
X8180Y3726D01*
X8178Y3727D01*
X8178Y3729D01*
X8178Y3730D01*
X8178Y3730D01*
D02*
G37*
G36*
X8178Y3650D02*
X8178Y3700D01*
X8178Y3701D01*
X8178Y3703D01*
X8180Y3704D01*
X8182Y3705D01*
X8182Y3705D01*
X8182Y3705D01*
X8318Y3705D01*
X8318Y3705D01*
X8320Y3704D01*
X8322Y3703D01*
X8323Y3701D01*
X8322Y3700D01*
X8322Y3700D01*
X8322Y3650D01*
X8322Y3649D01*
X8322Y3647D01*
X8320Y3646D01*
X8318Y3645D01*
X8318Y3645D01*
X8318D01*
X8182Y3645D01*
X8182D01*
X8180Y3646D01*
X8178Y3647D01*
X8178Y3649D01*
X8178Y3650D01*
X8178Y3650D01*
D02*
G37*
G36*
X8178Y4220D02*
X8177Y4270D01*
X8177Y4271D01*
X8178Y4273D01*
X8180Y4274D01*
X8182Y4275D01*
X8182Y4275D01*
X8182Y4275D01*
X8317Y4275D01*
X8318Y4275D01*
X8320Y4274D01*
X8322Y4273D01*
X8322Y4271D01*
X8322Y4270D01*
X8322Y4270D01*
X8322Y4220D01*
X8322Y4219D01*
X8322Y4217D01*
X8320Y4216D01*
X8318Y4215D01*
X8317Y4215D01*
X8317D01*
X8182Y4215D01*
X8181D01*
X8180Y4216D01*
X8178Y4217D01*
X8178Y4219D01*
X8178Y4220D01*
X8178Y4220D01*
D02*
G37*
G36*
Y4300D02*
X8177Y4350D01*
X8177Y4351D01*
X8178Y4353D01*
X8180Y4354D01*
X8182Y4355D01*
X8182Y4355D01*
X8182Y4355D01*
X8317Y4355D01*
X8318Y4355D01*
X8320Y4354D01*
X8322Y4353D01*
X8322Y4351D01*
X8322Y4350D01*
X8322Y4350D01*
X8322Y4300D01*
X8322Y4299D01*
X8322Y4297D01*
X8320Y4296D01*
X8318Y4295D01*
X8317Y4295D01*
X8317D01*
X8182Y4295D01*
X8181D01*
X8180Y4296D01*
X8178Y4297D01*
X8178Y4299D01*
X8178Y4300D01*
X8178Y4300D01*
D02*
G37*
G36*
X7907Y5100D02*
X7907Y5092D01*
X7914Y5076D01*
X7926Y5064D01*
X7942Y5057D01*
X7958Y5057D01*
X7974Y5064D01*
X7986Y5076D01*
X7993Y5092D01*
X7992Y5100D01*
X7992Y5108D01*
X7986Y5124D01*
X7974Y5136D01*
X7958Y5142D01*
X7942Y5142D01*
X7926Y5136D01*
X7914Y5124D01*
X7908Y5108D01*
X7907Y5100D01*
X7907Y5100D01*
D02*
G37*
G36*
Y5250D02*
X7907Y5242D01*
X7914Y5226D01*
X7926Y5214D01*
X7942Y5207D01*
X7958Y5207D01*
X7974Y5214D01*
X7986Y5226D01*
X7993Y5242D01*
X7992Y5250D01*
X7992Y5258D01*
X7986Y5274D01*
X7974Y5286D01*
X7958Y5292D01*
X7942Y5292D01*
X7926Y5286D01*
X7914Y5274D01*
X7908Y5258D01*
X7907Y5250D01*
X7907Y5250D01*
D02*
G37*
G36*
X8057Y5100D02*
X8057Y5092D01*
X8064Y5076D01*
X8076Y5064D01*
X8092Y5057D01*
X8108Y5057D01*
X8124Y5064D01*
X8136Y5076D01*
X8143Y5092D01*
X8142Y5100D01*
X8142Y5108D01*
X8136Y5124D01*
X8124Y5136D01*
X8108Y5142D01*
X8092Y5142D01*
X8076Y5136D01*
X8064Y5124D01*
X8058Y5108D01*
X8058Y5100D01*
X8057Y5100D01*
D02*
G37*
G36*
Y5250D02*
X8057Y5242D01*
X8064Y5226D01*
X8076Y5214D01*
X8092Y5207D01*
X8108Y5207D01*
X8124Y5214D01*
X8136Y5226D01*
X8143Y5242D01*
X8142Y5250D01*
X8142Y5258D01*
X8136Y5274D01*
X8124Y5286D01*
X8108Y5292D01*
X8092Y5292D01*
X8076Y5286D01*
X8064Y5274D01*
X8058Y5258D01*
X8058Y5250D01*
X8057Y5250D01*
D02*
G37*
D15*
X3950Y3875D02*
D03*
Y4075D02*
D03*
Y4275D02*
D03*
Y4475D02*
D03*
Y4675D02*
D03*
Y4875D02*
D03*
Y5075D02*
D03*
Y5275D02*
D03*
Y5475D02*
D03*
X2450D02*
D03*
Y5275D02*
D03*
Y5075D02*
D03*
Y4875D02*
D03*
Y4675D02*
D03*
Y4475D02*
D03*
Y4275D02*
D03*
Y4075D02*
D03*
Y3875D02*
D03*
D16*
X2254Y5917D02*
D03*
X1746D02*
D03*
X4246D02*
D03*
X4754D02*
D03*
X6746D02*
D03*
X7254D02*
D03*
D17*
X2000Y5948D02*
D03*
X4500D02*
D03*
X7000D02*
D03*
D18*
X8025Y3125D02*
D03*
Y3275D02*
D03*
X7675Y2900D02*
D03*
Y2750D02*
D03*
X4600Y3325D02*
D03*
Y3175D02*
D03*
X7975Y4575D02*
D03*
Y4725D02*
D03*
X7600Y5100D02*
D03*
Y4950D02*
D03*
X7475Y5100D02*
D03*
Y4950D02*
D03*
X8100Y4575D02*
D03*
Y4725D02*
D03*
D19*
X7825Y3620D02*
D03*
X7920Y3380D02*
D03*
X7730D02*
D03*
X8030Y2995D02*
D03*
X8220D02*
D03*
Y2755D02*
D03*
X8125D02*
D03*
X8030D02*
D03*
X7580Y3995D02*
D03*
X7770D02*
D03*
Y3755D02*
D03*
X7675D02*
D03*
X7580D02*
D03*
X4405Y3695D02*
D03*
X4595D02*
D03*
Y3455D02*
D03*
X4500D02*
D03*
X4405D02*
D03*
D20*
X7925Y3758D02*
D03*
Y3892D02*
D03*
X7575Y3483D02*
D03*
Y3617D02*
D03*
X4400Y3167D02*
D03*
Y3033D02*
D03*
X4225Y3883D02*
D03*
Y4017D02*
D03*
D21*
X8375Y3150D02*
D03*
X8225D02*
D03*
X7425D02*
D03*
X7275D02*
D03*
X7425Y2650D02*
D03*
X7275D02*
D03*
X6350Y2500D02*
D03*
X6500D02*
D03*
X5525Y2400D02*
D03*
X5375D02*
D03*
X8425Y5075D02*
D03*
X8575D02*
D03*
X1675Y2500D02*
D03*
X1525D02*
D03*
X5275Y2400D02*
D03*
X5125D02*
D03*
D22*
X7375Y3492D02*
D03*
Y3758D02*
D03*
Y4233D02*
D03*
Y3967D02*
D03*
X4225Y2967D02*
D03*
Y3233D02*
D03*
Y3442D02*
D03*
Y3708D02*
D03*
D23*
X7718Y4150D02*
D03*
X7582D02*
D03*
X6743Y2500D02*
D03*
X6607D02*
D03*
X6743Y2350D02*
D03*
X6607D02*
D03*
X4592Y3825D02*
D03*
X4458D02*
D03*
X8568Y4800D02*
D03*
X8432D02*
D03*
Y4950D02*
D03*
X8568D02*
D03*
D24*
X7520Y2900D02*
D03*
X7280Y2805D02*
D03*
Y2995D02*
D03*
X1830Y2500D02*
D03*
X2070Y2595D02*
D03*
Y2405D02*
D03*
D25*
X5325Y5195D02*
D03*
Y5085D02*
D03*
Y4795D02*
D03*
Y4685D02*
D03*
Y4575D02*
D03*
Y4465D02*
D03*
Y4355D02*
D03*
Y4245D02*
D03*
Y4135D02*
D03*
Y3255D02*
D03*
Y4025D02*
D03*
Y3915D02*
D03*
Y3805D02*
D03*
Y3695D02*
D03*
Y3585D02*
D03*
Y3475D02*
D03*
Y3365D02*
D03*
Y3035D02*
D03*
Y3145D02*
D03*
Y2925D02*
D03*
X6925D02*
D03*
Y3695D02*
D03*
Y3585D02*
D03*
Y3475D02*
D03*
Y3365D02*
D03*
Y3035D02*
D03*
Y3145D02*
D03*
Y3255D02*
D03*
Y5195D02*
D03*
Y4575D02*
D03*
Y4795D02*
D03*
Y5085D02*
D03*
Y4355D02*
D03*
Y4685D02*
D03*
Y4135D02*
D03*
Y4245D02*
D03*
Y4465D02*
D03*
Y4025D02*
D03*
Y3805D02*
D03*
Y3915D02*
D03*
D26*
X6725Y2725D02*
D03*
X6615D02*
D03*
X6395D02*
D03*
X6285D02*
D03*
X6175D02*
D03*
X6075D02*
D03*
X5965D02*
D03*
X5855D02*
D03*
X5745D02*
D03*
X5635D02*
D03*
X5525D02*
D03*
X6505D02*
D03*
D27*
X8250Y3825D02*
D03*
Y3925D02*
D03*
Y4075D02*
D03*
Y4175D02*
D03*
Y4125D02*
D03*
Y4025D02*
D03*
Y3975D02*
D03*
Y3875D02*
D03*
D28*
X8758Y4508D02*
D03*
Y3492D02*
D03*
D29*
X8340D02*
D03*
Y4508D02*
D03*
D30*
X8275Y5025D02*
D03*
Y5075D02*
D03*
Y5125D02*
D03*
X7775Y5025D02*
D03*
Y5075D02*
D03*
Y5125D02*
D03*
X8275Y5225D02*
D03*
Y5275D02*
D03*
Y5325D02*
D03*
X7775Y5225D02*
D03*
Y5275D02*
D03*
Y5325D02*
D03*
X8275Y5175D02*
D03*
X7775D02*
D03*
D31*
X8175Y4925D02*
D03*
X8125D02*
D03*
X8075D02*
D03*
X7975D02*
D03*
X7925D02*
D03*
X7875D02*
D03*
X8175Y5425D02*
D03*
X8125D02*
D03*
X8075D02*
D03*
X7975D02*
D03*
X7925D02*
D03*
X7875D02*
D03*
X8025Y4925D02*
D03*
Y5425D02*
D03*
M02*
