G04*
G04 #@! TF.GenerationSoftware,Altium Limited,Altium Designer,22.3.1 (43)*
G04*
G04 Layer_Physical_Order=1*
G04 Layer_Color=255*
%FSLAX42Y42*%
%MOMM*%
G71*
G04*
G04 #@! TF.SameCoordinates,1E4508F5-A1E4-440D-8114-158E3DC34BCC*
G04*
G04*
G04 #@! TF.FilePolarity,Positive*
G04*
G01*
G75*
%ADD10C,1.30*%
%ADD11R,0.90X1.60*%
G04:AMPARAMS|DCode=12|XSize=1.8mm|YSize=3mm|CornerRadius=0.45mm|HoleSize=0mm|Usage=FLASHONLY|Rotation=90.000|XOffset=0mm|YOffset=0mm|HoleType=Round|Shape=RoundedRectangle|*
%AMROUNDEDRECTD12*
21,1,1.80,2.10,0,0,90.0*
21,1,0.90,3.00,0,0,90.0*
1,1,0.90,1.05,0.45*
1,1,0.90,1.05,-0.45*
1,1,0.90,-1.05,-0.45*
1,1,0.90,-1.05,0.45*
%
%ADD12ROUNDEDRECTD12*%
%ADD13R,3.80X2.00*%
%ADD14R,2.80X2.00*%
G04:AMPARAMS|DCode=15|XSize=1.1mm|YSize=1.63mm|CornerRadius=0.25mm|HoleSize=0mm|Usage=FLASHONLY|Rotation=180.000|XOffset=0mm|YOffset=0mm|HoleType=Round|Shape=RoundedRectangle|*
%AMROUNDEDRECTD15*
21,1,1.10,1.14,0,0,180.0*
21,1,0.61,1.63,0,0,180.0*
1,1,0.50,-0.30,0.57*
1,1,0.50,0.30,0.57*
1,1,0.50,0.30,-0.57*
1,1,0.50,-0.30,-0.57*
%
%ADD15ROUNDEDRECTD15*%
G04:AMPARAMS|DCode=16|XSize=1.5mm|YSize=4mm|CornerRadius=0.38mm|HoleSize=0mm|Usage=FLASHONLY|Rotation=270.000|XOffset=0mm|YOffset=0mm|HoleType=Round|Shape=RoundedRectangle|*
%AMROUNDEDRECTD16*
21,1,1.50,3.25,0,0,270.0*
21,1,0.75,4.00,0,0,270.0*
1,1,0.75,-1.63,-0.38*
1,1,0.75,-1.63,0.38*
1,1,0.75,1.63,0.38*
1,1,0.75,1.63,-0.38*
%
%ADD16ROUNDEDRECTD16*%
%ADD17R,1.30X0.70*%
%ADD18R,0.70X1.30*%
%ADD19R,0.90X1.30*%
%ADD20R,2.00X2.80*%
%ADD21R,4.90X1.60*%
%ADD22R,2.35X1.50*%
%ADD23R,1.30X0.90*%
G04:AMPARAMS|DCode=24|XSize=2.09mm|YSize=3.22mm|CornerRadius=0.25mm|HoleSize=0mm|Usage=FLASHONLY|Rotation=0.000|XOffset=0mm|YOffset=0mm|HoleType=Round|Shape=RoundedRectangle|*
%AMROUNDEDRECTD24*
21,1,2.09,2.72,0,0,0.0*
21,1,1.59,3.22,0,0,0.0*
1,1,0.50,0.79,-1.36*
1,1,0.50,-0.79,-1.36*
1,1,0.50,-0.79,1.36*
1,1,0.50,0.79,1.36*
%
%ADD24ROUNDEDRECTD24*%
%ADD25C,1.00*%
%ADD26C,0.50*%
%ADD27C,0.30*%
%ADD28C,0.58*%
%ADD29C,1.50*%
%ADD30C,3.20*%
%ADD31O,4.00X3.30*%
G04:AMPARAMS|DCode=32|XSize=3.3mm|YSize=4mm|CornerRadius=0.83mm|HoleSize=0mm|Usage=FLASHONLY|Rotation=270.000|XOffset=0mm|YOffset=0mm|HoleType=Round|Shape=RoundedRectangle|*
%AMROUNDEDRECTD32*
21,1,3.30,2.35,0,0,270.0*
21,1,1.65,4.00,0,0,270.0*
1,1,1.65,-1.18,-0.83*
1,1,1.65,-1.18,0.83*
1,1,1.65,1.18,0.83*
1,1,1.65,1.18,-0.83*
%
%ADD32ROUNDEDRECTD32*%
%ADD33C,1.50*%
G36*
X1080Y3806D02*
X1073Y3804D01*
X1057Y3791D01*
X900D01*
Y3950D01*
X1080D01*
Y3806D01*
D02*
G37*
G36*
X4211Y3525D02*
X3932D01*
Y3516D01*
X3675D01*
Y3517D01*
X3618Y3512D01*
X3562Y3499D01*
X3509Y3477D01*
X3460Y3447D01*
X3416Y3409D01*
X3378Y3365D01*
X3348Y3316D01*
X3326Y3263D01*
X3315Y3216D01*
X3300D01*
Y3300D01*
X3076Y3302D01*
X3067Y3315D01*
X3073Y3328D01*
X3076Y3351D01*
Y3500D01*
X3076Y3500D01*
Y3635D01*
X3120D01*
Y3961D01*
X3750D01*
X3765Y3964D01*
X3777Y3973D01*
X3786Y3985D01*
X3789Y4000D01*
Y4961D01*
X4211D01*
Y3525D01*
D02*
G37*
G36*
X461Y4000D02*
X464Y3985D01*
X473Y3973D01*
X485Y3964D01*
X500Y3961D01*
X681D01*
X685Y3950D01*
X685D01*
Y3905D01*
X775D01*
Y3875D01*
X685D01*
Y3830D01*
Y3760D01*
X685D01*
Y3706D01*
X684Y3700D01*
Y3550D01*
X685Y3544D01*
Y3465D01*
X700D01*
Y3426D01*
X593Y3426D01*
X577Y3455D01*
X552Y3485D01*
X522Y3510D01*
X488Y3529D01*
X450Y3540D01*
X411Y3544D01*
X391Y3542D01*
X385Y3547D01*
Y3547D01*
X372Y3542D01*
Y3542D01*
X360Y3541D01*
X318D01*
Y3550D01*
X39D01*
Y4961D01*
X461D01*
Y4000D01*
D02*
G37*
G36*
X1825Y3665D02*
X1790D01*
Y3575D01*
Y3485D01*
X1825D01*
Y3440D01*
X1775D01*
Y3350D01*
X1760D01*
Y3335D01*
X1690D01*
Y3300D01*
X1625D01*
Y3335D01*
X1550D01*
Y3265D01*
X1520D01*
Y3335D01*
X1445D01*
Y3300D01*
X1390D01*
Y3325D01*
X1315D01*
Y3265D01*
X1285D01*
Y3325D01*
X1210D01*
Y3300D01*
X1140D01*
Y3310D01*
X960D01*
Y3300D01*
X900D01*
Y2773D01*
X899Y2771D01*
X895Y2750D01*
Y2559D01*
X635Y2300D01*
X615D01*
X613Y2300D01*
X587D01*
X585Y2300D01*
X546D01*
X545Y2313D01*
X546Y2313D01*
X572Y2324D01*
X594Y2341D01*
X611Y2363D01*
X622Y2389D01*
X626Y2417D01*
Y2480D01*
X400D01*
X174D01*
Y2417D01*
X178Y2389D01*
X189Y2363D01*
X206Y2341D01*
X228Y2324D01*
X254Y2313D01*
X255Y2313D01*
X254Y2300D01*
X39D01*
Y3350D01*
X318D01*
Y3359D01*
X373D01*
X386Y3359D01*
Y3359D01*
X407Y3362D01*
X408Y3361D01*
X410Y3361D01*
X419Y3359D01*
X427Y3350D01*
X429Y3345D01*
X429Y3345D01*
X433Y3338D01*
X433Y3338D01*
X433Y3337D01*
X434Y3336D01*
X434Y3336D01*
X445Y3315D01*
X467Y3289D01*
X493Y3268D01*
X514Y3256D01*
X514Y3256D01*
X515Y3256D01*
X523Y3252D01*
X528Y3250D01*
X536Y3247D01*
X560Y3244D01*
X675Y3244D01*
X684Y3235D01*
Y3200D01*
X685Y3194D01*
Y3125D01*
X675D01*
X685Y3115D01*
Y3090D01*
X685D01*
Y2975D01*
Y2975D01*
X775D01*
X865D01*
Y2975D01*
X875D01*
D01*
X875D01*
Y3030D01*
Y3125D01*
X865D01*
Y3194D01*
X866Y3200D01*
Y3335D01*
X865Y3341D01*
Y3395D01*
X850D01*
Y3465D01*
X865D01*
Y3544D01*
X866Y3550D01*
Y3609D01*
X900D01*
Y3609D01*
X1094D01*
X1117Y3612D01*
X1130Y3618D01*
X1139Y3621D01*
X1156Y3634D01*
X1170D01*
X1176Y3635D01*
X1330D01*
Y3950D01*
X1825D01*
Y3665D01*
D02*
G37*
G36*
X2870Y3635D02*
X2894D01*
Y3500D01*
X2894Y3500D01*
Y3389D01*
X2871Y3366D01*
X2745D01*
X2727Y3363D01*
X2710Y3356D01*
X2695Y3345D01*
X2684Y3330D01*
X2677Y3313D01*
X2674Y3295D01*
Y3205D01*
X2677Y3187D01*
X2684Y3170D01*
X2695Y3155D01*
X2710Y3144D01*
X2727Y3137D01*
X2745Y3134D01*
X2942D01*
Y3050D01*
X3150D01*
X3151Y3037D01*
X3159Y3019D01*
X3170Y3005D01*
X3184Y2994D01*
Y2860D01*
X3187Y2836D01*
X3195Y2818D01*
Y2760D01*
X3335D01*
Y2792D01*
X3339Y2796D01*
X3354Y2814D01*
X3363Y2836D01*
X3366Y2860D01*
Y2984D01*
X3430D01*
X3448Y2986D01*
X3466Y2994D01*
X3480Y3005D01*
X3491Y3019D01*
X3499Y3037D01*
X3501Y3055D01*
Y3145D01*
X3499Y3163D01*
X3493Y3176D01*
X3494Y3186D01*
X3505Y3220D01*
X3522Y3252D01*
X3545Y3280D01*
X3573Y3303D01*
X3605Y3320D01*
X3639Y3331D01*
X3673Y3334D01*
X3675Y3334D01*
X3932D01*
Y3325D01*
X4211D01*
Y1639D01*
X2650D01*
Y3961D01*
X2870D01*
Y3635D01*
D02*
G37*
%LPC*%
G36*
X3245Y3590D02*
X3190D01*
Y3515D01*
X3245D01*
Y3590D01*
D02*
G37*
G36*
X3160D02*
X3105D01*
Y3515D01*
X3160D01*
Y3590D01*
D02*
G37*
G36*
X3245Y3485D02*
X3190D01*
Y3410D01*
X3245D01*
Y3485D01*
D02*
G37*
G36*
X3160D02*
X3105D01*
Y3410D01*
X3160D01*
Y3485D01*
D02*
G37*
G36*
X1760Y3665D02*
X1705D01*
Y3590D01*
X1760D01*
Y3665D01*
D02*
G37*
G36*
Y3560D02*
X1705D01*
Y3485D01*
X1760D01*
Y3560D01*
D02*
G37*
G36*
X1745Y3440D02*
X1690D01*
Y3365D01*
X1745D01*
Y3440D01*
D02*
G37*
G36*
X865Y2945D02*
X790D01*
Y2900D01*
X865D01*
Y2945D01*
D02*
G37*
G36*
X760D02*
X685D01*
Y2900D01*
X760D01*
Y2945D01*
D02*
G37*
G36*
X518Y2691D02*
X420D01*
Y2520D01*
X626D01*
Y2583D01*
X622Y2611D01*
X611Y2637D01*
X594Y2659D01*
X572Y2676D01*
X546Y2687D01*
X518Y2691D01*
D02*
G37*
G36*
X380D02*
X283D01*
X254Y2687D01*
X228Y2676D01*
X206Y2659D01*
X189Y2637D01*
X178Y2611D01*
X174Y2583D01*
Y2520D01*
X380D01*
Y2691D01*
D02*
G37*
G36*
X3145Y2940D02*
X3090D01*
Y2865D01*
X3145D01*
Y2940D01*
D02*
G37*
G36*
X3060D02*
X3005D01*
Y2865D01*
X3060D01*
Y2940D01*
D02*
G37*
G36*
X3145Y2835D02*
X3090D01*
Y2760D01*
X3145D01*
Y2835D01*
D02*
G37*
G36*
X3060D02*
X3005D01*
Y2760D01*
X3060D01*
Y2835D01*
D02*
G37*
G36*
X3770Y2435D02*
Y2270D01*
X3935D01*
X3928Y2304D01*
X3914Y2338D01*
X3894Y2368D01*
X3868Y2394D01*
X3838Y2414D01*
X3804Y2428D01*
X3770Y2435D01*
D02*
G37*
G36*
X3730D02*
X3696Y2428D01*
X3662Y2414D01*
X3632Y2394D01*
X3606Y2368D01*
X3586Y2338D01*
X3572Y2304D01*
X3565Y2270D01*
X3730D01*
Y2435D01*
D02*
G37*
G36*
X3935Y2230D02*
X3770D01*
Y2065D01*
X3804Y2072D01*
X3838Y2086D01*
X3868Y2106D01*
X3894Y2132D01*
X3914Y2162D01*
X3928Y2196D01*
X3935Y2230D01*
D02*
G37*
G36*
X3730D02*
X3565D01*
X3572Y2196D01*
X3586Y2162D01*
X3606Y2132D01*
X3632Y2106D01*
X3662Y2086D01*
X3696Y2072D01*
X3730Y2065D01*
Y2230D01*
D02*
G37*
%LPD*%
D10*
X385Y3450D02*
G03*
X390Y3450I-0J25D01*
G01*
X513Y3382D02*
G03*
X560Y3335I76J30D01*
G01*
X513Y3382D02*
G03*
X390Y3450I-102J-38D01*
G01*
X3675Y3425D02*
G03*
X3400Y3150I0J-275D01*
G01*
X2985Y3790D02*
X2995Y3800D01*
X2985Y3500D02*
Y3790D01*
Y3500D02*
X2985Y3500D01*
X2921Y3261D02*
X2935Y3275D01*
Y3301D02*
X2985Y3351D01*
X2900Y3261D02*
X2921D01*
X2985Y3351D02*
Y3500D01*
X2935Y3275D02*
Y3301D01*
X560Y3335D02*
X723Y3335D01*
X560Y3335D02*
X560D01*
X175Y3450D02*
X385D01*
X1094Y3700D02*
X1119Y3725D01*
X775Y3700D02*
X1094D01*
X1119Y3725D02*
X1170D01*
X1205Y3760D01*
Y3800D01*
X3675Y3425D02*
X4075D01*
X2900Y2850D02*
X3075D01*
X3175Y3500D02*
X3325D01*
X3275Y2860D02*
Y3100D01*
X775Y3550D02*
Y3700D01*
Y3200D02*
Y3335D01*
D11*
X2225Y3100D02*
D03*
X2515Y3100D02*
D03*
X1735Y3100D02*
D03*
X2025Y3100D02*
D03*
D12*
X3325D02*
D03*
X2850Y3250D02*
D03*
D13*
X2305Y1925D02*
D03*
Y2625D02*
D03*
X1500Y1675D02*
D03*
D14*
X1775Y1925D02*
D03*
Y2625D02*
D03*
X970Y1675D02*
D03*
D15*
X1134Y2650D02*
D03*
X1466D02*
D03*
D16*
X2050Y1208D02*
D03*
Y954D02*
D03*
Y700D02*
D03*
D17*
X1050Y3250D02*
D03*
Y3060D02*
D03*
X1300Y3075D02*
D03*
Y3265D02*
D03*
X775Y3700D02*
D03*
Y3890D02*
D03*
Y3525D02*
D03*
Y3335D02*
D03*
Y3150D02*
D03*
Y2960D02*
D03*
D18*
X1332Y2434D02*
D03*
X1142D02*
D03*
X1150Y2850D02*
D03*
X1340D02*
D03*
D19*
X1760Y3350D02*
D03*
X1950D02*
D03*
X3075Y2850D02*
D03*
X3265D02*
D03*
X3175Y3500D02*
D03*
X2985D02*
D03*
X2300Y3350D02*
D03*
X2490D02*
D03*
X2310Y3575D02*
D03*
X2500D02*
D03*
X1775D02*
D03*
X1965D02*
D03*
X1150Y2175D02*
D03*
X1340D02*
D03*
X2000Y1425D02*
D03*
X1810D02*
D03*
D20*
X2995Y3800D02*
D03*
X2485D02*
D03*
X1975D02*
D03*
X1205D02*
D03*
D21*
X3917Y3850D02*
D03*
Y3000D02*
D03*
X333Y3025D02*
D03*
Y3875D02*
D03*
D22*
X4075Y3425D02*
D03*
X175Y3450D02*
D03*
D23*
X1535Y3075D02*
D03*
Y3265D02*
D03*
D24*
X1676Y950D02*
D03*
X973D02*
D03*
D25*
X1778Y1203D02*
X2111D01*
X1676Y950D02*
Y1102D01*
X1778Y1203D01*
X2111D02*
X2133Y1225D01*
X2325Y2645D02*
Y2775D01*
X2484Y2934D01*
X2485Y3050D02*
Y3275D01*
X2484Y2934D02*
Y3049D01*
X1400Y1775D02*
Y2336D01*
Y825D02*
Y1675D01*
X2225Y2950D02*
Y3100D01*
X2000Y2725D02*
X2225Y2950D01*
X2000Y2450D02*
Y2725D01*
X2295Y3355D02*
Y3365D01*
X2199D02*
X2295D01*
Y3355D02*
X2300Y3350D01*
X2189Y3375D02*
X2199Y3365D01*
X2175Y3375D02*
X2189D01*
X2175Y3575D02*
X2299D01*
X635Y3885D02*
X770D01*
X782Y3883D02*
X968D01*
X750Y1675D02*
X970D01*
X1400Y825D02*
X1550Y675D01*
X2125D01*
X1650Y1425D02*
X1810D01*
X2175D02*
Y1545D01*
Y1233D02*
Y1425D01*
X2000D02*
X2175D01*
X2485Y3525D02*
Y3800D01*
Y3275D02*
Y3525D01*
X1400Y2336D02*
X1886D01*
X2000Y2450D01*
X1336Y2400D02*
X1400Y2336D01*
X2305Y1675D02*
Y1925D01*
X2175Y1545D02*
X2305Y1675D01*
D26*
X1535Y3075D02*
X1715D01*
X1735Y3095D01*
Y3100D01*
X1535Y3075D02*
X1535Y3075D01*
X1300D02*
X1535D01*
X1960Y3180D02*
Y3785D01*
Y3180D02*
X1995Y3145D01*
X2484Y3049D02*
X2485Y3050D01*
X625Y3875D02*
X635Y3885D01*
X770D02*
X775Y3890D01*
X1550Y1925D02*
X1775D01*
X1300Y3240D02*
X1540D01*
X1300Y3265D02*
Y3400D01*
Y3240D02*
Y3265D01*
X775Y3890D02*
X782Y3883D01*
X968D02*
X975Y3875D01*
X1775Y3525D02*
Y3545D01*
X1644Y3606D02*
X1714D01*
X1775Y3545D01*
X1625Y3625D02*
X1644Y3606D01*
X604Y2196D02*
X950Y2542D01*
Y2750D02*
X1050Y2850D01*
Y3060D01*
X769Y2044D02*
Y2194D01*
X989Y2414D01*
X1132D01*
Y2450D01*
X750Y2025D02*
X769Y2044D01*
X2305Y2625D02*
X2325Y2645D01*
X1000Y2175D02*
X1150D01*
Y2475D02*
Y2634D01*
X1340Y2850D02*
X1475D01*
X1080Y3250D02*
X1248Y3082D01*
D27*
Y3072D02*
Y3082D01*
X983Y2175D02*
X1000Y2158D01*
X513Y3382D02*
X513Y3382D01*
X2125Y675D02*
X2150Y700D01*
X1125Y2450D02*
X1150Y2475D01*
X1466Y2650D02*
X1575D01*
X983Y2175D02*
X1000D01*
Y2158D02*
Y2175D01*
X1134Y2650D02*
X1150Y2634D01*
X2150Y1208D02*
X2175Y1233D01*
X1540Y3240D02*
X1550Y3250D01*
X900Y1637D02*
X907Y1630D01*
X400Y1992D02*
Y2000D01*
X723Y3335D02*
X775Y3335D01*
X1050Y3250D02*
X1080D01*
X998Y976D02*
X1023Y950D01*
X2133Y1225D02*
X2150Y1208D01*
X3265Y2850D02*
X3275Y2860D01*
X2485Y3800D02*
X2485Y3800D01*
X1960Y3785D02*
X1975Y3800D01*
D28*
X1550Y3265D02*
Y3400D01*
Y3250D02*
Y3265D01*
X950Y2542D02*
Y2750D01*
X1134Y2650D02*
Y2850D01*
D29*
X725Y976D02*
X998D01*
D30*
X3750Y2250D02*
D03*
X350Y350D02*
D03*
D31*
X400Y976D02*
D03*
Y1484D02*
D03*
Y1992D02*
D03*
D32*
Y2500D02*
D03*
D33*
X2150Y950D02*
D03*
X1950D02*
D03*
X2175Y3375D02*
D03*
Y3575D02*
D03*
X400Y3650D02*
D03*
X775Y2825D02*
D03*
X1300Y3400D02*
D03*
X1175Y3525D02*
D03*
X975D02*
D03*
X1625Y3850D02*
D03*
Y3625D02*
D03*
X1425D02*
D03*
X1550Y3400D02*
D03*
X1425Y3850D02*
D03*
X975Y3875D02*
D03*
X350Y4875D02*
D03*
X150D02*
D03*
Y4675D02*
D03*
Y4475D02*
D03*
Y4275D02*
D03*
X425Y3225D02*
D03*
X200D02*
D03*
X575Y3650D02*
D03*
X200D02*
D03*
X4100Y4250D02*
D03*
Y4450D02*
D03*
Y4650D02*
D03*
Y4850D02*
D03*
X3900D02*
D03*
X3525Y3575D02*
D03*
X3600Y3175D02*
D03*
X3525Y2775D02*
D03*
X4025D02*
D03*
X3775D02*
D03*
X4025Y3225D02*
D03*
X3775D02*
D03*
X4050Y3625D02*
D03*
X3775D02*
D03*
X4100Y4050D02*
D03*
X3875D02*
D03*
X3450Y3825D02*
D03*
X3250D02*
D03*
X2725Y2850D02*
D03*
X2750Y3475D02*
D03*
Y3650D02*
D03*
Y3850D02*
D03*
X575Y2825D02*
D03*
X150D02*
D03*
X350Y4075D02*
D03*
X150D02*
D03*
X750Y2025D02*
D03*
X1575Y1925D02*
D03*
X750Y1675D02*
D03*
X1650Y1425D02*
D03*
X2900Y2850D02*
D03*
X3325Y3500D02*
D03*
X1575Y2650D02*
D03*
X1000Y2175D02*
D03*
X1475Y2850D02*
D03*
X375Y2825D02*
D03*
X725Y975D02*
D03*
X600Y2200D02*
D03*
M02*
