M48
;Layer_Color=9474304
;FILE_FORMAT=4:2
METRIC,LZ
;TYPE=PLATED
T1F00S00C0.50
%
T01
X00035Y00035
X0004Y000976
X000725Y000975
X00075Y001675
X0004Y001484
X00165Y001425
X001575Y001925
X00195Y00095
X00215
X001575Y00265
X001475Y00285
X00155Y0034
X0013
X001175Y003525
X000975
Y003875
X001425Y00385
X001625
Y003625
X001425
X002175Y003575
Y003375
X00275Y003475
Y00365
Y00385
X002725Y00285
X000775Y002825
X000575
X000375
X00015
X0002Y003225
X000425
X0004Y00365
X000575
X0002
X00015Y004075
Y004275
Y004475
Y004675
Y004875
X00035
Y004075
X0004Y0025
X0006Y0022
X00075Y002025
X0004Y001992
X001Y002175
X0029Y00285
X003525Y002775
X003775
X004025
Y003225
X003775
X0036Y003175
X003525Y003575
X003325Y0035
X00325Y003825
X00345
X003775Y003625
X00405
X0041Y00405
Y00425
Y00445
Y00465
Y00485
X0039
X003875Y00405
X00375Y00225
M30
