G04*
G04 #@! TF.GenerationSoftware,Altium Limited,Altium Designer,23.0.1 (38)*
G04*
G04 Layer_Color=65535*
%FSLAX44Y44*%
%MOMM*%
G71*
G04*
G04 #@! TF.SameCoordinates,A0776DD6-9477-4037-963C-6FFA94690279*
G04*
G04*
G04 #@! TF.FilePolarity,Positive*
G04*
G01*
G75*
%ADD10C,0.2540*%
%ADD11C,0.2000*%
%ADD12C,0.2500*%
%ADD13C,0.8000*%
G36*
X784263Y211059D02*
X784564Y211012D01*
X784934Y210943D01*
X785351Y210827D01*
X785767Y210688D01*
X786184Y210503D01*
X786207D01*
X786230Y210480D01*
X786369Y210411D01*
X786577Y210272D01*
X786809Y210110D01*
X787086Y209879D01*
X787364Y209624D01*
X787642Y209323D01*
X787873Y208976D01*
X787896Y208930D01*
X787966Y208814D01*
X788058Y208606D01*
X788174Y208351D01*
X788290Y208051D01*
X788382Y207703D01*
X788452Y207310D01*
X788475Y206917D01*
Y206870D01*
Y206732D01*
X788452Y206547D01*
X788405Y206292D01*
X788336Y205991D01*
X788220Y205667D01*
X788081Y205343D01*
X787896Y205019D01*
X787873Y204973D01*
X787804Y204881D01*
X787665Y204719D01*
X787480Y204533D01*
X787248Y204325D01*
X786971Y204094D01*
X786647Y203885D01*
X786253Y203677D01*
X786276D01*
X786323Y203654D01*
X786392Y203631D01*
X786485Y203608D01*
X786739Y203515D01*
X787063Y203377D01*
X787433Y203191D01*
X787804Y202960D01*
X788151Y202659D01*
X788475Y202312D01*
X788498Y202266D01*
X788590Y202127D01*
X788729Y201896D01*
X788868Y201595D01*
X789007Y201224D01*
X789146Y200785D01*
X789238Y200276D01*
X789261Y199720D01*
Y199697D01*
Y199628D01*
Y199512D01*
X789238Y199373D01*
X789215Y199188D01*
X789169Y198980D01*
X789123Y198749D01*
X789076Y198494D01*
X788891Y197939D01*
X788752Y197638D01*
X788614Y197360D01*
X788428Y197059D01*
X788220Y196759D01*
X787989Y196458D01*
X787711Y196180D01*
X787688Y196157D01*
X787642Y196111D01*
X787549Y196041D01*
X787433Y195949D01*
X787295Y195833D01*
X787109Y195717D01*
X786901Y195578D01*
X786647Y195463D01*
X786392Y195324D01*
X786091Y195185D01*
X785790Y195069D01*
X785443Y194954D01*
X785073Y194861D01*
X784680Y194792D01*
X784286Y194746D01*
X783847Y194722D01*
X783639D01*
X783500Y194746D01*
X783315Y194769D01*
X783106Y194792D01*
X782875Y194838D01*
X782620Y194884D01*
X782065Y195023D01*
X781487Y195254D01*
X781186Y195393D01*
X780908Y195555D01*
X780630Y195764D01*
X780353Y195972D01*
X780330Y195995D01*
X780283Y196041D01*
X780214Y196111D01*
X780145Y196203D01*
X780029Y196319D01*
X779913Y196481D01*
X779774Y196643D01*
X779635Y196851D01*
X779497Y197083D01*
X779358Y197314D01*
X779103Y197869D01*
X778895Y198517D01*
X778826Y198864D01*
X778779Y199235D01*
X780746Y199489D01*
Y199466D01*
X780769Y199420D01*
X780792Y199327D01*
X780816Y199211D01*
X780839Y199073D01*
X780885Y198911D01*
X781001Y198563D01*
X781163Y198147D01*
X781371Y197754D01*
X781602Y197383D01*
X781880Y197059D01*
X781926Y197036D01*
X782019Y196944D01*
X782204Y196828D01*
X782435Y196712D01*
X782713Y196574D01*
X783060Y196458D01*
X783453Y196365D01*
X783870Y196342D01*
X784009D01*
X784101Y196365D01*
X784356Y196388D01*
X784680Y196458D01*
X785050Y196574D01*
X785443Y196735D01*
X785837Y196967D01*
X786207Y197291D01*
X786253Y197337D01*
X786369Y197476D01*
X786508Y197684D01*
X786693Y197962D01*
X786878Y198309D01*
X787017Y198702D01*
X787133Y199165D01*
X787179Y199674D01*
Y199697D01*
Y199744D01*
Y199813D01*
X787156Y199906D01*
X787133Y200160D01*
X787063Y200461D01*
X786971Y200831D01*
X786809Y201201D01*
X786577Y201572D01*
X786276Y201919D01*
X786230Y201965D01*
X786115Y202057D01*
X785929Y202196D01*
X785675Y202358D01*
X785351Y202520D01*
X784958Y202659D01*
X784518Y202752D01*
X784032Y202798D01*
X783824D01*
X783662Y202775D01*
X783453Y202752D01*
X783222Y202705D01*
X782944Y202659D01*
X782644Y202590D01*
X782875Y204325D01*
X782991D01*
X783083Y204302D01*
X783384D01*
X783639Y204348D01*
X783939Y204395D01*
X784286Y204464D01*
X784680Y204580D01*
X785050Y204742D01*
X785443Y204950D01*
X785467D01*
X785490Y204973D01*
X785605Y205066D01*
X785767Y205228D01*
X785953Y205436D01*
X786138Y205737D01*
X786300Y206084D01*
X786415Y206477D01*
X786461Y206709D01*
Y206963D01*
Y206986D01*
Y207009D01*
Y207148D01*
X786415Y207333D01*
X786369Y207588D01*
X786276Y207866D01*
X786161Y208166D01*
X785976Y208467D01*
X785721Y208745D01*
X785698Y208768D01*
X785582Y208860D01*
X785420Y208976D01*
X785212Y209115D01*
X784934Y209231D01*
X784610Y209346D01*
X784240Y209439D01*
X783824Y209462D01*
X783639D01*
X783430Y209416D01*
X783153Y209370D01*
X782852Y209277D01*
X782551Y209161D01*
X782227Y208976D01*
X781926Y208745D01*
X781903Y208722D01*
X781811Y208606D01*
X781672Y208444D01*
X781510Y208213D01*
X781348Y207912D01*
X781186Y207542D01*
X781047Y207102D01*
X780954Y206593D01*
X778988Y206940D01*
Y206963D01*
X779011Y207033D01*
X779034Y207125D01*
X779057Y207264D01*
X779103Y207426D01*
X779173Y207611D01*
X779312Y208051D01*
X779543Y208560D01*
X779820Y209069D01*
X780168Y209555D01*
X780607Y209994D01*
X780630Y210018D01*
X780677Y210041D01*
X780746Y210087D01*
X780839Y210156D01*
X780954Y210249D01*
X781116Y210341D01*
X781278Y210434D01*
X781487Y210550D01*
X781949Y210735D01*
X782482Y210920D01*
X783106Y211036D01*
X783430Y211082D01*
X784009D01*
X784263Y211059D01*
D02*
G37*
G36*
X773133Y195000D02*
X771259D01*
X766886Y206616D01*
X768968D01*
X771467Y199651D01*
Y199628D01*
X771490Y199605D01*
X771514Y199535D01*
X771537Y199466D01*
X771606Y199235D01*
X771699Y198934D01*
X771814Y198587D01*
X771953Y198193D01*
X772069Y197754D01*
X772208Y197314D01*
X772231Y197360D01*
X772254Y197476D01*
X772323Y197661D01*
X772393Y197939D01*
X772508Y198239D01*
X772624Y198633D01*
X772786Y199049D01*
X772948Y199512D01*
X775517Y206616D01*
X777553D01*
X773133Y195000D01*
D02*
G37*
G36*
X758694D02*
X756658D01*
Y208398D01*
X751984Y195000D01*
X750086D01*
X745459Y208629D01*
Y195000D01*
X743422Y195000D01*
Y211012D01*
X746592Y211012D01*
X750387Y199651D01*
Y199628D01*
X750410Y199582D01*
X750434Y199512D01*
X750480Y199396D01*
X750572Y199119D01*
X750688Y198772D01*
X750804Y198378D01*
X750943Y197985D01*
X751058Y197615D01*
X751151Y197291D01*
X751174Y197337D01*
X751197Y197453D01*
X751266Y197661D01*
X751359Y197939D01*
X751475Y198309D01*
X751637Y198749D01*
X751799Y199258D01*
X752007Y199859D01*
X755848Y211012D01*
X758694D01*
Y195000D01*
D02*
G37*
G36*
X735323Y195000D02*
X733102D01*
X726901Y211012D01*
X729215D01*
X733380Y199373D01*
Y199350D01*
X733403Y199304D01*
X733426Y199235D01*
X733472Y199142D01*
X733495Y199003D01*
X733542Y198864D01*
X733657Y198517D01*
X733796Y198124D01*
X733935Y197684D01*
X734213Y196759D01*
Y196782D01*
X734236Y196828D01*
X734259Y196897D01*
X734282Y196990D01*
X734352Y197244D01*
X734467Y197592D01*
X734583Y197985D01*
X734722Y198425D01*
X734884Y198887D01*
X735069Y199373D01*
X739419Y211012D01*
X741571D01*
X735323Y195000D01*
D02*
G37*
G36*
X825683Y195000D02*
X823438D01*
Y197244D01*
X825683D01*
Y195000D01*
D02*
G37*
G36*
X817283D02*
X815316D01*
Y207518D01*
X815293Y207495D01*
X815178Y207403D01*
X815039Y207264D01*
X814807Y207102D01*
X814553Y206894D01*
X814229Y206662D01*
X813859Y206408D01*
X813442Y206153D01*
X813419D01*
X813396Y206130D01*
X813257Y206038D01*
X813026Y205922D01*
X812748Y205783D01*
X812424Y205621D01*
X812077Y205459D01*
X811730Y205297D01*
X811383Y205158D01*
Y207056D01*
X811406D01*
X811452Y207102D01*
X811545Y207125D01*
X811660Y207194D01*
X811799Y207264D01*
X811961Y207356D01*
X812355Y207588D01*
X812817Y207842D01*
X813280Y208166D01*
X813766Y208537D01*
X814252Y208930D01*
X814275Y208953D01*
X814298Y208976D01*
X814368Y209046D01*
X814460Y209115D01*
X814669Y209346D01*
X814946Y209624D01*
X815224Y209948D01*
X815525Y210318D01*
X815779Y210688D01*
X816011Y211082D01*
X817283D01*
Y195000D01*
D02*
G37*
G36*
X794560D02*
X792316D01*
Y197244D01*
X794560D01*
Y195000D01*
D02*
G37*
G36*
X725258Y209115D02*
X715794D01*
Y204233D01*
X724656D01*
Y202335D01*
X715794D01*
Y196897D01*
X725628D01*
Y195000D01*
X713665D01*
Y211012D01*
X725258D01*
Y209115D01*
D02*
G37*
G36*
X692678Y210989D02*
X692886D01*
X693372Y210966D01*
X693881Y210897D01*
X694436Y210827D01*
X694945Y210712D01*
X695200Y210642D01*
X695408Y210573D01*
X695431D01*
X695454Y210550D01*
X695593Y210480D01*
X695801Y210388D01*
X696056Y210226D01*
X696334Y210018D01*
X696634Y209740D01*
X696912Y209416D01*
X697190Y209046D01*
Y209023D01*
X697213Y208999D01*
X697305Y208860D01*
X697398Y208629D01*
X697537Y208328D01*
X697653Y207981D01*
X697768Y207565D01*
X697838Y207125D01*
X697861Y206639D01*
Y206616D01*
Y206570D01*
Y206477D01*
X697838Y206361D01*
Y206199D01*
X697814Y206038D01*
X697722Y205644D01*
X697583Y205181D01*
X697398Y204695D01*
X697120Y204209D01*
X696935Y203978D01*
X696750Y203747D01*
X696727Y203724D01*
X696704Y203700D01*
X696634Y203631D01*
X696542Y203562D01*
X696426Y203469D01*
X696287Y203377D01*
X696102Y203261D01*
X695917Y203122D01*
X695686Y203006D01*
X695431Y202890D01*
X695154Y202752D01*
X694853Y202636D01*
X694506Y202543D01*
X694158Y202428D01*
X693765Y202358D01*
X693349Y202289D01*
X693395Y202266D01*
X693487Y202220D01*
X693626Y202127D01*
X693811Y202034D01*
X694228Y201780D01*
X694436Y201618D01*
X694621Y201479D01*
X694668Y201433D01*
X694783Y201317D01*
X694968Y201132D01*
X695200Y200900D01*
X695454Y200577D01*
X695755Y200229D01*
X696056Y199813D01*
X696380Y199350D01*
X699134Y195000D01*
X696496D01*
X694390Y198332D01*
Y198355D01*
X694344Y198402D01*
X694297Y198471D01*
X694228Y198563D01*
X694066Y198818D01*
X693858Y199142D01*
X693603Y199489D01*
X693349Y199859D01*
X693094Y200206D01*
X692863Y200530D01*
X692840Y200553D01*
X692770Y200646D01*
X692654Y200785D01*
X692492Y200947D01*
X692145Y201294D01*
X691960Y201456D01*
X691775Y201595D01*
X691752Y201618D01*
X691706Y201641D01*
X691613Y201687D01*
X691474Y201757D01*
X691336Y201826D01*
X691173Y201896D01*
X690803Y202011D01*
X690780D01*
X690734Y202034D01*
X690641D01*
X690526Y202057D01*
X690364Y202081D01*
X690179D01*
X689924Y202104D01*
X687194D01*
Y195000D01*
X685065D01*
Y211012D01*
X692492D01*
X692678Y210989D01*
D02*
G37*
G36*
X674629Y196897D02*
X682519D01*
Y195000D01*
X672500D01*
Y211012D01*
X674629D01*
Y196897D01*
D02*
G37*
G36*
X803122Y211059D02*
X803423Y211012D01*
X803770Y210943D01*
X804140Y210851D01*
X804533Y210735D01*
X804904Y210550D01*
X804927D01*
X804950Y210527D01*
X805066Y210457D01*
X805251Y210341D01*
X805482Y210180D01*
X805737Y209948D01*
X806014Y209694D01*
X806269Y209393D01*
X806523Y209046D01*
X806546Y208999D01*
X806639Y208884D01*
X806732Y208675D01*
X806894Y208375D01*
X807032Y208027D01*
X807218Y207634D01*
X807380Y207171D01*
X807518Y206662D01*
Y206639D01*
X807542Y206593D01*
X807565Y206523D01*
X807588Y206408D01*
X807611Y206269D01*
X807634Y206107D01*
X807680Y205899D01*
X807703Y205667D01*
X807750Y205413D01*
X807773Y205135D01*
X807796Y204811D01*
X807842Y204487D01*
X807866Y204117D01*
Y203747D01*
X807889Y203330D01*
Y202891D01*
Y202867D01*
Y202775D01*
Y202613D01*
Y202428D01*
X807866Y202173D01*
Y201896D01*
X807842Y201595D01*
X807819Y201271D01*
X807750Y200530D01*
X807634Y199767D01*
X807495Y199026D01*
X807403Y198679D01*
X807287Y198332D01*
Y198309D01*
X807264Y198263D01*
X807218Y198170D01*
X807171Y198054D01*
X807125Y197892D01*
X807032Y197731D01*
X806847Y197337D01*
X806616Y196921D01*
X806315Y196458D01*
X805968Y196041D01*
X805552Y195648D01*
X805528D01*
X805505Y195602D01*
X805436Y195555D01*
X805343Y195509D01*
X805228Y195440D01*
X805112Y195347D01*
X804765Y195185D01*
X804348Y195023D01*
X803862Y194861D01*
X803284Y194769D01*
X802659Y194722D01*
X802428D01*
X802266Y194746D01*
X802081Y194769D01*
X801849Y194815D01*
X801595Y194861D01*
X801317Y194931D01*
X801039Y195023D01*
X800739Y195116D01*
X800438Y195254D01*
X800137Y195417D01*
X799836Y195602D01*
X799535Y195833D01*
X799258Y196088D01*
X799003Y196365D01*
X798980Y196388D01*
X798934Y196458D01*
X798864Y196574D01*
X798749Y196759D01*
X798633Y196967D01*
X798517Y197244D01*
X798355Y197568D01*
X798216Y197939D01*
X798077Y198355D01*
X797939Y198841D01*
X797800Y199373D01*
X797684Y199975D01*
X797569Y200623D01*
X797499Y201317D01*
X797453Y202081D01*
X797430Y202891D01*
Y202914D01*
Y203006D01*
Y203168D01*
Y203353D01*
X797453Y203608D01*
Y203885D01*
X797476Y204186D01*
X797499Y204533D01*
X797569Y205251D01*
X797684Y206014D01*
X797823Y206778D01*
X797915Y207125D01*
X798008Y207472D01*
Y207495D01*
X798031Y207542D01*
X798077Y207634D01*
X798124Y207750D01*
X798170Y207912D01*
X798263Y208074D01*
X798448Y208467D01*
X798679Y208884D01*
X798980Y209323D01*
X799327Y209763D01*
X799744Y210133D01*
X799767D01*
X799790Y210180D01*
X799859Y210226D01*
X799952Y210272D01*
X800068Y210365D01*
X800206Y210434D01*
X800553Y210619D01*
X800970Y210781D01*
X801456Y210943D01*
X802034Y211036D01*
X802659Y211082D01*
X802867D01*
X803122Y211059D01*
D02*
G37*
G36*
X712138Y190557D02*
X699110D01*
Y191969D01*
X712138D01*
Y190557D01*
D02*
G37*
G36*
X727478Y185517D02*
X727626D01*
X727978Y185480D01*
X728367Y185425D01*
X728774Y185332D01*
X729219Y185221D01*
X729645Y185073D01*
X729663D01*
X729700Y185054D01*
X729756Y185036D01*
X729830Y184999D01*
X730033Y184888D01*
X730293Y184758D01*
X730570Y184573D01*
X730867Y184351D01*
X731144Y184110D01*
X731404Y183814D01*
X731441Y183777D01*
X731515Y183666D01*
X731626Y183499D01*
X731774Y183258D01*
X731922Y182962D01*
X732089Y182592D01*
X732255Y182184D01*
X732385Y181721D01*
X730848Y181314D01*
Y181332D01*
X730830Y181351D01*
X730811Y181406D01*
X730793Y181481D01*
X730737Y181647D01*
X730663Y181869D01*
X730552Y182129D01*
X730422Y182369D01*
X730293Y182629D01*
X730126Y182851D01*
X730107Y182869D01*
X730052Y182943D01*
X729941Y183036D01*
X729811Y183166D01*
X729645Y183314D01*
X729422Y183462D01*
X729182Y183610D01*
X728904Y183740D01*
X728867Y183758D01*
X728774Y183795D01*
X728608Y183851D01*
X728385Y183925D01*
X728126Y183980D01*
X727830Y184036D01*
X727497Y184073D01*
X727145Y184091D01*
X726941D01*
X726849Y184073D01*
X726738D01*
X726460Y184054D01*
X726145Y183999D01*
X725793Y183943D01*
X725460Y183851D01*
X725126Y183721D01*
X725089Y183703D01*
X724978Y183666D01*
X724830Y183573D01*
X724645Y183480D01*
X724423Y183332D01*
X724182Y183184D01*
X723960Y182999D01*
X723756Y182795D01*
X723738Y182777D01*
X723664Y182703D01*
X723571Y182573D01*
X723460Y182425D01*
X723330Y182240D01*
X723201Y182017D01*
X723071Y181777D01*
X722942Y181518D01*
Y181499D01*
X722923Y181462D01*
X722905Y181406D01*
X722868Y181314D01*
X722831Y181203D01*
X722793Y181073D01*
X722738Y180925D01*
X722701Y180758D01*
X722608Y180370D01*
X722534Y179925D01*
X722479Y179462D01*
X722460Y178944D01*
Y178925D01*
Y178870D01*
Y178777D01*
X722479Y178666D01*
Y178518D01*
X722497Y178333D01*
X722516Y178148D01*
X722534Y177944D01*
X722608Y177481D01*
X722701Y176999D01*
X722849Y176518D01*
X723034Y176055D01*
Y176037D01*
X723071Y176000D01*
X723090Y175944D01*
X723145Y175870D01*
X723275Y175666D01*
X723478Y175407D01*
X723719Y175129D01*
X724016Y174852D01*
X724367Y174592D01*
X724756Y174352D01*
X724775D01*
X724812Y174333D01*
X724867Y174296D01*
X724960Y174259D01*
X725052Y174222D01*
X725182Y174185D01*
X725478Y174074D01*
X725849Y173981D01*
X726256Y173889D01*
X726700Y173815D01*
X727163Y173796D01*
X727348D01*
X727460Y173815D01*
X727571D01*
X727849Y173852D01*
X728182Y173889D01*
X728534Y173963D01*
X728922Y174074D01*
X729311Y174203D01*
X729330D01*
X729367Y174222D01*
X729404Y174241D01*
X729478Y174278D01*
X729682Y174370D01*
X729904Y174481D01*
X730163Y174611D01*
X730441Y174759D01*
X730700Y174926D01*
X730922Y175111D01*
Y177518D01*
X727145D01*
Y179036D01*
X732589D01*
Y174278D01*
X732570Y174259D01*
X732533Y174241D01*
X732459Y174185D01*
X732366Y174111D01*
X732255Y174037D01*
X732126Y173944D01*
X731959Y173833D01*
X731793Y173722D01*
X731404Y173481D01*
X730959Y173222D01*
X730496Y172981D01*
X729996Y172778D01*
X729978D01*
X729941Y172759D01*
X729867Y172741D01*
X729774Y172704D01*
X729645Y172667D01*
X729496Y172611D01*
X729330Y172574D01*
X729163Y172537D01*
X728756Y172444D01*
X728293Y172352D01*
X727793Y172296D01*
X727274Y172278D01*
X727089D01*
X726960Y172296D01*
X726793D01*
X726589Y172315D01*
X726367Y172352D01*
X726126Y172370D01*
X725589Y172481D01*
X725015Y172611D01*
X724423Y172815D01*
X724127Y172926D01*
X723830Y173074D01*
X723812Y173092D01*
X723756Y173111D01*
X723682Y173167D01*
X723571Y173222D01*
X723441Y173315D01*
X723312Y173407D01*
X722960Y173667D01*
X722590Y174000D01*
X722201Y174407D01*
X721831Y174870D01*
X721497Y175407D01*
Y175426D01*
X721460Y175481D01*
X721423Y175555D01*
X721368Y175685D01*
X721312Y175814D01*
X721256Y176000D01*
X721182Y176185D01*
X721108Y176407D01*
X721034Y176648D01*
X720960Y176926D01*
X720905Y177203D01*
X720849Y177500D01*
X720757Y178148D01*
X720720Y178833D01*
Y178851D01*
Y178925D01*
Y179018D01*
X720738Y179147D01*
Y179314D01*
X720757Y179518D01*
X720794Y179722D01*
X720812Y179962D01*
X720868Y180221D01*
X720905Y180499D01*
X721053Y181092D01*
X721238Y181703D01*
X721497Y182314D01*
X721516Y182332D01*
X721534Y182388D01*
X721571Y182462D01*
X721645Y182573D01*
X721720Y182721D01*
X721812Y182869D01*
X722071Y183221D01*
X722386Y183629D01*
X722775Y184017D01*
X723219Y184406D01*
X723478Y184573D01*
X723738Y184739D01*
X723756Y184758D01*
X723812Y184776D01*
X723886Y184813D01*
X723997Y184869D01*
X724145Y184925D01*
X724312Y184999D01*
X724497Y185073D01*
X724719Y185147D01*
X724960Y185221D01*
X725219Y185277D01*
X725497Y185350D01*
X725793Y185406D01*
X726441Y185499D01*
X726775Y185536D01*
X727367D01*
X727478Y185517D01*
D02*
G37*
G36*
X705073Y181980D02*
X705184D01*
X705332Y181962D01*
X705684Y181906D01*
X706073Y181814D01*
X706480Y181666D01*
X706888Y181481D01*
X707277Y181221D01*
X707295D01*
X707314Y181184D01*
X707425Y181073D01*
X707591Y180907D01*
X707795Y180666D01*
X707999Y180370D01*
X708202Y179999D01*
X708388Y179573D01*
X708517Y179073D01*
X706980Y178833D01*
Y178851D01*
X706962Y178870D01*
X706943Y178981D01*
X706888Y179147D01*
X706795Y179351D01*
X706702Y179573D01*
X706554Y179814D01*
X706388Y180036D01*
X706202Y180221D01*
X706184Y180240D01*
X706110Y180296D01*
X705980Y180370D01*
X705832Y180462D01*
X705629Y180555D01*
X705406Y180629D01*
X705147Y180684D01*
X704869Y180703D01*
X704758D01*
X704666Y180684D01*
X704462Y180666D01*
X704184Y180592D01*
X703888Y180499D01*
X703555Y180351D01*
X703240Y180129D01*
X703092Y179999D01*
X702944Y179851D01*
Y179833D01*
X702907Y179814D01*
X702870Y179758D01*
X702832Y179685D01*
X702777Y179592D01*
X702703Y179481D01*
X702647Y179351D01*
X702573Y179203D01*
X702499Y179018D01*
X702444Y178814D01*
X702370Y178592D01*
X702314Y178351D01*
X702277Y178092D01*
X702240Y177796D01*
X702203Y177481D01*
Y177148D01*
Y177129D01*
Y177074D01*
Y176963D01*
X702222Y176851D01*
Y176685D01*
X702240Y176518D01*
X702296Y176111D01*
X702370Y175666D01*
X702499Y175203D01*
X702666Y174796D01*
X702777Y174592D01*
X702907Y174426D01*
X702944Y174389D01*
X703036Y174296D01*
X703203Y174167D01*
X703407Y174018D01*
X703684Y173852D01*
X703999Y173722D01*
X704369Y173629D01*
X704573Y173611D01*
X704777Y173592D01*
X704814D01*
X704925Y173611D01*
X705110Y173629D01*
X705314Y173667D01*
X705555Y173722D01*
X705814Y173833D01*
X706073Y173963D01*
X706314Y174148D01*
X706351Y174167D01*
X706406Y174259D01*
X706517Y174389D01*
X706647Y174592D01*
X706777Y174833D01*
X706925Y175129D01*
X707036Y175500D01*
X707110Y175907D01*
X708665Y175703D01*
Y175685D01*
X708647Y175629D01*
X708628Y175555D01*
X708610Y175444D01*
X708573Y175296D01*
X708536Y175148D01*
X708406Y174778D01*
X708239Y174389D01*
X707999Y173963D01*
X707702Y173556D01*
X707536Y173370D01*
X707351Y173185D01*
X707332Y173167D01*
X707295Y173148D01*
X707240Y173111D01*
X707165Y173055D01*
X707073Y172981D01*
X706943Y172907D01*
X706795Y172833D01*
X706647Y172741D01*
X706277Y172574D01*
X705832Y172444D01*
X705351Y172333D01*
X705073Y172315D01*
X704795Y172296D01*
X704610D01*
X704481Y172315D01*
X704314Y172333D01*
X704129Y172370D01*
X703925Y172407D01*
X703703Y172444D01*
X703203Y172593D01*
X702962Y172704D01*
X702703Y172815D01*
X702444Y172963D01*
X702203Y173130D01*
X701962Y173315D01*
X701740Y173537D01*
X701721Y173556D01*
X701684Y173592D01*
X701629Y173667D01*
X701555Y173759D01*
X701481Y173889D01*
X701370Y174055D01*
X701277Y174241D01*
X701166Y174444D01*
X701055Y174685D01*
X700962Y174963D01*
X700851Y175240D01*
X700777Y175574D01*
X700703Y175907D01*
X700648Y176296D01*
X700611Y176685D01*
X700592Y177111D01*
Y177129D01*
Y177185D01*
Y177259D01*
Y177370D01*
X700611Y177500D01*
Y177648D01*
X700629Y177814D01*
X700648Y177999D01*
X700703Y178407D01*
X700796Y178851D01*
X700907Y179296D01*
X701074Y179740D01*
Y179758D01*
X701092Y179796D01*
X701129Y179851D01*
X701166Y179925D01*
X701277Y180129D01*
X701444Y180370D01*
X701666Y180647D01*
X701925Y180925D01*
X702240Y181203D01*
X702592Y181425D01*
X702610D01*
X702647Y181444D01*
X702703Y181481D01*
X702777Y181518D01*
X702870Y181555D01*
X702981Y181610D01*
X703258Y181721D01*
X703573Y181814D01*
X703962Y181906D01*
X704369Y181980D01*
X704814Y181999D01*
X704962D01*
X705073Y181980D01*
D02*
G37*
G36*
X797823Y177018D02*
X799563D01*
Y175574D01*
X797823D01*
Y172500D01*
X796249D01*
Y175574D01*
X790675D01*
Y177018D01*
X796545Y185313D01*
X797823D01*
Y177018D01*
D02*
G37*
G36*
X785805Y185350D02*
X785954Y185332D01*
X786139Y185313D01*
X786342Y185277D01*
X786546Y185239D01*
X787028Y185110D01*
X787509Y184925D01*
X787750Y184813D01*
X787990Y184684D01*
X788213Y184517D01*
X788416Y184332D01*
X788435Y184314D01*
X788472Y184295D01*
X788509Y184221D01*
X788583Y184147D01*
X788676Y184054D01*
X788768Y183925D01*
X788861Y183795D01*
X788972Y183629D01*
X789157Y183277D01*
X789342Y182832D01*
X789416Y182610D01*
X789453Y182351D01*
X789490Y182092D01*
X789509Y181814D01*
Y181777D01*
Y181684D01*
X789490Y181536D01*
X789472Y181332D01*
X789435Y181110D01*
X789361Y180851D01*
X789286Y180573D01*
X789175Y180296D01*
X789157Y180259D01*
X789120Y180166D01*
X789046Y180018D01*
X788935Y179814D01*
X788787Y179592D01*
X788601Y179314D01*
X788379Y179036D01*
X788120Y178722D01*
X788083Y178685D01*
X787990Y178573D01*
X787898Y178481D01*
X787805Y178388D01*
X787694Y178277D01*
X787546Y178129D01*
X787398Y177981D01*
X787213Y177814D01*
X787028Y177629D01*
X786805Y177425D01*
X786565Y177222D01*
X786305Y176981D01*
X786009Y176740D01*
X785713Y176481D01*
X785694Y176463D01*
X785657Y176425D01*
X785583Y176370D01*
X785491Y176296D01*
X785379Y176185D01*
X785250Y176074D01*
X784954Y175833D01*
X784639Y175555D01*
X784343Y175278D01*
X784083Y175037D01*
X783972Y174944D01*
X783880Y174852D01*
X783861Y174833D01*
X783806Y174778D01*
X783732Y174704D01*
X783639Y174592D01*
X783546Y174463D01*
X783435Y174333D01*
X783213Y174018D01*
X789527D01*
Y172500D01*
X781028D01*
Y172519D01*
Y172593D01*
Y172704D01*
X781047Y172852D01*
X781065Y173018D01*
X781102Y173204D01*
X781139Y173389D01*
X781213Y173592D01*
Y173611D01*
X781232Y173629D01*
X781269Y173741D01*
X781343Y173907D01*
X781454Y174130D01*
X781602Y174389D01*
X781787Y174685D01*
X781991Y174981D01*
X782250Y175296D01*
Y175315D01*
X782287Y175333D01*
X782380Y175444D01*
X782546Y175611D01*
X782787Y175851D01*
X783065Y176129D01*
X783417Y176463D01*
X783843Y176833D01*
X784306Y177222D01*
X784324Y177240D01*
X784398Y177296D01*
X784509Y177388D01*
X784639Y177500D01*
X784806Y177648D01*
X785009Y177814D01*
X785213Y177999D01*
X785454Y178203D01*
X785917Y178647D01*
X786379Y179092D01*
X786602Y179314D01*
X786805Y179536D01*
X786991Y179740D01*
X787139Y179944D01*
Y179962D01*
X787176Y179981D01*
X787213Y180036D01*
X787250Y180110D01*
X787379Y180314D01*
X787527Y180555D01*
X787657Y180851D01*
X787787Y181166D01*
X787861Y181518D01*
X787898Y181851D01*
Y181869D01*
Y181888D01*
X787879Y181999D01*
X787861Y182184D01*
X787805Y182388D01*
X787731Y182647D01*
X787601Y182906D01*
X787435Y183166D01*
X787213Y183425D01*
X787176Y183462D01*
X787083Y183536D01*
X786953Y183629D01*
X786750Y183758D01*
X786490Y183869D01*
X786194Y183980D01*
X785842Y184054D01*
X785454Y184073D01*
X785342D01*
X785268Y184054D01*
X785046Y184036D01*
X784787Y183980D01*
X784509Y183906D01*
X784194Y183777D01*
X783898Y183610D01*
X783621Y183388D01*
X783583Y183351D01*
X783509Y183258D01*
X783398Y183110D01*
X783287Y182888D01*
X783158Y182629D01*
X783046Y182295D01*
X782972Y181925D01*
X782935Y181499D01*
X781324Y181666D01*
Y181684D01*
X781343Y181740D01*
Y181832D01*
X781361Y181962D01*
X781398Y182110D01*
X781435Y182277D01*
X781491Y182481D01*
X781547Y182684D01*
X781695Y183129D01*
X781917Y183573D01*
X782047Y183795D01*
X782213Y184017D01*
X782380Y184221D01*
X782565Y184406D01*
X782583Y184425D01*
X782621Y184443D01*
X782676Y184499D01*
X782769Y184554D01*
X782880Y184628D01*
X783009Y184702D01*
X783158Y184795D01*
X783343Y184888D01*
X783546Y184980D01*
X783769Y185073D01*
X784009Y185147D01*
X784268Y185221D01*
X784546Y185277D01*
X784843Y185332D01*
X785157Y185350D01*
X785491Y185369D01*
X785676D01*
X785805Y185350D01*
D02*
G37*
G36*
X765882D02*
X766030Y185332D01*
X766215Y185313D01*
X766419Y185277D01*
X766622Y185239D01*
X767104Y185110D01*
X767585Y184925D01*
X767826Y184813D01*
X768066Y184684D01*
X768289Y184517D01*
X768492Y184332D01*
X768511Y184314D01*
X768548Y184295D01*
X768585Y184221D01*
X768659Y184147D01*
X768752Y184054D01*
X768844Y183925D01*
X768937Y183795D01*
X769048Y183629D01*
X769233Y183277D01*
X769418Y182832D01*
X769492Y182610D01*
X769529Y182351D01*
X769566Y182092D01*
X769585Y181814D01*
Y181777D01*
Y181684D01*
X769566Y181536D01*
X769548Y181332D01*
X769511Y181110D01*
X769437Y180851D01*
X769363Y180573D01*
X769252Y180296D01*
X769233Y180259D01*
X769196Y180166D01*
X769122Y180018D01*
X769011Y179814D01*
X768863Y179592D01*
X768678Y179314D01*
X768455Y179036D01*
X768196Y178722D01*
X768159Y178685D01*
X768066Y178573D01*
X767974Y178481D01*
X767881Y178388D01*
X767770Y178277D01*
X767622Y178129D01*
X767474Y177981D01*
X767289Y177814D01*
X767104Y177629D01*
X766881Y177425D01*
X766641Y177222D01*
X766382Y176981D01*
X766085Y176740D01*
X765789Y176481D01*
X765770Y176463D01*
X765733Y176425D01*
X765659Y176370D01*
X765567Y176296D01*
X765456Y176185D01*
X765326Y176074D01*
X765030Y175833D01*
X764715Y175555D01*
X764419Y175278D01*
X764159Y175037D01*
X764048Y174944D01*
X763956Y174852D01*
X763937Y174833D01*
X763882Y174778D01*
X763808Y174704D01*
X763715Y174592D01*
X763623Y174463D01*
X763511Y174333D01*
X763289Y174018D01*
X769603D01*
Y172500D01*
X761104D01*
Y172519D01*
Y172593D01*
Y172704D01*
X761123Y172852D01*
X761141Y173018D01*
X761178Y173204D01*
X761215Y173389D01*
X761289Y173592D01*
Y173611D01*
X761308Y173629D01*
X761345Y173741D01*
X761419Y173907D01*
X761530Y174130D01*
X761678Y174389D01*
X761863Y174685D01*
X762067Y174981D01*
X762326Y175296D01*
Y175315D01*
X762363Y175333D01*
X762456Y175444D01*
X762623Y175611D01*
X762863Y175851D01*
X763141Y176129D01*
X763493Y176463D01*
X763919Y176833D01*
X764382Y177222D01*
X764400Y177240D01*
X764474Y177296D01*
X764585Y177388D01*
X764715Y177500D01*
X764882Y177648D01*
X765085Y177814D01*
X765289Y177999D01*
X765530Y178203D01*
X765993Y178647D01*
X766456Y179092D01*
X766678Y179314D01*
X766881Y179536D01*
X767067Y179740D01*
X767215Y179944D01*
Y179962D01*
X767252Y179981D01*
X767289Y180036D01*
X767326Y180110D01*
X767456Y180314D01*
X767604Y180555D01*
X767733Y180851D01*
X767863Y181166D01*
X767937Y181518D01*
X767974Y181851D01*
Y181869D01*
Y181888D01*
X767955Y181999D01*
X767937Y182184D01*
X767881Y182388D01*
X767807Y182647D01*
X767678Y182906D01*
X767511Y183166D01*
X767289Y183425D01*
X767252Y183462D01*
X767159Y183536D01*
X767030Y183629D01*
X766826Y183758D01*
X766567Y183869D01*
X766270Y183980D01*
X765919Y184054D01*
X765530Y184073D01*
X765419D01*
X765345Y184054D01*
X765122Y184036D01*
X764863Y183980D01*
X764585Y183906D01*
X764271Y183777D01*
X763974Y183610D01*
X763697Y183388D01*
X763660Y183351D01*
X763586Y183258D01*
X763474Y183110D01*
X763363Y182888D01*
X763234Y182629D01*
X763123Y182295D01*
X763048Y181925D01*
X763011Y181499D01*
X761401Y181666D01*
Y181684D01*
X761419Y181740D01*
Y181832D01*
X761438Y181962D01*
X761475Y182110D01*
X761512Y182277D01*
X761567Y182481D01*
X761623Y182684D01*
X761771Y183129D01*
X761993Y183573D01*
X762123Y183795D01*
X762289Y184017D01*
X762456Y184221D01*
X762641Y184406D01*
X762660Y184425D01*
X762697Y184443D01*
X762752Y184499D01*
X762845Y184554D01*
X762956Y184628D01*
X763085Y184702D01*
X763234Y184795D01*
X763419Y184888D01*
X763623Y184980D01*
X763845Y185073D01*
X764085Y185147D01*
X764345Y185221D01*
X764622Y185277D01*
X764919Y185332D01*
X765234Y185350D01*
X765567Y185369D01*
X765752D01*
X765882Y185350D01*
D02*
G37*
G36*
X748661Y174018D02*
X754975D01*
Y172500D01*
X746958D01*
Y185313D01*
X748661D01*
Y174018D01*
D02*
G37*
G36*
X740181Y185295D02*
X740329D01*
X740662Y185258D01*
X741032Y185221D01*
X741421Y185147D01*
X741810Y185054D01*
X742162Y184925D01*
X742180D01*
X742199Y184906D01*
X742310Y184851D01*
X742477Y184758D01*
X742662Y184628D01*
X742884Y184462D01*
X743125Y184258D01*
X743347Y183999D01*
X743550Y183721D01*
X743569Y183684D01*
X743625Y183573D01*
X743717Y183425D01*
X743810Y183203D01*
X743902Y182943D01*
X743995Y182666D01*
X744051Y182351D01*
X744069Y182036D01*
Y181999D01*
Y181906D01*
X744051Y181740D01*
X744013Y181536D01*
X743958Y181295D01*
X743865Y181036D01*
X743754Y180777D01*
X743606Y180499D01*
X743588Y180462D01*
X743532Y180388D01*
X743421Y180240D01*
X743273Y180092D01*
X743088Y179907D01*
X742865Y179703D01*
X742588Y179518D01*
X742273Y179333D01*
X742291D01*
X742328Y179314D01*
X742384Y179296D01*
X742458Y179259D01*
X742680Y179184D01*
X742940Y179055D01*
X743217Y178888D01*
X743532Y178685D01*
X743810Y178444D01*
X744069Y178148D01*
X744088Y178111D01*
X744162Y177999D01*
X744273Y177833D01*
X744384Y177611D01*
X744495Y177314D01*
X744606Y176999D01*
X744680Y176629D01*
X744699Y176222D01*
Y176203D01*
Y176185D01*
Y176074D01*
X744680Y175889D01*
X744643Y175666D01*
X744606Y175407D01*
X744532Y175129D01*
X744439Y174833D01*
X744310Y174537D01*
X744291Y174500D01*
X744236Y174407D01*
X744162Y174278D01*
X744051Y174092D01*
X743902Y173907D01*
X743754Y173704D01*
X743569Y173500D01*
X743365Y173333D01*
X743347Y173315D01*
X743273Y173259D01*
X743143Y173185D01*
X742977Y173111D01*
X742773Y173000D01*
X742532Y172889D01*
X742273Y172796D01*
X741958Y172704D01*
X741921D01*
X741810Y172667D01*
X741625Y172648D01*
X741384Y172611D01*
X741088Y172574D01*
X740736Y172537D01*
X740347Y172519D01*
X739903Y172500D01*
X735014D01*
Y185313D01*
X740051D01*
X740181Y185295D01*
D02*
G37*
G36*
X775844Y185350D02*
X776084Y185313D01*
X776362Y185258D01*
X776658Y185184D01*
X776973Y185091D01*
X777269Y184943D01*
X777288D01*
X777306Y184925D01*
X777399Y184869D01*
X777547Y184776D01*
X777732Y184647D01*
X777936Y184462D01*
X778158Y184258D01*
X778362Y184017D01*
X778565Y183740D01*
X778584Y183703D01*
X778658Y183610D01*
X778732Y183443D01*
X778862Y183203D01*
X778973Y182925D01*
X779121Y182610D01*
X779250Y182240D01*
X779362Y181832D01*
Y181814D01*
X779380Y181777D01*
X779399Y181721D01*
X779417Y181629D01*
X779436Y181518D01*
X779454Y181388D01*
X779491Y181221D01*
X779510Y181036D01*
X779547Y180833D01*
X779565Y180610D01*
X779584Y180351D01*
X779621Y180092D01*
X779639Y179796D01*
Y179499D01*
X779658Y179166D01*
Y178814D01*
Y178796D01*
Y178722D01*
Y178592D01*
Y178444D01*
X779639Y178240D01*
Y178018D01*
X779621Y177777D01*
X779602Y177518D01*
X779547Y176926D01*
X779454Y176314D01*
X779343Y175722D01*
X779269Y175444D01*
X779176Y175166D01*
Y175148D01*
X779158Y175111D01*
X779121Y175037D01*
X779084Y174944D01*
X779047Y174815D01*
X778973Y174685D01*
X778825Y174370D01*
X778640Y174037D01*
X778399Y173667D01*
X778121Y173333D01*
X777788Y173018D01*
X777769D01*
X777751Y172981D01*
X777695Y172944D01*
X777621Y172907D01*
X777529Y172852D01*
X777436Y172778D01*
X777158Y172648D01*
X776825Y172519D01*
X776436Y172389D01*
X775973Y172315D01*
X775473Y172278D01*
X775288D01*
X775158Y172296D01*
X775010Y172315D01*
X774825Y172352D01*
X774621Y172389D01*
X774399Y172444D01*
X774177Y172519D01*
X773936Y172593D01*
X773696Y172704D01*
X773455Y172833D01*
X773214Y172981D01*
X772973Y173167D01*
X772751Y173370D01*
X772548Y173592D01*
X772529Y173611D01*
X772492Y173667D01*
X772436Y173759D01*
X772344Y173907D01*
X772251Y174074D01*
X772159Y174296D01*
X772029Y174555D01*
X771918Y174852D01*
X771807Y175185D01*
X771696Y175574D01*
X771585Y176000D01*
X771492Y176481D01*
X771400Y176999D01*
X771344Y177555D01*
X771307Y178166D01*
X771288Y178814D01*
Y178833D01*
Y178907D01*
Y179036D01*
Y179184D01*
X771307Y179388D01*
Y179610D01*
X771325Y179851D01*
X771344Y180129D01*
X771400Y180703D01*
X771492Y181314D01*
X771603Y181925D01*
X771677Y182203D01*
X771751Y182481D01*
Y182499D01*
X771770Y182536D01*
X771807Y182610D01*
X771844Y182703D01*
X771881Y182832D01*
X771955Y182962D01*
X772103Y183277D01*
X772288Y183610D01*
X772529Y183962D01*
X772807Y184314D01*
X773140Y184610D01*
X773159D01*
X773177Y184647D01*
X773233Y184684D01*
X773307Y184721D01*
X773399Y184795D01*
X773510Y184851D01*
X773788Y184999D01*
X774121Y185128D01*
X774510Y185258D01*
X774973Y185332D01*
X775473Y185369D01*
X775640D01*
X775844Y185350D01*
D02*
G37*
G36*
X711072Y185517D02*
X711128Y185443D01*
X711202Y185313D01*
X711313Y185165D01*
X711461Y184962D01*
X711609Y184721D01*
X711776Y184462D01*
X711961Y184165D01*
X712165Y183832D01*
X712350Y183480D01*
X712554Y183129D01*
X712757Y182740D01*
X713128Y181943D01*
X713313Y181518D01*
X713461Y181110D01*
Y181092D01*
X713498Y181018D01*
X713517Y180925D01*
X713572Y180777D01*
X713628Y180610D01*
X713683Y180407D01*
X713739Y180166D01*
X713813Y179907D01*
X713868Y179610D01*
X713924Y179296D01*
X713979Y178981D01*
X714035Y178629D01*
X714109Y177888D01*
X714146Y177129D01*
Y177111D01*
Y177018D01*
Y176888D01*
X714128Y176722D01*
Y176518D01*
X714091Y176259D01*
X714072Y175981D01*
X714035Y175666D01*
X713979Y175333D01*
X713924Y174963D01*
X713757Y174203D01*
X713665Y173796D01*
X713535Y173389D01*
X713406Y172963D01*
X713239Y172556D01*
X713220Y172537D01*
X713202Y172463D01*
X713146Y172352D01*
X713072Y172185D01*
X712998Y172000D01*
X712887Y171778D01*
X712757Y171537D01*
X712628Y171259D01*
X712480Y170963D01*
X712313Y170667D01*
X711943Y170019D01*
X711517Y169352D01*
X711054Y168723D01*
X709924D01*
Y168741D01*
X709961Y168778D01*
X709998Y168834D01*
X710035Y168908D01*
X710091Y169019D01*
X710165Y169130D01*
X710239Y169278D01*
X710332Y169445D01*
X710535Y169815D01*
X710758Y170278D01*
X710980Y170778D01*
X711239Y171352D01*
X711480Y171963D01*
X711702Y172611D01*
X711924Y173315D01*
X712128Y174037D01*
X712294Y174778D01*
X712424Y175555D01*
X712498Y176333D01*
X712535Y177129D01*
Y177148D01*
Y177203D01*
Y177296D01*
Y177407D01*
X712517Y177555D01*
Y177740D01*
X712498Y177925D01*
X712480Y178148D01*
X712461Y178388D01*
X712443Y178647D01*
X712369Y179184D01*
X712276Y179777D01*
X712146Y180388D01*
Y180407D01*
X712128Y180444D01*
X712109Y180518D01*
X712091Y180610D01*
X712054Y180721D01*
X712017Y180870D01*
X711924Y181203D01*
X711813Y181573D01*
X711665Y181999D01*
X711498Y182462D01*
X711313Y182906D01*
Y182925D01*
X711295Y182943D01*
X711276Y182999D01*
X711239Y183055D01*
X711202Y183147D01*
X711146Y183258D01*
X711091Y183369D01*
X711017Y183536D01*
X710924Y183703D01*
X710832Y183888D01*
X710721Y184110D01*
X710591Y184351D01*
X710443Y184610D01*
X710295Y184888D01*
X710110Y185202D01*
X709924Y185536D01*
X711054D01*
X711072Y185517D01*
D02*
G37*
G36*
X699203D02*
X699185Y185462D01*
X699129Y185369D01*
X699055Y185239D01*
X698963Y185091D01*
X698870Y184906D01*
X698648Y184517D01*
X698407Y184091D01*
X698185Y183666D01*
X697963Y183258D01*
X697889Y183092D01*
X697814Y182925D01*
Y182906D01*
X697796Y182869D01*
X697759Y182814D01*
X697722Y182721D01*
X697685Y182610D01*
X697629Y182481D01*
X697574Y182332D01*
X697518Y182166D01*
X697370Y181777D01*
X697241Y181351D01*
X697111Y180888D01*
X696981Y180407D01*
Y180388D01*
X696963Y180333D01*
X696944Y180240D01*
X696926Y180129D01*
X696889Y179981D01*
X696870Y179796D01*
X696833Y179610D01*
X696796Y179388D01*
X696759Y179147D01*
X696722Y178888D01*
X696666Y178333D01*
X696629Y177740D01*
X696611Y177129D01*
Y177111D01*
Y177074D01*
Y177018D01*
Y176944D01*
X696629Y176833D01*
Y176722D01*
X696648Y176574D01*
Y176407D01*
X696685Y176018D01*
X696741Y175574D01*
X696833Y175055D01*
X696944Y174500D01*
X697074Y173889D01*
X697241Y173222D01*
X697463Y172519D01*
X697722Y171796D01*
X698018Y171056D01*
X698352Y170278D01*
X698759Y169500D01*
X699222Y168723D01*
X698092D01*
X698074Y168741D01*
X698037Y168797D01*
X697963Y168889D01*
X697870Y169019D01*
X697759Y169167D01*
X697629Y169352D01*
X697481Y169574D01*
X697333Y169815D01*
X697148Y170093D01*
X696981Y170389D01*
X696796Y170704D01*
X696611Y171037D01*
X696426Y171389D01*
X696241Y171759D01*
X695889Y172556D01*
X695870Y172574D01*
X695852Y172648D01*
X695815Y172778D01*
X695759Y172944D01*
X695685Y173148D01*
X695611Y173370D01*
X695537Y173648D01*
X695444Y173963D01*
X695370Y174278D01*
X695278Y174648D01*
X695204Y175018D01*
X695148Y175407D01*
X695037Y176259D01*
X695018Y176685D01*
X695000Y177129D01*
Y177148D01*
Y177222D01*
Y177333D01*
X695018Y177481D01*
Y177666D01*
X695037Y177888D01*
X695056Y178129D01*
X695093Y178407D01*
X695111Y178703D01*
X695167Y179018D01*
X695278Y179685D01*
X695444Y180388D01*
X695667Y181110D01*
X695685Y181129D01*
X695704Y181203D01*
X695741Y181332D01*
X695815Y181499D01*
X695889Y181684D01*
X696000Y181925D01*
X696130Y182203D01*
X696259Y182499D01*
X696426Y182814D01*
X696592Y183166D01*
X696796Y183536D01*
X697018Y183906D01*
X697259Y184314D01*
X697518Y184721D01*
X697796Y185128D01*
X698092Y185536D01*
X699222D01*
X699203Y185517D01*
D02*
G37*
%LPC*%
G36*
X692238Y209231D02*
X687194D01*
Y203932D01*
X691960D01*
X692238Y203955D01*
X692562Y203978D01*
X692932Y204001D01*
X693302Y204048D01*
X693673Y204117D01*
X693997Y204209D01*
X694043Y204233D01*
X694135Y204279D01*
X694274Y204348D01*
X694459Y204441D01*
X694668Y204580D01*
X694876Y204742D01*
X695084Y204950D01*
X695246Y205181D01*
X695269Y205205D01*
X695315Y205297D01*
X695385Y205436D01*
X695477Y205621D01*
X695547Y205829D01*
X695616Y206061D01*
X695663Y206338D01*
X695686Y206616D01*
Y206639D01*
Y206662D01*
X695663Y206801D01*
X695639Y207009D01*
X695593Y207287D01*
X695477Y207565D01*
X695339Y207889D01*
X695130Y208189D01*
X694853Y208490D01*
X694806Y208513D01*
X694691Y208606D01*
X694506Y208722D01*
X694205Y208860D01*
X693858Y208999D01*
X693395Y209115D01*
X692863Y209208D01*
X692238Y209231D01*
D02*
G37*
G36*
X802636Y209462D02*
X802497D01*
X802405Y209439D01*
X802150Y209393D01*
X801849Y209323D01*
X801502Y209184D01*
X801132Y208976D01*
X800947Y208837D01*
X800762Y208699D01*
X800600Y208513D01*
X800438Y208305D01*
Y208282D01*
X800391Y208236D01*
X800345Y208143D01*
X800276Y208027D01*
X800206Y207842D01*
X800114Y207634D01*
X800044Y207380D01*
X799952Y207079D01*
X799859Y206732D01*
X799767Y206338D01*
X799674Y205899D01*
X799605Y205413D01*
X799535Y204857D01*
X799489Y204256D01*
X799466Y203608D01*
X799443Y202891D01*
Y202844D01*
Y202729D01*
Y202520D01*
X799466Y202243D01*
Y201942D01*
X799489Y201572D01*
X799512Y201178D01*
X799558Y200762D01*
X799674Y199859D01*
X799744Y199420D01*
X799836Y199003D01*
X799929Y198610D01*
X800068Y198239D01*
X800206Y197916D01*
X800368Y197638D01*
Y197615D01*
X800415Y197592D01*
X800530Y197430D01*
X800739Y197221D01*
X800993Y196990D01*
X801340Y196759D01*
X801734Y196550D01*
X802173Y196388D01*
X802405Y196365D01*
X802659Y196342D01*
X802798D01*
X802890Y196365D01*
X803122Y196411D01*
X803446Y196504D01*
X803793Y196666D01*
X804186Y196897D01*
X804371Y197036D01*
X804557Y197221D01*
X804742Y197407D01*
X804927Y197638D01*
Y197661D01*
X804973Y197707D01*
X805019Y197777D01*
X805066Y197892D01*
X805158Y198054D01*
X805228Y198263D01*
X805320Y198494D01*
X805413Y198772D01*
X805482Y199119D01*
X805575Y199489D01*
X805667Y199929D01*
X805737Y200392D01*
X805783Y200947D01*
X805829Y201525D01*
X805875Y202173D01*
Y202891D01*
Y202914D01*
Y202937D01*
Y203053D01*
Y203261D01*
X805852Y203538D01*
Y203839D01*
X805829Y204209D01*
X805806Y204603D01*
X805760Y205042D01*
X805644Y205922D01*
X805575Y206362D01*
X805482Y206778D01*
X805390Y207171D01*
X805251Y207542D01*
X805112Y207866D01*
X804950Y208143D01*
Y208166D01*
X804904Y208190D01*
X804857Y208259D01*
X804788Y208351D01*
X804580Y208560D01*
X804325Y208814D01*
X803978Y209046D01*
X803585Y209254D01*
X803376Y209346D01*
X803145Y209416D01*
X802890Y209439D01*
X802636Y209462D01*
D02*
G37*
G36*
X796249Y182758D02*
X792212Y177018D01*
X796249D01*
Y182758D01*
D02*
G37*
G36*
X739755Y183795D02*
X736718D01*
Y179944D01*
X739866D01*
X740106Y179962D01*
X740366Y179981D01*
X740625Y179999D01*
X740884Y180036D01*
X741088Y180073D01*
X741125Y180092D01*
X741199Y180110D01*
X741310Y180166D01*
X741458Y180240D01*
X741606Y180314D01*
X741773Y180425D01*
X741940Y180573D01*
X742069Y180721D01*
X742088Y180740D01*
X742125Y180795D01*
X742180Y180907D01*
X742236Y181036D01*
X742291Y181184D01*
X742347Y181369D01*
X742384Y181592D01*
X742402Y181832D01*
Y181869D01*
Y181943D01*
X742384Y182055D01*
X742365Y182203D01*
X742328Y182388D01*
X742273Y182573D01*
X742199Y182758D01*
X742088Y182943D01*
X742069Y182962D01*
X742032Y183017D01*
X741958Y183110D01*
X741865Y183203D01*
X741736Y183314D01*
X741588Y183425D01*
X741403Y183536D01*
X741199Y183610D01*
X741180D01*
X741088Y183647D01*
X740958Y183666D01*
X740754Y183703D01*
X740477Y183740D01*
X740162Y183758D01*
X739755Y183795D01*
D02*
G37*
G36*
X740088Y178425D02*
X736718D01*
Y174018D01*
X740366D01*
X740754Y174037D01*
X740921Y174055D01*
X741069Y174074D01*
X741088D01*
X741162Y174092D01*
X741273Y174111D01*
X741403Y174148D01*
X741717Y174259D01*
X742032Y174407D01*
X742051Y174426D01*
X742106Y174463D01*
X742180Y174518D01*
X742273Y174592D01*
X742365Y174704D01*
X742495Y174815D01*
X742588Y174963D01*
X742699Y175129D01*
X742717Y175148D01*
X742736Y175203D01*
X742773Y175315D01*
X742828Y175444D01*
X742884Y175592D01*
X742921Y175777D01*
X742940Y176000D01*
X742958Y176222D01*
Y176259D01*
Y176333D01*
X742940Y176481D01*
X742903Y176648D01*
X742865Y176833D01*
X742791Y177037D01*
X742699Y177240D01*
X742569Y177444D01*
X742551Y177463D01*
X742495Y177537D01*
X742421Y177629D01*
X742310Y177740D01*
X742162Y177870D01*
X741977Y177999D01*
X741773Y178111D01*
X741532Y178203D01*
X741495Y178222D01*
X741421Y178240D01*
X741255Y178277D01*
X741051Y178314D01*
X740792Y178351D01*
X740477Y178388D01*
X740088Y178425D01*
D02*
G37*
G36*
X775455Y184073D02*
X775343D01*
X775269Y184054D01*
X775066Y184017D01*
X774825Y183962D01*
X774547Y183851D01*
X774251Y183684D01*
X774103Y183573D01*
X773955Y183462D01*
X773825Y183314D01*
X773696Y183147D01*
Y183129D01*
X773659Y183092D01*
X773622Y183017D01*
X773566Y182925D01*
X773510Y182777D01*
X773436Y182610D01*
X773381Y182406D01*
X773307Y182166D01*
X773233Y181888D01*
X773159Y181573D01*
X773084Y181221D01*
X773029Y180833D01*
X772973Y180388D01*
X772936Y179907D01*
X772918Y179388D01*
X772899Y178814D01*
Y178777D01*
Y178685D01*
Y178518D01*
X772918Y178296D01*
Y178055D01*
X772936Y177759D01*
X772955Y177444D01*
X772992Y177111D01*
X773084Y176388D01*
X773140Y176037D01*
X773214Y175703D01*
X773288Y175389D01*
X773399Y175092D01*
X773510Y174833D01*
X773640Y174611D01*
Y174592D01*
X773677Y174574D01*
X773770Y174444D01*
X773936Y174278D01*
X774140Y174092D01*
X774418Y173907D01*
X774733Y173741D01*
X775084Y173611D01*
X775269Y173592D01*
X775473Y173574D01*
X775584D01*
X775658Y173592D01*
X775844Y173629D01*
X776103Y173704D01*
X776380Y173833D01*
X776695Y174018D01*
X776843Y174130D01*
X776992Y174278D01*
X777140Y174426D01*
X777288Y174611D01*
Y174629D01*
X777325Y174667D01*
X777362Y174722D01*
X777399Y174815D01*
X777473Y174944D01*
X777529Y175111D01*
X777603Y175296D01*
X777677Y175518D01*
X777732Y175796D01*
X777806Y176092D01*
X777880Y176444D01*
X777936Y176814D01*
X777973Y177259D01*
X778010Y177722D01*
X778047Y178240D01*
Y178814D01*
Y178833D01*
Y178851D01*
Y178944D01*
Y179110D01*
X778028Y179333D01*
Y179573D01*
X778010Y179870D01*
X777991Y180184D01*
X777954Y180536D01*
X777862Y181240D01*
X777806Y181592D01*
X777732Y181925D01*
X777658Y182240D01*
X777547Y182536D01*
X777436Y182795D01*
X777306Y183017D01*
Y183036D01*
X777269Y183055D01*
X777232Y183110D01*
X777177Y183184D01*
X777010Y183351D01*
X776806Y183554D01*
X776529Y183740D01*
X776214Y183906D01*
X776047Y183980D01*
X775862Y184036D01*
X775658Y184054D01*
X775455Y184073D01*
D02*
G37*
%LPD*%
D10*
X437446Y364430D02*
G03*
X437446Y364430I-4016J0D01*
G01*
X861202Y274057D02*
G03*
X861680Y300533I-11202J13444D01*
G01*
X838798Y300946D02*
G03*
X838320Y274470I11202J-13444D01*
G01*
X855354Y321073D02*
X842500D01*
X848927Y327500D02*
Y314646D01*
D11*
X146500Y287500D02*
G03*
X146500Y287500I-69000J0D01*
G01*
X272500Y555000D02*
Y565000D01*
X422500Y555000D02*
Y565000D01*
X272500Y365000D02*
Y375000D01*
X422500Y365000D02*
Y375000D01*
X272500Y365000D02*
X422500D01*
X272500Y565000D02*
X422500D01*
X615000Y636750D02*
X685000D01*
X661373Y620250D02*
X685000D01*
X674474Y665450D02*
X676650Y669200D01*
X677127D02*
X680940Y671310D01*
Y672690D01*
X677150Y674800D02*
X680940Y672690D01*
X677150Y674800D02*
X680940Y676910D01*
Y678290D01*
X677150Y680400D02*
X680940Y678290D01*
X677150Y680400D02*
X680940Y682510D01*
Y683890D01*
X677150Y686000D02*
X680940Y683890D01*
X677150Y686000D02*
X680940Y688110D01*
Y689490D01*
X677150Y691600D02*
X680940Y689490D01*
X677150Y691600D02*
X680940Y693710D01*
Y695090D01*
X677150Y697200D02*
X680940Y695090D01*
X677150Y697200D02*
X680940Y699310D01*
Y700690D01*
X677150Y702800D02*
X680940Y700690D01*
X677150Y702800D02*
X680940Y704910D01*
Y706290D01*
X677150Y708400D02*
X680940Y706290D01*
X623350Y708400D02*
X677150D01*
X619060Y706290D02*
X623350Y708400D01*
X619060Y704910D02*
Y706290D01*
Y704910D02*
X622850Y702800D01*
X619060Y700690D02*
X622850Y702800D01*
X619060Y699310D02*
Y700690D01*
Y699310D02*
X622850Y697200D01*
X619060Y695090D02*
X622850Y697200D01*
X619060Y693710D02*
Y695090D01*
Y693710D02*
X622850Y691600D01*
X619060Y689490D02*
X622850Y691600D01*
X619060Y688110D02*
Y689490D01*
Y688110D02*
X622850Y686000D01*
X619060Y683890D02*
X622850Y686000D01*
X619060Y682510D02*
Y683890D01*
Y682510D02*
X622850Y680400D01*
X619060Y678290D02*
X622850Y680400D01*
X619060Y676910D02*
Y678290D01*
Y676910D02*
X622850Y674800D01*
X619060Y672690D02*
X622850Y674800D01*
X619060Y671310D02*
Y672690D01*
Y671310D02*
X622850Y669200D01*
X677127D01*
X623350D02*
X625467Y665450D01*
X625467D02*
X674474D01*
Y636750D02*
Y665450D01*
X676650Y708400D02*
Y715550D01*
X623350D02*
X676650D01*
X623350Y708400D02*
Y715550D01*
X625467Y636750D02*
Y665450D01*
X619060Y676910D02*
X680940Y671310D01*
X619060Y678290D02*
X680940Y672690D01*
X622850Y680400D02*
X677150Y674800D01*
X622850D02*
X677127Y669200D01*
X619060Y671310D02*
X676650Y669200D01*
X619060Y672690D02*
X677127Y669200D01*
X619060Y682510D02*
X680940Y676910D01*
X619060Y683890D02*
X680940Y678290D01*
X622850Y686000D02*
X677150Y680400D01*
X619060Y688110D02*
X680940Y682510D01*
X619060Y689490D02*
X680940Y683890D01*
X622850Y691600D02*
X677150Y686000D01*
X619060Y693710D02*
X680940Y688110D01*
X619060Y695090D02*
X680940Y689490D01*
X622850Y697200D02*
X677150Y691600D01*
X619060Y699310D02*
X680940Y693710D01*
X619060Y700690D02*
X680940Y695090D01*
X622850Y702800D02*
X677150Y697200D01*
X619060Y704910D02*
X680940Y699310D01*
X619060Y706290D02*
X680940Y700690D01*
X623350Y708400D02*
X677150Y702800D01*
X623350Y708400D02*
X680940Y704910D01*
X623350Y708400D02*
X680940Y706290D01*
X685000Y620250D02*
Y636750D01*
X615000Y620250D02*
Y636750D01*
Y620250D02*
X638627D01*
X463750Y452000D02*
Y453000D01*
X471250Y452000D02*
Y453000D01*
X530000Y544000D02*
X695000Y544000D01*
X530000Y334000D02*
X685000Y334000D01*
X695000Y346500D02*
Y544000D01*
X530000Y334000D02*
Y544000D01*
X695000Y344000D02*
Y346500D01*
X685000Y334000D02*
X695000Y344000D01*
X215000Y636750D02*
X285000D01*
X261373Y620250D02*
X285000D01*
X274474Y665450D02*
X276650Y669200D01*
X277127D02*
X280940Y671310D01*
Y672690D01*
X277150Y674800D02*
X280940Y672690D01*
X277150Y674800D02*
X280940Y676910D01*
Y678290D01*
X277150Y680400D02*
X280940Y678290D01*
X277150Y680400D02*
X280940Y682510D01*
Y683890D01*
X277150Y686000D02*
X280940Y683890D01*
X277150Y686000D02*
X280940Y688110D01*
Y689490D01*
X277150Y691600D02*
X280940Y689490D01*
X277150Y691600D02*
X280940Y693710D01*
Y695090D01*
X277150Y697200D02*
X280940Y695090D01*
X277150Y697200D02*
X280940Y699310D01*
Y700690D01*
X277150Y702800D02*
X280940Y700690D01*
X277150Y702800D02*
X280940Y704910D01*
Y706290D01*
X277150Y708400D02*
X280940Y706290D01*
X223350Y708400D02*
X277150D01*
X219060Y706290D02*
X223350Y708400D01*
X219060Y704910D02*
Y706290D01*
Y704910D02*
X222850Y702800D01*
X219060Y700690D02*
X222850Y702800D01*
X219060Y699310D02*
Y700690D01*
Y699310D02*
X222850Y697200D01*
X219060Y695090D02*
X222850Y697200D01*
X219060Y693710D02*
Y695090D01*
Y693710D02*
X222850Y691600D01*
X219060Y689490D02*
X222850Y691600D01*
X219060Y688110D02*
Y689490D01*
Y688110D02*
X222850Y686000D01*
X219060Y683890D02*
X222850Y686000D01*
X219060Y682510D02*
Y683890D01*
Y682510D02*
X222850Y680400D01*
X219060Y678290D02*
X222850Y680400D01*
X219060Y676910D02*
Y678290D01*
Y676910D02*
X222850Y674800D01*
X219060Y672690D02*
X222850Y674800D01*
X219060Y671310D02*
Y672690D01*
Y671310D02*
X222850Y669200D01*
X277127D01*
X223350D02*
X225467Y665450D01*
X225467D02*
X274474D01*
Y636750D02*
Y665450D01*
X276650Y708400D02*
Y715550D01*
X223350D02*
X276650D01*
X223350Y708400D02*
Y715550D01*
X225467Y636750D02*
Y665450D01*
X219060Y676910D02*
X280940Y671310D01*
X219060Y678290D02*
X280940Y672690D01*
X222850Y680400D02*
X277150Y674800D01*
X222850D02*
X277127Y669200D01*
X219060Y671310D02*
X276650Y669200D01*
X219060Y672690D02*
X277127Y669200D01*
X219060Y682510D02*
X280940Y676910D01*
X219060Y683890D02*
X280940Y678290D01*
X222850Y686000D02*
X277150Y680400D01*
X219060Y688110D02*
X280940Y682510D01*
X219060Y689490D02*
X280940Y683890D01*
X222850Y691600D02*
X277150Y686000D01*
X219060Y693710D02*
X280940Y688110D01*
X219060Y695090D02*
X280940Y689490D01*
X222850Y697200D02*
X277150Y691600D01*
X219060Y699310D02*
X280940Y693710D01*
X219060Y700690D02*
X280940Y695090D01*
X222850Y702800D02*
X277150Y697200D01*
X219060Y704910D02*
X280940Y699310D01*
X219060Y706290D02*
X280940Y700690D01*
X223350Y708400D02*
X277150Y702800D01*
X223350Y708400D02*
X280940Y704910D01*
X223350Y708400D02*
X280940Y706290D01*
X285000Y620250D02*
Y636750D01*
X215000Y620250D02*
Y636750D01*
Y620250D02*
X238627D01*
X415000Y636750D02*
X485000D01*
X461373Y620250D02*
X485000D01*
X474474Y665450D02*
X476650Y669200D01*
X477127D02*
X480940Y671310D01*
Y672690D01*
X477150Y674800D02*
X480940Y672690D01*
X477150Y674800D02*
X480940Y676910D01*
Y678290D01*
X477150Y680400D02*
X480940Y678290D01*
X477150Y680400D02*
X480940Y682510D01*
Y683890D01*
X477150Y686000D02*
X480940Y683890D01*
X477150Y686000D02*
X480940Y688110D01*
Y689490D01*
X477150Y691600D02*
X480940Y689490D01*
X477150Y691600D02*
X480940Y693710D01*
Y695090D01*
X477150Y697200D02*
X480940Y695090D01*
X477150Y697200D02*
X480940Y699310D01*
Y700690D01*
X477150Y702800D02*
X480940Y700690D01*
X477150Y702800D02*
X480940Y704910D01*
Y706290D01*
X477150Y708400D02*
X480940Y706290D01*
X423350Y708400D02*
X477150D01*
X419060Y706290D02*
X423350Y708400D01*
X419060Y704910D02*
Y706290D01*
Y704910D02*
X422850Y702800D01*
X419060Y700690D02*
X422850Y702800D01*
X419060Y699310D02*
Y700690D01*
Y699310D02*
X422850Y697200D01*
X419060Y695090D02*
X422850Y697200D01*
X419060Y693710D02*
Y695090D01*
Y693710D02*
X422850Y691600D01*
X419060Y689490D02*
X422850Y691600D01*
X419060Y688110D02*
Y689490D01*
Y688110D02*
X422850Y686000D01*
X419060Y683890D02*
X422850Y686000D01*
X419060Y682510D02*
Y683890D01*
Y682510D02*
X422850Y680400D01*
X419060Y678290D02*
X422850Y680400D01*
X419060Y676910D02*
Y678290D01*
Y676910D02*
X422850Y674800D01*
X419060Y672690D02*
X422850Y674800D01*
X419060Y671310D02*
Y672690D01*
Y671310D02*
X422850Y669200D01*
X477127D01*
X423350D02*
X425467Y665450D01*
X425467D02*
X474474D01*
Y636750D02*
Y665450D01*
X476650Y708400D02*
Y715550D01*
X423350D02*
X476650D01*
X423350Y708400D02*
Y715550D01*
X425467Y636750D02*
Y665450D01*
X419060Y676910D02*
X480940Y671310D01*
X419060Y678290D02*
X480940Y672690D01*
X422850Y680400D02*
X477150Y674800D01*
X422850D02*
X477127Y669200D01*
X419060Y671310D02*
X476650Y669200D01*
X419060Y672690D02*
X477127Y669200D01*
X419060Y682510D02*
X480940Y676910D01*
X419060Y683890D02*
X480940Y678290D01*
X422850Y686000D02*
X477150Y680400D01*
X419060Y688110D02*
X480940Y682510D01*
X419060Y689490D02*
X480940Y683890D01*
X422850Y691600D02*
X477150Y686000D01*
X419060Y693710D02*
X480940Y688110D01*
X419060Y695090D02*
X480940Y689490D01*
X422850Y697200D02*
X477150Y691600D01*
X419060Y699310D02*
X480940Y693710D01*
X419060Y700690D02*
X480940Y695090D01*
X422850Y702800D02*
X477150Y697200D01*
X419060Y704910D02*
X480940Y699310D01*
X419060Y706290D02*
X480940Y700690D01*
X423350Y708400D02*
X477150Y702800D01*
X423350Y708400D02*
X480940Y704910D01*
X423350Y708400D02*
X480940Y706290D01*
X485000Y620250D02*
Y636750D01*
X415000Y620250D02*
Y636750D01*
Y620250D02*
X438627D01*
X188800Y337300D02*
Y362700D01*
X362000D01*
Y337300D02*
Y362700D01*
X188800Y337300D02*
X362000D01*
X798750Y319500D02*
Y320500D01*
X806250Y319500D02*
Y320500D01*
X789500Y357000D02*
X797500D01*
Y347000D02*
Y357000D01*
X767500D02*
X775500D01*
X767500Y347000D02*
Y357000D01*
X797500Y290500D02*
X827500D01*
X797500Y284500D02*
X827500D01*
Y290500D01*
X797500Y284500D02*
Y290500D01*
X829500Y316250D02*
X830500D01*
X829500Y323750D02*
X830500D01*
X752500Y390500D02*
X782500D01*
X752500Y384500D02*
X782500D01*
Y390500D01*
X752500Y384500D02*
Y390500D01*
X746500Y345500D02*
Y379500D01*
X728500Y345500D02*
Y379500D01*
Y393000D02*
Y427000D01*
X746500Y393000D02*
Y427000D01*
X747000Y275000D02*
Y283000D01*
X737000Y275000D02*
X747000D01*
Y297000D02*
Y305000D01*
X737000D02*
X747000D01*
X771250Y282000D02*
Y283000D01*
X763750Y282000D02*
Y283000D01*
X734500Y311250D02*
X735500D01*
X734500Y318750D02*
X735500D01*
X734500Y261250D02*
X735500D01*
X734500Y268750D02*
X735500D01*
X544500Y236250D02*
X545500D01*
X544500Y243750D02*
X545500D01*
X462500Y407000D02*
X492500D01*
X462500Y413000D02*
X492500D01*
X462500Y407000D02*
Y413000D01*
X492500Y407000D02*
Y413000D01*
X496000Y418000D02*
Y452000D01*
X514000Y418000D02*
Y452000D01*
Y370500D02*
Y404500D01*
X496000Y370500D02*
Y404500D01*
X885000Y445000D02*
X901900D01*
X885000Y355000D02*
X901900D01*
X844000Y445000D02*
X867000D01*
X844000Y355000D02*
X867000D01*
X901900D02*
Y445000D01*
X815000Y355000D02*
Y445000D01*
Y355000D02*
X824000D01*
X815000Y445000D02*
X824000D01*
X793750Y464500D02*
Y465500D01*
X801250Y464500D02*
Y465500D01*
X849500Y511250D02*
X850500D01*
X849500Y503750D02*
X850500D01*
X821250Y490000D02*
X830000D01*
Y498750D01*
X776250Y497500D02*
X782500Y491250D01*
X821250Y545000D02*
X830000D01*
Y536250D02*
Y545000D01*
X775000D02*
X783750D01*
X775000Y536250D02*
Y545000D01*
X763750Y502000D02*
Y503000D01*
X756250Y502000D02*
Y503000D01*
X751250Y502000D02*
Y503000D01*
X743750Y502000D02*
Y503000D01*
X78750Y369500D02*
Y370500D01*
X71250Y369500D02*
Y370500D01*
X95500Y384500D02*
Y392500D01*
X105500D01*
X95500Y362500D02*
Y370500D01*
Y362500D02*
X105500D01*
X-1000Y363000D02*
Y437000D01*
X36000Y363000D02*
Y437000D01*
X0Y363000D02*
X35000D01*
X-16000Y412500D02*
X-2500D01*
X-16000Y387500D02*
Y412500D01*
Y387500D02*
X-2500D01*
X0Y437000D02*
X35000D01*
X0Y537000D02*
X35000D01*
X-16000Y487500D02*
X-2500D01*
X-16000D02*
Y512500D01*
X-2500D01*
X0Y463000D02*
X35000D01*
X36000D02*
Y537000D01*
X-1000Y463000D02*
Y537000D01*
X0Y187000D02*
X35000D01*
X-16000Y137500D02*
X-2500D01*
X-16000D02*
Y162500D01*
X-2500D01*
X0Y113000D02*
X35000D01*
X36000D02*
Y187000D01*
X-1000Y113000D02*
Y187000D01*
X806250Y464500D02*
Y465500D01*
X813750Y464500D02*
Y465500D01*
X519500Y236250D02*
X520500D01*
X519500Y243750D02*
X520500D01*
X650300Y207300D02*
Y232700D01*
X477100Y207300D02*
X650300D01*
X477100D02*
Y232700D01*
X650300D01*
X702000Y593996D02*
Y582000D01*
X709997D01*
X713996Y593996D02*
Y582000D01*
X719994D01*
X721993Y583999D01*
Y585999D01*
X719994Y587998D01*
X713996D01*
X719994D01*
X721993Y589997D01*
Y591997D01*
X719994Y593996D01*
X713996D01*
X302000Y582000D02*
Y593996D01*
X305999Y589997D01*
X309997Y593996D01*
Y582000D01*
X313996Y593996D02*
Y582000D01*
X319994D01*
X321993Y583999D01*
Y585999D01*
X319994Y587998D01*
X313996D01*
X319994D01*
X321993Y589997D01*
Y591997D01*
X319994Y593996D01*
X313996D01*
X502000D02*
Y582000D01*
Y587998D01*
X509997D01*
Y593996D01*
Y582000D01*
X513996Y593996D02*
Y582000D01*
X519994D01*
X521993Y583999D01*
Y585999D01*
X519994Y587998D01*
X513996D01*
X519994D01*
X521993Y589997D01*
Y591997D01*
X519994Y593996D01*
X513996D01*
X350503Y307497D02*
X348504Y305498D01*
Y301499D01*
X350503Y299500D01*
X358501D01*
X360500Y301499D01*
Y305498D01*
X358501Y307497D01*
X350503Y319494D02*
X348504Y317494D01*
Y313496D01*
X350503Y311496D01*
X352503D01*
X354502Y313496D01*
Y317494D01*
X356501Y319494D01*
X358501D01*
X360500Y317494D01*
Y313496D01*
X358501Y311496D01*
X323504Y299500D02*
X335500D01*
Y305498D01*
X333501Y307497D01*
X325503D01*
X323504Y305498D01*
Y299500D01*
X325503Y319494D02*
X323504Y317494D01*
Y313496D01*
X325503Y311496D01*
X333501D01*
X335500Y313496D01*
Y317494D01*
X333501Y319494D01*
X308000Y299500D02*
X296004D01*
Y305498D01*
X298003Y307497D01*
X302002D01*
X304001Y305498D01*
Y299500D01*
Y303499D02*
X308000Y307497D01*
X298003Y319494D02*
X296004Y317494D01*
Y313496D01*
X298003Y311496D01*
X300003D01*
X302002Y313496D01*
Y317494D01*
X304001Y319494D01*
X306001D01*
X308000Y317494D01*
Y313496D01*
X306001Y311496D01*
X296004Y323492D02*
Y331490D01*
Y327491D01*
X308000D01*
X271004Y299500D02*
X283000D01*
Y305498D01*
X281001Y307497D01*
X273003D01*
X271004Y305498D01*
Y299500D01*
X283000Y311496D02*
X275003D01*
X271004Y315495D01*
X275003Y319494D01*
X283000D01*
X277002D01*
Y311496D01*
X271004Y323492D02*
Y331490D01*
Y327491D01*
X283000D01*
X245503Y307497D02*
X243504Y305498D01*
Y301499D01*
X245503Y299500D01*
X247503D01*
X249502Y301499D01*
Y305498D01*
X251501Y307497D01*
X253501D01*
X255500Y305498D01*
Y301499D01*
X253501Y299500D01*
X245503Y319494D02*
X243504Y317494D01*
Y313496D01*
X245503Y311496D01*
X253501D01*
X255500Y313496D01*
Y317494D01*
X253501Y319494D01*
X243504Y323492D02*
X255500D01*
X251501D01*
X243504Y331490D01*
X249502Y325492D01*
X255500Y331490D01*
X218504Y299500D02*
X226501D01*
X230500Y303499D01*
X226501Y307497D01*
X218504D01*
X220503Y319494D02*
X218504Y317494D01*
Y313496D01*
X220503Y311496D01*
X228501D01*
X230500Y313496D01*
Y317494D01*
X228501Y319494D01*
X220503Y331490D02*
X218504Y329490D01*
Y325492D01*
X220503Y323492D01*
X228501D01*
X230500Y325492D01*
Y329490D01*
X228501Y331490D01*
X193003Y307497D02*
X191004Y305498D01*
Y301499D01*
X193003Y299500D01*
X201001D01*
X203000Y301499D01*
Y305498D01*
X201001Y307497D01*
X197002D01*
Y303499D01*
X203000Y311496D02*
X191004D01*
X203000Y319494D01*
X191004D01*
Y323492D02*
X203000D01*
Y329490D01*
X201001Y331490D01*
X193003D01*
X191004Y329490D01*
Y323492D01*
X43504Y145498D02*
Y141499D01*
X45503Y139500D01*
X53501D01*
X55500Y141499D01*
Y145498D01*
X53501Y147497D01*
X45503D01*
X43504Y145498D01*
Y151496D02*
X55500D01*
X51501D01*
X43504Y159494D01*
X49502Y153496D01*
X55500Y159494D01*
X48003Y492000D02*
X56334D01*
X58000Y493666D01*
Y496998D01*
X56334Y498665D01*
X48003D01*
X58000Y501997D02*
X48003D01*
Y506995D01*
X49669Y508661D01*
X53002D01*
X54668Y506995D01*
Y501997D01*
X45503Y382000D02*
X55500D01*
Y386998D01*
X53834Y388665D01*
X47169D01*
X45503Y386998D01*
Y382000D01*
Y396995D02*
Y393663D01*
X47169Y391997D01*
X53834D01*
X55500Y393663D01*
Y396995D01*
X53834Y398661D01*
X47169D01*
X45503Y396995D01*
Y401994D02*
X55500D01*
X52168Y405326D01*
X55500Y408658D01*
X45503D01*
X55500Y411990D02*
X45503D01*
X55500Y418655D01*
X45503D01*
X648000Y169500D02*
X636004D01*
Y175498D01*
X638003Y177497D01*
X642002D01*
X644001Y175498D01*
Y169500D01*
Y173499D02*
X648000Y177497D01*
X638003Y189494D02*
X636004Y187494D01*
Y183496D01*
X638003Y181496D01*
X640003D01*
X642002Y183496D01*
Y187494D01*
X644001Y189494D01*
X646001D01*
X648000Y187494D01*
Y183496D01*
X646001Y181496D01*
X636004Y193492D02*
Y201490D01*
Y197491D01*
X648000D01*
X610503Y177497D02*
X608504Y175498D01*
Y171499D01*
X610503Y169500D01*
X618501D01*
X620500Y171499D01*
Y175498D01*
X618501Y177497D01*
X608504Y181496D02*
X620500D01*
Y189494D01*
X608504Y193492D02*
X620500D01*
X616501D01*
X608504Y201490D01*
X614502Y195492D01*
X620500Y201490D01*
X583504Y169500D02*
X595500D01*
Y175498D01*
X593501Y177497D01*
X585503D01*
X583504Y175498D01*
Y169500D01*
Y181496D02*
Y185495D01*
Y183496D01*
X595500D01*
Y181496D01*
Y185495D01*
X583504Y197491D02*
Y193492D01*
X585503Y191493D01*
X593501D01*
X595500Y193492D01*
Y197491D01*
X593501Y199490D01*
X585503D01*
X583504Y197491D01*
X560503Y177497D02*
X558504Y175498D01*
Y171499D01*
X560503Y169500D01*
X568501D01*
X570500Y171499D01*
Y175498D01*
X568501Y177497D01*
X564502D01*
Y173499D01*
X570500Y181496D02*
X558504D01*
X570500Y189494D01*
X558504D01*
Y193492D02*
X570500D01*
Y199490D01*
X568501Y201490D01*
X560503D01*
X558504Y199490D01*
Y193492D01*
X533504Y169500D02*
Y177497D01*
Y173499D01*
X545500D01*
X533504Y181496D02*
X545500Y189494D01*
X533504D02*
X545500Y181496D01*
X533504Y193492D02*
X545500D01*
Y199490D01*
X543501Y201490D01*
X535503D01*
X533504Y199490D01*
Y193492D01*
X506004Y169500D02*
Y177497D01*
Y173499D01*
X518000D01*
X506004Y181496D02*
X518000Y189494D01*
X506004D02*
X518000Y181496D01*
X506004Y193492D02*
X518000D01*
Y199490D01*
X516001Y201490D01*
X508003D01*
X506004Y199490D01*
Y193492D01*
X481004Y169500D02*
X489001D01*
X493000Y173499D01*
X489001Y177497D01*
X481004D01*
X483003Y189494D02*
X481004Y187494D01*
Y183495D01*
X483003Y181496D01*
X491001D01*
X493000Y183495D01*
Y187494D01*
X491001Y189494D01*
X483003Y201490D02*
X481004Y199490D01*
Y195492D01*
X483003Y193492D01*
X491001D01*
X493000Y195492D01*
Y199490D01*
X491001Y201490D01*
X472498Y471669D02*
X462502D01*
Y476668D01*
X464168Y478334D01*
X467500D01*
X469166Y476668D01*
Y471669D01*
Y475002D02*
X472498Y478334D01*
Y488331D02*
Y481666D01*
X465834Y488331D01*
X464168D01*
X462502Y486665D01*
Y483332D01*
X464168Y481666D01*
X348335Y572502D02*
Y582498D01*
X351668Y579166D01*
X355000Y582498D01*
Y572502D01*
X358332D02*
X361665D01*
X359998D01*
Y582498D01*
X358332Y580832D01*
X589169Y313332D02*
X587502Y314998D01*
X584170D01*
X582504Y313332D01*
Y306668D01*
X584170Y305002D01*
X587502D01*
X589169Y306668D01*
X592501Y305002D02*
X595833D01*
X594167D01*
Y314998D01*
X592501Y313332D01*
X605830Y305002D02*
Y314998D01*
X600831Y310000D01*
X607496D01*
X589169Y328332D02*
X587502Y329998D01*
X584170D01*
X582504Y328332D01*
Y321668D01*
X584170Y320002D01*
X587502D01*
X589169Y321668D01*
X592501Y320002D02*
X595833D01*
X594167D01*
Y329998D01*
X592501Y328332D01*
X600831D02*
X602498Y329998D01*
X605830D01*
X607496Y328332D01*
Y326666D01*
X605830Y325000D01*
X604164D01*
X605830D01*
X607496Y323334D01*
Y321668D01*
X605830Y320002D01*
X602498D01*
X600831Y321668D01*
X150837Y292498D02*
Y282502D01*
X155836D01*
X157502Y284168D01*
Y285834D01*
X155836Y287500D01*
X150837D01*
X155836D01*
X157502Y289166D01*
Y290832D01*
X155836Y292498D01*
X150837D01*
X160834D02*
X167498D01*
Y290832D01*
X160834Y284168D01*
Y282502D01*
X167498D01*
X170831D02*
X174163D01*
X172497D01*
Y292498D01*
X170831Y290832D01*
X873335Y292498D02*
Y282502D01*
X878334D01*
X880000Y284168D01*
Y290832D01*
X878334Y292498D01*
X873335D01*
X883332Y282502D02*
X886665D01*
X884998D01*
Y292498D01*
X883332Y290832D01*
X79998Y385004D02*
X70002D01*
Y390002D01*
X71668Y391669D01*
X75000D01*
X76666Y390002D01*
Y385004D01*
Y388336D02*
X79998Y391669D01*
Y395001D02*
Y398333D01*
Y396667D01*
X70002D01*
X71668Y395001D01*
X79998Y408330D02*
X70002D01*
X75000Y403331D01*
Y409996D01*
X105834Y399168D02*
Y405832D01*
X104168Y407498D01*
X100836D01*
X99169Y405832D01*
Y399168D01*
X100836Y397502D01*
X104168D01*
X102502Y400834D02*
X105834Y397502D01*
X104168D02*
X105834Y399168D01*
X115831Y397502D02*
X109166D01*
X115831Y404166D01*
Y405832D01*
X114164Y407498D01*
X110832D01*
X109166Y405832D01*
X466669Y384998D02*
Y376668D01*
X468335Y375002D01*
X471668D01*
X473334Y376668D01*
Y384998D01*
X476666Y383332D02*
X478332Y384998D01*
X481665D01*
X483331Y383332D01*
Y381666D01*
X481665Y380000D01*
X479998D01*
X481665D01*
X483331Y378334D01*
Y376668D01*
X481665Y375002D01*
X478332D01*
X476666Y376668D01*
X731669Y247502D02*
Y257498D01*
X736668D01*
X738334Y255832D01*
Y252500D01*
X736668Y250834D01*
X731669D01*
X735002D02*
X738334Y247502D01*
X748331Y257498D02*
X744998Y255832D01*
X741666Y252500D01*
Y249168D01*
X743332Y247502D01*
X746665D01*
X748331Y249168D01*
Y250834D01*
X746665Y252500D01*
X741666D01*
X784998Y274169D02*
X775002D01*
Y279168D01*
X776668Y280834D01*
X780000D01*
X781666Y279168D01*
Y274169D01*
Y277502D02*
X784998Y280834D01*
X775002Y290831D02*
Y284166D01*
X780000D01*
X778334Y287498D01*
Y289165D01*
X780000Y290831D01*
X783332D01*
X784998Y289165D01*
Y285832D01*
X783332Y284166D01*
X726669Y325002D02*
Y334998D01*
X731668D01*
X733334Y333332D01*
Y330000D01*
X731668Y328334D01*
X726669D01*
X730002D02*
X733334Y325002D01*
X741665D02*
Y334998D01*
X736666Y330000D01*
X743331D01*
X757500Y299168D02*
Y305832D01*
X755834Y307498D01*
X752502D01*
X750835Y305832D01*
Y299168D01*
X752502Y297502D01*
X755834D01*
X754168Y300834D02*
X757500Y297502D01*
X755834D02*
X757500Y299168D01*
X760832Y297502D02*
X764165D01*
X762498D01*
Y307498D01*
X760832Y305832D01*
X501668Y341669D02*
X500002Y340002D01*
Y336670D01*
X501668Y335004D01*
X508332D01*
X509998Y336670D01*
Y340002D01*
X508332Y341669D01*
X509998Y345001D02*
Y348333D01*
Y346667D01*
X500002D01*
X501668Y345001D01*
Y353331D02*
X500002Y354998D01*
Y358330D01*
X501668Y359996D01*
X508332D01*
X509998Y358330D01*
Y354998D01*
X508332Y353331D01*
X501668D01*
X449168Y350834D02*
X447502Y349168D01*
Y345835D01*
X449168Y344169D01*
X455832D01*
X457498Y345835D01*
Y349168D01*
X455832Y350834D01*
X449168Y354166D02*
X447502Y355832D01*
Y359165D01*
X449168Y360831D01*
X450834D01*
X452500Y359165D01*
X454166Y360831D01*
X455832D01*
X457498Y359165D01*
Y355832D01*
X455832Y354166D01*
X454166D01*
X452500Y355832D01*
X450834Y354166D01*
X449168D01*
X452500Y355832D02*
Y359165D01*
X454168Y428334D02*
X452502Y426668D01*
Y423335D01*
X454168Y421669D01*
X460832D01*
X462498Y423335D01*
Y426668D01*
X460832Y428334D01*
X452502Y438331D02*
X454168Y434998D01*
X457500Y431666D01*
X460832D01*
X462498Y433332D01*
Y436665D01*
X460832Y438331D01*
X459166D01*
X457500Y436665D01*
Y431666D01*
X486668Y468334D02*
X485002Y466668D01*
Y463335D01*
X486668Y461669D01*
X493332D01*
X494998Y463335D01*
Y466668D01*
X493332Y468334D01*
X486668Y471666D02*
X485002Y473332D01*
Y476665D01*
X486668Y478331D01*
X488334D01*
X490000Y476665D01*
Y474998D01*
Y476665D01*
X491666Y478331D01*
X493332D01*
X494998Y476665D01*
Y473332D01*
X493332Y471666D01*
X501668Y470000D02*
X500002Y468334D01*
Y465002D01*
X501668Y463335D01*
X508332D01*
X509998Y465002D01*
Y468334D01*
X508332Y470000D01*
X509998Y473332D02*
Y476665D01*
Y474998D01*
X500002D01*
X501668Y473332D01*
X791669Y562498D02*
Y554168D01*
X793335Y552502D01*
X796668D01*
X798334Y554168D01*
Y562498D01*
X806665Y552502D02*
Y562498D01*
X801666Y557500D01*
X808331D01*
X781669Y414998D02*
Y406668D01*
X783335Y405002D01*
X786668D01*
X788334Y406668D01*
Y414998D01*
X798331Y405002D02*
X791666D01*
X798331Y411666D01*
Y413332D01*
X796665Y414998D01*
X793332D01*
X791666Y413332D01*
X805835Y262498D02*
Y254168D01*
X807502Y252502D01*
X810834D01*
X812500Y254168D01*
Y262498D01*
X815832Y252502D02*
X819165D01*
X817498D01*
Y262498D01*
X815832Y260832D01*
X535004Y250002D02*
Y259998D01*
X540002D01*
X541669Y258332D01*
Y255000D01*
X540002Y253334D01*
X535004D01*
X538336D02*
X541669Y250002D01*
X545001D02*
X548333D01*
X546667D01*
Y259998D01*
X545001Y258332D01*
X553331D02*
X554998Y259998D01*
X558330D01*
X559996Y258332D01*
Y256666D01*
X558330Y255000D01*
X556664D01*
X558330D01*
X559996Y253334D01*
Y251668D01*
X558330Y250002D01*
X554998D01*
X553331Y251668D01*
X505004Y250002D02*
Y259998D01*
X510002D01*
X511669Y258332D01*
Y255000D01*
X510002Y253334D01*
X505004D01*
X508336D02*
X511669Y250002D01*
X515001D02*
X518333D01*
X516667D01*
Y259998D01*
X515001Y258332D01*
X529996Y250002D02*
X523331D01*
X529996Y256666D01*
Y258332D01*
X528330Y259998D01*
X524998D01*
X523331Y258332D01*
X866670Y502502D02*
Y512498D01*
X871669D01*
X873335Y510832D01*
Y507500D01*
X871669Y505834D01*
X866670D01*
X870002D02*
X873335Y502502D01*
X876667D02*
X879999D01*
X878333D01*
Y512498D01*
X876667Y510832D01*
X884998Y502502D02*
X888330D01*
X886664D01*
Y512498D01*
X884998Y510832D01*
X752498Y517504D02*
X742502D01*
Y522502D01*
X744168Y524169D01*
X747500D01*
X749166Y522502D01*
Y517504D01*
Y520836D02*
X752498Y524169D01*
Y527501D02*
Y530833D01*
Y529167D01*
X742502D01*
X744168Y527501D01*
Y535831D02*
X742502Y537498D01*
Y540830D01*
X744168Y542496D01*
X750832D01*
X752498Y540830D01*
Y537498D01*
X750832Y535831D01*
X744168D01*
X767498Y521669D02*
X757502D01*
Y526668D01*
X759168Y528334D01*
X762500D01*
X764166Y526668D01*
Y521669D01*
Y525002D02*
X767498Y528334D01*
X765832Y531666D02*
X767498Y533332D01*
Y536665D01*
X765832Y538331D01*
X759168D01*
X757502Y536665D01*
Y533332D01*
X759168Y531666D01*
X760834D01*
X762500Y533332D01*
Y538331D01*
X789998Y464169D02*
X780002D01*
Y469168D01*
X781668Y470834D01*
X785000D01*
X786666Y469168D01*
Y464169D01*
Y467502D02*
X789998Y470834D01*
X781668Y474166D02*
X780002Y475832D01*
Y479165D01*
X781668Y480831D01*
X783334D01*
X785000Y479165D01*
X786666Y480831D01*
X788332D01*
X789998Y479165D01*
Y475832D01*
X788332Y474166D01*
X786666D01*
X785000Y475832D01*
X783334Y474166D01*
X781668D01*
X785000Y475832D02*
Y479165D01*
X827498Y464169D02*
X817502D01*
Y469168D01*
X819168Y470834D01*
X822500D01*
X824166Y469168D01*
Y464169D01*
Y467502D02*
X827498Y470834D01*
X817502Y474166D02*
Y480831D01*
X819168D01*
X825832Y474166D01*
X827498D01*
X792498Y296669D02*
X782502D01*
Y301668D01*
X784168Y303334D01*
X787500D01*
X789166Y301668D01*
Y296669D01*
Y300002D02*
X792498Y303334D01*
X784168Y306666D02*
X782502Y308332D01*
Y311665D01*
X784168Y313331D01*
X785834D01*
X787500Y311665D01*
Y309998D01*
Y311665D01*
X789166Y313331D01*
X790832D01*
X792498Y311665D01*
Y308332D01*
X790832Y306666D01*
X825835Y327502D02*
Y337498D01*
X830834D01*
X832500Y335832D01*
Y332500D01*
X830834Y330834D01*
X825835D01*
X829168D02*
X832500Y327502D01*
X835832D02*
X839165D01*
X837498D01*
Y337498D01*
X835832Y335832D01*
X261669Y95002D02*
Y104998D01*
X265002Y101666D01*
X268334Y104998D01*
Y95002D01*
X271666Y103332D02*
X273332Y104998D01*
X276665D01*
X278331Y103332D01*
Y101666D01*
X276665Y100000D01*
X274998D01*
X276665D01*
X278331Y98334D01*
Y96668D01*
X276665Y95002D01*
X273332D01*
X271666Y96668D01*
X601669Y550002D02*
Y559998D01*
X605002Y556666D01*
X608334Y559998D01*
Y550002D01*
X618331D02*
X611666D01*
X618331Y556666D01*
Y558332D01*
X616665Y559998D01*
X613332D01*
X611666Y558332D01*
X771669Y327498D02*
Y317502D01*
X776668D01*
X778334Y319168D01*
Y325832D01*
X776668Y327498D01*
X771669D01*
X788331Y317502D02*
X781666D01*
X788331Y324166D01*
Y325832D01*
X786665Y327498D01*
X783332D01*
X781666Y325832D01*
X871668Y498332D02*
X870002Y499998D01*
X866670D01*
X865004Y498332D01*
Y491668D01*
X866670Y490002D01*
X870002D01*
X871668Y491668D01*
X875001Y490002D02*
X878333D01*
X876667D01*
Y499998D01*
X875001Y498332D01*
X889996Y490002D02*
X883332D01*
X889996Y496666D01*
Y498332D01*
X888330Y499998D01*
X884998D01*
X883332Y498332D01*
X873335Y483332D02*
X871669Y484998D01*
X868336D01*
X866670Y483332D01*
Y476668D01*
X868336Y475002D01*
X871669D01*
X873335Y476668D01*
X876667Y475002D02*
X879999D01*
X878333D01*
Y484998D01*
X876667Y483332D01*
X884998Y475002D02*
X888330D01*
X886664D01*
Y484998D01*
X884998Y483332D01*
X716668Y410834D02*
X715002Y409168D01*
Y405835D01*
X716668Y404169D01*
X723332D01*
X724998Y405835D01*
Y409168D01*
X723332Y410834D01*
Y414166D02*
X724998Y415832D01*
Y419165D01*
X723332Y420831D01*
X716668D01*
X715002Y419165D01*
Y415832D01*
X716668Y414166D01*
X718334D01*
X720000Y415832D01*
Y420831D01*
X763334Y433332D02*
X761668Y434998D01*
X758335D01*
X756669Y433332D01*
Y426668D01*
X758335Y425002D01*
X761668D01*
X763334Y426668D01*
X766666Y434998D02*
X773331D01*
Y433332D01*
X766666Y426668D01*
Y425002D01*
X801668Y380834D02*
X800002Y379168D01*
Y375835D01*
X801668Y374169D01*
X808332D01*
X809998Y375835D01*
Y379168D01*
X808332Y380834D01*
X800002Y390831D02*
Y384166D01*
X805000D01*
X803334Y387498D01*
Y389165D01*
X805000Y390831D01*
X808332D01*
X809998Y389165D01*
Y385832D01*
X808332Y384166D01*
X754168Y330834D02*
X752502Y329168D01*
Y325835D01*
X754168Y324169D01*
X760832D01*
X762498Y325835D01*
Y329168D01*
X760832Y330834D01*
X762498Y339165D02*
X752502D01*
X757500Y334166D01*
Y340831D01*
X716668Y358334D02*
X715002Y356668D01*
Y353335D01*
X716668Y351669D01*
X723332D01*
X724998Y353335D01*
Y356668D01*
X723332Y358334D01*
X724998Y368331D02*
Y361666D01*
X718334Y368331D01*
X716668D01*
X715002Y366665D01*
Y363332D01*
X716668Y361666D01*
D12*
X63639Y248070D02*
X46500D01*
X55070Y239500D02*
Y256639D01*
D13*
X830500Y227161D02*
X863822D01*
X847161Y243822D02*
Y210500D01*
X848000Y107161D02*
X881322D01*
X864661Y123822D02*
Y90500D01*
M02*
