G04*
G04 #@! TF.GenerationSoftware,Altium Limited,Altium Designer,23.0.1 (38)*
G04*
G04 Layer_Physical_Order=1*
G04 Layer_Color=255*
%FSLAX44Y44*%
%MOMM*%
G71*
G04*
G04 #@! TF.SameCoordinates,A0776DD6-9477-4037-963C-6FFA94690279*
G04*
G04*
G04 #@! TF.FilePolarity,Positive*
G04*
G01*
G75*
%ADD12C,0.2500*%
%ADD13C,0.8000*%
%ADD14R,3.0000X1.2000*%
%ADD15R,1.6000X4.9000*%
%ADD16R,1.5000X3.8100*%
%ADD17R,0.9500X0.6000*%
%ADD18R,0.8000X1.0000*%
%ADD19R,1.6000X0.8000*%
%ADD20R,0.6000X1.0000*%
%ADD21R,1.0000X0.8000*%
%ADD22R,0.6000X0.9500*%
G04:AMPARAMS|DCode=23|XSize=1.66mm|YSize=1.42mm|CornerRadius=0.2485mm|HoleSize=0mm|Usage=FLASHONLY|Rotation=270.000|XOffset=0mm|YOffset=0mm|HoleType=Round|Shape=RoundedRectangle|*
%AMROUNDEDRECTD23*
21,1,1.6600,0.9230,0,0,270.0*
21,1,1.1630,1.4200,0,0,270.0*
1,1,0.4970,-0.4615,-0.5815*
1,1,0.4970,-0.4615,0.5815*
1,1,0.4970,0.4615,0.5815*
1,1,0.4970,0.4615,-0.5815*
%
%ADD23ROUNDEDRECTD23*%
%ADD24R,1.0000X0.6000*%
G04:AMPARAMS|DCode=25|XSize=0.3mm|YSize=1.45mm|CornerRadius=0.045mm|HoleSize=0mm|Usage=FLASHONLY|Rotation=270.000|XOffset=0mm|YOffset=0mm|HoleType=Round|Shape=RoundedRectangle|*
%AMROUNDEDRECTD25*
21,1,0.3000,1.3600,0,0,270.0*
21,1,0.2100,1.4500,0,0,270.0*
1,1,0.0900,-0.6800,-0.1050*
1,1,0.0900,-0.6800,0.1050*
1,1,0.0900,0.6800,0.1050*
1,1,0.0900,0.6800,-0.1050*
%
%ADD25ROUNDEDRECTD25*%
G04:AMPARAMS|DCode=26|XSize=1.8mm|YSize=1.2mm|CornerRadius=0.12mm|HoleSize=0mm|Usage=FLASHONLY|Rotation=90.000|XOffset=0mm|YOffset=0mm|HoleType=Round|Shape=RoundedRectangle|*
%AMROUNDEDRECTD26*
21,1,1.8000,0.9600,0,0,90.0*
21,1,1.5600,1.2000,0,0,90.0*
1,1,0.2400,0.4800,0.7800*
1,1,0.2400,0.4800,-0.7800*
1,1,0.2400,-0.4800,-0.7800*
1,1,0.2400,-0.4800,0.7800*
%
%ADD26ROUNDEDRECTD26*%
G04:AMPARAMS|DCode=27|XSize=1.8mm|YSize=1.5mm|CornerRadius=0.15mm|HoleSize=0mm|Usage=FLASHONLY|Rotation=270.000|XOffset=0mm|YOffset=0mm|HoleType=Round|Shape=RoundedRectangle|*
%AMROUNDEDRECTD27*
21,1,1.8000,1.2000,0,0,270.0*
21,1,1.5000,1.5000,0,0,270.0*
1,1,0.3000,-0.6000,-0.7500*
1,1,0.3000,-0.6000,0.7500*
1,1,0.3000,0.6000,0.7500*
1,1,0.3000,0.6000,-0.7500*
%
%ADD27ROUNDEDRECTD27*%
G04:AMPARAMS|DCode=28|XSize=0.25mm|YSize=1.2mm|CornerRadius=0.025mm|HoleSize=0mm|Usage=FLASHONLY|Rotation=90.000|XOffset=0mm|YOffset=0mm|HoleType=Round|Shape=RoundedRectangle|*
%AMROUNDEDRECTD28*
21,1,0.2500,1.1500,0,0,90.0*
21,1,0.2000,1.2000,0,0,90.0*
1,1,0.0500,0.5750,0.1000*
1,1,0.0500,0.5750,-0.1000*
1,1,0.0500,-0.5750,-0.1000*
1,1,0.0500,-0.5750,0.1000*
%
%ADD28ROUNDEDRECTD28*%
G04:AMPARAMS|DCode=29|XSize=0.25mm|YSize=1.2mm|CornerRadius=0.025mm|HoleSize=0mm|Usage=FLASHONLY|Rotation=180.000|XOffset=0mm|YOffset=0mm|HoleType=Round|Shape=RoundedRectangle|*
%AMROUNDEDRECTD29*
21,1,0.2500,1.1500,0,0,180.0*
21,1,0.2000,1.2000,0,0,180.0*
1,1,0.0500,-0.1000,0.5750*
1,1,0.0500,0.1000,0.5750*
1,1,0.0500,0.1000,-0.5750*
1,1,0.0500,-0.1000,-0.5750*
%
%ADD29ROUNDEDRECTD29*%
G04:AMPARAMS|DCode=61|XSize=3.2mm|YSize=3.2mm|CornerRadius=0.08mm|HoleSize=0mm|Usage=FLASHONLY|Rotation=180.000|XOffset=0mm|YOffset=0mm|HoleType=Round|Shape=RoundedRectangle|*
%AMROUNDEDRECTD61*
21,1,3.2000,3.0400,0,0,180.0*
21,1,3.0400,3.2000,0,0,180.0*
1,1,0.1600,-1.5200,1.5200*
1,1,0.1600,1.5200,1.5200*
1,1,0.1600,1.5200,-1.5200*
1,1,0.1600,-1.5200,-1.5200*
%
%ADD61ROUNDEDRECTD61*%
%ADD62C,0.6000*%
%ADD63C,0.4000*%
%ADD64C,1.0000*%
%ADD65R,1.6000X1.6000*%
%ADD66C,1.6000*%
G04:AMPARAMS|DCode=67|XSize=2mm|YSize=2mm|CornerRadius=0.5mm|HoleSize=0mm|Usage=FLASHONLY|Rotation=90.000|XOffset=0mm|YOffset=0mm|HoleType=Round|Shape=RoundedRectangle|*
%AMROUNDEDRECTD67*
21,1,2.0000,1.0000,0,0,90.0*
21,1,1.0000,2.0000,0,0,90.0*
1,1,1.0000,0.5000,0.5000*
1,1,1.0000,0.5000,-0.5000*
1,1,1.0000,-0.5000,-0.5000*
1,1,1.0000,-0.5000,0.5000*
%
%ADD67ROUNDEDRECTD67*%
%ADD68C,2.0000*%
%ADD69C,4.0000*%
%ADD70R,1.7100X1.7100*%
%ADD71C,1.7100*%
%ADD72C,0.6500*%
%ADD73C,1.5900*%
%ADD74R,1.5900X1.5900*%
%ADD75C,1.8000*%
%ADD76O,2.2000X2.2500*%
%ADD77C,2.2000*%
%ADD78C,0.6000*%
G36*
X896941Y159460D02*
D01*
X896941Y3059D01*
X835000D01*
Y87433D01*
X837155Y90658D01*
X839039Y95208D01*
X840000Y100038D01*
Y104962D01*
X839039Y109792D01*
X837155Y114342D01*
X835000Y117567D01*
Y159460D01*
X821240D01*
Y220820D01*
X821000Y222647D01*
X820294Y224350D01*
X819173Y225812D01*
X817710Y226935D01*
X817450Y227042D01*
Y237450D01*
X814560D01*
Y246690D01*
X816250D01*
X818077Y246930D01*
X819780Y247635D01*
X821243Y248757D01*
X826992Y254508D01*
X828114Y255970D01*
X828820Y257673D01*
X829060Y259500D01*
X828820Y261327D01*
X828114Y263030D01*
X827098Y264355D01*
Y275500D01*
X827000Y275993D01*
Y282500D01*
X819103D01*
X818817Y282916D01*
X819485Y284186D01*
X842851D01*
X843889Y283025D01*
X843860Y282802D01*
X841998Y280940D01*
X840682Y278660D01*
X840000Y276117D01*
Y273484D01*
X840682Y270940D01*
X841998Y268660D01*
X843860Y266798D01*
X846140Y265481D01*
X848683Y264800D01*
X851317D01*
X853860Y265481D01*
X856140Y266798D01*
X858002Y268660D01*
X859318Y270940D01*
X860000Y273484D01*
Y276117D01*
X859318Y278660D01*
X858002Y280940D01*
X856140Y282802D01*
X853860Y284118D01*
X851317Y284800D01*
X851285D01*
X851100Y285729D01*
X850382Y286804D01*
X848256Y288930D01*
X848782Y290200D01*
X860000D01*
Y310200D01*
X852828D01*
Y312985D01*
X852576Y314254D01*
X851858Y315329D01*
X845129Y322058D01*
X844054Y322776D01*
X842785Y323028D01*
X842500D01*
Y326750D01*
X832500D01*
Y313250D01*
X842500D01*
Y313654D01*
X843673Y314140D01*
X846201Y311613D01*
Y310200D01*
X840000D01*
Y290814D01*
X805000D01*
X803732Y290561D01*
X802657Y289843D01*
X800657Y287843D01*
X799939Y286768D01*
X799686Y285500D01*
Y282500D01*
X798000D01*
Y268500D01*
X806960D01*
Y267960D01*
X811230D01*
Y275500D01*
X813770D01*
Y267960D01*
X816902D01*
Y264387D01*
X813326Y260810D01*
X799174D01*
X794560Y265424D01*
Y275000D01*
Y307306D01*
X795750Y307500D01*
X795830Y307500D01*
X797348D01*
X798000Y306500D01*
Y292500D01*
X808000D01*
Y306500D01*
X808652Y307500D01*
X809250D01*
Y317500D01*
X795750D01*
Y310694D01*
X794480Y310611D01*
X794320Y311827D01*
X793615Y313530D01*
X792492Y314992D01*
X778098Y329387D01*
Y338000D01*
X778000Y338493D01*
Y345000D01*
X768000D01*
Y338493D01*
X767902Y338000D01*
Y329355D01*
X766886Y328030D01*
X766180Y326327D01*
X765940Y324500D01*
X766180Y322673D01*
X766886Y320970D01*
X768008Y319508D01*
X780440Y307076D01*
Y280098D01*
X767500D01*
X767008Y280000D01*
X760750D01*
Y270000D01*
X767008D01*
X767500Y269902D01*
X780440D01*
Y262500D01*
X780680Y260673D01*
X781385Y258970D01*
X782508Y257508D01*
X791456Y248560D01*
X792918Y247438D01*
X794621Y246732D01*
X796448Y246492D01*
X798275Y246732D01*
X798311Y246747D01*
X798750Y246690D01*
X800440D01*
Y237450D01*
X797550D01*
Y217550D01*
X807120D01*
Y159460D01*
X127500D01*
Y3059D01*
X3059D01*
Y160000D01*
D01*
X3059Y616941D01*
X240068D01*
X240500Y615850D01*
X240500Y615671D01*
Y573750D01*
X243883D01*
Y555000D01*
X244048Y554169D01*
X244188Y552742D01*
X245391Y548777D01*
X247344Y545124D01*
X248112Y544187D01*
X248112Y544187D01*
X248590Y543486D01*
X248599Y543477D01*
X248782Y543292D01*
X249056Y543015D01*
X249064Y543009D01*
X249962Y542114D01*
X251402Y540674D01*
X253386Y539348D01*
X254500Y539127D01*
Y536000D01*
X290500D01*
Y554000D01*
X256464D01*
X256240Y554540D01*
X256117Y555471D01*
Y573750D01*
X259500D01*
Y615671D01*
X259500Y615850D01*
X259932Y616941D01*
X440068D01*
X440500Y615850D01*
X440500Y615671D01*
Y573750D01*
X445024D01*
X445224Y573377D01*
X446411Y569463D01*
X446812Y565393D01*
X446411Y561324D01*
X445224Y557410D01*
X443296Y553804D01*
X441770Y551944D01*
X441075Y552044D01*
X440988Y552091D01*
X440500Y552473D01*
Y554000D01*
X404500D01*
Y536000D01*
X440500D01*
Y538918D01*
X443858Y539360D01*
X447264Y540771D01*
X449955Y542836D01*
X450189Y543015D01*
X450449Y543340D01*
X450552Y543408D01*
X450788Y543761D01*
X450788Y543761D01*
X451012Y544098D01*
X452640Y546003D01*
X455345Y550417D01*
X457326Y555199D01*
X458534Y560233D01*
X458940Y565393D01*
X458534Y570554D01*
X458006Y572753D01*
X458792Y573750D01*
X459500D01*
Y615671D01*
X459500Y615850D01*
X459932Y616941D01*
X614060D01*
Y593020D01*
X624600D01*
X635140D01*
Y616941D01*
X640068D01*
X640500Y615850D01*
X640500Y615671D01*
Y573750D01*
X643883D01*
Y556147D01*
X643835Y554942D01*
D01*
X643651Y553711D01*
X643526Y553193D01*
X643060Y547271D01*
X643526Y541350D01*
X644913Y535574D01*
X647186Y530086D01*
X650290Y525022D01*
X654147Y520505D01*
X658664Y516647D01*
X663729Y513543D01*
X669217Y511270D01*
X671500Y510722D01*
Y508200D01*
X693500D01*
Y522200D01*
X675339D01*
X671066Y523496D01*
X666617Y525874D01*
X662717Y529075D01*
X659517Y532974D01*
X657139Y537423D01*
X655675Y542251D01*
X655180Y547271D01*
X655575Y551279D01*
X655751Y552508D01*
X655821Y553037D01*
X655956Y553716D01*
X655928Y553854D01*
X656121Y555317D01*
X656118D01*
X656117Y555317D01*
Y573750D01*
X659500D01*
Y615671D01*
X659500Y615850D01*
X659932Y616941D01*
X664860D01*
Y593020D01*
X675400D01*
X685940D01*
Y616941D01*
X896941D01*
X896941Y159460D01*
D02*
G37*
%LPC*%
G36*
X862220Y602540D02*
X861270D01*
Y581270D01*
X882540D01*
Y582220D01*
X881674Y586575D01*
X879975Y590677D01*
X877508Y594368D01*
X874368Y597508D01*
X870677Y599975D01*
X866575Y601674D01*
X862220Y602540D01*
D02*
G37*
G36*
X858730D02*
X857780D01*
X853425Y601674D01*
X849323Y599975D01*
X845632Y597508D01*
X842492Y594368D01*
X840025Y590677D01*
X838326Y586575D01*
X837460Y582220D01*
Y581270D01*
X858730D01*
Y602540D01*
D02*
G37*
G36*
X42220D02*
X41270D01*
Y581270D01*
X62540D01*
Y582220D01*
X61674Y586575D01*
X59975Y590677D01*
X57508Y594368D01*
X54368Y597508D01*
X50677Y599975D01*
X46575Y601674D01*
X42220Y602540D01*
D02*
G37*
G36*
X38730D02*
X37780D01*
X33425Y601674D01*
X29323Y599975D01*
X25632Y597508D01*
X22492Y594368D01*
X20025Y590677D01*
X18326Y586575D01*
X17460Y582220D01*
Y581270D01*
X38730D01*
Y602540D01*
D02*
G37*
G36*
X685940Y590480D02*
X676670D01*
Y564710D01*
X685940D01*
Y590480D01*
D02*
G37*
G36*
X674130D02*
X664860D01*
Y564710D01*
X674130D01*
Y590480D01*
D02*
G37*
G36*
X635140D02*
X625870D01*
Y564710D01*
X635140D01*
Y590480D01*
D02*
G37*
G36*
X623330D02*
X614060D01*
Y564710D01*
X623330D01*
Y590480D01*
D02*
G37*
G36*
X882540Y578730D02*
X861270D01*
Y557460D01*
X862220D01*
X866575Y558326D01*
X870677Y560025D01*
X874368Y562492D01*
X877508Y565632D01*
X879975Y569323D01*
X881674Y573425D01*
X882540Y577780D01*
Y578730D01*
D02*
G37*
G36*
X858730D02*
X837460D01*
Y577780D01*
X838326Y573425D01*
X840025Y569323D01*
X842492Y565632D01*
X845632Y562492D01*
X849323Y560025D01*
X853425Y558326D01*
X857780Y557460D01*
X858730D01*
Y578730D01*
D02*
G37*
G36*
X62540D02*
X41270D01*
Y557460D01*
X42220D01*
X46575Y558326D01*
X50677Y560025D01*
X54368Y562492D01*
X57508Y565632D01*
X59975Y569323D01*
X61674Y573425D01*
X62540Y577780D01*
Y578730D01*
D02*
G37*
G36*
X38730D02*
X17460D01*
Y577780D01*
X18326Y573425D01*
X20025Y569323D01*
X22492Y565632D01*
X25632Y562492D01*
X29323Y560025D01*
X33425Y558326D01*
X37780Y557460D01*
X38730D01*
Y578730D01*
D02*
G37*
G36*
X818500Y550544D02*
X816500D01*
X815622Y550369D01*
X815000Y549954D01*
X814378Y550369D01*
X813500Y550544D01*
X811500D01*
X810622Y550369D01*
X810000Y549954D01*
X809378Y550369D01*
X808500Y550544D01*
X806500D01*
X805622Y550369D01*
X805000Y549954D01*
X804378Y550369D01*
X803500Y550544D01*
X801500D01*
X800622Y550369D01*
X800000Y549954D01*
X799378Y550369D01*
X798500Y550544D01*
X796500D01*
X795622Y550369D01*
X795000Y549954D01*
X794378Y550369D01*
X793500Y550544D01*
X791500D01*
X790622Y550369D01*
X790000Y549954D01*
X789378Y550369D01*
X788500Y550544D01*
X786500D01*
X785622Y550369D01*
X784878Y549872D01*
X784380Y549128D01*
X784206Y548250D01*
Y536899D01*
X784064Y536609D01*
X783391Y535936D01*
X783101Y535794D01*
X771750D01*
X770872Y535619D01*
X770128Y535122D01*
X769631Y534378D01*
X769456Y533500D01*
Y531500D01*
X769631Y530622D01*
X770046Y530000D01*
X769631Y529378D01*
X769456Y528500D01*
Y526500D01*
X769631Y525622D01*
X770046Y525000D01*
X769631Y524378D01*
X769456Y523500D01*
Y521500D01*
X768893Y520814D01*
X748988D01*
X747720Y520561D01*
X746645Y519843D01*
X745157Y518355D01*
X744439Y517280D01*
X744186Y516012D01*
Y515000D01*
X740750D01*
Y505000D01*
X766750D01*
Y506686D01*
X767500D01*
X768186Y506823D01*
X768519Y506738D01*
X769308Y506266D01*
X769566Y505945D01*
X769631Y505622D01*
X770046Y505000D01*
X769631Y504378D01*
X769456Y503500D01*
Y501500D01*
X769631Y500622D01*
X770128Y499878D01*
X770872Y499381D01*
X771750Y499206D01*
X783101D01*
X783391Y499064D01*
X784064Y498391D01*
X784206Y498101D01*
Y486750D01*
X784380Y485872D01*
X784878Y485128D01*
X785622Y484631D01*
X786500Y484456D01*
X788500D01*
X789378Y484631D01*
X790000Y485046D01*
X790622Y484631D01*
X791500Y484456D01*
X793500D01*
X794378Y484631D01*
X795321Y483942D01*
X795482Y482668D01*
X795157Y482343D01*
X794439Y481268D01*
X794186Y480000D01*
Y477500D01*
X790750D01*
Y467500D01*
X816750D01*
Y476071D01*
X817500Y476686D01*
X837250D01*
Y473000D01*
X839186D01*
Y467500D01*
X839439Y466232D01*
X840157Y465157D01*
X842657Y462657D01*
X843732Y461939D01*
X845000Y461686D01*
X867747D01*
X868365Y460416D01*
X867986Y459849D01*
X867737Y458600D01*
Y443000D01*
X867986Y441751D01*
X868693Y440693D01*
X869751Y439986D01*
X871000Y439737D01*
X880600D01*
X881849Y439986D01*
X882907Y440693D01*
X883614Y441751D01*
X883863Y443000D01*
Y458600D01*
X883614Y459849D01*
X882907Y460907D01*
X881849Y461614D01*
X880600Y461863D01*
X873345D01*
X872819Y463133D01*
X877343Y467657D01*
X878061Y468732D01*
X878314Y470000D01*
Y500000D01*
X878061Y501268D01*
X877343Y502343D01*
X869843Y509843D01*
X868768Y510561D01*
X867500Y510814D01*
X862500D01*
Y514250D01*
X852500D01*
Y502540D01*
X850210D01*
Y502540D01*
X849250Y502000D01*
X847500D01*
Y514250D01*
X837500D01*
Y510814D01*
X836107D01*
X835544Y511500D01*
Y513500D01*
X835369Y514378D01*
X834954Y515000D01*
X835369Y515622D01*
X835544Y516500D01*
Y518500D01*
X835369Y519378D01*
X834954Y520000D01*
X835369Y520622D01*
X835544Y521500D01*
Y523500D01*
X835369Y524378D01*
X834954Y525000D01*
X835369Y525622D01*
X835544Y526500D01*
Y528500D01*
X835369Y529378D01*
X834954Y530000D01*
X835369Y530622D01*
X835544Y531500D01*
Y533500D01*
X835369Y534378D01*
X834872Y535122D01*
X834128Y535619D01*
X833250Y535794D01*
X821899D01*
X821609Y535936D01*
X820936Y536609D01*
X820794Y536899D01*
Y548250D01*
X820619Y549128D01*
X820122Y549872D01*
X819378Y550369D01*
X818500Y550544D01*
D02*
G37*
G36*
X26519Y536540D02*
X26270D01*
Y526270D01*
X36540D01*
Y526519D01*
X35754Y529454D01*
X34234Y532086D01*
X32086Y534234D01*
X29454Y535754D01*
X26519Y536540D01*
D02*
G37*
G36*
X23730D02*
X23481D01*
X20546Y535754D01*
X17914Y534234D01*
X15766Y532086D01*
X14246Y529454D01*
X13460Y526519D01*
Y526270D01*
X23730D01*
Y536540D01*
D02*
G37*
G36*
X50000Y548362D02*
X46606Y547915D01*
X43444Y546605D01*
X40728Y544522D01*
X38644Y541806D01*
X37335Y538644D01*
X36888Y535250D01*
Y534750D01*
X37335Y531356D01*
X38644Y528194D01*
X40728Y525478D01*
X43444Y523395D01*
X46606Y522085D01*
X50000Y521638D01*
X53394Y522085D01*
X56556Y523395D01*
X59272Y525478D01*
X61356Y528194D01*
X62665Y531356D01*
X63112Y534750D01*
Y535250D01*
X62665Y538644D01*
X61356Y541806D01*
X59272Y544522D01*
X56556Y546605D01*
X53394Y547915D01*
X50000Y548362D01*
D02*
G37*
G36*
X36540Y523730D02*
X26270D01*
Y513460D01*
X26519D01*
X29454Y514246D01*
X32086Y515766D01*
X34234Y517914D01*
X35754Y520546D01*
X36540Y523481D01*
Y523730D01*
D02*
G37*
G36*
X23730D02*
X13460D01*
Y523481D01*
X14246Y520546D01*
X15766Y517914D01*
X17914Y515766D01*
X20546Y514246D01*
X23481Y513460D01*
X23730D01*
Y523730D01*
D02*
G37*
G36*
X440500Y514000D02*
X404500D01*
Y496000D01*
X440500D01*
Y501686D01*
X446242D01*
X447168Y500761D01*
X449005Y500000D01*
X450995D01*
X452832Y500761D01*
X454239Y502168D01*
X455000Y504005D01*
Y505994D01*
X454239Y507832D01*
X452832Y509239D01*
X450995Y510000D01*
X449005D01*
X447168Y509239D01*
X446243Y508314D01*
X440500D01*
Y514000D01*
D02*
G37*
G36*
X650995Y502500D02*
X649005D01*
X647168Y501739D01*
X645761Y500332D01*
X645000Y498495D01*
Y496505D01*
X645761Y494668D01*
X647168Y493261D01*
X649005Y492500D01*
X650314D01*
X655357Y487457D01*
X656432Y486739D01*
X657700Y486486D01*
X671500D01*
Y481167D01*
X668909D01*
X667984Y482092D01*
X666146Y482853D01*
X664157D01*
X662319Y482092D01*
X660912Y480685D01*
X660151Y478848D01*
Y476859D01*
X660757Y475397D01*
X659168Y474739D01*
X657761Y473332D01*
X657000Y471494D01*
Y469505D01*
X657761Y467668D01*
X659168Y466261D01*
X661005Y465500D01*
X661428D01*
X664871Y462057D01*
X665946Y461339D01*
X667214Y461086D01*
X671500D01*
Y457400D01*
Y444700D01*
Y432000D01*
Y419300D01*
Y406600D01*
Y392367D01*
X670758Y391968D01*
X670230Y391781D01*
X668495Y392500D01*
X666505D01*
X664668Y391739D01*
X663261Y390332D01*
X662609Y388758D01*
X661714Y388400D01*
X661230Y388341D01*
X660332Y389239D01*
X658495Y390000D01*
X656505D01*
X654668Y389239D01*
X653261Y387832D01*
X652500Y385995D01*
Y384005D01*
X653261Y382168D01*
X654186Y381243D01*
Y363661D01*
X654439Y362393D01*
X655157Y361318D01*
X668718Y347757D01*
X669793Y347039D01*
X671061Y346786D01*
X671500D01*
Y343100D01*
X693500D01*
Y355800D01*
Y368500D01*
Y381200D01*
Y394662D01*
X694006Y395000D01*
X695995D01*
X697832Y395761D01*
X699239Y397168D01*
X700000Y399005D01*
Y400994D01*
X699239Y402832D01*
X697832Y404239D01*
X695995Y405000D01*
X694006D01*
X693500Y405338D01*
Y409186D01*
X696243D01*
X697168Y408261D01*
X699005Y407500D01*
X700995D01*
X702832Y408261D01*
X704239Y409668D01*
X705000Y411505D01*
Y413495D01*
X704239Y415332D01*
X702832Y416739D01*
X700995Y417500D01*
X699005D01*
X697168Y416739D01*
X696243Y415814D01*
X693500D01*
Y422986D01*
X697831D01*
X699005Y422500D01*
X700995D01*
X702832Y423261D01*
X704239Y424668D01*
X705000Y426505D01*
Y428495D01*
X704239Y430332D01*
X702832Y431739D01*
X700995Y432500D01*
X699005D01*
X697168Y431739D01*
X695761Y430332D01*
X695463Y429614D01*
X693500D01*
Y436811D01*
X695722D01*
X696647Y435886D01*
X698485Y435125D01*
X700474D01*
X702312Y435886D01*
X703718Y437293D01*
X704480Y439130D01*
Y441119D01*
X703718Y442957D01*
X702312Y444364D01*
X700474Y445125D01*
X698485D01*
X696647Y444364D01*
X695722Y443438D01*
X693500D01*
Y448386D01*
X696647D01*
X696647Y448386D01*
X698485Y447625D01*
X700474D01*
X702312Y448386D01*
X703718Y449793D01*
X704480Y451630D01*
Y453619D01*
X703718Y455457D01*
X702312Y456864D01*
X700474Y457625D01*
X698485D01*
X696647Y456864D01*
X695241Y455457D01*
X695057Y455014D01*
X693500D01*
Y470100D01*
Y482800D01*
Y496800D01*
X671500D01*
Y493114D01*
X659072D01*
X655000Y497186D01*
Y498495D01*
X654239Y500332D01*
X652832Y501739D01*
X650995Y502500D01*
D02*
G37*
G36*
X440500Y494000D02*
X404500D01*
Y476000D01*
X440500D01*
Y481686D01*
X446242D01*
X447168Y480761D01*
X449005Y480000D01*
X450995D01*
X452832Y480761D01*
X454239Y482168D01*
X455000Y484005D01*
Y485994D01*
X454239Y487832D01*
X452832Y489239D01*
X450995Y490000D01*
X449005D01*
X447168Y489239D01*
X446243Y488314D01*
X440500D01*
Y494000D01*
D02*
G37*
G36*
X290500D02*
X254500D01*
Y476000D01*
X290500D01*
Y494000D01*
D02*
G37*
G36*
X766750Y500000D02*
X740750D01*
Y498314D01*
X732500D01*
X731232Y498061D01*
X730157Y497343D01*
X727814Y495000D01*
X726505D01*
X724668Y494239D01*
X723261Y492832D01*
X722500Y490995D01*
Y489005D01*
X723261Y487168D01*
X724668Y485761D01*
X724846Y485687D01*
Y484313D01*
X724668Y484239D01*
X723261Y482832D01*
X722500Y480995D01*
Y479005D01*
X723261Y477168D01*
X724668Y475761D01*
X726505Y475000D01*
X728495D01*
X730332Y475761D01*
X731257Y476686D01*
X757500D01*
X758768Y476939D01*
X759843Y477657D01*
X762343Y480157D01*
X763061Y481232D01*
X763314Y482500D01*
Y490000D01*
X766750D01*
Y500000D01*
D02*
G37*
G36*
X290500Y474000D02*
X254500D01*
Y468314D01*
X251257D01*
X250332Y469239D01*
X248495Y470000D01*
X246506D01*
X244668Y469239D01*
X243261Y467832D01*
X242500Y465994D01*
Y464005D01*
X243261Y462168D01*
X244668Y460761D01*
X246506Y460000D01*
X248495D01*
X250332Y460761D01*
X251257Y461686D01*
X254500D01*
Y456000D01*
X290500D01*
Y474000D01*
D02*
G37*
G36*
X26448Y486000D02*
X23552D01*
X20754Y485250D01*
X18246Y483802D01*
X16198Y481754D01*
X14750Y479246D01*
X14000Y476448D01*
Y473552D01*
X14750Y470754D01*
X16198Y468246D01*
X18246Y466198D01*
X20754Y464750D01*
X23552Y464000D01*
X26448D01*
X29246Y464750D01*
X31754Y466198D01*
X33802Y468246D01*
X35250Y470754D01*
X36000Y473552D01*
Y476448D01*
X35250Y479246D01*
X33802Y481754D01*
X31754Y483802D01*
X29246Y485250D01*
X26448Y486000D01*
D02*
G37*
G36*
X474790Y465540D02*
X468770D01*
Y461270D01*
X474790D01*
Y465540D01*
D02*
G37*
G36*
X466230D02*
X460210D01*
Y461270D01*
X466230D01*
Y465540D01*
D02*
G37*
G36*
X440500Y474000D02*
X404500D01*
Y468214D01*
X403732Y468061D01*
X402657Y467343D01*
X316127Y380814D01*
X293636D01*
X292368Y380561D01*
X291293Y379843D01*
X284764Y373314D01*
X272500D01*
X271232Y373061D01*
X270157Y372343D01*
X257069Y359255D01*
X254458Y360763D01*
X251521Y361550D01*
X248479D01*
X245542Y360763D01*
X242908Y359242D01*
X240758Y357092D01*
X239237Y354458D01*
X238450Y351521D01*
Y348479D01*
X239237Y345542D01*
X240758Y342908D01*
X242908Y340758D01*
X245542Y339237D01*
X248479Y338450D01*
X251521D01*
X254458Y339237D01*
X257092Y340758D01*
X259242Y342908D01*
X260763Y345542D01*
X261550Y348479D01*
Y351521D01*
X260949Y353763D01*
X273873Y366686D01*
X282841D01*
X283327Y365513D01*
X278848Y361034D01*
X276921Y361550D01*
X273879D01*
X270942Y360763D01*
X268308Y359242D01*
X266158Y357092D01*
X264637Y354458D01*
X263850Y351521D01*
Y348479D01*
X264637Y345542D01*
X266158Y342908D01*
X268308Y340758D01*
X270942Y339237D01*
X273879Y338450D01*
X276921D01*
X279858Y339237D01*
X282492Y340758D01*
X284642Y342908D01*
X286163Y345542D01*
X286950Y348479D01*
Y351521D01*
X286163Y354458D01*
X284642Y357092D01*
X284460Y357274D01*
X293873Y366686D01*
X325000D01*
X326268Y366939D01*
X327343Y367657D01*
X401373Y441686D01*
X404500D01*
Y436000D01*
X440500D01*
Y441686D01*
X446242D01*
X447168Y440761D01*
X449005Y440000D01*
X450995D01*
X452832Y440761D01*
X454239Y442168D01*
X455000Y444005D01*
Y445994D01*
X454239Y447832D01*
X452832Y449239D01*
X450995Y450000D01*
X449005D01*
X447168Y449239D01*
X446243Y448314D01*
X440500D01*
Y454000D01*
X404500D01*
Y448314D01*
X400000D01*
X398732Y448061D01*
X397657Y447343D01*
X323627Y373314D01*
X319196D01*
X319098Y373572D01*
X318985Y374584D01*
X319843Y375157D01*
X403327Y458641D01*
X404500Y458154D01*
Y456000D01*
X440500D01*
Y461686D01*
X444941D01*
X445579Y461048D01*
Y460687D01*
X446340Y458849D01*
X447747Y457443D01*
X449584Y456682D01*
X451573D01*
X453411Y457443D01*
X454818Y458849D01*
X455579Y460687D01*
Y462676D01*
X454818Y464514D01*
X453411Y465920D01*
X451573Y466681D01*
X449584D01*
X449396Y466603D01*
X448656Y467343D01*
X447581Y468061D01*
X446313Y468314D01*
X440500D01*
Y474000D01*
D02*
G37*
G36*
X474790Y458730D02*
X468770D01*
Y454460D01*
X474790D01*
Y458730D01*
D02*
G37*
G36*
X466230D02*
X460210D01*
Y454460D01*
X466230D01*
Y458730D01*
D02*
G37*
G36*
X51712Y478000D02*
X48288D01*
X44982Y477114D01*
X42018Y475402D01*
X39597Y472982D01*
X37886Y470018D01*
X37000Y466711D01*
Y463288D01*
X37886Y459982D01*
X39597Y457018D01*
X42018Y454597D01*
X44982Y452886D01*
X48288Y452000D01*
X51712D01*
X55018Y452886D01*
X57982Y454597D01*
X60403Y457018D01*
X62114Y459982D01*
X63000Y463288D01*
Y466711D01*
X62114Y470018D01*
X60403Y472982D01*
X57982Y475402D01*
X55018Y477114D01*
X51712Y478000D01*
D02*
G37*
G36*
X486230Y455790D02*
X479960D01*
Y450520D01*
X486230D01*
Y455790D01*
D02*
G37*
G36*
X509615Y459188D02*
X506270D01*
Y449520D01*
X514738D01*
Y454065D01*
X514348Y456026D01*
X513238Y457688D01*
X511576Y458798D01*
X509615Y459188D01*
D02*
G37*
G36*
X290500Y454000D02*
X254500D01*
Y448314D01*
X251257D01*
X250332Y449239D01*
X248495Y450000D01*
X246506D01*
X244668Y449239D01*
X243261Y447832D01*
X242500Y445994D01*
Y444005D01*
X243261Y442168D01*
X244668Y440761D01*
X246506Y440000D01*
X248495D01*
X250332Y440761D01*
X251257Y441686D01*
X254500D01*
Y436000D01*
X290500D01*
Y454000D01*
D02*
G37*
G36*
X840000Y461869D02*
X828000D01*
X826634Y461597D01*
X825477Y460823D01*
X824703Y459666D01*
X824431Y458300D01*
Y443300D01*
X824703Y441934D01*
X825477Y440777D01*
X826634Y440003D01*
X828000Y439731D01*
X840000D01*
X841366Y440003D01*
X842523Y440777D01*
X843297Y441934D01*
X843569Y443300D01*
Y458300D01*
X843297Y459666D01*
X842523Y460823D01*
X841366Y461597D01*
X840000Y461869D01*
D02*
G37*
G36*
X514738Y446980D02*
X506270D01*
Y437312D01*
X509615D01*
X511576Y437701D01*
X513238Y438812D01*
X514348Y440474D01*
X514738Y442435D01*
Y446980D01*
D02*
G37*
G36*
X823730Y438098D02*
X818200D01*
X817033Y437867D01*
X816044Y437206D01*
X815384Y436217D01*
X815195Y435270D01*
X823730D01*
Y438098D01*
D02*
G37*
G36*
X553500Y534900D02*
X531500D01*
Y520900D01*
Y508200D01*
Y495500D01*
Y482800D01*
Y470100D01*
Y457400D01*
Y444700D01*
Y432276D01*
X531337Y432218D01*
X531138Y432263D01*
X530098Y433124D01*
Y460000D01*
X530000Y460493D01*
Y462245D01*
X529239Y464082D01*
X527832Y465489D01*
X525995Y466250D01*
X524005D01*
X522168Y465489D01*
X520761Y464082D01*
X520000Y462245D01*
Y460493D01*
X519902Y460000D01*
Y434612D01*
X514965Y429674D01*
X513427Y429933D01*
X512849Y430798D01*
X511365Y431790D01*
X509615Y432138D01*
X500385D01*
X498635Y431790D01*
X497151Y430798D01*
X496160Y429315D01*
X495812Y427565D01*
Y426848D01*
X492098D01*
Y429750D01*
X494500D01*
Y440086D01*
X495046Y440270D01*
X495770Y440297D01*
X496762Y438812D01*
X498424Y437701D01*
X500385Y437312D01*
X503730D01*
Y448250D01*
Y459188D01*
X500385D01*
X498424Y458798D01*
X496762Y457688D01*
X495998Y456544D01*
X495240Y455948D01*
X494408Y455790D01*
X488770D01*
Y449250D01*
X487500D01*
Y447980D01*
X479960D01*
Y442796D01*
X479960Y442710D01*
X480500Y441664D01*
X480500Y441440D01*
Y429750D01*
X479317Y429540D01*
X478770D01*
Y422000D01*
Y414460D01*
X483040D01*
Y415000D01*
X492000D01*
Y416652D01*
X495812D01*
Y415935D01*
X496160Y414185D01*
X497151Y412701D01*
X498268Y411956D01*
X498317Y411800D01*
Y410700D01*
X498268Y410544D01*
X497151Y409799D01*
X496160Y408315D01*
X495812Y406565D01*
Y405848D01*
X488730D01*
X486779Y405460D01*
X486091Y405000D01*
X482000D01*
Y399512D01*
X481902Y399020D01*
Y390348D01*
X474000D01*
X473000Y391000D01*
X473000Y391618D01*
Y405000D01*
X463723D01*
X462941Y405139D01*
X462540Y406079D01*
Y410480D01*
X455000D01*
X447460D01*
Y405296D01*
X447460Y405210D01*
X448000Y404164D01*
X448000Y403940D01*
Y392250D01*
X462000D01*
X462296Y392057D01*
X462296Y391495D01*
X461106Y390348D01*
X456000D01*
X455508Y390250D01*
X448000D01*
Y389348D01*
X440500D01*
Y394000D01*
X404500D01*
Y376000D01*
X440500D01*
Y379152D01*
X447147D01*
X447766Y377882D01*
X447460Y377290D01*
X447460Y377204D01*
Y372020D01*
X462540D01*
Y377204D01*
X462540Y377290D01*
X462000Y378336D01*
X462000Y378560D01*
Y380152D01*
X487000D01*
X488951Y380540D01*
X490605Y381645D01*
X491710Y383299D01*
X492098Y385250D01*
Y395652D01*
X495812D01*
Y394935D01*
X496160Y393185D01*
X497151Y391702D01*
X498635Y390710D01*
X500385Y390362D01*
X509615D01*
X511365Y390710D01*
X512849Y391702D01*
X513840Y393185D01*
X514188Y394935D01*
Y406565D01*
X513840Y408315D01*
X512849Y409799D01*
X511732Y410544D01*
X511683Y410700D01*
Y411800D01*
X511732Y411956D01*
X512849Y412701D01*
X513840Y414185D01*
X514188Y415935D01*
Y417402D01*
X515000D01*
X516951Y417790D01*
X518605Y418895D01*
X523013Y423303D01*
X524186Y422817D01*
Y371373D01*
X511128Y358314D01*
X368873D01*
X362343Y364843D01*
X361268Y365561D01*
X360000Y365814D01*
X338700D01*
X337432Y365561D01*
X336357Y364843D01*
X331684Y360171D01*
X330658Y360763D01*
X327721Y361550D01*
X324679D01*
X321742Y360763D01*
X319108Y359242D01*
X316958Y357092D01*
X315437Y354458D01*
X314650Y351521D01*
Y348479D01*
X315437Y345542D01*
X316958Y342908D01*
X319108Y340758D01*
X321742Y339237D01*
X324679Y338450D01*
X327721D01*
X330658Y339237D01*
X333292Y340758D01*
X335442Y342908D01*
X336963Y345542D01*
X337750Y348479D01*
Y351521D01*
X336963Y354458D01*
X336370Y355484D01*
X340073Y359186D01*
X342793D01*
X343279Y358013D01*
X342358Y357092D01*
X340837Y354458D01*
X340050Y351521D01*
Y348479D01*
X340837Y345542D01*
X342358Y342908D01*
X344508Y340758D01*
X347142Y339237D01*
X350079Y338450D01*
X353121D01*
X356058Y339237D01*
X358692Y340758D01*
X360842Y342908D01*
X362363Y345542D01*
X363150Y348479D01*
Y351521D01*
X362657Y353361D01*
X363796Y354018D01*
X365157Y352657D01*
X366232Y351939D01*
X367500Y351686D01*
X512500D01*
X513768Y351939D01*
X514843Y352657D01*
X529843Y367657D01*
X530230Y368236D01*
X531500Y367851D01*
Y365615D01*
X531232Y365561D01*
X530157Y364843D01*
X525157Y359843D01*
X524439Y358768D01*
X524186Y357500D01*
Y317500D01*
X524439Y316232D01*
X525157Y315157D01*
X579408Y260905D01*
X578689Y259829D01*
X577974Y260125D01*
X575985D01*
X574147Y259364D01*
X573097Y258314D01*
X571536D01*
X571010Y259584D01*
X571218Y259792D01*
X571980Y261630D01*
Y263619D01*
X571218Y265457D01*
X569812Y266864D01*
X567974Y267625D01*
X565985D01*
X564147Y266864D01*
X563097Y265814D01*
X544404D01*
X543136Y265561D01*
X542061Y264843D01*
X526385Y249168D01*
X525667Y248093D01*
X525415Y246825D01*
Y246750D01*
X522500D01*
Y233250D01*
X531230D01*
X532500Y233250D01*
Y233250D01*
X532500D01*
Y233250D01*
X534586D01*
Y229927D01*
X534228Y229831D01*
X531822Y228442D01*
X529858Y226478D01*
X528469Y224072D01*
X527750Y221389D01*
Y218611D01*
X528469Y215928D01*
X529858Y213522D01*
X531822Y211558D01*
X534228Y210169D01*
X536911Y209450D01*
X539689D01*
X542372Y210169D01*
X544778Y211558D01*
X546742Y213522D01*
X548131Y215928D01*
X548850Y218611D01*
Y221389D01*
X548131Y224072D01*
X546742Y226478D01*
X544778Y228442D01*
X542372Y229831D01*
X541214Y230141D01*
Y233250D01*
X542500D01*
Y246750D01*
X534999D01*
X534513Y247923D01*
X545776Y259186D01*
X553304D01*
X553402Y258928D01*
X553515Y257916D01*
X552657Y257343D01*
X550157Y254843D01*
X549439Y253768D01*
X549186Y252500D01*
Y246750D01*
X547500D01*
Y233250D01*
X557500D01*
Y246750D01*
X555814D01*
Y251127D01*
X556373Y251686D01*
X573347D01*
X574147Y250886D01*
X575985Y250125D01*
X577974D01*
X579812Y250886D01*
X581218Y252292D01*
X581980Y254130D01*
Y256119D01*
X581684Y256834D01*
X582760Y257554D01*
X585786Y254527D01*
Y230034D01*
X585028Y229831D01*
X582622Y228442D01*
X580658Y226478D01*
X579269Y224072D01*
X578550Y221389D01*
Y218611D01*
X579269Y215928D01*
X580658Y213522D01*
X582622Y211558D01*
X585028Y210169D01*
X587711Y209450D01*
X590489D01*
X593172Y210169D01*
X595578Y211558D01*
X597542Y213522D01*
X598931Y215928D01*
X599650Y218611D01*
Y221389D01*
X598931Y224072D01*
X597542Y226478D01*
X595578Y228442D01*
X593172Y229831D01*
X592414Y230034D01*
Y255900D01*
X592363Y256155D01*
X593533Y256780D01*
X611186Y239128D01*
Y230034D01*
X610428Y229831D01*
X608022Y228442D01*
X606058Y226478D01*
X604669Y224072D01*
X603950Y221389D01*
Y218611D01*
X604669Y215928D01*
X606058Y213522D01*
X608022Y211558D01*
X610428Y210169D01*
X613111Y209450D01*
X615889D01*
X618572Y210169D01*
X620978Y211558D01*
X622942Y213522D01*
X624331Y215928D01*
X625050Y218611D01*
Y221389D01*
X624331Y224072D01*
X622942Y226478D01*
X620978Y228442D01*
X618572Y229831D01*
X617814Y230034D01*
Y240500D01*
X617561Y241768D01*
X616843Y242843D01*
X571054Y288632D01*
X571580Y289902D01*
X659902D01*
Y212112D01*
X647888Y200098D01*
X502112D01*
X492628Y209582D01*
X492719Y210831D01*
X493978Y211558D01*
X495942Y213522D01*
X497331Y215928D01*
X498050Y218611D01*
Y221389D01*
X497331Y224072D01*
X495942Y226478D01*
X493978Y228442D01*
X491572Y229831D01*
X488889Y230550D01*
X486111D01*
X483428Y229831D01*
X481022Y228442D01*
X479058Y226478D01*
X478261Y225098D01*
X258076D01*
X230098Y253076D01*
Y339837D01*
X231692Y340758D01*
X233842Y342908D01*
X235363Y345542D01*
X236150Y348479D01*
Y351521D01*
X235363Y354458D01*
X233842Y357092D01*
X231692Y359242D01*
X229058Y360763D01*
X226121Y361550D01*
X223079D01*
X220142Y360763D01*
X217508Y359242D01*
X215358Y357092D01*
X213837Y354458D01*
X213050Y351521D01*
Y348479D01*
X213837Y345542D01*
X215358Y342908D01*
X217508Y340758D01*
X219902Y339376D01*
Y254598D01*
X89548D01*
X89320Y256327D01*
X88615Y258030D01*
X87493Y259492D01*
X86030Y260614D01*
X84327Y261320D01*
X82500Y261560D01*
X72500D01*
X70673Y261320D01*
X68970Y260614D01*
X67508Y259492D01*
X66385Y258030D01*
X65680Y256327D01*
X65440Y254500D01*
Y244500D01*
X65680Y242673D01*
X66385Y240970D01*
X67508Y239508D01*
X68970Y238386D01*
X70673Y237680D01*
X72500Y237440D01*
X82500D01*
X84327Y237680D01*
X86030Y238386D01*
X87493Y239508D01*
X88615Y240970D01*
X89320Y242673D01*
X89548Y244402D01*
X223535D01*
X224217Y244538D01*
X252360Y216395D01*
X254014Y215290D01*
X255965Y214902D01*
X478261D01*
X479058Y213522D01*
X481022Y211558D01*
X482402Y210761D01*
Y207500D01*
X482790Y205549D01*
X483895Y203895D01*
X496395Y191395D01*
X498049Y190290D01*
X500000Y189902D01*
X650000D01*
X651951Y190290D01*
X653605Y191395D01*
X668605Y206395D01*
X669710Y208049D01*
X670098Y210000D01*
Y290388D01*
X671105Y291395D01*
X671105Y291395D01*
X718605Y338895D01*
X719710Y340549D01*
X720098Y342500D01*
Y371035D01*
X720132Y371061D01*
X721368Y371436D01*
X721395Y371395D01*
X721813Y371116D01*
X722168Y370761D01*
X722632Y370569D01*
X723049Y370290D01*
X723542Y370192D01*
X724005Y370000D01*
X724508D01*
X725000Y369902D01*
X728319D01*
X728660Y368185D01*
X729651Y366702D01*
X731135Y365710D01*
X732885Y365362D01*
X742115D01*
X743865Y365710D01*
X745349Y366702D01*
X746340Y368185D01*
X746688Y369935D01*
Y370652D01*
X752902D01*
Y367750D01*
X750500D01*
Y356060D01*
X750500Y355836D01*
X749960Y354790D01*
X749960Y354704D01*
Y349520D01*
X765040D01*
Y354704D01*
X765040Y354790D01*
X764500Y355836D01*
X764500Y356060D01*
Y358436D01*
X777500D01*
Y355000D01*
X786492D01*
X786902Y354500D01*
Y338000D01*
X787000Y337508D01*
Y331000D01*
X795210D01*
Y328770D01*
X809790D01*
Y332402D01*
X815388D01*
X817402Y330388D01*
Y315000D01*
Y306500D01*
X817000D01*
Y301992D01*
X816902Y301500D01*
Y299500D01*
X817000Y299007D01*
Y292500D01*
X827000D01*
Y299007D01*
X827098Y299500D01*
Y299882D01*
X827210Y300049D01*
X827598Y302000D01*
Y315000D01*
Y332500D01*
X827210Y334451D01*
X826105Y336105D01*
X821105Y341105D01*
X819451Y342210D01*
X817500Y342598D01*
X797098D01*
Y352388D01*
X813881Y369172D01*
X815151Y368646D01*
Y367950D01*
X815241Y367500D01*
X815195Y367270D01*
X825000D01*
Y366000D01*
X826270D01*
Y361901D01*
X831800D01*
X832967Y362133D01*
X833956Y362794D01*
X834616Y363783D01*
X834849Y364950D01*
Y366481D01*
X836119Y367007D01*
X836426Y366699D01*
X838356Y365900D01*
X840444D01*
X842374Y366699D01*
X843851Y368176D01*
X844650Y370106D01*
Y372194D01*
X844261Y373132D01*
X845110Y374402D01*
X848485D01*
X850436Y374790D01*
X852090Y375895D01*
X855605Y379410D01*
X856710Y381064D01*
X857098Y383015D01*
Y419564D01*
X856710Y421515D01*
X855605Y423168D01*
X854803Y423970D01*
X854239Y425332D01*
X852832Y426739D01*
X850995Y427500D01*
X849005D01*
X847168Y426739D01*
X846294Y425865D01*
X844967Y425953D01*
X844307Y426978D01*
X844650Y427806D01*
Y429894D01*
X843851Y431824D01*
X842374Y433301D01*
X840444Y434100D01*
X838356D01*
X836426Y433301D01*
X836119Y432993D01*
X834849Y433519D01*
Y435050D01*
X834616Y436217D01*
X833956Y437206D01*
X832967Y437867D01*
X831800Y438098D01*
X826270D01*
Y434000D01*
X825000D01*
Y432730D01*
X815195D01*
X815241Y432500D01*
X815195Y432270D01*
X825000D01*
Y429730D01*
X815195D01*
X815384Y428783D01*
X815898Y428014D01*
X815892Y428006D01*
X815702Y427050D01*
Y424950D01*
X815791Y424500D01*
X815702Y424050D01*
Y421950D01*
X815892Y420994D01*
X816389Y420250D01*
X815892Y419506D01*
X815702Y418550D01*
Y416450D01*
X815892Y415494D01*
X816222Y415000D01*
X815892Y414506D01*
X815702Y413550D01*
Y411450D01*
X815835Y410782D01*
X815790Y410542D01*
X815633Y410284D01*
X814559Y410231D01*
X814373Y410290D01*
X814157Y410414D01*
X813314Y411257D01*
Y452500D01*
X816750D01*
Y462500D01*
X790750D01*
Y452500D01*
X794186D01*
Y405000D01*
X794439Y403732D01*
X795157Y402657D01*
X802657Y395157D01*
X803732Y394439D01*
X805000Y394186D01*
X806243D01*
X807168Y393261D01*
X809005Y392500D01*
X810995D01*
X812832Y393261D01*
X813757Y394186D01*
X815180D01*
X815702Y393550D01*
Y391450D01*
X815892Y390494D01*
X816222Y390000D01*
X815892Y389506D01*
X815702Y388550D01*
Y386450D01*
X815892Y385494D01*
X816222Y385000D01*
X815892Y384506D01*
X815702Y383550D01*
Y381450D01*
X815892Y380494D01*
X816389Y379750D01*
X815892Y379006D01*
X815820Y378646D01*
X814626Y378053D01*
X814433Y378053D01*
X813451Y378710D01*
X811500Y379098D01*
X809549Y378710D01*
X807895Y377605D01*
X801213Y370923D01*
X800040Y371409D01*
Y374480D01*
X784960D01*
Y374022D01*
X783690Y373496D01*
X783073Y374113D01*
X782000Y374830D01*
Y382500D01*
X773040D01*
Y383040D01*
X768770D01*
Y375500D01*
X766230D01*
Y383040D01*
X761960D01*
Y382500D01*
X753000D01*
Y380848D01*
X746688D01*
Y381565D01*
X746340Y383315D01*
X745349Y384799D01*
X744232Y385544D01*
X744183Y385700D01*
Y386800D01*
X744232Y386956D01*
X745349Y387701D01*
X746340Y389185D01*
X746688Y390935D01*
Y394402D01*
X753000D01*
Y392500D01*
X763000D01*
Y399007D01*
X763098Y399500D01*
Y407102D01*
X763627Y407631D01*
X764368Y407895D01*
X765210Y407460D01*
X765296Y407460D01*
X771252D01*
X772000Y406500D01*
X772000Y406190D01*
Y392500D01*
X782000D01*
Y396186D01*
X784695D01*
X785500Y395250D01*
Y383560D01*
X785500Y383336D01*
X784960Y382290D01*
X784960Y382204D01*
Y377020D01*
X800040D01*
Y382204D01*
X800040Y382290D01*
X799500Y383336D01*
X799500Y383560D01*
Y395250D01*
X795814D01*
Y397500D01*
X795561Y398768D01*
X794843Y399843D01*
X792843Y401843D01*
X791768Y402561D01*
X790500Y402814D01*
X782000D01*
Y406500D01*
X779038D01*
X778290Y407460D01*
X778290Y407770D01*
Y413730D01*
X771750D01*
Y415000D01*
X770480D01*
Y422540D01*
X765296D01*
X765210Y422540D01*
X764164Y422000D01*
X763940Y422000D01*
X752250D01*
Y408000D01*
X752902D01*
Y404598D01*
X746151D01*
X745349Y405798D01*
X743865Y406790D01*
X742115Y407138D01*
X732885D01*
X731135Y406790D01*
X729651Y405798D01*
X728660Y404315D01*
X728312Y402565D01*
Y400013D01*
X724915D01*
X722964Y399625D01*
X721310Y398520D01*
X711395Y388605D01*
X710290Y386951D01*
X709902Y385000D01*
Y344612D01*
X665388Y300098D01*
X626443D01*
X625957Y301271D01*
X627186Y302500D01*
X628495D01*
X630332Y303261D01*
X631739Y304668D01*
X632500Y306505D01*
Y308495D01*
X631739Y310332D01*
X630332Y311739D01*
X628495Y312500D01*
X626505D01*
X624668Y311739D01*
X623261Y310332D01*
X622500Y308495D01*
Y307186D01*
X620002Y304688D01*
X617550D01*
X616701Y305958D01*
X616980Y306630D01*
Y307939D01*
X619010Y309969D01*
X619039Y309975D01*
X620114Y310693D01*
X624843Y315422D01*
X625561Y316497D01*
X625814Y317765D01*
Y440341D01*
X626987Y440827D01*
X636686Y431128D01*
Y311257D01*
X635761Y310332D01*
X635000Y308495D01*
Y306505D01*
X635761Y304668D01*
X637168Y303261D01*
X639005Y302500D01*
X640995D01*
X642832Y303261D01*
X644239Y304668D01*
X645000Y306505D01*
Y308495D01*
X644239Y310332D01*
X643314Y311257D01*
Y432500D01*
X643061Y433768D01*
X642343Y434843D01*
X559843Y517343D01*
X558768Y518061D01*
X557500Y518314D01*
X553500D01*
Y520900D01*
Y534900D01*
D02*
G37*
G36*
X26519Y436540D02*
X26270D01*
Y426270D01*
X36540D01*
Y426519D01*
X35754Y429454D01*
X34234Y432086D01*
X32086Y434234D01*
X29454Y435754D01*
X26519Y436540D01*
D02*
G37*
G36*
X23730D02*
X23481D01*
X20546Y435754D01*
X17914Y434234D01*
X15766Y432086D01*
X14246Y429454D01*
X13460Y426519D01*
Y426270D01*
X23730D01*
Y436540D01*
D02*
G37*
G36*
X742115Y434188D02*
X738770D01*
Y424520D01*
X747238D01*
Y429065D01*
X746849Y431026D01*
X745738Y432688D01*
X744076Y433798D01*
X742115Y434188D01*
D02*
G37*
G36*
X736230D02*
X732885D01*
X730924Y433798D01*
X729262Y432688D01*
X728152Y431026D01*
X727762Y429065D01*
Y424520D01*
X736230D01*
Y434188D01*
D02*
G37*
G36*
X50000Y448362D02*
X46606Y447915D01*
X43444Y446605D01*
X40728Y444522D01*
X38644Y441806D01*
X37335Y438644D01*
X36888Y435250D01*
Y434750D01*
X37335Y431356D01*
X38644Y428194D01*
X40728Y425478D01*
X43444Y423395D01*
X46606Y422085D01*
X50000Y421638D01*
X53394Y422085D01*
X56556Y423395D01*
X59272Y425478D01*
X61356Y428194D01*
X62665Y431356D01*
X63112Y434750D01*
Y435250D01*
X62665Y438644D01*
X61356Y441806D01*
X59272Y444522D01*
X56556Y446605D01*
X53394Y447915D01*
X50000Y448362D01*
D02*
G37*
G36*
X440500Y434000D02*
X404500D01*
Y416000D01*
X440500D01*
Y421686D01*
X446243D01*
X447168Y420761D01*
X449005Y420000D01*
X450995D01*
X452832Y420761D01*
X454239Y422168D01*
X455000Y424005D01*
Y425995D01*
X454239Y427832D01*
X452832Y429239D01*
X450995Y430000D01*
X449005D01*
X447168Y429239D01*
X446243Y428314D01*
X440500D01*
Y434000D01*
D02*
G37*
G36*
X773020Y422540D02*
Y416270D01*
X778290D01*
Y422540D01*
X773020D01*
D02*
G37*
G36*
X290500Y434000D02*
X254500D01*
Y416000D01*
X290500D01*
Y434000D01*
D02*
G37*
G36*
X474250Y450000D02*
X460750D01*
Y440000D01*
X464120D01*
X464159Y438730D01*
X463261Y437832D01*
X462500Y435994D01*
Y434005D01*
X463261Y432168D01*
X464668Y430761D01*
X464686Y430753D01*
Y429000D01*
X463000D01*
Y419369D01*
X462540Y418290D01*
X461730Y418290D01*
X456270D01*
Y413020D01*
X462540D01*
Y413921D01*
X463000Y415000D01*
X463810Y415000D01*
X471960D01*
Y414460D01*
X476230D01*
Y422000D01*
Y429540D01*
X471960D01*
X471314Y430542D01*
Y431743D01*
X471739Y432168D01*
X472500Y434005D01*
Y435994D01*
X471739Y437832D01*
X470841Y438730D01*
X470880Y440000D01*
X474250D01*
Y450000D01*
D02*
G37*
G36*
X36540Y423730D02*
X26270D01*
Y413460D01*
X26519D01*
X29454Y414246D01*
X32086Y415766D01*
X34234Y417914D01*
X35754Y420546D01*
X36540Y423481D01*
Y423730D01*
D02*
G37*
G36*
X23730D02*
X13460D01*
Y423481D01*
X14246Y420546D01*
X15766Y417914D01*
X17914Y415766D01*
X20546Y414246D01*
X23481Y413460D01*
X23730D01*
Y423730D01*
D02*
G37*
G36*
X453730Y418290D02*
X447460D01*
Y413020D01*
X453730D01*
Y418290D01*
D02*
G37*
G36*
X747238Y421980D02*
X738770D01*
Y412312D01*
X742115D01*
X744076Y412702D01*
X745738Y413812D01*
X746849Y415474D01*
X747238Y417435D01*
Y421980D01*
D02*
G37*
G36*
X736230D02*
X727762D01*
Y417435D01*
X728152Y415474D01*
X729262Y413812D01*
X730924Y412702D01*
X732885Y412312D01*
X736230D01*
Y421980D01*
D02*
G37*
G36*
X290500Y414000D02*
X254500D01*
Y396000D01*
X290500D01*
Y414000D01*
D02*
G37*
G36*
X122040Y392540D02*
X115770D01*
Y388270D01*
X122040D01*
Y392540D01*
D02*
G37*
G36*
X113230D02*
X106960D01*
Y388270D01*
X113230D01*
Y392540D01*
D02*
G37*
G36*
X122040Y385730D02*
X115770D01*
Y381460D01*
X122040D01*
Y385730D01*
D02*
G37*
G36*
X113230D02*
X106960D01*
Y381460D01*
X113230D01*
Y385730D01*
D02*
G37*
G36*
X97500Y382500D02*
X83500D01*
Y380814D01*
X81750D01*
Y382500D01*
X68250D01*
Y372500D01*
X81750D01*
Y374186D01*
X83500D01*
Y372500D01*
X97500D01*
Y382500D01*
D02*
G37*
G36*
X509615Y385188D02*
X506270D01*
Y375520D01*
X514738D01*
Y380065D01*
X514348Y382026D01*
X513238Y383688D01*
X511576Y384798D01*
X509615Y385188D01*
D02*
G37*
G36*
X503730D02*
X500385D01*
X498424Y384798D01*
X496762Y383688D01*
X495652Y382026D01*
X495262Y380065D01*
Y375520D01*
X503730D01*
Y385188D01*
D02*
G37*
G36*
X462540Y369480D02*
X456270D01*
Y364210D01*
X462540D01*
Y369480D01*
D02*
G37*
G36*
X453730D02*
X447460D01*
Y364210D01*
X453730D01*
Y369480D01*
D02*
G37*
G36*
X26448Y386000D02*
X23552D01*
X20754Y385250D01*
X18246Y383802D01*
X16198Y381754D01*
X14750Y379246D01*
X14000Y376448D01*
Y373552D01*
X14750Y370754D01*
X16198Y368246D01*
X18246Y366198D01*
X20754Y364750D01*
X23552Y364000D01*
X26448D01*
X29246Y364750D01*
X31754Y366198D01*
X33802Y368246D01*
X35250Y370754D01*
X36000Y373552D01*
Y376448D01*
X35250Y379246D01*
X33802Y381754D01*
X31754Y383802D01*
X29246Y385250D01*
X26448Y386000D01*
D02*
G37*
G36*
X514738Y372980D02*
X506270D01*
Y363312D01*
X509615D01*
X511576Y363702D01*
X513238Y364812D01*
X514348Y366474D01*
X514738Y368435D01*
Y372980D01*
D02*
G37*
G36*
X503730D02*
X495262D01*
Y368435D01*
X495652Y366474D01*
X496762Y364812D01*
X498424Y363702D01*
X500385Y363312D01*
X503730D01*
Y372980D01*
D02*
G37*
G36*
X823730Y364730D02*
X815195D01*
X815384Y363783D01*
X816044Y362794D01*
X817033Y362133D01*
X818200Y361901D01*
X823730D01*
Y364730D01*
D02*
G37*
G36*
X51712Y378000D02*
X48288D01*
X44982Y377114D01*
X42018Y375402D01*
X39597Y372982D01*
X37886Y370018D01*
X37000Y366711D01*
Y363288D01*
X37886Y359982D01*
X39597Y357018D01*
X42018Y354597D01*
X44982Y352886D01*
X48288Y352000D01*
X51712D01*
X55018Y352886D01*
X57982Y354597D01*
X60403Y357018D01*
X62114Y359982D01*
X63000Y363288D01*
Y366711D01*
X62114Y370018D01*
X60403Y372982D01*
X57982Y375402D01*
X55018Y377114D01*
X51712Y378000D01*
D02*
G37*
G36*
X210290Y361090D02*
X200470D01*
Y351270D01*
X210290D01*
Y361090D01*
D02*
G37*
G36*
X197930D02*
X188110D01*
Y351270D01*
X197930D01*
Y361090D01*
D02*
G37*
G36*
X742115Y360188D02*
X738770D01*
Y350520D01*
X747238D01*
Y355065D01*
X746849Y357026D01*
X745738Y358688D01*
X744076Y359798D01*
X742115Y360188D01*
D02*
G37*
G36*
X736230D02*
X732885D01*
X730924Y359798D01*
X729262Y358688D01*
X728152Y357026D01*
X727762Y355065D01*
Y350520D01*
X736230D01*
Y360188D01*
D02*
G37*
G36*
X765040Y346980D02*
X758770D01*
Y341710D01*
X765040D01*
Y346980D01*
D02*
G37*
G36*
X756230D02*
X749960D01*
Y341710D01*
X756230D01*
Y346980D01*
D02*
G37*
G36*
X210290Y348730D02*
X200470D01*
Y338910D01*
X210290D01*
Y348730D01*
D02*
G37*
G36*
X197930D02*
X188110D01*
Y338910D01*
X197930D01*
Y348730D01*
D02*
G37*
G36*
X302321Y361550D02*
X299279D01*
X296342Y360763D01*
X293708Y359242D01*
X291558Y357092D01*
X290037Y354458D01*
X289250Y351521D01*
Y348479D01*
X290037Y345542D01*
X291558Y342908D01*
X293708Y340758D01*
X296342Y339237D01*
X299279Y338450D01*
X302321D01*
X305258Y339237D01*
X307892Y340758D01*
X310042Y342908D01*
X311563Y345542D01*
X312350Y348479D01*
Y351521D01*
X311563Y354458D01*
X310042Y357092D01*
X307892Y359242D01*
X305258Y360763D01*
X302321Y361550D01*
D02*
G37*
G36*
X747238Y347980D02*
X738770D01*
Y338312D01*
X742115D01*
X744076Y338702D01*
X745738Y339812D01*
X746849Y341474D01*
X747238Y343435D01*
Y347980D01*
D02*
G37*
G36*
X736230D02*
X727762D01*
Y343435D01*
X728152Y341474D01*
X729262Y339812D01*
X730924Y338702D01*
X732885Y338312D01*
X736230D01*
Y347980D01*
D02*
G37*
G36*
X880600Y360263D02*
X871000D01*
X869751Y360014D01*
X868693Y359307D01*
X867986Y358248D01*
X867737Y357000D01*
Y341400D01*
X867986Y340151D01*
X868693Y339093D01*
X869751Y338386D01*
X871000Y338137D01*
X880600D01*
X881849Y338386D01*
X882907Y339093D01*
X883614Y340151D01*
X883863Y341400D01*
Y357000D01*
X883614Y358248D01*
X882907Y359307D01*
X881849Y360014D01*
X880600Y360263D01*
D02*
G37*
G36*
X840000Y360269D02*
X828000D01*
X826634Y359997D01*
X825477Y359223D01*
X824703Y358066D01*
X824431Y356700D01*
Y341700D01*
X824703Y340334D01*
X825477Y339177D01*
X826634Y338403D01*
X828000Y338131D01*
X840000D01*
X841366Y338403D01*
X842523Y339177D01*
X843297Y340334D01*
X843569Y341700D01*
Y356700D01*
X843297Y358066D01*
X842523Y359223D01*
X841366Y359997D01*
X840000Y360269D01*
D02*
G37*
G36*
X121500Y373000D02*
X107500D01*
Y363000D01*
X121500D01*
Y364686D01*
X128127D01*
X165000Y327814D01*
Y326505D01*
X165761Y324668D01*
X167168Y323261D01*
X169005Y322500D01*
X170995D01*
X172832Y323261D01*
X174239Y324668D01*
X175000Y326505D01*
Y328495D01*
X174239Y330332D01*
X172832Y331739D01*
X170995Y332500D01*
X169686D01*
X131843Y370343D01*
X130768Y371061D01*
X129500Y371314D01*
X121500D01*
Y373000D01*
D02*
G37*
G36*
X809790Y326230D02*
X803770D01*
Y321960D01*
X809790D01*
Y326230D01*
D02*
G37*
G36*
X801230D02*
X795210D01*
Y321960D01*
X801230D01*
Y326230D01*
D02*
G37*
G36*
X732500Y321750D02*
X722500D01*
Y318314D01*
X718757D01*
X717832Y319239D01*
X715995Y320000D01*
X714005D01*
X712168Y319239D01*
X710761Y317832D01*
X710000Y315995D01*
Y314005D01*
X710761Y312168D01*
X712168Y310761D01*
X714005Y310000D01*
X715995D01*
X717832Y310761D01*
X718757Y311686D01*
X722500D01*
Y308250D01*
X724186D01*
Y304500D01*
X721000D01*
Y294500D01*
X735000D01*
Y304500D01*
X730814D01*
Y308250D01*
X732500D01*
Y321750D01*
D02*
G37*
G36*
X748040Y322290D02*
X743770D01*
Y316270D01*
X748040D01*
Y322290D01*
D02*
G37*
G36*
X741230D02*
X736960D01*
Y316270D01*
X741230D01*
Y322290D01*
D02*
G37*
G36*
X81750Y367500D02*
X68250D01*
Y357500D01*
X71686D01*
Y336000D01*
X70132Y335102D01*
X67898Y332868D01*
X66318Y330132D01*
X65500Y327080D01*
Y323920D01*
X66318Y320868D01*
X67898Y318132D01*
X70132Y315898D01*
X72868Y314318D01*
X75920Y313500D01*
X79080D01*
X82132Y314318D01*
X84868Y315898D01*
X87102Y318132D01*
X88682Y320868D01*
X89500Y323920D01*
Y327080D01*
X88682Y330132D01*
X87102Y332868D01*
X84868Y335102D01*
X82132Y336682D01*
X79080Y337500D01*
X78314D01*
Y357500D01*
X81750D01*
Y367500D01*
D02*
G37*
G36*
X748040Y313730D02*
X743770D01*
Y307710D01*
X748040D01*
Y313730D01*
D02*
G37*
G36*
X741230D02*
X736960D01*
Y307710D01*
X741230D01*
Y313730D01*
D02*
G37*
G36*
X759000Y295000D02*
X745000D01*
Y285000D01*
X759000D01*
Y286686D01*
X760750D01*
Y285000D01*
X774250D01*
Y295000D01*
X760750D01*
Y293314D01*
X759000D01*
Y295000D01*
D02*
G37*
G36*
X735000Y285500D02*
X721000D01*
Y283564D01*
X711007D01*
X710332Y284239D01*
X708495Y285000D01*
X706505D01*
X704668Y284239D01*
X703261Y282832D01*
X702500Y280995D01*
Y279005D01*
X703261Y277168D01*
X704668Y275761D01*
X706505Y275000D01*
X708495D01*
X710332Y275761D01*
X711507Y276936D01*
X721000D01*
Y275500D01*
X724186D01*
Y271750D01*
X722500D01*
Y258250D01*
X732500D01*
Y271750D01*
X730814D01*
Y275500D01*
X735000D01*
Y285500D01*
D02*
G37*
G36*
X748040Y272290D02*
X743770D01*
Y266270D01*
X748040D01*
Y272290D01*
D02*
G37*
G36*
X741230D02*
X736960D01*
Y266270D01*
X741230D01*
Y272290D01*
D02*
G37*
G36*
X748040Y263730D02*
X743770D01*
Y257710D01*
X748040D01*
Y263730D01*
D02*
G37*
G36*
X741230D02*
X736960D01*
Y257710D01*
X741230D01*
Y263730D01*
D02*
G37*
G36*
X783481Y237990D02*
X783370D01*
Y228770D01*
X792590D01*
Y228881D01*
X791875Y231549D01*
X790494Y233941D01*
X788541Y235894D01*
X786149Y237275D01*
X783481Y237990D01*
D02*
G37*
G36*
X780830D02*
X780719D01*
X778051Y237275D01*
X775659Y235894D01*
X773706Y233941D01*
X772325Y231549D01*
X771610Y228881D01*
Y228770D01*
X780830D01*
Y237990D01*
D02*
G37*
G36*
X565160Y231090D02*
X564970D01*
Y221270D01*
X574790D01*
Y221460D01*
X574034Y224281D01*
X572574Y226809D01*
X570509Y228874D01*
X567981Y230334D01*
X565160Y231090D01*
D02*
G37*
G36*
X562430D02*
X562240D01*
X559419Y230334D01*
X556891Y228874D01*
X554826Y226809D01*
X553366Y224281D01*
X552610Y221460D01*
Y221270D01*
X562430D01*
Y231090D01*
D02*
G37*
G36*
X792590Y226230D02*
X783370D01*
Y217010D01*
X783481D01*
X786149Y217725D01*
X788541Y219106D01*
X790494Y221059D01*
X791875Y223451D01*
X792590Y226119D01*
Y226230D01*
D02*
G37*
G36*
X780830D02*
X771610D01*
Y226119D01*
X772325Y223451D01*
X773706Y221059D01*
X775659Y219106D01*
X778051Y217725D01*
X780719Y217010D01*
X780830D01*
Y226230D01*
D02*
G37*
G36*
X650450Y230550D02*
X629350D01*
Y209450D01*
X650450D01*
Y230550D01*
D02*
G37*
G36*
X517500Y246750D02*
X507500D01*
Y233250D01*
X509386D01*
Y229981D01*
X508828Y229831D01*
X506422Y228442D01*
X504458Y226478D01*
X503069Y224072D01*
X502350Y221389D01*
Y218611D01*
X503069Y215928D01*
X504458Y213522D01*
X506422Y211558D01*
X508828Y210169D01*
X511511Y209450D01*
X514289D01*
X516972Y210169D01*
X519378Y211558D01*
X521342Y213522D01*
X522731Y215928D01*
X523450Y218611D01*
Y221389D01*
X522731Y224072D01*
X521342Y226478D01*
X519378Y228442D01*
X516972Y229831D01*
X516014Y230088D01*
Y233250D01*
X517500D01*
Y246750D01*
D02*
G37*
G36*
X574790Y218730D02*
X564970D01*
Y208910D01*
X565160D01*
X567981Y209666D01*
X570509Y211126D01*
X572574Y213191D01*
X574034Y215719D01*
X574790Y218540D01*
Y218730D01*
D02*
G37*
G36*
X562430D02*
X552610D01*
Y218540D01*
X553366Y215719D01*
X554826Y213191D01*
X556891Y211126D01*
X559419Y209666D01*
X562240Y208910D01*
X562430D01*
Y218730D01*
D02*
G37*
G36*
X26519Y186540D02*
X26270D01*
Y176270D01*
X36540D01*
Y176519D01*
X35754Y179454D01*
X34234Y182086D01*
X32086Y184234D01*
X29454Y185754D01*
X26519Y186540D01*
D02*
G37*
G36*
X23730D02*
X23481D01*
X20546Y185754D01*
X17914Y184234D01*
X15766Y182086D01*
X14246Y179454D01*
X13460Y176519D01*
Y176270D01*
X23730D01*
Y186540D01*
D02*
G37*
G36*
X50000Y198362D02*
X46606Y197915D01*
X43444Y196605D01*
X40728Y194522D01*
X38644Y191806D01*
X37335Y188644D01*
X36888Y185250D01*
Y184750D01*
X37335Y181356D01*
X38644Y178194D01*
X40728Y175478D01*
X43444Y173395D01*
X46606Y172085D01*
X50000Y171638D01*
X53394Y172085D01*
X56556Y173395D01*
X59272Y175478D01*
X61356Y178194D01*
X62665Y181356D01*
X63112Y184750D01*
Y185250D01*
X62665Y188644D01*
X61356Y191806D01*
X59272Y194522D01*
X56556Y196605D01*
X53394Y197915D01*
X50000Y198362D01*
D02*
G37*
G36*
X36540Y173730D02*
X26270D01*
Y163460D01*
X26519D01*
X29454Y164247D01*
X32086Y165766D01*
X34234Y167914D01*
X35754Y170546D01*
X36540Y173481D01*
Y173730D01*
D02*
G37*
G36*
X23730D02*
X13460D01*
Y173481D01*
X14246Y170546D01*
X15766Y167914D01*
X17914Y165766D01*
X20546Y164247D01*
X23481Y163460D01*
X23730D01*
Y173730D01*
D02*
G37*
G36*
X26448Y136000D02*
X23552D01*
X20754Y135250D01*
X18246Y133802D01*
X16198Y131754D01*
X14750Y129246D01*
X14000Y126448D01*
Y123552D01*
X14750Y120754D01*
X16198Y118246D01*
X18246Y116198D01*
X20754Y114750D01*
X23552Y114000D01*
X26448D01*
X29246Y114750D01*
X31754Y116198D01*
X33802Y118246D01*
X35250Y120754D01*
X36000Y123552D01*
Y126448D01*
X35250Y129246D01*
X33802Y131754D01*
X31754Y133802D01*
X29246Y135250D01*
X26448Y136000D01*
D02*
G37*
G36*
X97220Y125040D02*
X96270D01*
Y103770D01*
X117540D01*
Y104720D01*
X116674Y109075D01*
X114975Y113177D01*
X112508Y116868D01*
X109368Y120008D01*
X105677Y122475D01*
X101575Y124174D01*
X97220Y125040D01*
D02*
G37*
G36*
X93730D02*
X92780D01*
X88425Y124174D01*
X84323Y122475D01*
X80632Y120008D01*
X77492Y116868D01*
X75025Y113177D01*
X73326Y109075D01*
X72460Y104720D01*
Y103770D01*
X93730D01*
Y125040D01*
D02*
G37*
G36*
X51712Y128000D02*
X48288D01*
X44982Y127114D01*
X42018Y125402D01*
X39597Y122982D01*
X37886Y120018D01*
X37000Y116712D01*
Y113288D01*
X37886Y109982D01*
X39597Y107018D01*
X42018Y104597D01*
X44982Y102886D01*
X48288Y102000D01*
X51712D01*
X55018Y102886D01*
X57982Y104597D01*
X60403Y107018D01*
X62114Y109982D01*
X63000Y113288D01*
Y116712D01*
X62114Y120018D01*
X60403Y122982D01*
X57982Y125402D01*
X55018Y127114D01*
X51712Y128000D01*
D02*
G37*
G36*
X117540Y101230D02*
X96270D01*
Y79960D01*
X97220D01*
X101575Y80826D01*
X105677Y82525D01*
X109368Y84992D01*
X112508Y88132D01*
X114975Y91823D01*
X116674Y95925D01*
X117540Y100280D01*
Y101230D01*
D02*
G37*
G36*
X93730D02*
X72460D01*
Y100280D01*
X73326Y95925D01*
X75025Y91823D01*
X77492Y88132D01*
X80632Y84992D01*
X84323Y82525D01*
X88425Y80826D01*
X92780Y79960D01*
X93730D01*
Y101230D01*
D02*
G37*
G36*
X862220Y62540D02*
X861270D01*
Y41270D01*
X882540D01*
Y42220D01*
X881674Y46575D01*
X879975Y50677D01*
X877508Y54368D01*
X874368Y57508D01*
X870677Y59975D01*
X866575Y61674D01*
X862220Y62540D01*
D02*
G37*
G36*
X858730D02*
X857780D01*
X853425Y61674D01*
X849323Y59975D01*
X845632Y57508D01*
X842492Y54368D01*
X840025Y50677D01*
X838326Y46575D01*
X837460Y42220D01*
Y41270D01*
X858730D01*
Y62540D01*
D02*
G37*
G36*
X42220D02*
X41270D01*
Y41270D01*
X62540D01*
Y42220D01*
X61674Y46575D01*
X59975Y50677D01*
X57508Y54368D01*
X54368Y57508D01*
X50677Y59975D01*
X46575Y61674D01*
X42220Y62540D01*
D02*
G37*
G36*
X38730D02*
X37780D01*
X33425Y61674D01*
X29323Y59975D01*
X25632Y57508D01*
X22492Y54368D01*
X20025Y50677D01*
X18326Y46575D01*
X17460Y42220D01*
Y41270D01*
X38730D01*
Y62540D01*
D02*
G37*
G36*
X882540Y38730D02*
X861270D01*
Y17460D01*
X862220D01*
X866575Y18326D01*
X870677Y20025D01*
X874368Y22492D01*
X877508Y25632D01*
X879975Y29323D01*
X881674Y33425D01*
X882540Y37780D01*
Y38730D01*
D02*
G37*
G36*
X858730D02*
X837460D01*
Y37780D01*
X838326Y33425D01*
X840025Y29323D01*
X842492Y25632D01*
X845632Y22492D01*
X849323Y20025D01*
X853425Y18326D01*
X857780Y17460D01*
X858730D01*
Y38730D01*
D02*
G37*
G36*
X62540D02*
X41270D01*
Y17460D01*
X42220D01*
X46575Y18326D01*
X50677Y20025D01*
X54368Y22492D01*
X57508Y25632D01*
X59975Y29323D01*
X61674Y33425D01*
X62540Y37780D01*
Y38730D01*
D02*
G37*
G36*
X38730D02*
X17460D01*
Y37780D01*
X18326Y33425D01*
X20025Y29323D01*
X22492Y25632D01*
X25632Y22492D01*
X29323Y20025D01*
X33425Y18326D01*
X37780Y17460D01*
X38730D01*
Y38730D01*
D02*
G37*
%LPD*%
G36*
X871686Y498627D02*
Y471372D01*
X868627Y468314D01*
X846373D01*
X845814Y468872D01*
Y473000D01*
X849250D01*
X850210Y472460D01*
Y472460D01*
X855480D01*
Y480000D01*
X856750D01*
Y481270D01*
X863290D01*
Y487460D01*
Y493730D01*
X856750D01*
Y496270D01*
X863290D01*
Y502540D01*
X862500D01*
Y504186D01*
X866127D01*
X871686Y498627D01*
D02*
G37*
%LPC*%
G36*
X863290Y478730D02*
X858020D01*
Y472460D01*
X863290D01*
Y478730D01*
D02*
G37*
%LPD*%
G36*
X589186Y373627D02*
Y310000D01*
X589439Y308732D01*
X590157Y307657D01*
X596543Y301271D01*
X596057Y300098D01*
X572112D01*
X568520Y303690D01*
X569046Y304960D01*
X572980D01*
Y312500D01*
X574250D01*
Y313770D01*
X580790D01*
Y317460D01*
Y323730D01*
X574250D01*
Y325000D01*
X572980D01*
Y332540D01*
X567710Y332540D01*
X567598Y333764D01*
Y372500D01*
X567210Y374451D01*
X566105Y376105D01*
X563605Y378605D01*
X561951Y379710D01*
X560000Y380098D01*
X553500D01*
Y382500D01*
X531500D01*
X530814Y383486D01*
Y392914D01*
X531500Y393900D01*
X553500D01*
Y397586D01*
X565228D01*
X589186Y373627D01*
D02*
G37*
%LPC*%
G36*
X575520Y332540D02*
Y326270D01*
X580790D01*
Y332540D01*
X575520D01*
D02*
G37*
G36*
X580790Y311230D02*
X575520D01*
Y304960D01*
X580790D01*
Y311230D01*
D02*
G37*
%LPD*%
D12*
X598981Y319982D02*
X605000Y326001D01*
Y395000D01*
X557500Y502500D02*
X561250Y498750D01*
X566250D01*
X622500Y317765D02*
Y442500D01*
X566250Y498750D02*
X622500Y442500D01*
X681550Y363750D02*
X682500Y362800D01*
X667500Y363750D02*
X681550D01*
X727500Y490000D02*
X732500Y495000D01*
X747500D01*
X727500Y480000D02*
X757500D01*
X760000Y482500D01*
X681747Y477853D02*
X682500Y477100D01*
X665151Y477853D02*
X681747D01*
X650000Y497500D02*
X657700Y489800D01*
X682500D01*
X760000Y482500D02*
Y495000D01*
X662000Y469614D02*
Y470500D01*
X667214Y464400D02*
X682500D01*
X662000Y469614D02*
X667214Y464400D01*
X487000Y435000D02*
X487500D01*
X527500Y370000D02*
Y425000D01*
X367500Y355000D02*
X512500D01*
X527500Y370000D01*
X640000Y307500D02*
Y432500D01*
X129500Y368000D02*
X170000Y327500D01*
X114500Y368000D02*
X129500D01*
X527500Y425000D02*
X530000Y427500D01*
X541300D01*
X422500Y425000D02*
X422500Y425000D01*
X450000D01*
X541300Y427500D02*
X542500Y426300D01*
X715000Y315000D02*
X727500D01*
X698800Y426300D02*
X700000Y427500D01*
X682500Y426300D02*
X698800D01*
X681800Y387500D02*
X682500Y388200D01*
X667500Y387500D02*
X681800D01*
X683400Y400000D02*
X695000D01*
X682500Y400900D02*
X683400Y400000D01*
X683600Y412500D02*
X700000D01*
X682500Y413600D02*
X683600Y412500D01*
X668000Y375500D02*
X682500D01*
X667500Y375000D02*
X668000Y375500D01*
X592500Y310000D02*
X601125Y301375D01*
X592500Y310000D02*
Y375000D01*
X566600Y400900D02*
X592500Y375000D01*
X542500Y400900D02*
X566600D01*
X601125Y301375D02*
X621375D01*
X627500Y307500D01*
X657500Y363661D02*
Y385000D01*
X467500Y435000D02*
Y445000D01*
X682500Y439000D02*
X683625Y440125D01*
X699480D01*
X422500Y465000D02*
X446313D01*
X449632Y461681D01*
X450579D01*
X400000Y445000D02*
X422500D01*
X468000Y422000D02*
Y434500D01*
X422500Y445000D02*
X450000D01*
X405000Y465000D02*
X422500D01*
X671061Y350100D02*
X682500D01*
X657500Y363661D02*
X671061Y350100D01*
X617000Y322051D02*
Y408000D01*
X561035Y462500D02*
X561768Y463232D01*
X562500Y463965D01*
Y485000D01*
Y462500D02*
Y463965D01*
Y462500D02*
X617000Y408000D01*
X542500Y464400D02*
X544400Y462500D01*
X561035D01*
X615790Y320841D02*
X617000Y322051D01*
X292500Y370000D02*
X325000D01*
X400000Y445000D01*
X293636Y377500D02*
X317500D01*
X405000Y465000D01*
X272500Y370000D02*
X286136D01*
X252500Y350000D02*
X272500Y370000D01*
X250000Y350000D02*
X252500D01*
X286136Y370000D02*
X293636Y377500D01*
X275000Y352500D02*
X292500Y370000D01*
X275000Y350400D02*
Y352500D01*
Y350400D02*
X275400Y350000D01*
X247500Y445000D02*
X272500D01*
X247500Y465000D02*
X272500D01*
X422500Y505000D02*
X450000D01*
X422500Y485000D02*
X422500Y485000D01*
X450000D01*
X422500Y385000D02*
X423250Y384250D01*
X360000Y362500D02*
X367500Y355000D01*
X612500Y325454D02*
Y397500D01*
X557500Y452500D02*
X612500Y397500D01*
X607534Y320488D02*
X612500Y325454D01*
X615790Y319894D02*
Y320841D01*
X839125Y319839D02*
X839250Y319715D01*
X839125Y319839D02*
Y320000D01*
X842785Y319715D02*
X849514Y312985D01*
X839250Y319715D02*
X842785D01*
X849514Y300647D02*
Y312985D01*
Y300647D02*
X849962Y300200D01*
X607534Y319696D02*
Y320488D01*
X561000Y439000D02*
X605000Y395000D01*
X617771Y313036D02*
X622500Y317765D01*
X611980Y307625D02*
X617391Y313036D01*
X617771D01*
X727500Y315000D02*
X727500Y315000D01*
Y280000D02*
X727750Y280250D01*
X707500Y280000D02*
X707750Y280250D01*
X727750D02*
X728000Y280500D01*
X707750Y280250D02*
X727750D01*
X699200Y451700D02*
X700000Y452500D01*
X682500Y451700D02*
X699200D01*
X528729Y241229D02*
Y246825D01*
X527500Y240000D02*
X528729Y241229D01*
Y246825D02*
X544404Y262500D01*
X567500D01*
X557500Y515000D02*
X640000Y432500D01*
X555000Y255000D02*
X577500D01*
X527500Y317500D02*
X589100Y255900D01*
X527500Y317500D02*
Y357500D01*
X589100Y220000D02*
Y255900D01*
X552500Y240000D02*
Y252500D01*
X555000Y255000D01*
X542500Y439000D02*
X561000D01*
X543300Y452500D02*
X557500D01*
X542500Y451700D02*
X543300Y452500D01*
X542500Y312500D02*
Y350100D01*
Y312500D02*
X614500Y240500D01*
Y220000D02*
Y240500D01*
X542500Y375000D02*
Y375500D01*
Y375000D02*
X542500Y375000D01*
X527500Y357500D02*
X532500Y362500D01*
X542200D02*
X542500Y362800D01*
X532500Y362500D02*
X542200D01*
X556400Y413600D02*
X557500Y412500D01*
X542500Y413600D02*
X556400D01*
X542500Y515200D02*
X542700Y515000D01*
X557500D01*
X542500Y502500D02*
X557500D01*
X326200Y350000D02*
X338700Y362500D01*
X360000D01*
X814180Y103320D02*
X815000Y102500D01*
X726000Y280500D02*
X728000D01*
X833417Y425500D02*
X836637Y422280D01*
X827500Y425500D02*
X833417D01*
X836389Y422031D02*
X837751Y420670D01*
X849330D01*
X825000Y423000D02*
X827500Y425500D01*
X825250Y425750D02*
X827500D01*
X831750Y374250D02*
X834531Y377031D01*
X825031D02*
X834531D01*
X825250Y374250D02*
X831750D01*
X850000Y421564D02*
Y422500D01*
X847650Y422350D02*
X849330Y420670D01*
X836708Y422350D02*
X847650D01*
X787500Y275000D02*
X787500Y275000D01*
X796448Y253552D02*
X798552D01*
X798750Y253750D01*
X797500Y492500D02*
Y512500D01*
X802500Y517500D01*
X825000Y426000D02*
X825250Y425750D01*
X825000Y374000D02*
X825250Y374250D01*
X845000Y465000D02*
X870000D01*
X842500Y467500D02*
Y479250D01*
Y467500D02*
X845000Y465000D01*
X842500Y479250D02*
X843250Y480000D01*
X870000Y465000D02*
X875000Y470000D01*
Y500000D01*
X867500Y507500D02*
X875000Y500000D01*
X857500Y507500D02*
X867500D01*
X736750Y375000D02*
X737500Y375750D01*
X512700Y220200D02*
Y239800D01*
Y220200D02*
X512900Y220000D01*
X512500Y240000D02*
X512700Y239800D01*
X537900Y220400D02*
Y239600D01*
X537500Y240000D02*
X537900Y239600D01*
Y220400D02*
X538300Y220000D01*
X487000Y435250D02*
X487500Y435750D01*
X487000Y422000D02*
X487250Y421750D01*
X455250Y398000D02*
X468000D01*
X455000Y398250D02*
X455250Y398000D01*
X848039Y276761D02*
X850000Y274800D01*
X848039Y276761D02*
Y284461D01*
X845000Y287500D02*
X848039Y284461D01*
X805000Y287500D02*
X845000D01*
X803000Y285500D02*
X805000Y287500D01*
X803000Y275500D02*
Y285500D01*
X802500Y312500D02*
X803000Y312000D01*
Y299500D02*
Y312000D01*
X792000Y338000D02*
X792500Y337500D01*
X807500Y227500D02*
X814180Y220820D01*
X75000Y328000D02*
Y362500D01*
Y328000D02*
X77500Y325500D01*
X90500Y377500D02*
X90500Y377500D01*
X75000Y377500D02*
X90500D01*
X767500Y290000D02*
X767500Y290000D01*
X752000Y290000D02*
X767500D01*
X727500Y265000D02*
Y280000D01*
Y300000D02*
X728000Y299500D01*
X727500Y300000D02*
Y315000D01*
X811500Y374000D02*
X825000D01*
X757500Y361750D02*
X758000Y362250D01*
X757750Y375750D02*
X758000Y375500D01*
X792500Y389250D02*
Y397500D01*
X790500Y399500D02*
X792500Y397500D01*
X777000Y399500D02*
X790500D01*
X778730Y371770D02*
X780730D01*
X782500Y370000D01*
X777000Y373500D02*
Y375500D01*
Y373500D02*
X778730Y371770D01*
X782500Y362000D02*
Y370000D01*
X782250Y361750D02*
X782500Y362000D01*
X757500Y361750D02*
X782250D01*
X767500Y510000D02*
X770000Y512500D01*
X760000Y510000D02*
X767500D01*
X777500Y512500D02*
X777500Y512500D01*
X770000Y512500D02*
X777500D01*
X747500Y510000D02*
Y516012D01*
X748988Y517500D02*
X777500D01*
X747500Y516012D02*
X748988Y517500D01*
X797500Y405000D02*
X805000Y397500D01*
X835000Y495000D02*
X843250D01*
X828512D02*
X835000D01*
X835512Y392500D02*
X838047Y389965D01*
X825000Y392500D02*
X835512D01*
X838047Y389965D02*
X838598D01*
X839926Y397730D02*
X840304Y398108D01*
X825230Y397730D02*
X839926D01*
X825000Y397500D02*
X825230Y397730D01*
X825000Y377000D02*
X825031Y377031D01*
X840000Y407500D02*
X840000Y407500D01*
X825000Y407500D02*
X840000D01*
X825000Y397500D02*
X825000Y397500D01*
X810000Y397500D02*
X825000D01*
X810000Y397500D02*
X810000Y397500D01*
X815000Y402500D02*
X825000D01*
X810000Y407500D02*
X815000Y402500D01*
X810000Y407500D02*
Y457500D01*
X805000Y397500D02*
X810000D01*
X797500Y405000D02*
Y457500D01*
X827500Y507500D02*
X842500D01*
X827500Y493988D02*
X828512Y495000D01*
X826012Y492500D02*
X827500Y493988D01*
X817500Y492500D02*
X826012D01*
X827500Y493988D02*
Y502500D01*
X817500Y480000D02*
X843250D01*
X812520Y484980D02*
X817500Y480000D01*
X812500Y492500D02*
X812520Y492480D01*
Y484980D02*
Y492480D01*
X807500Y482500D02*
Y492500D01*
Y482500D02*
X810000Y480000D01*
Y472500D02*
Y480000D01*
X797500Y472500D02*
Y480000D01*
X802480Y484980D01*
Y492480D02*
X802500Y492500D01*
X802480Y484980D02*
Y492480D01*
D13*
X680173Y515507D02*
G03*
X680171Y515507I-1029J-7934D01*
G01*
X649838Y553716D02*
G03*
X650000Y555317I-7838J1601D01*
G01*
X649838Y553716D02*
G03*
X679827Y515553I31076J-6444D01*
G01*
X440224Y545000D02*
G03*
X446226Y547734I-20J8000D01*
G01*
D02*
G03*
X450000Y577418I-20275J17659D01*
G01*
X253384Y547343D02*
G03*
X253388Y547339I5657J5657D01*
G01*
X250000Y555000D02*
G03*
X252916Y547811I14914J1864D01*
G01*
X679827Y515553D02*
X680171Y515507D01*
X680173Y515507D02*
X680191Y515505D01*
X682500Y515200D01*
X650000Y555317D02*
Y594800D01*
X450000Y577418D02*
Y594800D01*
X422500Y545000D02*
X440224D01*
X253388Y547339D02*
X255727Y545000D01*
X272500D01*
X252916Y547811D02*
X253384Y547343D01*
X250000Y555000D02*
Y594800D01*
D14*
X272500Y385000D02*
D03*
Y405000D02*
D03*
Y425000D02*
D03*
Y445000D02*
D03*
Y465000D02*
D03*
Y485000D02*
D03*
Y505000D02*
D03*
Y525000D02*
D03*
Y545000D02*
D03*
X422500D02*
D03*
Y525000D02*
D03*
Y505000D02*
D03*
Y485000D02*
D03*
Y465000D02*
D03*
Y445000D02*
D03*
Y425000D02*
D03*
Y405000D02*
D03*
Y385000D02*
D03*
D15*
X624600Y591750D02*
D03*
X675400D02*
D03*
X224600D02*
D03*
X275400D02*
D03*
X424600D02*
D03*
X475400D02*
D03*
D16*
X650000Y594800D02*
D03*
X250000D02*
D03*
X450000D02*
D03*
D17*
X467500Y445000D02*
D03*
Y460000D02*
D03*
X802500Y312500D02*
D03*
Y327500D02*
D03*
X767500Y290000D02*
D03*
Y275000D02*
D03*
X797500Y457500D02*
D03*
Y472500D02*
D03*
X760000Y510000D02*
D03*
Y495000D02*
D03*
X747500Y510000D02*
D03*
Y495000D02*
D03*
X75000Y377500D02*
D03*
Y362500D02*
D03*
X810000Y457500D02*
D03*
Y472500D02*
D03*
D18*
X574250Y312500D02*
D03*
X560750D02*
D03*
X574250Y325000D02*
D03*
X560750D02*
D03*
X771750Y415000D02*
D03*
X758250D02*
D03*
X856750Y480000D02*
D03*
X843250D02*
D03*
Y495000D02*
D03*
X856750D02*
D03*
D19*
X682500Y502500D02*
D03*
Y515200D02*
D03*
X542500Y527900D02*
D03*
Y515200D02*
D03*
X682500Y527900D02*
D03*
Y362800D02*
D03*
Y375500D02*
D03*
Y388200D02*
D03*
Y400900D02*
D03*
Y413600D02*
D03*
Y426300D02*
D03*
Y451700D02*
D03*
Y464400D02*
D03*
Y477100D02*
D03*
Y489800D02*
D03*
Y350100D02*
D03*
X542500Y502500D02*
D03*
Y489800D02*
D03*
Y477100D02*
D03*
Y464400D02*
D03*
Y451700D02*
D03*
Y439000D02*
D03*
Y413600D02*
D03*
Y400900D02*
D03*
Y388200D02*
D03*
Y375500D02*
D03*
Y362800D02*
D03*
Y350100D02*
D03*
X682500Y439000D02*
D03*
X542500Y426300D02*
D03*
D20*
X782500Y362000D02*
D03*
X792000Y338000D02*
D03*
X773000D02*
D03*
X803000Y299500D02*
D03*
X822000D02*
D03*
Y275500D02*
D03*
X812500D02*
D03*
X803000D02*
D03*
X758000Y399500D02*
D03*
X777000D02*
D03*
Y375500D02*
D03*
X767500D02*
D03*
X758000D02*
D03*
X487000Y398000D02*
D03*
X468000D02*
D03*
Y422000D02*
D03*
X477500D02*
D03*
X487000D02*
D03*
D21*
X792500Y375750D02*
D03*
Y389250D02*
D03*
X757500Y348250D02*
D03*
Y361750D02*
D03*
X455000Y398250D02*
D03*
Y411750D02*
D03*
X487500Y435750D02*
D03*
Y449250D02*
D03*
X455000Y384250D02*
D03*
Y370750D02*
D03*
D22*
X837500Y320000D02*
D03*
X822500D02*
D03*
X742500Y315000D02*
D03*
X727500D02*
D03*
X742500Y265000D02*
D03*
X727500D02*
D03*
X552500Y240000D02*
D03*
X537500D02*
D03*
X842500Y507500D02*
D03*
X857500D02*
D03*
X527500Y240000D02*
D03*
X512500D02*
D03*
D23*
X737500Y349250D02*
D03*
Y375750D02*
D03*
Y423250D02*
D03*
Y396750D02*
D03*
X505000Y448250D02*
D03*
Y421750D02*
D03*
Y374250D02*
D03*
Y400750D02*
D03*
D24*
X752000Y290000D02*
D03*
X728000Y280500D02*
D03*
Y299500D02*
D03*
X90500Y377500D02*
D03*
X114500Y387000D02*
D03*
Y368000D02*
D03*
D25*
X825000Y366000D02*
D03*
Y377000D02*
D03*
Y382500D02*
D03*
Y392500D02*
D03*
Y407500D02*
D03*
Y417500D02*
D03*
Y423000D02*
D03*
Y431000D02*
D03*
Y434000D02*
D03*
Y426000D02*
D03*
Y412500D02*
D03*
Y402500D02*
D03*
Y397500D02*
D03*
Y387500D02*
D03*
Y374000D02*
D03*
Y369000D02*
D03*
D26*
X875800Y450800D02*
D03*
Y349200D02*
D03*
D27*
X834000D02*
D03*
Y450800D02*
D03*
D28*
X827500Y502500D02*
D03*
Y507500D02*
D03*
Y512500D02*
D03*
X777500Y502500D02*
D03*
Y507500D02*
D03*
Y512500D02*
D03*
X827500Y522500D02*
D03*
Y527500D02*
D03*
Y532500D02*
D03*
X777500Y522500D02*
D03*
Y527500D02*
D03*
Y532500D02*
D03*
X827500Y517500D02*
D03*
X777500D02*
D03*
D29*
X817500Y492500D02*
D03*
X812500D02*
D03*
X807500D02*
D03*
X797500D02*
D03*
X792500D02*
D03*
X787500D02*
D03*
X817500Y542500D02*
D03*
X812500D02*
D03*
X807500D02*
D03*
X797500D02*
D03*
X792500D02*
D03*
X787500D02*
D03*
X802500Y492500D02*
D03*
Y542500D02*
D03*
D61*
Y517500D02*
D03*
D62*
X525000Y432500D02*
Y460000D01*
X515000Y422500D02*
X525000Y432500D01*
X562500Y302500D02*
Y372500D01*
X505750Y422500D02*
X515000D01*
X505000Y421750D02*
X505750Y422500D01*
X562500Y302500D02*
X570000Y295000D01*
X667500D01*
X423250Y384250D02*
X455000D01*
X456000Y385250D02*
X487000D01*
X455000Y384250D02*
X456000Y385250D01*
X650000Y195000D02*
X665000Y210000D01*
Y292500D02*
X667500Y295000D01*
X665000Y210000D02*
Y292500D01*
X667500Y295000D02*
X715000Y342500D01*
Y385000D01*
X737500Y396750D02*
X740250Y399500D01*
X735665Y394915D02*
X737500Y396750D01*
X487250Y421750D02*
X505000D01*
X225000Y250965D02*
X255965Y220000D01*
X487500D01*
X560000Y375000D02*
X562500Y372500D01*
X542500Y375000D02*
X560000D01*
X487000Y435000D02*
Y435250D01*
Y422000D02*
Y435000D01*
X715000Y385000D02*
X724915Y394915D01*
X725000Y375000D02*
X736750D01*
X724915Y394915D02*
X735665D01*
X477500Y410000D02*
Y422000D01*
X837000Y379500D02*
X848485D01*
X852000Y383015D02*
Y419564D01*
X848485Y379500D02*
X852000Y383015D01*
X850000Y421564D02*
X852000Y419564D01*
X822500Y315000D02*
Y332500D01*
Y302000D02*
Y315000D01*
X822000Y299500D02*
Y301500D01*
X822500Y302000D01*
X822000Y259500D02*
Y275500D01*
X767500Y275000D02*
X787500D01*
X223535Y249500D02*
X225000Y250965D01*
X77500Y249500D02*
X223535D01*
X225000Y250965D02*
Y350000D01*
X500000Y195000D02*
X650000D01*
X487500Y207500D02*
Y220000D01*
Y207500D02*
X500000Y195000D01*
X487000Y398000D02*
Y399020D01*
X488730Y400750D01*
X505000D01*
X487000Y385250D02*
Y398000D01*
X792500Y337500D02*
X817500D01*
X822500Y332500D01*
X773000Y324500D02*
Y338000D01*
X792000D02*
Y354500D01*
X811500Y374000D01*
X758000Y362250D02*
Y375500D01*
X737500Y375750D02*
X757750D01*
X740250Y399500D02*
X758000D01*
Y414750D01*
X758250Y415000D01*
D63*
X834531Y377031D02*
X837000Y379500D01*
D64*
X816250Y253750D02*
X822000Y259500D01*
X807500Y253750D02*
X816250D01*
X798750D02*
X807500D01*
Y227500D02*
Y253750D01*
X787500Y275000D02*
Y310000D01*
Y262500D02*
Y275000D01*
Y262500D02*
X796448Y253552D01*
X773000Y324500D02*
X787500Y310000D01*
X814180Y103320D02*
Y220820D01*
D65*
X850000Y300200D02*
D03*
D66*
Y274800D02*
D03*
D67*
X77500Y249500D02*
D03*
D68*
Y325500D02*
D03*
D69*
X815000Y102500D02*
D03*
X95000D02*
D03*
X860000Y580000D02*
D03*
Y40000D02*
D03*
X40000D02*
D03*
Y580000D02*
D03*
D70*
X199200Y350000D02*
D03*
X639900Y220000D02*
D03*
D71*
X224600Y350000D02*
D03*
X250000D02*
D03*
X275400D02*
D03*
X300800D02*
D03*
X326200D02*
D03*
X351600D02*
D03*
X614500Y220000D02*
D03*
X589100D02*
D03*
X563700D02*
D03*
X538300D02*
D03*
X512900D02*
D03*
X487500D02*
D03*
D72*
X839400Y428850D02*
D03*
Y371150D02*
D03*
D73*
X782100Y227500D02*
D03*
D74*
X807500D02*
D03*
D75*
X25000Y425000D02*
D03*
Y375000D02*
D03*
Y475000D02*
D03*
Y525000D02*
D03*
Y125000D02*
D03*
Y175000D02*
D03*
D76*
X50000Y435000D02*
D03*
Y535000D02*
D03*
Y185000D02*
D03*
D77*
Y365000D02*
D03*
Y465000D02*
D03*
Y115000D02*
D03*
D78*
X892367Y601814D02*
D03*
Y551814D02*
D03*
Y501814D02*
D03*
Y451814D02*
D03*
Y401814D02*
D03*
Y351814D02*
D03*
Y301814D02*
D03*
Y251814D02*
D03*
Y201814D02*
D03*
Y151814D02*
D03*
Y101814D02*
D03*
Y51814D02*
D03*
X867367Y551814D02*
D03*
X879867Y526814D02*
D03*
Y426814D02*
D03*
X867367Y401814D02*
D03*
X879867Y376814D02*
D03*
Y326814D02*
D03*
X867367Y301814D02*
D03*
X879867Y276814D02*
D03*
X867367Y251814D02*
D03*
X879867Y226814D02*
D03*
X867367Y201814D02*
D03*
X879867Y176814D02*
D03*
X867367Y151814D02*
D03*
X879867Y126814D02*
D03*
X867367Y101814D02*
D03*
X879867Y76814D02*
D03*
X842367Y601814D02*
D03*
Y551814D02*
D03*
X854867Y526814D02*
D03*
Y326814D02*
D03*
X842367Y251814D02*
D03*
X854867Y226814D02*
D03*
X842367Y201814D02*
D03*
X854867Y176814D02*
D03*
X842367Y151814D02*
D03*
X854867Y126814D02*
D03*
Y76814D02*
D03*
X817367Y601814D02*
D03*
X829867Y576814D02*
D03*
X817367Y351814D02*
D03*
X829867Y226814D02*
D03*
Y176814D02*
D03*
X792367Y601814D02*
D03*
X804867Y576814D02*
D03*
X792367Y201814D02*
D03*
X767367Y601814D02*
D03*
X779867Y576814D02*
D03*
X767367Y551814D02*
D03*
X779867Y476814D02*
D03*
X767367Y451814D02*
D03*
X779867Y426814D02*
D03*
X767367Y401814D02*
D03*
Y301814D02*
D03*
Y251814D02*
D03*
Y201814D02*
D03*
X779867Y176814D02*
D03*
X742367Y601814D02*
D03*
X754867Y576814D02*
D03*
X742367Y551814D02*
D03*
X754867Y526814D02*
D03*
X742367Y451814D02*
D03*
X754867Y426814D02*
D03*
Y326814D02*
D03*
X742367Y301814D02*
D03*
X754867Y276814D02*
D03*
X742367Y251814D02*
D03*
X754867Y226814D02*
D03*
X742367Y201814D02*
D03*
X754867Y176814D02*
D03*
X717367Y601814D02*
D03*
X729867Y576814D02*
D03*
X717367Y551814D02*
D03*
X729867Y526814D02*
D03*
X717367Y501814D02*
D03*
X729867Y326814D02*
D03*
X717367Y301814D02*
D03*
Y251814D02*
D03*
X729867Y226814D02*
D03*
X717367Y201814D02*
D03*
X729867Y176814D02*
D03*
X692367Y601814D02*
D03*
X704867Y576814D02*
D03*
X692367Y551814D02*
D03*
X704867Y526814D02*
D03*
Y476814D02*
D03*
X692367Y301814D02*
D03*
Y251814D02*
D03*
X704867Y226814D02*
D03*
X692367Y201814D02*
D03*
X704867Y176814D02*
D03*
X667367Y401814D02*
D03*
X679867Y326814D02*
D03*
Y276814D02*
D03*
Y226814D02*
D03*
Y176814D02*
D03*
X654867Y426814D02*
D03*
Y276814D02*
D03*
Y226814D02*
D03*
Y176814D02*
D03*
X617367Y551814D02*
D03*
X629867Y526814D02*
D03*
Y426814D02*
D03*
Y276814D02*
D03*
X617367Y251814D02*
D03*
X629867Y176814D02*
D03*
X592367Y601814D02*
D03*
X604867Y576814D02*
D03*
X592367Y551814D02*
D03*
X604867Y526814D02*
D03*
Y176814D02*
D03*
X567367Y601814D02*
D03*
X579867Y576814D02*
D03*
X567367Y551814D02*
D03*
X579867Y526814D02*
D03*
Y176814D02*
D03*
X542367Y601814D02*
D03*
X554867Y576814D02*
D03*
X542367Y551814D02*
D03*
X554867Y276814D02*
D03*
Y176814D02*
D03*
X517367Y601814D02*
D03*
X529867Y576814D02*
D03*
X517367Y551814D02*
D03*
Y401814D02*
D03*
Y301814D02*
D03*
X529867Y276814D02*
D03*
X517367Y251814D02*
D03*
X529867Y176814D02*
D03*
X492367Y601814D02*
D03*
X504867Y576814D02*
D03*
X492367Y551814D02*
D03*
X504867Y526814D02*
D03*
X492367Y301814D02*
D03*
X504867Y276814D02*
D03*
X492367Y251814D02*
D03*
X504867Y176814D02*
D03*
X479867Y526814D02*
D03*
Y376814D02*
D03*
X467367Y301814D02*
D03*
X479867Y276814D02*
D03*
X467367Y251814D02*
D03*
Y201814D02*
D03*
X479867Y176814D02*
D03*
X454867Y526814D02*
D03*
X442367Y301814D02*
D03*
X454867Y276814D02*
D03*
X442367Y251814D02*
D03*
Y201814D02*
D03*
X454867Y176814D02*
D03*
X417367Y301814D02*
D03*
X429867Y276814D02*
D03*
X417367Y251814D02*
D03*
Y201814D02*
D03*
X429867Y176814D02*
D03*
X392367Y601814D02*
D03*
X404867Y576814D02*
D03*
X392367Y551814D02*
D03*
Y501814D02*
D03*
Y401814D02*
D03*
Y301814D02*
D03*
X404867Y276814D02*
D03*
X392367Y251814D02*
D03*
Y201814D02*
D03*
X404867Y176814D02*
D03*
X367367Y601814D02*
D03*
X379867Y576814D02*
D03*
X367367Y551814D02*
D03*
X379867Y526814D02*
D03*
X367367Y501814D02*
D03*
X379867Y476814D02*
D03*
X367367Y451814D02*
D03*
Y401814D02*
D03*
X379867Y376814D02*
D03*
X367367Y301814D02*
D03*
X379867Y276814D02*
D03*
X367367Y251814D02*
D03*
Y201814D02*
D03*
X379867Y176814D02*
D03*
X342367Y601814D02*
D03*
X354867Y576814D02*
D03*
X342367Y551814D02*
D03*
X354867Y526814D02*
D03*
X342367Y501814D02*
D03*
X354867Y476814D02*
D03*
X342367Y451814D02*
D03*
X354867Y426814D02*
D03*
Y376814D02*
D03*
X342367Y301814D02*
D03*
X354867Y276814D02*
D03*
X342367Y251814D02*
D03*
Y201814D02*
D03*
X354867Y176814D02*
D03*
X317367Y601814D02*
D03*
X329867Y576814D02*
D03*
X317367Y551814D02*
D03*
X329867Y526814D02*
D03*
X317367Y501814D02*
D03*
X329867Y476814D02*
D03*
X317367Y451814D02*
D03*
X329867Y426814D02*
D03*
X317367Y401814D02*
D03*
Y301814D02*
D03*
X329867Y276814D02*
D03*
X317367Y251814D02*
D03*
Y201814D02*
D03*
X329867Y176814D02*
D03*
X292367Y601814D02*
D03*
X304867Y576814D02*
D03*
Y526814D02*
D03*
Y476814D02*
D03*
Y426814D02*
D03*
X292367Y301814D02*
D03*
X304867Y276814D02*
D03*
X292367Y251814D02*
D03*
Y201814D02*
D03*
X304867Y176814D02*
D03*
X267367Y301814D02*
D03*
X279867Y276814D02*
D03*
X267367Y251814D02*
D03*
Y201814D02*
D03*
X279867Y176814D02*
D03*
X242367Y501814D02*
D03*
Y451814D02*
D03*
Y401814D02*
D03*
Y301814D02*
D03*
X254867Y276814D02*
D03*
X242367Y251814D02*
D03*
Y201814D02*
D03*
X254867Y176814D02*
D03*
X217367Y551814D02*
D03*
X229867Y526814D02*
D03*
X217367Y501814D02*
D03*
X229867Y476814D02*
D03*
X217367Y451814D02*
D03*
X229867Y426814D02*
D03*
X217367Y401814D02*
D03*
X229867Y376814D02*
D03*
Y226814D02*
D03*
X217367Y201814D02*
D03*
X229867Y176814D02*
D03*
X192367Y601814D02*
D03*
X204867Y576814D02*
D03*
X192367Y551814D02*
D03*
X204867Y526814D02*
D03*
X192367Y501814D02*
D03*
X204867Y476814D02*
D03*
X192367Y451814D02*
D03*
X204867Y426814D02*
D03*
X192367Y401814D02*
D03*
X204867Y376814D02*
D03*
X192367Y301814D02*
D03*
X204867Y276814D02*
D03*
Y226814D02*
D03*
X192367Y201814D02*
D03*
X204867Y176814D02*
D03*
X167367Y601814D02*
D03*
X179867Y576814D02*
D03*
X167367Y551814D02*
D03*
X179867Y526814D02*
D03*
X167367Y501814D02*
D03*
X179867Y476814D02*
D03*
X167367Y451814D02*
D03*
X179867Y426814D02*
D03*
X167367Y401814D02*
D03*
X179867Y376814D02*
D03*
X167367Y351814D02*
D03*
Y301814D02*
D03*
X179867Y276814D02*
D03*
Y226814D02*
D03*
X167367Y201814D02*
D03*
X179867Y176814D02*
D03*
X142367Y601814D02*
D03*
X154867Y576814D02*
D03*
X142367Y551814D02*
D03*
X154867Y526814D02*
D03*
X142367Y501814D02*
D03*
X154867Y476814D02*
D03*
X142367Y451814D02*
D03*
X154867Y426814D02*
D03*
X142367Y401814D02*
D03*
X154867Y376814D02*
D03*
X142367Y301814D02*
D03*
X154867Y276814D02*
D03*
Y226814D02*
D03*
X142367Y201814D02*
D03*
X154867Y176814D02*
D03*
X117367Y601814D02*
D03*
X129867Y576814D02*
D03*
X117367Y551814D02*
D03*
X129867Y526814D02*
D03*
X117367Y501814D02*
D03*
X129867Y476814D02*
D03*
X117367Y451814D02*
D03*
X129867Y426814D02*
D03*
X117367Y401814D02*
D03*
X129867Y376814D02*
D03*
X117367Y351814D02*
D03*
X129867Y326814D02*
D03*
X117367Y301814D02*
D03*
X129867Y276814D02*
D03*
X117367Y201814D02*
D03*
X129867Y176814D02*
D03*
X117367Y151814D02*
D03*
Y51814D02*
D03*
X92367Y601814D02*
D03*
X104867Y576814D02*
D03*
X92367Y551814D02*
D03*
X104867Y526814D02*
D03*
X92367Y501814D02*
D03*
X104867Y476814D02*
D03*
X92367Y451814D02*
D03*
X104867Y426814D02*
D03*
X92367Y351814D02*
D03*
X104867Y326814D02*
D03*
X92367Y301814D02*
D03*
X104867Y276814D02*
D03*
Y226814D02*
D03*
X92367Y201814D02*
D03*
X104867Y176814D02*
D03*
X92367Y151814D02*
D03*
X104867Y126814D02*
D03*
Y76814D02*
D03*
X92367Y51814D02*
D03*
X67367Y601814D02*
D03*
X79867Y576814D02*
D03*
X67367Y551814D02*
D03*
X79867Y526814D02*
D03*
X67367Y501814D02*
D03*
X79867Y476814D02*
D03*
X67367Y451814D02*
D03*
Y401814D02*
D03*
Y351814D02*
D03*
Y301814D02*
D03*
X79867Y276814D02*
D03*
Y226814D02*
D03*
X67367Y201814D02*
D03*
Y151814D02*
D03*
X79867Y126814D02*
D03*
X67367Y101814D02*
D03*
X79867Y76814D02*
D03*
X67367Y51814D02*
D03*
X42367Y551814D02*
D03*
Y501814D02*
D03*
Y401814D02*
D03*
X54867Y326814D02*
D03*
X42367Y301814D02*
D03*
X54867Y276814D02*
D03*
X42367Y251814D02*
D03*
X54867Y226814D02*
D03*
X42367Y201814D02*
D03*
Y151814D02*
D03*
X54867Y76814D02*
D03*
X598981Y319982D02*
D03*
X237853Y568433D02*
D03*
Y557433D02*
D03*
X239797Y546606D02*
D03*
X246016Y537533D02*
D03*
X295569Y539080D02*
D03*
Y550080D02*
D03*
X288964Y558876D02*
D03*
X277965Y559069D02*
D03*
X266965D02*
D03*
X262147Y568958D02*
D03*
X437514Y569492D02*
D03*
X433998Y559069D02*
D03*
X422998D02*
D03*
X411998D02*
D03*
X401386Y556174D02*
D03*
X399431Y545349D02*
D03*
X400909Y534449D02*
D03*
X444080Y533268D02*
D03*
X453886Y538252D02*
D03*
X460427Y547096D02*
D03*
X464110Y557461D02*
D03*
X637853Y562384D02*
D03*
X637297Y551398D02*
D03*
X637596Y540402D02*
D03*
X640713Y529853D02*
D03*
X646283Y520368D02*
D03*
X654065Y512593D02*
D03*
X663562Y507043D02*
D03*
X695695Y505103D02*
D03*
X698569Y515721D02*
D03*
X694738Y526032D02*
D03*
X664605Y536485D02*
D03*
X661335Y546988D02*
D03*
X662147Y557958D02*
D03*
Y568958D02*
D03*
X572500Y350000D02*
D03*
Y340000D02*
D03*
X585000D02*
D03*
X565000Y392500D02*
D03*
X557500D02*
D03*
X585000Y350000D02*
D03*
X667500Y363750D02*
D03*
X727500Y490000D02*
D03*
Y480000D02*
D03*
X665151Y477853D02*
D03*
X650000Y497500D02*
D03*
X561250Y498750D02*
D03*
X662000Y470500D02*
D03*
X525000Y461250D02*
D03*
X640000Y307500D02*
D03*
X170000Y327500D02*
D03*
X450000Y425000D02*
D03*
X715000Y315000D02*
D03*
X700000Y427500D02*
D03*
X667500Y387500D02*
D03*
X695000Y400000D02*
D03*
X700000Y412500D02*
D03*
X667500Y375000D02*
D03*
X627500Y307500D02*
D03*
X657500Y385000D02*
D03*
X699480Y440125D02*
D03*
X450579Y461681D02*
D03*
X450000Y445000D02*
D03*
X467500Y435000D02*
D03*
X562500Y485000D02*
D03*
X450000Y505000D02*
D03*
Y485000D02*
D03*
X247500Y445000D02*
D03*
Y465000D02*
D03*
X607534Y319696D02*
D03*
X615790Y319894D02*
D03*
X707500Y280000D02*
D03*
X699480Y452625D02*
D03*
X611980Y307625D02*
D03*
X576980Y255125D02*
D03*
X566980Y262625D02*
D03*
X557500Y412500D02*
D03*
X802500Y517500D02*
D03*
Y506750D02*
D03*
Y528250D02*
D03*
X791750Y517500D02*
D03*
X813000D02*
D03*
X725000Y375000D02*
D03*
X866575Y475334D02*
D03*
Y495334D02*
D03*
X850000Y422500D02*
D03*
X835000Y495000D02*
D03*
X838598Y389965D02*
D03*
X840304Y398108D02*
D03*
X840000Y407500D02*
D03*
X810000Y397500D02*
D03*
Y407500D02*
D03*
M02*
