M48
;Layer_Color=9474304
;FILE_FORMAT=4:2
METRIC,LZ
;TYPE=PLATED
T1F00S00C0.30
T2F00S00C0.90
T3F00S00C1.00
T4F00S00C1.06
T5F00S00C1.14
T6F00S00C1.40
T7F00S00C1.80
T8F00S00C3.20
;TYPE=NON_PLATED
T9F00S00C0.65
%
T01
X000674Y000518
X000924
X001174
X008924
X008799Y000768
X008549
X008674Y001018
X008924
X008799Y001268
X008549
X008674Y001518
X008924
X008799Y001768
X008549
X008299
X008424Y002018
X008674
X008924
X008799Y002268
X008549
X008299
X008424Y002518
X008674
X008924
X008799Y002768
X008924Y003018
X008674
X008799Y003268
X008549
X008924Y003518
X008799Y003768
X008924Y004018
X008674
X008403Y003981
X0084Y004075
X008386Y0039
X0081Y003975
Y004075
X007674Y004018
X007799Y004268
X007549
X007674Y004518
X007424
X006995Y004526
Y004401
X007Y004275
Y004125
X00695Y004
X006674Y004018
X006675Y003875
Y00375
Y003638
X006799Y003268
X006924Y003018
X007174
X00715Y00315
X007299Y003268
X007549
X007674Y003018
X007424
X007549Y002768
X007674Y002518
X007424
X007174
X006924
X007049Y002268
X007299
X007549
X007674Y002018
X007924
X007799Y001768
X007549
X007299
X007049
X006799
X006924Y002018
X007174
X007424
X006799Y002268
Y002768
X007075Y0028
X00725Y00375
X008174Y003518
X0085Y004225
X008799Y004268
X008924Y004518
X00662Y004705
X008424Y001518
X006549Y001768
X006299
X006049
X005799
X005549
X005299
X005049
X004799
X004549
X004299
X004049
X003799
X003549
X003299
X003049
X002799
X002924Y002018
X003174
X003424
X003674
X003924
X004174
X004424
X004674
Y002518
X004924
X005174
X005299Y002768
X005549
X00567Y002626
X00577Y002551
X006174Y002518
X006299Y002768
X006549
X0064Y003075
X006275
X00612Y003076
X006158Y003199
X006075Y003197
X00599Y0032
X00585Y0034
Y0035
X005725Y0035
Y0034
X00565Y003925
X005575
Y004125
X005174Y004018
X004799Y003768
X004675Y00435
X0045Y00425
Y00445
X004506Y004617
X00525Y004612
X006299Y004268
X006549
X006575Y00385
X006549Y002268
X005049Y002768
X004799
X004549
X004299
X004049
X003799
X003549
X003299
X003049
X002799
X002924Y003018
X003174
X003424
X003674
X003924
X004174
X004424
X004674
X004924
X005174
X004424Y002518
X004174
X003924
X003674
X003424
X003174
X002924
X002674
Y003018
Y002018
X003174Y004018
X003299Y004268
X003549
X003674Y004518
X003424
X003174
X003049Y004268
X003674Y004018
X003924
X003799Y003768
X003549
X002299
X002049
X001799
X001549
X001299
X001424Y004018
X001674
X001924
X002174
X002424
X002299Y004268
X002049
X001799
X001549
X001299
X001049
X001174Y004518
X001424
X001674
X001924
X002174
X002424
X002475Y00445
Y00465
X002424Y003018
X002549Y002768
X002424Y002518
X002299Y002268
X002049
X001799
X001549
X001674Y002018
X001924
X002174
X002424
X002549Y001768
X002299
X002049
X001799
X001549
X001299
X001049
X001174Y002018
X001424
X000924
X000674
X000424
X000549Y002268
X000799
X001049
Y002768
X001299
X001549
X001799
X002049
X001924Y003018
X001674
X001424
X001174
X000924
X000674
X000424
X000549Y003268
X000674Y003518
X000924
X001174
X001299Y003268
X001049
X0017Y003275
X001674Y003518
X001174Y004018
X000674
X000424
X000674Y004518
X000924
X000799Y002768
X000549
X000424Y002518
Y001518
X000674
X000924
X001174
X001049Y001268
X000799
X000674Y001018
X000799Y000768
X001049
X000549
X000799Y004768
X001049
X001299
X001549
X001799
X002049
X002299
X002424Y005018
X002174
X001924
X001674
X001424
X001174
X000924
X000674
X000424
Y005518
X000674
X000924
X001174
X001424
X001674
X001924
X002174
X002379Y005574
Y005684
X002398Y005466
X00246Y005375
X002299Y005268
X002049
X001799
X001549
X001299
X001049
X000799
Y005768
X001049
X001299
X001549
X001799
X002049
X001924Y006018
X001674
X001424
X001174
X000924
X000674
X002924
X003174
X003424
X003674
X003924
X004049Y005768
X004014Y005562
X003994Y005453
X004009Y005344
X003924Y005518
X003674
X003424
X003174
X002956Y005501
Y005391
X003049Y005268
X003299
X003549
X003799
X003924Y005018
X003674
X003424
X003174
X003299Y004768
X003549
X003799
X003049
X00289Y005589
X00278Y005591
X00267
X002621Y00569
X003049Y005768
X003299
X003549
X003799
X00412Y005591
X00423
X00434
X004375Y005695
X004641Y005575
X004604Y005471
X004539Y005383
X004549Y005268
X004441Y005333
X0045Y00505
Y00485
X004799Y005268
X005049
X005174Y005518
X005424
X005674
X005924
X006174
X006373Y005514
X006376Y005404
X006407Y005299
X006299Y005268
X006463Y005204
X006541Y005126
X0065Y004975
X006049Y005268
X005799
X005612Y004988
X005625Y00485
X005549Y005768
X005799
X006049
X005924Y006018
X005674
X005424
X005174
X004924
X005049Y005768
X005299
X004924Y005518
X006379Y005624
X006621Y00558
Y00569
X006613Y00547
X006646Y005365
X006636Y00507
X006652Y004779
X007049Y004768
X007275Y0048
Y0049
X007174Y005018
X006957Y005051
X006986Y005157
X006947Y00526
X007049Y005268
X007299
X007549
X007674Y005518
X007424
X007174
X006924
X007049Y005768
X007299
X007549
X007799
X008049
X008299
X008424Y006018
X008174
X007924
X007674
X007424
X007174
X006924
X008025Y005283
Y005175
X00813
X008025Y005067
X007918Y005175
X007799Y004768
X00835Y00495
X008666Y004953
Y004753
X008924Y005018
X008799Y005268
X008549
X008674Y005518
X008924
Y006018
X008424Y005518
T02
X0085Y003002
T03
X0085Y002748
X000775Y002495
Y003255
X00025Y00375
Y00425
Y00175
Y00125
Y00475
Y00525
T04
X007821Y002275
X008075
T05
X002754Y0035
X003008
X003262
X003516
X004875Y0022
X005129
X005383
X005637
X005891
X006145
X006399
X0025Y0035
X002246
X001992
T06
X0005Y00115
Y00185
Y00365
Y00435
Y00465
Y00535
T07
X00815Y001025
X00095
T08
X0004Y0004
X0086
X0004Y0058
X0086
T09
X008394Y003712
Y004288
M30
