G04*
G04 #@! TF.GenerationSoftware,Altium Limited,Altium Designer,23.0.1 (38)*
G04*
G04 Layer_Color=65535*
%FSLAX42Y42*%
%MOMM*%
G71*
G04*
G04 #@! TF.SameCoordinates,16F3061B-E87A-4F88-AD7D-9C805D33B83D*
G04*
G04*
G04 #@! TF.FilePolarity,Positive*
G04*
G01*
G75*
%ADD10C,0.10*%
%ADD11C,0.20*%
%ADD12C,0.12*%
%ADD13C,0.15*%
%ADD14C,0.25*%
D10*
X1977Y3200D02*
G03*
X1977Y3200I-80J0D01*
G01*
X322Y1825D02*
Y3425D01*
X372D01*
X2023Y1825D02*
Y3425D01*
X322Y1825D02*
X372D01*
X1973Y3425D02*
X2023D01*
X1973Y1825D02*
X2023D01*
D11*
X2488Y2920D02*
Y2930D01*
X2562Y2920D02*
Y2930D01*
X2338Y2920D02*
Y2930D01*
X2262Y2920D02*
Y2930D01*
X1050Y4045D02*
X1350D01*
X1050Y4105D02*
X1350D01*
X1050Y4045D02*
Y4105D01*
X1350Y4045D02*
Y4105D01*
X1220Y3838D02*
X1230D01*
X1220Y3762D02*
X1230D01*
X888Y4270D02*
Y4280D01*
X962Y4270D02*
Y4280D01*
X2470Y2450D02*
Y2530D01*
X2370Y2450D02*
X2470D01*
Y2670D02*
Y2750D01*
X2370D02*
X2470D01*
X650Y5867D02*
X1350D01*
X1114Y5703D02*
X1350D01*
X1245Y6154D02*
X1266Y6192D01*
X1271D02*
X1309Y6213D01*
Y6227D01*
X1272Y6248D02*
X1309Y6227D01*
X1272Y6248D02*
X1309Y6269D01*
Y6283D01*
X1272Y6304D02*
X1309Y6283D01*
X1272Y6304D02*
X1309Y6325D01*
Y6339D01*
X1272Y6360D02*
X1309Y6339D01*
X1272Y6360D02*
X1309Y6381D01*
Y6395D01*
X1272Y6416D02*
X1309Y6395D01*
X1272Y6416D02*
X1309Y6437D01*
Y6451D01*
X1272Y6472D02*
X1309Y6451D01*
X1272Y6472D02*
X1309Y6493D01*
Y6507D01*
X1272Y6528D02*
X1309Y6507D01*
X1272Y6528D02*
X1309Y6549D01*
Y6563D01*
X1272Y6584D02*
X1309Y6563D01*
X734Y6584D02*
X1272D01*
X691Y6563D02*
X734Y6584D01*
X691Y6549D02*
Y6563D01*
Y6549D02*
X728Y6528D01*
X691Y6507D02*
X728Y6528D01*
X691Y6493D02*
Y6507D01*
Y6493D02*
X728Y6472D01*
X691Y6451D02*
X728Y6472D01*
X691Y6437D02*
Y6451D01*
Y6437D02*
X728Y6416D01*
X691Y6395D02*
X728Y6416D01*
X691Y6381D02*
Y6395D01*
Y6381D02*
X728Y6360D01*
X691Y6339D02*
X728Y6360D01*
X691Y6325D02*
Y6339D01*
Y6325D02*
X728Y6304D01*
X691Y6283D02*
X728Y6304D01*
X691Y6269D02*
Y6283D01*
Y6269D02*
X728Y6248D01*
X691Y6227D02*
X728Y6248D01*
X691Y6213D02*
Y6227D01*
Y6213D02*
X728Y6192D01*
X1271D01*
X734D02*
X755Y6154D01*
X755D02*
X1245D01*
Y5867D02*
Y6154D01*
X1266Y6584D02*
Y6656D01*
X734D02*
X1266D01*
X734Y6584D02*
Y6656D01*
X755Y5867D02*
Y6154D01*
X691Y6269D02*
X1309Y6213D01*
X691Y6283D02*
X1309Y6227D01*
X728Y6304D02*
X1272Y6248D01*
X728D02*
X1271Y6192D01*
X691Y6213D02*
X1266Y6192D01*
X691Y6227D02*
X1271Y6192D01*
X691Y6325D02*
X1309Y6269D01*
X691Y6339D02*
X1309Y6283D01*
X728Y6360D02*
X1272Y6304D01*
X691Y6381D02*
X1309Y6325D01*
X691Y6395D02*
X1309Y6339D01*
X728Y6416D02*
X1272Y6360D01*
X691Y6437D02*
X1309Y6381D01*
X691Y6451D02*
X1309Y6395D01*
X728Y6472D02*
X1272Y6416D01*
X691Y6493D02*
X1309Y6437D01*
X691Y6507D02*
X1309Y6451D01*
X728Y6528D02*
X1272Y6472D01*
X691Y6549D02*
X1309Y6493D01*
X691Y6563D02*
X1309Y6507D01*
X734Y6584D02*
X1272Y6528D01*
X734Y6584D02*
X1309Y6549D01*
X734Y6584D02*
X1309Y6563D01*
X1350Y5703D02*
Y5867D01*
X650Y5703D02*
Y5867D01*
Y5703D02*
X886D01*
X1916Y4015D02*
Y4035D01*
X1834Y4015D02*
Y4035D01*
D12*
X2748Y2958D02*
X3002D01*
Y1734D02*
Y2958D01*
X2748Y1734D02*
X3002D01*
X2748D02*
Y2958D01*
X896Y73D02*
Y327D01*
X3910D01*
Y73D02*
Y327D01*
X896Y73D02*
X3910D01*
X2350Y3067D02*
X2250D01*
Y3117D01*
X2267Y3133D01*
X2300D01*
X2317Y3117D01*
Y3067D01*
Y3100D02*
X2350Y3133D01*
Y3217D02*
X2250D01*
X2300Y3167D01*
Y3233D01*
X2575Y3083D02*
X2475D01*
Y3133D01*
X2492Y3150D01*
X2525D01*
X2542Y3133D01*
Y3083D01*
Y3117D02*
X2575Y3150D01*
Y3183D02*
Y3217D01*
Y3200D01*
X2475D01*
X2492Y3183D01*
X2425Y2292D02*
Y2358D01*
X2408Y2375D01*
X2375D01*
X2358Y2358D01*
Y2292D01*
X2375Y2275D01*
X2408D01*
X2392Y2308D02*
X2425Y2275D01*
X2408D02*
X2425Y2292D01*
X2458Y2275D02*
X2492D01*
X2475D01*
Y2375D01*
X2458Y2358D01*
X4075Y250D02*
X4042D01*
X4058D01*
Y167D01*
X4042Y150D01*
X4025D01*
X4008Y167D01*
X4108Y150D02*
Y250D01*
X4158D01*
X4175Y233D01*
Y200D01*
X4158Y183D01*
X4108D01*
X4208Y150D02*
X4242D01*
X4225D01*
Y250D01*
X4208Y233D01*
X1408Y4300D02*
Y4217D01*
X1425Y4200D01*
X1458D01*
X1475Y4217D01*
Y4300D01*
X1508Y4200D02*
X1542D01*
X1525D01*
Y4300D01*
X1508Y4283D01*
X1142Y3625D02*
Y3725D01*
X1192D01*
X1208Y3708D01*
Y3675D01*
X1192Y3658D01*
X1142D01*
X1175D02*
X1208Y3625D01*
X1242Y3708D02*
X1258Y3725D01*
X1292D01*
X1308Y3708D01*
Y3692D01*
X1292Y3675D01*
X1275D01*
X1292D01*
X1308Y3658D01*
Y3642D01*
X1292Y3625D01*
X1258D01*
X1242Y3642D01*
X825Y4192D02*
X725D01*
Y4242D01*
X742Y4258D01*
X775D01*
X792Y4242D01*
Y4192D01*
Y4225D02*
X825Y4258D01*
Y4358D02*
Y4292D01*
X758Y4358D01*
X742D01*
X725Y4342D01*
Y4308D01*
X742Y4292D01*
X133Y2600D02*
Y2700D01*
X167Y2667D01*
X200Y2700D01*
Y2600D01*
X233D02*
X267D01*
X250D01*
Y2700D01*
X233Y2683D01*
X1975Y3958D02*
X2075D01*
Y4025D01*
Y4058D02*
Y4092D01*
Y4075D01*
X1975D01*
X1992Y4058D01*
X608Y5125D02*
X575D01*
X592D01*
Y5042D01*
X575Y5025D01*
X558D01*
X542Y5042D01*
X642Y5025D02*
Y5125D01*
X692D01*
X708Y5108D01*
Y5075D01*
X692Y5058D01*
X642D01*
X742Y5108D02*
X758Y5125D01*
X792D01*
X808Y5108D01*
Y5092D01*
X792Y5075D01*
X775D01*
X792D01*
X808Y5058D01*
Y5042D01*
X792Y5025D01*
X758D01*
X742Y5042D01*
X2808Y3150D02*
X2775D01*
X2792D01*
Y3067D01*
X2775Y3050D01*
X2758D01*
X2742Y3067D01*
X2842Y3050D02*
Y3150D01*
X2892D01*
X2908Y3133D01*
Y3100D01*
X2892Y3083D01*
X2842D01*
X3008Y3050D02*
X2942D01*
X3008Y3117D01*
Y3133D01*
X2992Y3150D01*
X2958D01*
X2942Y3133D01*
X2158Y4258D02*
X2142Y4275D01*
X2108D01*
X2092Y4258D01*
Y4192D01*
X2108Y4175D01*
X2142D01*
X2158Y4192D01*
X2258Y4275D02*
X2192D01*
Y4225D01*
X2225Y4242D01*
X2242D01*
X2258Y4225D01*
Y4192D01*
X2242Y4175D01*
X2208D01*
X2192Y4192D01*
X2158Y3858D02*
X2142Y3875D01*
X2108D01*
X2092Y3858D01*
Y3792D01*
X2108Y3775D01*
X2142D01*
X2158Y3792D01*
X2242Y3775D02*
Y3875D01*
X2192Y3825D01*
X2258D01*
X1592Y4033D02*
X1575Y4017D01*
Y3983D01*
X1592Y3967D01*
X1658D01*
X1675Y3983D01*
Y4017D01*
X1658Y4033D01*
X1592Y4067D02*
X1575Y4083D01*
Y4117D01*
X1592Y4133D01*
X1608D01*
X1625Y4117D01*
Y4100D01*
Y4117D01*
X1642Y4133D01*
X1658D01*
X1675Y4117D01*
Y4083D01*
X1658Y4067D01*
X883Y3833D02*
X867Y3850D01*
X833D01*
X817Y3833D01*
Y3767D01*
X833Y3750D01*
X867D01*
X883Y3767D01*
X983Y3750D02*
X917D01*
X983Y3817D01*
Y3833D01*
X967Y3850D01*
X933D01*
X917Y3833D01*
X1200Y4583D02*
X1183Y4600D01*
X1150D01*
X1133Y4583D01*
Y4517D01*
X1150Y4500D01*
X1183D01*
X1200Y4517D01*
X1233Y4500D02*
X1267D01*
X1250D01*
Y4600D01*
X1233Y4583D01*
D13*
X3065Y2790D02*
Y2890D01*
X3115D01*
X3132Y2873D01*
Y2840D01*
X3115Y2823D01*
X3065D01*
X3098D02*
X3132Y2790D01*
X3165Y2890D02*
X3232Y2790D01*
Y2890D02*
X3165Y2790D01*
X3332Y2890D02*
X3265D01*
Y2790D01*
X3332D01*
X3265Y2840D02*
X3298D01*
X3365Y2790D02*
Y2890D01*
X3432Y2790D01*
Y2890D01*
X3040Y2640D02*
X3107D01*
X3073D01*
Y2540D01*
X3140Y2640D02*
X3207Y2540D01*
Y2640D02*
X3140Y2540D01*
X3307Y2640D02*
X3240D01*
Y2540D01*
X3307D01*
X3240Y2590D02*
X3273D01*
X3340Y2540D02*
Y2640D01*
X3407Y2540D01*
Y2640D01*
X3065Y2415D02*
Y2315D01*
X3115D01*
X3132Y2332D01*
Y2398D01*
X3115Y2415D01*
X3065D01*
X3165D02*
X3198D01*
X3182D01*
Y2315D01*
X3165D01*
X3198D01*
X3298Y2415D02*
X3265D01*
X3248Y2398D01*
Y2332D01*
X3265Y2315D01*
X3298D01*
X3315Y2332D01*
Y2398D01*
X3298Y2415D01*
X3415Y2315D02*
X3348D01*
X3415Y2382D01*
Y2398D01*
X3398Y2415D01*
X3365D01*
X3348Y2398D01*
X3065Y2140D02*
Y2040D01*
X3115D01*
X3132Y2057D01*
Y2123D01*
X3115Y2140D01*
X3065D01*
X3165D02*
X3198D01*
X3182D01*
Y2040D01*
X3165D01*
X3198D01*
X3298Y2140D02*
X3265D01*
X3248Y2123D01*
Y2057D01*
X3265Y2040D01*
X3298D01*
X3315Y2057D01*
Y2123D01*
X3298Y2140D01*
X3348Y2123D02*
X3365Y2140D01*
X3398D01*
X3415Y2123D01*
Y2107D01*
X3398Y2090D01*
X3382D01*
X3398D01*
X3415Y2073D01*
Y2057D01*
X3398Y2040D01*
X3365D01*
X3348Y2057D01*
D14*
X1525Y5225D02*
Y5375D01*
X1600D01*
X1625Y5350D01*
Y5300D01*
X1600Y5275D01*
X1525D01*
X1575D02*
X1625Y5225D01*
X1775Y5375D02*
X1675D01*
Y5300D01*
X1725D01*
X1675D01*
Y5225D01*
X4525Y1525D02*
X4475Y1475D01*
X4425D01*
X4375Y1525D01*
X4425Y1700D02*
Y1625D01*
X4450Y1600D01*
X4500D01*
X4525Y1625D01*
Y1700D01*
Y1750D02*
X4475Y1800D01*
X4425D01*
X4375Y1750D01*
X4400Y2125D02*
X4375Y2100D01*
Y2050D01*
X4400Y2025D01*
X4500D01*
X4525Y2050D01*
Y2100D01*
X4500Y2125D01*
X4450D01*
Y2075D01*
X4375Y2175D02*
X4525D01*
Y2250D01*
X4500Y2275D01*
X4475D01*
X4450Y2250D01*
Y2175D01*
Y2250D01*
X4425Y2275D01*
X4400D01*
X4375Y2250D01*
Y2175D01*
Y2325D02*
X4525D01*
Y2425D01*
Y2575D02*
Y2475D01*
X4425Y2575D01*
X4400D01*
X4375Y2550D01*
Y2500D01*
X4400Y2475D01*
Y2625D02*
X4375Y2650D01*
Y2700D01*
X4400Y2725D01*
X4500D01*
X4525Y2700D01*
Y2650D01*
X4500Y2625D01*
X4400D01*
X4525Y2875D02*
Y2775D01*
X4425Y2875D01*
X4400D01*
X4375Y2850D01*
Y2800D01*
X4400Y2775D01*
X4375Y3025D02*
Y2925D01*
X4450D01*
X4425Y2975D01*
Y3000D01*
X4450Y3025D01*
X4500D01*
X4525Y3000D01*
Y2950D01*
X4500Y2925D01*
X4175Y1475D02*
X4025D01*
Y1550D01*
X4050Y1575D01*
X4100D01*
X4125Y1550D01*
Y1475D01*
Y1525D02*
X4175Y1575D01*
Y1625D02*
X4075D01*
X4025Y1675D01*
X4075Y1725D01*
X4175D01*
X4100D01*
Y1625D01*
Y1775D02*
Y1875D01*
X4025Y1925D02*
X4175Y2025D01*
X4025D02*
X4175Y1925D01*
X4025Y2075D02*
X4175Y2175D01*
X4025D02*
X4175Y2075D01*
Y2450D02*
Y2400D01*
X4150Y2375D01*
X4100D01*
X4075Y2400D01*
Y2450D01*
X4100Y2475D01*
X4125D01*
Y2375D01*
X4075Y2525D02*
X4175Y2575D01*
X4075Y2625D01*
Y2700D02*
Y2750D01*
X4100Y2775D01*
X4175D01*
Y2700D01*
X4150Y2675D01*
X4125Y2700D01*
Y2775D01*
X4175Y2825D02*
Y2875D01*
Y2850D01*
X4025D01*
Y2825D01*
X4075Y2950D02*
X4150D01*
X4175Y2975D01*
Y3050D01*
X4075D01*
Y3125D02*
Y3175D01*
X4100Y3200D01*
X4175D01*
Y3125D01*
X4150Y3100D01*
X4125Y3125D01*
Y3200D01*
X4050Y3275D02*
X4075D01*
Y3250D01*
Y3300D01*
Y3275D01*
X4150D01*
X4175Y3300D01*
Y3375D02*
Y3425D01*
Y3400D01*
X4075D01*
Y3375D01*
X4175Y3525D02*
Y3575D01*
X4150Y3600D01*
X4100D01*
X4075Y3575D01*
Y3525D01*
X4100Y3500D01*
X4150D01*
X4175Y3525D01*
Y3650D02*
X4075D01*
Y3725D01*
X4100Y3750D01*
X4175D01*
Y3950D02*
X4075D01*
Y3975D01*
X4100Y4000D01*
X4175D01*
X4100D01*
X4075Y4025D01*
X4100Y4050D01*
X4175D01*
Y4125D02*
Y4175D01*
X4150Y4200D01*
X4100D01*
X4075Y4175D01*
Y4125D01*
X4100Y4100D01*
X4150D01*
X4175Y4125D01*
X4025Y4349D02*
X4175D01*
Y4274D01*
X4150Y4250D01*
X4100D01*
X4075Y4274D01*
Y4349D01*
Y4399D02*
X4150D01*
X4175Y4424D01*
Y4499D01*
X4075D01*
X4175Y4549D02*
Y4599D01*
Y4574D01*
X4025D01*
Y4549D01*
X4175Y4749D02*
Y4699D01*
X4150Y4674D01*
X4100D01*
X4075Y4699D01*
Y4749D01*
X4100Y4774D01*
X4125D01*
Y4674D01*
X950Y500D02*
X925Y475D01*
Y425D01*
X950Y400D01*
X1050D01*
X1075Y425D01*
Y475D01*
X1050Y500D01*
X1000D01*
Y450D01*
X1075Y550D02*
X925D01*
X1075Y650D01*
X925D01*
Y700D02*
X1075D01*
Y775D01*
X1050Y800D01*
X950D01*
X925Y775D01*
Y700D01*
X1175Y400D02*
X1325D01*
Y475D01*
X1300Y500D01*
X1275D01*
X1250Y475D01*
Y400D01*
Y475D01*
X1225Y500D01*
X1200D01*
X1175Y475D01*
Y400D01*
Y550D02*
X1300D01*
X1325Y575D01*
Y625D01*
X1300Y650D01*
X1175D01*
X1200Y800D02*
X1175Y775D01*
Y725D01*
X1200Y700D01*
X1225D01*
X1250Y725D01*
Y775D01*
X1275Y800D01*
X1300D01*
X1325Y775D01*
Y725D01*
X1300Y700D01*
X1175Y850D02*
X1200D01*
X1250Y900D01*
X1200Y950D01*
X1175D01*
X1250Y900D02*
X1325D01*
X1575Y400D02*
X1425D01*
Y475D01*
X1450Y500D01*
X1500D01*
X1525Y475D01*
Y400D01*
Y450D02*
X1575Y500D01*
X1425Y650D02*
Y550D01*
X1575D01*
Y650D01*
X1500Y550D02*
Y600D01*
X1450Y800D02*
X1425Y775D01*
Y725D01*
X1450Y700D01*
X1475D01*
X1500Y725D01*
Y775D01*
X1525Y800D01*
X1550D01*
X1575Y775D01*
Y725D01*
X1550Y700D01*
X1425Y950D02*
Y850D01*
X1575D01*
Y950D01*
X1500Y850D02*
Y900D01*
X1425Y1000D02*
Y1100D01*
Y1050D01*
X1575D01*
X1825Y400D02*
X1675D01*
X1825Y500D01*
X1675D01*
X1700Y650D02*
X1675Y625D01*
Y575D01*
X1700Y550D01*
X1725D01*
X1750Y575D01*
Y625D01*
X1775Y650D01*
X1800D01*
X1825Y625D01*
Y575D01*
X1800Y550D01*
X1700Y800D02*
X1675Y775D01*
Y725D01*
X1700Y700D01*
X1725D01*
X1750Y725D01*
Y775D01*
X1775Y800D01*
X1800D01*
X1825Y775D01*
Y725D01*
X1800Y700D01*
X1975Y500D02*
X1950Y475D01*
Y425D01*
X1975Y400D01*
X2000D01*
X2025Y425D01*
Y475D01*
X2050Y500D01*
X2075D01*
X2100Y475D01*
Y425D01*
X2075Y400D01*
X1975Y650D02*
X1950Y625D01*
Y575D01*
X1975Y550D01*
X2075D01*
X2100Y575D01*
Y625D01*
X2075Y650D01*
X1950Y700D02*
X2100D01*
X2050D01*
X1950Y800D01*
X2025Y725D01*
X2100Y800D01*
X2350Y400D02*
X2200D01*
X2250Y450D01*
X2200Y500D01*
X2350D01*
X2200Y550D02*
Y600D01*
Y575D01*
X2350D01*
Y550D01*
Y600D01*
X2225Y775D02*
X2200Y750D01*
Y700D01*
X2225Y675D01*
X2250D01*
X2275Y700D01*
Y750D01*
X2300Y775D01*
X2325D01*
X2350Y750D01*
Y700D01*
X2325Y675D01*
X2200Y900D02*
Y850D01*
X2225Y825D01*
X2325D01*
X2350Y850D01*
Y900D01*
X2325Y925D01*
X2225D01*
X2200Y900D01*
X2600Y400D02*
X2450D01*
X2500Y450D01*
X2450Y500D01*
X2600D01*
X2450Y625D02*
Y575D01*
X2475Y550D01*
X2575D01*
X2600Y575D01*
Y625D01*
X2575Y650D01*
X2475D01*
X2450Y625D01*
X2475Y800D02*
X2450Y775D01*
Y725D01*
X2475Y700D01*
X2500D01*
X2525Y725D01*
Y775D01*
X2550Y800D01*
X2575D01*
X2600Y775D01*
Y725D01*
X2575Y700D01*
X2450Y850D02*
Y900D01*
Y875D01*
X2600D01*
Y850D01*
Y900D01*
X2700Y400D02*
Y450D01*
Y425D01*
X2850D01*
Y400D01*
Y450D01*
Y525D02*
X2700D01*
X2850Y625D01*
X2700D01*
Y675D02*
Y775D01*
Y725D01*
X2850D01*
X3100Y400D02*
X2950D01*
Y475D01*
X2975Y500D01*
X3025D01*
X3050Y475D01*
Y400D01*
Y450D02*
X3100Y500D01*
X2950Y650D02*
Y550D01*
X3025D01*
Y600D01*
Y550D01*
X3100D01*
X2950Y800D02*
Y700D01*
X3100D01*
Y800D01*
X3025Y700D02*
Y750D01*
X3100Y850D02*
X2950D01*
X3100Y950D01*
X2950D01*
X3275Y400D02*
Y500D01*
X3225Y450D02*
X3325D01*
X3225Y550D02*
X3200Y575D01*
Y625D01*
X3225Y650D01*
X3250D01*
X3275Y625D01*
Y600D01*
Y625D01*
X3300Y650D01*
X3325D01*
X3350Y625D01*
Y575D01*
X3325Y550D01*
X3200Y700D02*
X3300D01*
X3350Y750D01*
X3300Y800D01*
X3200D01*
X3225Y850D02*
X3200Y875D01*
Y925D01*
X3225Y950D01*
X3250D01*
X3275Y925D01*
Y900D01*
Y925D01*
X3300Y950D01*
X3325D01*
X3350Y925D01*
Y875D01*
X3325Y850D01*
X3525Y400D02*
Y500D01*
X3475Y450D02*
X3575D01*
X3450Y550D02*
X3550D01*
X3600Y600D01*
X3550Y650D01*
X3450D01*
Y700D02*
X3600D01*
Y775D01*
X3575Y800D01*
X3550D01*
X3525Y775D01*
Y700D01*
Y775D01*
X3500Y800D01*
X3475D01*
X3450Y775D01*
Y700D01*
X3600Y850D02*
X3500D01*
X3450Y900D01*
X3500Y950D01*
X3600D01*
X3525D01*
Y850D01*
X3450Y1000D02*
Y1100D01*
Y1050D01*
X3600D01*
X3725Y500D02*
X3700Y475D01*
Y425D01*
X3725Y400D01*
X3825D01*
X3850Y425D01*
Y475D01*
X3825Y500D01*
X3775D01*
Y450D01*
X3850Y550D02*
X3700D01*
X3850Y650D01*
X3700D01*
Y700D02*
X3850D01*
Y775D01*
X3825Y800D01*
X3725D01*
X3700Y775D01*
Y700D01*
M02*
