G04*
G04 #@! TF.GenerationSoftware,Altium Limited,Altium Designer,23.0.1 (38)*
G04*
G04 Layer_Color=8388736*
%FSLAX42Y42*%
%MOMM*%
G71*
G04*
G04 #@! TF.SameCoordinates,16F3061B-E87A-4F88-AD7D-9C805D33B83D*
G04*
G04*
G04 #@! TF.FilePolarity,Negative*
G04*
G01*
G75*
%ADD26R,1.15X0.80*%
%ADD27R,1.00X1.20*%
%ADD28R,0.80X1.20*%
%ADD29R,0.80X1.15*%
%ADD30R,1.65X1.20*%
%ADD31R,1.20X1.65*%
%ADD32R,1.20X2.00*%
%ADD33R,1.20X0.80*%
%ADD34R,1.80X5.10*%
%ADD35R,1.70X4.01*%
%ADD36R,1.22X0.94*%
%ADD37C,3.20*%
%ADD38R,1.91X1.91*%
%ADD39C,1.91*%
%ADD40R,1.91X1.91*%
D26*
X2525Y2850D02*
D03*
Y3000D02*
D03*
X2300Y3000D02*
D03*
Y2850D02*
D03*
X925Y4200D02*
D03*
Y4350D02*
D03*
D27*
X968Y3950D02*
D03*
X832D02*
D03*
X2017Y3825D02*
D03*
X1883D02*
D03*
X2017Y4225D02*
D03*
X1883D02*
D03*
D28*
X1295Y3955D02*
D03*
X1105D02*
D03*
Y4195D02*
D03*
X1200D02*
D03*
X1295D02*
D03*
D29*
X1150Y3800D02*
D03*
X1300D02*
D03*
D30*
X1475Y4105D02*
D03*
Y3945D02*
D03*
D31*
X1120Y4375D02*
D03*
X1280D02*
D03*
D32*
X1875Y3435D02*
D03*
X1675D02*
D03*
X1475D02*
D03*
X1275D02*
D03*
X1075D02*
D03*
X875D02*
D03*
X675D02*
D03*
X475D02*
D03*
Y1835D02*
D03*
X675D02*
D03*
X875D02*
D03*
X1075D02*
D03*
X1275D02*
D03*
X1475D02*
D03*
X1675D02*
D03*
X1875D02*
D03*
D33*
X2520Y2600D02*
D03*
X2280Y2505D02*
D03*
Y2695D02*
D03*
D34*
X746Y5417D02*
D03*
X1254D02*
D03*
D35*
X1000Y5448D02*
D03*
D36*
X1875Y4099D02*
D03*
Y3951D02*
D03*
D37*
X4700Y300D02*
D03*
Y5400D02*
D03*
X300D02*
D03*
Y300D02*
D03*
D38*
X2875Y2854D02*
D03*
D39*
Y2600D02*
D03*
Y2346D02*
D03*
Y2092D02*
D03*
Y1838D02*
D03*
X3794Y200D02*
D03*
X3540D02*
D03*
X1254D02*
D03*
X1508D02*
D03*
X1762D02*
D03*
X2016D02*
D03*
X2270D02*
D03*
X2524D02*
D03*
X2778D02*
D03*
X3032D02*
D03*
X3286D02*
D03*
D40*
X1000D02*
D03*
M02*
