G04*
G04 #@! TF.GenerationSoftware,Altium Limited,Altium Designer,23.0.1 (38)*
G04*
G04 Layer_Physical_Order=2*
G04 Layer_Color=16711680*
%FSLAX42Y42*%
%MOMM*%
G71*
G04*
G04 #@! TF.SameCoordinates,16F3061B-E87A-4F88-AD7D-9C805D33B83D*
G04*
G04*
G04 #@! TF.FilePolarity,Positive*
G04*
G01*
G75*
%ADD23R,1.60X4.90*%
%ADD43C,0.25*%
%ADD44C,0.80*%
%ADD46C,3.00*%
%ADD47R,1.71X1.71*%
%ADD48C,1.71*%
%ADD49R,1.71X1.71*%
%ADD50C,0.60*%
G36*
X4967Y33D02*
X33D01*
Y5667D01*
X4967D01*
Y33D01*
D02*
G37*
%LPC*%
G36*
X4717Y5575D02*
X4713D01*
Y5413D01*
X4875D01*
Y5417D01*
X4869Y5451D01*
X4855Y5483D01*
X4836Y5512D01*
X4812Y5536D01*
X4783Y5555D01*
X4751Y5569D01*
X4717Y5575D01*
D02*
G37*
G36*
X4687D02*
X4683D01*
X4649Y5569D01*
X4617Y5555D01*
X4588Y5536D01*
X4564Y5512D01*
X4545Y5483D01*
X4531Y5451D01*
X4525Y5417D01*
Y5413D01*
X4687D01*
Y5575D01*
D02*
G37*
G36*
X317D02*
X313D01*
Y5413D01*
X475D01*
Y5417D01*
X469Y5451D01*
X455Y5483D01*
X436Y5512D01*
X412Y5536D01*
X383Y5555D01*
X351Y5569D01*
X317Y5575D01*
D02*
G37*
G36*
X287D02*
X283D01*
X249Y5569D01*
X217Y5555D01*
X188Y5536D01*
X164Y5512D01*
X145Y5483D01*
X131Y5451D01*
X125Y5417D01*
Y5413D01*
X287D01*
Y5575D01*
D02*
G37*
G36*
X4875Y5387D02*
X4713D01*
Y5225D01*
X4717D01*
X4751Y5231D01*
X4783Y5245D01*
X4812Y5264D01*
X4836Y5288D01*
X4855Y5317D01*
X4869Y5349D01*
X4875Y5383D01*
Y5387D01*
D02*
G37*
G36*
X4687D02*
X4525D01*
Y5383D01*
X4531Y5349D01*
X4545Y5317D01*
X4564Y5288D01*
X4588Y5264D01*
X4617Y5245D01*
X4649Y5231D01*
X4683Y5225D01*
X4687D01*
Y5387D01*
D02*
G37*
G36*
X475D02*
X313D01*
Y5225D01*
X317D01*
X351Y5231D01*
X383Y5245D01*
X412Y5264D01*
X436Y5288D01*
X455Y5317D01*
X469Y5349D01*
X475Y5383D01*
Y5387D01*
D02*
G37*
G36*
X287D02*
X125D01*
Y5383D01*
X131Y5349D01*
X145Y5317D01*
X164Y5288D01*
X188Y5264D01*
X217Y5245D01*
X249Y5231D01*
X283Y5225D01*
X287D01*
Y5387D01*
D02*
G37*
G36*
X1035Y4250D02*
X1015D01*
X997Y4242D01*
X987Y4233D01*
X900D01*
X887Y4231D01*
X877Y4223D01*
X577Y3923D01*
X569Y3913D01*
X567Y3900D01*
Y2632D01*
X569Y2619D01*
X577Y2609D01*
X2938Y248D01*
X2934Y241D01*
X2926Y214D01*
Y186D01*
X2934Y159D01*
X2948Y135D01*
X2967Y116D01*
X2991Y102D01*
X3018Y94D01*
X3046D01*
X3073Y102D01*
X3097Y116D01*
X3116Y135D01*
X3130Y159D01*
X3138Y186D01*
Y214D01*
X3130Y241D01*
X3116Y265D01*
X3097Y284D01*
X3073Y298D01*
X3046Y306D01*
X3018D01*
X2991Y298D01*
X2984Y294D01*
X633Y2646D01*
Y3886D01*
X914Y4167D01*
X987D01*
X997Y4158D01*
X1015Y4150D01*
X1035D01*
X1053Y4158D01*
X1067Y4172D01*
X1075Y4190D01*
Y4210D01*
X1067Y4228D01*
X1053Y4242D01*
X1035Y4250D01*
D02*
G37*
G36*
X2981Y2959D02*
X2769D01*
Y2749D01*
X2981D01*
Y2959D01*
D02*
G37*
G36*
X2148Y3051D02*
X2128D01*
X2110Y3043D01*
X2096Y3029D01*
X2088Y3011D01*
Y2991D01*
X2096Y2973D01*
X2110Y2959D01*
X2128Y2951D01*
X2142D01*
X2516Y2577D01*
X2527Y2569D01*
X2539Y2567D01*
X2775D01*
X2777Y2559D01*
X2791Y2535D01*
X2810Y2516D01*
X2834Y2502D01*
X2861Y2494D01*
X2889D01*
X2916Y2502D01*
X2940Y2516D01*
X2959Y2535D01*
X2973Y2559D01*
X2981Y2586D01*
Y2614D01*
X2973Y2641D01*
X2959Y2665D01*
X2940Y2684D01*
X2916Y2698D01*
X2889Y2706D01*
X2861D01*
X2834Y2698D01*
X2810Y2684D01*
X2791Y2665D01*
X2777Y2641D01*
X2775Y2633D01*
X2553D01*
X2188Y2998D01*
Y3011D01*
X2181Y3029D01*
X2167Y3043D01*
X2148Y3051D01*
D02*
G37*
G36*
X2889Y2451D02*
X2861D01*
X2834Y2444D01*
X2810Y2430D01*
X2791Y2411D01*
X2777Y2387D01*
X2771Y2366D01*
X2169D01*
X2167Y2368D01*
X2148Y2376D01*
X2128D01*
X2110Y2368D01*
X2096Y2354D01*
X2088Y2336D01*
Y2316D01*
X2096Y2298D01*
X2110Y2284D01*
X2113Y2282D01*
Y2270D01*
X2110Y2268D01*
X2096Y2254D01*
X2088Y2236D01*
Y2216D01*
X2096Y2198D01*
X2110Y2184D01*
X2128Y2176D01*
X2142D01*
X2249Y2069D01*
X2260Y2061D01*
X2272Y2059D01*
X2775D01*
X2777Y2051D01*
X2791Y2027D01*
X2810Y2008D01*
X2834Y1994D01*
X2861Y1986D01*
X2889D01*
X2916Y1994D01*
X2940Y2008D01*
X2959Y2027D01*
X2973Y2051D01*
X2981Y2078D01*
Y2106D01*
X2973Y2133D01*
X2959Y2157D01*
X2940Y2176D01*
X2916Y2190D01*
X2889Y2198D01*
X2861D01*
X2834Y2190D01*
X2810Y2176D01*
X2791Y2157D01*
X2777Y2133D01*
X2775Y2125D01*
X2286D01*
X2188Y2223D01*
Y2236D01*
X2181Y2254D01*
X2167Y2268D01*
X2164Y2270D01*
Y2282D01*
X2167Y2284D01*
X2181Y2298D01*
X2182Y2300D01*
X2780D01*
X2791Y2281D01*
X2810Y2262D01*
X2834Y2248D01*
X2861Y2241D01*
X2889D01*
X2916Y2248D01*
X2940Y2262D01*
X2959Y2281D01*
X2973Y2305D01*
X2981Y2332D01*
Y2360D01*
X2973Y2387D01*
X2959Y2411D01*
X2940Y2430D01*
X2916Y2444D01*
X2889Y2451D01*
D02*
G37*
G36*
X2890Y1949D02*
X2888D01*
Y1851D01*
X2986D01*
Y1853D01*
X2978Y1881D01*
X2964Y1906D01*
X2943Y1927D01*
X2918Y1941D01*
X2890Y1949D01*
D02*
G37*
G36*
X2862D02*
X2860D01*
X2832Y1941D01*
X2807Y1927D01*
X2786Y1906D01*
X2772Y1881D01*
X2764Y1853D01*
Y1851D01*
X2862D01*
Y1949D01*
D02*
G37*
G36*
X2986Y1825D02*
X2888D01*
Y1727D01*
X2890D01*
X2918Y1735D01*
X2943Y1749D01*
X2964Y1770D01*
X2978Y1795D01*
X2986Y1823D01*
Y1825D01*
D02*
G37*
G36*
X2862D02*
X2764D01*
Y1823D01*
X2772Y1795D01*
X2786Y1770D01*
X2807Y1749D01*
X2832Y1735D01*
X2860Y1727D01*
X2862D01*
Y1825D01*
D02*
G37*
G36*
X4717Y475D02*
X4713D01*
Y313D01*
X4875D01*
Y317D01*
X4869Y351D01*
X4855Y383D01*
X4836Y412D01*
X4812Y436D01*
X4783Y455D01*
X4751Y469D01*
X4717Y475D01*
D02*
G37*
G36*
X4687D02*
X4683D01*
X4649Y469D01*
X4617Y455D01*
X4588Y436D01*
X4564Y412D01*
X4545Y383D01*
X4531Y351D01*
X4525Y317D01*
Y313D01*
X4687D01*
Y475D01*
D02*
G37*
G36*
X317D02*
X313D01*
Y313D01*
X475D01*
Y317D01*
X469Y351D01*
X455Y383D01*
X436Y412D01*
X412Y436D01*
X383Y455D01*
X351Y469D01*
X317Y475D01*
D02*
G37*
G36*
X287D02*
X283D01*
X249Y469D01*
X217Y455D01*
X188Y436D01*
X164Y412D01*
X145Y383D01*
X131Y351D01*
X125Y317D01*
Y313D01*
X287D01*
Y475D01*
D02*
G37*
G36*
X3809Y311D02*
X3807D01*
Y213D01*
X3905D01*
Y215D01*
X3897Y243D01*
X3883Y268D01*
X3862Y289D01*
X3837Y303D01*
X3809Y311D01*
D02*
G37*
G36*
X3781D02*
X3779D01*
X3751Y303D01*
X3726Y289D01*
X3705Y268D01*
X3691Y243D01*
X3683Y215D01*
Y213D01*
X3781D01*
Y311D01*
D02*
G37*
G36*
X1111D02*
X1013D01*
Y213D01*
X1111D01*
Y311D01*
D02*
G37*
G36*
X987D02*
X889D01*
Y213D01*
X987D01*
Y311D01*
D02*
G37*
G36*
X4875Y287D02*
X4713D01*
Y125D01*
X4717D01*
X4751Y131D01*
X4783Y145D01*
X4812Y164D01*
X4836Y188D01*
X4855Y217D01*
X4869Y249D01*
X4875Y283D01*
Y287D01*
D02*
G37*
G36*
X4687D02*
X4525D01*
Y283D01*
X4531Y249D01*
X4545Y217D01*
X4564Y188D01*
X4588Y164D01*
X4617Y145D01*
X4649Y131D01*
X4683Y125D01*
X4687D01*
Y287D01*
D02*
G37*
G36*
X475D02*
X313D01*
Y125D01*
X317D01*
X351Y131D01*
X383Y145D01*
X412Y164D01*
X436Y188D01*
X455Y217D01*
X469Y249D01*
X475Y283D01*
Y287D01*
D02*
G37*
G36*
X287D02*
X125D01*
Y283D01*
X131Y249D01*
X145Y217D01*
X164Y188D01*
X188Y164D01*
X217Y145D01*
X249Y131D01*
X283Y125D01*
X287D01*
Y287D01*
D02*
G37*
G36*
X1300Y4336D02*
X1277Y4332D01*
X1257Y4318D01*
X1243Y4298D01*
X1239Y4275D01*
Y4100D01*
X832Y3693D01*
X818Y3673D01*
X814Y3650D01*
Y2950D01*
X818Y2927D01*
X832Y2907D01*
X3459Y279D01*
Y269D01*
X3456Y265D01*
X3442Y241D01*
X3435Y214D01*
Y186D01*
X3442Y159D01*
X3456Y135D01*
X3475Y116D01*
X3499Y102D01*
X3526Y94D01*
X3554D01*
X3581Y102D01*
X3605Y116D01*
X3624Y135D01*
X3638Y159D01*
X3646Y186D01*
Y214D01*
X3638Y241D01*
X3624Y265D01*
X3605Y284D01*
X3582Y298D01*
Y304D01*
X3577Y328D01*
X3564Y348D01*
X936Y2975D01*
Y3625D01*
X1343Y4032D01*
X1357Y4052D01*
X1361Y4075D01*
Y4275D01*
X1357Y4298D01*
X1343Y4318D01*
X1323Y4332D01*
X1300Y4336D01*
D02*
G37*
G36*
X738Y3862D02*
X715Y3858D01*
X695Y3844D01*
X682Y3824D01*
X677Y3801D01*
Y2748D01*
X682Y2724D01*
X695Y2704D01*
X3182Y218D01*
X3181Y214D01*
Y186D01*
X3188Y159D01*
X3202Y135D01*
X3221Y116D01*
X3245Y102D01*
X3272Y94D01*
X3300D01*
X3327Y102D01*
X3351Y116D01*
X3370Y135D01*
X3384Y159D01*
X3392Y186D01*
Y214D01*
X3384Y241D01*
X3370Y265D01*
X3351Y284D01*
X3327Y298D01*
X3300Y306D01*
X3272D01*
X3268Y304D01*
X800Y2773D01*
Y3801D01*
X795Y3824D01*
X782Y3844D01*
X762Y3858D01*
X738Y3862D01*
D02*
G37*
G36*
X235Y3250D02*
X215D01*
X197Y3242D01*
X183Y3228D01*
X175Y3210D01*
Y3190D01*
X183Y3172D01*
X192Y3162D01*
Y2753D01*
X194Y2740D01*
X202Y2730D01*
X1670Y1261D01*
X1667Y1246D01*
X1660Y1243D01*
X1646Y1229D01*
X1638Y1211D01*
Y1191D01*
X1646Y1173D01*
X1655Y1163D01*
Y313D01*
X1658Y300D01*
X1665Y290D01*
X1684Y271D01*
X1678Y265D01*
X1664Y241D01*
X1657Y214D01*
Y186D01*
X1664Y159D01*
X1678Y135D01*
X1697Y116D01*
X1721Y102D01*
X1748Y94D01*
X1776D01*
X1803Y102D01*
X1827Y116D01*
X1846Y135D01*
X1860Y159D01*
X1867Y186D01*
Y214D01*
X1860Y241D01*
X1846Y265D01*
X1827Y284D01*
X1803Y298D01*
X1776Y306D01*
X1748D01*
X1744Y304D01*
X1722Y327D01*
Y1163D01*
X1731Y1173D01*
X1734Y1180D01*
X1749Y1183D01*
X2684Y248D01*
X2680Y241D01*
X2673Y214D01*
Y186D01*
X2680Y159D01*
X2694Y135D01*
X2713Y116D01*
X2737Y102D01*
X2764Y94D01*
X2792D01*
X2819Y102D01*
X2843Y116D01*
X2862Y135D01*
X2876Y159D01*
X2883Y186D01*
Y214D01*
X2876Y241D01*
X2862Y265D01*
X2843Y284D01*
X2819Y298D01*
X2792Y306D01*
X2764D01*
X2737Y298D01*
X2730Y294D01*
X258Y2767D01*
Y3162D01*
X267Y3172D01*
X275Y3190D01*
Y3210D01*
X267Y3228D01*
X253Y3242D01*
X235Y3250D01*
D02*
G37*
G36*
X2538Y306D02*
X2510D01*
X2483Y298D01*
X2459Y284D01*
X2440Y265D01*
X2426Y241D01*
X2418Y214D01*
Y186D01*
X2426Y159D01*
X2440Y135D01*
X2459Y116D01*
X2483Y102D01*
X2510Y94D01*
X2538D01*
X2565Y102D01*
X2589Y116D01*
X2608Y135D01*
X2622Y159D01*
X2630Y186D01*
Y214D01*
X2622Y241D01*
X2608Y265D01*
X2589Y284D01*
X2565Y298D01*
X2538Y306D01*
D02*
G37*
G36*
X2284D02*
X2256D01*
X2229Y298D01*
X2205Y284D01*
X2186Y265D01*
X2172Y241D01*
X2165Y214D01*
Y186D01*
X2172Y159D01*
X2186Y135D01*
X2205Y116D01*
X2229Y102D01*
X2256Y94D01*
X2284D01*
X2311Y102D01*
X2335Y116D01*
X2354Y135D01*
X2368Y159D01*
X2375Y186D01*
Y214D01*
X2368Y241D01*
X2354Y265D01*
X2335Y284D01*
X2311Y298D01*
X2284Y306D01*
D02*
G37*
G36*
X2030D02*
X2002D01*
X1975Y298D01*
X1951Y284D01*
X1932Y265D01*
X1918Y241D01*
X1910Y214D01*
Y186D01*
X1918Y159D01*
X1932Y135D01*
X1951Y116D01*
X1975Y102D01*
X2002Y94D01*
X2030D01*
X2057Y102D01*
X2081Y116D01*
X2100Y135D01*
X2114Y159D01*
X2122Y186D01*
Y214D01*
X2114Y241D01*
X2100Y265D01*
X2081Y284D01*
X2057Y298D01*
X2030Y306D01*
D02*
G37*
G36*
X1522D02*
X1494D01*
X1467Y298D01*
X1443Y284D01*
X1424Y265D01*
X1410Y241D01*
X1402Y214D01*
Y186D01*
X1410Y159D01*
X1424Y135D01*
X1443Y116D01*
X1467Y102D01*
X1494Y94D01*
X1522D01*
X1549Y102D01*
X1573Y116D01*
X1592Y135D01*
X1606Y159D01*
X1614Y186D01*
Y214D01*
X1606Y241D01*
X1592Y265D01*
X1573Y284D01*
X1549Y298D01*
X1522Y306D01*
D02*
G37*
G36*
X1268D02*
X1240D01*
X1213Y298D01*
X1189Y284D01*
X1170Y265D01*
X1156Y241D01*
X1148Y214D01*
Y186D01*
X1156Y159D01*
X1170Y135D01*
X1189Y116D01*
X1213Y102D01*
X1240Y94D01*
X1268D01*
X1295Y102D01*
X1319Y116D01*
X1338Y135D01*
X1352Y159D01*
X1360Y186D01*
Y214D01*
X1352Y241D01*
X1338Y265D01*
X1319Y284D01*
X1295Y298D01*
X1268Y306D01*
D02*
G37*
G36*
X3905Y187D02*
X3807D01*
Y89D01*
X3809D01*
X3837Y97D01*
X3862Y111D01*
X3883Y132D01*
X3897Y157D01*
X3905Y185D01*
Y187D01*
D02*
G37*
G36*
X3781D02*
X3683D01*
Y185D01*
X3691Y157D01*
X3705Y132D01*
X3726Y111D01*
X3751Y97D01*
X3779Y89D01*
X3781D01*
Y187D01*
D02*
G37*
G36*
X1111D02*
X1013D01*
Y89D01*
X1111D01*
Y187D01*
D02*
G37*
G36*
X987D02*
X889D01*
Y89D01*
X987D01*
Y187D01*
D02*
G37*
%LPD*%
D23*
X746Y5417D02*
D03*
X1254D02*
D03*
D43*
X900Y4200D02*
X1025D01*
X600Y3900D02*
X900Y4200D01*
X2138Y3001D02*
X2539Y2600D01*
X2875D01*
X2862Y2333D02*
X2875Y2346D01*
X2145Y2333D02*
X2862D01*
X2138Y2326D02*
X2145Y2333D01*
X2138Y2226D02*
X2272Y2092D01*
X2875D01*
X1688Y313D02*
X1762Y240D01*
X1688Y313D02*
Y1201D01*
X1762Y200D02*
Y240D01*
X225Y2753D02*
Y3200D01*
Y2753D02*
X2778Y200D01*
X600Y2632D02*
Y3900D01*
X3521Y219D02*
X3540Y200D01*
X600Y2632D02*
X3032Y200D01*
D44*
X1300Y4075D02*
Y4275D01*
X875Y3650D02*
X1300Y4075D01*
X738Y2748D02*
Y3801D01*
Y2748D02*
X3286Y200D01*
X875Y2950D02*
Y3650D01*
Y2950D02*
X3521Y304D01*
Y219D02*
Y304D01*
D46*
X4700Y300D02*
D03*
Y5400D02*
D03*
X300D02*
D03*
Y300D02*
D03*
D47*
X2875Y2854D02*
D03*
D48*
Y2600D02*
D03*
Y2346D02*
D03*
Y2092D02*
D03*
Y1838D02*
D03*
X3794Y200D02*
D03*
X3540D02*
D03*
X1254D02*
D03*
X1508D02*
D03*
X1762D02*
D03*
X2016D02*
D03*
X2270D02*
D03*
X2524D02*
D03*
X2778D02*
D03*
X3032D02*
D03*
X3286D02*
D03*
D49*
X1000D02*
D03*
D50*
X4900Y5150D02*
D03*
X4775Y4900D02*
D03*
X4900Y4650D02*
D03*
X4775Y4400D02*
D03*
X4900Y4150D02*
D03*
X4775Y3900D02*
D03*
X4900Y3650D02*
D03*
X4775Y3400D02*
D03*
X4900Y3150D02*
D03*
X4775Y2900D02*
D03*
X4900Y2650D02*
D03*
X4775Y2400D02*
D03*
X4900Y2150D02*
D03*
X4775Y1900D02*
D03*
X4900Y1650D02*
D03*
X4775Y1400D02*
D03*
X4900Y1150D02*
D03*
X4775Y900D02*
D03*
X4900Y650D02*
D03*
X4650Y5150D02*
D03*
X4525Y4900D02*
D03*
X4650Y4650D02*
D03*
X4525Y4400D02*
D03*
X4650Y4150D02*
D03*
X4525Y3900D02*
D03*
X4650Y3650D02*
D03*
X4525Y3400D02*
D03*
X4650Y3150D02*
D03*
X4525Y2900D02*
D03*
X4650Y2650D02*
D03*
X4525Y2400D02*
D03*
X4650Y2150D02*
D03*
X4525Y1900D02*
D03*
X4650Y1650D02*
D03*
X4525Y1400D02*
D03*
X4650Y1150D02*
D03*
X4525Y900D02*
D03*
X4650Y650D02*
D03*
X4275Y5400D02*
D03*
X4400Y5150D02*
D03*
X4275Y4900D02*
D03*
X4400Y4650D02*
D03*
X4275Y4400D02*
D03*
X4400Y4150D02*
D03*
X4275Y3900D02*
D03*
X4400Y3650D02*
D03*
X4275Y3400D02*
D03*
X4400Y3150D02*
D03*
X4275Y2900D02*
D03*
X4400Y2650D02*
D03*
X4275Y2400D02*
D03*
X4400Y2150D02*
D03*
X4275Y1900D02*
D03*
X4400Y1650D02*
D03*
X4275Y1400D02*
D03*
X4400Y1150D02*
D03*
X4275Y900D02*
D03*
X4400Y650D02*
D03*
X4275Y400D02*
D03*
X4025Y5400D02*
D03*
X4150Y5150D02*
D03*
X4025Y4900D02*
D03*
X4150Y4650D02*
D03*
X4025Y4400D02*
D03*
X4150Y4150D02*
D03*
X4025Y3900D02*
D03*
X4150Y3650D02*
D03*
X4025Y3400D02*
D03*
X4150Y3150D02*
D03*
X4025Y2900D02*
D03*
X4150Y2650D02*
D03*
X4025Y2400D02*
D03*
X4150Y2150D02*
D03*
X4025Y1900D02*
D03*
X4150Y1650D02*
D03*
X4025Y1400D02*
D03*
X4150Y1150D02*
D03*
X4025Y900D02*
D03*
X4150Y650D02*
D03*
X4025Y400D02*
D03*
X3775Y5400D02*
D03*
X3900Y5150D02*
D03*
X3775Y4900D02*
D03*
X3900Y4650D02*
D03*
X3775Y4400D02*
D03*
X3900Y4150D02*
D03*
X3775Y3900D02*
D03*
X3900Y3650D02*
D03*
X3775Y3400D02*
D03*
X3900Y3150D02*
D03*
X3775Y2900D02*
D03*
X3900Y2650D02*
D03*
X3775Y2400D02*
D03*
X3900Y2150D02*
D03*
X3775Y1900D02*
D03*
X3900Y1650D02*
D03*
X3775Y1400D02*
D03*
X3900Y1150D02*
D03*
X3775Y900D02*
D03*
X3900Y650D02*
D03*
X3775Y400D02*
D03*
X3525Y5400D02*
D03*
X3650Y5150D02*
D03*
X3525Y4900D02*
D03*
X3650Y4650D02*
D03*
X3525Y4400D02*
D03*
X3650Y4150D02*
D03*
X3525Y3900D02*
D03*
X3650Y3650D02*
D03*
X3525Y3400D02*
D03*
X3650Y3150D02*
D03*
X3525Y2900D02*
D03*
X3650Y2650D02*
D03*
X3525Y2400D02*
D03*
X3650Y2150D02*
D03*
X3525Y1900D02*
D03*
X3650Y1650D02*
D03*
X3525Y1400D02*
D03*
X3650Y1150D02*
D03*
X3525Y900D02*
D03*
X3650Y650D02*
D03*
X3275Y5400D02*
D03*
X3400Y5150D02*
D03*
X3275Y4900D02*
D03*
X3400Y4650D02*
D03*
X3275Y4400D02*
D03*
X3400Y4150D02*
D03*
X3275Y3900D02*
D03*
X3400Y3650D02*
D03*
X3275Y3400D02*
D03*
X3400Y3150D02*
D03*
X3275Y2900D02*
D03*
X3400Y2650D02*
D03*
X3275Y2400D02*
D03*
X3400Y2150D02*
D03*
X3275Y1900D02*
D03*
X3400Y1650D02*
D03*
X3275Y1400D02*
D03*
X3400Y1150D02*
D03*
X3275Y900D02*
D03*
X3400Y650D02*
D03*
X3275Y400D02*
D03*
X3025Y5400D02*
D03*
X3150Y5150D02*
D03*
X3025Y4900D02*
D03*
X3150Y4650D02*
D03*
X3025Y4400D02*
D03*
X3150Y4150D02*
D03*
X3025Y3900D02*
D03*
X3150Y3650D02*
D03*
X3025Y3400D02*
D03*
X3150Y3150D02*
D03*
X3025Y2900D02*
D03*
X3150Y2650D02*
D03*
X3025Y2400D02*
D03*
X3150Y2150D02*
D03*
X3025Y1900D02*
D03*
X3150Y1650D02*
D03*
X3025Y1400D02*
D03*
X3150Y1150D02*
D03*
X2775Y5400D02*
D03*
X2900Y5150D02*
D03*
X2775Y4900D02*
D03*
X2900Y4650D02*
D03*
X2775Y4400D02*
D03*
X2900Y4150D02*
D03*
X2775Y3900D02*
D03*
X2900Y3650D02*
D03*
X2775Y3400D02*
D03*
X2900Y3150D02*
D03*
Y1650D02*
D03*
X2775Y1400D02*
D03*
X2900Y1150D02*
D03*
X2775Y900D02*
D03*
X2525Y5400D02*
D03*
X2650Y5150D02*
D03*
X2525Y4900D02*
D03*
X2650Y4650D02*
D03*
X2525Y4400D02*
D03*
X2650Y4150D02*
D03*
X2525Y3900D02*
D03*
X2650Y3650D02*
D03*
X2525Y3400D02*
D03*
X2650Y3150D02*
D03*
X2525Y2400D02*
D03*
Y1900D02*
D03*
X2650Y1650D02*
D03*
X2275Y5400D02*
D03*
X2400Y5150D02*
D03*
X2275Y4900D02*
D03*
X2400Y4650D02*
D03*
X2275Y4400D02*
D03*
X2400Y4150D02*
D03*
X2275Y3900D02*
D03*
X2400Y3650D02*
D03*
X2275Y3400D02*
D03*
Y2400D02*
D03*
Y1900D02*
D03*
X2400Y1650D02*
D03*
X2275Y1400D02*
D03*
X2025Y5400D02*
D03*
X2150Y5150D02*
D03*
X2025Y4900D02*
D03*
X2150Y4650D02*
D03*
Y4150D02*
D03*
Y3650D02*
D03*
X2025Y2900D02*
D03*
Y2400D02*
D03*
X1775Y5400D02*
D03*
X1900Y5150D02*
D03*
X1775Y4900D02*
D03*
X1900Y4650D02*
D03*
X1775Y2900D02*
D03*
Y2400D02*
D03*
X1900Y2150D02*
D03*
X1525Y5400D02*
D03*
X1650Y5150D02*
D03*
X1525Y4900D02*
D03*
X1650Y4150D02*
D03*
Y3650D02*
D03*
X1525Y2900D02*
D03*
X1400Y5150D02*
D03*
Y3150D02*
D03*
X1275Y2900D02*
D03*
X1400Y650D02*
D03*
X1150Y1650D02*
D03*
Y650D02*
D03*
X1025Y400D02*
D03*
X775Y4900D02*
D03*
X900Y4650D02*
D03*
X775Y4400D02*
D03*
X900Y1650D02*
D03*
Y1150D02*
D03*
Y650D02*
D03*
X775Y400D02*
D03*
X525Y5400D02*
D03*
Y4900D02*
D03*
X650Y4650D02*
D03*
X525Y4400D02*
D03*
X650Y4150D02*
D03*
X525Y3900D02*
D03*
Y2900D02*
D03*
Y1400D02*
D03*
Y900D02*
D03*
X650Y650D02*
D03*
X525Y400D02*
D03*
X877Y5087D02*
D03*
X903Y4980D02*
D03*
X942Y4877D02*
D03*
X993Y4779D02*
D03*
X1056Y4689D02*
D03*
X1131Y4608D02*
D03*
X1215Y4538D02*
D03*
X1406Y4430D02*
D03*
X1510Y4394D02*
D03*
X1618Y4372D02*
D03*
X1718Y4327D02*
D03*
X1744Y4220D02*
D03*
X2002Y4327D02*
D03*
X1965Y4430D02*
D03*
X1899Y4518D02*
D03*
X1811Y4584D02*
D03*
X1708Y4623D02*
D03*
X1600Y4642D02*
D03*
X1496Y4677D02*
D03*
X1399Y4729D02*
D03*
X1313Y4798D02*
D03*
X1241Y4881D02*
D03*
X1185Y4976D02*
D03*
X1148Y5079D02*
D03*
X1129Y5188D02*
D03*
X1750Y4050D02*
D03*
X1743Y3951D02*
D03*
X1743Y3841D02*
D03*
Y3731D02*
D03*
Y3621D02*
D03*
X1764Y3293D02*
D03*
X1870Y3264D02*
D03*
X1978Y3285D02*
D03*
X2006Y3392D02*
D03*
X2007Y3502D02*
D03*
Y3612D02*
D03*
Y3722D02*
D03*
X2007Y3942D02*
D03*
X1979Y4048D02*
D03*
X2138Y3001D02*
D03*
Y2226D02*
D03*
Y2326D02*
D03*
X1688Y1201D02*
D03*
X738Y3801D02*
D03*
X225Y3200D02*
D03*
X1025Y4200D02*
D03*
X1300Y4275D02*
D03*
M02*
