M48
;Layer_Color=9474304
;FILE_FORMAT=4:2
METRIC,LZ
;TYPE=PLATED
T1F00S00C0.30
T2F00S00C1.14
T3F00S00C2.60
%
T01
X003775Y0004
X004025
X004275
X0044Y00065
X00465
X0049
X004775Y0009
X004525
X004275
X004025
X003775
X0039Y00115
X00415
X0044
X00465
X0049
X004775Y0014
X004525
X004275
X004025
X003775
X0039Y00165
X00415
X0044
X00465
X0049
X004775Y0019
X004525
X004275
X004025
X003775
X0039Y00215
X00415
X0044
X00465
X0049
X004775Y0024
X004525
X004275
X004025
X003775
X0039Y00265
X00415
X0044
X00465
X0049
X004775Y0029
X004525
X004275
X004025
X003775
X0039Y00315
X00415
X0044
X00465
X0049
X004775Y0034
X004525
X004275
X004025
X003775
X0039Y00365
X00415
X0044
X00465
X0049
X004775Y0039
X004525
X004275
X004025
X003775
X0039Y00415
X00415
X0044
X00465
X0049
X00415Y00065
X0039
X00365
X0034
X003525Y0009
X003275
X0034Y00115
X00365
X003525Y0014
X003275
X003025
X002775
X0029Y00165
X00315
X0034
X00365
X003525Y0019
X003275
X003025
X00315Y00215
X0034
X00365
X003525Y0024
X003275
X003025
X00315Y00265
X0034
X00365
X003525Y0029
X003275
X003025
X00315Y00315
X0034
X00365
X003525Y0034
X003275
X003025
X002775
X002525
X002275
X002006Y003392
X002007Y003502
Y003612
Y003722
X00215Y00365
X0024
X00265
X0029
X00315
X0034
X00365
X003525Y0039
X003275
X003025
X002775
X002525
X002275
X002007Y003942
X001979Y004048
X00175Y00405
X001743Y003951
X001743Y003841
Y003731
Y003621
X00165Y00365
X001764Y003293
X00187Y003264
X001978Y003285
X002025Y0029
X002138Y003001
X001775Y0029
X001525
X001275
X0014Y00315
X001775Y0024
X002025
X002138Y002326
Y002226
X002275Y0024
X002525
Y0019
X002275
X0024Y00165
X00265
X002275Y0014
X001688Y001201
X0014Y00065
X00115
X0009
X00065
X000775Y0004
X001025
X000525
Y0009
Y0014
X0009Y00165
X00115
X0009Y00115
X0029
X00315
X002775Y0009
X003275Y0004
X0029Y00315
X00265
Y00415
X0029
X00315
X0034
X00365
X0024
X00215
X002002Y004327
X001718Y004327
X001744Y00422
X00165Y00415
X0013Y004275
X001025Y0042
X00065Y00415
X000525Y0039
X000738Y003801
X000525Y0029
X000225Y0032
X0019Y00215
X001965Y00443
X001899Y004518
X0019Y00465
X001811Y004584
X001708Y004623
X0016Y004642
X001496Y004677
X001399Y004729
X001313Y004798
X001241Y004881
X001185Y004976
X001148Y005079
X001129Y005188
X0014Y00515
X00165
X0019
X00215
X0024
X00265
X0029
X00315
X0034
X00365
X003525Y0054
X003275
X003025
X002775
X002525
X002275
X002025
X001775
X001525
Y0049
X001775
X002025
X002275
X002525
X002775
X003025
X003275
X003525
X00365Y00465
X0034
X00315
X0029
X00265
X0024
X00215
X002275Y0044
X002525
X002775
X003025
X003275
X003525
X001618Y004372
X00151Y004394
X001406Y00443
X001215Y004538
X001131Y004608
X001056Y004689
X000993Y004779
X000942Y004877
X000903Y00498
X000877Y005087
X000775Y0049
X000525
X00065Y00465
X0009
X000775Y0044
X000525
Y0054
X003775
X004025
X004275
X0044Y00515
X00465
X0049
X004775Y0049
X004525
X004275
X004025
X003775
X0039Y00515
X00415
Y00465
X0044
X00465
X0049
X004775Y0044
X004525
X004275
X004025
X003775
X0039Y00465
T02
X001Y0002
X001254
X001508
X001762
X002016
X00227
X002524
X002778
X003032
X003286
X00354
X003794
X002875Y001838
Y002092
Y002346
Y0026
Y002854
T03
X0003Y0003
X0047
X0003Y0054
X0047
M30
