G04*
G04 #@! TF.GenerationSoftware,Altium Limited,Altium Designer,26.6.0 (10)*
G04*
G04 Layer_Color=8421504*
G04 Board_Origin=14468504|9645670*
%FSLAX44Y44*%
%MOMM*%
G71*
G04*
G04 #@! TF.SameCoordinates,7998D1FF-D2DA-40C6-B84B-B500990ED48C*
G04*
G04*
G04 #@! TF.FilePolarity,Positive*
G04*
G01*
G75*
%ADD17R,1.9000X0.9500*%
%ADD18R,6.9000X6.8000*%
%ADD19R,0.9500X0.6000*%
%ADD20R,1.0000X0.8000*%
%ADD21R,0.8000X1.0000*%
%ADD22R,1.5240X3.0480*%
%ADD23R,1.5000X3.8100*%
%ADD24R,1.6000X4.9000*%
%ADD25R,1.6000X0.8000*%
G04:AMPARAMS|DCode=26|XSize=0.85mm|YSize=0.55mm|CornerRadius=0.1375mm|HoleSize=0mm|Usage=FLASHONLY|Rotation=270.000|XOffset=0mm|YOffset=0mm|HoleType=Round|Shape=RoundedRectangle|*
%AMROUNDEDRECTD26*
21,1,0.8500,0.2750,0,0,270.0*
21,1,0.5750,0.5500,0,0,270.0*
1,1,0.2750,-0.1375,-0.2875*
1,1,0.2750,-0.1375,0.2875*
1,1,0.2750,0.1375,0.2875*
1,1,0.2750,0.1375,-0.2875*
%
%ADD26ROUNDEDRECTD26*%
%ADD27R,1.4500X1.0000*%
G04:AMPARAMS|DCode=28|XSize=0.86mm|YSize=1.35mm|CornerRadius=0.2193mm|HoleSize=0mm|Usage=FLASHONLY|Rotation=90.000|XOffset=0mm|YOffset=0mm|HoleType=Round|Shape=RoundedRectangle|*
%AMROUNDEDRECTD28*
21,1,0.8600,0.9114,0,0,90.0*
21,1,0.4214,1.3500,0,0,90.0*
1,1,0.4386,0.4557,0.2107*
1,1,0.4386,0.4557,-0.2107*
1,1,0.4386,-0.4557,-0.2107*
1,1,0.4386,-0.4557,0.2107*
%
%ADD28ROUNDEDRECTD28*%
G04:AMPARAMS|DCode=29|XSize=1.27mm|YSize=0.31mm|CornerRadius=0.0806mm|HoleSize=0mm|Usage=FLASHONLY|Rotation=180.000|XOffset=0mm|YOffset=0mm|HoleType=Round|Shape=RoundedRectangle|*
%AMROUNDEDRECTD29*
21,1,1.2700,0.1488,0,0,180.0*
21,1,1.1088,0.3100,0,0,180.0*
1,1,0.1612,-0.5544,0.0744*
1,1,0.1612,0.5544,0.0744*
1,1,0.1612,0.5544,-0.0744*
1,1,0.1612,-0.5544,-0.0744*
%
%ADD29ROUNDEDRECTD29*%
G04:AMPARAMS|DCode=30|XSize=0.3mm|YSize=1.45mm|CornerRadius=0.045mm|HoleSize=0mm|Usage=FLASHONLY|Rotation=90.000|XOffset=0mm|YOffset=0mm|HoleType=Round|Shape=RoundedRectangle|*
%AMROUNDEDRECTD30*
21,1,0.3000,1.3600,0,0,90.0*
21,1,0.2100,1.4500,0,0,90.0*
1,1,0.0900,0.6800,0.1050*
1,1,0.0900,0.6800,-0.1050*
1,1,0.0900,-0.6800,-0.1050*
1,1,0.0900,-0.6800,0.1050*
%
%ADD30ROUNDEDRECTD30*%
G04:AMPARAMS|DCode=31|XSize=1.8mm|YSize=1.2mm|CornerRadius=0.12mm|HoleSize=0mm|Usage=FLASHONLY|Rotation=270.000|XOffset=0mm|YOffset=0mm|HoleType=Round|Shape=RoundedRectangle|*
%AMROUNDEDRECTD31*
21,1,1.8000,0.9600,0,0,270.0*
21,1,1.5600,1.2000,0,0,270.0*
1,1,0.2400,-0.4800,-0.7800*
1,1,0.2400,-0.4800,0.7800*
1,1,0.2400,0.4800,0.7800*
1,1,0.2400,0.4800,-0.7800*
%
%ADD31ROUNDEDRECTD31*%
G04:AMPARAMS|DCode=32|XSize=1.8mm|YSize=1.5mm|CornerRadius=0.15mm|HoleSize=0mm|Usage=FLASHONLY|Rotation=90.000|XOffset=0mm|YOffset=0mm|HoleType=Round|Shape=RoundedRectangle|*
%AMROUNDEDRECTD32*
21,1,1.8000,1.2000,0,0,90.0*
21,1,1.5000,1.5000,0,0,90.0*
1,1,0.3000,0.6000,0.7500*
1,1,0.3000,0.6000,-0.7500*
1,1,0.3000,-0.6000,-0.7500*
1,1,0.3000,-0.6000,0.7500*
%
%ADD32ROUNDEDRECTD32*%
G04:AMPARAMS|DCode=33|XSize=2.27mm|YSize=1.65mm|CornerRadius=0.2475mm|HoleSize=0mm|Usage=FLASHONLY|Rotation=0.000|XOffset=0mm|YOffset=0mm|HoleType=Round|Shape=RoundedRectangle|*
%AMROUNDEDRECTD33*
21,1,2.2700,1.1550,0,0,0.0*
21,1,1.7750,1.6500,0,0,0.0*
1,1,0.4950,0.8875,-0.5775*
1,1,0.4950,-0.8875,-0.5775*
1,1,0.4950,-0.8875,0.5775*
1,1,0.4950,0.8875,0.5775*
%
%ADD33ROUNDEDRECTD33*%
%ADD34R,1.1500X1.4000*%
%ADD35R,1.0000X1.4500*%
%ADD36R,1.4000X1.1500*%
%ADD37R,1.0000X0.6000*%
G04:AMPARAMS|DCode=38|XSize=0.85mm|YSize=0.55mm|CornerRadius=0.1375mm|HoleSize=0mm|Usage=FLASHONLY|Rotation=0.000|XOffset=0mm|YOffset=0mm|HoleType=Round|Shape=RoundedRectangle|*
%AMROUNDEDRECTD38*
21,1,0.8500,0.2750,0,0,0.0*
21,1,0.5750,0.5500,0,0,0.0*
1,1,0.2750,0.2875,-0.1375*
1,1,0.2750,-0.2875,-0.1375*
1,1,0.2750,-0.2875,0.1375*
1,1,0.2750,0.2875,0.1375*
%
%ADD38ROUNDEDRECTD38*%
%ADD39R,0.6000X0.9500*%
G04:AMPARAMS|DCode=40|XSize=2.27mm|YSize=1.65mm|CornerRadius=0.2475mm|HoleSize=0mm|Usage=FLASHONLY|Rotation=90.000|XOffset=0mm|YOffset=0mm|HoleType=Round|Shape=RoundedRectangle|*
%AMROUNDEDRECTD40*
21,1,2.2700,1.1550,0,0,90.0*
21,1,1.7750,1.6500,0,0,90.0*
1,1,0.4950,0.5775,0.8875*
1,1,0.4950,0.5775,-0.8875*
1,1,0.4950,-0.5775,-0.8875*
1,1,0.4950,-0.5775,0.8875*
%
%ADD40ROUNDEDRECTD40*%
G36*
X82250Y90000D02*
X82250Y85000D01*
X82250Y84900D01*
X82174Y84717D01*
X82034Y84576D01*
X81850Y84500D01*
X81751Y84500D01*
X81751Y84499D01*
X68250Y84500D01*
X68151Y84500D01*
X67967Y84576D01*
X67826Y84716D01*
X67750Y84900D01*
X67750Y85000D01*
Y85000D01*
X67751Y90000D01*
X67751Y90099D01*
X67827Y90283D01*
X67967Y90423D01*
X68151Y90499D01*
X68250Y90500D01*
X68250D01*
X81751Y90499D01*
X81850D01*
X82034Y90423D01*
X82174Y90283D01*
X82250Y90099D01*
X82250Y90000D01*
X82250Y90000D01*
D02*
G37*
G36*
Y98000D02*
X82250Y93000D01*
X82250Y92900D01*
X82174Y92717D01*
X82034Y92576D01*
X81850Y92500D01*
X81751Y92500D01*
X81751Y92499D01*
X68250Y92500D01*
X68151Y92500D01*
X67967Y92576D01*
X67826Y92716D01*
X67750Y92900D01*
X67750Y93000D01*
Y93000D01*
X67751Y97999D01*
X67751Y98099D01*
X67827Y98283D01*
X67967Y98423D01*
X68151Y98499D01*
X68250Y98500D01*
X68250D01*
X81751Y98499D01*
X81850D01*
X82034Y98423D01*
X82174Y98283D01*
X82250Y98099D01*
X82250Y98000D01*
X82250Y98000D01*
D02*
G37*
G36*
X82249Y155000D02*
X82250Y150000D01*
X82250Y149901D01*
X82174Y149717D01*
X82033Y149576D01*
X81850Y149500D01*
X81750Y149500D01*
X81750Y149500D01*
X68250Y149500D01*
X68151Y149500D01*
X67967Y149576D01*
X67826Y149717D01*
X67750Y149901D01*
X67750Y150000D01*
Y150000D01*
X67750Y155000D01*
X67750Y155099D01*
X67826Y155283D01*
X67967Y155424D01*
X68150Y155500D01*
X68250Y155500D01*
X68250D01*
X81750Y155500D01*
X81850D01*
X82033Y155424D01*
X82173Y155283D01*
X82249Y155100D01*
X82249Y155001D01*
X82249Y155000D01*
D02*
G37*
G36*
X82250Y147000D02*
X82250Y142000D01*
X82250Y141900D01*
X82174Y141717D01*
X82034Y141576D01*
X81850Y141500D01*
X81751Y141500D01*
X81751Y141499D01*
X68250Y141500D01*
X68151Y141500D01*
X67967Y141576D01*
X67826Y141716D01*
X67750Y141900D01*
X67750Y142000D01*
Y142000D01*
X67751Y147000D01*
X67751Y147099D01*
X67827Y147283D01*
X67967Y147423D01*
X68151Y147500D01*
X68250Y147500D01*
X68250D01*
X81751Y147499D01*
X81850D01*
X82034Y147423D01*
X82174Y147283D01*
X82250Y147100D01*
X82250Y147000D01*
X82250Y147000D01*
D02*
G37*
D17*
X215000Y275000D02*
D03*
Y229400D02*
D03*
D18*
X152000Y252200D02*
D03*
D19*
X222500Y670000D02*
D03*
Y655000D02*
D03*
X120000Y635000D02*
D03*
Y620000D02*
D03*
X132500Y635000D02*
D03*
Y620000D02*
D03*
X85000Y592500D02*
D03*
Y607500D02*
D03*
X150000Y522500D02*
D03*
Y537500D02*
D03*
X100000Y537500D02*
D03*
Y522500D02*
D03*
X50000Y522500D02*
D03*
Y537500D02*
D03*
X145000Y390000D02*
D03*
Y405000D02*
D03*
Y620000D02*
D03*
Y635000D02*
D03*
X107500Y620000D02*
D03*
Y635000D02*
D03*
X200000Y537500D02*
D03*
Y522500D02*
D03*
X110000Y577500D02*
D03*
Y592500D02*
D03*
D20*
X222500Y680750D02*
D03*
Y694250D02*
D03*
X192500Y851750D02*
D03*
Y838250D02*
D03*
X205000Y894250D02*
D03*
Y880750D02*
D03*
X220000Y894250D02*
D03*
Y880750D02*
D03*
X87500Y634250D02*
D03*
Y620750D02*
D03*
X97500Y606750D02*
D03*
Y593250D02*
D03*
D21*
X193250Y825000D02*
D03*
X206750D02*
D03*
X193250Y865000D02*
D03*
X206750D02*
D03*
X35750Y212500D02*
D03*
X49250D02*
D03*
D22*
X167140Y917500D02*
D03*
X212860D02*
D03*
D23*
X125000Y972300D02*
D03*
D24*
X99600Y969250D02*
D03*
X150400D02*
D03*
D25*
X170000Y826200D02*
D03*
X30000Y838900D02*
D03*
Y826200D02*
D03*
X170000Y673800D02*
D03*
Y686500D02*
D03*
Y699200D02*
D03*
Y711900D02*
D03*
Y724600D02*
D03*
Y737300D02*
D03*
Y762700D02*
D03*
Y775400D02*
D03*
Y788100D02*
D03*
Y800800D02*
D03*
Y661100D02*
D03*
X30000Y813500D02*
D03*
Y800800D02*
D03*
Y788100D02*
D03*
Y775400D02*
D03*
Y762700D02*
D03*
Y750000D02*
D03*
Y724600D02*
D03*
Y711900D02*
D03*
Y686500D02*
D03*
Y673800D02*
D03*
Y661100D02*
D03*
X170000Y750000D02*
D03*
X30000Y737300D02*
D03*
X170000Y813500D02*
D03*
Y838900D02*
D03*
X30000Y699200D02*
D03*
D26*
X72500Y609500D02*
D03*
X52500Y609500D02*
D03*
Y635500D02*
D03*
X72500Y635500D02*
D03*
X62500Y609500D02*
D03*
D27*
X32500Y635500D02*
D03*
Y619500D02*
D03*
X52500Y590500D02*
D03*
Y574500D02*
D03*
X195000Y358000D02*
D03*
Y342000D02*
D03*
X127500Y405500D02*
D03*
Y389500D02*
D03*
D28*
X200000Y509350D02*
D03*
Y490650D02*
D03*
X150000D02*
D03*
Y509350D02*
D03*
X100000Y490650D02*
D03*
Y509350D02*
D03*
X50000Y490650D02*
D03*
Y509350D02*
D03*
D29*
X34850Y227500D02*
D03*
Y232500D02*
D03*
Y237500D02*
D03*
Y242500D02*
D03*
Y247500D02*
D03*
X75150D02*
D03*
Y242500D02*
D03*
Y232500D02*
D03*
Y227500D02*
D03*
Y237500D02*
D03*
D30*
X75000Y137500D02*
D03*
Y127500D02*
D03*
Y112500D02*
D03*
Y102500D02*
D03*
Y107500D02*
D03*
Y117500D02*
D03*
Y122500D02*
D03*
Y132500D02*
D03*
D31*
X24200Y69200D02*
D03*
Y170800D02*
D03*
D32*
X66000D02*
D03*
Y69200D02*
D03*
D33*
X216650Y155000D02*
D03*
X173350D02*
D03*
D34*
X199000Y180000D02*
D03*
X216000D02*
D03*
D35*
X217000Y205000D02*
D03*
X233000D02*
D03*
X214500Y300000D02*
D03*
X230500D02*
D03*
D36*
X215000Y244000D02*
D03*
Y261000D02*
D03*
D37*
X153000Y367000D02*
D03*
Y348000D02*
D03*
X177000Y357500D02*
D03*
D38*
X203000Y392500D02*
D03*
X203000Y372500D02*
D03*
X177000D02*
D03*
X177000Y392500D02*
D03*
X203000Y382500D02*
D03*
D39*
X185000Y407500D02*
D03*
X170000D02*
D03*
D40*
X127500Y366650D02*
D03*
Y323350D02*
D03*
X95000Y366650D02*
D03*
Y323350D02*
D03*
X62500Y366650D02*
D03*
Y323350D02*
D03*
M02*
