M48
;Layer_Color=9474304
;FILE_FORMAT=4:2
METRIC,LZ
;TYPE=PLATED
T01F00S00C0.30
T04F00S00C1.14
T05F00S00C1.80
T06F00S00C2.60
;TYPE=NON_PLATED
T07F00S00C0.75
%
T01
X000075Y0008
X0002Y00105
X000075Y0013
X000325
X00045Y00105
X00095
X001075Y0008
X00095Y00055
X001075Y0003
X001325
X001575
X001825
X00195Y00055
X0022
X002325Y0008
X002075
X001825
X001575
X0017Y00055
X00195Y00105
X0022
X002325Y0013
X002075
X001325
X00145Y00105
X000825Y0003
X000575
X00045Y00055
Y00155
X00048Y002006
Y002256
X0007Y00255
X00095
X00088Y002381
X001075Y0023
X00125Y002325
Y002225
X00135
X00145
X00155
Y002325
X00165
Y002425
Y002525
X00155
Y002425
X001451Y00243
X00145Y002525
X00135
Y002425
Y002325
X00145Y002325
X00145Y00205
X001575Y0018
X00145Y00155
X0012
X00195
Y00205
X002155Y002181
X002325Y0018
X00195Y00255
X001651Y00263
Y00273
X00165Y002825
X00155
X001551Y00273
Y00263
X001451
Y00273
X00145Y002825
X00135Y002825
Y002725
Y002625
X00125
Y002725
Y002825
X001075Y0028
X000825
X0007Y00305
X000353Y003128
X00035Y0033
X000825Y0038
X0007Y00405
X000575Y0043
X0007Y00455
X00095
X001075Y0048
X0012Y00505
X0017
X001825Y0053
Y0048
X002005Y004806
X00195Y00455
X0017
X001825Y0043
X002075
X002175Y003925
X002075Y0033
X001955Y003306
X001775Y00345
X001575Y0033
X0014Y003575
X00158Y004056
X001575Y0043
X00128Y004181
X001075Y0043
X001505Y004806
X000505
X00125Y002525
Y002425
X00095Y00205
X000075Y0018
X000225Y002975
X000275Y003125
Y0033
X00015
X0002Y00355
Y00405
Y00455
Y00505
Y00555
Y00605
X000075Y0073
Y0078
Y0083
X0002Y00855
X000075Y0088
X0002Y00905
X000075Y0093
X000325
X000575
X000825
X001075
X001213Y009348
X001161Y009444
X001282Y009262
X001472Y00916
X001515Y009059
X001552Y008955
X001609Y008861
X001682Y008779
X001769Y008712
X001812Y008611
X001794Y008502
X0017Y00855
X00145
X0012
X00095
X0007
X00045
X000575Y0088
X000825
X001075
X00095Y00905
X0007
X00045
X000325Y0088
X000825Y0083
X001075
X001325
X001539Y008239
X00145Y00805
X0012
X00195
X001924Y008119
X002031Y008145
X002056Y008362
X00205Y00845
X002058Y008559
X0022Y00855
Y00805
X002075Y0078
X0022Y00755
Y00705
X002075Y0063
X001825
X00195Y00605
X0022
X002075Y0058
X001825
X00195Y00555
X0022
X0017
Y00605
X00145
X001137Y005849
X000975Y005825
X0007Y0059
X000675Y005775
X000325Y0058
X00033Y006081
X00045Y00605
X000725Y006225
X000775Y00645
X000955Y006556
X001025Y006725
Y006825
X00088Y006831
X0007Y00705
X00045
X000575Y0073
X0007Y00755
X00045
X000555Y006731
Y006606
X00045Y00655
X000975Y006175
X001325Y006725
X00145Y00755
X001891Y008922
X001827Y009012
X00213Y008998
X002325Y0093
X001826Y009342
X001739Y009408
X001629
X001519Y009398
X0017Y00955
X00195
X001825Y0098
X000825
X000575
X0007Y00955
X00045
T04
X002025Y006571
Y006825
Y007079
Y007333
Y007587
T05
X00125Y001825
Y009025
T06
X00025Y00025
X00225
Y00975
X00025
T07
X000606Y000911
Y001489
M30
