G04*
G04 #@! TF.GenerationSoftware,Altium Limited,Altium Designer,26.6.0 (10)*
G04*
G04 Layer_Physical_Order=2*
G04 Layer_Color=16711680*
G04 Board_Origin=49311024|11515748*
%FSLAX44Y44*%
%MOMM*%
G71*
G04*
G04 #@! TF.SameCoordinates,B94B3F44-B146-4F81-A062-C26A6FA00A31*
G04*
G04*
G04 #@! TF.FilePolarity,Positive*
G04*
G01*
G75*
%ADD12C,0.2500*%
%ADD14R,0.9500X0.6000*%
%ADD15R,1.0000X0.8000*%
%ADD18R,1.6000X4.9000*%
%ADD22C,0.5000*%
%ADD23C,0.4000*%
%ADD26C,0.7500*%
%ADD27C,0.6000*%
G04:AMPARAMS|DCode=28|XSize=1.78mm|YSize=0.72mm|CornerRadius=0.18mm|HoleSize=0mm|Usage=FLASHONLY|Rotation=270.000|XOffset=0mm|YOffset=0mm|HoleType=Round|Shape=RoundedRectangle|*
%AMROUNDEDRECTD28*
21,1,1.7800,0.3600,0,0,270.0*
21,1,1.4200,0.7200,0,0,270.0*
1,1,0.3600,-0.1800,-0.7100*
1,1,0.3600,-0.1800,0.7100*
1,1,0.3600,0.1800,0.7100*
1,1,0.3600,0.1800,-0.7100*
%
%ADD28ROUNDEDRECTD28*%
%ADD29R,1.0000X1.4500*%
%ADD30R,0.6000X0.9500*%
G04:AMPARAMS|DCode=31|XSize=0.85mm|YSize=0.55mm|CornerRadius=0.1375mm|HoleSize=0mm|Usage=FLASHONLY|Rotation=270.000|XOffset=0mm|YOffset=0mm|HoleType=Round|Shape=RoundedRectangle|*
%AMROUNDEDRECTD31*
21,1,0.8500,0.2750,0,0,270.0*
21,1,0.5750,0.5500,0,0,270.0*
1,1,0.2750,-0.1375,-0.2875*
1,1,0.2750,-0.1375,0.2875*
1,1,0.2750,0.1375,0.2875*
1,1,0.2750,0.1375,-0.2875*
%
%ADD31ROUNDEDRECTD31*%
G04:AMPARAMS|DCode=32|XSize=1.27mm|YSize=0.31mm|CornerRadius=0.0806mm|HoleSize=0mm|Usage=FLASHONLY|Rotation=90.000|XOffset=0mm|YOffset=0mm|HoleType=Round|Shape=RoundedRectangle|*
%AMROUNDEDRECTD32*
21,1,1.2700,0.1488,0,0,90.0*
21,1,1.1088,0.3100,0,0,90.0*
1,1,0.1612,0.0744,0.5544*
1,1,0.1612,0.0744,-0.5544*
1,1,0.1612,-0.0744,-0.5544*
1,1,0.1612,-0.0744,0.5544*
%
%ADD32ROUNDEDRECTD32*%
%ADD33C,1.5000*%
G04:AMPARAMS|DCode=34|XSize=1.5mm|YSize=1.5mm|CornerRadius=0.375mm|HoleSize=0mm|Usage=FLASHONLY|Rotation=270.000|XOffset=0mm|YOffset=0mm|HoleType=Round|Shape=RoundedRectangle|*
%AMROUNDEDRECTD34*
21,1,1.5000,0.7500,0,0,270.0*
21,1,0.7500,1.5000,0,0,270.0*
1,1,0.7500,-0.3750,-0.3750*
1,1,0.7500,-0.3750,0.3750*
1,1,0.7500,0.3750,0.3750*
1,1,0.7500,0.3750,-0.3750*
%
%ADD34ROUNDEDRECTD34*%
G04:AMPARAMS|DCode=35|XSize=1.8mm|YSize=1.5mm|CornerRadius=0.15mm|HoleSize=0mm|Usage=FLASHONLY|Rotation=180.000|XOffset=0mm|YOffset=0mm|HoleType=Round|Shape=RoundedRectangle|*
%AMROUNDEDRECTD35*
21,1,1.8000,1.2000,0,0,180.0*
21,1,1.5000,1.5000,0,0,180.0*
1,1,0.3000,-0.7500,0.6000*
1,1,0.3000,0.7500,0.6000*
1,1,0.3000,0.7500,-0.6000*
1,1,0.3000,-0.7500,-0.6000*
%
%ADD35ROUNDEDRECTD35*%
G04:AMPARAMS|DCode=36|XSize=1.8mm|YSize=1.2mm|CornerRadius=0.12mm|HoleSize=0mm|Usage=FLASHONLY|Rotation=0.000|XOffset=0mm|YOffset=0mm|HoleType=Round|Shape=RoundedRectangle|*
%AMROUNDEDRECTD36*
21,1,1.8000,0.9600,0,0,0.0*
21,1,1.5600,1.2000,0,0,0.0*
1,1,0.2400,0.7800,-0.4800*
1,1,0.2400,-0.7800,-0.4800*
1,1,0.2400,-0.7800,0.4800*
1,1,0.2400,0.7800,0.4800*
%
%ADD36ROUNDEDRECTD36*%
G04:AMPARAMS|DCode=37|XSize=0.3mm|YSize=1.45mm|CornerRadius=0.045mm|HoleSize=0mm|Usage=FLASHONLY|Rotation=0.000|XOffset=0mm|YOffset=0mm|HoleType=Round|Shape=RoundedRectangle|*
%AMROUNDEDRECTD37*
21,1,0.3000,1.3600,0,0,0.0*
21,1,0.2100,1.4500,0,0,0.0*
1,1,0.0900,0.1050,-0.6800*
1,1,0.0900,-0.1050,-0.6800*
1,1,0.0900,-0.1050,0.6800*
1,1,0.0900,0.1050,0.6800*
%
%ADD37ROUNDEDRECTD37*%
%ADD38C,0.3000*%
G36*
X196666Y3334D02*
X3334D01*
Y266666D01*
X196666D01*
Y3334D01*
D02*
G37*
%LPC*%
G36*
X52780Y264925D02*
X52250D01*
X50557Y264588D01*
X49121Y263629D01*
X48204Y262257D01*
X47330Y262094D01*
X46622Y262143D01*
X45890Y263240D01*
X44633Y264079D01*
X43150Y264374D01*
X39550D01*
X38067Y264079D01*
X36810Y263240D01*
X35970Y261983D01*
X35765Y260948D01*
X34235D01*
X34030Y261983D01*
X33190Y263240D01*
X31933Y264079D01*
X30450Y264374D01*
X26850D01*
X25367Y264079D01*
X24110Y263240D01*
X23270Y261983D01*
X23065Y260948D01*
X21535D01*
X21330Y261983D01*
X20490Y263240D01*
X19233Y264079D01*
X17750Y264374D01*
X14150D01*
X12667Y264079D01*
X11410Y263240D01*
X10570Y261983D01*
X10276Y260500D01*
Y246300D01*
X10570Y244817D01*
X11410Y243560D01*
X12667Y242721D01*
X14150Y242426D01*
X17097D01*
X22184Y237339D01*
Y236190D01*
X22945Y234352D01*
X24352Y232945D01*
X26190Y232184D01*
X28179D01*
X30016Y232945D01*
X31423Y234352D01*
X32184Y236189D01*
X33684Y236971D01*
X33732Y236939D01*
X35000Y236686D01*
X40677D01*
X58295Y219069D01*
X58210Y218498D01*
X58071Y218304D01*
X56538Y217438D01*
X55850Y217574D01*
X52250D01*
X50767Y217279D01*
X49510Y216440D01*
X48671Y215183D01*
X48465Y214148D01*
X46935D01*
X46729Y215183D01*
X45890Y216440D01*
X44633Y217279D01*
X43150Y217574D01*
X39550D01*
X38067Y217279D01*
X36810Y216440D01*
X35970Y215183D01*
X35765Y214148D01*
X34235D01*
X34030Y215183D01*
X33190Y216440D01*
X31933Y217279D01*
X30450Y217574D01*
X26850D01*
X25367Y217279D01*
X24110Y216440D01*
X23270Y215183D01*
X23065Y214148D01*
X21535D01*
X21330Y215183D01*
X20490Y216440D01*
X19233Y217279D01*
X17750Y217574D01*
X14150D01*
X12667Y217279D01*
X11410Y216440D01*
X10570Y215183D01*
X10276Y213700D01*
Y212500D01*
X9005D01*
X7168Y211739D01*
X5761Y210332D01*
X5000Y208495D01*
Y206505D01*
X5412Y205511D01*
Y124489D01*
X5000Y123495D01*
Y121505D01*
X5761Y119668D01*
X7168Y118261D01*
X9005Y117500D01*
X10995D01*
X11442Y117685D01*
X13053Y117016D01*
X13334Y115606D01*
X14605Y113705D01*
X16507Y112434D01*
X18750Y111987D01*
X26250D01*
X28493Y112434D01*
X30186Y113565D01*
X31030Y113327D01*
X31686Y112936D01*
Y103270D01*
X30271Y102011D01*
X30102Y102033D01*
X28333Y103802D01*
X26167Y105053D01*
X23751Y105700D01*
X21249D01*
X18833Y105053D01*
X16667Y103802D01*
X14898Y102033D01*
X13647Y99867D01*
X13000Y97451D01*
Y94949D01*
X13647Y92533D01*
X14898Y90367D01*
X16667Y88598D01*
X18833Y87347D01*
X21249Y86700D01*
X23751D01*
X26167Y87347D01*
X28333Y88598D01*
X30102Y90367D01*
X31353Y92533D01*
X31856Y94413D01*
X31883D01*
X33151Y94665D01*
X34226Y95384D01*
X37343Y98501D01*
X38061Y99576D01*
X38314Y100844D01*
Y102540D01*
X39699Y103114D01*
X47500Y95314D01*
Y94005D01*
X48261Y92168D01*
X49668Y90761D01*
X51505Y90000D01*
X53495D01*
X55332Y90761D01*
X56739Y92168D01*
X57500Y94005D01*
Y95995D01*
X56739Y97832D01*
X55332Y99239D01*
Y100761D01*
X56739Y102168D01*
X57500Y104005D01*
Y105995D01*
X56739Y107832D01*
X56189Y108382D01*
Y120811D01*
X56411Y121143D01*
X56664Y122411D01*
Y127589D01*
X56411Y128857D01*
X56189Y129189D01*
Y168931D01*
X57689Y169933D01*
X58131Y169750D01*
X60120D01*
X61750Y170425D01*
X62615Y170090D01*
X63250Y169682D01*
Y162500D01*
X79472D01*
Y162215D01*
X79724Y160946D01*
X80442Y159871D01*
X80783Y159531D01*
X80802Y159130D01*
X80449Y157744D01*
X80093Y157507D01*
X79584Y156744D01*
X79405Y155844D01*
Y144756D01*
X79584Y143856D01*
X80093Y143094D01*
X80856Y142584D01*
X81756Y142405D01*
X83244D01*
X84186Y141063D01*
Y140000D01*
X84439Y138732D01*
X85157Y137657D01*
X87657Y135157D01*
X88732Y134439D01*
X90000Y134186D01*
X100000D01*
X101268Y134439D01*
X102343Y135157D01*
X104843Y137657D01*
X105561Y138732D01*
X105814Y140000D01*
Y144178D01*
X106107Y144435D01*
X107314Y144988D01*
X108762Y144389D01*
X109360D01*
X110213Y142889D01*
X109960Y142290D01*
X109960Y141974D01*
Y137020D01*
X125040D01*
Y141974D01*
X125040Y142290D01*
X124500Y143566D01*
X124500Y143790D01*
Y155250D01*
X124442D01*
X123821Y156750D01*
X124239Y157168D01*
X125000Y159005D01*
Y160750D01*
X125000D01*
Y162808D01*
X126500Y163429D01*
X126668Y163261D01*
X128505Y162500D01*
X130495D01*
X130713Y162590D01*
X131960Y161757D01*
X131960Y160210D01*
X131857Y158753D01*
X131192Y158308D01*
X130446Y157192D01*
X130184Y155875D01*
Y150125D01*
X130446Y148808D01*
X131192Y147692D01*
X132308Y146946D01*
X133625Y146684D01*
X136375D01*
X137692Y146946D01*
X138808Y147692D01*
X139554Y148808D01*
X139816Y150125D01*
Y155875D01*
X139554Y157192D01*
X138808Y158308D01*
X138207Y158710D01*
X138662Y160210D01*
X147040D01*
Y160210D01*
X148525Y160690D01*
X148996Y160480D01*
X149756Y160065D01*
Y158394D01*
X150384Y156879D01*
X150184Y155875D01*
Y150125D01*
X150446Y148808D01*
X151192Y147692D01*
X152308Y146946D01*
X153625Y146684D01*
X156375D01*
X157692Y146946D01*
X158808Y147692D01*
X158955Y147912D01*
X168099D01*
X172912Y143099D01*
Y61901D01*
X165599Y54588D01*
X130086D01*
X129994Y56050D01*
X132107Y56925D01*
X133725Y58543D01*
X134600Y60656D01*
Y62944D01*
X133810Y64851D01*
X134142Y65711D01*
X134552Y66351D01*
X135050D01*
X136217Y66583D01*
X137206Y67244D01*
X137681Y67956D01*
X139057Y67756D01*
X139181Y67706D01*
Y61200D01*
X139494Y59624D01*
X140387Y58287D01*
X141724Y57394D01*
X143300Y57081D01*
X149530D01*
Y67200D01*
Y77319D01*
X143300D01*
X141724Y77006D01*
X140387Y76113D01*
X138366Y75788D01*
X138099Y75992D01*
Y83000D01*
X137866Y84167D01*
X137206Y85156D01*
X136217Y85816D01*
X135270Y86005D01*
Y76200D01*
X132730D01*
Y86773D01*
X132720Y86786D01*
X132502Y87489D01*
X132849Y87912D01*
X152500D01*
X154256Y88261D01*
X155744Y89256D01*
X158744Y92256D01*
X159739Y93744D01*
X160088Y95500D01*
Y100750D01*
X162500D01*
Y119250D01*
X159588D01*
Y122979D01*
X159816Y124125D01*
Y129875D01*
X159588Y131021D01*
Y135000D01*
X159239Y136756D01*
X158244Y138244D01*
X155744Y140744D01*
X154256Y141739D01*
X152500Y142088D01*
X137500D01*
X135744Y141739D01*
X134256Y140744D01*
X131756Y138244D01*
X130761Y136756D01*
X130412Y135000D01*
Y131021D01*
X130184Y129875D01*
Y124125D01*
X130446Y122808D01*
X131192Y121692D01*
X131857Y121247D01*
X131960Y119790D01*
X131960Y119512D01*
Y111270D01*
X139500D01*
Y110000D01*
X140770D01*
Y100210D01*
X147040D01*
Y100653D01*
X148500Y100750D01*
X148540Y100750D01*
X150912D01*
Y97401D01*
X150599Y97088D01*
X130000D01*
X128244Y96739D01*
X126756Y95744D01*
X122756Y91744D01*
X121761Y90256D01*
X121412Y88500D01*
X121729Y86906D01*
X121756Y86734D01*
X121256Y85799D01*
X119602Y85244D01*
X119506Y85308D01*
X118550Y85498D01*
X116450D01*
X115814Y86020D01*
Y89377D01*
X122343Y95907D01*
X123061Y96982D01*
X123314Y98250D01*
Y100000D01*
X126750D01*
Y110000D01*
X113250D01*
Y100000D01*
X114943D01*
X115564Y98500D01*
X112199Y95136D01*
X110814Y95710D01*
Y118385D01*
X110561Y119654D01*
X109843Y120729D01*
X108379Y122193D01*
X107304Y122911D01*
X106035Y123164D01*
X98965D01*
X97696Y122911D01*
X96621Y122193D01*
X95157Y120729D01*
X94439Y119654D01*
X93770Y119263D01*
Y110000D01*
X91230D01*
Y118851D01*
X90450Y118696D01*
X89344Y117956D01*
X89189Y117725D01*
X89144Y117716D01*
X88244Y117895D01*
X86756D01*
X85856Y117716D01*
X85000Y117257D01*
X84144Y117716D01*
X83244Y117895D01*
X81756D01*
X80856Y117716D01*
X80093Y117206D01*
X79584Y116444D01*
X79405Y115544D01*
Y104456D01*
X79584Y103556D01*
X79788Y103250D01*
X79191Y101822D01*
X79124Y101750D01*
X77500D01*
Y94608D01*
X76939Y93768D01*
X76686Y92500D01*
X76939Y91232D01*
X77500Y90392D01*
Y88250D01*
X78987D01*
X79142Y86750D01*
X78050Y85498D01*
X75950D01*
X75500Y85408D01*
X75050Y85498D01*
X72950D01*
X71994Y85308D01*
X71986Y85302D01*
X71217Y85816D01*
X70270Y86005D01*
Y76200D01*
X67730D01*
Y86005D01*
X67500Y85959D01*
X67270Y86005D01*
Y76200D01*
X64730D01*
Y86005D01*
X63783Y85816D01*
X62794Y85156D01*
X62133Y84167D01*
X61901Y83000D01*
Y75992D01*
X61634Y75788D01*
X59613Y76113D01*
X59324Y76306D01*
X59239Y77168D01*
X60000Y79005D01*
Y80995D01*
X59239Y82832D01*
X57832Y84239D01*
X55995Y85000D01*
X54005D01*
X52168Y84239D01*
X51243Y83314D01*
X31700D01*
X30432Y83061D01*
X29357Y82343D01*
X26484Y79470D01*
X26167Y79653D01*
X23751Y80300D01*
X21249D01*
X18833Y79653D01*
X16667Y78402D01*
X14898Y76633D01*
X13647Y74467D01*
X13000Y72051D01*
Y69549D01*
X13647Y67133D01*
X14898Y64967D01*
X16667Y63198D01*
X18833Y61947D01*
X21249Y61300D01*
X23751D01*
X26167Y61947D01*
X28333Y63198D01*
X30102Y64967D01*
X31353Y67133D01*
X32000Y69549D01*
Y72051D01*
X31353Y74467D01*
X31170Y74784D01*
X33073Y76686D01*
X37367D01*
X38168Y75186D01*
X37894Y74776D01*
X37581Y73200D01*
Y68470D01*
X49200D01*
Y67200D01*
X50470D01*
Y57081D01*
X56700D01*
X58276Y57394D01*
X59613Y58287D01*
X60506Y59624D01*
X60819Y61200D01*
Y67706D01*
X60943Y67756D01*
X62319Y67956D01*
X62794Y67244D01*
X63783Y66583D01*
X64950Y66351D01*
X65448D01*
X65858Y65711D01*
X66190Y64851D01*
X65400Y62944D01*
Y60656D01*
X66275Y58543D01*
X67893Y56925D01*
X70006Y56050D01*
X69914Y54588D01*
X49489D01*
X48495Y55000D01*
X46505D01*
X44668Y54239D01*
X43261Y52832D01*
X42500Y50995D01*
Y49817D01*
X42456Y48986D01*
X41132Y48389D01*
X31534D01*
X31353Y49067D01*
X30102Y51233D01*
X28333Y53002D01*
X26167Y54253D01*
X23751Y54900D01*
X21249D01*
X18833Y54253D01*
X16667Y53002D01*
X14898Y51233D01*
X13647Y49067D01*
X13000Y46651D01*
Y44149D01*
X13647Y41733D01*
X14898Y39567D01*
X16667Y37798D01*
X18833Y36548D01*
X21249Y35900D01*
X23751D01*
X26167Y36548D01*
X28333Y37798D01*
X30102Y39567D01*
X31353Y41733D01*
X31360Y41761D01*
X41052D01*
X42500Y40314D01*
Y39005D01*
X43261Y37168D01*
X44668Y35761D01*
X45266Y35513D01*
X44968Y34013D01*
X41400D01*
X39941Y33723D01*
X38704Y32896D01*
X37877Y31659D01*
X37587Y30200D01*
Y26670D01*
X49200D01*
X60813D01*
Y30200D01*
X60523Y31659D01*
X59696Y32896D01*
X58459Y33723D01*
X57000Y34013D01*
X50032D01*
X49734Y35513D01*
X50332Y35761D01*
X51739Y37168D01*
X52500Y39005D01*
Y40995D01*
X51739Y42832D01*
X50659Y43912D01*
X51122Y45412D01*
X167500D01*
X169256Y45761D01*
X170744Y46756D01*
X180744Y56756D01*
X181739Y58244D01*
X182088Y60000D01*
Y145000D01*
X181739Y146756D01*
X180744Y148244D01*
X173244Y155744D01*
X171756Y156739D01*
X170000Y157088D01*
X160648D01*
X159756Y158394D01*
Y160383D01*
X160001Y160750D01*
X162500D01*
Y179250D01*
X148540D01*
X148500Y179250D01*
X147040Y179347D01*
Y179790D01*
X140770D01*
Y170000D01*
X138230D01*
Y179790D01*
X131960D01*
Y178640D01*
X130460Y177838D01*
X130144Y178049D01*
Y178170D01*
X129892Y179438D01*
X129173Y180513D01*
X117343Y192343D01*
X116268Y193061D01*
X115000Y193314D01*
X85000D01*
X83732Y193061D01*
X82657Y192343D01*
X80442Y190129D01*
X79724Y189054D01*
X79472Y187785D01*
Y187500D01*
X75726D01*
X74893Y188747D01*
X75000Y189005D01*
Y190995D01*
X74239Y192832D01*
X72832Y194239D01*
X70995Y195000D01*
X69005D01*
X67314Y194299D01*
X65814Y194845D01*
Y219550D01*
X65561Y220818D01*
X64843Y221893D01*
X45297Y241440D01*
X45535Y243323D01*
X45890Y243560D01*
X46622Y244657D01*
X47330Y244706D01*
X48204Y244543D01*
X49121Y243171D01*
X50557Y242212D01*
X52250Y241875D01*
X52780D01*
Y253400D01*
Y264925D01*
D02*
G37*
G36*
X55850D02*
X55320D01*
Y254670D01*
X60275D01*
Y260500D01*
X59938Y262193D01*
X58979Y263629D01*
X57543Y264588D01*
X55850Y264925D01*
D02*
G37*
G36*
X60275Y252130D02*
X55320D01*
Y241875D01*
X55850D01*
X57543Y242212D01*
X58979Y243171D01*
X59938Y244607D01*
X60275Y246300D01*
Y252130D01*
D02*
G37*
G36*
X125040Y134480D02*
X118770D01*
Y129210D01*
X125040D01*
Y134480D01*
D02*
G37*
G36*
X116230D02*
X109960D01*
Y129210D01*
X116230D01*
Y134480D01*
D02*
G37*
G36*
X127290Y125540D02*
X121270D01*
Y121270D01*
X127290D01*
Y125540D01*
D02*
G37*
G36*
X118730D02*
X112710D01*
Y121270D01*
X118730D01*
Y125540D01*
D02*
G37*
G36*
X127290Y118730D02*
X121270D01*
Y114460D01*
X127290D01*
Y118730D01*
D02*
G37*
G36*
X118730D02*
X112710D01*
Y114460D01*
X118730D01*
Y118730D01*
D02*
G37*
G36*
X138230Y108730D02*
X131960D01*
Y100210D01*
X138230D01*
Y108730D01*
D02*
G37*
G36*
X73040Y102290D02*
X68770D01*
Y96270D01*
X73040D01*
Y102290D01*
D02*
G37*
G36*
X66230D02*
X61960D01*
Y96270D01*
X66230D01*
Y102290D01*
D02*
G37*
G36*
X73040Y93730D02*
X68770D01*
Y87710D01*
X73040D01*
Y93730D01*
D02*
G37*
G36*
X66230D02*
X61960D01*
Y87710D01*
X66230D01*
Y93730D01*
D02*
G37*
G36*
X158300Y77319D02*
X152070D01*
Y68470D01*
X162419D01*
Y73200D01*
X162106Y74776D01*
X161213Y76113D01*
X159876Y77006D01*
X158300Y77319D01*
D02*
G37*
G36*
X162419Y65930D02*
X152070D01*
Y57081D01*
X158300D01*
X159876Y57394D01*
X161213Y58287D01*
X162106Y59624D01*
X162419Y61200D01*
Y65930D01*
D02*
G37*
G36*
X47930D02*
X37581D01*
Y61200D01*
X37894Y59624D01*
X38787Y58287D01*
X40124Y57394D01*
X41700Y57081D01*
X47930D01*
Y65930D01*
D02*
G37*
G36*
X158600Y34013D02*
X152070D01*
Y26670D01*
X162413D01*
Y30200D01*
X162123Y31659D01*
X161296Y32896D01*
X160059Y33723D01*
X158600Y34013D01*
D02*
G37*
G36*
X149530D02*
X143000D01*
X141541Y33723D01*
X140304Y32896D01*
X139477Y31659D01*
X139187Y30200D01*
Y26670D01*
X149530D01*
Y34013D01*
D02*
G37*
G36*
X23822Y30040D02*
X23770D01*
Y21270D01*
X32540D01*
Y21322D01*
X31856Y23875D01*
X30534Y26165D01*
X28665Y28034D01*
X26375Y29356D01*
X23822Y30040D01*
D02*
G37*
G36*
X21230D02*
X21178D01*
X18625Y29356D01*
X16335Y28034D01*
X14466Y26165D01*
X13144Y23875D01*
X12460Y21322D01*
Y21270D01*
X21230D01*
Y30040D01*
D02*
G37*
G36*
X162413Y24130D02*
X152070D01*
Y16787D01*
X158600D01*
X160059Y17077D01*
X161296Y17904D01*
X162123Y19141D01*
X162413Y20600D01*
Y24130D01*
D02*
G37*
G36*
X149530D02*
X139187D01*
Y20600D01*
X139477Y19141D01*
X140304Y17904D01*
X141541Y17077D01*
X143000Y16787D01*
X149530D01*
Y24130D01*
D02*
G37*
G36*
X60813D02*
X50470D01*
Y16787D01*
X57000D01*
X58459Y17077D01*
X59696Y17904D01*
X60523Y19141D01*
X60813Y20600D01*
Y24130D01*
D02*
G37*
G36*
X47930D02*
X37587D01*
Y20600D01*
X37877Y19141D01*
X38704Y17904D01*
X39941Y17077D01*
X41400Y16787D01*
X47930D01*
Y24130D01*
D02*
G37*
G36*
X32540Y18730D02*
X23770D01*
Y9960D01*
X23822D01*
X26375Y10644D01*
X28665Y11966D01*
X30534Y13835D01*
X31856Y16125D01*
X32540Y18678D01*
Y18730D01*
D02*
G37*
G36*
X21230D02*
X12460D01*
Y18678D01*
X13144Y16125D01*
X14466Y13835D01*
X16335Y11966D01*
X18625Y10644D01*
X21178Y9960D01*
X21230D01*
Y18730D01*
D02*
G37*
%LPD*%
D12*
X39500Y204750D02*
X41350Y206600D01*
X39500Y108000D02*
Y204750D01*
Y108000D02*
X52500Y95000D01*
X115000Y190000D02*
X126830Y178170D01*
X82786Y187785D02*
X85000Y190000D01*
X115000D01*
X52876Y128063D02*
Y182876D01*
Y128063D02*
X53350Y127589D01*
X52500Y105000D02*
X52876Y105376D01*
Y121937D02*
X53350Y122411D01*
X52876Y105376D02*
Y121937D01*
X53350Y122411D02*
Y127589D01*
X52876Y182876D02*
X62500Y192500D01*
X42050Y240000D02*
X62500Y219550D01*
Y192500D02*
Y219550D01*
X120000Y160000D02*
Y168368D01*
X126830Y175500D02*
X128830Y173500D01*
Y168170D02*
Y173500D01*
X126830Y175500D02*
Y178170D01*
X128830Y168170D02*
X129500Y167500D01*
X28650Y253400D02*
X30661Y251390D01*
Y244340D02*
X35000Y240000D01*
X42050D01*
X30661Y244340D02*
Y251390D01*
X74000Y76200D02*
X77000D01*
X131000D02*
X134000D01*
X125750Y75950D02*
Y76200D01*
X123000D02*
X125750D01*
X47100Y187100D02*
X54050Y194050D01*
X47100Y125000D02*
Y187100D01*
X102500Y66465D02*
Y110000D01*
X101035Y65000D02*
X102500Y66465D01*
X93965Y65000D02*
X101035D01*
X92500Y66465D02*
X93965Y65000D01*
X92500Y66465D02*
Y76200D01*
X92200Y150600D02*
Y155400D01*
X85000Y160000D02*
X89117D01*
X91800Y155800D02*
X92200Y155400D01*
X82786Y162215D02*
X85000Y160000D01*
X92200Y150600D02*
X92500Y150300D01*
X89117Y160000D02*
X91800Y157317D01*
X82500Y167500D02*
X82786Y167215D01*
X91800Y155800D02*
Y157317D01*
X82786Y162215D02*
Y167215D01*
X70000Y167500D02*
X82125D01*
X82500Y182500D02*
X82786Y182785D01*
Y187785D01*
X54050Y194050D02*
Y206600D01*
X77250Y66660D02*
Y75950D01*
Y66660D02*
X77955Y65955D01*
X125750Y75950D02*
X126000Y76200D01*
X125750Y69660D02*
Y75950D01*
X125295Y69205D02*
X125750Y69660D01*
X126000Y76200D02*
Y88500D01*
X66000Y76200D02*
X69000D01*
X77000D02*
X77250Y75950D01*
X31700Y80000D02*
X55000D01*
X22825Y45075D02*
X42425D01*
X47500Y40000D01*
X22500Y45400D02*
X22825Y45075D01*
X35000Y100844D02*
Y168876D01*
X31883Y97727D02*
X35000Y100844D01*
X22500Y96200D02*
X24027Y97727D01*
X31883D01*
X19126Y184750D02*
X35000Y168876D01*
X22500Y70800D02*
X31700Y80000D01*
X95750Y167500D02*
X105000D01*
X95000D02*
X95750D01*
X60000Y175000D02*
X93535D01*
X95000Y176465D01*
Y182500D01*
X70000D02*
Y190000D01*
X15950Y248259D02*
Y253400D01*
X27025Y237184D02*
X27184D01*
X15950Y248259D02*
X27025Y237184D01*
X120000Y98250D02*
Y105000D01*
X112500Y90750D02*
X120000Y98250D01*
X87500Y140000D02*
Y150300D01*
Y140000D02*
X90000Y137500D01*
X100000D01*
X102500Y140000D01*
Y150300D01*
X95750Y167500D02*
X97500Y165750D01*
Y150300D02*
Y165750D01*
X106035Y119850D02*
X107500Y118385D01*
X97500D02*
X98965Y119850D01*
X107500Y88361D02*
Y118385D01*
X98965Y119850D02*
X106035D01*
X97500Y76200D02*
Y118385D01*
X107500Y88361D02*
X107500Y88361D01*
Y76200D02*
Y88361D01*
X112500Y76200D02*
Y90750D01*
X80000Y92500D02*
X80750D01*
X82500Y90750D01*
Y76200D02*
Y90750D01*
D14*
X70000Y182500D02*
D03*
Y167500D02*
D03*
X82500Y182500D02*
D03*
Y167500D02*
D03*
X95000Y182500D02*
D03*
Y167500D02*
D03*
X120000Y105000D02*
D03*
Y120000D02*
D03*
D15*
X117500Y149250D02*
D03*
Y135750D02*
D03*
D18*
X125400Y244250D02*
D03*
X74600D02*
D03*
D22*
X139500Y111270D02*
X145000Y116770D01*
Y127000D01*
X135000Y135000D02*
X137500Y137500D01*
X135000Y127000D02*
Y135000D01*
X135000Y127000D02*
X135000Y127000D01*
X86410Y57500D02*
X113590D01*
X155000Y153000D02*
X155500Y152500D01*
X170000D01*
X177500Y145000D01*
Y60000D02*
Y145000D01*
X167500Y50000D02*
X177500Y60000D01*
X47500Y50000D02*
X167500D01*
X10000Y122500D02*
Y207500D01*
X21600Y122500D02*
X22500Y121600D01*
X10000Y122500D02*
X21600D01*
X126000Y88500D02*
X130000Y92500D01*
X152500D01*
X155500Y95500D01*
Y110000D01*
X137500Y137500D02*
X152500D01*
X155000Y135000D01*
Y127000D02*
Y135000D01*
Y110500D02*
Y127000D01*
Y110500D02*
X155500Y110000D01*
X155000Y169500D02*
X155500Y170000D01*
X155000Y153000D02*
Y169500D01*
Y170500D02*
X155500Y170000D01*
D23*
X139500Y110000D02*
X141843Y112343D01*
X102800Y149250D02*
X117500D01*
D26*
X128850Y61800D02*
D03*
X71150D02*
D03*
D27*
X185000Y232500D02*
D03*
X172500Y207500D02*
D03*
X185000Y32500D02*
D03*
X172500Y7500D02*
D03*
X160000Y232500D02*
D03*
X147500Y207500D02*
D03*
Y7500D02*
D03*
X122500D02*
D03*
X97500D02*
D03*
X85000Y132500D02*
D03*
Y32500D02*
D03*
X72500Y7500D02*
D03*
X60000Y232500D02*
D03*
Y132500D02*
D03*
X47500Y7500D02*
D03*
X86973Y222407D02*
D03*
X94339Y214237D02*
D03*
X100056Y204839D02*
D03*
X107032Y196334D02*
D03*
X185991Y181605D02*
D03*
X185665Y192600D02*
D03*
X154238Y198379D02*
D03*
X143541Y200943D02*
D03*
X133648Y205751D02*
D03*
X125023Y212578D02*
D03*
X49473Y221450D02*
D03*
X120000Y160000D02*
D03*
X129500Y167500D02*
D03*
X144473Y121450D02*
D03*
X109756Y149389D02*
D03*
X154756Y159389D02*
D03*
X125040Y129210D02*
D03*
X47100Y125000D02*
D03*
X52500Y105000D02*
D03*
Y95000D02*
D03*
X47500Y50000D02*
D03*
X10000Y207500D02*
D03*
Y122500D02*
D03*
X55000Y80000D02*
D03*
X47500Y40000D02*
D03*
X19126Y184750D02*
D03*
X59126Y174750D02*
D03*
X70000Y190000D02*
D03*
X27184Y237184D02*
D03*
D28*
X15950Y206600D02*
D03*
Y253400D02*
D03*
X54050Y206600D02*
D03*
X41350D02*
D03*
X28650D02*
D03*
X54050Y253400D02*
D03*
X28650D02*
D03*
X41350D02*
D03*
D29*
X155500Y170000D02*
D03*
X139500D02*
D03*
X155500Y110000D02*
D03*
X139500D02*
D03*
D30*
X120000Y167500D02*
D03*
X105000D02*
D03*
X82500Y95000D02*
D03*
X67500D02*
D03*
D31*
X135000Y127000D02*
D03*
X145000Y127000D02*
D03*
X155000D02*
D03*
Y153000D02*
D03*
X135000Y153000D02*
D03*
D32*
X102500Y150300D02*
D03*
X97500D02*
D03*
X92500D02*
D03*
X87500D02*
D03*
X82500D02*
D03*
Y110000D02*
D03*
X87500D02*
D03*
X92500D02*
D03*
X97500D02*
D03*
X102500D02*
D03*
D33*
X22500Y70800D02*
D03*
Y96200D02*
D03*
Y45400D02*
D03*
Y20000D02*
D03*
D34*
Y121600D02*
D03*
D35*
X49200Y67200D02*
D03*
X150800D02*
D03*
D36*
Y25400D02*
D03*
X49200D02*
D03*
D37*
X131000Y76200D02*
D03*
X126000D02*
D03*
X112500D02*
D03*
X102500D02*
D03*
X97500D02*
D03*
X87500D02*
D03*
X74000D02*
D03*
X66000D02*
D03*
X69000D02*
D03*
X77000D02*
D03*
X82500D02*
D03*
X92500D02*
D03*
X107500D02*
D03*
X117500D02*
D03*
X123000D02*
D03*
X134000D02*
D03*
D38*
X113590Y57500D02*
X125295Y69205D01*
X77955Y65955D02*
X86410Y57500D01*
M02*
