G04*
G04 #@! TF.GenerationSoftware,Altium Limited,Altium Designer,26.6.0 (10)*
G04*
G04 Layer_Color=65535*
G04 Board_Origin=49311024|11515748*
%FSLAX44Y44*%
%MOMM*%
G71*
G04*
G04 #@! TF.SameCoordinates,B94B3F44-B146-4F81-A062-C26A6FA00A31*
G04*
G04*
G04 #@! TF.FilePolarity,Positive*
G04*
G01*
G75*
%ADD10C,0.2000*%
%ADD11C,0.2540*%
%ADD12C,0.2500*%
%ADD13C,0.1200*%
D10*
X6250Y192000D02*
Y193000D01*
X13750Y192000D02*
Y193000D01*
X18750Y229500D02*
Y230500D01*
X11250Y229500D02*
Y230500D01*
X65000Y272750D02*
X88627D01*
X65000D02*
Y289250D01*
X135000Y272750D02*
Y289250D01*
X73350Y360900D02*
X130940Y358790D01*
X73350Y360900D02*
X130940Y357410D01*
X73350Y360900D02*
X127150Y355300D01*
X69060Y358790D02*
X130940Y353190D01*
X69060Y357410D02*
X130940Y351810D01*
X72850Y355300D02*
X127150Y349700D01*
X69060Y353190D02*
X130940Y347590D01*
X69060Y351810D02*
X130940Y346210D01*
X72850Y349700D02*
X127150Y344100D01*
X69060Y347590D02*
X130940Y341990D01*
X69060Y346210D02*
X130940Y340610D01*
X72850Y344100D02*
X127150Y338500D01*
X69060Y341990D02*
X130940Y336390D01*
X69060Y340610D02*
X130940Y335010D01*
X72850Y338500D02*
X127150Y332900D01*
X69060Y336390D02*
X130940Y330790D01*
X69060Y335010D02*
X130940Y329410D01*
X69060Y325190D02*
X127127Y321700D01*
X69060Y323810D02*
X126650Y321700D01*
X72850Y327300D02*
X127127Y321700D01*
X72850Y332900D02*
X127150Y327300D01*
X69060Y330790D02*
X130940Y325190D01*
X69060Y329410D02*
X130940Y323810D01*
X75467Y289250D02*
Y317950D01*
X73350Y360900D02*
Y368050D01*
X126650D01*
Y360900D02*
Y368050D01*
X124474Y289250D02*
Y317950D01*
X75467D02*
X124474D01*
X73350Y321700D02*
X75467Y317950D01*
X72850Y321700D02*
X127127D01*
X69060Y323810D02*
X72850Y321700D01*
X69060Y323810D02*
Y325190D01*
X72850Y327300D01*
X69060Y329410D02*
X72850Y327300D01*
X69060Y329410D02*
Y330790D01*
X72850Y332900D01*
X69060Y335010D02*
X72850Y332900D01*
X69060Y335010D02*
Y336390D01*
X72850Y338500D01*
X69060Y340610D02*
X72850Y338500D01*
X69060Y340610D02*
Y341990D01*
X72850Y344100D01*
X69060Y346210D02*
X72850Y344100D01*
X69060Y346210D02*
Y347590D01*
X72850Y349700D01*
X69060Y351810D02*
X72850Y349700D01*
X69060Y351810D02*
Y353190D01*
X72850Y355300D01*
X69060Y357410D02*
X72850Y355300D01*
X69060Y357410D02*
Y358790D01*
X73350Y360900D01*
X127150D01*
X130940Y358790D01*
Y357410D02*
Y358790D01*
X127150Y355300D02*
X130940Y357410D01*
X127150Y355300D02*
X130940Y353190D01*
Y351810D02*
Y353190D01*
X127150Y349700D02*
X130940Y351810D01*
X127150Y349700D02*
X130940Y347590D01*
Y346210D02*
Y347590D01*
X127150Y344100D02*
X130940Y346210D01*
X127150Y344100D02*
X130940Y341990D01*
Y340610D02*
Y341990D01*
X127150Y338500D02*
X130940Y340610D01*
X127150Y338500D02*
X130940Y336390D01*
Y335010D02*
Y336390D01*
X127150Y332900D02*
X130940Y335010D01*
X127150Y332900D02*
X130940Y330790D01*
Y329410D02*
Y330790D01*
X127150Y327300D02*
X130940Y329410D01*
X127150Y327300D02*
X130940Y325190D01*
Y323810D02*
Y325190D01*
X127127Y321700D02*
X130940Y323810D01*
X124474Y317950D02*
X126650Y321700D01*
X111373Y272750D02*
X135000D01*
X65000Y289250D02*
X135000D01*
D11*
X172500Y5000D02*
X182500Y15000D01*
Y17500D01*
X17500Y5000D02*
Y215000D01*
X182500Y17500D02*
Y215000D01*
X17500Y5000D02*
X172500Y5000D01*
X17500Y215000D02*
X182500Y215000D01*
D12*
X145000Y240000D02*
Y249997D01*
X149998Y254995D01*
X154997Y249997D01*
Y240000D01*
Y247498D01*
X145000D01*
X159995Y240000D02*
Y254995D01*
X169992Y240000D01*
Y254995D01*
X174990D02*
X184987D01*
X179989D01*
Y240000D01*
D13*
X12498Y136669D02*
X2502D01*
Y141668D01*
X4168Y143334D01*
X7500D01*
X9166Y141668D01*
Y136669D01*
Y140002D02*
X12498Y143334D01*
X2502Y153331D02*
Y146666D01*
X7500D01*
X5834Y149998D01*
Y151664D01*
X7500Y153331D01*
X10832D01*
X12498Y151664D01*
Y148332D01*
X10832Y146666D01*
X4168Y127500D02*
X2502Y125834D01*
Y122502D01*
X4168Y120836D01*
X10832D01*
X12498Y122502D01*
Y125834D01*
X10832Y127500D01*
X12498Y130832D02*
Y134164D01*
Y132498D01*
X2502D01*
X4168Y130832D01*
X33334Y240832D02*
X31668Y242498D01*
X28335D01*
X26669Y240832D01*
Y234168D01*
X28335Y232502D01*
X31668D01*
X33334Y234168D01*
X36666Y240832D02*
X38332Y242498D01*
X41665D01*
X43331Y240832D01*
Y239166D01*
X41665Y237500D01*
X39998D01*
X41665D01*
X43331Y235834D01*
Y234168D01*
X41665Y232502D01*
X38332D01*
X36666Y234168D01*
X19998Y244169D02*
X10002D01*
Y249168D01*
X11668Y250834D01*
X15000D01*
X16666Y249168D01*
Y244169D01*
Y247502D02*
X19998Y250834D01*
X11668Y254166D02*
X10002Y255832D01*
Y259165D01*
X11668Y260831D01*
X13334D01*
X15000Y259165D01*
X16666Y260831D01*
X18332D01*
X19998Y259165D01*
Y255832D01*
X18332Y254166D01*
X16666D01*
X15000Y255832D01*
X13334Y254166D01*
X11668D01*
X15000Y255832D02*
Y259165D01*
X165835Y220002D02*
Y229998D01*
X169168Y226666D01*
X172500Y229998D01*
Y220002D01*
X175832D02*
X179165D01*
X177498D01*
Y229998D01*
X175832Y228332D01*
M02*
