G04*
G04 #@! TF.GenerationSoftware,Altium Limited,Altium Designer,26.6.0 (10)*
G04*
G04 Layer_Color=8421504*
G04 Board_Origin=49311024|11515748*
%FSLAX44Y44*%
%MOMM*%
G71*
G04*
G04 #@! TF.SameCoordinates,B94B3F44-B146-4F81-A062-C26A6FA00A31*
G04*
G04*
G04 #@! TF.FilePolarity,Positive*
G04*
G01*
G75*
%ADD14R,0.9500X0.6000*%
%ADD15R,1.0000X0.8000*%
%ADD16R,0.8000X1.0000*%
%ADD17R,1.6000X0.8000*%
%ADD18R,1.6000X4.9000*%
%ADD19R,1.5000X3.8100*%
D14*
X10000Y185000D02*
D03*
Y200000D02*
D03*
X15000Y237500D02*
D03*
Y222500D02*
D03*
D15*
X10000Y174250D02*
D03*
Y160750D02*
D03*
D16*
X28250Y222500D02*
D03*
X41750D02*
D03*
D17*
X30000Y97300D02*
D03*
X170000Y110000D02*
D03*
X30000Y21100D02*
D03*
Y33800D02*
D03*
Y46500D02*
D03*
Y59200D02*
D03*
Y71900D02*
D03*
Y84600D02*
D03*
Y110000D02*
D03*
Y122700D02*
D03*
Y135400D02*
D03*
Y148100D02*
D03*
Y160800D02*
D03*
Y173500D02*
D03*
X170000Y21100D02*
D03*
Y160800D02*
D03*
Y148100D02*
D03*
Y135400D02*
D03*
Y122700D02*
D03*
Y97300D02*
D03*
Y84600D02*
D03*
Y71900D02*
D03*
Y59200D02*
D03*
Y46500D02*
D03*
Y33800D02*
D03*
Y198900D02*
D03*
X30000Y186200D02*
D03*
Y198900D02*
D03*
X170000Y186200D02*
D03*
Y173500D02*
D03*
D18*
X125400Y244250D02*
D03*
X74600D02*
D03*
D19*
X100000Y247300D02*
D03*
M02*
