G04*
G04 #@! TF.GenerationSoftware,Altium Limited,Altium Designer,26.6.0 (10)*
G04*
G04 Layer_Color=128*
G04 Board_Origin=49311024|11515748*
%FSLAX44Y44*%
%MOMM*%
G71*
G04*
G04 #@! TF.SameCoordinates,B94B3F44-B146-4F81-A062-C26A6FA00A31*
G04*
G04*
G04 #@! TF.FilePolarity,Positive*
G04*
G01*
G75*
%ADD14R,0.9500X0.6000*%
%ADD15R,1.0000X0.8000*%
%ADD18R,1.6000X4.9000*%
G04:AMPARAMS|DCode=28|XSize=1.78mm|YSize=0.72mm|CornerRadius=0.18mm|HoleSize=0mm|Usage=FLASHONLY|Rotation=270.000|XOffset=0mm|YOffset=0mm|HoleType=Round|Shape=RoundedRectangle|*
%AMROUNDEDRECTD28*
21,1,1.7800,0.3600,0,0,270.0*
21,1,1.4200,0.7200,0,0,270.0*
1,1,0.3600,-0.1800,-0.7100*
1,1,0.3600,-0.1800,0.7100*
1,1,0.3600,0.1800,0.7100*
1,1,0.3600,0.1800,-0.7100*
%
%ADD28ROUNDEDRECTD28*%
%ADD29R,1.0000X1.4500*%
%ADD30R,0.6000X0.9500*%
G04:AMPARAMS|DCode=31|XSize=0.85mm|YSize=0.55mm|CornerRadius=0.1375mm|HoleSize=0mm|Usage=FLASHONLY|Rotation=270.000|XOffset=0mm|YOffset=0mm|HoleType=Round|Shape=RoundedRectangle|*
%AMROUNDEDRECTD31*
21,1,0.8500,0.2750,0,0,270.0*
21,1,0.5750,0.5500,0,0,270.0*
1,1,0.2750,-0.1375,-0.2875*
1,1,0.2750,-0.1375,0.2875*
1,1,0.2750,0.1375,0.2875*
1,1,0.2750,0.1375,-0.2875*
%
%ADD31ROUNDEDRECTD31*%
G04:AMPARAMS|DCode=32|XSize=1.27mm|YSize=0.31mm|CornerRadius=0.0806mm|HoleSize=0mm|Usage=FLASHONLY|Rotation=90.000|XOffset=0mm|YOffset=0mm|HoleType=Round|Shape=RoundedRectangle|*
%AMROUNDEDRECTD32*
21,1,1.2700,0.1488,0,0,90.0*
21,1,1.1088,0.3100,0,0,90.0*
1,1,0.1612,0.0744,0.5544*
1,1,0.1612,0.0744,-0.5544*
1,1,0.1612,-0.0744,-0.5544*
1,1,0.1612,-0.0744,0.5544*
%
%ADD32ROUNDEDRECTD32*%
G04:AMPARAMS|DCode=35|XSize=1.8mm|YSize=1.5mm|CornerRadius=0.15mm|HoleSize=0mm|Usage=FLASHONLY|Rotation=180.000|XOffset=0mm|YOffset=0mm|HoleType=Round|Shape=RoundedRectangle|*
%AMROUNDEDRECTD35*
21,1,1.8000,1.2000,0,0,180.0*
21,1,1.5000,1.5000,0,0,180.0*
1,1,0.3000,-0.7500,0.6000*
1,1,0.3000,0.7500,0.6000*
1,1,0.3000,0.7500,-0.6000*
1,1,0.3000,-0.7500,-0.6000*
%
%ADD35ROUNDEDRECTD35*%
G04:AMPARAMS|DCode=36|XSize=1.8mm|YSize=1.2mm|CornerRadius=0.12mm|HoleSize=0mm|Usage=FLASHONLY|Rotation=0.000|XOffset=0mm|YOffset=0mm|HoleType=Round|Shape=RoundedRectangle|*
%AMROUNDEDRECTD36*
21,1,1.8000,0.9600,0,0,0.0*
21,1,1.5600,1.2000,0,0,0.0*
1,1,0.2400,0.7800,-0.4800*
1,1,0.2400,-0.7800,-0.4800*
1,1,0.2400,-0.7800,0.4800*
1,1,0.2400,0.7800,0.4800*
%
%ADD36ROUNDEDRECTD36*%
G04:AMPARAMS|DCode=37|XSize=0.3mm|YSize=1.45mm|CornerRadius=0.045mm|HoleSize=0mm|Usage=FLASHONLY|Rotation=0.000|XOffset=0mm|YOffset=0mm|HoleType=Round|Shape=RoundedRectangle|*
%AMROUNDEDRECTD37*
21,1,0.3000,1.3600,0,0,0.0*
21,1,0.2100,1.4500,0,0,0.0*
1,1,0.0900,0.1050,-0.6800*
1,1,0.0900,-0.1050,-0.6800*
1,1,0.0900,-0.1050,0.6800*
1,1,0.0900,0.1050,0.6800*
%
%ADD37ROUNDEDRECTD37*%
G36*
X70000Y83450D02*
X65000Y83450D01*
X64900Y83450D01*
X64717Y83374D01*
X64576Y83234D01*
X64500Y83050D01*
X64500Y82951D01*
X64499Y82951D01*
X64500Y69450D01*
X64500Y69351D01*
X64576Y69167D01*
X64716Y69026D01*
X64900Y68950D01*
X65000Y68950D01*
X65000D01*
X69999Y68951D01*
X70099Y68951D01*
X70283Y69027D01*
X70423Y69167D01*
X70500Y69351D01*
X70500Y69450D01*
Y69450D01*
X70499Y82951D01*
Y83050D01*
X70423Y83233D01*
X70283Y83374D01*
X70100Y83450D01*
X70000Y83450D01*
X70000Y83450D01*
D02*
G37*
G36*
X78000D02*
X73000Y83450D01*
X72900Y83450D01*
X72717Y83374D01*
X72576Y83234D01*
X72500Y83050D01*
X72499Y82951D01*
X72499Y82951D01*
X72500Y69450D01*
X72500Y69351D01*
X72576Y69167D01*
X72716Y69026D01*
X72900Y68950D01*
X73000Y68950D01*
X73000D01*
X78000Y68951D01*
X78099Y68951D01*
X78283Y69027D01*
X78423Y69167D01*
X78499Y69351D01*
X78500Y69450D01*
Y69450D01*
X78499Y82951D01*
Y83050D01*
X78423Y83233D01*
X78283Y83374D01*
X78099Y83450D01*
X78000Y83450D01*
X78000Y83450D01*
D02*
G37*
G36*
X135000Y83449D02*
X130000Y83450D01*
X129901Y83450D01*
X129717Y83374D01*
X129576Y83233D01*
X129500Y83050D01*
X129500Y82950D01*
X129500Y82950D01*
X129500Y69450D01*
X129500Y69351D01*
X129576Y69167D01*
X129717Y69026D01*
X129901Y68950D01*
X130000Y68950D01*
X130000D01*
X135000Y68950D01*
X135099Y68950D01*
X135283Y69026D01*
X135424Y69167D01*
X135500Y69350D01*
X135500Y69450D01*
Y69450D01*
X135500Y82950D01*
Y83050D01*
X135424Y83233D01*
X135283Y83373D01*
X135100Y83449D01*
X135001Y83449D01*
X135000Y83449D01*
D02*
G37*
G36*
X127000Y83450D02*
X122000Y83450D01*
X121900Y83450D01*
X121717Y83374D01*
X121576Y83234D01*
X121500Y83050D01*
X121500Y82951D01*
X121499Y82951D01*
X121500Y69450D01*
X121500Y69351D01*
X121576Y69167D01*
X121716Y69026D01*
X121900Y68950D01*
X122000Y68950D01*
X122000D01*
X127000Y68951D01*
X127099Y68951D01*
X127283Y69027D01*
X127423Y69167D01*
X127500Y69351D01*
X127500Y69450D01*
Y69450D01*
X127499Y82951D01*
Y83050D01*
X127423Y83233D01*
X127283Y83374D01*
X127100Y83450D01*
X127000Y83450D01*
X127000Y83450D01*
D02*
G37*
D14*
X70000Y182500D02*
D03*
Y167500D02*
D03*
X82500Y182500D02*
D03*
Y167500D02*
D03*
X95000Y182500D02*
D03*
Y167500D02*
D03*
X120000Y105000D02*
D03*
Y120000D02*
D03*
D15*
X117500Y149250D02*
D03*
Y135750D02*
D03*
D18*
X125400Y244250D02*
D03*
X74600D02*
D03*
D28*
X15950Y206600D02*
D03*
Y253400D02*
D03*
X54050Y206600D02*
D03*
X41350D02*
D03*
X28650D02*
D03*
X54050Y253400D02*
D03*
X28650D02*
D03*
X41350D02*
D03*
D29*
X155500Y170000D02*
D03*
X139500D02*
D03*
X155500Y110000D02*
D03*
X139500D02*
D03*
D30*
X120000Y167500D02*
D03*
X105000D02*
D03*
X82500Y95000D02*
D03*
X67500D02*
D03*
D31*
X135000Y127000D02*
D03*
X145000Y127000D02*
D03*
X155000D02*
D03*
Y153000D02*
D03*
X135000Y153000D02*
D03*
D32*
X102500Y150300D02*
D03*
X97500D02*
D03*
X92500D02*
D03*
X87500D02*
D03*
X82500D02*
D03*
Y110000D02*
D03*
X87500D02*
D03*
X92500D02*
D03*
X97500D02*
D03*
X102500D02*
D03*
D35*
X49200Y67200D02*
D03*
X150800D02*
D03*
D36*
Y25400D02*
D03*
X49200D02*
D03*
D37*
X112500Y76200D02*
D03*
X102500D02*
D03*
X97500D02*
D03*
X87500D02*
D03*
X82500D02*
D03*
X92500D02*
D03*
X107500D02*
D03*
X117500D02*
D03*
M02*
