M48
;Layer_Color=9474304
;FILE_FORMAT=4:2
METRIC,LZ
;TYPE=PLATED
T01F00S00C0.30
;TYPE=NON_PLATED
T02F00S00C0.75
%
T01
X000475Y000075
X000725
X000975
X001225
X001475
X001725
X00185Y000325
X00085
X000475Y0004
Y0005
X00055Y0008
X000525Y00095
Y00105
X000471Y00125
X0006Y001325
X00085
X001098Y001494
X0012Y0016
X001295Y001675
X001548Y001594
X001542Y001984
X001435Y002009
X001475Y002075
X001336Y002058
X00125Y002126
X000943Y002142
X001001Y002048
X00107Y001963
X0007Y0019
X000591Y001748
X000191Y001848
X0001Y002075
X000272Y002372
X0006Y002325
X000495Y002214
X00087Y002224
X0016Y002325
X00185
X001725Y002075
X001857Y001926
X00186Y001816
X001445Y001214
X00125Y001292
X0001Y001225
T02
X000711Y000618
X001289
M30
