G04*
G04 #@! TF.GenerationSoftware,Altium Limited,Altium Designer,26.6.0 (10)*
G04*
G04 Layer_Physical_Order=1*
G04 Layer_Color=255*
G04 Board_Origin=49311024|11515748*
%FSLAX44Y44*%
%MOMM*%
G71*
G04*
G04 #@! TF.SameCoordinates,B94B3F44-B146-4F81-A062-C26A6FA00A31*
G04*
G04*
G04 #@! TF.FilePolarity,Positive*
G04*
G01*
G75*
%ADD12C,0.2500*%
%ADD14R,0.9500X0.6000*%
%ADD15R,1.0000X0.8000*%
%ADD16R,0.8000X1.0000*%
%ADD17R,1.6000X0.8000*%
%ADD18R,1.6000X4.9000*%
%ADD19R,1.5000X3.8100*%
%ADD21C,0.8000*%
%ADD22C,0.5000*%
%ADD23C,0.4000*%
%ADD24R,2.3040X0.9424*%
%ADD25R,2.3040X1.0440*%
%ADD26C,0.7500*%
%ADD27C,0.6000*%
G36*
X196666Y3334D02*
X3334D01*
Y154210D01*
X8730D01*
Y160750D01*
X10000D01*
Y162020D01*
X17540D01*
Y167290D01*
X17540D01*
X17000Y168250D01*
Y178994D01*
X18131Y179750D01*
X18604D01*
X20000Y179500D01*
X20000Y178250D01*
Y168300D01*
X20000Y167500D01*
X20000Y166000D01*
Y155600D01*
X20000Y154800D01*
X20000Y153300D01*
Y142900D01*
X20000Y142100D01*
X20000Y140600D01*
Y130200D01*
X20000Y129400D01*
X20000Y127900D01*
Y117500D01*
X20000Y116700D01*
X20000Y115200D01*
Y104800D01*
X20000Y104000D01*
X20000Y102500D01*
Y92100D01*
X20000Y91300D01*
X20000Y89800D01*
Y79400D01*
X20000Y78600D01*
X20000Y77100D01*
Y67016D01*
X19460Y65740D01*
X19460Y64624D01*
Y60470D01*
X30000D01*
X40540D01*
Y64624D01*
X40540Y65740D01*
X40000Y67016D01*
Y77100D01*
X40000Y77900D01*
X40000Y79400D01*
Y89800D01*
X40000Y90600D01*
X40000Y92100D01*
Y102500D01*
X40000Y103300D01*
X40000Y104800D01*
Y115200D01*
X40000Y116000D01*
X40000Y117500D01*
Y127900D01*
X40000Y128700D01*
X40000Y130200D01*
Y132086D01*
X40400D01*
X41668Y132339D01*
X42743Y133057D01*
X72343Y162657D01*
X72686Y163171D01*
X73283Y163153D01*
X74186Y162715D01*
Y102621D01*
X73907Y102384D01*
X72774Y101912D01*
X51684Y123002D01*
X52100Y124005D01*
Y125995D01*
X51339Y127832D01*
X49932Y129239D01*
X48095Y130000D01*
X46105D01*
X44268Y129239D01*
X42861Y127832D01*
X42100Y125995D01*
Y124005D01*
X42861Y122168D01*
X44268Y120761D01*
X45063Y120432D01*
X45427Y119887D01*
X53928Y111386D01*
X53763Y110858D01*
X53193Y110000D01*
X51505D01*
X49668Y109239D01*
X48261Y107832D01*
X47500Y105995D01*
Y104005D01*
X48261Y102168D01*
X49668Y100761D01*
Y99239D01*
X48261Y97832D01*
X47500Y95995D01*
Y94005D01*
X48261Y92168D01*
X49668Y90761D01*
X51505Y90000D01*
X52814D01*
X56428Y86386D01*
X56263Y85858D01*
X55693Y85000D01*
X54005D01*
X52168Y84239D01*
X50761Y82832D01*
X50000Y80995D01*
Y79005D01*
X50761Y77168D01*
X51686Y76243D01*
Y54845D01*
X50186Y54299D01*
X48495Y55000D01*
X46505D01*
X44668Y54239D01*
X43261Y52832D01*
X43041Y52300D01*
X42716Y51975D01*
X40788Y52168D01*
X40510Y52588D01*
X40540Y52660D01*
X40540Y53776D01*
Y57930D01*
X30000D01*
X19460D01*
Y54150D01*
X17960Y53529D01*
X14588Y56901D01*
Y120511D01*
X15000Y121505D01*
Y123495D01*
X14239Y125332D01*
X12832Y126739D01*
X10995Y127500D01*
X9005D01*
X7168Y126739D01*
X5761Y125332D01*
X5000Y123495D01*
Y121505D01*
X5412Y120511D01*
Y55000D01*
X5761Y53244D01*
X6756Y51756D01*
X15256Y43256D01*
X16744Y42261D01*
X18500Y41912D01*
X19787D01*
X20000Y40500D01*
Y39800D01*
X20000D01*
Y27800D01*
X20000D01*
Y27100D01*
X20000D01*
Y15100D01*
X40000D01*
Y17786D01*
X43600D01*
X44868Y18039D01*
X45943Y18757D01*
X57343Y30157D01*
X58061Y31232D01*
X58314Y32500D01*
Y76243D01*
X59239Y77168D01*
X60000Y79005D01*
Y80693D01*
X60858Y81263D01*
X61386Y81428D01*
X74592Y68222D01*
X73743Y66950D01*
X72294Y67550D01*
X70006D01*
X67893Y66675D01*
X66275Y65057D01*
X65400Y62944D01*
Y60656D01*
X66275Y58543D01*
X67893Y56925D01*
X70006Y56050D01*
X72294D01*
X74407Y56925D01*
X76025Y58543D01*
X76900Y60656D01*
Y62944D01*
X76300Y64393D01*
X77572Y65242D01*
X122657Y20157D01*
X123732Y19439D01*
X125000Y19186D01*
X160000D01*
Y15100D01*
X180000D01*
Y27100D01*
X180000D01*
Y27800D01*
X180000D01*
Y39000D01*
X180000Y39800D01*
X180000Y41300D01*
Y52500D01*
X180000D01*
Y53200D01*
X180000D01*
Y64400D01*
X180000Y65200D01*
X180000Y66700D01*
Y77100D01*
X180000Y77900D01*
X180000Y79400D01*
Y89800D01*
X180000Y90600D01*
X180000Y92100D01*
Y102500D01*
X180000Y103300D01*
X180000Y104800D01*
Y115200D01*
X180000Y116000D01*
X180000Y117500D01*
Y128700D01*
X180000D01*
Y129400D01*
X180000D01*
Y140600D01*
X180000Y141400D01*
X180000Y142900D01*
Y153300D01*
X180000Y154100D01*
X180000Y155600D01*
Y165684D01*
X180540Y166960D01*
X180540Y168076D01*
Y172230D01*
X170000D01*
X159460D01*
Y168076D01*
X159460Y166960D01*
X160000Y165684D01*
Y163337D01*
X158500Y162716D01*
X157589Y163627D01*
X155751Y164389D01*
X153762D01*
X151924Y163627D01*
X151763Y163467D01*
X149801D01*
X135384Y177884D01*
X134061Y178768D01*
X132500Y179078D01*
X132500Y179078D01*
X122500D01*
X120939Y178768D01*
X119616Y177884D01*
X119616Y177884D01*
X106872Y165140D01*
X105988Y163817D01*
X105678Y162256D01*
X105678Y162256D01*
Y152381D01*
X105517Y152221D01*
X104756Y150383D01*
Y148394D01*
X105517Y146556D01*
X106924Y145150D01*
X108762Y144389D01*
X110751D01*
X112589Y145150D01*
X113995Y146556D01*
X114756Y148394D01*
Y150383D01*
X113995Y152221D01*
X113835Y152381D01*
Y157899D01*
X115335Y158198D01*
X115761Y157168D01*
X117168Y155761D01*
X117605Y155580D01*
X117608Y155562D01*
X118327Y154487D01*
X120657Y152157D01*
X152657Y120157D01*
X153732Y119439D01*
X155000Y119186D01*
X158939D01*
X160000Y118126D01*
X160000Y116700D01*
X160000Y115200D01*
Y104800D01*
X160000Y104000D01*
X160000Y102500D01*
Y92100D01*
X160000Y91300D01*
X160000Y89800D01*
Y79400D01*
X160000Y78600D01*
X160000Y77100D01*
Y66700D01*
X160000Y65900D01*
X160000Y64400D01*
Y62514D01*
X156700D01*
X155432Y62261D01*
X154357Y61543D01*
X148628Y55814D01*
X133045D01*
X132495Y57314D01*
X133725Y58543D01*
X134600Y60656D01*
Y62944D01*
X133725Y65057D01*
X132107Y66675D01*
X129994Y67550D01*
X127706D01*
X125593Y66675D01*
X123975Y65057D01*
X123324Y63484D01*
X121714Y62972D01*
X80814Y103873D01*
Y204254D01*
X80561Y205522D01*
X79843Y206597D01*
X46913Y239527D01*
X45838Y240245D01*
X44570Y240498D01*
X30942D01*
X30016Y241423D01*
X28179Y242184D01*
X26190D01*
X24352Y241423D01*
X23585Y240656D01*
X21750D01*
Y242500D01*
X8250D01*
Y232500D01*
X21750D01*
Y234028D01*
X23269D01*
X24352Y232945D01*
X26190Y232184D01*
X28179D01*
X30016Y232945D01*
X30942Y233870D01*
X43197D01*
X45642Y231426D01*
X45068Y230040D01*
X43020D01*
Y223770D01*
X48290D01*
Y226818D01*
X49676Y227392D01*
X74186Y202881D01*
Y194845D01*
X72686Y194299D01*
X70995Y195000D01*
X69005D01*
X67168Y194239D01*
X65761Y192832D01*
X65000Y190995D01*
Y189005D01*
X65761Y187168D01*
X66686Y186243D01*
Y166373D01*
X41349Y141035D01*
X40000Y141594D01*
X40000Y142900D01*
Y153300D01*
X40000Y154100D01*
X40000Y155600D01*
Y166000D01*
X40000Y166800D01*
X40000Y168300D01*
Y170186D01*
X53500D01*
X54768Y170439D01*
X55726Y171079D01*
X56294Y170511D01*
X58131Y169750D01*
X60120D01*
X61958Y170511D01*
X63365Y171918D01*
X64126Y173756D01*
Y175745D01*
X63365Y177583D01*
X61958Y178989D01*
X60120Y179750D01*
X58131D01*
X56294Y178989D01*
X55618Y178314D01*
X55000D01*
X53732Y178061D01*
X52657Y177343D01*
X52127Y176814D01*
X41061D01*
X40000Y177874D01*
X40000Y179500D01*
X40000Y181000D01*
Y191400D01*
X40000Y192200D01*
X40000Y193700D01*
Y204900D01*
X20000D01*
Y193700D01*
X20000Y192900D01*
X20000Y191400D01*
Y189750D01*
X18131D01*
X17509Y189493D01*
X16750Y190000D01*
Y190000D01*
X3334D01*
Y195000D01*
X16750D01*
Y205000D01*
X16110D01*
X15489Y206500D01*
X18244Y209256D01*
X19239Y210744D01*
X19588Y212500D01*
Y217500D01*
X21750D01*
X22250Y216207D01*
Y215500D01*
X33934Y215500D01*
X35210Y214960D01*
X35526Y214960D01*
X40480D01*
Y222500D01*
Y230040D01*
X35526D01*
X35210Y230040D01*
X33934Y229500D01*
X33710Y229500D01*
X22250D01*
Y228793D01*
X21750Y227500D01*
X8250D01*
Y217500D01*
X10412D01*
Y214401D01*
X8162Y212151D01*
X7168Y211739D01*
X5761Y210332D01*
X5000Y208495D01*
Y207765D01*
X3500Y206653D01*
X3334Y206703D01*
Y266666D01*
X90000D01*
Y225750D01*
X95545D01*
X95796Y224879D01*
X98716Y217829D01*
X102408Y211149D01*
X106824Y204925D01*
X111909Y199235D01*
X117600Y194149D01*
X123824Y189733D01*
X130503Y186042D01*
X137554Y183121D01*
X144887Y181009D01*
X152411Y179730D01*
X159460Y179334D01*
Y174770D01*
X170000D01*
X180540D01*
Y180040D01*
X180500D01*
Y192360D01*
X180540D01*
Y197630D01*
X170000D01*
X159460D01*
Y193553D01*
X158365Y192528D01*
X152860Y192889D01*
X145812Y194291D01*
X139007Y196601D01*
X132562Y199779D01*
X126587Y203771D01*
X121184Y208510D01*
X116446Y213912D01*
X112453Y219887D01*
X109756Y225357D01*
X110000Y225750D01*
X110000D01*
Y266666D01*
X196666D01*
Y3334D01*
D02*
G37*
%LPC*%
G36*
X48290Y221230D02*
X43020D01*
Y214960D01*
X48290D01*
Y221230D01*
D02*
G37*
G36*
X180540Y205440D02*
X171270D01*
Y200170D01*
X180540D01*
Y205440D01*
D02*
G37*
G36*
X168730D02*
X159460D01*
Y200170D01*
X168730D01*
Y205440D01*
D02*
G37*
G36*
X17540Y159480D02*
X11270D01*
Y154210D01*
X17540D01*
Y159480D01*
D02*
G37*
%LPD*%
D12*
X47100Y125000D02*
X47770Y124330D01*
Y122230D02*
X123500Y46500D01*
X47770Y122230D02*
Y124330D01*
X40353Y33800D02*
X46553Y40000D01*
X30000Y33800D02*
X40353D01*
X27184Y237184D02*
X44570D01*
X77500Y204254D01*
Y102500D02*
Y204254D01*
X120670Y156830D02*
Y159330D01*
X123000Y154500D02*
X155000Y122500D01*
X123000Y154500D02*
Y154500D01*
X120000Y160000D02*
X120670Y159330D01*
Y156830D02*
X123000Y154500D01*
X127500Y157500D02*
Y160000D01*
X128830Y161330D02*
Y166830D01*
X129500Y167500D01*
X127500Y160000D02*
X128830Y161330D01*
X27026Y237342D02*
X27184Y237184D01*
X77500Y102500D02*
X127500Y52500D01*
X123500Y46500D02*
X170000D01*
X122500Y35000D02*
X168800D01*
X52500Y105000D02*
X122500Y35000D01*
X168800D02*
X170000Y33800D01*
X52500Y95000D02*
X125000Y22500D01*
X167500D01*
X156700Y59200D02*
X170000D01*
X150000Y52500D02*
X156700Y59200D01*
X127500Y52500D02*
X150000D01*
X55000Y32500D02*
Y80000D01*
X46553Y40000D02*
X47500D01*
X10000Y174250D02*
Y185000D01*
X28800D01*
X30000Y186200D01*
Y135400D02*
X40400D01*
X70000Y165000D01*
Y190000D01*
X43600Y21100D02*
X55000Y32500D01*
X30000Y21100D02*
X43600D01*
X127500Y157500D02*
X149600Y135400D01*
X170000D01*
X155000Y122500D02*
X170000D01*
X170000Y122500D01*
Y122700D01*
X55000Y175000D02*
X60000D01*
X53500Y173500D02*
X55000Y175000D01*
X30000Y173500D02*
X53500D01*
X15000Y237500D02*
X15158Y237342D01*
X27026D01*
X167500Y22500D02*
X170000Y20000D01*
X170000Y20000D01*
Y21100D01*
D14*
X10000Y185000D02*
D03*
Y200000D02*
D03*
X15000Y237500D02*
D03*
Y222500D02*
D03*
D15*
X10000Y174250D02*
D03*
Y160750D02*
D03*
D16*
X28250Y222500D02*
D03*
X41750D02*
D03*
D17*
X30000Y97300D02*
D03*
X170000Y110000D02*
D03*
X30000Y21100D02*
D03*
Y33800D02*
D03*
Y46500D02*
D03*
Y59200D02*
D03*
Y71900D02*
D03*
Y84600D02*
D03*
Y110000D02*
D03*
Y122700D02*
D03*
Y135400D02*
D03*
Y148100D02*
D03*
Y160800D02*
D03*
Y173500D02*
D03*
X170000Y21100D02*
D03*
Y160800D02*
D03*
Y148100D02*
D03*
Y135400D02*
D03*
Y122700D02*
D03*
Y97300D02*
D03*
Y84600D02*
D03*
Y71900D02*
D03*
Y59200D02*
D03*
Y46500D02*
D03*
Y33800D02*
D03*
Y198900D02*
D03*
X30000Y186200D02*
D03*
Y198900D02*
D03*
X170000Y186200D02*
D03*
Y173500D02*
D03*
D18*
X125400Y244250D02*
D03*
X74600D02*
D03*
D19*
X100000Y247300D02*
D03*
D21*
X100470Y232250D02*
G03*
X166000Y186200I59561J15106D01*
G01*
Y186200D02*
X170000Y186200D01*
X100000Y247300D02*
X100470Y232250D01*
D22*
X18500Y46500D02*
X43729D01*
X47229Y50000D01*
X47500D01*
X15000Y212500D02*
Y222500D01*
X10000Y207500D02*
X15000Y212500D01*
X10000Y200000D02*
Y207500D01*
Y55000D02*
Y122500D01*
Y55000D02*
X18500Y46500D01*
X15000Y222500D02*
X28250D01*
D23*
X109756Y162256D02*
X122500Y175000D01*
X109756Y149389D02*
Y162256D01*
X122500Y175000D02*
X132500D01*
X148111Y159389D01*
X154756D01*
D24*
X169020Y172788D02*
D03*
D25*
Y200220D02*
D03*
D26*
X128850Y61800D02*
D03*
X71150D02*
D03*
D27*
X185000Y232500D02*
D03*
X172500Y207500D02*
D03*
X185000Y32500D02*
D03*
X172500Y7500D02*
D03*
X160000Y232500D02*
D03*
X147500Y207500D02*
D03*
Y7500D02*
D03*
X122500D02*
D03*
X97500D02*
D03*
X85000Y132500D02*
D03*
Y32500D02*
D03*
X72500Y7500D02*
D03*
X60000Y232500D02*
D03*
Y132500D02*
D03*
X47500Y7500D02*
D03*
X86973Y222407D02*
D03*
X94339Y214237D02*
D03*
X100056Y204839D02*
D03*
X107032Y196334D02*
D03*
X185991Y181605D02*
D03*
X185665Y192600D02*
D03*
X154238Y198379D02*
D03*
X143541Y200943D02*
D03*
X133648Y205751D02*
D03*
X125023Y212578D02*
D03*
X49473Y221450D02*
D03*
X120000Y160000D02*
D03*
X129500Y167500D02*
D03*
X144473Y121450D02*
D03*
X109756Y149389D02*
D03*
X154756Y159389D02*
D03*
X125040Y129210D02*
D03*
X47100Y125000D02*
D03*
X52500Y105000D02*
D03*
Y95000D02*
D03*
X47500Y50000D02*
D03*
X10000Y207500D02*
D03*
Y122500D02*
D03*
X55000Y80000D02*
D03*
X47500Y40000D02*
D03*
X19126Y184750D02*
D03*
X59126Y174750D02*
D03*
X70000Y190000D02*
D03*
X27184Y237184D02*
D03*
M02*
