G04*
G04 #@! TF.GenerationSoftware,Altium Limited,Altium Designer,26.6.0 (10)*
G04*
G04 Layer_Color=32896*
G04 Board_Origin=49311024|11515748*
%FSLAX44Y44*%
%MOMM*%
G71*
G04*
G04 #@! TF.SameCoordinates,B94B3F44-B146-4F81-A062-C26A6FA00A31*
G04*
G04*
G04 #@! TF.FilePolarity,Positive*
G04*
G01*
G75*
%ADD10C,0.2000*%
%ADD12C,0.2500*%
%ADD13C,0.1200*%
%ADD38C,0.3000*%
%ADD43C,0.1500*%
D10*
X10500Y215750D02*
Y244250D01*
X112000Y171250D02*
X113000D01*
X112000Y163750D02*
X113000D01*
X66250Y174500D02*
Y175500D01*
X73750Y174500D02*
Y175500D01*
X78750Y174500D02*
Y175500D01*
X86250Y174500D02*
Y175500D01*
X91250Y174500D02*
Y175500D01*
X98750Y174500D02*
Y175500D01*
X123750Y112000D02*
Y113000D01*
X116250Y112000D02*
Y113000D01*
X74500Y98750D02*
X75500D01*
X74500Y91250D02*
X75500D01*
X55000Y77200D02*
Y86200D01*
X145000Y77200D02*
Y86200D01*
X55000D02*
X145000D01*
X55000Y-700D02*
X145000D01*
Y34200D02*
Y57200D01*
X55000Y34200D02*
Y57200D01*
X145000Y-700D02*
Y16200D01*
X55000Y-700D02*
Y16200D01*
D12*
X109300Y106150D02*
G03*
X109300Y106150I-1250J0D01*
G01*
D13*
X35200Y9600D02*
Y132000D01*
X9800Y9600D02*
X35200D01*
X9800D02*
Y132000D01*
X35200D01*
X151200Y199532D02*
X154532Y196200D01*
X157865D01*
X161197Y199532D01*
X157865Y211195D02*
Y206197D01*
X156198Y204531D01*
X152866D01*
X151200Y206197D01*
Y211195D01*
Y214527D02*
X154532Y217860D01*
X157865D01*
X161197Y214527D01*
X159531Y229522D02*
X161197Y227856D01*
Y224524D01*
X159531Y222858D01*
X152866D01*
X151200Y224524D01*
Y227856D01*
X152866Y229522D01*
X156198D01*
Y226190D01*
X161197Y232855D02*
X151200D01*
Y237853D01*
X152866Y239519D01*
X154532D01*
X156198Y237853D01*
Y232855D01*
Y237853D01*
X157865Y239519D01*
X159531D01*
X161197Y237853D01*
Y232855D01*
Y242852D02*
X151200D01*
Y249516D01*
X172864Y188700D02*
X166200Y192032D01*
X172864Y195364D01*
X166200Y205361D02*
Y198697D01*
X172864Y205361D01*
X174531D01*
X176197Y203695D01*
Y200363D01*
X174531Y198697D01*
Y208694D02*
X176197Y210360D01*
Y213692D01*
X174531Y215358D01*
X167866D01*
X166200Y213692D01*
Y210360D01*
X167866Y208694D01*
X174531D01*
X166200Y225355D02*
Y218690D01*
X172864Y225355D01*
X174531D01*
X176197Y223689D01*
Y220357D01*
X174531Y218690D01*
X176197Y235352D02*
X174531Y232019D01*
X171198Y228687D01*
X167866D01*
X166200Y230353D01*
Y233685D01*
X167866Y235352D01*
X169532D01*
X171198Y233685D01*
Y228687D01*
X166200Y238684D02*
X167866D01*
Y240350D01*
X166200D01*
Y238684D01*
Y247015D02*
Y250347D01*
Y248681D01*
X176197D01*
X174531Y247015D01*
Y255345D02*
X176197Y257011D01*
Y260343D01*
X174531Y262010D01*
X167866D01*
X166200Y260343D01*
Y257011D01*
X167866Y255345D01*
X174531D01*
X191197Y192864D02*
Y186200D01*
X181200D01*
Y192864D01*
X186198Y186200D02*
Y189532D01*
X191197Y196197D02*
Y202861D01*
X189531D01*
X182866Y196197D01*
X181200D01*
X191197Y206194D02*
Y212858D01*
X189531D01*
X182866Y206194D01*
X181200D01*
Y216190D02*
X191197D01*
X181200Y222855D01*
X191197D01*
X189531Y226187D02*
X191197Y227853D01*
Y231185D01*
X189531Y232852D01*
X182866D01*
X181200Y231185D01*
Y227853D01*
X182866Y226187D01*
X189531D01*
X27031Y145365D02*
X28697Y143698D01*
Y140366D01*
X27031Y138700D01*
X25364D01*
X23698Y140366D01*
Y143698D01*
X22032Y145365D01*
X20366D01*
X18700Y143698D01*
Y140366D01*
X20366Y138700D01*
X28697Y148697D02*
X18700D01*
X22032Y152029D01*
X18700Y155361D01*
X28697D01*
Y158694D02*
X18700D01*
Y163692D01*
X20366Y165358D01*
X27031D01*
X28697Y163692D01*
Y158694D01*
X45831Y192498D02*
Y184168D01*
X44165Y182502D01*
X40832D01*
X39166Y184168D01*
Y192498D01*
X35834Y190832D02*
X34168Y192498D01*
X30835D01*
X29169Y190832D01*
Y189166D01*
X30835Y187500D01*
X32502D01*
X30835D01*
X29169Y185834D01*
Y184168D01*
X30835Y182502D01*
X34168D01*
X35834Y184168D01*
X134166Y143332D02*
X135832Y144998D01*
X139164D01*
X140831Y143332D01*
Y136668D01*
X139164Y135002D01*
X135832D01*
X134166Y136668D01*
X124169Y135002D02*
X130834D01*
X124169Y141666D01*
Y143332D01*
X125836Y144998D01*
X129168D01*
X130834Y143332D01*
X149166Y188332D02*
X150832Y189998D01*
X154164D01*
X155831Y188332D01*
Y181668D01*
X154164Y180002D01*
X150832D01*
X149166Y181668D01*
X139169Y189998D02*
X145834D01*
Y185000D01*
X142502Y186666D01*
X140836D01*
X139169Y185000D01*
Y181668D01*
X140836Y180002D01*
X144168D01*
X145834Y181668D01*
X119164Y175002D02*
Y184998D01*
X114166D01*
X112500Y183332D01*
Y180000D01*
X114166Y178334D01*
X119164D01*
X115832D02*
X112500Y175002D01*
X109168D02*
X105836D01*
X107502D01*
Y184998D01*
X109168Y183332D01*
X65002Y189169D02*
X74998D01*
Y194168D01*
X73332Y195834D01*
X70000D01*
X68334Y194168D01*
Y189169D01*
Y192502D02*
X65002Y195834D01*
Y204165D02*
X74998D01*
X70000Y199166D01*
Y205831D01*
X77502Y189169D02*
X87498D01*
Y194168D01*
X85832Y195834D01*
X82500D01*
X80834Y194168D01*
Y189169D01*
Y192502D02*
X77502Y195834D01*
X85832Y199166D02*
X87498Y200832D01*
Y204165D01*
X85832Y205831D01*
X84166D01*
X82500Y204165D01*
Y202498D01*
Y204165D01*
X80834Y205831D01*
X79168D01*
X77502Y204165D01*
Y200832D01*
X79168Y199166D01*
X90002Y189169D02*
X99998D01*
Y194168D01*
X98332Y195834D01*
X95000D01*
X93334Y194168D01*
Y189169D01*
Y192502D02*
X90002Y195834D01*
Y205831D02*
Y199166D01*
X96666Y205831D01*
X98332D01*
X99998Y204165D01*
Y200832D01*
X98332Y199166D01*
X125831Y90002D02*
Y99998D01*
X120832D01*
X119166Y98332D01*
Y95000D01*
X120832Y93334D01*
X125831D01*
X122498D02*
X119166Y90002D01*
X115834Y99998D02*
X109169D01*
Y98332D01*
X115834Y91668D01*
Y90002D01*
X149166Y98332D02*
X150832Y99998D01*
X154164D01*
X155831Y98332D01*
Y91668D01*
X154164Y90002D01*
X150832D01*
X149166Y91668D01*
X140836Y90002D02*
Y99998D01*
X145834Y95000D01*
X139169D01*
X180831Y144998D02*
Y136668D01*
X179165Y135002D01*
X175832D01*
X174166Y136668D01*
Y144998D01*
X164169Y135002D02*
X170834D01*
X164169Y141666D01*
Y143332D01*
X165835Y144998D01*
X169168D01*
X170834Y143332D01*
X71665Y134998D02*
Y126668D01*
X69998Y125002D01*
X66666D01*
X65000Y126668D01*
Y134998D01*
X61668Y125002D02*
X58335D01*
X60002D01*
Y134998D01*
X61668Y133332D01*
X73331Y102502D02*
Y112498D01*
X68332D01*
X66666Y110832D01*
Y107500D01*
X68332Y105834D01*
X73331D01*
X69998D02*
X66666Y102502D01*
X56669Y112498D02*
X60002Y110832D01*
X63334Y107500D01*
Y104168D01*
X61668Y102502D01*
X58335D01*
X56669Y104168D01*
Y105834D01*
X58335Y107500D01*
X63334D01*
X106594Y47697D02*
X109926D01*
X108260D01*
Y39366D01*
X109926Y37700D01*
X111592D01*
X113258Y39366D01*
X103261Y37700D02*
Y47697D01*
X98263D01*
X96597Y46031D01*
Y42698D01*
X98263Y41032D01*
X103261D01*
X86600Y37700D02*
X93264D01*
X86600Y44365D01*
Y46031D01*
X88266Y47697D01*
X91598D01*
X93264Y46031D01*
D38*
X160000Y132000D02*
Y148000D01*
D43*
X106300Y146150D02*
X108500D01*
Y114150D02*
Y146150D01*
X106300Y114150D02*
X108500D01*
X76500Y146150D02*
X78700D01*
X76500Y114150D02*
Y146150D01*
Y114150D02*
X78700D01*
M02*
